M48
; DRILL file {KiCad 8.0.0} date 2024-03-21T16:00:11+0200
; FORMAT={-:-/ absolute / inch / decimal}
; #@! TF.CreationDate,2024-03-21T16:00:11+02:00
; #@! TF.GenerationSoftware,Kicad,Pcbnew,8.0.0
; #@! TF.FileFunction,Plated,1,2,PTH
FMAT,2
INCH
; #@! TA.AperFunction,Plated,PTH,ComponentDrill
T1C0.0120
; #@! TA.AperFunction,Plated,PTH,ViaDrill
T2C0.0157
; #@! TA.AperFunction,Plated,PTH,ComponentDrill
T3C0.0236
; #@! TA.AperFunction,Plated,PTH,ComponentDrill
T4C0.0276
%
G90
G05
T1
X1.7374Y-1.1234
X1.885Y-1.0151
T2
X1.96Y-0.9251
X1.96Y-1.0001
X1.96Y-1.1491
X1.96Y-1.3751
X1.96Y-1.4501
X1.96Y-1.5251
X1.96Y-1.6001
X1.96Y-1.6751
X1.96Y-1.7501
X1.96Y-1.8251
X1.96Y-1.9001
X1.96Y-1.9751
X1.96Y-2.0501
X1.96Y-2.4501
X1.96Y-2.5251
X1.96Y-2.6001
X2.1353Y-2.0217
X2.1683Y-2.2801
X2.188Y-1.5641
X2.188Y-1.7661
X2.246Y-1.4791
X2.3126Y-1.2101
X2.3678Y-1.0802
X2.3837Y-1.7332
X2.405Y-1.3451
X2.4208Y-1.7977
X2.439Y-1.2861
X2.463Y-1.1051
X2.4746Y-1.6563
X2.475Y-2.2251
X2.475Y-2.2901
X2.48Y-1.7601
X2.48Y-2.1601
X2.481Y-1.7221
X2.5002Y-1.4904
X2.519Y-1.7221
X2.52Y-1.7601
X2.5277Y-1.3408
X2.5285Y-1.6533
X2.5356Y-1.8015
X2.54Y-2.1601
X2.54Y-2.2901
X2.559Y-1.2011
X2.578Y-1.2941
X2.5917Y-1.689
X2.605Y-2.1601
X2.605Y-2.2251
X2.605Y-2.2901
X2.614Y-1.3921
X2.6199Y-1.5092
X2.627Y-1.3141
X2.6551Y-1.5998
X2.663Y-2.0111
X2.672Y-2.4561
X2.703Y-1.0461
X2.7059Y-0.9429
X2.71Y-1.5795
X2.724Y-2.3581
X2.727Y-1.2291
X2.7561Y-1.1334
X2.795Y-1.5301
X2.8047Y-1.799
X2.817Y-1.9631
X2.8171Y-1.2161
X2.8346Y-1.3879
X2.8521Y-1.2441
X2.862Y-1.4271
X2.873Y-1.6551
X2.887Y-1.8781
X2.892Y-1.501
X2.901Y-1.5701
X2.91Y-2.4181
X2.9242Y-1.2095
X2.932Y-1.3041
X2.965Y-2.3051
X2.98Y-2.2751
X2.988Y-1.7061
X2.995Y-1.9711
X3.0Y-2.3051
X3.015Y-2.2751
X3.047Y-1.3641
T4
X2.28Y-1.0451
X2.54Y-2.2251
X2.64Y-0.9401
X2.865Y-0.9401
T3
G00X2.9852Y-1.5259
M15
G01X2.9419Y-1.5259
M16
G05
G00X2.9852Y-1.866
M15
G01X2.9419Y-1.866
M16
G05
G00X3.1399Y-1.5259
M15
G01X3.1163Y-1.5259
M16
G05
G00X3.1399Y-1.866
M15
G01X3.1163Y-1.866
M16
G05
M30
