G04 #@! TF.GenerationSoftware,KiCad,Pcbnew,9.0.4*
G04 #@! TF.CreationDate,2025-11-06T01:47:32+02:00*
G04 #@! TF.ProjectId,iot-risk-logger-stm32l4,696f742d-7269-4736-9b2d-6c6f67676572,1.0.0*
G04 #@! TF.SameCoordinates,Original*
G04 #@! TF.FileFunction,Paste,Top*
G04 #@! TF.FilePolarity,Positive*
%FSLAX46Y46*%
G04 Gerber Fmt 4.6, Leading zero omitted, Abs format (unit mm)*
G04 Created by KiCad (PCBNEW 9.0.4) date 2025-11-06 01:47:32*
%MOMM*%
%LPD*%
G01*
G04 APERTURE LIST*
G04 Aperture macros list*
%AMRoundRect*
0 Rectangle with rounded corners*
0 $1 Rounding radius*
0 $2 $3 $4 $5 $6 $7 $8 $9 X,Y pos of 4 corners*
0 Add a 4 corners polygon primitive as box body*
4,1,4,$2,$3,$4,$5,$6,$7,$8,$9,$2,$3,0*
0 Add four circle primitives for the rounded corners*
1,1,$1+$1,$2,$3*
1,1,$1+$1,$4,$5*
1,1,$1+$1,$6,$7*
1,1,$1+$1,$8,$9*
0 Add four rect primitives between the rounded corners*
20,1,$1+$1,$2,$3,$4,$5,0*
20,1,$1+$1,$4,$5,$6,$7,0*
20,1,$1+$1,$6,$7,$8,$9,0*
20,1,$1+$1,$8,$9,$2,$3,0*%
%AMFreePoly0*
4,1,6,0.450000,-0.800000,-0.450000,-0.800000,-0.450000,0.530000,-0.180000,0.800000,0.450000,0.800000,0.450000,-0.800000,0.450000,-0.800000,$1*%
G04 Aperture macros list end*
%ADD10C,0.010000*%
%ADD11RoundRect,0.150000X0.150000X-0.825000X0.150000X0.825000X-0.150000X0.825000X-0.150000X-0.825000X0*%
%ADD12RoundRect,0.237500X0.300000X0.237500X-0.300000X0.237500X-0.300000X-0.237500X0.300000X-0.237500X0*%
%ADD13RoundRect,0.150000X-0.587500X-0.150000X0.587500X-0.150000X0.587500X0.150000X-0.587500X0.150000X0*%
%ADD14RoundRect,0.237500X0.250000X0.237500X-0.250000X0.237500X-0.250000X-0.237500X0.250000X-0.237500X0*%
%ADD15RoundRect,0.237500X0.237500X-0.250000X0.237500X0.250000X-0.237500X0.250000X-0.237500X-0.250000X0*%
%ADD16RoundRect,0.237500X0.237500X-0.300000X0.237500X0.300000X-0.237500X0.300000X-0.237500X-0.300000X0*%
%ADD17R,0.375000X0.350000*%
%ADD18R,0.350000X0.375000*%
%ADD19RoundRect,0.100000X-0.100000X0.637500X-0.100000X-0.637500X0.100000X-0.637500X0.100000X0.637500X0*%
%ADD20RoundRect,0.225000X0.250000X-0.225000X0.250000X0.225000X-0.250000X0.225000X-0.250000X-0.225000X0*%
%ADD21RoundRect,0.237500X-0.237500X0.300000X-0.237500X-0.300000X0.237500X-0.300000X0.237500X0.300000X0*%
%ADD22RoundRect,0.237500X-0.300000X-0.237500X0.300000X-0.237500X0.300000X0.237500X-0.300000X0.237500X0*%
%ADD23RoundRect,0.250000X0.475000X-0.337500X0.475000X0.337500X-0.475000X0.337500X-0.475000X-0.337500X0*%
%ADD24RoundRect,0.250000X0.250000X0.250000X-0.250000X0.250000X-0.250000X-0.250000X0.250000X-0.250000X0*%
%ADD25RoundRect,0.237500X-0.250000X-0.237500X0.250000X-0.237500X0.250000X0.237500X-0.250000X0.237500X0*%
%ADD26FreePoly0,90.000000*%
%ADD27R,0.250000X0.550000*%
%ADD28RoundRect,0.075000X-0.662500X-0.075000X0.662500X-0.075000X0.662500X0.075000X-0.662500X0.075000X0*%
%ADD29RoundRect,0.075000X-0.075000X-0.662500X0.075000X-0.662500X0.075000X0.662500X-0.075000X0.662500X0*%
%ADD30RoundRect,0.250000X-0.250000X-0.250000X0.250000X-0.250000X0.250000X0.250000X-0.250000X0.250000X0*%
%ADD31RoundRect,0.250000X-0.450000X0.325000X-0.450000X-0.325000X0.450000X-0.325000X0.450000X0.325000X0*%
%ADD32RoundRect,0.175000X-0.325000X0.175000X-0.325000X-0.175000X0.325000X-0.175000X0.325000X0.175000X0*%
%ADD33RoundRect,0.150000X-0.150000X0.200000X-0.150000X-0.200000X0.150000X-0.200000X0.150000X0.200000X0*%
%ADD34C,0.762000*%
%ADD35RoundRect,0.225000X-0.250000X0.225000X-0.250000X-0.225000X0.250000X-0.225000X0.250000X0.225000X0*%
%ADD36RoundRect,0.250000X0.337500X0.475000X-0.337500X0.475000X-0.337500X-0.475000X0.337500X-0.475000X0*%
%ADD37RoundRect,0.100000X0.100000X-0.225000X0.100000X0.225000X-0.100000X0.225000X-0.100000X-0.225000X0*%
%ADD38R,1.800000X1.000000*%
%ADD39RoundRect,0.250000X0.325000X0.450000X-0.325000X0.450000X-0.325000X-0.450000X0.325000X-0.450000X0*%
%ADD40RoundRect,0.008100X-0.126900X0.361900X-0.126900X-0.361900X0.126900X-0.361900X0.126900X0.361900X0*%
%ADD41RoundRect,0.150000X-0.150000X0.512500X-0.150000X-0.512500X0.150000X-0.512500X0.150000X0.512500X0*%
G04 APERTURE END LIST*
D10*
G04 #@! TO.C,U3*
X70930000Y-25710000D02*
X70070000Y-25710000D01*
X70070000Y-25290000D01*
X70930000Y-25290000D01*
X70930000Y-25710000D01*
G36*
X70930000Y-25710000D02*
G01*
X70070000Y-25710000D01*
X70070000Y-25290000D01*
X70930000Y-25290000D01*
X70930000Y-25710000D01*
G37*
G04 #@! TD*
D11*
G04 #@! TO.C,U6*
X52222400Y-51370000D03*
X53492400Y-51370000D03*
X54762400Y-51370000D03*
X56032400Y-51370000D03*
X56032400Y-46420000D03*
X54762400Y-46420000D03*
X53492400Y-46420000D03*
X52222400Y-46420000D03*
G04 #@! TD*
D12*
G04 #@! TO.C,C10*
X69596000Y-28956000D03*
X71321000Y-28956000D03*
G04 #@! TD*
D13*
G04 #@! TO.C,Q1*
X77645500Y-56007000D03*
X75770500Y-56957000D03*
X75770500Y-55057000D03*
G04 #@! TD*
D14*
G04 #@! TO.C,R11*
X52681500Y-38735000D03*
X54506500Y-38735000D03*
G04 #@! TD*
D15*
G04 #@! TO.C,R6*
X53086000Y-25757500D03*
X53086000Y-27582500D03*
G04 #@! TD*
D16*
G04 #@! TO.C,C13*
X64135000Y-32866500D03*
X64135000Y-31141500D03*
G04 #@! TD*
D17*
G04 #@! TO.C,U5*
X66929500Y-32627000D03*
X66929500Y-32127000D03*
X66929500Y-31627000D03*
X66929500Y-31127000D03*
D18*
X66417000Y-31114500D03*
X65917000Y-31114500D03*
D17*
X65404500Y-31127000D03*
X65404500Y-31627000D03*
X65404500Y-32127000D03*
X65404500Y-32627000D03*
D18*
X65917000Y-32639500D03*
X66417000Y-32639500D03*
G04 #@! TD*
D19*
G04 #@! TO.C,U2*
X51521000Y-30675500D03*
X50871000Y-30675500D03*
X50221000Y-30675500D03*
X49571000Y-30675500D03*
X49571000Y-24950500D03*
X50221000Y-24950500D03*
X50871000Y-24950500D03*
X51521000Y-24950500D03*
G04 #@! TD*
D16*
G04 #@! TO.C,C9*
X53086000Y-29109500D03*
X53086000Y-30834500D03*
G04 #@! TD*
D14*
G04 #@! TO.C,R12*
X52681500Y-36195000D03*
X54506500Y-36195000D03*
G04 #@! TD*
D20*
G04 #@! TO.C,C18*
X57277000Y-40272000D03*
X57277000Y-38722000D03*
G04 #@! TD*
D21*
G04 #@! TO.C,C14*
X50292000Y-45873500D03*
X50292000Y-47598500D03*
G04 #@! TD*
D22*
G04 #@! TO.C,C19*
X76988500Y-37338000D03*
X78713500Y-37338000D03*
G04 #@! TD*
D21*
G04 #@! TO.C,C4*
X71755000Y-35149000D03*
X71755000Y-36874000D03*
G04 #@! TD*
D14*
G04 #@! TO.C,R2*
X82573500Y-45821600D03*
X80748500Y-45821600D03*
G04 #@! TD*
D23*
G04 #@! TO.C,C15*
X50546000Y-44112000D03*
X50546000Y-42037000D03*
G04 #@! TD*
D12*
G04 #@! TO.C,C6*
X69823500Y-45593000D03*
X68098500Y-45593000D03*
G04 #@! TD*
D24*
G04 #@! TO.C,D1*
X82022000Y-49911000D03*
X79522000Y-49911000D03*
G04 #@! TD*
D25*
G04 #@! TO.C,R9*
X72874500Y-28956000D03*
X74699500Y-28956000D03*
G04 #@! TD*
D26*
G04 #@! TO.C,U4*
X80500000Y-25500000D03*
D27*
X79750000Y-26675000D03*
X80250000Y-26675000D03*
X80750000Y-26675000D03*
X81250000Y-26675000D03*
X81250000Y-24325000D03*
X80750000Y-24325000D03*
X80250000Y-24325000D03*
X79750000Y-24325000D03*
G04 #@! TD*
D28*
G04 #@! TO.C,U7*
X61623500Y-36747000D03*
X61623500Y-37247000D03*
X61623500Y-37747000D03*
X61623500Y-38247000D03*
X61623500Y-38747000D03*
X61623500Y-39247000D03*
X61623500Y-39747000D03*
X61623500Y-40247000D03*
X61623500Y-40747000D03*
X61623500Y-41247000D03*
X61623500Y-41747000D03*
X61623500Y-42247000D03*
D29*
X63036000Y-43659500D03*
X63536000Y-43659500D03*
X64036000Y-43659500D03*
X64536000Y-43659500D03*
X65036000Y-43659500D03*
X65536000Y-43659500D03*
X66036000Y-43659500D03*
X66536000Y-43659500D03*
X67036000Y-43659500D03*
X67536000Y-43659500D03*
X68036000Y-43659500D03*
X68536000Y-43659500D03*
D28*
X69948500Y-42247000D03*
X69948500Y-41747000D03*
X69948500Y-41247000D03*
X69948500Y-40747000D03*
X69948500Y-40247000D03*
X69948500Y-39747000D03*
X69948500Y-39247000D03*
X69948500Y-38747000D03*
X69948500Y-38247000D03*
X69948500Y-37747000D03*
X69948500Y-37247000D03*
X69948500Y-36747000D03*
D29*
X68536000Y-35334500D03*
X68036000Y-35334500D03*
X67536000Y-35334500D03*
X67036000Y-35334500D03*
X66536000Y-35334500D03*
X66036000Y-35334500D03*
X65536000Y-35334500D03*
X65036000Y-35334500D03*
X64536000Y-35334500D03*
X64036000Y-35334500D03*
X63536000Y-35334500D03*
X63036000Y-35334500D03*
G04 #@! TD*
D12*
G04 #@! TO.C,C11*
X82015500Y-30607000D03*
X80290500Y-30607000D03*
G04 #@! TD*
D14*
G04 #@! TO.C,R5*
X77340000Y-50355000D03*
X75515000Y-50355000D03*
G04 #@! TD*
D30*
G04 #@! TO.C,D2*
X79162500Y-59055000D03*
X81662500Y-59055000D03*
G04 #@! TD*
D31*
G04 #@! TO.C,D4*
X60500000Y-24475000D03*
X60500000Y-26525000D03*
G04 #@! TD*
D32*
G04 #@! TO.C,D3*
X81649000Y-42484800D03*
D33*
X79949000Y-42484800D03*
X79949000Y-44484800D03*
X81849000Y-44484800D03*
G04 #@! TD*
D25*
G04 #@! TO.C,R10*
X72874500Y-30480000D03*
X74699500Y-30480000D03*
G04 #@! TD*
G04 #@! TO.C,R8*
X58500000Y-28956000D03*
X60325000Y-28956000D03*
G04 #@! TD*
D34*
G04 #@! TO.C,AE1*
X46000000Y-23206000D03*
G04 #@! TD*
D35*
G04 #@! TO.C,C17*
X57277000Y-35674000D03*
X57277000Y-37224000D03*
G04 #@! TD*
D16*
G04 #@! TO.C,C7*
X60325000Y-34898500D03*
X60325000Y-33173500D03*
G04 #@! TD*
D36*
G04 #@! TO.C,C1*
X81809500Y-51943000D03*
X79734500Y-51943000D03*
G04 #@! TD*
D21*
G04 #@! TO.C,C12*
X59461400Y-40818900D03*
X59461400Y-42543900D03*
G04 #@! TD*
D36*
G04 #@! TO.C,C3*
X58695500Y-33909000D03*
X56620500Y-33909000D03*
G04 #@! TD*
D37*
G04 #@! TO.C,U8*
X52309000Y-41849000D03*
X52959000Y-41849000D03*
X53609000Y-41849000D03*
X53609000Y-43749000D03*
X52959000Y-43749000D03*
X52309000Y-43749000D03*
G04 #@! TD*
D14*
G04 #@! TO.C,R3*
X77341100Y-53492400D03*
X75516100Y-53492400D03*
G04 #@! TD*
D38*
G04 #@! TO.C,Y1*
X59309000Y-36723000D03*
X59309000Y-39223000D03*
G04 #@! TD*
D39*
G04 #@! TO.C,FB1*
X77488000Y-61087000D03*
X75438000Y-61087000D03*
G04 #@! TD*
D40*
G04 #@! TO.C,U3*
X71150000Y-24505000D03*
X70500000Y-24505000D03*
X69850000Y-24505000D03*
X69850000Y-26495000D03*
X70500000Y-26495000D03*
X71150000Y-26495000D03*
G04 #@! TD*
D41*
G04 #@! TO.C,U1*
X81595000Y-54869500D03*
X80645000Y-54869500D03*
X79695000Y-54869500D03*
X79695000Y-57144500D03*
X81595000Y-57144500D03*
G04 #@! TD*
D25*
G04 #@! TO.C,R4*
X75541500Y-51943000D03*
X77366500Y-51943000D03*
G04 #@! TD*
D16*
G04 #@! TO.C,C5*
X61849000Y-34898500D03*
X61849000Y-33173500D03*
G04 #@! TD*
D36*
G04 #@! TO.C,C2*
X77491500Y-59055000D03*
X75416500Y-59055000D03*
G04 #@! TD*
D12*
G04 #@! TO.C,C8*
X77263500Y-48831000D03*
X75538500Y-48831000D03*
G04 #@! TD*
D15*
G04 #@! TO.C,R7*
X50292000Y-51839500D03*
X50292000Y-50014500D03*
G04 #@! TD*
D12*
G04 #@! TO.C,C16*
X80391000Y-37338000D03*
X82116000Y-37338000D03*
G04 #@! TD*
D14*
G04 #@! TO.C,R1*
X82573500Y-41122600D03*
X80748500Y-41122600D03*
G04 #@! TD*
M02*
