G04 #@! TF.GenerationSoftware,KiCad,Pcbnew,9.0.4*
G04 #@! TF.CreationDate,2025-11-06T01:47:32+02:00*
G04 #@! TF.ProjectId,iot-risk-logger-stm32l4,696f742d-7269-4736-9b2d-6c6f67676572,1.0.0*
G04 #@! TF.SameCoordinates,Original*
G04 #@! TF.FileFunction,Copper,L1,Top*
G04 #@! TF.FilePolarity,Positive*
%FSLAX46Y46*%
G04 Gerber Fmt 4.6, Leading zero omitted, Abs format (unit mm)*
G04 Created by KiCad (PCBNEW 9.0.4) date 2025-11-06 01:47:32*
%MOMM*%
%LPD*%
G01*
G04 APERTURE LIST*
G04 Aperture macros list*
%AMRoundRect*
0 Rectangle with rounded corners*
0 $1 Rounding radius*
0 $2 $3 $4 $5 $6 $7 $8 $9 X,Y pos of 4 corners*
0 Add a 4 corners polygon primitive as box body*
4,1,4,$2,$3,$4,$5,$6,$7,$8,$9,$2,$3,0*
0 Add four circle primitives for the rounded corners*
1,1,$1+$1,$2,$3*
1,1,$1+$1,$4,$5*
1,1,$1+$1,$6,$7*
1,1,$1+$1,$8,$9*
0 Add four rect primitives between the rounded corners*
20,1,$1+$1,$2,$3,$4,$5,0*
20,1,$1+$1,$4,$5,$6,$7,0*
20,1,$1+$1,$6,$7,$8,$9,0*
20,1,$1+$1,$8,$9,$2,$3,0*%
%AMFreePoly0*
4,1,6,0.500000,-0.850000,-0.500000,-0.850000,-0.500000,0.550000,-0.200000,0.850000,0.500000,0.850000,0.500000,-0.850000,0.500000,-0.850000,$1*%
G04 Aperture macros list end*
G04 #@! TA.AperFunction,Conductor*
%ADD10C,0.200000*%
G04 #@! TD*
G04 #@! TA.AperFunction,EtchedComponent*
%ADD11C,0.508000*%
G04 #@! TD*
G04 #@! TA.AperFunction,SMDPad,CuDef*
%ADD12RoundRect,0.150000X0.150000X-0.825000X0.150000X0.825000X-0.150000X0.825000X-0.150000X-0.825000X0*%
G04 #@! TD*
G04 #@! TA.AperFunction,SMDPad,CuDef*
%ADD13RoundRect,0.237500X0.300000X0.237500X-0.300000X0.237500X-0.300000X-0.237500X0.300000X-0.237500X0*%
G04 #@! TD*
G04 #@! TA.AperFunction,SMDPad,CuDef*
%ADD14RoundRect,0.150000X-0.587500X-0.150000X0.587500X-0.150000X0.587500X0.150000X-0.587500X0.150000X0*%
G04 #@! TD*
G04 #@! TA.AperFunction,SMDPad,CuDef*
%ADD15RoundRect,0.237500X0.250000X0.237500X-0.250000X0.237500X-0.250000X-0.237500X0.250000X-0.237500X0*%
G04 #@! TD*
G04 #@! TA.AperFunction,SMDPad,CuDef*
%ADD16RoundRect,0.237500X0.237500X-0.250000X0.237500X0.250000X-0.237500X0.250000X-0.237500X-0.250000X0*%
G04 #@! TD*
G04 #@! TA.AperFunction,SMDPad,CuDef*
%ADD17RoundRect,0.237500X0.237500X-0.300000X0.237500X0.300000X-0.237500X0.300000X-0.237500X-0.300000X0*%
G04 #@! TD*
G04 #@! TA.AperFunction,SMDPad,CuDef*
%ADD18R,0.375000X0.350000*%
G04 #@! TD*
G04 #@! TA.AperFunction,SMDPad,CuDef*
%ADD19R,0.350000X0.375000*%
G04 #@! TD*
G04 #@! TA.AperFunction,SMDPad,CuDef*
%ADD20RoundRect,0.100000X-0.100000X0.637500X-0.100000X-0.637500X0.100000X-0.637500X0.100000X0.637500X0*%
G04 #@! TD*
G04 #@! TA.AperFunction,SMDPad,CuDef*
%ADD21C,1.500000*%
G04 #@! TD*
G04 #@! TA.AperFunction,SMDPad,CuDef*
%ADD22RoundRect,0.225000X0.250000X-0.225000X0.250000X0.225000X-0.250000X0.225000X-0.250000X-0.225000X0*%
G04 #@! TD*
G04 #@! TA.AperFunction,SMDPad,CuDef*
%ADD23RoundRect,0.237500X-0.237500X0.300000X-0.237500X-0.300000X0.237500X-0.300000X0.237500X0.300000X0*%
G04 #@! TD*
G04 #@! TA.AperFunction,SMDPad,CuDef*
%ADD24RoundRect,0.237500X-0.300000X-0.237500X0.300000X-0.237500X0.300000X0.237500X-0.300000X0.237500X0*%
G04 #@! TD*
G04 #@! TA.AperFunction,SMDPad,CuDef*
%ADD25RoundRect,0.250000X0.475000X-0.337500X0.475000X0.337500X-0.475000X0.337500X-0.475000X-0.337500X0*%
G04 #@! TD*
G04 #@! TA.AperFunction,SMDPad,CuDef*
%ADD26RoundRect,0.250000X0.250000X0.250000X-0.250000X0.250000X-0.250000X-0.250000X0.250000X-0.250000X0*%
G04 #@! TD*
G04 #@! TA.AperFunction,SMDPad,CuDef*
%ADD27RoundRect,0.237500X-0.250000X-0.237500X0.250000X-0.237500X0.250000X0.237500X-0.250000X0.237500X0*%
G04 #@! TD*
G04 #@! TA.AperFunction,SMDPad,CuDef*
%ADD28R,0.250000X0.550000*%
G04 #@! TD*
G04 #@! TA.AperFunction,SMDPad,CuDef*
%ADD29FreePoly0,90.000000*%
G04 #@! TD*
G04 #@! TA.AperFunction,SMDPad,CuDef*
%ADD30RoundRect,0.075000X-0.662500X-0.075000X0.662500X-0.075000X0.662500X0.075000X-0.662500X0.075000X0*%
G04 #@! TD*
G04 #@! TA.AperFunction,SMDPad,CuDef*
%ADD31RoundRect,0.075000X-0.075000X-0.662500X0.075000X-0.662500X0.075000X0.662500X-0.075000X0.662500X0*%
G04 #@! TD*
G04 #@! TA.AperFunction,SMDPad,CuDef*
%ADD32RoundRect,0.250000X-0.250000X-0.250000X0.250000X-0.250000X0.250000X0.250000X-0.250000X0.250000X0*%
G04 #@! TD*
G04 #@! TA.AperFunction,SMDPad,CuDef*
%ADD33RoundRect,0.250000X-0.450000X0.325000X-0.450000X-0.325000X0.450000X-0.325000X0.450000X0.325000X0*%
G04 #@! TD*
G04 #@! TA.AperFunction,SMDPad,CuDef*
%ADD34RoundRect,0.175000X-0.325000X0.175000X-0.325000X-0.175000X0.325000X-0.175000X0.325000X0.175000X0*%
G04 #@! TD*
G04 #@! TA.AperFunction,SMDPad,CuDef*
%ADD35RoundRect,0.150000X-0.150000X0.200000X-0.150000X-0.200000X0.150000X-0.200000X0.150000X0.200000X0*%
G04 #@! TD*
G04 #@! TA.AperFunction,ComponentPad*
%ADD36C,0.762000*%
G04 #@! TD*
G04 #@! TA.AperFunction,SMDPad,CuDef*
%ADD37C,0.762000*%
G04 #@! TD*
G04 #@! TA.AperFunction,ComponentPad*
%ADD38C,0.609600*%
G04 #@! TD*
G04 #@! TA.AperFunction,SMDPad,CuDef*
%ADD39RoundRect,0.225000X-0.250000X0.225000X-0.250000X-0.225000X0.250000X-0.225000X0.250000X0.225000X0*%
G04 #@! TD*
G04 #@! TA.AperFunction,SMDPad,CuDef*
%ADD40RoundRect,0.250000X0.337500X0.475000X-0.337500X0.475000X-0.337500X-0.475000X0.337500X-0.475000X0*%
G04 #@! TD*
G04 #@! TA.AperFunction,ConnectorPad*
%ADD41C,0.787400*%
G04 #@! TD*
G04 #@! TA.AperFunction,SMDPad,CuDef*
%ADD42RoundRect,0.100000X0.100000X-0.225000X0.100000X0.225000X-0.100000X0.225000X-0.100000X-0.225000X0*%
G04 #@! TD*
G04 #@! TA.AperFunction,SMDPad,CuDef*
%ADD43R,1.800000X1.000000*%
G04 #@! TD*
G04 #@! TA.AperFunction,SMDPad,CuDef*
%ADD44RoundRect,0.250000X0.325000X0.450000X-0.325000X0.450000X-0.325000X-0.450000X0.325000X-0.450000X0*%
G04 #@! TD*
G04 #@! TA.AperFunction,SMDPad,CuDef*
%ADD45RoundRect,0.008100X-0.126900X0.361900X-0.126900X-0.361900X0.126900X-0.361900X0.126900X0.361900X0*%
G04 #@! TD*
G04 #@! TA.AperFunction,SMDPad,CuDef*
%ADD46R,1.350000X0.650000*%
G04 #@! TD*
G04 #@! TA.AperFunction,SMDPad,CuDef*
%ADD47RoundRect,0.150000X-0.150000X0.512500X-0.150000X-0.512500X0.150000X-0.512500X0.150000X0.512500X0*%
G04 #@! TD*
G04 #@! TA.AperFunction,HeatsinkPad*
%ADD48O,1.600000X1.000000*%
G04 #@! TD*
G04 #@! TA.AperFunction,HeatsinkPad*
%ADD49O,2.100000X1.000000*%
G04 #@! TD*
G04 #@! TA.AperFunction,ViaPad*
%ADD50C,0.457200*%
G04 #@! TD*
G04 #@! TA.AperFunction,Conductor*
%ADD51C,0.203200*%
G04 #@! TD*
G04 #@! TA.AperFunction,Conductor*
%ADD52C,0.254000*%
G04 #@! TD*
G04 #@! TA.AperFunction,Conductor*
%ADD53C,0.508000*%
G04 #@! TD*
G04 #@! TA.AperFunction,Conductor*
%ADD54C,0.400600*%
G04 #@! TD*
G04 #@! TA.AperFunction,Conductor*
%ADD55C,0.249800*%
G04 #@! TD*
G04 #@! TA.AperFunction,Conductor*
%ADD56C,0.304800*%
G04 #@! TD*
G04 APERTURE END LIST*
D10*
G04 #@! TO.N,/+BATTERY*
X78232000Y-56896000D02*
X77216000Y-56896000D01*
X77216000Y-55118000D01*
X78232000Y-55118000D01*
X78232000Y-56896000D01*
G04 #@! TA.AperFunction,Conductor*
G36*
X78232000Y-56896000D02*
G01*
X77216000Y-56896000D01*
X77216000Y-55118000D01*
X78232000Y-55118000D01*
X78232000Y-56896000D01*
G37*
G04 #@! TD.AperFunction*
D11*
G04 #@! TD*
G04 #@! TO.C,AE1*
X26250000Y-24984000D02*
X26250000Y-61428000D01*
G04 #@! TO.C,AE1*
X27000000Y-25226000D02*
X27000000Y-61186000D01*
X27750000Y-25468000D02*
X27750000Y-60944000D01*
X28028000Y-23206000D02*
X45869000Y-23206000D01*
X28028000Y-63206000D02*
X44472000Y-63206000D01*
X28270000Y-62456000D02*
X44230000Y-62456000D01*
X28500000Y-25964000D02*
X28500000Y-60448000D01*
X28512000Y-61706000D02*
X43988000Y-61706000D01*
X29008000Y-60956000D02*
X43492000Y-60956000D01*
X29250000Y-26460000D02*
X29250000Y-59952000D01*
X29504000Y-60206000D02*
X42996000Y-60206000D01*
X43250000Y-59952000D02*
X43250000Y-26956000D01*
X43746000Y-26206000D02*
X29504000Y-26206000D01*
X44000000Y-60448000D02*
X44000000Y-26460000D01*
X44242000Y-25456000D02*
X29008000Y-25456000D01*
X44738000Y-24706000D02*
X28512000Y-24706000D01*
X44750000Y-60944000D02*
X44750000Y-25964000D01*
X44980000Y-23956000D02*
X28270000Y-23956000D01*
X45500000Y-61186000D02*
X45500000Y-25468000D01*
X46250000Y-61428000D02*
X46250000Y-25226000D01*
X26250000Y-24984000D02*
G75*
G02*
X28028000Y-23206000I1778000J0D01*
G01*
X27000000Y-25226000D02*
G75*
G02*
X28270000Y-23956000I1269999J1D01*
G01*
X27750000Y-25468000D02*
G75*
G02*
X28512000Y-24706000I762001J-1D01*
G01*
X28028000Y-63206000D02*
G75*
G02*
X26250000Y-61428000I0J1778000D01*
G01*
X28270000Y-62456000D02*
G75*
G02*
X27000000Y-61186000I-1J1269999D01*
G01*
X28500000Y-25964000D02*
G75*
G02*
X29008000Y-25456000I508001J-1D01*
G01*
X28512000Y-61706000D02*
G75*
G02*
X27750000Y-60944000I1J762001D01*
G01*
X29008000Y-60956000D02*
G75*
G02*
X28500000Y-60448000I1J508001D01*
G01*
X29250000Y-26460000D02*
G75*
G02*
X29504000Y-26206000I254000J0D01*
G01*
X29504000Y-60206000D02*
G75*
G02*
X29250000Y-59952000I0J254000D01*
G01*
X43250000Y-59952000D02*
G75*
G02*
X42996000Y-60206000I-254000J0D01*
G01*
X43746000Y-26206000D02*
G75*
G02*
X44000000Y-26460000I0J-254000D01*
G01*
X44000000Y-60448000D02*
G75*
G02*
X43492000Y-60956000I-508000J0D01*
G01*
X44242000Y-25456000D02*
G75*
G02*
X44750000Y-25964000I0J-508000D01*
G01*
X44738000Y-24706000D02*
G75*
G02*
X45500000Y-25468000I0J-762000D01*
G01*
X44750000Y-60944000D02*
G75*
G02*
X43988000Y-61706000I-762000J0D01*
G01*
X44980000Y-23956000D02*
G75*
G02*
X46250000Y-25226000I0J-1270000D01*
G01*
X45500000Y-61186000D02*
G75*
G02*
X44230000Y-62456000I-1270000J0D01*
G01*
X46250000Y-61428000D02*
G75*
G02*
X44472000Y-63206000I-1778000J0D01*
G01*
G04 #@! TD*
D12*
G04 #@! TO.P,U6,1,~{CS}*
G04 #@! TO.N,/QSPI_NCS_N*
X52222400Y-51370000D03*
G04 #@! TO.P,U6,2,DO(IO1)*
G04 #@! TO.N,/QSPI_IO1*
X53492400Y-51370000D03*
G04 #@! TO.P,U6,3,IO2*
G04 #@! TO.N,/QSPI_IO2*
X54762400Y-51370000D03*
G04 #@! TO.P,U6,4,GND*
G04 #@! TO.N,GND*
X56032400Y-51370000D03*
G04 #@! TO.P,U6,5,DI(IO0)*
G04 #@! TO.N,/QSPI_IO0*
X56032400Y-46420000D03*
G04 #@! TO.P,U6,6,CLK*
G04 #@! TO.N,/QSPI_CLK*
X54762400Y-46420000D03*
G04 #@! TO.P,U6,7,IO3*
G04 #@! TO.N,/QSPI_IO3*
X53492400Y-46420000D03*
G04 #@! TO.P,U6,8,VCC*
G04 #@! TO.N,/VDD_MEMORY*
X52222400Y-46420000D03*
G04 #@! TD*
D13*
G04 #@! TO.P,C10,2*
G04 #@! TO.N,GND*
X69596000Y-28956000D03*
G04 #@! TO.P,C10,1*
G04 #@! TO.N,VDD*
X71321000Y-28956000D03*
G04 #@! TD*
D14*
G04 #@! TO.P,Q1,3,D*
G04 #@! TO.N,/+BATTERY*
X77645500Y-56007000D03*
G04 #@! TO.P,Q1,2,S*
G04 #@! TO.N,+3V0*
X75770500Y-56957000D03*
G04 #@! TO.P,Q1,1,G*
G04 #@! TO.N,+5V*
X75770500Y-55057000D03*
G04 #@! TD*
D15*
G04 #@! TO.P,R11,2*
G04 #@! TO.N,I2C2_SDA_NFC*
X52681500Y-38735000D03*
G04 #@! TO.P,R11,1*
G04 #@! TO.N,VDD_NFC*
X54506500Y-38735000D03*
G04 #@! TD*
D16*
G04 #@! TO.P,R6,2*
G04 #@! TO.N,VDD*
X53086000Y-25757500D03*
G04 #@! TO.P,R6,1*
G04 #@! TO.N,NFC_INT_WKUP*
X53086000Y-27582500D03*
G04 #@! TD*
D17*
G04 #@! TO.P,C13,1*
G04 #@! TO.N,VDD*
X64135000Y-32866500D03*
G04 #@! TO.P,C13,2*
G04 #@! TO.N,GND*
X64135000Y-31141500D03*
G04 #@! TD*
D18*
G04 #@! TO.P,U5,1,SCL/SPC*
G04 #@! TO.N,I2C1_SCL_SENS*
X66929500Y-32627000D03*
G04 #@! TO.P,U5,2,~{CS}*
G04 #@! TO.N,unconnected-(U5-~{CS}-Pad2)*
X66929500Y-32127000D03*
G04 #@! TO.P,U5,3,SA0/SDO*
G04 #@! TO.N,unconnected-(U5-SA0{slash}SDO-Pad3)*
X66929500Y-31627000D03*
G04 #@! TO.P,U5,4,SDA/SDI*
G04 #@! TO.N,I2C1_SDA_SENS*
X66929500Y-31127000D03*
D19*
G04 #@! TO.P,U5,5,RES*
G04 #@! TO.N,GND*
X66417000Y-31114500D03*
G04 #@! TO.P,U5,6,GND*
X65917000Y-31114500D03*
D18*
G04 #@! TO.P,U5,7,GND*
X65404500Y-31127000D03*
G04 #@! TO.P,U5,8,GND*
X65404500Y-31627000D03*
G04 #@! TO.P,U5,9,Vdd*
G04 #@! TO.N,VDD*
X65404500Y-32127000D03*
G04 #@! TO.P,U5,10,Vdd_IO*
X65404500Y-32627000D03*
D19*
G04 #@! TO.P,U5,11,INT2*
G04 #@! TO.N,IMU_INT2*
X65917000Y-32639500D03*
G04 #@! TO.P,U5,12,INT1*
G04 #@! TO.N,IMU_INT1*
X66417000Y-32639500D03*
G04 #@! TD*
D20*
G04 #@! TO.P,U2,8,VCC*
G04 #@! TO.N,VDD_NFC*
X51521000Y-30675500D03*
G04 #@! TO.P,U2,7,GPO_(OD)*
G04 #@! TO.N,NFC_INT_WKUP*
X50871000Y-30675500D03*
G04 #@! TO.P,U2,6,SCL*
G04 #@! TO.N,I2C2_SCL_NFC*
X50221000Y-30675500D03*
G04 #@! TO.P,U2,5,SDA*
G04 #@! TO.N,I2C2_SDA_NFC*
X49571000Y-30675500D03*
G04 #@! TO.P,U2,4,VSS*
G04 #@! TO.N,GND*
X49571000Y-24950500D03*
G04 #@! TO.P,U2,3,AC1*
G04 #@! TO.N,Net-(U2-AC1)*
X50221000Y-24950500D03*
G04 #@! TO.P,U2,2,AC0*
G04 #@! TO.N,Net-(U2-AC0)*
X50871000Y-24950500D03*
G04 #@! TO.P,U2,1,V_EH*
G04 #@! TO.N,unconnected-(U2-V_EH-Pad1)*
X51521000Y-24950500D03*
G04 #@! TD*
D17*
G04 #@! TO.P,C9,2*
G04 #@! TO.N,GND*
X53086000Y-29109500D03*
G04 #@! TO.P,C9,1*
G04 #@! TO.N,VDD_NFC*
X53086000Y-30834500D03*
G04 #@! TD*
D15*
G04 #@! TO.P,R12,2*
G04 #@! TO.N,I2C2_SCL_NFC*
X52681500Y-36195000D03*
G04 #@! TO.P,R12,1*
G04 #@! TO.N,VDD_NFC*
X54506500Y-36195000D03*
G04 #@! TD*
D21*
G04 #@! TO.P,TP5,1,1*
G04 #@! TO.N,I2C2_SDA_NFC*
X50673000Y-38735000D03*
G04 #@! TD*
D22*
G04 #@! TO.P,C18,1*
G04 #@! TO.N,/RCC_OSC32_OUT*
X57277000Y-40272000D03*
G04 #@! TO.P,C18,2*
G04 #@! TO.N,GND*
X57277000Y-38722000D03*
G04 #@! TD*
D23*
G04 #@! TO.P,C14,1*
G04 #@! TO.N,/VDD_MEMORY*
X50292000Y-45873500D03*
G04 #@! TO.P,C14,2*
G04 #@! TO.N,GND*
X50292000Y-47598500D03*
G04 #@! TD*
D24*
G04 #@! TO.P,C19,1*
G04 #@! TO.N,RESET_N*
X76988500Y-37338000D03*
G04 #@! TO.P,C19,2*
G04 #@! TO.N,GND*
X78713500Y-37338000D03*
G04 #@! TD*
D23*
G04 #@! TO.P,C4,1*
G04 #@! TO.N,VDD*
X71755000Y-35149000D03*
G04 #@! TO.P,C4,2*
G04 #@! TO.N,GND*
X71755000Y-36874000D03*
G04 #@! TD*
D15*
G04 #@! TO.P,R2,1*
G04 #@! TO.N,GND*
X82573500Y-45821600D03*
G04 #@! TO.P,R2,2*
G04 #@! TO.N,/CC2*
X80748500Y-45821600D03*
G04 #@! TD*
D25*
G04 #@! TO.P,C15,1*
G04 #@! TO.N,/VDD_MEMORY*
X50546000Y-44112000D03*
G04 #@! TO.P,C15,2*
G04 #@! TO.N,GND*
X50546000Y-42037000D03*
G04 #@! TD*
D13*
G04 #@! TO.P,C6,1*
G04 #@! TO.N,VDD*
X69823500Y-45593000D03*
G04 #@! TO.P,C6,2*
G04 #@! TO.N,GND*
X68098500Y-45593000D03*
G04 #@! TD*
D26*
G04 #@! TO.P,D1,1,K*
G04 #@! TO.N,+5V*
X82022000Y-49911000D03*
G04 #@! TO.P,D1,2,A*
G04 #@! TO.N,/+VBUS*
X79522000Y-49911000D03*
G04 #@! TD*
D27*
G04 #@! TO.P,R9,1*
G04 #@! TO.N,VDD*
X72874500Y-28956000D03*
G04 #@! TO.P,R9,2*
G04 #@! TO.N,I2C1_SDA_SENS*
X74699500Y-28956000D03*
G04 #@! TD*
D28*
G04 #@! TO.P,U4,1,SDA*
G04 #@! TO.N,I2C1_SDA_SENS*
X79750000Y-26675000D03*
G04 #@! TO.P,U4,2,ADDR*
G04 #@! TO.N,GND*
X80250000Y-26675000D03*
G04 #@! TO.P,U4,3,ALERT*
G04 #@! TO.N,TEMP_INT*
X80750000Y-26675000D03*
G04 #@! TO.P,U4,4,SCL*
G04 #@! TO.N,I2C1_SCL_SENS*
X81250000Y-26675000D03*
G04 #@! TO.P,U4,5,VDD*
G04 #@! TO.N,VDD*
X81250000Y-24325000D03*
G04 #@! TO.P,U4,6,~{RESET}*
G04 #@! TO.N,TEMPRESET_N*
X80750000Y-24325000D03*
G04 #@! TO.P,U4,7,R*
G04 #@! TO.N,GND*
X80250000Y-24325000D03*
G04 #@! TO.P,U4,8,VSS*
X79750000Y-24325000D03*
D29*
G04 #@! TO.P,U4,9,VSS*
X80500000Y-25500000D03*
G04 #@! TD*
D30*
G04 #@! TO.P,U7,1,VBAT*
G04 #@! TO.N,VDD*
X61623500Y-36747000D03*
G04 #@! TO.P,U7,2,PC13*
G04 #@! TO.N,USB_VBUS_SENSE_WKUP2*
X61623500Y-37247000D03*
G04 #@! TO.P,U7,3,PC14*
G04 #@! TO.N,/RCC_OSC32_IN*
X61623500Y-37747000D03*
G04 #@! TO.P,U7,4,PC15*
G04 #@! TO.N,/RCC_OSC32_OUT*
X61623500Y-38247000D03*
G04 #@! TO.P,U7,5,PH0*
G04 #@! TO.N,unconnected-(U7-PH0-Pad5)*
X61623500Y-38747000D03*
G04 #@! TO.P,U7,6,PH1*
G04 #@! TO.N,unconnected-(U7-PH1-Pad6)*
X61623500Y-39247000D03*
G04 #@! TO.P,U7,7,NRST*
G04 #@! TO.N,RESET_N*
X61623500Y-39747000D03*
G04 #@! TO.P,U7,8,VSSA*
G04 #@! TO.N,GND*
X61623500Y-40247000D03*
G04 #@! TO.P,U7,9,VDDA*
G04 #@! TO.N,VDD*
X61623500Y-40747000D03*
G04 #@! TO.P,U7,10,PA0*
G04 #@! TO.N,NFC_INT_WKUP*
X61623500Y-41247000D03*
G04 #@! TO.P,U7,11,PA1*
G04 #@! TO.N,unconnected-(U7-PA1-Pad11)*
X61623500Y-41747000D03*
G04 #@! TO.P,U7,12,PA2*
G04 #@! TO.N,/QSPI_NCS_N*
X61623500Y-42247000D03*
D31*
G04 #@! TO.P,U7,13,PA3*
G04 #@! TO.N,/QSPI_CLK*
X63036000Y-43659500D03*
G04 #@! TO.P,U7,14,PA4*
G04 #@! TO.N,/MEMORY_EN*
X63536000Y-43659500D03*
G04 #@! TO.P,U7,15,PA5*
G04 #@! TO.N,unconnected-(U7-PA5-Pad15)*
X64036000Y-43659500D03*
G04 #@! TO.P,U7,16,PA6*
G04 #@! TO.N,/QSPI_IO3*
X64536000Y-43659500D03*
G04 #@! TO.P,U7,17,PA7*
G04 #@! TO.N,/QSPI_IO2*
X65036000Y-43659500D03*
G04 #@! TO.P,U7,18,PB0*
G04 #@! TO.N,/QSPI_IO1*
X65536000Y-43659500D03*
G04 #@! TO.P,U7,19,PB1*
G04 #@! TO.N,/QSPI_IO0*
X66036000Y-43659500D03*
G04 #@! TO.P,U7,20,PB2*
G04 #@! TO.N,VDD_NFC*
X66536000Y-43659500D03*
G04 #@! TO.P,U7,21,PB10*
G04 #@! TO.N,I2C2_SCL_NFC*
X67036000Y-43659500D03*
G04 #@! TO.P,U7,22,PB11*
G04 #@! TO.N,I2C2_SDA_NFC*
X67536000Y-43659500D03*
G04 #@! TO.P,U7,23,VSS*
G04 #@! TO.N,GND*
X68036000Y-43659500D03*
G04 #@! TO.P,U7,24,VDD*
G04 #@! TO.N,VDD*
X68536000Y-43659500D03*
D30*
G04 #@! TO.P,U7,25,PB12*
G04 #@! TO.N,unconnected-(U7-PB12-Pad25)*
X69948500Y-42247000D03*
G04 #@! TO.P,U7,26,PB13*
G04 #@! TO.N,unconnected-(U7-PB13-Pad26)*
X69948500Y-41747000D03*
G04 #@! TO.P,U7,27,PB14*
G04 #@! TO.N,unconnected-(U7-PB14-Pad27)*
X69948500Y-41247000D03*
G04 #@! TO.P,U7,28,PB15*
G04 #@! TO.N,unconnected-(U7-PB15-Pad28)*
X69948500Y-40747000D03*
G04 #@! TO.P,U7,29,PA8*
G04 #@! TO.N,unconnected-(U7-PA8-Pad29)*
X69948500Y-40247000D03*
G04 #@! TO.P,U7,30,PA9*
G04 #@! TO.N,I2C1_SCL_SENS*
X69948500Y-39747000D03*
G04 #@! TO.P,U7,31,PA10*
G04 #@! TO.N,I2C1_SDA_SENS*
X69948500Y-39247000D03*
G04 #@! TO.P,U7,32,PA11*
G04 #@! TO.N,USB_DN*
X69948500Y-38747000D03*
G04 #@! TO.P,U7,33,PA12*
G04 #@! TO.N,USB_DP*
X69948500Y-38247000D03*
G04 #@! TO.P,U7,34,PA13*
G04 #@! TO.N,SWDIO*
X69948500Y-37747000D03*
G04 #@! TO.P,U7,35,VSS*
G04 #@! TO.N,GND*
X69948500Y-37247000D03*
G04 #@! TO.P,U7,36,VDDUSB*
G04 #@! TO.N,VDD*
X69948500Y-36747000D03*
D31*
G04 #@! TO.P,U7,37,PA14*
G04 #@! TO.N,SWCLK*
X68536000Y-35334500D03*
G04 #@! TO.P,U7,38,PA15*
G04 #@! TO.N,LED_N*
X68036000Y-35334500D03*
G04 #@! TO.P,U7,39,PB3*
G04 #@! TO.N,SWO*
X67536000Y-35334500D03*
G04 #@! TO.P,U7,40,PB4*
G04 #@! TO.N,TEMPRESET_N*
X67036000Y-35334500D03*
G04 #@! TO.P,U7,41,PB5*
G04 #@! TO.N,TEMP_INT*
X66536000Y-35334500D03*
G04 #@! TO.P,U7,42,PB6*
G04 #@! TO.N,IMU_INT1*
X66036000Y-35334500D03*
G04 #@! TO.P,U7,43,PB7*
G04 #@! TO.N,IMU_INT2*
X65536000Y-35334500D03*
G04 #@! TO.P,U7,44,PH3*
G04 #@! TO.N,GND*
X65036000Y-35334500D03*
G04 #@! TO.P,U7,45,PB8*
G04 #@! TO.N,LIGHT_INT_N*
X64536000Y-35334500D03*
G04 #@! TO.P,U7,46,PB9*
G04 #@! TO.N,unconnected-(U7-PB9-Pad46)*
X64036000Y-35334500D03*
G04 #@! TO.P,U7,47,VSS*
G04 #@! TO.N,GND*
X63536000Y-35334500D03*
G04 #@! TO.P,U7,48,VDD*
G04 #@! TO.N,VDD*
X63036000Y-35334500D03*
G04 #@! TD*
D21*
G04 #@! TO.P,TP2,1,1*
G04 #@! TO.N,NFC_INT_WKUP*
X50673000Y-33655000D03*
G04 #@! TD*
D13*
G04 #@! TO.P,C11,1*
G04 #@! TO.N,VDD*
X82015500Y-30607000D03*
G04 #@! TO.P,C11,2*
G04 #@! TO.N,GND*
X80290500Y-30607000D03*
G04 #@! TD*
D15*
G04 #@! TO.P,R5,1*
G04 #@! TO.N,/GND_SHIELD*
X77340000Y-50355000D03*
G04 #@! TO.P,R5,2*
G04 #@! TO.N,GND*
X75515000Y-50355000D03*
G04 #@! TD*
D32*
G04 #@! TO.P,D2,1,K*
G04 #@! TO.N,+3V0*
X79162500Y-59055000D03*
G04 #@! TO.P,D2,2,A*
G04 #@! TO.N,Net-(D2-A)*
X81662500Y-59055000D03*
G04 #@! TD*
D33*
G04 #@! TO.P,D4,1,K*
G04 #@! TO.N,LED_N*
X60500000Y-24475000D03*
G04 #@! TO.P,D4,2,A*
G04 #@! TO.N,/+LED*
X60500000Y-26525000D03*
G04 #@! TD*
D34*
G04 #@! TO.P,D3,1,GND*
G04 #@! TO.N,/GND_SHIELD*
X81649000Y-42484800D03*
D35*
G04 #@! TO.P,D3,2,I/O1*
G04 #@! TO.N,USB_DP*
X79949000Y-42484800D03*
G04 #@! TO.P,D3,3,I/O2*
G04 #@! TO.N,USB_DN*
X79949000Y-44484800D03*
G04 #@! TO.P,D3,4,VCC*
G04 #@! TO.N,+5V*
X81849000Y-44484800D03*
G04 #@! TD*
D27*
G04 #@! TO.P,R10,1*
G04 #@! TO.N,VDD*
X72874500Y-30480000D03*
G04 #@! TO.P,R10,2*
G04 #@! TO.N,I2C1_SCL_SENS*
X74699500Y-30480000D03*
G04 #@! TD*
G04 #@! TO.P,R8,1*
G04 #@! TO.N,VDD*
X58500000Y-28956000D03*
G04 #@! TO.P,R8,2*
G04 #@! TO.N,/+LED*
X60325000Y-28956000D03*
G04 #@! TD*
D36*
G04 #@! TO.P,AE1,1*
G04 #@! TO.N,Net-(U2-AC1)*
X47000000Y-24206000D03*
D37*
G04 #@! TO.P,AE1,2*
G04 #@! TO.N,Net-(U2-AC0)*
X46000000Y-23206000D03*
D38*
G04 #@! TO.P,AE1,3*
G04 #@! TO.N,N/C*
X43250000Y-26956000D03*
G04 #@! TD*
D39*
G04 #@! TO.P,C17,1*
G04 #@! TO.N,/RCC_OSC32_IN*
X57277000Y-35674000D03*
G04 #@! TO.P,C17,2*
G04 #@! TO.N,GND*
X57277000Y-37224000D03*
G04 #@! TD*
D17*
G04 #@! TO.P,C7,1*
G04 #@! TO.N,VDD*
X60325000Y-34898500D03*
G04 #@! TO.P,C7,2*
G04 #@! TO.N,GND*
X60325000Y-33173500D03*
G04 #@! TD*
D40*
G04 #@! TO.P,C1,1*
G04 #@! TO.N,+5V*
X81809500Y-51943000D03*
G04 #@! TO.P,C1,2*
G04 #@! TO.N,GND*
X79734500Y-51943000D03*
G04 #@! TD*
D23*
G04 #@! TO.P,C12,1*
G04 #@! TO.N,VDD*
X59461400Y-40818900D03*
G04 #@! TO.P,C12,2*
G04 #@! TO.N,GND*
X59461400Y-42543900D03*
G04 #@! TD*
D40*
G04 #@! TO.P,C3,1*
G04 #@! TO.N,VDD*
X58695500Y-33909000D03*
G04 #@! TO.P,C3,2*
G04 #@! TO.N,GND*
X56620500Y-33909000D03*
G04 #@! TD*
D21*
G04 #@! TO.P,TP3,1,1*
G04 #@! TO.N,I2C1_SDA_SENS*
X76657200Y-27838400D03*
G04 #@! TD*
D41*
G04 #@! TO.P,J2,1,VTref*
G04 #@! TO.N,VDD*
X81788000Y-33274000D03*
G04 #@! TO.P,J2,2,SWDIO/TMS*
G04 #@! TO.N,SWDIO*
X80518000Y-33274000D03*
G04 #@! TO.P,J2,3,GND*
G04 #@! TO.N,GND*
X79248000Y-33274000D03*
G04 #@! TO.P,J2,4,SWCLK/TCK*
G04 #@! TO.N,SWCLK*
X77978000Y-33274000D03*
G04 #@! TO.P,J2,5,GND*
G04 #@! TO.N,GND*
X76708000Y-33274000D03*
G04 #@! TO.P,J2,6,SWO/TDO*
G04 #@! TO.N,SWO*
X76708000Y-34544000D03*
G04 #@! TO.P,J2,7,KEY*
G04 #@! TO.N,unconnected-(J2-KEY-Pad7)*
X77978000Y-34544000D03*
G04 #@! TO.P,J2,8,NC/TDI*
G04 #@! TO.N,unconnected-(J2-NC{slash}TDI-Pad8)*
X79248000Y-34544000D03*
G04 #@! TO.P,J2,9,GNDDetect*
G04 #@! TO.N,GND*
X80518000Y-34544000D03*
G04 #@! TO.P,J2,10,~{RESET}*
G04 #@! TO.N,RESET_N*
X81788000Y-34544000D03*
G04 #@! TD*
D42*
G04 #@! TO.P,U8,6,NC*
G04 #@! TO.N,unconnected-(U8-NC-Pad6)*
X52309000Y-41849000D03*
G04 #@! TO.P,U8,5,GND*
G04 #@! TO.N,GND*
X52959000Y-41849000D03*
G04 #@! TO.P,U8,4,IN*
G04 #@! TO.N,VDD*
X53609000Y-41849000D03*
G04 #@! TO.P,U8,3,ON*
G04 #@! TO.N,/MEMORY_EN*
X53609000Y-43749000D03*
G04 #@! TO.P,U8,2,GND*
G04 #@! TO.N,GND*
X52959000Y-43749000D03*
G04 #@! TO.P,U8,1,OUT*
G04 #@! TO.N,/VDD_MEMORY*
X52309000Y-43749000D03*
G04 #@! TD*
D15*
G04 #@! TO.P,R3,1*
G04 #@! TO.N,+5V*
X77341100Y-53492400D03*
G04 #@! TO.P,R3,2*
G04 #@! TO.N,USB_VBUS_SENSE_WKUP2*
X75516100Y-53492400D03*
G04 #@! TD*
D43*
G04 #@! TO.P,Y1,1,1*
G04 #@! TO.N,/RCC_OSC32_IN*
X59309000Y-36723000D03*
G04 #@! TO.P,Y1,2,2*
G04 #@! TO.N,/RCC_OSC32_OUT*
X59309000Y-39223000D03*
G04 #@! TD*
D44*
G04 #@! TO.P,FB1,1*
G04 #@! TO.N,+3V0*
X77488000Y-61087000D03*
G04 #@! TO.P,FB1,2*
G04 #@! TO.N,VDD*
X75438000Y-61087000D03*
G04 #@! TD*
D45*
G04 #@! TO.P,U3,1,VDD*
G04 #@! TO.N,VDD*
X71150000Y-24505000D03*
G04 #@! TO.P,U3,2,ADDR*
X70500000Y-24505000D03*
G04 #@! TO.P,U3,3,GND*
G04 #@! TO.N,GND*
X69850000Y-24505000D03*
G04 #@! TO.P,U3,4,SCL*
G04 #@! TO.N,I2C1_SCL_SENS*
X69850000Y-26495000D03*
G04 #@! TO.P,U3,5,INT*
G04 #@! TO.N,LIGHT_INT_N*
X70500000Y-26495000D03*
G04 #@! TO.P,U3,6,SDA*
G04 #@! TO.N,I2C1_SDA_SENS*
X71150000Y-26495000D03*
D46*
G04 #@! TO.P,U3,7,EXP*
G04 #@! TO.N,GND*
X70500000Y-25500000D03*
G04 #@! TD*
D47*
G04 #@! TO.P,U1,1,VIN*
G04 #@! TO.N,+5V*
X81595000Y-54869500D03*
G04 #@! TO.P,U1,2,GND*
G04 #@! TO.N,GND*
X80645000Y-54869500D03*
G04 #@! TO.P,U1,3,EN*
G04 #@! TO.N,+5V*
X79695000Y-54869500D03*
G04 #@! TO.P,U1,4,NC*
G04 #@! TO.N,unconnected-(U1-NC-Pad4)*
X79695000Y-57144500D03*
G04 #@! TO.P,U1,5,VOUT*
G04 #@! TO.N,Net-(D2-A)*
X81595000Y-57144500D03*
G04 #@! TD*
D21*
G04 #@! TO.P,TP1,1,1*
G04 #@! TO.N,GND*
X66000000Y-55250000D03*
G04 #@! TD*
D27*
G04 #@! TO.P,R4,1*
G04 #@! TO.N,USB_VBUS_SENSE_WKUP2*
X75541500Y-51943000D03*
G04 #@! TO.P,R4,2*
G04 #@! TO.N,GND*
X77366500Y-51943000D03*
G04 #@! TD*
D17*
G04 #@! TO.P,C5,1*
G04 #@! TO.N,VDD*
X61849000Y-34898500D03*
G04 #@! TO.P,C5,2*
G04 #@! TO.N,GND*
X61849000Y-33173500D03*
G04 #@! TD*
D40*
G04 #@! TO.P,C2,1*
G04 #@! TO.N,+3V0*
X77491500Y-59055000D03*
G04 #@! TO.P,C2,2*
G04 #@! TO.N,GND*
X75416500Y-59055000D03*
G04 #@! TD*
D21*
G04 #@! TO.P,TP6,1,1*
G04 #@! TO.N,I2C2_SCL_NFC*
X50673000Y-36195000D03*
G04 #@! TD*
D13*
G04 #@! TO.P,C8,1*
G04 #@! TO.N,/GND_SHIELD*
X77263500Y-48831000D03*
G04 #@! TO.P,C8,2*
G04 #@! TO.N,GND*
X75538500Y-48831000D03*
G04 #@! TD*
D21*
G04 #@! TO.P,TP4,1,1*
G04 #@! TO.N,I2C1_SCL_SENS*
X76708000Y-30353000D03*
G04 #@! TD*
D16*
G04 #@! TO.P,R7,1*
G04 #@! TO.N,/QSPI_NCS_N*
X50292000Y-51839500D03*
G04 #@! TO.P,R7,2*
G04 #@! TO.N,/VDD_MEMORY*
X50292000Y-50014500D03*
G04 #@! TD*
D13*
G04 #@! TO.P,C16,2*
G04 #@! TO.N,GND*
X80391000Y-37338000D03*
G04 #@! TO.P,C16,1*
G04 #@! TO.N,VDD*
X82116000Y-37338000D03*
G04 #@! TD*
D15*
G04 #@! TO.P,R1,1*
G04 #@! TO.N,GND*
X82573500Y-41122600D03*
G04 #@! TO.P,R1,2*
G04 #@! TO.N,/CC1*
X80748500Y-41122600D03*
G04 #@! TD*
D48*
G04 #@! TO.P,J1,S1,SHIELD*
G04 #@! TO.N,/GND_SHIELD*
X83075000Y-39180000D03*
D49*
X78895000Y-39180000D03*
D48*
X83075000Y-47820000D03*
D49*
X78895000Y-47820000D03*
G04 #@! TD*
D50*
G04 #@! TO.N,GND*
X50292000Y-48641000D03*
X56515000Y-50038000D03*
G04 #@! TO.N,/QSPI_IO0*
X60420500Y-46196500D03*
G04 #@! TO.N,GND*
X60452000Y-43053000D03*
G04 #@! TO.N,NFC_INT_WKUP*
X60401200Y-41478200D03*
G04 #@! TO.N,/QSPI_NCS_N*
X60426600Y-42271900D03*
G04 #@! TO.N,GND*
X82600800Y-56032400D03*
X77368400Y-47244000D03*
X77292200Y-40284400D03*
X72694800Y-36931600D03*
X80010000Y-35179000D03*
X64770000Y-53975000D03*
X64770000Y-56515000D03*
X67310000Y-56515000D03*
X67310000Y-53975000D03*
X64135000Y-55250000D03*
X67945000Y-55250000D03*
X48260000Y-63500000D03*
X48260000Y-60960000D03*
X48260000Y-58420000D03*
X48260000Y-55880000D03*
X48260000Y-53340000D03*
X48260000Y-50800000D03*
X48260000Y-48260000D03*
X48260000Y-45720000D03*
X48260000Y-43180000D03*
X48260000Y-40640000D03*
X48260000Y-38100000D03*
X48260000Y-35560000D03*
X48260000Y-33020000D03*
X48260000Y-30480000D03*
X48260000Y-27940000D03*
X48260000Y-25400000D03*
X48260000Y-21590000D03*
X74244200Y-49580800D03*
X74269600Y-59131200D03*
X78486000Y-51892200D03*
X82600800Y-46736000D03*
X82575400Y-40208200D03*
X79552800Y-36372800D03*
X52933600Y-40919400D03*
X56921400Y-53416200D03*
X66000000Y-57150000D03*
X66000000Y-53340000D03*
X68046600Y-46583600D03*
X49580800Y-26212800D03*
X54102000Y-29108400D03*
X68529200Y-29006800D03*
X68961000Y-25501600D03*
X79222600Y-30632400D03*
X79273400Y-26035000D03*
X74295000Y-33985200D03*
X78714600Y-32562800D03*
X64135000Y-30073600D03*
X63855600Y-34036000D03*
X62890400Y-32588200D03*
X60299600Y-32080200D03*
X64871600Y-34036000D03*
X60325000Y-40208200D03*
X59309000Y-35560000D03*
X58420000Y-35560000D03*
X56261000Y-37973000D03*
X56261000Y-39497000D03*
X56261000Y-36576000D03*
X56261000Y-35687000D03*
X56261000Y-40259000D03*
X56261000Y-38735000D03*
X56261000Y-37338000D03*
G04 #@! TO.N,/+BATTERY*
X78105000Y-56769000D03*
X77343000Y-56769000D03*
X78105000Y-55245000D03*
G04 #@! TO.N,VDD*
X76598300Y-60028300D03*
X74886200Y-46890000D03*
X82016300Y-35891800D03*
X82378200Y-32626600D03*
G04 #@! TO.N,USB_DP*
X77216000Y-42748200D03*
G04 #@! TO.N,USB_DN*
X77241400Y-43738800D03*
G04 #@! TO.N,TEMPRESET_N*
X77910000Y-27603800D03*
X71053600Y-32752300D03*
G04 #@! TO.N,LIGHT_INT_N*
X66534400Y-37021400D03*
X68199100Y-27757600D03*
G04 #@! TO.N,I2C2_SCL_NFC*
X57713800Y-50534700D03*
X54132800Y-37489500D03*
G04 #@! TO.N,I2C2_SDA_NFC*
X54886000Y-26960700D03*
X67968800Y-42204500D03*
G04 #@! TO.N,NFC_INT_WKUP*
X54132800Y-35089500D03*
G04 #@! TO.N,USB_VBUS_SENSE_WKUP2*
X71380900Y-47570600D03*
X65995000Y-37695500D03*
G04 #@! TO.N,/QSPI_NCS_N*
X59217600Y-48907300D03*
G04 #@! TO.N,I2C1_SCL_SENS*
X67662400Y-30124400D03*
X73605800Y-31190400D03*
X71205000Y-40570200D03*
X68426700Y-32461400D03*
G04 #@! TO.N,I2C1_SDA_SENS*
X65770800Y-38523200D03*
X65749000Y-30447100D03*
X71145400Y-27330400D03*
X73541000Y-28149900D03*
G04 #@! TO.N,SWCLK*
X77429500Y-32628300D03*
X70610700Y-35353700D03*
G04 #@! TO.N,LED_N*
X67072900Y-29200900D03*
X68036000Y-36804600D03*
G04 #@! TO.N,RESET_N*
X72838600Y-42370000D03*
X73254700Y-37871600D03*
G04 #@! TO.N,VDD_NFC*
X61690100Y-31070000D03*
X66040000Y-42164000D03*
G04 #@! TO.N,/+BATTERY*
X77343000Y-55245000D03*
G04 #@! TO.N,/QSPI_IO0*
X66294000Y-45212000D03*
G04 #@! TO.N,/QSPI_IO1*
X65532000Y-45085000D03*
G04 #@! TO.N,/CC2*
X79629000Y-45339000D03*
G04 #@! TO.N,SWO*
X70377500Y-33210000D03*
X73985500Y-36443300D03*
G04 #@! TO.N,/CC1*
X79654400Y-41529000D03*
G04 #@! TO.N,/+VBUS*
X78613000Y-49911000D03*
G04 #@! TO.N,TEMP_INT*
X81903200Y-26919300D03*
X71005900Y-33898200D03*
X68712500Y-34116800D03*
X67468300Y-37361600D03*
G04 #@! TD*
D51*
G04 #@! TO.N,/QSPI_IO0*
X60420500Y-46196500D02*
X56007000Y-46196500D01*
X66294000Y-45212000D02*
X66294000Y-44831000D01*
X66294000Y-44831000D02*
X66036000Y-44573000D01*
X66036000Y-44573000D02*
X66036000Y-43659500D01*
D52*
G04 #@! TO.N,VDD_NFC*
X66040000Y-42164000D02*
X66536000Y-42660000D01*
X66536000Y-42660000D02*
X66536000Y-43659500D01*
D51*
G04 #@! TO.N,/QSPI_IO1*
X65532000Y-45085000D02*
X60579000Y-50038000D01*
X56896000Y-52324000D02*
X56388000Y-52832000D01*
X60579000Y-50038000D02*
X57404000Y-50038000D01*
X56896000Y-50546000D02*
X56896000Y-52324000D01*
X57404000Y-50038000D02*
X56896000Y-50546000D01*
X56388000Y-52832000D02*
X53979401Y-52832000D01*
X53979401Y-52832000D02*
X53492400Y-52344999D01*
X53492400Y-52344999D02*
X53492400Y-51370000D01*
X65536000Y-43659500D02*
X65536000Y-45081000D01*
X65536000Y-45081000D02*
X65532000Y-45085000D01*
G04 #@! TO.N,/QSPI_IO2*
X54762400Y-51370000D02*
X54762400Y-50395001D01*
X65036000Y-44692000D02*
X65036000Y-43659500D01*
X54762400Y-50395001D02*
X55627401Y-49530000D01*
X55627401Y-49530000D02*
X60198000Y-49530000D01*
X60198000Y-49530000D02*
X65036000Y-44692000D01*
G04 #@! TO.N,/QSPI_NCS_N*
X52222400Y-51370000D02*
X52222400Y-49758600D01*
X52222400Y-49758600D02*
X53073700Y-48907300D01*
X53073700Y-48907300D02*
X59217600Y-48907300D01*
X50292000Y-51839500D02*
X51752900Y-51839500D01*
X51752900Y-51839500D02*
X52222400Y-51370000D01*
G04 #@! TO.N,/QSPI_IO3*
X53492400Y-46420000D02*
X53492400Y-47394999D01*
X53976401Y-47879000D02*
X61167300Y-47879000D01*
X53492400Y-47394999D02*
X53976401Y-47879000D01*
X64536000Y-44510300D02*
X64536000Y-43659500D01*
X61167300Y-47879000D02*
X64536000Y-44510300D01*
D53*
G04 #@! TO.N,/VDD_MEMORY*
X52197000Y-46196500D02*
X52197000Y-48006000D01*
X52197000Y-48006000D02*
X50292000Y-49911000D01*
X50292000Y-49911000D02*
X50292000Y-50014500D01*
G04 #@! TO.N,VDD*
X59461400Y-40818900D02*
X58819600Y-40818900D01*
X57789500Y-41849000D02*
X55838700Y-41849000D01*
X58819600Y-40818900D02*
X57789500Y-41849000D01*
D52*
X58891500Y-40747000D02*
X58963400Y-40818900D01*
X58963400Y-40818900D02*
X59461400Y-40818900D01*
D51*
G04 #@! TO.N,/QSPI_NCS_N*
X61598600Y-42271900D02*
X61623500Y-42247000D01*
X60426600Y-42271900D02*
X61598600Y-42271900D01*
G04 #@! TO.N,GND*
X60325000Y-40208200D02*
X61584700Y-40208200D01*
X61584700Y-40208200D02*
X61623500Y-40247000D01*
G04 #@! TO.N,LED_N*
X68036000Y-36804600D02*
X68036000Y-35334500D01*
G04 #@! TO.N,LIGHT_INT_N*
X64536000Y-36149300D02*
X64536000Y-35334500D01*
X65978000Y-36465000D02*
X64851700Y-36465000D01*
X64851700Y-36465000D02*
X64536000Y-36149300D01*
X66534400Y-37021400D02*
X65978000Y-36465000D01*
G04 #@! TO.N,TEMPRESET_N*
X80750000Y-24325000D02*
X80750000Y-23743500D01*
X80750000Y-23743500D02*
X79442800Y-23743500D01*
X78460600Y-24725700D02*
X78460600Y-27053200D01*
X79442800Y-23743500D02*
X78460600Y-24725700D01*
X78460600Y-27053200D02*
X77910000Y-27603800D01*
G04 #@! TO.N,I2C1_SDA_SENS*
X76657200Y-27838400D02*
X76957700Y-28138900D01*
X76957700Y-28138900D02*
X78769700Y-28138900D01*
X78769700Y-28138900D02*
X79750000Y-27158600D01*
X79750000Y-27158600D02*
X79750000Y-26675000D01*
G04 #@! TO.N,I2C1_SCL_SENS*
X81250000Y-26675000D02*
X81913999Y-26011001D01*
X77458000Y-29603000D02*
X76708000Y-30353000D01*
X81913999Y-26011001D02*
X83102850Y-26011001D01*
X83345377Y-26253528D02*
X83345377Y-28308941D01*
X83102850Y-26011001D02*
X83345377Y-26253528D01*
X83345377Y-28308941D02*
X82051318Y-29603000D01*
X82051318Y-29603000D02*
X77458000Y-29603000D01*
D53*
G04 #@! TO.N,VDD*
X82015500Y-30607000D02*
X84175600Y-28446900D01*
X84175600Y-24874500D02*
X83843700Y-24542600D01*
X84175600Y-28446900D02*
X84175600Y-24874500D01*
X72874500Y-26145500D02*
X76464800Y-22555200D01*
X76464800Y-22555200D02*
X81856300Y-22555200D01*
X81856300Y-22555200D02*
X83843700Y-24542600D01*
D51*
G04 #@! TO.N,GND*
X63855600Y-34036000D02*
X63855600Y-34061400D01*
X63855600Y-34061400D02*
X63536000Y-34381000D01*
X63536000Y-34381000D02*
X63536000Y-35334500D01*
G04 #@! TO.N,/GND_SHIELD*
X78895000Y-47820000D02*
X78274500Y-47820000D01*
X78274500Y-47820000D02*
X77263500Y-48831000D01*
D52*
X83118200Y-42484800D02*
X83439000Y-42164000D01*
X81649000Y-42484800D02*
X83118200Y-42484800D01*
X83439000Y-42164000D02*
X83439000Y-39544000D01*
X83439000Y-39544000D02*
X83075000Y-39180000D01*
D51*
G04 #@! TO.N,GND*
X68036000Y-43659500D02*
X68036000Y-45530500D01*
X68036000Y-45530500D02*
X68098500Y-45593000D01*
G04 #@! TO.N,I2C1_SDA_SENS*
X71145400Y-26499600D02*
X71150000Y-26495000D01*
X71145400Y-27330400D02*
X71145400Y-26499600D01*
G04 #@! TO.N,I2C1_SCL_SENS*
X67662400Y-30124400D02*
X67662400Y-28296900D01*
D53*
G04 #@! TO.N,VDD*
X59720000Y-23438000D02*
X69545200Y-23438000D01*
X71150000Y-24505000D02*
X70083000Y-23438000D01*
X70083000Y-23438000D02*
X69545200Y-23438000D01*
D51*
G04 #@! TO.N,GND*
X80250000Y-24325000D02*
X80250000Y-25250000D01*
X80250000Y-25250000D02*
X80500000Y-25500000D01*
X80250000Y-26675000D02*
X80250000Y-25750000D01*
X80250000Y-25750000D02*
X80500000Y-25500000D01*
G04 #@! TO.N,RESET_N*
X81788000Y-34544000D02*
X80619600Y-35712400D01*
X80619600Y-35712400D02*
X78614100Y-35712400D01*
X78614100Y-35712400D02*
X76988500Y-37338000D01*
G04 #@! TO.N,GND*
X69948500Y-37247000D02*
X71382000Y-37247000D01*
X71382000Y-37247000D02*
X71755000Y-36874000D01*
X65036000Y-35334500D02*
X65036000Y-34200400D01*
X65036000Y-34200400D02*
X64871600Y-34036000D01*
X65404500Y-31627000D02*
X65404500Y-31127000D01*
D53*
G04 #@! TO.N,Net-(D2-A)*
X81595000Y-57144500D02*
X81595000Y-58987500D01*
X81595000Y-58987500D02*
X81662500Y-59055000D01*
G04 #@! TO.N,VDD*
X59685000Y-34898500D02*
X60325000Y-34898500D01*
X58695500Y-33909000D02*
X59685000Y-34898500D01*
X76496700Y-60028300D02*
X76598300Y-60028300D01*
X75438000Y-61087000D02*
X76496700Y-60028300D01*
X72874500Y-28956000D02*
X71321000Y-28956000D01*
X71234000Y-24505000D02*
X72874500Y-26145500D01*
X71150000Y-24505000D02*
X71234000Y-24505000D01*
X61232400Y-35805900D02*
X60325000Y-34898500D01*
X61623500Y-35805900D02*
X61232400Y-35805900D01*
X63989800Y-32627000D02*
X64374500Y-32627000D01*
X62782300Y-31419500D02*
X63989800Y-32627000D01*
X62782300Y-31139400D02*
X62782300Y-31419500D01*
X62013000Y-30370100D02*
X62782300Y-31139400D01*
X59914100Y-30370100D02*
X62013000Y-30370100D01*
X58500000Y-28956000D02*
X59914100Y-30370100D01*
X57466200Y-32679700D02*
X58695500Y-33909000D01*
X55977400Y-32679700D02*
X57466200Y-32679700D01*
X55560000Y-33097100D02*
X55977400Y-32679700D01*
X55560000Y-41849000D02*
X55560000Y-33097100D01*
D54*
X55838700Y-41849000D02*
X55560000Y-41849000D01*
X55560000Y-41849000D02*
X53609000Y-41849000D01*
D53*
X72874500Y-30480000D02*
X72874500Y-28956000D01*
X71755000Y-31599500D02*
X71755000Y-35149000D01*
X72874500Y-30480000D02*
X71755000Y-31599500D01*
X70500000Y-23992800D02*
X70500000Y-24505000D01*
X69945200Y-23438000D02*
X70500000Y-23992800D01*
X69545200Y-23438000D02*
X69945200Y-23438000D01*
X56351000Y-26807000D02*
X59720000Y-23438000D01*
X58500000Y-28956000D02*
X56351000Y-26807000D01*
X55301500Y-25757500D02*
X53086000Y-25757500D01*
X56351000Y-26807000D02*
X55301500Y-25757500D01*
X72853500Y-28935000D02*
X72874500Y-28956000D01*
X72853500Y-27865200D02*
X72853500Y-28935000D01*
X72874500Y-27844200D02*
X72853500Y-27865200D01*
X72874500Y-26145500D02*
X72874500Y-27844200D01*
X73589200Y-45593000D02*
X69823500Y-45593000D01*
X74886200Y-46890000D02*
X73589200Y-45593000D01*
X82116000Y-35991500D02*
X82016300Y-35891800D01*
X82116000Y-37338000D02*
X82116000Y-35991500D01*
X81788000Y-33216800D02*
X81788000Y-33274000D01*
X82378200Y-32626600D02*
X81788000Y-33216800D01*
X81788000Y-30834500D02*
X82015500Y-30607000D01*
X81788000Y-33274000D02*
X81788000Y-30834500D01*
D55*
X81467600Y-24542600D02*
X81250000Y-24325000D01*
X83843700Y-24542600D02*
X81467600Y-24542600D01*
D51*
G04 #@! TO.N,/MEMORY_EN*
X63536000Y-42863100D02*
X63536000Y-43659500D01*
X63288100Y-42615200D02*
X63536000Y-42863100D01*
X62767300Y-42615200D02*
X63288100Y-42615200D01*
X61633500Y-43749000D02*
X62767300Y-42615200D01*
X53609000Y-43749000D02*
X61633500Y-43749000D01*
G04 #@! TO.N,TEMPRESET_N*
X67036000Y-34459400D02*
X67036000Y-35334500D01*
X68498900Y-32996500D02*
X67036000Y-34459400D01*
X68648400Y-32996500D02*
X68498900Y-32996500D01*
X69023700Y-32621200D02*
X68648400Y-32996500D01*
X70922500Y-32621200D02*
X69023700Y-32621200D01*
X71053600Y-32752300D02*
X70922500Y-32621200D01*
G04 #@! TO.N,LIGHT_INT_N*
X69546800Y-27757600D02*
X68199100Y-27757600D01*
X70500000Y-26804400D02*
X69546800Y-27757600D01*
X70500000Y-26495000D02*
X70500000Y-26804400D01*
G04 #@! TO.N,I2C2_SCL_NFC*
X50221000Y-31430400D02*
X50221000Y-30675500D01*
X49575400Y-32076000D02*
X50221000Y-31430400D01*
X49575400Y-35097400D02*
X49575400Y-32076000D01*
X50673000Y-36195000D02*
X49575400Y-35097400D01*
X50673000Y-36195000D02*
X52681500Y-36195000D01*
X53976000Y-37489500D02*
X52681500Y-36195000D01*
X54132800Y-37489500D02*
X53976000Y-37489500D01*
X61853200Y-50534700D02*
X57713800Y-50534700D01*
X67036000Y-45351900D02*
X61853200Y-50534700D01*
X67036000Y-43659500D02*
X67036000Y-45351900D01*
G04 #@! TO.N,I2C2_SDA_NFC*
X50673000Y-38735000D02*
X52681500Y-38735000D01*
X49130600Y-31115900D02*
X49571000Y-30675500D01*
X49130600Y-37192600D02*
X49130600Y-31115900D01*
X50673000Y-38735000D02*
X49130600Y-37192600D01*
X54712600Y-26787300D02*
X54886000Y-26960700D01*
X52510300Y-26787300D02*
X54712600Y-26787300D01*
X49571000Y-29726600D02*
X52510300Y-26787300D01*
X49571000Y-30675500D02*
X49571000Y-29726600D01*
X67536000Y-42637300D02*
X67536000Y-43659500D01*
X67968800Y-42204500D02*
X67536000Y-42637300D01*
G04 #@! TO.N,NFC_INT_WKUP*
X50871000Y-33457000D02*
X50871000Y-30675500D01*
X50673000Y-33655000D02*
X50871000Y-33457000D01*
X50871000Y-29797500D02*
X53086000Y-27582500D01*
X50871000Y-30675500D02*
X50871000Y-29797500D01*
X52107500Y-35089500D02*
X50673000Y-33655000D01*
X54132800Y-35089500D02*
X52107500Y-35089500D01*
G04 #@! TO.N,USB_VBUS_SENSE_WKUP2*
X75541500Y-53467000D02*
X75541500Y-51943000D01*
X75516100Y-53492400D02*
X75541500Y-53467000D01*
X65546500Y-37247000D02*
X61623500Y-37247000D01*
X65995000Y-37695500D02*
X65546500Y-37247000D01*
X71380900Y-47782400D02*
X71380900Y-47570600D01*
X75541500Y-51943000D02*
X71380900Y-47782400D01*
G04 #@! TO.N,I2C1_SCL_SENS*
X66929500Y-32627000D02*
X67423500Y-32627000D01*
X68656700Y-26495000D02*
X69850000Y-26495000D01*
X67662400Y-27489300D02*
X68656700Y-26495000D01*
X67662400Y-28296900D02*
X67662400Y-27489300D01*
X74826500Y-30353000D02*
X76708000Y-30353000D01*
X74699500Y-30480000D02*
X74826500Y-30353000D01*
X73989100Y-31190400D02*
X74699500Y-30480000D01*
X73605800Y-31190400D02*
X73989100Y-31190400D01*
X67735700Y-32461400D02*
X67662400Y-32388100D01*
X68426700Y-32461400D02*
X67735700Y-32461400D01*
X67423500Y-32627000D02*
X67662400Y-32388100D01*
X67662400Y-32388100D02*
X67662400Y-28296900D01*
X71205000Y-40208800D02*
X71205000Y-40570200D01*
X70743200Y-39747000D02*
X71205000Y-40208800D01*
X69948500Y-39747000D02*
X70743200Y-39747000D01*
G04 #@! TO.N,I2C1_SDA_SENS*
X66731100Y-30447100D02*
X66929500Y-30645500D01*
X65749000Y-30447100D02*
X66731100Y-30447100D01*
X66929500Y-31127000D02*
X66929500Y-30645500D01*
X73893400Y-28149900D02*
X74699500Y-28956000D01*
X73541000Y-28149900D02*
X73893400Y-28149900D01*
X75539600Y-28956000D02*
X76657200Y-27838400D01*
X74699500Y-28956000D02*
X75539600Y-28956000D01*
X66494600Y-39247000D02*
X65770800Y-38523200D01*
X69948500Y-39247000D02*
X66494600Y-39247000D01*
G04 #@! TO.N,SWCLK*
X68555200Y-35353700D02*
X68536000Y-35334500D01*
X70610700Y-35353700D02*
X68555200Y-35353700D01*
X77429500Y-32725500D02*
X77429500Y-32628300D01*
X77978000Y-33274000D02*
X77429500Y-32725500D01*
G04 #@! TO.N,LED_N*
X62347000Y-24475000D02*
X67072900Y-29200900D01*
X60500000Y-24475000D02*
X62347000Y-24475000D01*
G04 #@! TO.N,RESET_N*
X76454900Y-37871600D02*
X76988500Y-37338000D01*
X73254700Y-37871600D02*
X76454900Y-37871600D01*
X66268100Y-39747000D02*
X61623500Y-39747000D01*
X68869900Y-42348800D02*
X66268100Y-39747000D01*
X68869900Y-42532500D02*
X68869900Y-42348800D01*
X69053500Y-42716100D02*
X68869900Y-42532500D01*
X72492500Y-42716100D02*
X69053500Y-42716100D01*
X72838600Y-42370000D02*
X72492500Y-42716100D01*
D52*
G04 #@! TO.N,VDD_NFC*
X52927000Y-30675500D02*
X53086000Y-30834500D01*
X51521000Y-30675500D02*
X52927000Y-30675500D01*
X54693300Y-32441800D02*
X53086000Y-30834500D01*
X56065100Y-31070000D02*
X61690100Y-31070000D01*
X54693300Y-32441800D02*
X56065100Y-31070000D01*
X54693300Y-36008200D02*
X54506500Y-36195000D01*
X54693300Y-32441800D02*
X54693300Y-36008200D01*
X54693300Y-36381800D02*
X54506500Y-36195000D01*
X54693300Y-38548200D02*
X54693300Y-36381800D01*
X54506500Y-38735000D02*
X54693300Y-38548200D01*
D53*
G04 #@! TO.N,/+BATTERY*
X77724000Y-56007000D02*
X77645500Y-56007000D01*
D51*
G04 #@! TO.N,/QSPI_IO3*
X53467000Y-46196500D02*
X53467000Y-46419200D01*
G04 #@! TO.N,/QSPI_CLK*
X54737000Y-45962200D02*
X54737000Y-46196500D01*
X55817900Y-44881300D02*
X54737000Y-45962200D01*
X61814200Y-44881300D02*
X55817900Y-44881300D01*
X63036000Y-43659500D02*
X61814200Y-44881300D01*
G04 #@! TO.N,SWO*
X76708000Y-35189800D02*
X76708000Y-34544000D01*
X75454500Y-36443300D02*
X76708000Y-35189800D01*
X73985500Y-36443300D02*
X75454500Y-36443300D01*
X67536000Y-34536600D02*
X67536000Y-35334500D01*
X68582500Y-33490100D02*
X67536000Y-34536600D01*
X70097400Y-33490100D02*
X68582500Y-33490100D01*
X70377500Y-33210000D02*
X70097400Y-33490100D01*
G04 #@! TO.N,/+LED*
X60325000Y-27863200D02*
X60325000Y-28956000D01*
X60301500Y-27839700D02*
X60325000Y-27863200D01*
G04 #@! TO.N,TEMP_INT*
X81566000Y-27256500D02*
X81903200Y-26919300D01*
X80750000Y-27256500D02*
X81566000Y-27256500D01*
X68931100Y-33898200D02*
X68712500Y-34116800D01*
X71005900Y-33898200D02*
X68931100Y-33898200D01*
X66536000Y-36236400D02*
X66536000Y-35334500D01*
X67468300Y-37168700D02*
X66536000Y-36236400D01*
X67468300Y-37361600D02*
X67468300Y-37168700D01*
X80750000Y-26675000D02*
X80750000Y-27256500D01*
D53*
G04 #@! TO.N,+3V0*
X77491500Y-59055000D02*
X79162500Y-59055000D01*
X77491500Y-58678000D02*
X77491500Y-59055000D01*
X75770500Y-56957000D02*
X77491500Y-58678000D01*
X77488000Y-59058500D02*
X77488000Y-61087000D01*
X77491500Y-59055000D02*
X77488000Y-59058500D01*
D51*
G04 #@! TO.N,/CC1*
X79654400Y-41529000D02*
X80342100Y-41529000D01*
G04 #@! TO.N,/CC2*
X79654400Y-45339000D02*
X80265900Y-45339000D01*
G04 #@! TO.N,USB_DP*
X69948500Y-38247000D02*
X71054751Y-38247000D01*
X72371137Y-38293800D02*
X76825537Y-42748200D01*
X71054751Y-38247000D02*
X71101551Y-38293800D01*
X71101551Y-38293800D02*
X72371137Y-38293800D01*
X76825537Y-42748200D02*
X77216000Y-42748200D01*
G04 #@! TO.N,USB_DN*
X69948500Y-38747000D02*
X71054751Y-38747000D01*
X71054751Y-38747000D02*
X71101551Y-38700200D01*
X72202800Y-38700200D02*
X77241400Y-43738800D01*
X71101551Y-38700200D02*
X72202800Y-38700200D01*
D52*
G04 #@! TO.N,VDD*
X69948500Y-36747000D02*
X70157000Y-36747000D01*
X70157000Y-36747000D02*
X71755000Y-35149000D01*
X61623500Y-40747000D02*
X58891500Y-40747000D01*
D51*
G04 #@! TO.N,USB_DN*
X77266800Y-43713400D02*
X77241400Y-43738800D01*
D52*
G04 #@! TO.N,VDD*
X68536000Y-43659500D02*
X68536000Y-44305500D01*
X68536000Y-44305500D02*
X69823500Y-45593000D01*
D51*
G04 #@! TO.N,/GND_SHIELD*
X77340000Y-48907500D02*
X77263500Y-48831000D01*
X77340000Y-50355000D02*
X77340000Y-48907500D01*
D53*
G04 #@! TO.N,/+VBUS*
X79522000Y-49911000D02*
X78613000Y-49911000D01*
D51*
G04 #@! TO.N,/CC1*
X80342100Y-41529000D02*
X80748500Y-41122600D01*
X79629000Y-41529000D02*
X79654400Y-41529000D01*
G04 #@! TO.N,/CC2*
X79629000Y-45339000D02*
X79654400Y-45339000D01*
X80265900Y-45339000D02*
X80748500Y-45821600D01*
D53*
G04 #@! TO.N,+5V*
X81809500Y-50123500D02*
X82022000Y-49911000D01*
X75770500Y-55057000D02*
X75776500Y-55057000D01*
X78980399Y-53492400D02*
X79695000Y-54207001D01*
X77341100Y-53492400D02*
X78980399Y-53492400D01*
X75776500Y-55057000D02*
X77341100Y-53492400D01*
X79695000Y-54207001D02*
X80435001Y-53467000D01*
X79695000Y-54869500D02*
X79695000Y-54207001D01*
X81809500Y-51943000D02*
X81809500Y-53467000D01*
X83566000Y-44450000D02*
X83531200Y-44484800D01*
X81809500Y-54655000D02*
X81595000Y-54869500D01*
X81809500Y-51943000D02*
X81809500Y-50123500D01*
X83531200Y-44484800D02*
X81849000Y-44484800D01*
X80435001Y-53467000D02*
X81809500Y-53467000D01*
X84529573Y-48058427D02*
X84529573Y-45413573D01*
X84529573Y-45413573D02*
X83566000Y-44450000D01*
X82677000Y-49911000D02*
X84529573Y-48058427D01*
X81809500Y-53467000D02*
X81809500Y-54655000D01*
X82022000Y-49911000D02*
X82677000Y-49911000D01*
D51*
G04 #@! TO.N,/RCC_OSC32_OUT*
X58293000Y-39256000D02*
X57277000Y-40272000D01*
X59309000Y-39223000D02*
X59289000Y-39243000D01*
X61623500Y-38247000D02*
X61603500Y-38227000D01*
X58293000Y-39243000D02*
X58293000Y-39256000D01*
X60305000Y-38227000D02*
X59309000Y-39223000D01*
X61603500Y-38227000D02*
X60305000Y-38227000D01*
X59289000Y-39243000D02*
X58293000Y-39243000D01*
G04 #@! TO.N,/RCC_OSC32_IN*
X61623500Y-37747000D02*
X60333000Y-37747000D01*
X57277000Y-35687000D02*
X57277000Y-35674000D01*
X60333000Y-37747000D02*
X59309000Y-36723000D01*
X58313000Y-36723000D02*
X57277000Y-35687000D01*
X59309000Y-36723000D02*
X58313000Y-36723000D01*
G04 #@! TO.N,USB_DN*
X78089000Y-42891200D02*
X77266800Y-43713400D01*
X79949000Y-44484800D02*
X78355400Y-42891200D01*
X78355400Y-42891200D02*
X78089000Y-42891200D01*
G04 #@! TO.N,USB_DP*
X77266800Y-42748200D02*
X77241400Y-42748200D01*
X77216000Y-42748200D02*
X77241400Y-42748200D01*
X77920663Y-42484800D02*
X77657263Y-42748200D01*
X77657263Y-42748200D02*
X77266800Y-42748200D01*
X77216000Y-42748200D02*
X76825537Y-42748200D01*
X79949000Y-42484800D02*
X77920663Y-42484800D01*
D52*
G04 #@! TO.N,VDD*
X65404500Y-32127000D02*
X65404500Y-32627000D01*
X61623500Y-35124000D02*
X61849000Y-34898500D01*
X61623500Y-36747000D02*
X61623500Y-35124000D01*
X61849000Y-34898500D02*
X62600000Y-34898500D01*
X62600000Y-34898500D02*
X63036000Y-35334500D01*
X65404500Y-32627000D02*
X64374500Y-32627000D01*
X64374500Y-32627000D02*
X64135000Y-32866500D01*
D51*
G04 #@! TO.N,IMU_INT1*
X66417000Y-33120388D02*
X66417000Y-32639500D01*
X66036000Y-35334500D02*
X66036000Y-33501388D01*
X66036000Y-33501388D02*
X66417000Y-33120388D01*
G04 #@! TO.N,IMU_INT2*
X65536000Y-35334500D02*
X65536000Y-33533000D01*
X65917000Y-33152000D02*
X65917000Y-32639500D01*
X65536000Y-33533000D02*
X65917000Y-33152000D01*
D52*
G04 #@! TO.N,VDD*
X70500000Y-24505000D02*
X71150000Y-24505000D01*
X63021750Y-33979750D02*
X64135000Y-32866500D01*
X63021750Y-35320250D02*
X63021750Y-33979750D01*
X63036000Y-35334500D02*
X63021750Y-35320250D01*
G04 #@! TO.N,/+LED*
X60301500Y-26723500D02*
X60500000Y-26525000D01*
X60301500Y-28956000D02*
X60301500Y-26723500D01*
D51*
G04 #@! TO.N,USB_DP*
X77216000Y-42748200D02*
X77241400Y-42748200D01*
D56*
G04 #@! TO.N,Net-(U2-AC0)*
X50206200Y-23206000D02*
X46000000Y-23206000D01*
X50871000Y-23870800D02*
X50206200Y-23206000D01*
X50871000Y-24950500D02*
X50871000Y-23870800D01*
G04 #@! TO.N,Net-(U2-AC1)*
X49809400Y-23825200D02*
X47380800Y-23825200D01*
X50221000Y-24236800D02*
X49809400Y-23825200D01*
X47380800Y-23825200D02*
X47000000Y-24206000D01*
X50221000Y-24950500D02*
X50221000Y-24236800D01*
G04 #@! TO.N,/VDD_MEMORY*
X50909000Y-43749000D02*
X50546000Y-44112000D01*
X52309000Y-43749000D02*
X50909000Y-43749000D01*
X50546000Y-45619500D02*
X50292000Y-45873500D01*
X50546000Y-44112000D02*
X50546000Y-45619500D01*
X51874000Y-45873500D02*
X52197000Y-46196500D01*
X50292000Y-45873500D02*
X51874000Y-45873500D01*
D51*
G04 #@! TO.N,SWDIO*
X74975000Y-31819500D02*
X73450400Y-33344100D01*
X72616000Y-37747000D02*
X69948500Y-37747000D01*
X79063500Y-31819500D02*
X74975000Y-31819500D01*
X80518000Y-33274000D02*
X79063500Y-31819500D01*
X73450400Y-33344100D02*
X73450400Y-36912600D01*
X73450400Y-36912600D02*
X72616000Y-37747000D01*
G04 #@! TO.N,NFC_INT_WKUP*
X60401200Y-41478200D02*
X60632400Y-41247000D01*
X60632400Y-41247000D02*
X61623500Y-41247000D01*
G04 #@! TD*
G04 #@! TA.AperFunction,Conductor*
G04 #@! TO.N,GND*
G36*
X81002314Y-21000607D02*
G01*
X81330999Y-21015802D01*
X81336190Y-21016178D01*
X81412186Y-21023663D01*
X81416196Y-21024140D01*
X81703868Y-21064269D01*
X81709545Y-21065228D01*
X81779394Y-21079122D01*
X81782678Y-21079834D01*
X82071357Y-21147731D01*
X82077496Y-21149383D01*
X82136162Y-21167179D01*
X82138808Y-21168023D01*
X82429978Y-21265613D01*
X82436434Y-21268029D01*
X82477196Y-21284913D01*
X82479107Y-21285731D01*
X82764300Y-21411655D01*
X82776317Y-21416962D01*
X82783100Y-21420267D01*
X82794188Y-21426193D01*
X82795676Y-21427004D01*
X83101408Y-21597297D01*
X83109288Y-21602175D01*
X83406412Y-21805710D01*
X83413809Y-21811296D01*
X83690867Y-22041362D01*
X83697734Y-22047622D01*
X83952377Y-22302265D01*
X83958637Y-22309132D01*
X84188696Y-22586181D01*
X84194296Y-22593596D01*
X84397817Y-22890701D01*
X84402708Y-22898601D01*
X84572968Y-23204275D01*
X84573805Y-23205810D01*
X84579731Y-23216898D01*
X84583036Y-23223681D01*
X84714227Y-23520798D01*
X84715120Y-23522886D01*
X84731957Y-23563534D01*
X84734395Y-23570049D01*
X84831955Y-23861129D01*
X84832838Y-23863897D01*
X84850611Y-23922488D01*
X84852271Y-23928657D01*
X84920151Y-24217264D01*
X84920890Y-24220671D01*
X84934764Y-24290422D01*
X84935732Y-24296150D01*
X84975856Y-24583792D01*
X84976337Y-24587830D01*
X84983819Y-24663797D01*
X84984196Y-24669010D01*
X84999393Y-24997684D01*
X84999500Y-25002331D01*
X84999500Y-45101107D01*
X84980287Y-45160238D01*
X84929987Y-45196783D01*
X84867813Y-45196783D01*
X84827765Y-45172242D01*
X84763820Y-45108297D01*
X84291310Y-44635787D01*
X83800247Y-44144724D01*
X83773530Y-44129299D01*
X83773529Y-44129298D01*
X83713255Y-44094498D01*
X83616227Y-44068499D01*
X83616225Y-44068499D01*
X83515775Y-44068499D01*
X83515771Y-44068499D01*
X83418748Y-44094497D01*
X83415990Y-44095640D01*
X83377487Y-44103300D01*
X82481706Y-44103300D01*
X82422575Y-44084087D01*
X82400764Y-44062439D01*
X82324582Y-43959218D01*
X82324581Y-43959217D01*
X82214151Y-43877715D01*
X82084603Y-43832384D01*
X82084605Y-43832384D01*
X82074350Y-43831422D01*
X82053846Y-43829500D01*
X81644154Y-43829500D01*
X81623650Y-43831422D01*
X81613395Y-43832384D01*
X81483848Y-43877715D01*
X81373418Y-43959217D01*
X81373417Y-43959218D01*
X81291915Y-44069648D01*
X81246584Y-44199195D01*
X81246584Y-44199198D01*
X81243700Y-44229954D01*
X81243700Y-44739646D01*
X81245943Y-44763567D01*
X81246584Y-44770404D01*
X81291914Y-44899950D01*
X81309173Y-44923334D01*
X81328828Y-44982319D01*
X81310059Y-45041593D01*
X81260034Y-45078514D01*
X81197862Y-45078980D01*
X81191325Y-45076659D01*
X81128223Y-45051774D01*
X81041008Y-45041301D01*
X81040999Y-45041300D01*
X81040995Y-45041300D01*
X81040989Y-45041300D01*
X80598334Y-45041300D01*
X80539203Y-45022087D01*
X80502658Y-44971787D01*
X80502658Y-44909613D01*
X80503719Y-44907110D01*
X80503595Y-44907067D01*
X80532950Y-44823174D01*
X80551416Y-44770402D01*
X80554300Y-44739646D01*
X80554300Y-44229954D01*
X80551416Y-44199198D01*
X80506085Y-44069649D01*
X80424582Y-43959218D01*
X80405152Y-43944878D01*
X80314151Y-43877715D01*
X80184603Y-43832384D01*
X80184605Y-43832384D01*
X80174350Y-43831422D01*
X80153846Y-43829500D01*
X79744154Y-43829500D01*
X79725700Y-43831230D01*
X79713394Y-43832384D01*
X79704299Y-43835567D01*
X79642141Y-43836960D01*
X79599942Y-43811746D01*
X78673832Y-42885635D01*
X78645606Y-42830237D01*
X78655332Y-42768829D01*
X78699296Y-42724865D01*
X78744967Y-42713900D01*
X79255433Y-42713900D01*
X79314564Y-42733113D01*
X79350388Y-42781274D01*
X79391915Y-42899951D01*
X79436902Y-42960906D01*
X79473418Y-43010382D01*
X79583849Y-43091885D01*
X79713395Y-43137215D01*
X79713398Y-43137216D01*
X79744154Y-43140100D01*
X79744160Y-43140100D01*
X80153840Y-43140100D01*
X80153846Y-43140100D01*
X80184602Y-43137216D01*
X80314151Y-43091885D01*
X80424582Y-43010382D01*
X80506085Y-42899951D01*
X80551416Y-42770402D01*
X80554300Y-42739646D01*
X80554300Y-42229954D01*
X80551416Y-42199198D01*
X80506085Y-42069649D01*
X80505686Y-42069108D01*
X80501352Y-42063235D01*
X80481699Y-42004249D01*
X80500470Y-41944976D01*
X80550496Y-41908057D01*
X80582291Y-41902899D01*
X80827661Y-41902899D01*
X80886791Y-41922112D01*
X80923336Y-41972412D01*
X80923336Y-42034586D01*
X80908196Y-42063784D01*
X80898114Y-42077251D01*
X80849850Y-42206653D01*
X80849850Y-42206655D01*
X80843700Y-42263860D01*
X80843700Y-42705740D01*
X80847345Y-42739639D01*
X80849850Y-42762944D01*
X80849850Y-42762946D01*
X80898113Y-42892346D01*
X80898116Y-42892350D01*
X80980884Y-43002916D01*
X81091450Y-43085684D01*
X81091453Y-43085686D01*
X81167052Y-43113882D01*
X81220855Y-43133950D01*
X81278060Y-43140100D01*
X82019940Y-43140100D01*
X82077145Y-43133950D01*
X82148626Y-43107288D01*
X82206546Y-43085686D01*
X82206547Y-43085684D01*
X82206550Y-43085684D01*
X82317116Y-43002916D01*
X82399884Y-42892350D01*
X82399884Y-42892347D01*
X82399886Y-42892346D01*
X82432560Y-42804744D01*
X82471226Y-42756055D01*
X82526817Y-42739300D01*
X83168822Y-42739300D01*
X83168823Y-42739300D01*
X83262363Y-42700555D01*
X83654755Y-42308163D01*
X83693501Y-42214623D01*
X83693501Y-42113377D01*
X83693501Y-42105274D01*
X83693500Y-42105260D01*
X83693500Y-39986942D01*
X83712713Y-39927811D01*
X83752396Y-39896528D01*
X83752100Y-39895974D01*
X83755205Y-39894314D01*
X83755605Y-39893999D01*
X83756453Y-39893648D01*
X83888349Y-39805518D01*
X84000518Y-39693349D01*
X84088648Y-39561453D01*
X84149353Y-39414897D01*
X84180300Y-39259315D01*
X84180300Y-39100685D01*
X84149353Y-38945103D01*
X84147745Y-38941222D01*
X84088649Y-38798550D01*
X84088648Y-38798547D01*
X84052647Y-38744668D01*
X84000519Y-38666652D01*
X83888347Y-38554480D01*
X83756457Y-38466354D01*
X83756449Y-38466350D01*
X83609899Y-38405647D01*
X83506175Y-38385015D01*
X83454315Y-38374700D01*
X82695685Y-38374700D01*
X82656789Y-38382436D01*
X82540100Y-38405647D01*
X82393550Y-38466350D01*
X82393542Y-38466354D01*
X82261652Y-38554480D01*
X82261651Y-38554482D01*
X82149482Y-38666651D01*
X82149480Y-38666652D01*
X82061354Y-38798542D01*
X82061350Y-38798550D01*
X82000647Y-38945100D01*
X81969700Y-39100685D01*
X81969700Y-39259314D01*
X82000647Y-39414899D01*
X82061350Y-39561449D01*
X82061354Y-39561457D01*
X82149480Y-39693347D01*
X82261652Y-39805519D01*
X82393542Y-39893645D01*
X82393544Y-39893646D01*
X82393547Y-39893648D01*
X82466825Y-39924000D01*
X82540100Y-39954352D01*
X82540101Y-39954352D01*
X82540103Y-39954353D01*
X82695685Y-39985300D01*
X83083900Y-39985300D01*
X83143031Y-40004513D01*
X83179576Y-40054813D01*
X83184500Y-40085900D01*
X83184500Y-42016912D01*
X83181991Y-42024632D01*
X83183261Y-42032649D01*
X83172566Y-42053637D01*
X83165287Y-42076043D01*
X83155035Y-42088047D01*
X83042247Y-42200835D01*
X82986849Y-42229061D01*
X82971112Y-42230300D01*
X82526817Y-42230300D01*
X82467686Y-42211087D01*
X82432560Y-42164856D01*
X82399886Y-42077253D01*
X82398980Y-42076043D01*
X82317116Y-41966684D01*
X82206550Y-41883916D01*
X82206546Y-41883913D01*
X82077145Y-41835650D01*
X82019940Y-41829500D01*
X81526304Y-41829500D01*
X81467173Y-41810287D01*
X81430628Y-41759987D01*
X81430628Y-41697813D01*
X81446143Y-41668117D01*
X81476085Y-41628633D01*
X81530825Y-41489824D01*
X81541300Y-41402595D01*
X81541299Y-40842606D01*
X81530825Y-40755376D01*
X81476085Y-40616567D01*
X81385926Y-40497674D01*
X81267033Y-40407515D01*
X81212292Y-40385927D01*
X81128223Y-40352774D01*
X81041008Y-40342301D01*
X81040999Y-40342300D01*
X81040995Y-40342300D01*
X81040988Y-40342300D01*
X80456013Y-40342300D01*
X80456005Y-40342301D01*
X80368778Y-40352774D01*
X80229967Y-40407515D01*
X80111073Y-40497674D01*
X80085866Y-40530915D01*
X80034828Y-40566421D01*
X79972667Y-40565147D01*
X79923126Y-40527579D01*
X79908536Y-40496165D01*
X79884689Y-40407167D01*
X79884687Y-40407162D01*
X79844397Y-40337378D01*
X79815505Y-40287335D01*
X79717665Y-40189495D01*
X79636548Y-40142662D01*
X79594946Y-40096459D01*
X79588447Y-40034625D01*
X79619534Y-39980781D01*
X79667224Y-39956874D01*
X79669741Y-39956373D01*
X79679897Y-39954353D01*
X79826453Y-39893648D01*
X79958349Y-39805518D01*
X80070518Y-39693349D01*
X80158648Y-39561453D01*
X80219353Y-39414897D01*
X80250300Y-39259315D01*
X80250300Y-39100685D01*
X80219353Y-38945103D01*
X80217745Y-38941222D01*
X80158649Y-38798550D01*
X80158648Y-38798547D01*
X80122647Y-38744668D01*
X80070519Y-38666652D01*
X79958347Y-38554480D01*
X79826457Y-38466354D01*
X79826449Y-38466350D01*
X79679899Y-38405647D01*
X79576175Y-38385015D01*
X79524315Y-38374700D01*
X78265685Y-38374700D01*
X78226789Y-38382436D01*
X78110100Y-38405647D01*
X77963550Y-38466350D01*
X77963542Y-38466354D01*
X77831652Y-38554480D01*
X77831651Y-38554482D01*
X77719482Y-38666651D01*
X77719480Y-38666652D01*
X77631354Y-38798542D01*
X77631350Y-38798550D01*
X77570647Y-38945100D01*
X77539700Y-39100685D01*
X77539700Y-39259314D01*
X77570647Y-39414899D01*
X77631350Y-39561449D01*
X77631354Y-39561457D01*
X77719480Y-39693347D01*
X77831652Y-39805519D01*
X77963542Y-39893645D01*
X77963544Y-39893646D01*
X77963547Y-39893648D01*
X78036825Y-39924000D01*
X78110100Y-39954352D01*
X78110101Y-39954352D01*
X78110103Y-39954353D01*
X78265685Y-39985300D01*
X78265686Y-39985300D01*
X79050567Y-39985300D01*
X79109698Y-40004513D01*
X79146243Y-40054813D01*
X79146243Y-40116987D01*
X79109698Y-40167287D01*
X79100874Y-40173017D01*
X79072335Y-40189495D01*
X78974495Y-40287335D01*
X78974494Y-40287336D01*
X78974493Y-40287337D01*
X78905312Y-40407162D01*
X78905310Y-40407167D01*
X78869500Y-40540811D01*
X78869500Y-40679188D01*
X78905310Y-40812832D01*
X78905312Y-40812837D01*
X78941493Y-40875504D01*
X78974495Y-40932665D01*
X79072335Y-41030505D01*
X79175246Y-41089920D01*
X79216847Y-41136123D01*
X79223347Y-41197956D01*
X79212067Y-41227341D01*
X79156884Y-41322920D01*
X79156882Y-41322925D01*
X79120500Y-41458705D01*
X79120500Y-41599294D01*
X79156882Y-41735074D01*
X79156882Y-41735075D01*
X79204606Y-41817734D01*
X79227174Y-41856822D01*
X79326578Y-41956226D01*
X79341767Y-41964995D01*
X79346181Y-41969897D01*
X79352410Y-41972077D01*
X79366644Y-41992622D01*
X79383370Y-42011197D01*
X79384059Y-42017759D01*
X79387818Y-42023184D01*
X79387257Y-42048175D01*
X79389870Y-42073031D01*
X79386423Y-42085343D01*
X79350388Y-42188326D01*
X79312723Y-42237793D01*
X79255433Y-42255700D01*
X77875090Y-42255700D01*
X77853944Y-42264459D01*
X77853940Y-42264461D01*
X77842875Y-42269045D01*
X77790889Y-42290578D01*
X77717748Y-42363718D01*
X77711408Y-42368339D01*
X77688947Y-42375673D01*
X77667893Y-42386401D01*
X77659949Y-42385142D01*
X77652305Y-42387639D01*
X77629824Y-42380371D01*
X77606484Y-42376674D01*
X77596940Y-42369739D01*
X77593146Y-42368513D01*
X77590775Y-42365260D01*
X77581022Y-42358174D01*
X77543822Y-42320974D01*
X77422075Y-42250682D01*
X77286294Y-42214300D01*
X77286289Y-42214300D01*
X77145711Y-42214300D01*
X77145705Y-42214300D01*
X77009925Y-42250682D01*
X77009924Y-42250682D01*
X76888177Y-42320974D01*
X76876378Y-42332774D01*
X76820980Y-42361000D01*
X76759572Y-42351274D01*
X76734108Y-42332774D01*
X72930784Y-38529450D01*
X72902558Y-38474052D01*
X72912284Y-38412644D01*
X72956248Y-38368680D01*
X73017656Y-38358954D01*
X73042108Y-38367613D01*
X73042531Y-38366593D01*
X73048620Y-38369115D01*
X73048622Y-38369116D01*
X73048623Y-38369116D01*
X73048625Y-38369117D01*
X73184405Y-38405499D01*
X73184409Y-38405499D01*
X73184411Y-38405500D01*
X73184413Y-38405500D01*
X73324987Y-38405500D01*
X73324989Y-38405500D01*
X73324991Y-38405499D01*
X73324994Y-38405499D01*
X73460774Y-38369117D01*
X73460775Y-38369117D01*
X73460775Y-38369116D01*
X73460778Y-38369116D01*
X73582522Y-38298826D01*
X73681926Y-38199422D01*
X73701563Y-38165411D01*
X73709883Y-38151000D01*
X73756088Y-38109397D01*
X73797005Y-38100700D01*
X76510380Y-38100700D01*
X76510380Y-38102248D01*
X76554738Y-38106232D01*
X76558776Y-38107825D01*
X76646005Y-38118300D01*
X77330994Y-38118299D01*
X77418224Y-38107825D01*
X77557033Y-38053085D01*
X77675926Y-37962926D01*
X77766085Y-37844033D01*
X77820825Y-37705224D01*
X77831300Y-37617995D01*
X77831299Y-37058006D01*
X77820825Y-36970776D01*
X77805123Y-36930961D01*
X77801303Y-36868907D01*
X77827572Y-36822923D01*
X78679531Y-35970965D01*
X78734929Y-35942739D01*
X78750666Y-35941500D01*
X80665172Y-35941500D01*
X80672196Y-35938590D01*
X80689826Y-35931286D01*
X80689832Y-35931286D01*
X80689832Y-35931284D01*
X80689833Y-35931284D01*
X80749375Y-35906622D01*
X81434579Y-35221416D01*
X81489975Y-35193192D01*
X81530411Y-35195032D01*
X81537471Y-35196820D01*
X81584109Y-35216138D01*
X81719155Y-35243000D01*
X81719807Y-35243000D01*
X81724695Y-35244238D01*
X81748904Y-35259491D01*
X81773868Y-35273471D01*
X81775003Y-35275935D01*
X81777299Y-35277381D01*
X81787917Y-35303944D01*
X81799899Y-35329934D01*
X81799369Y-35332595D01*
X81800376Y-35335113D01*
X81793354Y-35362835D01*
X81787770Y-35390913D01*
X81785716Y-35392993D01*
X81785111Y-35395385D01*
X81775256Y-35403592D01*
X81750298Y-35428880D01*
X81688479Y-35464572D01*
X81688478Y-35464574D01*
X81589074Y-35563977D01*
X81518782Y-35685724D01*
X81518782Y-35685725D01*
X81482400Y-35821505D01*
X81482400Y-35962094D01*
X81518782Y-36097874D01*
X81518782Y-36097875D01*
X81589074Y-36219622D01*
X81688477Y-36319025D01*
X81693707Y-36323038D01*
X81692013Y-36325244D01*
X81698257Y-36332173D01*
X81715287Y-36344546D01*
X81718602Y-36354750D01*
X81725786Y-36362722D01*
X81734500Y-36403677D01*
X81734500Y-36480689D01*
X81715287Y-36539820D01*
X81670807Y-36574274D01*
X81547469Y-36622914D01*
X81547468Y-36622914D01*
X81428574Y-36713074D01*
X81338415Y-36831967D01*
X81283674Y-36970776D01*
X81273201Y-37057991D01*
X81273200Y-37058011D01*
X81273200Y-37617986D01*
X81273201Y-37617994D01*
X81283674Y-37705221D01*
X81283674Y-37705223D01*
X81283675Y-37705224D01*
X81338415Y-37844033D01*
X81428574Y-37962926D01*
X81547467Y-38053085D01*
X81686276Y-38107825D01*
X81773505Y-38118300D01*
X82458494Y-38118299D01*
X82545724Y-38107825D01*
X82684533Y-38053085D01*
X82803426Y-37962926D01*
X82893585Y-37844033D01*
X82948325Y-37705224D01*
X82958800Y-37617995D01*
X82958799Y-37058006D01*
X82948325Y-36970776D01*
X82893585Y-36831967D01*
X82803426Y-36713074D01*
X82684533Y-36622915D01*
X82669043Y-36616806D01*
X82561193Y-36574274D01*
X82513234Y-36534708D01*
X82497500Y-36480689D01*
X82497500Y-36153093D01*
X82510979Y-36102792D01*
X82511478Y-36101926D01*
X82513816Y-36097878D01*
X82513817Y-36097874D01*
X82550199Y-35962094D01*
X82550200Y-35962087D01*
X82550200Y-35821512D01*
X82550199Y-35821505D01*
X82513817Y-35685725D01*
X82513817Y-35685724D01*
X82483434Y-35633100D01*
X82443526Y-35563978D01*
X82344122Y-35464574D01*
X82316396Y-35448566D01*
X82222375Y-35394282D01*
X82107536Y-35363512D01*
X82055392Y-35329650D01*
X82033111Y-35271605D01*
X82049203Y-35211550D01*
X82095074Y-35173397D01*
X82119101Y-35163446D01*
X82233586Y-35086949D01*
X82330949Y-34989586D01*
X82407446Y-34875101D01*
X82460138Y-34747891D01*
X82487000Y-34612845D01*
X82487000Y-34552511D01*
X82506213Y-34493380D01*
X82556513Y-34456835D01*
X82618687Y-34456835D01*
X82643487Y-34468863D01*
X82728415Y-34525610D01*
X82777651Y-34546004D01*
X82855040Y-34578060D01*
X82855041Y-34578060D01*
X82855043Y-34578061D01*
X82989470Y-34604800D01*
X82989471Y-34604800D01*
X83126529Y-34604800D01*
X83126530Y-34604800D01*
X83260957Y-34578061D01*
X83387585Y-34525610D01*
X83501547Y-34449463D01*
X83598463Y-34352547D01*
X83674610Y-34238585D01*
X83727061Y-34111957D01*
X83753800Y-33977530D01*
X83753800Y-33840470D01*
X83727061Y-33706043D01*
X83674610Y-33579415D01*
X83674214Y-33578823D01*
X83598464Y-33465454D01*
X83501545Y-33368535D01*
X83387589Y-33292392D01*
X83387581Y-33292388D01*
X83260959Y-33239939D01*
X83158358Y-33219531D01*
X83126530Y-33213200D01*
X82989470Y-33213200D01*
X82957642Y-33219531D01*
X82855040Y-33239939D01*
X82728418Y-33292388D01*
X82728410Y-33292392D01*
X82643490Y-33349134D01*
X82630013Y-33352934D01*
X82618687Y-33361164D01*
X82600833Y-33361164D01*
X82583650Y-33366010D01*
X82570514Y-33361164D01*
X82556513Y-33361164D01*
X82542070Y-33350670D01*
X82525319Y-33344491D01*
X82517539Y-33332848D01*
X82506213Y-33324619D01*
X82500695Y-33307638D01*
X82490777Y-33292794D01*
X82487000Y-33265488D01*
X82487000Y-33227374D01*
X82506213Y-33168243D01*
X82556513Y-33131698D01*
X82561542Y-33130207D01*
X82584278Y-33124116D01*
X82706022Y-33053826D01*
X82805426Y-32954422D01*
X82875716Y-32832678D01*
X82900334Y-32740800D01*
X82912099Y-32696894D01*
X82912100Y-32696887D01*
X82912100Y-32556312D01*
X82912099Y-32556305D01*
X82875717Y-32420525D01*
X82875717Y-32420524D01*
X82849100Y-32374423D01*
X82805426Y-32298778D01*
X82706022Y-32199374D01*
X82656699Y-32170897D01*
X82584275Y-32129082D01*
X82448494Y-32092700D01*
X82448489Y-32092700D01*
X82307911Y-32092700D01*
X82307908Y-32092700D01*
X82296135Y-32095855D01*
X82234046Y-32092599D01*
X82185729Y-32053471D01*
X82169500Y-31998682D01*
X82169500Y-31487899D01*
X82188713Y-31428768D01*
X82239013Y-31392223D01*
X82270100Y-31387299D01*
X82357987Y-31387299D01*
X82357994Y-31387299D01*
X82445224Y-31376825D01*
X82584033Y-31322085D01*
X82702926Y-31231926D01*
X82793085Y-31113033D01*
X82847825Y-30974224D01*
X82858300Y-30886995D01*
X82858299Y-30345391D01*
X82877512Y-30286261D01*
X82887758Y-30274263D01*
X84480876Y-28681147D01*
X84531102Y-28594153D01*
X84557101Y-28497125D01*
X84557101Y-28396675D01*
X84557101Y-28390515D01*
X84557100Y-28390497D01*
X84557100Y-24824276D01*
X84557099Y-24824270D01*
X84531103Y-24727252D01*
X84531101Y-24727249D01*
X84531101Y-24727246D01*
X84480876Y-24640253D01*
X84448544Y-24607921D01*
X84409847Y-24569223D01*
X84409847Y-24569224D01*
X84077947Y-24237324D01*
X83121893Y-23281270D01*
X82090547Y-22249924D01*
X82003554Y-22199699D01*
X82003547Y-22199696D01*
X81906529Y-22173700D01*
X81906525Y-22173700D01*
X76515025Y-22173700D01*
X76414575Y-22173700D01*
X76414569Y-22173700D01*
X76317550Y-22199696D01*
X76317545Y-22199698D01*
X76230552Y-22249924D01*
X72945634Y-25534841D01*
X72890236Y-25563067D01*
X72828828Y-25553341D01*
X72803364Y-25534841D01*
X71619765Y-24351242D01*
X71591539Y-24295844D01*
X71590300Y-24280107D01*
X71590300Y-24106374D01*
X71584292Y-24060738D01*
X71584291Y-24060735D01*
X71537583Y-23960568D01*
X71459432Y-23882417D01*
X71387693Y-23848965D01*
X71359261Y-23835707D01*
X71313625Y-23829700D01*
X71313624Y-23829700D01*
X71055893Y-23829700D01*
X70996762Y-23810487D01*
X70984758Y-23800235D01*
X70651348Y-23466825D01*
X70317247Y-23132724D01*
X70230254Y-23082499D01*
X70230247Y-23082496D01*
X70133229Y-23056500D01*
X70133225Y-23056500D01*
X69995425Y-23056500D01*
X69595425Y-23056500D01*
X59669775Y-23056500D01*
X59669770Y-23056500D01*
X59572752Y-23082496D01*
X59572745Y-23082499D01*
X59485755Y-23132723D01*
X59485749Y-23132727D01*
X59414723Y-23203752D01*
X59414724Y-23203753D01*
X59414722Y-23203755D01*
X56422134Y-26196342D01*
X56366736Y-26224568D01*
X56305328Y-26214842D01*
X56279867Y-26196344D01*
X55535747Y-25452224D01*
X55448754Y-25401999D01*
X55448747Y-25401996D01*
X55351729Y-25376000D01*
X55351725Y-25376000D01*
X53923592Y-25376000D01*
X53864461Y-25356787D01*
X53830007Y-25312308D01*
X53801085Y-25238967D01*
X53710926Y-25120074D01*
X53592033Y-25029915D01*
X53515650Y-24999793D01*
X53453223Y-24975174D01*
X53366008Y-24964701D01*
X53365999Y-24964700D01*
X53365995Y-24964700D01*
X53365988Y-24964700D01*
X52806013Y-24964700D01*
X52806005Y-24964701D01*
X52718778Y-24975174D01*
X52579967Y-25029915D01*
X52461074Y-25120074D01*
X52370915Y-25238967D01*
X52316174Y-25377776D01*
X52305701Y-25464991D01*
X52305700Y-25465011D01*
X52305700Y-26049986D01*
X52305701Y-26049994D01*
X52316174Y-26137221D01*
X52316174Y-26137223D01*
X52316175Y-26137224D01*
X52370915Y-26276033D01*
X52430356Y-26354418D01*
X52461074Y-26394926D01*
X52461857Y-26395520D01*
X52462289Y-26396141D01*
X52465940Y-26399792D01*
X52465284Y-26400447D01*
X52497363Y-26446559D01*
X52496089Y-26508720D01*
X52458521Y-26558260D01*
X52439570Y-26568619D01*
X52380525Y-26593077D01*
X49376777Y-29596825D01*
X49372969Y-29606020D01*
X49332589Y-29653297D01*
X49325699Y-29657155D01*
X49229803Y-29706016D01*
X49139015Y-29796804D01*
X49080733Y-29911190D01*
X49080731Y-29911196D01*
X49065700Y-30006096D01*
X49065700Y-30815132D01*
X49046487Y-30874263D01*
X49036236Y-30886266D01*
X48936378Y-30986125D01*
X48936376Y-30986128D01*
X48922604Y-31019378D01*
X48901500Y-31070327D01*
X48901500Y-31070329D01*
X48901500Y-37147030D01*
X48901500Y-37238170D01*
X48927987Y-37302116D01*
X48936378Y-37322375D01*
X49724016Y-38110013D01*
X49752242Y-38165411D01*
X49742516Y-38226819D01*
X49739433Y-38232081D01*
X49737803Y-38235131D01*
X49658255Y-38427177D01*
X49631440Y-38561986D01*
X49617700Y-38631062D01*
X49617700Y-38838938D01*
X49621511Y-38858095D01*
X49658255Y-39042822D01*
X49737803Y-39234868D01*
X49737805Y-39234872D01*
X49795941Y-39321878D01*
X49853293Y-39407712D01*
X50000287Y-39554706D01*
X50038756Y-39580410D01*
X50173128Y-39670195D01*
X50175318Y-39671102D01*
X50365177Y-39749744D01*
X50365178Y-39749744D01*
X50365180Y-39749745D01*
X50569062Y-39790300D01*
X50569063Y-39790300D01*
X50776937Y-39790300D01*
X50776938Y-39790300D01*
X50980820Y-39749745D01*
X51172872Y-39670195D01*
X51345714Y-39554705D01*
X51492705Y-39407714D01*
X51608195Y-39234872D01*
X51650245Y-39133352D01*
X51687746Y-39042819D01*
X51689180Y-39038092D01*
X51690288Y-39038428D01*
X51690288Y-39033613D01*
X51705242Y-39013029D01*
X51717677Y-38990827D01*
X51723235Y-38988264D01*
X51726833Y-38983313D01*
X51751032Y-38975449D01*
X51774141Y-38964797D01*
X51785964Y-38964100D01*
X51793347Y-38964100D01*
X51852478Y-38983313D01*
X51889023Y-39033613D01*
X51893228Y-39052702D01*
X51895985Y-39075662D01*
X51899174Y-39102221D01*
X51899174Y-39102223D01*
X51899175Y-39102224D01*
X51953915Y-39241033D01*
X52044074Y-39359926D01*
X52162967Y-39450085D01*
X52301776Y-39504825D01*
X52389005Y-39515300D01*
X52973994Y-39515299D01*
X53061224Y-39504825D01*
X53200033Y-39450085D01*
X53318926Y-39359926D01*
X53409085Y-39241033D01*
X53463825Y-39102224D01*
X53474300Y-39014995D01*
X53474299Y-38455006D01*
X53463825Y-38367776D01*
X53409085Y-38228967D01*
X53318926Y-38110074D01*
X53200033Y-38019915D01*
X53141043Y-37996652D01*
X53061223Y-37965174D01*
X52974008Y-37954701D01*
X52973999Y-37954700D01*
X52973995Y-37954700D01*
X52973988Y-37954700D01*
X52389013Y-37954700D01*
X52389005Y-37954701D01*
X52301778Y-37965174D01*
X52162967Y-38019915D01*
X52044074Y-38110074D01*
X51953915Y-38228967D01*
X51899174Y-38367776D01*
X51893228Y-38417295D01*
X51889022Y-38426377D01*
X51889022Y-38436387D01*
X51876240Y-38453978D01*
X51867102Y-38473714D01*
X51858359Y-38478590D01*
X51852477Y-38486687D01*
X51831794Y-38493407D01*
X51812803Y-38504000D01*
X51793346Y-38505900D01*
X51785964Y-38505900D01*
X51726833Y-38486687D01*
X51690288Y-38436387D01*
X51688743Y-38430467D01*
X51687746Y-38427180D01*
X51608196Y-38235131D01*
X51608195Y-38235128D01*
X51502990Y-38077678D01*
X51492706Y-38062287D01*
X51345712Y-37915293D01*
X51239062Y-37844032D01*
X51172872Y-37799805D01*
X51172869Y-37799803D01*
X51172868Y-37799803D01*
X50980822Y-37720255D01*
X50825813Y-37689422D01*
X50776938Y-37679700D01*
X50569062Y-37679700D01*
X50520187Y-37689422D01*
X50365177Y-37720255D01*
X50173131Y-37799803D01*
X50168767Y-37802136D01*
X50167916Y-37800545D01*
X50115157Y-37815402D01*
X50056834Y-37793858D01*
X50048013Y-37786016D01*
X49389165Y-37127168D01*
X49360939Y-37071770D01*
X49359700Y-37056033D01*
X49359700Y-35448566D01*
X49378913Y-35389435D01*
X49429213Y-35352890D01*
X49491387Y-35352890D01*
X49531433Y-35377430D01*
X49582703Y-35428699D01*
X49724017Y-35570013D01*
X49752243Y-35625411D01*
X49742517Y-35686819D01*
X49739432Y-35692082D01*
X49737803Y-35695131D01*
X49658255Y-35887177D01*
X49629230Y-36033095D01*
X49617700Y-36091062D01*
X49617700Y-36298938D01*
X49621696Y-36319025D01*
X49658255Y-36502822D01*
X49736680Y-36692157D01*
X49737805Y-36694872D01*
X49791167Y-36774734D01*
X49853293Y-36867712D01*
X50000287Y-37014706D01*
X50020352Y-37028113D01*
X50173128Y-37130195D01*
X50236929Y-37156622D01*
X50365177Y-37209744D01*
X50365178Y-37209744D01*
X50365180Y-37209745D01*
X50569062Y-37250300D01*
X50569063Y-37250300D01*
X50776937Y-37250300D01*
X50776938Y-37250300D01*
X50980820Y-37209745D01*
X51172872Y-37130195D01*
X51345714Y-37014705D01*
X51492705Y-36867714D01*
X51608195Y-36694872D01*
X51662375Y-36564070D01*
X51687746Y-36502819D01*
X51689180Y-36498092D01*
X51690288Y-36498428D01*
X51690288Y-36493613D01*
X51705242Y-36473029D01*
X51717677Y-36450827D01*
X51723235Y-36448264D01*
X51726833Y-36443313D01*
X51751032Y-36435449D01*
X51774141Y-36424797D01*
X51785964Y-36424100D01*
X51793347Y-36424100D01*
X51852478Y-36443313D01*
X51889023Y-36493613D01*
X51893228Y-36512702D01*
X51895090Y-36528200D01*
X51899174Y-36562221D01*
X51899174Y-36562223D01*
X51899175Y-36562224D01*
X51953915Y-36701033D01*
X52044074Y-36819926D01*
X52162967Y-36910085D01*
X52301776Y-36964825D01*
X52389005Y-36975300D01*
X52973994Y-36975299D01*
X53061224Y-36964825D01*
X53061224Y-36964824D01*
X53067629Y-36964056D01*
X53067875Y-36966112D01*
X53120607Y-36969612D01*
X53154388Y-36991885D01*
X53569435Y-37406931D01*
X53597661Y-37462329D01*
X53598900Y-37478066D01*
X53598900Y-37559794D01*
X53635282Y-37695574D01*
X53635282Y-37695575D01*
X53640853Y-37705224D01*
X53705574Y-37817322D01*
X53804978Y-37916726D01*
X53854020Y-37945041D01*
X53854930Y-37945566D01*
X53896533Y-37991770D01*
X53903032Y-38053604D01*
X53873495Y-38104763D01*
X53873940Y-38105208D01*
X53872279Y-38106868D01*
X53871945Y-38107448D01*
X53870527Y-38108620D01*
X53869074Y-38110073D01*
X53778915Y-38228967D01*
X53724174Y-38367776D01*
X53713701Y-38454991D01*
X53713700Y-38455011D01*
X53713700Y-39014986D01*
X53713701Y-39014994D01*
X53724174Y-39102221D01*
X53724174Y-39102223D01*
X53724175Y-39102224D01*
X53778915Y-39241033D01*
X53869074Y-39359926D01*
X53987967Y-39450085D01*
X54126776Y-39504825D01*
X54214005Y-39515300D01*
X54798994Y-39515299D01*
X54886224Y-39504825D01*
X55025033Y-39450085D01*
X55025040Y-39450078D01*
X55028590Y-39448084D01*
X55089548Y-39435847D01*
X55146057Y-39461777D01*
X55176532Y-39515970D01*
X55178500Y-39535770D01*
X55178500Y-41420600D01*
X55159287Y-41479731D01*
X55108987Y-41516276D01*
X55077900Y-41521200D01*
X54173148Y-41521200D01*
X54114017Y-41501987D01*
X54083513Y-41466272D01*
X54040983Y-41382803D01*
X54040982Y-41382801D01*
X53950199Y-41292018D01*
X53950196Y-41292016D01*
X53950195Y-41292015D01*
X53950196Y-41292015D01*
X53835809Y-41233733D01*
X53835803Y-41233731D01*
X53740901Y-41218700D01*
X53477104Y-41218700D01*
X53407647Y-41229700D01*
X53382194Y-41233732D01*
X53382192Y-41233732D01*
X53382190Y-41233733D01*
X53267804Y-41292015D01*
X53177015Y-41382804D01*
X53118733Y-41497190D01*
X53118731Y-41497196D01*
X53103700Y-41592097D01*
X53103700Y-42105894D01*
X53111363Y-42154275D01*
X53118732Y-42200806D01*
X53118732Y-42200807D01*
X53118733Y-42200809D01*
X53177015Y-42315195D01*
X53177016Y-42315196D01*
X53177018Y-42315199D01*
X53267801Y-42405982D01*
X53267803Y-42405983D01*
X53267804Y-42405984D01*
X53335132Y-42440289D01*
X53382194Y-42464268D01*
X53477103Y-42479300D01*
X53740896Y-42479299D01*
X53835806Y-42464268D01*
X53950199Y-42405982D01*
X54040982Y-42315199D01*
X54066835Y-42264459D01*
X54083513Y-42231728D01*
X54127477Y-42187765D01*
X54173148Y-42176800D01*
X55337811Y-42176800D01*
X55388110Y-42190278D01*
X55403561Y-42199198D01*
X55412746Y-42204501D01*
X55412749Y-42204502D01*
X55412752Y-42204503D01*
X55509770Y-42230499D01*
X55509772Y-42230499D01*
X55509775Y-42230500D01*
X55509777Y-42230500D01*
X55610225Y-42230500D01*
X55673313Y-42213595D01*
X55725387Y-42213595D01*
X55788475Y-42230500D01*
X57839723Y-42230500D01*
X57839725Y-42230500D01*
X57839729Y-42230499D01*
X57936747Y-42204503D01*
X57936747Y-42204502D01*
X57936754Y-42204501D01*
X58023747Y-42154276D01*
X58094776Y-42083247D01*
X58094776Y-42083246D01*
X58683829Y-41494191D01*
X58739225Y-41465967D01*
X58800633Y-41475693D01*
X58831530Y-41501537D01*
X58831608Y-41501460D01*
X58832483Y-41502335D01*
X58835119Y-41504540D01*
X58836471Y-41506323D01*
X58836473Y-41506325D01*
X58836474Y-41506326D01*
X58955367Y-41596485D01*
X59094176Y-41651225D01*
X59181405Y-41661700D01*
X59741394Y-41661699D01*
X59815054Y-41652854D01*
X59839055Y-41657586D01*
X59863477Y-41658965D01*
X59868680Y-41663427D01*
X59876053Y-41664881D01*
X59911637Y-41698287D01*
X59912949Y-41700325D01*
X59973974Y-41806022D01*
X59993647Y-41825695D01*
X59999481Y-41834758D01*
X60004792Y-41854907D01*
X60014251Y-41873471D01*
X60012537Y-41884287D01*
X60015330Y-41894879D01*
X60007783Y-41914302D01*
X60004525Y-41934879D01*
X60002012Y-41939508D01*
X59929084Y-42065820D01*
X59929082Y-42065825D01*
X59892700Y-42201605D01*
X59892700Y-42342194D01*
X59929082Y-42477974D01*
X59929082Y-42477975D01*
X59929847Y-42479300D01*
X59999374Y-42599722D01*
X60098778Y-42699126D01*
X60220522Y-42769416D01*
X60220524Y-42769417D01*
X60356305Y-42805799D01*
X60356309Y-42805799D01*
X60356311Y-42805800D01*
X60356313Y-42805800D01*
X60496887Y-42805800D01*
X60496889Y-42805800D01*
X60496891Y-42805799D01*
X60496894Y-42805799D01*
X60623736Y-42771812D01*
X60632674Y-42769417D01*
X60632675Y-42769417D01*
X60632675Y-42769416D01*
X60632678Y-42769416D01*
X60754422Y-42699126D01*
X60754425Y-42699122D01*
X60759446Y-42696224D01*
X60820261Y-42683297D01*
X60843306Y-42689918D01*
X60843521Y-42689223D01*
X60850983Y-42691528D01*
X60850986Y-42691530D01*
X60924905Y-42702300D01*
X62113333Y-42702299D01*
X62172464Y-42721512D01*
X62209009Y-42771812D01*
X62209009Y-42833986D01*
X62184468Y-42874034D01*
X61568068Y-43490435D01*
X61512670Y-43518661D01*
X61496933Y-43519900D01*
X54204623Y-43519900D01*
X54145492Y-43500687D01*
X54108947Y-43450387D01*
X54105262Y-43435037D01*
X54099268Y-43397194D01*
X54099267Y-43397191D01*
X54040984Y-43282804D01*
X54040983Y-43282803D01*
X54040982Y-43282801D01*
X53950199Y-43192018D01*
X53950196Y-43192016D01*
X53950195Y-43192015D01*
X53950196Y-43192015D01*
X53835809Y-43133733D01*
X53835803Y-43133731D01*
X53740901Y-43118700D01*
X53477104Y-43118700D01*
X53407647Y-43129700D01*
X53382194Y-43133732D01*
X53382192Y-43133732D01*
X53382190Y-43133733D01*
X53267804Y-43192015D01*
X53177015Y-43282804D01*
X53118733Y-43397190D01*
X53118731Y-43397196D01*
X53103700Y-43492097D01*
X53103700Y-44005894D01*
X53103965Y-44007566D01*
X53118732Y-44100806D01*
X53118732Y-44100807D01*
X53118733Y-44100809D01*
X53177015Y-44215195D01*
X53177016Y-44215196D01*
X53177018Y-44215199D01*
X53267801Y-44305982D01*
X53267803Y-44305983D01*
X53267804Y-44305984D01*
X53370077Y-44358094D01*
X53382194Y-44364268D01*
X53477103Y-44379300D01*
X53740896Y-44379299D01*
X53835806Y-44364268D01*
X53950199Y-44305982D01*
X54040982Y-44215199D01*
X54099268Y-44100806D01*
X54105262Y-44062961D01*
X54133488Y-44007566D01*
X54188885Y-43979339D01*
X54204623Y-43978100D01*
X61679072Y-43978100D01*
X61685631Y-43975382D01*
X61703726Y-43967886D01*
X61703732Y-43967886D01*
X61703732Y-43967884D01*
X61703733Y-43967884D01*
X61763275Y-43943222D01*
X62408965Y-43297530D01*
X62464363Y-43269305D01*
X62525771Y-43279031D01*
X62569735Y-43322994D01*
X62580700Y-43368666D01*
X62580700Y-43749132D01*
X62561487Y-43808263D01*
X62551235Y-43820267D01*
X61748768Y-44622735D01*
X61693370Y-44650961D01*
X61677633Y-44652200D01*
X55772327Y-44652200D01*
X55699999Y-44682159D01*
X55700000Y-44682160D01*
X55688124Y-44687079D01*
X55216500Y-45158702D01*
X55161102Y-45186928D01*
X55112139Y-45182522D01*
X54998003Y-45142584D01*
X54998005Y-45142584D01*
X54987750Y-45141622D01*
X54967246Y-45139700D01*
X54557554Y-45139700D01*
X54537050Y-45141622D01*
X54526795Y-45142584D01*
X54397248Y-45187915D01*
X54286818Y-45269417D01*
X54286817Y-45269418D01*
X54208342Y-45375747D01*
X54157770Y-45411914D01*
X54095597Y-45411449D01*
X54046458Y-45375747D01*
X53967982Y-45269418D01*
X53967981Y-45269417D01*
X53857551Y-45187915D01*
X53728003Y-45142584D01*
X53728005Y-45142584D01*
X53717750Y-45141622D01*
X53697246Y-45139700D01*
X53287554Y-45139700D01*
X53267050Y-45141622D01*
X53256795Y-45142584D01*
X53127248Y-45187915D01*
X53016818Y-45269417D01*
X53016817Y-45269418D01*
X52938342Y-45375747D01*
X52887770Y-45411914D01*
X52825597Y-45411449D01*
X52776458Y-45375747D01*
X52697982Y-45269418D01*
X52697981Y-45269417D01*
X52587551Y-45187915D01*
X52458003Y-45142584D01*
X52458005Y-45142584D01*
X52447750Y-45141622D01*
X52427246Y-45139700D01*
X52017554Y-45139700D01*
X51997050Y-45141622D01*
X51986795Y-45142584D01*
X51857248Y-45187915D01*
X51746818Y-45269417D01*
X51746817Y-45269418D01*
X51665315Y-45379848D01*
X51619983Y-45509397D01*
X51618878Y-45514462D01*
X51587492Y-45568133D01*
X51530553Y-45593106D01*
X51520594Y-45593600D01*
X51169058Y-45593600D01*
X51109927Y-45574387D01*
X51073382Y-45524087D01*
X51069175Y-45504992D01*
X51066375Y-45481675D01*
X51061825Y-45443776D01*
X51007085Y-45304967D01*
X50916926Y-45186074D01*
X50916925Y-45186073D01*
X50916923Y-45186071D01*
X50916245Y-45185557D01*
X50915870Y-45185018D01*
X50912060Y-45181208D01*
X50912743Y-45180524D01*
X50880739Y-45134518D01*
X50882014Y-45072357D01*
X50919583Y-45022817D01*
X50977033Y-45004800D01*
X51064470Y-45004800D01*
X51064476Y-45004800D01*
X51153711Y-44994084D01*
X51295717Y-44938084D01*
X51417348Y-44845848D01*
X51509584Y-44724217D01*
X51565584Y-44582211D01*
X51576300Y-44492976D01*
X51576300Y-44129500D01*
X51581224Y-44114345D01*
X51581224Y-44098413D01*
X51590589Y-44085522D01*
X51595513Y-44070369D01*
X51608403Y-44061003D01*
X51617769Y-44048113D01*
X51632922Y-44043189D01*
X51645813Y-44033824D01*
X51676900Y-44028900D01*
X51722278Y-44028900D01*
X51781409Y-44048113D01*
X51814721Y-44093963D01*
X51815137Y-44093752D01*
X51816473Y-44096375D01*
X51817954Y-44098413D01*
X51817955Y-44098414D01*
X51818733Y-44100811D01*
X51877015Y-44215195D01*
X51877016Y-44215196D01*
X51877018Y-44215199D01*
X51967801Y-44305982D01*
X51967803Y-44305983D01*
X51967804Y-44305984D01*
X52070077Y-44358094D01*
X52082194Y-44364268D01*
X52177103Y-44379300D01*
X52440896Y-44379299D01*
X52535806Y-44364268D01*
X52650199Y-44305982D01*
X52740982Y-44215199D01*
X52799268Y-44100806D01*
X52814300Y-44005897D01*
X52814299Y-43492104D01*
X52799268Y-43397194D01*
X52784732Y-43368666D01*
X52740984Y-43282804D01*
X52740983Y-43282803D01*
X52740982Y-43282801D01*
X52650199Y-43192018D01*
X52650196Y-43192016D01*
X52650195Y-43192015D01*
X52650196Y-43192015D01*
X52535809Y-43133733D01*
X52535803Y-43133731D01*
X52440901Y-43118700D01*
X52177104Y-43118700D01*
X52107647Y-43129700D01*
X52082194Y-43133732D01*
X52082192Y-43133732D01*
X52082190Y-43133733D01*
X51967804Y-43192015D01*
X51877015Y-43282804D01*
X51818733Y-43397188D01*
X51817955Y-43399586D01*
X51816473Y-43401625D01*
X51815137Y-43404248D01*
X51814721Y-43404036D01*
X51781411Y-43449886D01*
X51781409Y-43449886D01*
X51781409Y-43449887D01*
X51761130Y-43456476D01*
X51722280Y-43469100D01*
X51536283Y-43469100D01*
X51477152Y-43449887D01*
X51456124Y-43429286D01*
X51435148Y-43401625D01*
X51417348Y-43378152D01*
X51295717Y-43285916D01*
X51295716Y-43285915D01*
X51295714Y-43285914D01*
X51295711Y-43285913D01*
X51153714Y-43229917D01*
X51153712Y-43229916D01*
X51153711Y-43229916D01*
X51153709Y-43229915D01*
X51153706Y-43229915D01*
X51064489Y-43219201D01*
X51064480Y-43219200D01*
X51064476Y-43219200D01*
X50027524Y-43219200D01*
X50027519Y-43219200D01*
X50027510Y-43219201D01*
X49938293Y-43229915D01*
X49938285Y-43229917D01*
X49796288Y-43285913D01*
X49796285Y-43285914D01*
X49674652Y-43378152D01*
X49582414Y-43499785D01*
X49582413Y-43499788D01*
X49526417Y-43641785D01*
X49526415Y-43641793D01*
X49515701Y-43731010D01*
X49515700Y-43731030D01*
X49515700Y-44492969D01*
X49515701Y-44492989D01*
X49526415Y-44582206D01*
X49526417Y-44582214D01*
X49582413Y-44724211D01*
X49582414Y-44724214D01*
X49582415Y-44724216D01*
X49582416Y-44724217D01*
X49674652Y-44845848D01*
X49789486Y-44932930D01*
X49824993Y-44983967D01*
X49823719Y-45046129D01*
X49789486Y-45093247D01*
X49785968Y-45095914D01*
X49785967Y-45095915D01*
X49703170Y-45158702D01*
X49667074Y-45186074D01*
X49576915Y-45304967D01*
X49522174Y-45443776D01*
X49511701Y-45530991D01*
X49511700Y-45531011D01*
X49511700Y-46215986D01*
X49511701Y-46215994D01*
X49522174Y-46303221D01*
X49522174Y-46303223D01*
X49522175Y-46303224D01*
X49576915Y-46442033D01*
X49667074Y-46560926D01*
X49785967Y-46651085D01*
X49924776Y-46705825D01*
X50012005Y-46716300D01*
X50571994Y-46716299D01*
X50659224Y-46705825D01*
X50798033Y-46651085D01*
X50916926Y-46560926D01*
X51007085Y-46442033D01*
X51061825Y-46303224D01*
X51066200Y-46266794D01*
X51069177Y-46242005D01*
X51095303Y-46185586D01*
X51149602Y-46155300D01*
X51169059Y-46153400D01*
X51516500Y-46153400D01*
X51575631Y-46172613D01*
X51612176Y-46222913D01*
X51617100Y-46254000D01*
X51617100Y-47299846D01*
X51617772Y-47307012D01*
X51619984Y-47330604D01*
X51665314Y-47460150D01*
X51665315Y-47460151D01*
X51746818Y-47570582D01*
X51746819Y-47570582D01*
X51746819Y-47570583D01*
X51774638Y-47591114D01*
X51783694Y-47603776D01*
X51796287Y-47612926D01*
X51801323Y-47628427D01*
X51810806Y-47641686D01*
X51815500Y-47672057D01*
X51815500Y-47806306D01*
X51796287Y-47865437D01*
X51786035Y-47877441D01*
X50471240Y-49192235D01*
X50415842Y-49220461D01*
X50400105Y-49221700D01*
X50012009Y-49221700D01*
X49924778Y-49232174D01*
X49785967Y-49286915D01*
X49667074Y-49377074D01*
X49576915Y-49495967D01*
X49522174Y-49634776D01*
X49511701Y-49721991D01*
X49511700Y-49722011D01*
X49511700Y-50306986D01*
X49511701Y-50306994D01*
X49522174Y-50394221D01*
X49522174Y-50394223D01*
X49522175Y-50394224D01*
X49576915Y-50533033D01*
X49667074Y-50651926D01*
X49785967Y-50742085D01*
X49924776Y-50796825D01*
X50012005Y-50807300D01*
X50571994Y-50807299D01*
X50659224Y-50796825D01*
X50798033Y-50742085D01*
X50916926Y-50651926D01*
X51007085Y-50533033D01*
X51061825Y-50394224D01*
X51072300Y-50306995D01*
X51072299Y-49722006D01*
X51072298Y-49722002D01*
X51072119Y-49719001D01*
X51073650Y-49718909D01*
X51084593Y-49663344D01*
X51101321Y-49641200D01*
X52502276Y-48240247D01*
X52552502Y-48153253D01*
X52560417Y-48123713D01*
X52578499Y-48056230D01*
X52578500Y-48056223D01*
X52578500Y-47709549D01*
X52597713Y-47650418D01*
X52619358Y-47628609D01*
X52697982Y-47570582D01*
X52776458Y-47464251D01*
X52827030Y-47428085D01*
X52889202Y-47428550D01*
X52938341Y-47464251D01*
X53016818Y-47570582D01*
X53127249Y-47652085D01*
X53256795Y-47697415D01*
X53256798Y-47697416D01*
X53287554Y-47700300D01*
X53432034Y-47700300D01*
X53491165Y-47719513D01*
X53503169Y-47729765D01*
X53703882Y-47930477D01*
X53846627Y-48073222D01*
X53895952Y-48093652D01*
X53930830Y-48108100D01*
X53930831Y-48108100D01*
X53930832Y-48108100D01*
X61053033Y-48108100D01*
X61112164Y-48127313D01*
X61148709Y-48177613D01*
X61148709Y-48239787D01*
X61124168Y-48279835D01*
X60132568Y-49271435D01*
X60077170Y-49299661D01*
X60061433Y-49300900D01*
X59781094Y-49300900D01*
X59721963Y-49281687D01*
X59685418Y-49231387D01*
X59685418Y-49169213D01*
X59693970Y-49150003D01*
X59715116Y-49113378D01*
X59751500Y-48977589D01*
X59751500Y-48837011D01*
X59751499Y-48837009D01*
X59751499Y-48837005D01*
X59715117Y-48701225D01*
X59715117Y-48701224D01*
X59707721Y-48688414D01*
X59644826Y-48579478D01*
X59545422Y-48480074D01*
X59423675Y-48409782D01*
X59287894Y-48373400D01*
X59287889Y-48373400D01*
X59147311Y-48373400D01*
X59147305Y-48373400D01*
X59011525Y-48409782D01*
X59011524Y-48409782D01*
X58889777Y-48480074D01*
X58790374Y-48579478D01*
X58790372Y-48579479D01*
X58762417Y-48627900D01*
X58716212Y-48669503D01*
X58675295Y-48678200D01*
X53028126Y-48678200D01*
X53003467Y-48688413D01*
X53003468Y-48688414D01*
X52943924Y-48713078D01*
X52028177Y-49628825D01*
X52008325Y-49676752D01*
X52008326Y-49676753D01*
X51993300Y-49713029D01*
X51993300Y-50018929D01*
X51974087Y-50078060D01*
X51925926Y-50113884D01*
X51857248Y-50137915D01*
X51746818Y-50219417D01*
X51746817Y-50219418D01*
X51665315Y-50329848D01*
X51619984Y-50459395D01*
X51619984Y-50459398D01*
X51617100Y-50490154D01*
X51617100Y-50490160D01*
X51617100Y-51509800D01*
X51597887Y-51568931D01*
X51547587Y-51605476D01*
X51516500Y-51610400D01*
X51169154Y-51610400D01*
X51110023Y-51591187D01*
X51073478Y-51540887D01*
X51069271Y-51521792D01*
X51068957Y-51519178D01*
X51061825Y-51459776D01*
X51007085Y-51320967D01*
X50916926Y-51202074D01*
X50798033Y-51111915D01*
X50695935Y-51071652D01*
X50659223Y-51057174D01*
X50572008Y-51046701D01*
X50571999Y-51046700D01*
X50571995Y-51046700D01*
X50571988Y-51046700D01*
X50012013Y-51046700D01*
X50012005Y-51046701D01*
X49924778Y-51057174D01*
X49785967Y-51111915D01*
X49667074Y-51202074D01*
X49576915Y-51320967D01*
X49522174Y-51459776D01*
X49511701Y-51546991D01*
X49511700Y-51547011D01*
X49511700Y-52131986D01*
X49511701Y-52131994D01*
X49522174Y-52219221D01*
X49522174Y-52219223D01*
X49522175Y-52219224D01*
X49576915Y-52358033D01*
X49667074Y-52476926D01*
X49785967Y-52567085D01*
X49924776Y-52621825D01*
X50012005Y-52632300D01*
X50571994Y-52632299D01*
X50659224Y-52621825D01*
X50798033Y-52567085D01*
X50916926Y-52476926D01*
X51007085Y-52358033D01*
X51061825Y-52219224D01*
X51069273Y-52157205D01*
X51095399Y-52100786D01*
X51149698Y-52070500D01*
X51169155Y-52068600D01*
X51516500Y-52068600D01*
X51575631Y-52087813D01*
X51612176Y-52138113D01*
X51617100Y-52169200D01*
X51617100Y-52249846D01*
X51617918Y-52258568D01*
X51619984Y-52280604D01*
X51654257Y-52378550D01*
X51665315Y-52410151D01*
X51746818Y-52520582D01*
X51857249Y-52602085D01*
X51986795Y-52647415D01*
X51986798Y-52647416D01*
X52017554Y-52650300D01*
X52017560Y-52650300D01*
X52427240Y-52650300D01*
X52427246Y-52650300D01*
X52458002Y-52647416D01*
X52587551Y-52602085D01*
X52697982Y-52520582D01*
X52776458Y-52414251D01*
X52827030Y-52378085D01*
X52889202Y-52378550D01*
X52938341Y-52414251D01*
X53016818Y-52520582D01*
X53127249Y-52602085D01*
X53256795Y-52647415D01*
X53256798Y-52647416D01*
X53287554Y-52650300D01*
X53432034Y-52650300D01*
X53491165Y-52669513D01*
X53503169Y-52679765D01*
X53690879Y-52867474D01*
X53785180Y-52961775D01*
X53849626Y-53026221D01*
X53933830Y-53061100D01*
X53933831Y-53061100D01*
X56433572Y-53061100D01*
X56440131Y-53058382D01*
X56458226Y-53050886D01*
X56458232Y-53050886D01*
X56458232Y-53050884D01*
X56458233Y-53050884D01*
X56517775Y-53026222D01*
X57090221Y-52453775D01*
X57091034Y-52451810D01*
X57092186Y-52449032D01*
X57092187Y-52449027D01*
X57125100Y-52369571D01*
X57125100Y-50943918D01*
X57144313Y-50884787D01*
X57194613Y-50848242D01*
X57256787Y-50848242D01*
X57296835Y-50872783D01*
X57385978Y-50961926D01*
X57507722Y-51032216D01*
X57507724Y-51032217D01*
X57643505Y-51068599D01*
X57643509Y-51068599D01*
X57643511Y-51068600D01*
X57643513Y-51068600D01*
X57784087Y-51068600D01*
X57784089Y-51068600D01*
X57784091Y-51068599D01*
X57784094Y-51068599D01*
X57919874Y-51032217D01*
X57919875Y-51032217D01*
X57919875Y-51032216D01*
X57919878Y-51032216D01*
X58041622Y-50961926D01*
X58141026Y-50862522D01*
X58168983Y-50814100D01*
X58215188Y-50772497D01*
X58256105Y-50763800D01*
X61898772Y-50763800D01*
X61905331Y-50761082D01*
X61923426Y-50753586D01*
X61923432Y-50753586D01*
X61923432Y-50753584D01*
X61923433Y-50753584D01*
X61982975Y-50728922D01*
X67230222Y-45481675D01*
X67260205Y-45409289D01*
X67265100Y-45397471D01*
X67265100Y-44795335D01*
X67284313Y-44736204D01*
X67334613Y-44699659D01*
X67380200Y-44695786D01*
X67424905Y-44702300D01*
X67647094Y-44702299D01*
X67647095Y-44702299D01*
X67647095Y-44702298D01*
X67721014Y-44691530D01*
X67835039Y-44635787D01*
X67924787Y-44546039D01*
X67945622Y-44503419D01*
X67988852Y-44458735D01*
X68050092Y-44447995D01*
X68105949Y-44475301D01*
X68126378Y-44503420D01*
X68147211Y-44546036D01*
X68147212Y-44546037D01*
X68147213Y-44546039D01*
X68236961Y-44635787D01*
X68236962Y-44635787D01*
X68236963Y-44635788D01*
X68350986Y-44691530D01*
X68350984Y-44691530D01*
X68372524Y-44694668D01*
X68424905Y-44702300D01*
X68531210Y-44702299D01*
X68590341Y-44721511D01*
X68602346Y-44731764D01*
X68974265Y-45103683D01*
X69002491Y-45159081D01*
X68996717Y-45211720D01*
X68991177Y-45225769D01*
X68991174Y-45225780D01*
X68980701Y-45312991D01*
X68980700Y-45313011D01*
X68980700Y-45872986D01*
X68980701Y-45872994D01*
X68991174Y-45960221D01*
X68991174Y-45960223D01*
X68991175Y-45960224D01*
X69045915Y-46099033D01*
X69136074Y-46217926D01*
X69254967Y-46308085D01*
X69393776Y-46362825D01*
X69481005Y-46373300D01*
X70165994Y-46373299D01*
X70253224Y-46362825D01*
X70392033Y-46308085D01*
X70510926Y-46217926D01*
X70601085Y-46099033D01*
X70625077Y-46038191D01*
X70664644Y-45990234D01*
X70718663Y-45974500D01*
X73389507Y-45974500D01*
X73448638Y-45993713D01*
X73460642Y-46003965D01*
X74322835Y-46866158D01*
X74351061Y-46921556D01*
X74352300Y-46937293D01*
X74352300Y-46960294D01*
X74388682Y-47096074D01*
X74388682Y-47096075D01*
X74394616Y-47106352D01*
X74458974Y-47217822D01*
X74558378Y-47317226D01*
X74640301Y-47364525D01*
X74680124Y-47387517D01*
X74815905Y-47423899D01*
X74815909Y-47423899D01*
X74815911Y-47423900D01*
X74815913Y-47423900D01*
X74956487Y-47423900D01*
X74956489Y-47423900D01*
X74956491Y-47423899D01*
X74956494Y-47423899D01*
X75092274Y-47387517D01*
X75092275Y-47387517D01*
X75092275Y-47387516D01*
X75092278Y-47387516D01*
X75214022Y-47317226D01*
X75313426Y-47217822D01*
X75383716Y-47096078D01*
X75405521Y-47014700D01*
X75420099Y-46960294D01*
X75420100Y-46960287D01*
X75420100Y-46819712D01*
X75420099Y-46819705D01*
X75383717Y-46683925D01*
X75383717Y-46683924D01*
X75364757Y-46651085D01*
X75313426Y-46562178D01*
X75214022Y-46462774D01*
X75109756Y-46402575D01*
X75092275Y-46392482D01*
X74956494Y-46356100D01*
X74956489Y-46356100D01*
X74933493Y-46356100D01*
X74874362Y-46336887D01*
X74862358Y-46326635D01*
X74348359Y-45812636D01*
X73823447Y-45287724D01*
X73801791Y-45275221D01*
X73801790Y-45275220D01*
X73736458Y-45237501D01*
X73736447Y-45237496D01*
X73639429Y-45211500D01*
X73639425Y-45211500D01*
X70718663Y-45211500D01*
X70659532Y-45192287D01*
X70625077Y-45147807D01*
X70601085Y-45086967D01*
X70510926Y-44968074D01*
X70392033Y-44877915D01*
X70310718Y-44845848D01*
X70253223Y-44823174D01*
X70166008Y-44812701D01*
X70165999Y-44812700D01*
X70165995Y-44812700D01*
X70165988Y-44812700D01*
X69481013Y-44812700D01*
X69481002Y-44812701D01*
X69463631Y-44814787D01*
X69460017Y-44815220D01*
X69399018Y-44803193D01*
X69376891Y-44786473D01*
X69020764Y-44430346D01*
X68992538Y-44374948D01*
X68991299Y-44359211D01*
X68991299Y-44358101D01*
X68991300Y-44358095D01*
X68991299Y-43045799D01*
X69010512Y-42986669D01*
X69060812Y-42950124D01*
X69091899Y-42945200D01*
X72538072Y-42945200D01*
X72543141Y-42943099D01*
X72562733Y-42934984D01*
X72622275Y-42910322D01*
X72629421Y-42903175D01*
X72645117Y-42895723D01*
X72659544Y-42893849D01*
X72672502Y-42887243D01*
X72699540Y-42888656D01*
X72706774Y-42887717D01*
X72709446Y-42889174D01*
X72714299Y-42889427D01*
X72768311Y-42903900D01*
X72768313Y-42903900D01*
X72908887Y-42903900D01*
X72908889Y-42903900D01*
X72908891Y-42903899D01*
X72908894Y-42903899D01*
X73044674Y-42867517D01*
X73044675Y-42867517D01*
X73044675Y-42867516D01*
X73044678Y-42867516D01*
X73166422Y-42797226D01*
X73265826Y-42697822D01*
X73336116Y-42576078D01*
X73352258Y-42515835D01*
X73372499Y-42440294D01*
X73372500Y-42440287D01*
X73372500Y-42299712D01*
X73372499Y-42299705D01*
X73336117Y-42163925D01*
X73336117Y-42163924D01*
X73330546Y-42154275D01*
X73265826Y-42042178D01*
X73166422Y-41942774D01*
X73115563Y-41913410D01*
X73044675Y-41872482D01*
X72908894Y-41836100D01*
X72908889Y-41836100D01*
X72768311Y-41836100D01*
X72768305Y-41836100D01*
X72632525Y-41872482D01*
X72632524Y-41872482D01*
X72510777Y-41942774D01*
X72411374Y-42042177D01*
X72341082Y-42163924D01*
X72341082Y-42163925D01*
X72304700Y-42299705D01*
X72304700Y-42386400D01*
X72285487Y-42445531D01*
X72235187Y-42482076D01*
X72204100Y-42487000D01*
X71088838Y-42487000D01*
X71029707Y-42467787D01*
X70993162Y-42417487D01*
X70989289Y-42371894D01*
X70991300Y-42358095D01*
X70991299Y-42135906D01*
X70988016Y-42113374D01*
X70981646Y-42069647D01*
X70980530Y-42061986D01*
X70970360Y-42041183D01*
X70961650Y-41979621D01*
X70970361Y-41952814D01*
X70974632Y-41944078D01*
X70980530Y-41932014D01*
X70991300Y-41858095D01*
X70991299Y-41635906D01*
X70990239Y-41628633D01*
X70980530Y-41561988D01*
X70980529Y-41561984D01*
X70970360Y-41541183D01*
X70961650Y-41479621D01*
X70970361Y-41452814D01*
X70980530Y-41432014D01*
X70991300Y-41358095D01*
X70991299Y-41196777D01*
X71010512Y-41137646D01*
X71060811Y-41101101D01*
X71117935Y-41099605D01*
X71134711Y-41104100D01*
X71134713Y-41104100D01*
X71275287Y-41104100D01*
X71275289Y-41104100D01*
X71275291Y-41104099D01*
X71275294Y-41104099D01*
X71411074Y-41067717D01*
X71411075Y-41067717D01*
X71411075Y-41067716D01*
X71411078Y-41067716D01*
X71532822Y-40997426D01*
X71632226Y-40898022D01*
X71702516Y-40776278D01*
X71738900Y-40640489D01*
X71738900Y-40499911D01*
X71738899Y-40499909D01*
X71738899Y-40499905D01*
X71702517Y-40364125D01*
X71702517Y-40364124D01*
X71675280Y-40316949D01*
X71632226Y-40242378D01*
X71532822Y-40142974D01*
X71512904Y-40131474D01*
X71411075Y-40072682D01*
X71404991Y-40070163D01*
X71405444Y-40069068D01*
X71367159Y-40046963D01*
X71020542Y-39700345D01*
X70993723Y-39652132D01*
X70991299Y-39641773D01*
X70991299Y-39635906D01*
X70980530Y-39561986D01*
X70965371Y-39530979D01*
X70962784Y-39519921D01*
X70964491Y-39499706D01*
X70961650Y-39479621D01*
X70967783Y-39460746D01*
X70968018Y-39457968D01*
X70969088Y-39456728D01*
X70970361Y-39452814D01*
X70980530Y-39432014D01*
X70991300Y-39358095D01*
X70991299Y-39135906D01*
X70986168Y-39100685D01*
X70984787Y-39091202D01*
X70995275Y-39029919D01*
X71039781Y-38986504D01*
X71061271Y-38978780D01*
X71072649Y-38976100D01*
X71100321Y-38976100D01*
X71100322Y-38976100D01*
X71129292Y-38964100D01*
X71136805Y-38960987D01*
X71136809Y-38960987D01*
X71193680Y-38937431D01*
X71195063Y-38940771D01*
X71232885Y-38929300D01*
X72066233Y-38929300D01*
X72125364Y-38948513D01*
X72137368Y-38958765D01*
X76695933Y-43517330D01*
X76724159Y-43572728D01*
X76721971Y-43614500D01*
X76707500Y-43668509D01*
X76707500Y-43809094D01*
X76743882Y-43944874D01*
X76743882Y-43944875D01*
X76743884Y-43944878D01*
X76814174Y-44066622D01*
X76913578Y-44166026D01*
X77035322Y-44236316D01*
X77035324Y-44236317D01*
X77171105Y-44272699D01*
X77171109Y-44272699D01*
X77171111Y-44272700D01*
X77171113Y-44272700D01*
X77311687Y-44272700D01*
X77311689Y-44272700D01*
X77311691Y-44272699D01*
X77311694Y-44272699D01*
X77447474Y-44236317D01*
X77447475Y-44236317D01*
X77447475Y-44236316D01*
X77447478Y-44236316D01*
X77569222Y-44166026D01*
X77668626Y-44066622D01*
X77738916Y-43944878D01*
X77767832Y-43836960D01*
X77775299Y-43809094D01*
X77775300Y-43809087D01*
X77775300Y-43668512D01*
X77775299Y-43668508D01*
X77768141Y-43641793D01*
X77760828Y-43614500D01*
X77764081Y-43552414D01*
X77786863Y-43517332D01*
X78151066Y-43153129D01*
X78206462Y-43124905D01*
X78267870Y-43134631D01*
X78293334Y-43153131D01*
X79314235Y-44174031D01*
X79342461Y-44229429D01*
X79343700Y-44245166D01*
X79343700Y-44739646D01*
X79345718Y-44761175D01*
X79346584Y-44770405D01*
X79346585Y-44770409D01*
X79352577Y-44787533D01*
X79353971Y-44849691D01*
X79318563Y-44900798D01*
X79307928Y-44907876D01*
X79301179Y-44911772D01*
X79301178Y-44911774D01*
X79201774Y-45011177D01*
X79131482Y-45132924D01*
X79131482Y-45132925D01*
X79095100Y-45268705D01*
X79095100Y-45409294D01*
X79131482Y-45545074D01*
X79131482Y-45545075D01*
X79201774Y-45666822D01*
X79260681Y-45725729D01*
X79288907Y-45781127D01*
X79279181Y-45842535D01*
X79235217Y-45886499D01*
X79215584Y-45894036D01*
X79192165Y-45900311D01*
X79192162Y-45900312D01*
X79072337Y-45969493D01*
X79072336Y-45969494D01*
X79072335Y-45969495D01*
X78974495Y-46067335D01*
X78974494Y-46067336D01*
X78974493Y-46067337D01*
X78905312Y-46187162D01*
X78905310Y-46187167D01*
X78869500Y-46320811D01*
X78869500Y-46459188D01*
X78905310Y-46592832D01*
X78905312Y-46592837D01*
X78970546Y-46705825D01*
X78974495Y-46712665D01*
X79072335Y-46810505D01*
X79100868Y-46826978D01*
X79142470Y-46873183D01*
X79148968Y-46935017D01*
X79117881Y-46988861D01*
X79061082Y-47014149D01*
X79050567Y-47014700D01*
X78265685Y-47014700D01*
X78226789Y-47022436D01*
X78110100Y-47045647D01*
X77963550Y-47106350D01*
X77963542Y-47106354D01*
X77831652Y-47194480D01*
X77831651Y-47194482D01*
X77719482Y-47306651D01*
X77719480Y-47306652D01*
X77631354Y-47438542D01*
X77631350Y-47438550D01*
X77570647Y-47585100D01*
X77539700Y-47740685D01*
X77539700Y-47899313D01*
X77545898Y-47930477D01*
X77538588Y-47992220D01*
X77496383Y-48037874D01*
X77447230Y-48050700D01*
X76921013Y-48050700D01*
X76921005Y-48050701D01*
X76833778Y-48061174D01*
X76694967Y-48115915D01*
X76576074Y-48206074D01*
X76485915Y-48324967D01*
X76431174Y-48463776D01*
X76420701Y-48550991D01*
X76420700Y-48551011D01*
X76420700Y-49110986D01*
X76420701Y-49110994D01*
X76431174Y-49198221D01*
X76431174Y-49198223D01*
X76431175Y-49198224D01*
X76485915Y-49337033D01*
X76576074Y-49455926D01*
X76694967Y-49546085D01*
X76694970Y-49546086D01*
X76700965Y-49549457D01*
X76700058Y-49551069D01*
X76741106Y-49584928D01*
X76756653Y-49645127D01*
X76733848Y-49702968D01*
X76717031Y-49719111D01*
X76702573Y-49730074D01*
X76612415Y-49848967D01*
X76557674Y-49987776D01*
X76547201Y-50074991D01*
X76547200Y-50075011D01*
X76547200Y-50634986D01*
X76547201Y-50634994D01*
X76557674Y-50722221D01*
X76557674Y-50722223D01*
X76557675Y-50722224D01*
X76612415Y-50861033D01*
X76702574Y-50979926D01*
X76821467Y-51070085D01*
X76960276Y-51124825D01*
X77047505Y-51135300D01*
X77632494Y-51135299D01*
X77719724Y-51124825D01*
X77858533Y-51070085D01*
X77977426Y-50979926D01*
X78067585Y-50861033D01*
X78122325Y-50722224D01*
X78132800Y-50634995D01*
X78132799Y-50424492D01*
X78152012Y-50365363D01*
X78202311Y-50328818D01*
X78264486Y-50328818D01*
X78283700Y-50337372D01*
X78285176Y-50338224D01*
X78285178Y-50338226D01*
X78382168Y-50394224D01*
X78406924Y-50408517D01*
X78542705Y-50444899D01*
X78542709Y-50444899D01*
X78542711Y-50444900D01*
X78542713Y-50444900D01*
X78683289Y-50444900D01*
X78706964Y-50438556D01*
X78769053Y-50441809D01*
X78813160Y-50474940D01*
X78875652Y-50557348D01*
X78997283Y-50649584D01*
X78997284Y-50649584D01*
X78997285Y-50649585D01*
X78997288Y-50649586D01*
X79139289Y-50705584D01*
X79228524Y-50716300D01*
X79228530Y-50716300D01*
X79815470Y-50716300D01*
X79815476Y-50716300D01*
X79904711Y-50705584D01*
X80046717Y-50649584D01*
X80168348Y-50557348D01*
X80260584Y-50435717D01*
X80316584Y-50293711D01*
X80327300Y-50204476D01*
X80327300Y-49617524D01*
X80316584Y-49528289D01*
X80260584Y-49386283D01*
X80168348Y-49264652D01*
X80046717Y-49172416D01*
X80046716Y-49172415D01*
X80046714Y-49172414D01*
X80046711Y-49172413D01*
X79904714Y-49116417D01*
X79904712Y-49116416D01*
X79904711Y-49116416D01*
X79904709Y-49116415D01*
X79904706Y-49116415D01*
X79815489Y-49105701D01*
X79815480Y-49105700D01*
X79815476Y-49105700D01*
X79228524Y-49105700D01*
X79228519Y-49105700D01*
X79228510Y-49105701D01*
X79139293Y-49116415D01*
X79139285Y-49116417D01*
X78997288Y-49172413D01*
X78997285Y-49172414D01*
X78875651Y-49264652D01*
X78813160Y-49347058D01*
X78762121Y-49382564D01*
X78706966Y-49383444D01*
X78683289Y-49377100D01*
X78542711Y-49377100D01*
X78542705Y-49377100D01*
X78406925Y-49413482D01*
X78406924Y-49413482D01*
X78285177Y-49483774D01*
X78185774Y-49583177D01*
X78120373Y-49696454D01*
X78104007Y-49711188D01*
X78090703Y-49728734D01*
X78081394Y-49731548D01*
X78074168Y-49738056D01*
X78052269Y-49740357D01*
X78031191Y-49746732D01*
X78022004Y-49743537D01*
X78012334Y-49744554D01*
X77972465Y-49726312D01*
X77907110Y-49676752D01*
X77889120Y-49663109D01*
X77853614Y-49612073D01*
X77854887Y-49549912D01*
X77889122Y-49502793D01*
X77950926Y-49455926D01*
X78041085Y-49337033D01*
X78095825Y-49198224D01*
X78106300Y-49110995D01*
X78106299Y-48716176D01*
X78125512Y-48657046D01*
X78175812Y-48620501D01*
X78226522Y-48617510D01*
X78265685Y-48625300D01*
X78265687Y-48625300D01*
X79524314Y-48625300D01*
X79524315Y-48625300D01*
X79679897Y-48594353D01*
X79826453Y-48533648D01*
X79958349Y-48445518D01*
X80070518Y-48333349D01*
X80158648Y-48201453D01*
X80219353Y-48054897D01*
X80250300Y-47899315D01*
X80250300Y-47740685D01*
X80219353Y-47585103D01*
X80158648Y-47438547D01*
X80151968Y-47428550D01*
X80070519Y-47306652D01*
X79958347Y-47194480D01*
X79826457Y-47106354D01*
X79826449Y-47106350D01*
X79679898Y-47045646D01*
X79667218Y-47043124D01*
X79612973Y-47012742D01*
X79586946Y-46956278D01*
X79599078Y-46895299D01*
X79636546Y-46857338D01*
X79717665Y-46810505D01*
X79815505Y-46712665D01*
X79884688Y-46592836D01*
X79893238Y-46560926D01*
X79919584Y-46462603D01*
X79953446Y-46410459D01*
X80011491Y-46388178D01*
X80071546Y-46404270D01*
X80096913Y-46427852D01*
X80111074Y-46446526D01*
X80229967Y-46536685D01*
X80368776Y-46591425D01*
X80456005Y-46601900D01*
X81040994Y-46601899D01*
X81128224Y-46591425D01*
X81267033Y-46536685D01*
X81385926Y-46446526D01*
X81476085Y-46327633D01*
X81530825Y-46188824D01*
X81541300Y-46101595D01*
X81541299Y-45541606D01*
X81530825Y-45454376D01*
X81476085Y-45315567D01*
X81444102Y-45273391D01*
X81423683Y-45214667D01*
X81441681Y-45155155D01*
X81491222Y-45117587D01*
X81553383Y-45116314D01*
X81557489Y-45117653D01*
X81613391Y-45137214D01*
X81613394Y-45137215D01*
X81613395Y-45137215D01*
X81613398Y-45137216D01*
X81644154Y-45140100D01*
X81644160Y-45140100D01*
X82053840Y-45140100D01*
X82053846Y-45140100D01*
X82084602Y-45137216D01*
X82214151Y-45091885D01*
X82324582Y-45010382D01*
X82400764Y-44907161D01*
X82451336Y-44870994D01*
X82481706Y-44866300D01*
X83401107Y-44866300D01*
X83460238Y-44885513D01*
X83472242Y-44895765D01*
X84118608Y-45542131D01*
X84146834Y-45597529D01*
X84148073Y-45613266D01*
X84148073Y-47211336D01*
X84128860Y-47270467D01*
X84078560Y-47307012D01*
X84016386Y-47307012D01*
X83976338Y-47282471D01*
X83888347Y-47194480D01*
X83756457Y-47106354D01*
X83756449Y-47106350D01*
X83609899Y-47045647D01*
X83506175Y-47025015D01*
X83454315Y-47014700D01*
X82695685Y-47014700D01*
X82656789Y-47022436D01*
X82540100Y-47045647D01*
X82393550Y-47106350D01*
X82393542Y-47106354D01*
X82261652Y-47194480D01*
X82261651Y-47194482D01*
X82149482Y-47306651D01*
X82149480Y-47306652D01*
X82061354Y-47438542D01*
X82061350Y-47438550D01*
X82000647Y-47585100D01*
X81983351Y-47672057D01*
X81969700Y-47740685D01*
X81969700Y-47899315D01*
X81978766Y-47944895D01*
X82000647Y-48054899D01*
X82061350Y-48201449D01*
X82061354Y-48201457D01*
X82149480Y-48333347D01*
X82261652Y-48445519D01*
X82393542Y-48533645D01*
X82393544Y-48533646D01*
X82393547Y-48533648D01*
X82466825Y-48564000D01*
X82540100Y-48594352D01*
X82540101Y-48594352D01*
X82540103Y-48594353D01*
X82695685Y-48625300D01*
X83180307Y-48625300D01*
X83239438Y-48644513D01*
X83275983Y-48694813D01*
X83275983Y-48756987D01*
X83251442Y-48797035D01*
X82796048Y-49252427D01*
X82740650Y-49280653D01*
X82679241Y-49270927D01*
X82664127Y-49261451D01*
X82580750Y-49198224D01*
X82546717Y-49172416D01*
X82546716Y-49172415D01*
X82546714Y-49172414D01*
X82546711Y-49172413D01*
X82404714Y-49116417D01*
X82404712Y-49116416D01*
X82404711Y-49116416D01*
X82404709Y-49116415D01*
X82404706Y-49116415D01*
X82315489Y-49105701D01*
X82315480Y-49105700D01*
X82315476Y-49105700D01*
X81728524Y-49105700D01*
X81728519Y-49105700D01*
X81728510Y-49105701D01*
X81639293Y-49116415D01*
X81639285Y-49116417D01*
X81497288Y-49172413D01*
X81497285Y-49172414D01*
X81375652Y-49264652D01*
X81283414Y-49386285D01*
X81283413Y-49386288D01*
X81227417Y-49528285D01*
X81227415Y-49528293D01*
X81216701Y-49617510D01*
X81216700Y-49617530D01*
X81216700Y-50204469D01*
X81216701Y-50204489D01*
X81227415Y-50293706D01*
X81227417Y-50293714D01*
X81283413Y-50435711D01*
X81283417Y-50435719D01*
X81375650Y-50557346D01*
X81375654Y-50557350D01*
X81388184Y-50566851D01*
X81396709Y-50579105D01*
X81408787Y-50587880D01*
X81414020Y-50603986D01*
X81423692Y-50617888D01*
X81428000Y-50647011D01*
X81428000Y-50823521D01*
X81408787Y-50882652D01*
X81358487Y-50919197D01*
X81339398Y-50923402D01*
X81339367Y-50923406D01*
X81339287Y-50923416D01*
X81197288Y-50979413D01*
X81197285Y-50979414D01*
X81075652Y-51071652D01*
X80983414Y-51193285D01*
X80983413Y-51193288D01*
X80927417Y-51335285D01*
X80927415Y-51335293D01*
X80916701Y-51424510D01*
X80916700Y-51424530D01*
X80916700Y-52461469D01*
X80916701Y-52461489D01*
X80927415Y-52550706D01*
X80927417Y-52550714D01*
X80983413Y-52692711D01*
X80983414Y-52692714D01*
X80983415Y-52692716D01*
X80983416Y-52692717D01*
X81075652Y-52814348D01*
X81194855Y-52904743D01*
X81230361Y-52955779D01*
X81229087Y-53017940D01*
X81191520Y-53067481D01*
X81134068Y-53085500D01*
X80384771Y-53085500D01*
X80287753Y-53111496D01*
X80287746Y-53111499D01*
X80219138Y-53151109D01*
X80200754Y-53161724D01*
X80200753Y-53161725D01*
X80200752Y-53161726D01*
X80129724Y-53232752D01*
X80129725Y-53232753D01*
X80129723Y-53232755D01*
X79766134Y-53596343D01*
X79710736Y-53624569D01*
X79649327Y-53614843D01*
X79623864Y-53596343D01*
X79214646Y-53187124D01*
X79214643Y-53187122D01*
X79214642Y-53187121D01*
X79187353Y-53171367D01*
X79170653Y-53161725D01*
X79170650Y-53161723D01*
X79127654Y-53136899D01*
X79127649Y-53136897D01*
X79030628Y-53110900D01*
X79030624Y-53110900D01*
X78186263Y-53110900D01*
X78127132Y-53091687D01*
X78092677Y-53047207D01*
X78068685Y-52986367D01*
X78045489Y-52955779D01*
X77978526Y-52867474D01*
X77859633Y-52777315D01*
X77804892Y-52755727D01*
X77720823Y-52722574D01*
X77633608Y-52712101D01*
X77633599Y-52712100D01*
X77633595Y-52712100D01*
X77633588Y-52712100D01*
X77048613Y-52712100D01*
X77048605Y-52712101D01*
X76961378Y-52722574D01*
X76822567Y-52777315D01*
X76703674Y-52867474D01*
X76613515Y-52986367D01*
X76558774Y-53125176D01*
X76548301Y-53212391D01*
X76548300Y-53212411D01*
X76548300Y-53704006D01*
X76545791Y-53711727D01*
X76547061Y-53719745D01*
X76536366Y-53740734D01*
X76529087Y-53763137D01*
X76518834Y-53775142D01*
X76480633Y-53813342D01*
X76425235Y-53841568D01*
X76363826Y-53831841D01*
X76319863Y-53787876D01*
X76308899Y-53742209D01*
X76308899Y-53212406D01*
X76298425Y-53125176D01*
X76243685Y-52986367D01*
X76153526Y-52867474D01*
X76074422Y-52807488D01*
X76038916Y-52756451D01*
X76040190Y-52694290D01*
X76074422Y-52647173D01*
X76178926Y-52567926D01*
X76269085Y-52449033D01*
X76323825Y-52310224D01*
X76334300Y-52222995D01*
X76334299Y-51663006D01*
X76323825Y-51575776D01*
X76269085Y-51436967D01*
X76178926Y-51318074D01*
X76060033Y-51227915D01*
X75994506Y-51202074D01*
X75921223Y-51173174D01*
X75834008Y-51162701D01*
X75833999Y-51162700D01*
X75833995Y-51162700D01*
X75833988Y-51162700D01*
X75249013Y-51162700D01*
X75249005Y-51162701D01*
X75182954Y-51170631D01*
X75161785Y-51173174D01*
X75155372Y-51173944D01*
X75155125Y-51171894D01*
X75102355Y-51168372D01*
X75068611Y-51146114D01*
X71867392Y-47944895D01*
X71839166Y-47889497D01*
X71848892Y-47828089D01*
X71851407Y-47823457D01*
X71878414Y-47776682D01*
X71878417Y-47776675D01*
X71914799Y-47640894D01*
X71914800Y-47640887D01*
X71914800Y-47500312D01*
X71914799Y-47500305D01*
X71878417Y-47364525D01*
X71878417Y-47364524D01*
X71851109Y-47317226D01*
X71808126Y-47242778D01*
X71708722Y-47143374D01*
X71586975Y-47073082D01*
X71451194Y-47036700D01*
X71451189Y-47036700D01*
X71310611Y-47036700D01*
X71310605Y-47036700D01*
X71174825Y-47073082D01*
X71174824Y-47073082D01*
X71053077Y-47143374D01*
X70953674Y-47242777D01*
X70883382Y-47364524D01*
X70883382Y-47364525D01*
X70847000Y-47500305D01*
X70847000Y-47640894D01*
X70883382Y-47776674D01*
X70883382Y-47776675D01*
X70924549Y-47847977D01*
X70953674Y-47898422D01*
X71053078Y-47997826D01*
X71162800Y-48061175D01*
X71174824Y-48068117D01*
X71310605Y-48104499D01*
X71310609Y-48104499D01*
X71310611Y-48104500D01*
X71337333Y-48104500D01*
X71396464Y-48123713D01*
X71408468Y-48133965D01*
X74738283Y-51463780D01*
X74766509Y-51519178D01*
X74760738Y-51571811D01*
X74759176Y-51575771D01*
X74759174Y-51575780D01*
X74748701Y-51662991D01*
X74748700Y-51663011D01*
X74748700Y-52222986D01*
X74748701Y-52222994D01*
X74759174Y-52310221D01*
X74759174Y-52310223D01*
X74759175Y-52310224D01*
X74813915Y-52449033D01*
X74904074Y-52567926D01*
X74983176Y-52627911D01*
X75018683Y-52678948D01*
X75017410Y-52741109D01*
X74983176Y-52788228D01*
X74878674Y-52867474D01*
X74788515Y-52986367D01*
X74733774Y-53125176D01*
X74723301Y-53212391D01*
X74723300Y-53212411D01*
X74723300Y-53772386D01*
X74723301Y-53772394D01*
X74733774Y-53859621D01*
X74733774Y-53859623D01*
X74733775Y-53859624D01*
X74788515Y-53998433D01*
X74878674Y-54117326D01*
X74997567Y-54207485D01*
X75131332Y-54260235D01*
X75179291Y-54299801D01*
X75194835Y-54360001D01*
X75172026Y-54417840D01*
X75119576Y-54451226D01*
X75103822Y-54453981D01*
X75097400Y-54454583D01*
X75097396Y-54454584D01*
X74967848Y-54499915D01*
X74857418Y-54581417D01*
X74857417Y-54581418D01*
X74775915Y-54691848D01*
X74730584Y-54821395D01*
X74730584Y-54821398D01*
X74727700Y-54852154D01*
X74727700Y-55261846D01*
X74729943Y-55285767D01*
X74730584Y-55292604D01*
X74775915Y-55422151D01*
X74857418Y-55532582D01*
X74967849Y-55614085D01*
X75097395Y-55659415D01*
X75097398Y-55659416D01*
X75128154Y-55662300D01*
X75128160Y-55662300D01*
X76412840Y-55662300D01*
X76412846Y-55662300D01*
X76443602Y-55659416D01*
X76475658Y-55648198D01*
X76537815Y-55646803D01*
X76588923Y-55682209D01*
X76609460Y-55740893D01*
X76605631Y-55765138D01*
X76606891Y-55765413D01*
X76605584Y-55771394D01*
X76605584Y-55771398D01*
X76602700Y-55802154D01*
X76602700Y-56211846D01*
X76604718Y-56233375D01*
X76605584Y-56242605D01*
X76606891Y-56248587D01*
X76604110Y-56249194D01*
X76605217Y-56299836D01*
X76569780Y-56350922D01*
X76511082Y-56371422D01*
X76475659Y-56365801D01*
X76443603Y-56354584D01*
X76443605Y-56354584D01*
X76433350Y-56353622D01*
X76412846Y-56351700D01*
X75128154Y-56351700D01*
X75107650Y-56353622D01*
X75097395Y-56354584D01*
X74967848Y-56399915D01*
X74857418Y-56481417D01*
X74857417Y-56481418D01*
X74775915Y-56591848D01*
X74730584Y-56721395D01*
X74730584Y-56721398D01*
X74727700Y-56752154D01*
X74727700Y-57161846D01*
X74729473Y-57180752D01*
X74730584Y-57192604D01*
X74775915Y-57322151D01*
X74857418Y-57432582D01*
X74967849Y-57514085D01*
X75097395Y-57559415D01*
X75097398Y-57559416D01*
X75128154Y-57562300D01*
X75794607Y-57562300D01*
X75853738Y-57581513D01*
X75865742Y-57591765D01*
X76594392Y-58320414D01*
X76622618Y-58375812D01*
X76616844Y-58428452D01*
X76609416Y-58447289D01*
X76609415Y-58447289D01*
X76598701Y-58536510D01*
X76598700Y-58536530D01*
X76598700Y-59398265D01*
X76579487Y-59457396D01*
X76529187Y-59493941D01*
X76524137Y-59495437D01*
X76392225Y-59530782D01*
X76392224Y-59530782D01*
X76270477Y-59601074D01*
X76171074Y-59700477D01*
X76100784Y-59822221D01*
X76084894Y-59881522D01*
X76058857Y-59926618D01*
X75927922Y-60057553D01*
X75872524Y-60085779D01*
X75844794Y-60086301D01*
X75806477Y-60081700D01*
X75806476Y-60081700D01*
X75069524Y-60081700D01*
X75069519Y-60081700D01*
X75069510Y-60081701D01*
X74980293Y-60092415D01*
X74980285Y-60092417D01*
X74838288Y-60148413D01*
X74838285Y-60148414D01*
X74716652Y-60240652D01*
X74624414Y-60362285D01*
X74624413Y-60362288D01*
X74568417Y-60504285D01*
X74568415Y-60504293D01*
X74557701Y-60593510D01*
X74557700Y-60593530D01*
X74557700Y-61580469D01*
X74557701Y-61580489D01*
X74568415Y-61669706D01*
X74568417Y-61669714D01*
X74624413Y-61811711D01*
X74624414Y-61811714D01*
X74624415Y-61811716D01*
X74624416Y-61811717D01*
X74716652Y-61933348D01*
X74838283Y-62025584D01*
X74838284Y-62025584D01*
X74838285Y-62025585D01*
X74838288Y-62025586D01*
X74980289Y-62081584D01*
X75069524Y-62092300D01*
X75069530Y-62092300D01*
X75806470Y-62092300D01*
X75806476Y-62092300D01*
X75895711Y-62081584D01*
X76037717Y-62025584D01*
X76159348Y-61933348D01*
X76251584Y-61811717D01*
X76307584Y-61669711D01*
X76318300Y-61580476D01*
X76318300Y-60787892D01*
X76320808Y-60780171D01*
X76319539Y-60772155D01*
X76330233Y-60751166D01*
X76337513Y-60728761D01*
X76347760Y-60716762D01*
X76435965Y-60628556D01*
X76491363Y-60600331D01*
X76552771Y-60610057D01*
X76596735Y-60654021D01*
X76607700Y-60699692D01*
X76607700Y-61580469D01*
X76607701Y-61580489D01*
X76618415Y-61669706D01*
X76618417Y-61669714D01*
X76674413Y-61811711D01*
X76674414Y-61811714D01*
X76674415Y-61811716D01*
X76674416Y-61811717D01*
X76766652Y-61933348D01*
X76888283Y-62025584D01*
X76888284Y-62025584D01*
X76888285Y-62025585D01*
X76888288Y-62025586D01*
X77030289Y-62081584D01*
X77119524Y-62092300D01*
X77119530Y-62092300D01*
X77856470Y-62092300D01*
X77856476Y-62092300D01*
X77945711Y-62081584D01*
X78087717Y-62025584D01*
X78209348Y-61933348D01*
X78301584Y-61811717D01*
X78357584Y-61669711D01*
X78368300Y-61580476D01*
X78368300Y-60593524D01*
X78357584Y-60504289D01*
X78301584Y-60362283D01*
X78209348Y-60240652D01*
X78115814Y-60169723D01*
X78080309Y-60118687D01*
X78081583Y-60056526D01*
X78115814Y-60009409D01*
X78225348Y-59926348D01*
X78317584Y-59804717D01*
X78346710Y-59730857D01*
X78386275Y-59682897D01*
X78446474Y-59667352D01*
X78504314Y-59690160D01*
X78511431Y-59696627D01*
X78516151Y-59701347D01*
X78516152Y-59701348D01*
X78637783Y-59793584D01*
X78637784Y-59793584D01*
X78637785Y-59793585D01*
X78637788Y-59793586D01*
X78779789Y-59849584D01*
X78869024Y-59860300D01*
X78869030Y-59860300D01*
X79455970Y-59860300D01*
X79455976Y-59860300D01*
X79545211Y-59849584D01*
X79687217Y-59793584D01*
X79808848Y-59701348D01*
X79901084Y-59579717D01*
X79957084Y-59437711D01*
X79967800Y-59348476D01*
X79967800Y-58761530D01*
X80857200Y-58761530D01*
X80857200Y-59348469D01*
X80857201Y-59348489D01*
X80867915Y-59437706D01*
X80867917Y-59437714D01*
X80923913Y-59579711D01*
X80923914Y-59579714D01*
X80923915Y-59579716D01*
X80923916Y-59579717D01*
X81016152Y-59701348D01*
X81137783Y-59793584D01*
X81137784Y-59793584D01*
X81137785Y-59793585D01*
X81137788Y-59793586D01*
X81279789Y-59849584D01*
X81369024Y-59860300D01*
X81369030Y-59860300D01*
X81955970Y-59860300D01*
X81955976Y-59860300D01*
X82045211Y-59849584D01*
X82187217Y-59793584D01*
X82308848Y-59701348D01*
X82401084Y-59579717D01*
X82457084Y-59437711D01*
X82467800Y-59348476D01*
X82467800Y-58761524D01*
X82457084Y-58672289D01*
X82401084Y-58530283D01*
X82308848Y-58408652D01*
X82187217Y-58316416D01*
X82187214Y-58316414D01*
X82187213Y-58316414D01*
X82040194Y-58258437D01*
X82018477Y-58240521D01*
X81995713Y-58223982D01*
X81994718Y-58220920D01*
X81992234Y-58218871D01*
X81976500Y-58164851D01*
X81976500Y-58102802D01*
X81995713Y-58043671D01*
X82017360Y-58021861D01*
X82070582Y-57982582D01*
X82152085Y-57872151D01*
X82197416Y-57742602D01*
X82200300Y-57711846D01*
X82200300Y-56577154D01*
X82197416Y-56546398D01*
X82152085Y-56416849D01*
X82070582Y-56306418D01*
X81960151Y-56224915D01*
X81922782Y-56211839D01*
X81830603Y-56179584D01*
X81830605Y-56179584D01*
X81820350Y-56178622D01*
X81799846Y-56176700D01*
X81390154Y-56176700D01*
X81369650Y-56178622D01*
X81359395Y-56179584D01*
X81229848Y-56224915D01*
X81119418Y-56306417D01*
X81119417Y-56306418D01*
X81037915Y-56416848D01*
X80992584Y-56546395D01*
X80992584Y-56546398D01*
X80989700Y-56577154D01*
X80989700Y-57711846D01*
X80991943Y-57735767D01*
X80992584Y-57742604D01*
X81037914Y-57872150D01*
X81037915Y-57872151D01*
X81119418Y-57982582D01*
X81119419Y-57982583D01*
X81119421Y-57982585D01*
X81136562Y-57995235D01*
X81172637Y-58021860D01*
X81181692Y-58034520D01*
X81194287Y-58043671D01*
X81199323Y-58059171D01*
X81208806Y-58072430D01*
X81213500Y-58102802D01*
X81213500Y-58218088D01*
X81194287Y-58277219D01*
X81149808Y-58311673D01*
X81137788Y-58316413D01*
X81137785Y-58316414D01*
X81016152Y-58408652D01*
X80923914Y-58530285D01*
X80923913Y-58530288D01*
X80867917Y-58672285D01*
X80867915Y-58672293D01*
X80857201Y-58761510D01*
X80857200Y-58761530D01*
X79967800Y-58761530D01*
X79967800Y-58761524D01*
X79957084Y-58672289D01*
X79901084Y-58530283D01*
X79808848Y-58408652D01*
X79687217Y-58316416D01*
X79687214Y-58316414D01*
X79687213Y-58316414D01*
X79662037Y-58306486D01*
X79614077Y-58266920D01*
X79598533Y-58206720D01*
X79621342Y-58148881D01*
X79673792Y-58115495D01*
X79698943Y-58112300D01*
X79899840Y-58112300D01*
X79899846Y-58112300D01*
X79930602Y-58109416D01*
X80060151Y-58064085D01*
X80170582Y-57982582D01*
X80252085Y-57872151D01*
X80297416Y-57742602D01*
X80300300Y-57711846D01*
X80300300Y-56577154D01*
X80297416Y-56546398D01*
X80252085Y-56416849D01*
X80170582Y-56306418D01*
X80060151Y-56224915D01*
X80022782Y-56211839D01*
X79930603Y-56179584D01*
X79930605Y-56179584D01*
X79920350Y-56178622D01*
X79899846Y-56176700D01*
X79490154Y-56176700D01*
X79469650Y-56178622D01*
X79459395Y-56179584D01*
X79329848Y-56224915D01*
X79219418Y-56306417D01*
X79219417Y-56306418D01*
X79137915Y-56416848D01*
X79092584Y-56546395D01*
X79092584Y-56546398D01*
X79089700Y-56577154D01*
X79089700Y-57711846D01*
X79091943Y-57735767D01*
X79092584Y-57742604D01*
X79137915Y-57872150D01*
X79137915Y-57872151D01*
X79219418Y-57982582D01*
X79302189Y-58043671D01*
X79335368Y-58068158D01*
X79371535Y-58118730D01*
X79371070Y-58180902D01*
X79334149Y-58230927D01*
X79275629Y-58249700D01*
X78869024Y-58249700D01*
X78869019Y-58249700D01*
X78869010Y-58249701D01*
X78779793Y-58260415D01*
X78779785Y-58260417D01*
X78637788Y-58316413D01*
X78637785Y-58316414D01*
X78516149Y-58408654D01*
X78511427Y-58413376D01*
X78456028Y-58441599D01*
X78394620Y-58431870D01*
X78350658Y-58387904D01*
X78346710Y-58379142D01*
X78321973Y-58316414D01*
X78317584Y-58305283D01*
X78225348Y-58183652D01*
X78103717Y-58091416D01*
X78103716Y-58091415D01*
X78103714Y-58091414D01*
X78103711Y-58091413D01*
X77961714Y-58035417D01*
X77961712Y-58035416D01*
X77961711Y-58035416D01*
X77961709Y-58035415D01*
X77961706Y-58035415D01*
X77872489Y-58024701D01*
X77872480Y-58024700D01*
X77872476Y-58024700D01*
X77872470Y-58024700D01*
X77419392Y-58024700D01*
X77360261Y-58005487D01*
X77348257Y-57995235D01*
X76786475Y-57433453D01*
X76775290Y-57411501D01*
X76761260Y-57391250D01*
X76761416Y-57384271D01*
X76758249Y-57378055D01*
X76762655Y-57329092D01*
X76765082Y-57322154D01*
X76765085Y-57322151D01*
X76790997Y-57248098D01*
X76828660Y-57198634D01*
X76888207Y-57180752D01*
X76946892Y-57201287D01*
X76957077Y-57210185D01*
X76974832Y-57227940D01*
X76974834Y-57227941D01*
X76974835Y-57227942D01*
X77089206Y-57286216D01*
X77089210Y-57286218D01*
X77215995Y-57306299D01*
X77215997Y-57306300D01*
X77216000Y-57306300D01*
X78232003Y-57306300D01*
X78232003Y-57306299D01*
X78358790Y-57286218D01*
X78473168Y-57227940D01*
X78563940Y-57137168D01*
X78622218Y-57022790D01*
X78642300Y-56896000D01*
X78642300Y-56382913D01*
X78647945Y-56349687D01*
X78685416Y-56242602D01*
X78688300Y-56211846D01*
X78688300Y-55802154D01*
X78685416Y-55771398D01*
X78647945Y-55664311D01*
X78642300Y-55631085D01*
X78642300Y-55117996D01*
X78642299Y-55117995D01*
X78622218Y-54991211D01*
X78622216Y-54991206D01*
X78563942Y-54876835D01*
X78563941Y-54876834D01*
X78563940Y-54876832D01*
X78473168Y-54786060D01*
X78473165Y-54786058D01*
X78473164Y-54786057D01*
X78473165Y-54786057D01*
X78358793Y-54727783D01*
X78358788Y-54727781D01*
X78232004Y-54707700D01*
X78232000Y-54707700D01*
X77216000Y-54707700D01*
X77215996Y-54707700D01*
X77089211Y-54727781D01*
X77089206Y-54727783D01*
X76974834Y-54786057D01*
X76957083Y-54803808D01*
X76950867Y-54806974D01*
X76946893Y-54812712D01*
X76923634Y-54820850D01*
X76901685Y-54832034D01*
X76894793Y-54830942D01*
X76888207Y-54833247D01*
X76864609Y-54826160D01*
X76840277Y-54822306D01*
X76835343Y-54817371D01*
X76828660Y-54815365D01*
X76813735Y-54795763D01*
X76796314Y-54778342D01*
X76790999Y-54765908D01*
X76765085Y-54691849D01*
X76765083Y-54691846D01*
X76764210Y-54689351D01*
X76762815Y-54627193D01*
X76788028Y-54584992D01*
X77070857Y-54302164D01*
X77126255Y-54273938D01*
X77141992Y-54272699D01*
X77633587Y-54272699D01*
X77633594Y-54272699D01*
X77720824Y-54262225D01*
X77859633Y-54207485D01*
X77978526Y-54117326D01*
X78068685Y-53998433D01*
X78092677Y-53937591D01*
X78132244Y-53889634D01*
X78186263Y-53873900D01*
X78780706Y-53873900D01*
X78839837Y-53893113D01*
X78851841Y-53903365D01*
X79080881Y-54132405D01*
X79109107Y-54187803D01*
X79104701Y-54236764D01*
X79092585Y-54271389D01*
X79092584Y-54271394D01*
X79092584Y-54271398D01*
X79089700Y-54302154D01*
X79089700Y-55436846D01*
X79091943Y-55460767D01*
X79092584Y-55467604D01*
X79137915Y-55597151D01*
X79200691Y-55682209D01*
X79219418Y-55707582D01*
X79329849Y-55789085D01*
X79459395Y-55834415D01*
X79459398Y-55834416D01*
X79490154Y-55837300D01*
X79490160Y-55837300D01*
X79899840Y-55837300D01*
X79899846Y-55837300D01*
X79930602Y-55834416D01*
X80060151Y-55789085D01*
X80170582Y-55707582D01*
X80252085Y-55597151D01*
X80297416Y-55467602D01*
X80300300Y-55436846D01*
X80300300Y-54302154D01*
X80297416Y-54271398D01*
X80285296Y-54236764D01*
X80283902Y-54174607D01*
X80309117Y-54132405D01*
X80563558Y-53877965D01*
X80618956Y-53849739D01*
X80634693Y-53848500D01*
X81061543Y-53848500D01*
X81120674Y-53867713D01*
X81157219Y-53918013D01*
X81157219Y-53980187D01*
X81124390Y-54025728D01*
X81124749Y-54026087D01*
X81122542Y-54028293D01*
X81121282Y-54030042D01*
X81119419Y-54031416D01*
X81119417Y-54031418D01*
X81037915Y-54141848D01*
X80992584Y-54271395D01*
X80992584Y-54271398D01*
X80989700Y-54302154D01*
X80989700Y-55436846D01*
X80991943Y-55460767D01*
X80992584Y-55467604D01*
X81037915Y-55597151D01*
X81100691Y-55682209D01*
X81119418Y-55707582D01*
X81229849Y-55789085D01*
X81359395Y-55834415D01*
X81359398Y-55834416D01*
X81390154Y-55837300D01*
X81390160Y-55837300D01*
X81799840Y-55837300D01*
X81799846Y-55837300D01*
X81830602Y-55834416D01*
X81960151Y-55789085D01*
X82070582Y-55707582D01*
X82152085Y-55597151D01*
X82197416Y-55467602D01*
X82200300Y-55436846D01*
X82200300Y-54302154D01*
X82197416Y-54271398D01*
X82196645Y-54269194D01*
X82191000Y-54235968D01*
X82191000Y-53062478D01*
X82210213Y-53003347D01*
X82260513Y-52966802D01*
X82279604Y-52962596D01*
X82279711Y-52962584D01*
X82421717Y-52906584D01*
X82543348Y-52814348D01*
X82635584Y-52692717D01*
X82691584Y-52550711D01*
X82702300Y-52461476D01*
X82702300Y-51424524D01*
X82691584Y-51335289D01*
X82635584Y-51193283D01*
X82543348Y-51071652D01*
X82421717Y-50979416D01*
X82421716Y-50979415D01*
X82421714Y-50979414D01*
X82421711Y-50979413D01*
X82279712Y-50923416D01*
X82279649Y-50923408D01*
X82279601Y-50923402D01*
X82279532Y-50923370D01*
X82273460Y-50921836D01*
X82273749Y-50920692D01*
X82270520Y-50919197D01*
X82260513Y-50919197D01*
X82242920Y-50906415D01*
X82223184Y-50897275D01*
X82218308Y-50888533D01*
X82210213Y-50882652D01*
X82203492Y-50861969D01*
X82192899Y-50842975D01*
X82191000Y-50823521D01*
X82191000Y-50816900D01*
X82210213Y-50757769D01*
X82260513Y-50721224D01*
X82291600Y-50716300D01*
X82315470Y-50716300D01*
X82315476Y-50716300D01*
X82404711Y-50705584D01*
X82546717Y-50649584D01*
X82668348Y-50557348D01*
X82760584Y-50435717D01*
X82815336Y-50296874D01*
X82854901Y-50248915D01*
X82858581Y-50246682D01*
X82911247Y-50216276D01*
X82982276Y-50145247D01*
X84827765Y-48299758D01*
X84883163Y-48271532D01*
X84944571Y-48281258D01*
X84988535Y-48325222D01*
X84999500Y-48370893D01*
X84999500Y-62022968D01*
X84999363Y-62028197D01*
X84994894Y-62113656D01*
X84982281Y-62354828D01*
X84981876Y-62359999D01*
X84974234Y-62433347D01*
X84973736Y-62437352D01*
X84932125Y-62724456D01*
X84931135Y-62730135D01*
X84917434Y-62797295D01*
X84916684Y-62800671D01*
X84847547Y-63088642D01*
X84845873Y-63094758D01*
X84828649Y-63150702D01*
X84827762Y-63153443D01*
X84729120Y-63443976D01*
X84726673Y-63450444D01*
X84710864Y-63488250D01*
X84709950Y-63490369D01*
X84577772Y-63787149D01*
X84574473Y-63793870D01*
X84570114Y-63801975D01*
X84569279Y-63803496D01*
X84398275Y-64108718D01*
X84393405Y-64116547D01*
X84190925Y-64411011D01*
X84185358Y-64418361D01*
X83956772Y-64693042D01*
X83950555Y-64699852D01*
X83697779Y-64952449D01*
X83690965Y-64958661D01*
X83416124Y-65187055D01*
X83408770Y-65192617D01*
X83114165Y-65394891D01*
X83106332Y-65399756D01*
X82801028Y-65570523D01*
X82799518Y-65571351D01*
X82791357Y-65575734D01*
X82784622Y-65579034D01*
X82487753Y-65711001D01*
X82485634Y-65711914D01*
X82447832Y-65727690D01*
X82441363Y-65730132D01*
X82150721Y-65828584D01*
X82147978Y-65829469D01*
X82092074Y-65846637D01*
X82085957Y-65848307D01*
X81797905Y-65917248D01*
X81794529Y-65917995D01*
X81727370Y-65931647D01*
X81721690Y-65932633D01*
X81434580Y-65974039D01*
X81430576Y-65974535D01*
X81357181Y-65982131D01*
X81352008Y-65982531D01*
X81025396Y-65999380D01*
X81020213Y-65999514D01*
X48106600Y-65999505D01*
X48047469Y-65980292D01*
X48010924Y-65929992D01*
X48006000Y-65898905D01*
X48006000Y-41592097D01*
X51803700Y-41592097D01*
X51803700Y-42105894D01*
X51811363Y-42154275D01*
X51818732Y-42200806D01*
X51818732Y-42200807D01*
X51818733Y-42200809D01*
X51877015Y-42315195D01*
X51877016Y-42315196D01*
X51877018Y-42315199D01*
X51967801Y-42405982D01*
X51967803Y-42405983D01*
X51967804Y-42405984D01*
X52035132Y-42440289D01*
X52082194Y-42464268D01*
X52177103Y-42479300D01*
X52440896Y-42479299D01*
X52535806Y-42464268D01*
X52650199Y-42405982D01*
X52740982Y-42315199D01*
X52799268Y-42200806D01*
X52814300Y-42105897D01*
X52814299Y-41592104D01*
X52799268Y-41497194D01*
X52784138Y-41467500D01*
X52740984Y-41382804D01*
X52740983Y-41382803D01*
X52740982Y-41382801D01*
X52650199Y-41292018D01*
X52650196Y-41292016D01*
X52650195Y-41292015D01*
X52650196Y-41292015D01*
X52535809Y-41233733D01*
X52535803Y-41233731D01*
X52440901Y-41218700D01*
X52177104Y-41218700D01*
X52107647Y-41229700D01*
X52082194Y-41233732D01*
X52082192Y-41233732D01*
X52082190Y-41233733D01*
X51967804Y-41292015D01*
X51877015Y-41382804D01*
X51818733Y-41497190D01*
X51818731Y-41497196D01*
X51803700Y-41592097D01*
X48006000Y-41592097D01*
X48006000Y-24205700D01*
X48025213Y-24146569D01*
X48075513Y-24110024D01*
X48106600Y-24105100D01*
X49625788Y-24105100D01*
X49684919Y-24124313D01*
X49721464Y-24174613D01*
X49725150Y-24221437D01*
X49715752Y-24280778D01*
X49715700Y-24281104D01*
X49715700Y-25619894D01*
X49719629Y-25644700D01*
X49730732Y-25714806D01*
X49730732Y-25714807D01*
X49730733Y-25714809D01*
X49789015Y-25829195D01*
X49789016Y-25829196D01*
X49789018Y-25829199D01*
X49879801Y-25919982D01*
X49879803Y-25919983D01*
X49879804Y-25919984D01*
X49991260Y-25976773D01*
X49994194Y-25978268D01*
X50089103Y-25993300D01*
X50352896Y-25993299D01*
X50447806Y-25978268D01*
X50500329Y-25951505D01*
X50561736Y-25941779D01*
X50591668Y-25951504D01*
X50644194Y-25978268D01*
X50739103Y-25993300D01*
X51002896Y-25993299D01*
X51097806Y-25978268D01*
X51150329Y-25951505D01*
X51211736Y-25941779D01*
X51241668Y-25951504D01*
X51294194Y-25978268D01*
X51389103Y-25993300D01*
X51652896Y-25993299D01*
X51747806Y-25978268D01*
X51862199Y-25919982D01*
X51952982Y-25829199D01*
X52011268Y-25714806D01*
X52026300Y-25619897D01*
X52026299Y-24281104D01*
X52011268Y-24186194D01*
X52002584Y-24169150D01*
X51952984Y-24071804D01*
X51952983Y-24071803D01*
X51952982Y-24071801D01*
X51862199Y-23981018D01*
X51862196Y-23981016D01*
X51862195Y-23981015D01*
X51862196Y-23981015D01*
X51747809Y-23922733D01*
X51747803Y-23922731D01*
X51652901Y-23907700D01*
X51389104Y-23907700D01*
X51310541Y-23920143D01*
X51294194Y-23922732D01*
X51294193Y-23922732D01*
X51294189Y-23922733D01*
X51286661Y-23925179D01*
X51285950Y-23922992D01*
X51235756Y-23930939D01*
X51180360Y-23902709D01*
X51152696Y-23850502D01*
X51150900Y-23841125D01*
X51150900Y-23833950D01*
X51147028Y-23819500D01*
X51131825Y-23762762D01*
X51094976Y-23698938D01*
X50378062Y-22982024D01*
X50314237Y-22945175D01*
X50243050Y-22926100D01*
X48106600Y-22926100D01*
X48047469Y-22906887D01*
X48010924Y-22856587D01*
X48006000Y-22825500D01*
X48006000Y-21101100D01*
X48025213Y-21041969D01*
X48075513Y-21005424D01*
X48106600Y-21000500D01*
X80997668Y-21000500D01*
X81002314Y-21000607D01*
G37*
G04 #@! TD.AperFunction*
G04 #@! TA.AperFunction,Conductor*
G36*
X57175165Y-49778313D02*
G01*
X57211710Y-49828613D01*
X57211710Y-49890787D01*
X57187169Y-49930835D01*
X56701777Y-50416225D01*
X56691693Y-50440572D01*
X56666900Y-50500427D01*
X56666900Y-52187433D01*
X56647687Y-52246564D01*
X56637435Y-52258568D01*
X56322568Y-52573435D01*
X56267170Y-52601661D01*
X56251433Y-52602900D01*
X55376507Y-52602900D01*
X55317376Y-52583687D01*
X55280831Y-52533387D01*
X55280831Y-52471213D01*
X55295565Y-52442561D01*
X55296137Y-52441784D01*
X55319485Y-52410151D01*
X55364816Y-52280602D01*
X55367700Y-52249846D01*
X55367700Y-50490154D01*
X55364816Y-50459398D01*
X55319485Y-50329849D01*
X55299581Y-50302881D01*
X55279927Y-50243897D01*
X55298696Y-50184623D01*
X55309389Y-50172008D01*
X55493622Y-49987776D01*
X55692833Y-49788565D01*
X55748231Y-49760339D01*
X55763968Y-49759100D01*
X57116034Y-49759100D01*
X57175165Y-49778313D01*
G37*
G04 #@! TD.AperFunction*
G04 #@! TA.AperFunction,Conductor*
G36*
X57325638Y-33080413D02*
G01*
X57337642Y-33090665D01*
X57773235Y-33526258D01*
X57801461Y-33581656D01*
X57802700Y-33597393D01*
X57802700Y-34427469D01*
X57802701Y-34427489D01*
X57813415Y-34516706D01*
X57813417Y-34516714D01*
X57869413Y-34658711D01*
X57869414Y-34658714D01*
X57869415Y-34658716D01*
X57869416Y-34658717D01*
X57961652Y-34780348D01*
X58083283Y-34872584D01*
X58083284Y-34872584D01*
X58083285Y-34872585D01*
X58083288Y-34872586D01*
X58089666Y-34875101D01*
X58225289Y-34928584D01*
X58314524Y-34939300D01*
X58314530Y-34939300D01*
X59076470Y-34939300D01*
X59076476Y-34939300D01*
X59076482Y-34939299D01*
X59076486Y-34939299D01*
X59087825Y-34937937D01*
X59125953Y-34933358D01*
X59186951Y-34945382D01*
X59209082Y-34962105D01*
X59302065Y-35055087D01*
X59379722Y-35132744D01*
X59379724Y-35132747D01*
X59450753Y-35203776D01*
X59510361Y-35238190D01*
X59516666Y-35243342D01*
X59529294Y-35262975D01*
X59544917Y-35280327D01*
X59548269Y-35292478D01*
X59550299Y-35295634D01*
X59550101Y-35299117D01*
X59552896Y-35309248D01*
X59555174Y-35328223D01*
X59584897Y-35403592D01*
X59609915Y-35467033D01*
X59700074Y-35585926D01*
X59818967Y-35676085D01*
X59939237Y-35723514D01*
X59987197Y-35763081D01*
X60002741Y-35823281D01*
X59979932Y-35881120D01*
X59927481Y-35914505D01*
X59902331Y-35917700D01*
X58363428Y-35917700D01*
X58363413Y-35917701D01*
X58337891Y-35920662D01*
X58337888Y-35920662D01*
X58233475Y-35966765D01*
X58229035Y-35971206D01*
X58173637Y-35999432D01*
X58112229Y-35989706D01*
X58068265Y-35945742D01*
X58057300Y-35900071D01*
X58057300Y-35407486D01*
X58057298Y-35407468D01*
X58055715Y-35394284D01*
X58047066Y-35322263D01*
X57993588Y-35186651D01*
X57905504Y-35070496D01*
X57789349Y-34982412D01*
X57789348Y-34982411D01*
X57789346Y-34982410D01*
X57789343Y-34982409D01*
X57653740Y-34928935D01*
X57653738Y-34928934D01*
X57653737Y-34928934D01*
X57653735Y-34928933D01*
X57653732Y-34928933D01*
X57568531Y-34918701D01*
X57568522Y-34918700D01*
X57568518Y-34918700D01*
X56985482Y-34918700D01*
X56985478Y-34918700D01*
X56985468Y-34918701D01*
X56900267Y-34928933D01*
X56900259Y-34928935D01*
X56764656Y-34982409D01*
X56764653Y-34982410D01*
X56648496Y-35070496D01*
X56560410Y-35186653D01*
X56560409Y-35186656D01*
X56506935Y-35322259D01*
X56506933Y-35322267D01*
X56496701Y-35407468D01*
X56496700Y-35407486D01*
X56496700Y-35940513D01*
X56496701Y-35940531D01*
X56506933Y-36025732D01*
X56506935Y-36025740D01*
X56560409Y-36161343D01*
X56560410Y-36161346D01*
X56560411Y-36161348D01*
X56560412Y-36161349D01*
X56648496Y-36277504D01*
X56764651Y-36365588D01*
X56764652Y-36365588D01*
X56764653Y-36365589D01*
X56764656Y-36365590D01*
X56772677Y-36368753D01*
X56900263Y-36419066D01*
X56985482Y-36429300D01*
X56985487Y-36429300D01*
X57568513Y-36429300D01*
X57568518Y-36429300D01*
X57568524Y-36429299D01*
X57568528Y-36429299D01*
X57585061Y-36427313D01*
X57633157Y-36421537D01*
X57694156Y-36433561D01*
X57716287Y-36450284D01*
X58074235Y-36808232D01*
X58102461Y-36863630D01*
X58103700Y-36879367D01*
X58103700Y-37268571D01*
X58103701Y-37268586D01*
X58106662Y-37294108D01*
X58106662Y-37294111D01*
X58152765Y-37398524D01*
X58152766Y-37398525D01*
X58233475Y-37479234D01*
X58337891Y-37525338D01*
X58363421Y-37528300D01*
X59748632Y-37528299D01*
X59807763Y-37547512D01*
X59819767Y-37557764D01*
X60163868Y-37901865D01*
X60192094Y-37957263D01*
X60182368Y-38018671D01*
X60163868Y-38044135D01*
X59819768Y-38388235D01*
X59764370Y-38416461D01*
X59748633Y-38417700D01*
X58363428Y-38417700D01*
X58363413Y-38417701D01*
X58337891Y-38420662D01*
X58337888Y-38420662D01*
X58233475Y-38466765D01*
X58152765Y-38547475D01*
X58106662Y-38651888D01*
X58106662Y-38651889D01*
X58103700Y-38677417D01*
X58103700Y-39079632D01*
X58084487Y-39138763D01*
X58074235Y-39150767D01*
X57727892Y-39497109D01*
X57672494Y-39525335D01*
X57644762Y-39525856D01*
X57568531Y-39516701D01*
X57568522Y-39516700D01*
X57568518Y-39516700D01*
X56985482Y-39516700D01*
X56985478Y-39516700D01*
X56985468Y-39516701D01*
X56900267Y-39526933D01*
X56900259Y-39526935D01*
X56764656Y-39580409D01*
X56764653Y-39580410D01*
X56648496Y-39668496D01*
X56560410Y-39784653D01*
X56560409Y-39784656D01*
X56506935Y-39920259D01*
X56506933Y-39920267D01*
X56496701Y-40005468D01*
X56496700Y-40005486D01*
X56496700Y-40538513D01*
X56496701Y-40538531D01*
X56506933Y-40623732D01*
X56506935Y-40623740D01*
X56560409Y-40759343D01*
X56560410Y-40759346D01*
X56560411Y-40759348D01*
X56560412Y-40759349D01*
X56648496Y-40875504D01*
X56764651Y-40963588D01*
X56764652Y-40963588D01*
X56764653Y-40963589D01*
X56764656Y-40963590D01*
X56900263Y-41017066D01*
X56985482Y-41027300D01*
X56985487Y-41027300D01*
X57568513Y-41027300D01*
X57568518Y-41027300D01*
X57653737Y-41017066D01*
X57789349Y-40963588D01*
X57905504Y-40875504D01*
X57993588Y-40759349D01*
X58047066Y-40623737D01*
X58057300Y-40538518D01*
X58057300Y-40045929D01*
X58076513Y-39986798D01*
X58126813Y-39950253D01*
X58188987Y-39950253D01*
X58229035Y-39974794D01*
X58233475Y-39979234D01*
X58337891Y-40025338D01*
X58363421Y-40028300D01*
X58712173Y-40028299D01*
X58771303Y-40047512D01*
X58807848Y-40097812D01*
X58807848Y-40159986D01*
X58792331Y-40189684D01*
X58746316Y-40250364D01*
X58746316Y-40250365D01*
X58746315Y-40250366D01*
X58746315Y-40250367D01*
X58731736Y-40287336D01*
X58691575Y-40389175D01*
X58691574Y-40389178D01*
X58689430Y-40407035D01*
X58663303Y-40463453D01*
X58639849Y-40482160D01*
X58585353Y-40513624D01*
X58585352Y-40513625D01*
X58585349Y-40513627D01*
X58514323Y-40584652D01*
X58514324Y-40584653D01*
X57660942Y-41438035D01*
X57605544Y-41466261D01*
X57589807Y-41467500D01*
X56042100Y-41467500D01*
X55982969Y-41448287D01*
X55946424Y-41397987D01*
X55941500Y-41366900D01*
X55941500Y-33296793D01*
X55944008Y-33289072D01*
X55942739Y-33281056D01*
X55953433Y-33260067D01*
X55960713Y-33237662D01*
X55970965Y-33225658D01*
X56105958Y-33090665D01*
X56161356Y-33062439D01*
X56177093Y-33061200D01*
X57266507Y-33061200D01*
X57325638Y-33080413D01*
G37*
G04 #@! TD.AperFunction*
G04 #@! TA.AperFunction,Conductor*
G36*
X60556199Y-39905864D02*
G01*
X60600163Y-39949828D01*
X60600906Y-39951317D01*
X60647211Y-40046036D01*
X60647212Y-40046037D01*
X60647213Y-40046039D01*
X60736961Y-40135787D01*
X60736962Y-40135787D01*
X60736963Y-40135788D01*
X60779579Y-40156622D01*
X60824264Y-40199853D01*
X60835004Y-40261093D01*
X60807697Y-40316949D01*
X60779579Y-40337378D01*
X60736963Y-40358211D01*
X60647214Y-40447959D01*
X60645505Y-40450354D01*
X60642877Y-40452296D01*
X60641319Y-40453855D01*
X60641085Y-40453621D01*
X60595510Y-40487315D01*
X60563630Y-40492500D01*
X60332875Y-40492500D01*
X60273744Y-40473287D01*
X60237199Y-40422987D01*
X60232992Y-40403892D01*
X60231225Y-40389178D01*
X60231225Y-40389176D01*
X60176485Y-40250367D01*
X60130467Y-40189683D01*
X60110048Y-40130960D01*
X60128046Y-40071447D01*
X60177587Y-40033880D01*
X60210627Y-40028299D01*
X60254572Y-40028299D01*
X60254578Y-40028299D01*
X60280109Y-40025338D01*
X60384525Y-39979234D01*
X60439394Y-39924364D01*
X60494790Y-39896139D01*
X60556199Y-39905864D01*
G37*
G04 #@! TD.AperFunction*
G04 #@! TA.AperFunction,Conductor*
G36*
X80995863Y-34545012D02*
G01*
X80999037Y-34544197D01*
X81025159Y-34554531D01*
X81051877Y-34563213D01*
X81053803Y-34565864D01*
X81056851Y-34567070D01*
X81071911Y-34590788D01*
X81088422Y-34613513D01*
X81089873Y-34619076D01*
X81090179Y-34619557D01*
X81090869Y-34622242D01*
X81115862Y-34747891D01*
X81135107Y-34794354D01*
X81136878Y-34801243D01*
X81135356Y-34825520D01*
X81137265Y-34849772D01*
X81133446Y-34856002D01*
X81132990Y-34863295D01*
X81110580Y-34897421D01*
X80554168Y-35453835D01*
X80498770Y-35482061D01*
X80483033Y-35483300D01*
X78568529Y-35483300D01*
X78533651Y-35497747D01*
X78515429Y-35505294D01*
X78484326Y-35518177D01*
X78484325Y-35518178D01*
X77467178Y-36535323D01*
X77411780Y-36563549D01*
X77384049Y-36564070D01*
X77331010Y-36557701D01*
X77330999Y-36557700D01*
X77330995Y-36557700D01*
X77330988Y-36557700D01*
X76646013Y-36557700D01*
X76646005Y-36557701D01*
X76558778Y-36568174D01*
X76419967Y-36622915D01*
X76301074Y-36713074D01*
X76210915Y-36831967D01*
X76156174Y-36970776D01*
X76145701Y-37057991D01*
X76145700Y-37058000D01*
X76145700Y-37058005D01*
X76145700Y-37337378D01*
X76145701Y-37541900D01*
X76126488Y-37601031D01*
X76076188Y-37637576D01*
X76045101Y-37642500D01*
X73797005Y-37642500D01*
X73737874Y-37623287D01*
X73709883Y-37592200D01*
X73681927Y-37543779D01*
X73582522Y-37444374D01*
X73503110Y-37398525D01*
X73480572Y-37385512D01*
X73438971Y-37339308D01*
X73432473Y-37277474D01*
X73459739Y-37227256D01*
X73487142Y-37199853D01*
X73644622Y-37042374D01*
X73662190Y-36999958D01*
X73702568Y-36952681D01*
X73763024Y-36938166D01*
X73781166Y-36941283D01*
X73844193Y-36958171D01*
X73915206Y-36977199D01*
X73915208Y-36977199D01*
X73915211Y-36977200D01*
X73915213Y-36977200D01*
X74055787Y-36977200D01*
X74055789Y-36977200D01*
X74055791Y-36977199D01*
X74055794Y-36977199D01*
X74191574Y-36940817D01*
X74191575Y-36940817D01*
X74191575Y-36940816D01*
X74191578Y-36940816D01*
X74313322Y-36870526D01*
X74412726Y-36771122D01*
X74434007Y-36734263D01*
X74440683Y-36722700D01*
X74486888Y-36681097D01*
X74527805Y-36672400D01*
X75500070Y-36672400D01*
X75500071Y-36672400D01*
X75531884Y-36659222D01*
X75531886Y-36659222D01*
X75584273Y-36637523D01*
X75584273Y-36637522D01*
X75584275Y-36637522D01*
X76902222Y-35319574D01*
X76926979Y-35259805D01*
X76935991Y-35238047D01*
X76976369Y-35190770D01*
X76990429Y-35183606D01*
X77039101Y-35163446D01*
X77153586Y-35086949D01*
X77250949Y-34989586D01*
X77259354Y-34977006D01*
X77308180Y-34938515D01*
X77370306Y-34936074D01*
X77422002Y-34970615D01*
X77426644Y-34977005D01*
X77435051Y-34989586D01*
X77532414Y-35086949D01*
X77646899Y-35163446D01*
X77702921Y-35186651D01*
X77774106Y-35216137D01*
X77774107Y-35216137D01*
X77774109Y-35216138D01*
X77909155Y-35243000D01*
X77909156Y-35243000D01*
X78046844Y-35243000D01*
X78046845Y-35243000D01*
X78181891Y-35216138D01*
X78309101Y-35163446D01*
X78423586Y-35086949D01*
X78520949Y-34989586D01*
X78529354Y-34977006D01*
X78578180Y-34938515D01*
X78640306Y-34936074D01*
X78692002Y-34970615D01*
X78696644Y-34977005D01*
X78705051Y-34989586D01*
X78802414Y-35086949D01*
X78916899Y-35163446D01*
X78972921Y-35186651D01*
X79044106Y-35216137D01*
X79044107Y-35216137D01*
X79044109Y-35216138D01*
X79179155Y-35243000D01*
X79179156Y-35243000D01*
X79316844Y-35243000D01*
X79316845Y-35243000D01*
X79451891Y-35216138D01*
X79579101Y-35163446D01*
X79693586Y-35086949D01*
X79790949Y-34989586D01*
X79867446Y-34875101D01*
X79920138Y-34747891D01*
X79944587Y-34624974D01*
X79974966Y-34570728D01*
X80031429Y-34544697D01*
X80043254Y-34544000D01*
X80992746Y-34544000D01*
X80995863Y-34545012D01*
G37*
G04 #@! TD.AperFunction*
G04 #@! TA.AperFunction,Conductor*
G36*
X75654167Y-30601313D02*
G01*
X75690712Y-30651613D01*
X75692256Y-30657532D01*
X75693253Y-30660819D01*
X75772803Y-30852868D01*
X75772805Y-30852872D01*
X75807740Y-30905155D01*
X75888293Y-31025712D01*
X76035287Y-31172706D01*
X76041706Y-31176995D01*
X76208128Y-31288195D01*
X76266188Y-31312244D01*
X76400177Y-31367744D01*
X76400178Y-31367744D01*
X76400180Y-31367745D01*
X76517759Y-31391133D01*
X76572006Y-31421513D01*
X76598036Y-31477976D01*
X76585906Y-31538955D01*
X76540250Y-31581159D01*
X76498133Y-31590400D01*
X74929426Y-31590400D01*
X74904767Y-31600613D01*
X74904768Y-31600614D01*
X74845224Y-31625278D01*
X73256178Y-33214325D01*
X73256177Y-33214326D01*
X73232171Y-33272285D01*
X73232170Y-33272287D01*
X73221300Y-33298528D01*
X73221300Y-36776033D01*
X73202087Y-36835164D01*
X73191835Y-36847168D01*
X72550568Y-37488435D01*
X72495170Y-37516661D01*
X72479433Y-37517900D01*
X71021776Y-37517900D01*
X70962645Y-37498687D01*
X70931398Y-37461484D01*
X70925112Y-37448626D01*
X70924787Y-37447961D01*
X70835039Y-37358213D01*
X70835037Y-37358212D01*
X70835036Y-37358211D01*
X70792420Y-37337378D01*
X70747735Y-37294148D01*
X70736995Y-37232908D01*
X70764301Y-37177051D01*
X70792420Y-37156622D01*
X70805898Y-37150033D01*
X70835039Y-37135787D01*
X70924787Y-37046039D01*
X70980530Y-36932014D01*
X70991300Y-36858095D01*
X70991299Y-36635906D01*
X70990083Y-36627562D01*
X70982095Y-36572729D01*
X70980530Y-36561986D01*
X70978435Y-36557701D01*
X70921126Y-36440472D01*
X70924267Y-36438936D01*
X70910237Y-36394539D01*
X70929927Y-36335565D01*
X70939692Y-36324223D01*
X71265683Y-35998232D01*
X71321079Y-35970008D01*
X71373720Y-35975783D01*
X71387430Y-35981188D01*
X71387776Y-35981325D01*
X71475005Y-35991800D01*
X72034994Y-35991799D01*
X72122224Y-35981325D01*
X72261033Y-35926585D01*
X72379926Y-35836426D01*
X72470085Y-35717533D01*
X72524825Y-35578724D01*
X72535300Y-35491495D01*
X72535299Y-34806506D01*
X72524825Y-34719276D01*
X72470085Y-34580467D01*
X72379926Y-34461574D01*
X72261033Y-34371415D01*
X72261030Y-34371413D01*
X72261029Y-34371413D01*
X72200193Y-34347421D01*
X72152233Y-34307854D01*
X72136500Y-34253836D01*
X72136500Y-31799192D01*
X72155713Y-31740061D01*
X72165959Y-31728063D01*
X72604258Y-31289763D01*
X72659656Y-31261538D01*
X72675393Y-31260299D01*
X72994602Y-31260299D01*
X73053733Y-31279512D01*
X73090278Y-31329812D01*
X73091774Y-31334863D01*
X73108281Y-31396473D01*
X73108282Y-31396475D01*
X73144216Y-31458713D01*
X73178574Y-31518222D01*
X73277978Y-31617626D01*
X73381333Y-31677299D01*
X73399724Y-31687917D01*
X73535505Y-31724299D01*
X73535509Y-31724299D01*
X73535511Y-31724300D01*
X73535513Y-31724300D01*
X73676087Y-31724300D01*
X73676089Y-31724300D01*
X73676091Y-31724299D01*
X73676094Y-31724299D01*
X73811874Y-31687917D01*
X73811875Y-31687917D01*
X73811875Y-31687916D01*
X73811878Y-31687916D01*
X73933622Y-31617626D01*
X74033026Y-31518222D01*
X74092960Y-31414415D01*
X74109241Y-31393287D01*
X74117334Y-31385259D01*
X74118875Y-31384622D01*
X74226904Y-31276591D01*
X74254590Y-31262628D01*
X74282007Y-31248659D01*
X74282265Y-31248670D01*
X74282418Y-31248594D01*
X74283130Y-31248709D01*
X74313249Y-31250073D01*
X74313372Y-31249056D01*
X74319776Y-31249825D01*
X74407005Y-31260300D01*
X74991994Y-31260299D01*
X75079224Y-31249825D01*
X75218033Y-31195085D01*
X75336926Y-31104926D01*
X75427085Y-30986033D01*
X75481825Y-30847224D01*
X75492300Y-30759995D01*
X75492300Y-30682700D01*
X75497224Y-30667545D01*
X75497224Y-30651613D01*
X75506589Y-30638722D01*
X75511513Y-30623569D01*
X75524403Y-30614203D01*
X75533769Y-30601313D01*
X75548922Y-30596389D01*
X75561813Y-30587024D01*
X75592900Y-30582100D01*
X75595036Y-30582100D01*
X75654167Y-30601313D01*
G37*
G04 #@! TD.AperFunction*
G04 #@! TA.AperFunction,Conductor*
G36*
X77070413Y-32067813D02*
G01*
X77106958Y-32118113D01*
X77106958Y-32180287D01*
X77082417Y-32220335D01*
X77002274Y-32300477D01*
X76931982Y-32422224D01*
X76931982Y-32422225D01*
X76895600Y-32558005D01*
X76895600Y-32698594D01*
X76931982Y-32834374D01*
X76931982Y-32834375D01*
X77002274Y-32956122D01*
X77101679Y-33055527D01*
X77154941Y-33086278D01*
X77196544Y-33132483D01*
X77203043Y-33194316D01*
X77171955Y-33248161D01*
X77115156Y-33273449D01*
X77104641Y-33274000D01*
X76708000Y-33274000D01*
X76708000Y-33748745D01*
X76688787Y-33807876D01*
X76638487Y-33844421D01*
X76627026Y-33847412D01*
X76504106Y-33871862D01*
X76376902Y-33924552D01*
X76262415Y-34001049D01*
X76262414Y-34001051D01*
X76165051Y-34098414D01*
X76165049Y-34098415D01*
X76088553Y-34212900D01*
X76034886Y-34342462D01*
X75994507Y-34389739D01*
X75934050Y-34404253D01*
X75886988Y-34385290D01*
X75885657Y-34387283D01*
X75767589Y-34308392D01*
X75767581Y-34308388D01*
X75640959Y-34255939D01*
X75551339Y-34238113D01*
X75506530Y-34229200D01*
X75369470Y-34229200D01*
X75335863Y-34235884D01*
X75235040Y-34255939D01*
X75108418Y-34308388D01*
X75108410Y-34308392D01*
X74994454Y-34384535D01*
X74994453Y-34384537D01*
X74897537Y-34481453D01*
X74897535Y-34481454D01*
X74821392Y-34595410D01*
X74821388Y-34595418D01*
X74768939Y-34722040D01*
X74742200Y-34856470D01*
X74742200Y-34993529D01*
X74768939Y-35127959D01*
X74821388Y-35254581D01*
X74821392Y-35254589D01*
X74897535Y-35368545D01*
X74994454Y-35465464D01*
X75108410Y-35541607D01*
X75108412Y-35541608D01*
X75108415Y-35541610D01*
X75112174Y-35543167D01*
X75235040Y-35594060D01*
X75235041Y-35594060D01*
X75235043Y-35594061D01*
X75369470Y-35620800D01*
X75369471Y-35620800D01*
X75506529Y-35620800D01*
X75506530Y-35620800D01*
X75640957Y-35594061D01*
X75752047Y-35548045D01*
X75814028Y-35543167D01*
X75867040Y-35575653D01*
X75890834Y-35633094D01*
X75876320Y-35693551D01*
X75861679Y-35712123D01*
X75389068Y-36184735D01*
X75333670Y-36212961D01*
X75317933Y-36214200D01*
X74527805Y-36214200D01*
X74468674Y-36194987D01*
X74440683Y-36163900D01*
X74412727Y-36115479D01*
X74313322Y-36016074D01*
X74191575Y-35945782D01*
X74055794Y-35909400D01*
X74055789Y-35909400D01*
X73915211Y-35909400D01*
X73915205Y-35909400D01*
X73806137Y-35938625D01*
X73744048Y-35935371D01*
X73695729Y-35896243D01*
X73679500Y-35841453D01*
X73679500Y-33480667D01*
X73698713Y-33421536D01*
X73708965Y-33409532D01*
X74175598Y-32942899D01*
X74652080Y-32466416D01*
X74707476Y-32438192D01*
X74768884Y-32447918D01*
X74812848Y-32491882D01*
X74822574Y-32553290D01*
X74816155Y-32576051D01*
X74768939Y-32690040D01*
X74749211Y-32789222D01*
X74742200Y-32824470D01*
X74742200Y-32961530D01*
X74745073Y-32975975D01*
X74768939Y-33095959D01*
X74821388Y-33222581D01*
X74821392Y-33222589D01*
X74897535Y-33336545D01*
X74994454Y-33433464D01*
X75108410Y-33509607D01*
X75108412Y-33509608D01*
X75108415Y-33509610D01*
X75148607Y-33526258D01*
X75235040Y-33562060D01*
X75235041Y-33562060D01*
X75235043Y-33562061D01*
X75369470Y-33588800D01*
X75369471Y-33588800D01*
X75506529Y-33588800D01*
X75506530Y-33588800D01*
X75640957Y-33562061D01*
X75767585Y-33509610D01*
X75881547Y-33433463D01*
X75978463Y-33336547D01*
X76054610Y-33222585D01*
X76107061Y-33095957D01*
X76133800Y-32961530D01*
X76133800Y-32824470D01*
X76107061Y-32690043D01*
X76100832Y-32675006D01*
X76059844Y-32576051D01*
X76054610Y-32563415D01*
X76050999Y-32558011D01*
X75978464Y-32449454D01*
X75881545Y-32352535D01*
X75767589Y-32276392D01*
X75767581Y-32276388D01*
X75684904Y-32242142D01*
X75637626Y-32201763D01*
X75623112Y-32141307D01*
X75646905Y-32083865D01*
X75699918Y-32051380D01*
X75723402Y-32048600D01*
X77011282Y-32048600D01*
X77070413Y-32067813D01*
G37*
G04 #@! TD.AperFunction*
G04 #@! TA.AperFunction,Conductor*
G36*
X62344440Y-31241504D02*
G01*
X62350265Y-31246887D01*
X62371335Y-31267957D01*
X62399561Y-31323355D01*
X62400800Y-31339092D01*
X62400800Y-31469729D01*
X62426796Y-31566747D01*
X62426798Y-31566752D01*
X62426799Y-31566754D01*
X62435116Y-31581159D01*
X62450208Y-31607300D01*
X62474665Y-31649662D01*
X62477024Y-31653747D01*
X62901342Y-32078065D01*
X63325235Y-32501958D01*
X63353461Y-32557356D01*
X63354700Y-32573093D01*
X63354700Y-33208986D01*
X63354701Y-33208994D01*
X63356333Y-33222589D01*
X63357221Y-33229979D01*
X63345194Y-33290979D01*
X63328473Y-33313107D01*
X62863437Y-33778144D01*
X62863436Y-33778145D01*
X62863435Y-33778144D01*
X62805997Y-33835583D01*
X62805994Y-33835587D01*
X62767250Y-33929127D01*
X62767250Y-34286254D01*
X62764740Y-34293975D01*
X62766011Y-34301997D01*
X62755314Y-34322985D01*
X62748037Y-34345385D01*
X62737781Y-34357393D01*
X62729415Y-34365758D01*
X62674015Y-34393981D01*
X62612607Y-34384252D01*
X62568646Y-34340285D01*
X62564708Y-34331547D01*
X62564085Y-34329967D01*
X62473926Y-34211074D01*
X62355033Y-34120915D01*
X62297975Y-34098414D01*
X62216223Y-34066174D01*
X62129008Y-34055701D01*
X62128999Y-34055700D01*
X62128995Y-34055700D01*
X62128988Y-34055700D01*
X61569013Y-34055700D01*
X61569005Y-34055701D01*
X61481778Y-34066174D01*
X61342967Y-34120915D01*
X61224073Y-34211074D01*
X61167159Y-34286128D01*
X61116121Y-34321635D01*
X61053959Y-34320361D01*
X61006841Y-34286128D01*
X60949926Y-34211074D01*
X60933561Y-34198664D01*
X60831033Y-34120915D01*
X60773975Y-34098414D01*
X60692223Y-34066174D01*
X60605008Y-34055701D01*
X60604999Y-34055700D01*
X60604995Y-34055700D01*
X60604988Y-34055700D01*
X60045013Y-34055700D01*
X60045005Y-34055701D01*
X59957778Y-34066174D01*
X59953896Y-34067705D01*
X59818967Y-34120915D01*
X59818966Y-34120915D01*
X59818965Y-34120916D01*
X59818964Y-34120916D01*
X59749685Y-34173452D01*
X59690960Y-34193872D01*
X59631448Y-34175874D01*
X59593880Y-34126333D01*
X59588300Y-34093293D01*
X59588300Y-33390530D01*
X59588300Y-33390524D01*
X59577584Y-33301289D01*
X59524217Y-33165959D01*
X59521586Y-33159288D01*
X59521585Y-33159285D01*
X59521584Y-33159284D01*
X59521584Y-33159283D01*
X59429348Y-33037652D01*
X59307717Y-32945416D01*
X59307716Y-32945415D01*
X59307714Y-32945414D01*
X59307711Y-32945413D01*
X59165714Y-32889417D01*
X59165712Y-32889416D01*
X59165711Y-32889416D01*
X59165709Y-32889415D01*
X59165706Y-32889415D01*
X59076489Y-32878701D01*
X59076480Y-32878700D01*
X59076476Y-32878700D01*
X58314524Y-32878700D01*
X58314520Y-32878700D01*
X58314508Y-32878701D01*
X58265046Y-32884641D01*
X58204046Y-32872616D01*
X58181917Y-32855894D01*
X57700446Y-32374423D01*
X57698163Y-32373105D01*
X57698162Y-32373105D01*
X57613455Y-32324199D01*
X57613450Y-32324197D01*
X57516429Y-32298200D01*
X57516425Y-32298200D01*
X56033802Y-32298200D01*
X56033786Y-32298199D01*
X56027625Y-32298199D01*
X55927175Y-32298199D01*
X55927172Y-32298199D01*
X55855006Y-32317537D01*
X55830147Y-32324198D01*
X55830146Y-32324198D01*
X55830144Y-32324199D01*
X55743152Y-32374424D01*
X55325753Y-32791824D01*
X55325752Y-32791823D01*
X55254727Y-32862849D01*
X55254723Y-32862855D01*
X55204499Y-32949845D01*
X55204496Y-32949852D01*
X55178500Y-33046870D01*
X55178500Y-35394229D01*
X55176768Y-35399557D01*
X55177917Y-35405041D01*
X55167299Y-35428699D01*
X55159287Y-35453360D01*
X55154755Y-35456652D01*
X55152461Y-35461765D01*
X55129960Y-35474666D01*
X55108987Y-35489905D01*
X55103385Y-35489905D01*
X55098525Y-35492692D01*
X55080437Y-35489905D01*
X55046813Y-35489905D01*
X55036710Y-35486010D01*
X55027793Y-35482008D01*
X55025033Y-35479915D01*
X55009327Y-35473721D01*
X55007210Y-35472771D01*
X54985805Y-35453383D01*
X54963534Y-35435009D01*
X54962822Y-35432565D01*
X54961129Y-35431032D01*
X54957937Y-35415794D01*
X54947800Y-35380990D01*
X54947800Y-32588887D01*
X54967013Y-32529756D01*
X54977265Y-32517752D01*
X56141052Y-31353965D01*
X56196450Y-31325739D01*
X56212187Y-31324500D01*
X61162460Y-31324500D01*
X61221591Y-31343713D01*
X61249582Y-31374800D01*
X61262874Y-31397822D01*
X61362278Y-31497226D01*
X61460950Y-31554195D01*
X61484024Y-31567517D01*
X61619805Y-31603899D01*
X61619809Y-31603899D01*
X61619811Y-31603900D01*
X61619813Y-31603900D01*
X61760387Y-31603900D01*
X61760389Y-31603900D01*
X61760391Y-31603899D01*
X61760394Y-31603899D01*
X61896174Y-31567517D01*
X61896175Y-31567517D01*
X61896175Y-31567516D01*
X61896178Y-31567516D01*
X62017922Y-31497226D01*
X62117326Y-31397822D01*
X62187616Y-31276078D01*
X62187616Y-31276076D01*
X62190913Y-31270367D01*
X62192991Y-31271567D01*
X62226539Y-31232264D01*
X62286990Y-31217730D01*
X62344440Y-31241504D01*
G37*
G04 #@! TD.AperFunction*
G04 #@! TA.AperFunction,Conductor*
G36*
X65056524Y-33064879D02*
G01*
X65145891Y-33104338D01*
X65171421Y-33107300D01*
X65394834Y-33107299D01*
X65453964Y-33126512D01*
X65490509Y-33176811D01*
X65490509Y-33238986D01*
X65465968Y-33279034D01*
X65341777Y-33403225D01*
X65321969Y-33451048D01*
X65306900Y-33487427D01*
X65306900Y-34261224D01*
X65287687Y-34320355D01*
X65250484Y-34351602D01*
X65236960Y-34358213D01*
X65147211Y-34447963D01*
X65126378Y-34490579D01*
X65083147Y-34535264D01*
X65021907Y-34546004D01*
X64966051Y-34518697D01*
X64945622Y-34490579D01*
X64924788Y-34447963D01*
X64924787Y-34447962D01*
X64924787Y-34447961D01*
X64835039Y-34358213D01*
X64835037Y-34358212D01*
X64835036Y-34358211D01*
X64721013Y-34302469D01*
X64721015Y-34302469D01*
X64647096Y-34291700D01*
X64424904Y-34291700D01*
X64424904Y-34291701D01*
X64350985Y-34302469D01*
X64330181Y-34312640D01*
X64268620Y-34321348D01*
X64241818Y-34312640D01*
X64221013Y-34302469D01*
X64147096Y-34291700D01*
X63924904Y-34291700D01*
X63924904Y-34291701D01*
X63850988Y-34302469D01*
X63850981Y-34302471D01*
X63736963Y-34358211D01*
X63647211Y-34447963D01*
X63626378Y-34490579D01*
X63583147Y-34535264D01*
X63521907Y-34546004D01*
X63466051Y-34518697D01*
X63445622Y-34490579D01*
X63424788Y-34447963D01*
X63424787Y-34447962D01*
X63424787Y-34447961D01*
X63335039Y-34358213D01*
X63335037Y-34358212D01*
X63335036Y-34358211D01*
X63332665Y-34357052D01*
X63330558Y-34355013D01*
X63328252Y-34353367D01*
X63328498Y-34353021D01*
X63315163Y-34340119D01*
X63295463Y-34325806D01*
X63293213Y-34318882D01*
X63287981Y-34313820D01*
X63276250Y-34266675D01*
X63276250Y-34126836D01*
X63295463Y-34067705D01*
X63305709Y-34055707D01*
X63645682Y-33715733D01*
X63701080Y-33687508D01*
X63753722Y-33693282D01*
X63767776Y-33698825D01*
X63855005Y-33709300D01*
X64414994Y-33709299D01*
X64502224Y-33698825D01*
X64641033Y-33644085D01*
X64759926Y-33553926D01*
X64850085Y-33435033D01*
X64904825Y-33296224D01*
X64915300Y-33208995D01*
X64915300Y-33156911D01*
X64934513Y-33097780D01*
X64984813Y-33061235D01*
X65046987Y-33061235D01*
X65056524Y-33064879D01*
G37*
G04 #@! TD.AperFunction*
G04 #@! TA.AperFunction,Conductor*
G36*
X78986064Y-32067813D02*
G01*
X78998068Y-32078065D01*
X79840580Y-32920577D01*
X79868806Y-32975975D01*
X79862388Y-33030207D01*
X79845862Y-33070107D01*
X79833611Y-33131698D01*
X79826797Y-33165959D01*
X79821413Y-33193025D01*
X79791034Y-33247272D01*
X79734571Y-33273303D01*
X79722746Y-33274000D01*
X78773254Y-33274000D01*
X78714123Y-33254787D01*
X78677578Y-33204487D01*
X78674587Y-33193025D01*
X78669658Y-33168243D01*
X78650138Y-33070109D01*
X78597446Y-32942899D01*
X78535573Y-32850300D01*
X78520950Y-32828415D01*
X78423584Y-32731049D01*
X78339709Y-32675006D01*
X78309101Y-32654554D01*
X78309098Y-32654552D01*
X78309097Y-32654552D01*
X78181893Y-32601862D01*
X78091860Y-32583954D01*
X78046845Y-32575000D01*
X78046844Y-32575000D01*
X78045146Y-32575000D01*
X78044405Y-32574759D01*
X78041925Y-32574515D01*
X78041978Y-32573970D01*
X77986015Y-32555787D01*
X77949470Y-32505487D01*
X77947974Y-32500437D01*
X77927017Y-32422225D01*
X77927017Y-32422224D01*
X77926036Y-32420525D01*
X77856726Y-32300478D01*
X77776583Y-32220335D01*
X77748357Y-32164937D01*
X77758083Y-32103529D01*
X77802047Y-32059565D01*
X77847718Y-32048600D01*
X78926933Y-32048600D01*
X78986064Y-32067813D01*
G37*
G04 #@! TD.AperFunction*
G04 #@! TA.AperFunction,Conductor*
G36*
X81298392Y-29851313D02*
G01*
X81334937Y-29901613D01*
X81334937Y-29963787D01*
X81319420Y-29993486D01*
X81237915Y-30100967D01*
X81183174Y-30239776D01*
X81172701Y-30326991D01*
X81172700Y-30327011D01*
X81172700Y-30886986D01*
X81172701Y-30886994D01*
X81183174Y-30974221D01*
X81183174Y-30974223D01*
X81183175Y-30974224D01*
X81237915Y-31113033D01*
X81328074Y-31231926D01*
X81365490Y-31260299D01*
X81366686Y-31261206D01*
X81402193Y-31312244D01*
X81406500Y-31341365D01*
X81406500Y-32634457D01*
X81387287Y-32693588D01*
X81361793Y-32718101D01*
X81342416Y-32731049D01*
X81342414Y-32731050D01*
X81245051Y-32828413D01*
X81236645Y-32840994D01*
X81187818Y-32879485D01*
X81125691Y-32881925D01*
X81073996Y-32847381D01*
X81069355Y-32840994D01*
X81063795Y-32832674D01*
X81060949Y-32828414D01*
X80963586Y-32731051D01*
X80963585Y-32731050D01*
X80963584Y-32731049D01*
X80879709Y-32675006D01*
X80849101Y-32654554D01*
X80849098Y-32654552D01*
X80849097Y-32654552D01*
X80721893Y-32601862D01*
X80631860Y-32583954D01*
X80586845Y-32575000D01*
X80449155Y-32575000D01*
X80415393Y-32581715D01*
X80314106Y-32601862D01*
X80274207Y-32618388D01*
X80212225Y-32623265D01*
X80164577Y-32596580D01*
X79193275Y-31625278D01*
X79193272Y-31625276D01*
X79133732Y-31600614D01*
X79133732Y-31600613D01*
X79109074Y-31590400D01*
X79109071Y-31590400D01*
X76917867Y-31590400D01*
X76858736Y-31571187D01*
X76822191Y-31520887D01*
X76822191Y-31458713D01*
X76858736Y-31408413D01*
X76898240Y-31391133D01*
X77015820Y-31367745D01*
X77207872Y-31288195D01*
X77380714Y-31172705D01*
X77527705Y-31025714D01*
X77643195Y-30852872D01*
X77722745Y-30660820D01*
X77763300Y-30456938D01*
X77763300Y-30249062D01*
X77722745Y-30045180D01*
X77704931Y-30002174D01*
X77692101Y-29971198D01*
X77687222Y-29909216D01*
X77719708Y-29856203D01*
X77777150Y-29832410D01*
X77785043Y-29832100D01*
X81239261Y-29832100D01*
X81298392Y-29851313D01*
G37*
G04 #@! TD.AperFunction*
G04 #@! TA.AperFunction,Conductor*
G36*
X69804638Y-23838713D02*
G01*
X69816642Y-23848965D01*
X70030235Y-24062558D01*
X70058461Y-24117956D01*
X70059700Y-24133693D01*
X70059700Y-24903625D01*
X70065707Y-24949261D01*
X70065709Y-24949265D01*
X70112417Y-25049432D01*
X70190568Y-25127583D01*
X70290735Y-25174291D01*
X70290736Y-25174291D01*
X70290738Y-25174292D01*
X70336375Y-25180300D01*
X70336376Y-25180300D01*
X70663625Y-25180300D01*
X70709261Y-25174292D01*
X70709262Y-25174291D01*
X70709265Y-25174291D01*
X70782486Y-25140147D01*
X70844196Y-25132571D01*
X70867512Y-25140147D01*
X70940735Y-25174291D01*
X70940736Y-25174291D01*
X70940738Y-25174292D01*
X70986375Y-25180300D01*
X70986376Y-25180300D01*
X71313614Y-25180300D01*
X71313624Y-25180300D01*
X71314035Y-25180245D01*
X71314145Y-25180266D01*
X71316908Y-25180085D01*
X71316953Y-25180785D01*
X71375167Y-25191559D01*
X71398324Y-25208846D01*
X72463535Y-26274057D01*
X72491761Y-26329455D01*
X72493000Y-26345192D01*
X72493000Y-27723358D01*
X72489572Y-27749396D01*
X72472000Y-27814972D01*
X72472000Y-28126688D01*
X72452787Y-28185819D01*
X72408308Y-28220273D01*
X72355969Y-28240914D01*
X72355968Y-28240914D01*
X72355967Y-28240915D01*
X72237074Y-28331074D01*
X72203538Y-28375299D01*
X72202909Y-28376128D01*
X72151871Y-28411635D01*
X72089710Y-28410361D01*
X72042591Y-28376128D01*
X72041963Y-28375300D01*
X72008426Y-28331074D01*
X71889533Y-28240915D01*
X71798131Y-28204870D01*
X71750723Y-28186174D01*
X71663508Y-28175701D01*
X71663499Y-28175700D01*
X71663495Y-28175700D01*
X71663488Y-28175700D01*
X70978513Y-28175700D01*
X70978505Y-28175701D01*
X70891278Y-28186174D01*
X70752467Y-28240915D01*
X70633574Y-28331074D01*
X70543415Y-28449967D01*
X70488674Y-28588776D01*
X70478201Y-28675991D01*
X70478200Y-28676011D01*
X70478200Y-29235986D01*
X70478201Y-29235994D01*
X70488674Y-29323221D01*
X70488674Y-29323223D01*
X70488675Y-29323224D01*
X70543415Y-29462033D01*
X70633574Y-29580926D01*
X70752467Y-29671085D01*
X70891276Y-29725825D01*
X70978505Y-29736300D01*
X71663494Y-29736299D01*
X71750724Y-29725825D01*
X71889533Y-29671085D01*
X72008426Y-29580926D01*
X72042591Y-29535871D01*
X72093629Y-29500365D01*
X72155790Y-29501639D01*
X72191792Y-29523490D01*
X72197864Y-29529219D01*
X72237074Y-29580926D01*
X72316442Y-29641112D01*
X72320384Y-29644832D01*
X72332822Y-29667586D01*
X72347635Y-29688879D01*
X72347520Y-29694476D01*
X72350205Y-29699388D01*
X72346892Y-29725111D01*
X72346361Y-29751041D01*
X72342948Y-29755738D01*
X72342264Y-29761053D01*
X72328454Y-29775687D01*
X72312128Y-29798159D01*
X72237074Y-29855073D01*
X72146915Y-29973967D01*
X72092174Y-30112776D01*
X72081701Y-30199991D01*
X72081700Y-30200011D01*
X72081700Y-30691606D01*
X72062487Y-30750737D01*
X72052235Y-30762741D01*
X71520753Y-31294224D01*
X71520752Y-31294223D01*
X71449727Y-31365249D01*
X71449723Y-31365255D01*
X71399499Y-31452245D01*
X71399496Y-31452252D01*
X71373500Y-31549270D01*
X71373500Y-32154177D01*
X71354287Y-32213308D01*
X71303987Y-32249853D01*
X71246864Y-32251349D01*
X71123896Y-32218401D01*
X71123890Y-32218400D01*
X71123889Y-32218400D01*
X70983311Y-32218400D01*
X70983305Y-32218400D01*
X70847525Y-32254782D01*
X70847524Y-32254782D01*
X70725777Y-32325074D01*
X70688217Y-32362635D01*
X70632819Y-32390861D01*
X70617082Y-32392100D01*
X69038059Y-32392100D01*
X68978928Y-32372887D01*
X68942383Y-32322587D01*
X68940887Y-32317537D01*
X68924217Y-32255325D01*
X68924217Y-32255324D01*
X68891914Y-32199374D01*
X68853926Y-32133578D01*
X68754522Y-32034174D01*
X68713944Y-32010746D01*
X68632775Y-31963882D01*
X68496994Y-31927500D01*
X68496989Y-31927500D01*
X68356411Y-31927500D01*
X68356405Y-31927500D01*
X68220625Y-31963882D01*
X68220624Y-31963882D01*
X68098877Y-32034174D01*
X68063235Y-32069817D01*
X68007837Y-32098043D01*
X67946429Y-32088317D01*
X67902465Y-32044353D01*
X67891500Y-31998682D01*
X67891500Y-30666705D01*
X67910713Y-30607574D01*
X67941800Y-30579583D01*
X67990220Y-30551627D01*
X67990222Y-30551626D01*
X68026123Y-30515725D01*
X68089626Y-30452222D01*
X68159916Y-30330478D01*
X68171764Y-30286261D01*
X68196299Y-30194694D01*
X68196300Y-30194687D01*
X68196300Y-30054112D01*
X68196299Y-30054105D01*
X68159917Y-29918325D01*
X68159917Y-29918324D01*
X68155802Y-29911196D01*
X68089626Y-29796578D01*
X67990222Y-29697174D01*
X67960972Y-29680286D01*
X67941798Y-29669215D01*
X67900197Y-29623010D01*
X67891500Y-29582094D01*
X67891500Y-28359017D01*
X67910713Y-28299886D01*
X67961013Y-28263341D01*
X68018135Y-28261845D01*
X68128811Y-28291500D01*
X68128813Y-28291500D01*
X68269387Y-28291500D01*
X68269389Y-28291500D01*
X68269391Y-28291499D01*
X68269394Y-28291499D01*
X68405174Y-28255117D01*
X68405175Y-28255117D01*
X68405175Y-28255116D01*
X68405178Y-28255116D01*
X68526922Y-28184826D01*
X68626326Y-28085422D01*
X68643667Y-28055387D01*
X68654283Y-28037000D01*
X68700488Y-27995397D01*
X68741405Y-27986700D01*
X69592372Y-27986700D01*
X69598931Y-27983982D01*
X69617026Y-27976486D01*
X69617032Y-27976486D01*
X69617032Y-27976484D01*
X69617033Y-27976484D01*
X69676575Y-27951822D01*
X70428631Y-27199764D01*
X70435864Y-27196079D01*
X70440635Y-27189513D01*
X70463040Y-27182233D01*
X70484029Y-27171539D01*
X70499766Y-27170300D01*
X70510900Y-27170300D01*
X70570031Y-27189513D01*
X70606576Y-27239813D01*
X70611500Y-27270900D01*
X70611500Y-27400694D01*
X70647882Y-27536474D01*
X70647882Y-27536475D01*
X70707421Y-27639598D01*
X70718174Y-27658222D01*
X70817578Y-27757626D01*
X70939322Y-27827916D01*
X70939324Y-27827917D01*
X71075105Y-27864299D01*
X71075109Y-27864299D01*
X71075111Y-27864300D01*
X71075113Y-27864300D01*
X71215687Y-27864300D01*
X71215689Y-27864300D01*
X71215691Y-27864299D01*
X71215694Y-27864299D01*
X71351474Y-27827917D01*
X71351475Y-27827917D01*
X71351475Y-27827916D01*
X71351478Y-27827916D01*
X71473222Y-27757626D01*
X71572626Y-27658222D01*
X71642916Y-27536478D01*
X71669287Y-27438060D01*
X71679299Y-27400694D01*
X71679300Y-27400687D01*
X71679300Y-27260112D01*
X71679299Y-27260105D01*
X71642917Y-27124325D01*
X71642917Y-27124324D01*
X71639025Y-27117583D01*
X71588930Y-27030817D01*
X71576004Y-26970004D01*
X71582455Y-26946743D01*
X71582138Y-26946651D01*
X71584292Y-26939261D01*
X71590300Y-26893625D01*
X71590300Y-26096374D01*
X71584292Y-26050738D01*
X71583945Y-26049994D01*
X71537583Y-25950568D01*
X71459432Y-25872417D01*
X71432484Y-25859851D01*
X71359261Y-25825707D01*
X71313625Y-25819700D01*
X71313624Y-25819700D01*
X70986376Y-25819700D01*
X70986375Y-25819700D01*
X70940738Y-25825707D01*
X70940735Y-25825708D01*
X70867514Y-25859851D01*
X70805803Y-25867427D01*
X70782486Y-25859851D01*
X70709264Y-25825708D01*
X70709261Y-25825707D01*
X70663625Y-25819700D01*
X70663624Y-25819700D01*
X70336376Y-25819700D01*
X70336375Y-25819700D01*
X70290738Y-25825707D01*
X70290735Y-25825708D01*
X70217514Y-25859851D01*
X70155803Y-25867427D01*
X70132486Y-25859851D01*
X70059264Y-25825708D01*
X70059261Y-25825707D01*
X70013625Y-25819700D01*
X70013624Y-25819700D01*
X69686376Y-25819700D01*
X69686375Y-25819700D01*
X69640738Y-25825707D01*
X69540567Y-25872417D01*
X69462417Y-25950567D01*
X69415707Y-26050738D01*
X69409700Y-26096374D01*
X69409700Y-26165300D01*
X69390487Y-26224431D01*
X69340187Y-26260976D01*
X69309100Y-26265900D01*
X68611129Y-26265900D01*
X68600024Y-26270500D01*
X68600022Y-26270500D01*
X68526930Y-26300775D01*
X68526925Y-26300778D01*
X67468178Y-27359524D01*
X67468178Y-27359525D01*
X67452357Y-27397722D01*
X67435875Y-27437512D01*
X67433300Y-27443729D01*
X67433300Y-28618237D01*
X67414087Y-28677368D01*
X67363787Y-28713913D01*
X67301613Y-28713913D01*
X67282403Y-28705361D01*
X67278979Y-28703384D01*
X67278974Y-28703382D01*
X67143194Y-28667000D01*
X67143189Y-28667000D01*
X67002611Y-28667000D01*
X67002609Y-28667000D01*
X66948600Y-28681471D01*
X66886511Y-28678215D01*
X66851430Y-28655433D01*
X62476774Y-24280777D01*
X62403676Y-24250500D01*
X62403674Y-24250499D01*
X62392571Y-24245900D01*
X61605900Y-24245900D01*
X61546769Y-24226687D01*
X61510224Y-24176387D01*
X61505300Y-24145300D01*
X61505300Y-24106530D01*
X61505300Y-24106524D01*
X61494584Y-24017289D01*
X61470810Y-23957004D01*
X61466992Y-23894949D01*
X61500378Y-23842499D01*
X61558217Y-23819690D01*
X61564397Y-23819500D01*
X69494975Y-23819500D01*
X69745507Y-23819500D01*
X69804638Y-23838713D01*
G37*
G04 #@! TD.AperFunction*
G04 #@! TA.AperFunction,Conductor*
G36*
X59439771Y-24356056D02*
G01*
X59483735Y-24400020D01*
X59494700Y-24445691D01*
X59494700Y-24843469D01*
X59494701Y-24843489D01*
X59505415Y-24932706D01*
X59505417Y-24932714D01*
X59561413Y-25074711D01*
X59561414Y-25074714D01*
X59561415Y-25074716D01*
X59561416Y-25074717D01*
X59653652Y-25196348D01*
X59775283Y-25288584D01*
X59775284Y-25288584D01*
X59775285Y-25288585D01*
X59775288Y-25288586D01*
X59917289Y-25344584D01*
X60006524Y-25355300D01*
X60006530Y-25355300D01*
X60993470Y-25355300D01*
X60993476Y-25355300D01*
X61082711Y-25344584D01*
X61224717Y-25288584D01*
X61346348Y-25196348D01*
X61438584Y-25074717D01*
X61494584Y-24932711D01*
X61505300Y-24843476D01*
X61505300Y-24804700D01*
X61524513Y-24745569D01*
X61574813Y-24709024D01*
X61605900Y-24704100D01*
X62210433Y-24704100D01*
X62269564Y-24723313D01*
X62281568Y-24733565D01*
X66527433Y-28979430D01*
X66555659Y-29034828D01*
X66553471Y-29076600D01*
X66539000Y-29130609D01*
X66539000Y-29271194D01*
X66575382Y-29406974D01*
X66575382Y-29406975D01*
X66607380Y-29462396D01*
X66645674Y-29528722D01*
X66745078Y-29628126D01*
X66850304Y-29688879D01*
X66866824Y-29698417D01*
X67002605Y-29734799D01*
X67002609Y-29734799D01*
X67002611Y-29734800D01*
X67002613Y-29734800D01*
X67096596Y-29734800D01*
X67155727Y-29754013D01*
X67192272Y-29804313D01*
X67192272Y-29866487D01*
X67183718Y-29885700D01*
X67164884Y-29918320D01*
X67164882Y-29918325D01*
X67128500Y-30054105D01*
X67128500Y-30194687D01*
X67128501Y-30194696D01*
X67150582Y-30277107D01*
X67147328Y-30339196D01*
X67108200Y-30387514D01*
X67048144Y-30403605D01*
X66990099Y-30381323D01*
X66982275Y-30374278D01*
X66860874Y-30252877D01*
X66789285Y-30223225D01*
X66776671Y-30218000D01*
X66776670Y-30218000D01*
X66291305Y-30218000D01*
X66232174Y-30198787D01*
X66204183Y-30167700D01*
X66176227Y-30119279D01*
X66076822Y-30019874D01*
X65955075Y-29949582D01*
X65819294Y-29913200D01*
X65819289Y-29913200D01*
X65678711Y-29913200D01*
X65678705Y-29913200D01*
X65542925Y-29949582D01*
X65542924Y-29949582D01*
X65421177Y-30019874D01*
X65321774Y-30119277D01*
X65251482Y-30241024D01*
X65251482Y-30241025D01*
X65215100Y-30376805D01*
X65215100Y-30517394D01*
X65251482Y-30653174D01*
X65251482Y-30653175D01*
X65278033Y-30699162D01*
X65321774Y-30774922D01*
X65421178Y-30874326D01*
X65542356Y-30944289D01*
X65542924Y-30944617D01*
X65678705Y-30980999D01*
X65678709Y-30980999D01*
X65678711Y-30981000D01*
X65678713Y-30981000D01*
X65819287Y-30981000D01*
X65819289Y-30981000D01*
X65819291Y-30980999D01*
X65819294Y-30980999D01*
X65931389Y-30950963D01*
X65955074Y-30944617D01*
X65955075Y-30944617D01*
X65955075Y-30944616D01*
X65955078Y-30944616D01*
X66076822Y-30874326D01*
X66176226Y-30774922D01*
X66204183Y-30726500D01*
X66219812Y-30712427D01*
X66232174Y-30695413D01*
X66242398Y-30692090D01*
X66250388Y-30684897D01*
X66291305Y-30676200D01*
X66375652Y-30676200D01*
X66434783Y-30695413D01*
X66471328Y-30745713D01*
X66471328Y-30807887D01*
X66467680Y-30817434D01*
X66439662Y-30880888D01*
X66439662Y-30880889D01*
X66436700Y-30906418D01*
X66436700Y-31347571D01*
X66436702Y-31347593D01*
X66438768Y-31365408D01*
X66438768Y-31388586D01*
X66436700Y-31406408D01*
X66436700Y-31847571D01*
X66436702Y-31847593D01*
X66438768Y-31865408D01*
X66439425Y-31878625D01*
X66439343Y-31883632D01*
X66436700Y-31906421D01*
X66436700Y-32046926D01*
X66436687Y-32047729D01*
X66426851Y-32076411D01*
X66417487Y-32105231D01*
X66416796Y-32105732D01*
X66416519Y-32106541D01*
X66391702Y-32123964D01*
X66367187Y-32141776D01*
X66366084Y-32141950D01*
X66365634Y-32142267D01*
X66364230Y-32142244D01*
X66336101Y-32146700D01*
X66196428Y-32146700D01*
X66196403Y-32146702D01*
X66178590Y-32148768D01*
X66155411Y-32148768D01*
X66137587Y-32146700D01*
X66137579Y-32146700D01*
X65997899Y-32146700D01*
X65938768Y-32127487D01*
X65902223Y-32077187D01*
X65897299Y-32046100D01*
X65897299Y-31906428D01*
X65897298Y-31906418D01*
X65894338Y-31880891D01*
X65893337Y-31878625D01*
X65848234Y-31776475D01*
X65767524Y-31695765D01*
X65663110Y-31649662D01*
X65637579Y-31646700D01*
X65171428Y-31646700D01*
X65171413Y-31646701D01*
X65145891Y-31649662D01*
X65145888Y-31649662D01*
X65041475Y-31695765D01*
X64960765Y-31776475D01*
X64914662Y-31880888D01*
X64914662Y-31880889D01*
X64911700Y-31906418D01*
X64911700Y-32091626D01*
X64892487Y-32150757D01*
X64842187Y-32187302D01*
X64780013Y-32187302D01*
X64750314Y-32171785D01*
X64717237Y-32146702D01*
X64641033Y-32088915D01*
X64551155Y-32053471D01*
X64502223Y-32034174D01*
X64415008Y-32023701D01*
X64414999Y-32023700D01*
X64414995Y-32023700D01*
X64414989Y-32023700D01*
X63967693Y-32023700D01*
X63908562Y-32004487D01*
X63896558Y-31994235D01*
X63193265Y-31290942D01*
X63165039Y-31235544D01*
X63163800Y-31219807D01*
X63163800Y-31089176D01*
X63163799Y-31089170D01*
X63137803Y-30992152D01*
X63137801Y-30992149D01*
X63137801Y-30992146D01*
X63087576Y-30905153D01*
X63056686Y-30874263D01*
X63013051Y-30830627D01*
X63013028Y-30830606D01*
X62634644Y-30452222D01*
X62247247Y-30064824D01*
X62239248Y-30060206D01*
X62213222Y-30045180D01*
X62213222Y-30045179D01*
X62213220Y-30045179D01*
X62160255Y-30014599D01*
X62160250Y-30014597D01*
X62063229Y-29988600D01*
X62063225Y-29988600D01*
X60113792Y-29988600D01*
X60106071Y-29986091D01*
X60098055Y-29987361D01*
X60077066Y-29976666D01*
X60054661Y-29969387D01*
X60042657Y-29959135D01*
X59991556Y-29908034D01*
X59963330Y-29852636D01*
X59973056Y-29791228D01*
X60017020Y-29747264D01*
X60062687Y-29736299D01*
X60617494Y-29736299D01*
X60704724Y-29725825D01*
X60843533Y-29671085D01*
X60962426Y-29580926D01*
X61052585Y-29462033D01*
X61107325Y-29323224D01*
X61117800Y-29235995D01*
X61117799Y-28676006D01*
X61107325Y-28588776D01*
X61052585Y-28449967D01*
X60962426Y-28331074D01*
X60843533Y-28240915D01*
X60704724Y-28186175D01*
X60704723Y-28186174D01*
X60704724Y-28186174D01*
X60644605Y-28178955D01*
X60588186Y-28152829D01*
X60557900Y-28098530D01*
X60556000Y-28079073D01*
X60556000Y-27505900D01*
X60575213Y-27446769D01*
X60625513Y-27410224D01*
X60656600Y-27405300D01*
X60993470Y-27405300D01*
X60993476Y-27405300D01*
X61082711Y-27394584D01*
X61224717Y-27338584D01*
X61346348Y-27246348D01*
X61438584Y-27124717D01*
X61494584Y-26982711D01*
X61505300Y-26893476D01*
X61505300Y-26156524D01*
X61494584Y-26067289D01*
X61438584Y-25925283D01*
X61346348Y-25803652D01*
X61224717Y-25711416D01*
X61224716Y-25711415D01*
X61224714Y-25711414D01*
X61224711Y-25711413D01*
X61082714Y-25655417D01*
X61082712Y-25655416D01*
X61082711Y-25655416D01*
X61082709Y-25655415D01*
X61082706Y-25655415D01*
X60993489Y-25644701D01*
X60993480Y-25644700D01*
X60993476Y-25644700D01*
X60006524Y-25644700D01*
X60006519Y-25644700D01*
X60006510Y-25644701D01*
X59917293Y-25655415D01*
X59917285Y-25655417D01*
X59775288Y-25711413D01*
X59775285Y-25711414D01*
X59653652Y-25803652D01*
X59561414Y-25925285D01*
X59561413Y-25925288D01*
X59505417Y-26067285D01*
X59505415Y-26067293D01*
X59494701Y-26156510D01*
X59494700Y-26156530D01*
X59494700Y-26893469D01*
X59494701Y-26893489D01*
X59505415Y-26982706D01*
X59505417Y-26982714D01*
X59561413Y-27124711D01*
X59561414Y-27124714D01*
X59561415Y-27124716D01*
X59561416Y-27124717D01*
X59653652Y-27246348D01*
X59775283Y-27338584D01*
X59775284Y-27338584D01*
X59775285Y-27338585D01*
X59775288Y-27338586D01*
X59917289Y-27394584D01*
X59958394Y-27399520D01*
X60014813Y-27425645D01*
X60045100Y-27479943D01*
X60047000Y-27499402D01*
X60047000Y-28084716D01*
X60027787Y-28143847D01*
X59977487Y-28180392D01*
X59958398Y-28184598D01*
X59945280Y-28186173D01*
X59806467Y-28240915D01*
X59687574Y-28331074D01*
X59597415Y-28449967D01*
X59542674Y-28588776D01*
X59532201Y-28675991D01*
X59532200Y-28676011D01*
X59532200Y-29205808D01*
X59524919Y-29228213D01*
X59521235Y-29251479D01*
X59515495Y-29257218D01*
X59512987Y-29264939D01*
X59493927Y-29278786D01*
X59477271Y-29295443D01*
X59469254Y-29296712D01*
X59462687Y-29301484D01*
X59439129Y-29301484D01*
X59415863Y-29305169D01*
X59408631Y-29301484D01*
X59400513Y-29301484D01*
X59360465Y-29276943D01*
X59322264Y-29238742D01*
X59294038Y-29183344D01*
X59292799Y-29167607D01*
X59292799Y-28676013D01*
X59292799Y-28676011D01*
X59292799Y-28676006D01*
X59282325Y-28588776D01*
X59227585Y-28449967D01*
X59137426Y-28331074D01*
X59018533Y-28240915D01*
X58927131Y-28204870D01*
X58879723Y-28186174D01*
X58792508Y-28175701D01*
X58792499Y-28175700D01*
X58792495Y-28175700D01*
X58792489Y-28175700D01*
X58300893Y-28175700D01*
X58241762Y-28156487D01*
X58229758Y-28146235D01*
X56961657Y-26878134D01*
X56933431Y-26822736D01*
X56943157Y-26761328D01*
X56961657Y-26735864D01*
X58192485Y-25505036D01*
X59322966Y-24374555D01*
X59378363Y-24346330D01*
X59439771Y-24356056D01*
G37*
G04 #@! TD.AperFunction*
G04 #@! TA.AperFunction,Conductor*
G36*
X55160938Y-26158213D02*
G01*
X55172942Y-26168465D01*
X57677735Y-28673258D01*
X57705961Y-28728656D01*
X57707200Y-28744393D01*
X57707200Y-29235986D01*
X57707201Y-29235994D01*
X57717674Y-29323221D01*
X57717674Y-29323223D01*
X57717675Y-29323224D01*
X57772415Y-29462033D01*
X57862574Y-29580926D01*
X57981467Y-29671085D01*
X58120276Y-29725825D01*
X58207505Y-29736300D01*
X58699106Y-29736299D01*
X58758237Y-29755512D01*
X58770241Y-29765764D01*
X59608822Y-30604344D01*
X59608824Y-30604347D01*
X59648244Y-30643767D01*
X59654525Y-30656094D01*
X59676469Y-30699162D01*
X59666744Y-30760570D01*
X59622780Y-30804535D01*
X59577108Y-30815500D01*
X56014477Y-30815500D01*
X55987080Y-30826847D01*
X55920937Y-30854244D01*
X55920936Y-30854245D01*
X55849344Y-30925838D01*
X54764434Y-32010746D01*
X54709036Y-32038972D01*
X54647627Y-32029246D01*
X54622164Y-32010746D01*
X53892527Y-31281109D01*
X53864301Y-31225711D01*
X53863780Y-31197977D01*
X53864128Y-31195084D01*
X53866300Y-31176995D01*
X53866299Y-30492006D01*
X53855825Y-30404776D01*
X53801085Y-30265967D01*
X53710926Y-30147074D01*
X53592033Y-30056915D01*
X53537292Y-30035327D01*
X53453223Y-30002174D01*
X53366008Y-29991701D01*
X53365999Y-29991700D01*
X53365995Y-29991700D01*
X53365988Y-29991700D01*
X52806013Y-29991700D01*
X52806005Y-29991701D01*
X52718778Y-30002174D01*
X52708810Y-30006105D01*
X52579967Y-30056915D01*
X52461074Y-30147074D01*
X52370915Y-30265967D01*
X52334894Y-30357308D01*
X52316980Y-30379022D01*
X52300441Y-30401787D01*
X52297379Y-30402781D01*
X52295330Y-30405266D01*
X52241310Y-30421000D01*
X52126899Y-30421000D01*
X52067768Y-30401787D01*
X52031223Y-30351487D01*
X52026299Y-30320400D01*
X52026299Y-30006105D01*
X52025677Y-30002175D01*
X52011268Y-29911194D01*
X51982673Y-29855073D01*
X51952984Y-29796804D01*
X51952983Y-29796803D01*
X51952982Y-29796801D01*
X51862199Y-29706018D01*
X51862196Y-29706016D01*
X51862195Y-29706015D01*
X51862196Y-29706015D01*
X51747809Y-29647733D01*
X51747803Y-29647731D01*
X51652902Y-29632700D01*
X51602665Y-29632700D01*
X51543534Y-29613487D01*
X51506989Y-29563187D01*
X51506989Y-29501013D01*
X51531528Y-29460967D01*
X52606781Y-28385714D01*
X52662177Y-28357490D01*
X52714818Y-28363265D01*
X52718650Y-28364775D01*
X52718776Y-28364825D01*
X52806005Y-28375300D01*
X53365994Y-28375299D01*
X53453224Y-28364825D01*
X53592033Y-28310085D01*
X53710926Y-28219926D01*
X53801085Y-28101033D01*
X53855825Y-27962224D01*
X53866300Y-27874995D01*
X53866299Y-27290006D01*
X53855825Y-27202776D01*
X53836551Y-27153903D01*
X53832733Y-27091850D01*
X53866118Y-27039400D01*
X53923957Y-27016590D01*
X53930138Y-27016400D01*
X54270997Y-27016400D01*
X54330128Y-27035613D01*
X54366673Y-27085913D01*
X54368169Y-27090963D01*
X54388482Y-27166774D01*
X54388482Y-27166775D01*
X54442355Y-27260084D01*
X54458774Y-27288522D01*
X54558178Y-27387926D01*
X54671863Y-27453563D01*
X54679924Y-27458217D01*
X54815705Y-27494599D01*
X54815709Y-27494599D01*
X54815711Y-27494600D01*
X54815713Y-27494600D01*
X54956287Y-27494600D01*
X54956289Y-27494600D01*
X54956291Y-27494599D01*
X54956294Y-27494599D01*
X55092074Y-27458217D01*
X55092075Y-27458217D01*
X55092075Y-27458216D01*
X55092078Y-27458216D01*
X55213822Y-27387926D01*
X55313226Y-27288522D01*
X55383516Y-27166778D01*
X55401569Y-27099403D01*
X55419899Y-27030994D01*
X55419900Y-27030987D01*
X55419900Y-26890412D01*
X55419899Y-26890405D01*
X55383517Y-26754625D01*
X55383517Y-26754624D01*
X55378214Y-26745439D01*
X55313226Y-26632878D01*
X55213822Y-26533474D01*
X55181515Y-26514821D01*
X55092075Y-26463182D01*
X54956294Y-26426800D01*
X54956289Y-26426800D01*
X54815711Y-26426800D01*
X54815705Y-26426800D01*
X54679925Y-26463182D01*
X54679924Y-26463182D01*
X54558177Y-26533474D01*
X54553046Y-26537412D01*
X54494438Y-26558166D01*
X54491805Y-26558200D01*
X53789653Y-26558200D01*
X53730522Y-26538987D01*
X53693977Y-26488687D01*
X53693977Y-26426513D01*
X53709494Y-26396814D01*
X53713216Y-26391906D01*
X53801085Y-26276033D01*
X53830007Y-26202692D01*
X53869572Y-26154734D01*
X53923592Y-26139000D01*
X55101807Y-26139000D01*
X55160938Y-26158213D01*
G37*
G04 #@! TD.AperFunction*
G04 #@! TA.AperFunction,Conductor*
G36*
X80278231Y-23991813D02*
G01*
X80314776Y-24042113D01*
X80319700Y-24073200D01*
X80319701Y-24589600D01*
X80300488Y-24648731D01*
X80250188Y-24685276D01*
X80219101Y-24690200D01*
X79650014Y-24690200D01*
X79621414Y-24691522D01*
X79511913Y-24722676D01*
X79511906Y-24722680D01*
X79421057Y-24791286D01*
X79421056Y-24791287D01*
X79361120Y-24888086D01*
X79361119Y-24888089D01*
X79340200Y-24999998D01*
X79340200Y-25700002D01*
X79340530Y-25714308D01*
X79366596Y-25825133D01*
X79430939Y-25919063D01*
X79488649Y-25976773D01*
X79516875Y-26032171D01*
X79507149Y-26093579D01*
X79463185Y-26137543D01*
X79458149Y-26139936D01*
X79449475Y-26143765D01*
X79368765Y-26224475D01*
X79322662Y-26328888D01*
X79322662Y-26328889D01*
X79319700Y-26354418D01*
X79319700Y-26995571D01*
X79319701Y-26995586D01*
X79322069Y-27016002D01*
X79322662Y-27021109D01*
X79344206Y-27069901D01*
X79368593Y-27125134D01*
X79374901Y-27186988D01*
X79347699Y-27236903D01*
X78704268Y-27880335D01*
X78697034Y-27884020D01*
X78692264Y-27890587D01*
X78669858Y-27897866D01*
X78648870Y-27908561D01*
X78633133Y-27909800D01*
X78511847Y-27909800D01*
X78452716Y-27890587D01*
X78416171Y-27840287D01*
X78414675Y-27783163D01*
X78443899Y-27674094D01*
X78443900Y-27674087D01*
X78443900Y-27533512D01*
X78443899Y-27533508D01*
X78429428Y-27479500D01*
X78432681Y-27417414D01*
X78455462Y-27382333D01*
X78654822Y-27182975D01*
X78689700Y-27098770D01*
X78689700Y-27007630D01*
X78689700Y-24862266D01*
X78708913Y-24803135D01*
X78719165Y-24791131D01*
X79508231Y-24002065D01*
X79563629Y-23973839D01*
X79579366Y-23972600D01*
X80219100Y-23972600D01*
X80278231Y-23991813D01*
G37*
G04 #@! TD.AperFunction*
G04 #@! TD*
M02*
