G04 #@! TF.GenerationSoftware,KiCad,Pcbnew,8.0.0*
G04 #@! TF.CreationDate,2024-03-21T15:59:00+02:00*
G04 #@! TF.ProjectId,iot-risk-logger-stm32l4,696f742d-7269-4736-9b2d-6c6f67676572,1.0.0*
G04 #@! TF.SameCoordinates,Original*
G04 #@! TF.FileFunction,Copper,L1,Top*
G04 #@! TF.FilePolarity,Positive*
%FSLAX46Y46*%
G04 Gerber Fmt 4.6, Leading zero omitted, Abs format (unit mm)*
G04 Created by KiCad (PCBNEW 8.0.0) date 2024-03-21 15:59:00*
%MOMM*%
%LPD*%
G01*
G04 APERTURE LIST*
G04 Aperture macros list*
%AMRoundRect*
0 Rectangle with rounded corners*
0 $1 Rounding radius*
0 $2 $3 $4 $5 $6 $7 $8 $9 X,Y pos of 4 corners*
0 Add a 4 corners polygon primitive as box body*
4,1,4,$2,$3,$4,$5,$6,$7,$8,$9,$2,$3,0*
0 Add four circle primitives for the rounded corners*
1,1,$1+$1,$2,$3*
1,1,$1+$1,$4,$5*
1,1,$1+$1,$6,$7*
1,1,$1+$1,$8,$9*
0 Add four rect primitives between the rounded corners*
20,1,$1+$1,$2,$3,$4,$5,0*
20,1,$1+$1,$4,$5,$6,$7,0*
20,1,$1+$1,$6,$7,$8,$9,0*
20,1,$1+$1,$8,$9,$2,$3,0*%
%AMFreePoly0*
4,1,6,0.500000,-0.850000,-0.500000,-0.850000,-0.500000,0.550000,-0.200000,0.850000,0.500000,0.850000,0.500000,-0.850000,0.500000,-0.850000,$1*%
G04 Aperture macros list end*
G04 #@! TA.AperFunction,Conductor*
%ADD10C,0.100000*%
G04 #@! TD*
G04 #@! TA.AperFunction,EtchedComponent*
%ADD11C,0.508000*%
G04 #@! TD*
G04 #@! TA.AperFunction,SMDPad,CuDef*
%ADD12RoundRect,0.150000X-0.150000X0.587500X-0.150000X-0.587500X0.150000X-0.587500X0.150000X0.587500X0*%
G04 #@! TD*
G04 #@! TA.AperFunction,ComponentPad*
%ADD13C,1.500000*%
G04 #@! TD*
G04 #@! TA.AperFunction,SMDPad,CuDef*
%ADD14RoundRect,0.237500X0.250000X0.237500X-0.250000X0.237500X-0.250000X-0.237500X0.250000X-0.237500X0*%
G04 #@! TD*
G04 #@! TA.AperFunction,SMDPad,CuDef*
%ADD15RoundRect,0.225000X-0.250000X0.225000X-0.250000X-0.225000X0.250000X-0.225000X0.250000X0.225000X0*%
G04 #@! TD*
G04 #@! TA.AperFunction,SMDPad,CuDef*
%ADD16RoundRect,0.237500X0.300000X0.237500X-0.300000X0.237500X-0.300000X-0.237500X0.300000X-0.237500X0*%
G04 #@! TD*
G04 #@! TA.AperFunction,SMDPad,CuDef*
%ADD17RoundRect,0.237500X0.237500X-0.250000X0.237500X0.250000X-0.237500X0.250000X-0.237500X-0.250000X0*%
G04 #@! TD*
G04 #@! TA.AperFunction,SMDPad,CuDef*
%ADD18RoundRect,0.237500X-0.300000X-0.237500X0.300000X-0.237500X0.300000X0.237500X-0.300000X0.237500X0*%
G04 #@! TD*
G04 #@! TA.AperFunction,SMDPad,CuDef*
%ADD19RoundRect,0.250000X-0.450000X0.325000X-0.450000X-0.325000X0.450000X-0.325000X0.450000X0.325000X0*%
G04 #@! TD*
G04 #@! TA.AperFunction,SMDPad,CuDef*
%ADD20RoundRect,0.237500X-0.250000X-0.237500X0.250000X-0.237500X0.250000X0.237500X-0.250000X0.237500X0*%
G04 #@! TD*
G04 #@! TA.AperFunction,SMDPad,CuDef*
%ADD21R,0.250000X0.550000*%
G04 #@! TD*
G04 #@! TA.AperFunction,SMDPad,CuDef*
%ADD22FreePoly0,270.000000*%
G04 #@! TD*
G04 #@! TA.AperFunction,SMDPad,CuDef*
%ADD23RoundRect,0.150000X0.150000X-0.512500X0.150000X0.512500X-0.150000X0.512500X-0.150000X-0.512500X0*%
G04 #@! TD*
G04 #@! TA.AperFunction,SMDPad,CuDef*
%ADD24RoundRect,0.250000X0.450000X-0.350000X0.450000X0.350000X-0.450000X0.350000X-0.450000X-0.350000X0*%
G04 #@! TD*
G04 #@! TA.AperFunction,SMDPad,CuDef*
%ADD25RoundRect,0.237500X0.237500X-0.300000X0.237500X0.300000X-0.237500X0.300000X-0.237500X-0.300000X0*%
G04 #@! TD*
G04 #@! TA.AperFunction,SMDPad,CuDef*
%ADD26R,1.000000X0.700000*%
G04 #@! TD*
G04 #@! TA.AperFunction,SMDPad,CuDef*
%ADD27R,0.600000X0.700000*%
G04 #@! TD*
G04 #@! TA.AperFunction,SMDPad,CuDef*
%ADD28RoundRect,0.250000X0.250000X-0.250000X0.250000X0.250000X-0.250000X0.250000X-0.250000X-0.250000X0*%
G04 #@! TD*
G04 #@! TA.AperFunction,SMDPad,CuDef*
%ADD29RoundRect,0.250000X-0.350000X-0.450000X0.350000X-0.450000X0.350000X0.450000X-0.350000X0.450000X0*%
G04 #@! TD*
G04 #@! TA.AperFunction,SMDPad,CuDef*
%ADD30RoundRect,0.237500X-0.237500X0.300000X-0.237500X-0.300000X0.237500X-0.300000X0.237500X0.300000X0*%
G04 #@! TD*
G04 #@! TA.AperFunction,ComponentPad*
%ADD31C,0.762000*%
G04 #@! TD*
G04 #@! TA.AperFunction,SMDPad,CuDef*
%ADD32C,0.762000*%
G04 #@! TD*
G04 #@! TA.AperFunction,ComponentPad*
%ADD33C,0.609600*%
G04 #@! TD*
G04 #@! TA.AperFunction,SMDPad,CuDef*
%ADD34RoundRect,0.008100X0.361900X0.126900X-0.361900X0.126900X-0.361900X-0.126900X0.361900X-0.126900X0*%
G04 #@! TD*
G04 #@! TA.AperFunction,SMDPad,CuDef*
%ADD35R,0.650000X1.350000*%
G04 #@! TD*
G04 #@! TA.AperFunction,SMDPad,CuDef*
%ADD36R,0.375000X0.350000*%
G04 #@! TD*
G04 #@! TA.AperFunction,SMDPad,CuDef*
%ADD37R,0.350000X0.375000*%
G04 #@! TD*
G04 #@! TA.AperFunction,SMDPad,CuDef*
%ADD38RoundRect,0.225000X0.250000X-0.225000X0.250000X0.225000X-0.250000X0.225000X-0.250000X-0.225000X0*%
G04 #@! TD*
G04 #@! TA.AperFunction,ConnectorPad*
%ADD39C,0.787400*%
G04 #@! TD*
G04 #@! TA.AperFunction,SMDPad,CuDef*
%ADD40RoundRect,0.125000X-0.625000X-0.125000X0.625000X-0.125000X0.625000X0.125000X-0.625000X0.125000X0*%
G04 #@! TD*
G04 #@! TA.AperFunction,SMDPad,CuDef*
%ADD41RoundRect,0.125000X-0.125000X-0.625000X0.125000X-0.625000X0.125000X0.625000X-0.125000X0.625000X0*%
G04 #@! TD*
G04 #@! TA.AperFunction,SMDPad,CuDef*
%ADD42RoundRect,0.250000X0.337500X0.475000X-0.337500X0.475000X-0.337500X-0.475000X0.337500X-0.475000X0*%
G04 #@! TD*
G04 #@! TA.AperFunction,SMDPad,CuDef*
%ADD43R,1.800000X1.000000*%
G04 #@! TD*
G04 #@! TA.AperFunction,SMDPad,CuDef*
%ADD44RoundRect,0.100000X-0.637500X-0.100000X0.637500X-0.100000X0.637500X0.100000X-0.637500X0.100000X0*%
G04 #@! TD*
G04 #@! TA.AperFunction,SMDPad,CuDef*
%ADD45RoundRect,0.150000X0.150000X-0.650000X0.150000X0.650000X-0.150000X0.650000X-0.150000X-0.650000X0*%
G04 #@! TD*
G04 #@! TA.AperFunction,SMDPad,CuDef*
%ADD46RoundRect,0.250000X-0.475000X0.337500X-0.475000X-0.337500X0.475000X-0.337500X0.475000X0.337500X0*%
G04 #@! TD*
G04 #@! TA.AperFunction,SMDPad,CuDef*
%ADD47RoundRect,0.250000X0.475000X-0.337500X0.475000X0.337500X-0.475000X0.337500X-0.475000X-0.337500X0*%
G04 #@! TD*
G04 #@! TA.AperFunction,ComponentPad*
%ADD48O,2.100000X1.000000*%
G04 #@! TD*
G04 #@! TA.AperFunction,ComponentPad*
%ADD49O,1.600000X1.000000*%
G04 #@! TD*
G04 #@! TA.AperFunction,ViaPad*
%ADD50C,0.800000*%
G04 #@! TD*
G04 #@! TA.AperFunction,Conductor*
%ADD51C,0.200000*%
G04 #@! TD*
G04 #@! TA.AperFunction,Conductor*
%ADD52C,0.508000*%
G04 #@! TD*
G04 #@! TA.AperFunction,Conductor*
%ADD53C,0.203200*%
G04 #@! TD*
G04 #@! TA.AperFunction,Conductor*
%ADD54C,0.762000*%
G04 #@! TD*
G04 #@! TA.AperFunction,Conductor*
%ADD55C,0.500800*%
G04 #@! TD*
G04 #@! TA.AperFunction,Conductor*
%ADD56C,0.400600*%
G04 #@! TD*
G04 #@! TA.AperFunction,Conductor*
%ADD57C,0.269800*%
G04 #@! TD*
G04 #@! TA.AperFunction,Conductor*
%ADD58C,0.249800*%
G04 #@! TD*
G04 #@! TA.AperFunction,Conductor*
%ADD59C,0.770000*%
G04 #@! TD*
G04 APERTURE END LIST*
D10*
G04 #@! TO.N,/+BATTERY*
X73736622Y-59159032D02*
X73736622Y-57838232D01*
D11*
G04 #@! TD*
G04 #@! TO.C,AE1*
X27129422Y-26561432D02*
X27129422Y-63005432D01*
G04 #@! TO.C,AE1*
X27879422Y-26803432D02*
X27879422Y-62763432D01*
X28629422Y-27045432D02*
X28629422Y-62521432D01*
X28907422Y-24783432D02*
X46748422Y-24783432D01*
X28907422Y-64783432D02*
X45351422Y-64783432D01*
X29149422Y-64033432D02*
X45109422Y-64033432D01*
X29379422Y-27541432D02*
X29379422Y-62025432D01*
X29391422Y-63283432D02*
X44867422Y-63283432D01*
X29887422Y-62533432D02*
X44371422Y-62533432D01*
X30129422Y-28037432D02*
X30129422Y-61529432D01*
X30383422Y-61783432D02*
X43875422Y-61783432D01*
X44129422Y-61529432D02*
X44129422Y-28533432D01*
X44625422Y-27783432D02*
X30383422Y-27783432D01*
X44879422Y-62025432D02*
X44879422Y-28037432D01*
X45121422Y-27033432D02*
X29887422Y-27033432D01*
X45617422Y-26283432D02*
X29391422Y-26283432D01*
X45629422Y-62521432D02*
X45629422Y-27541432D01*
X45859422Y-25533432D02*
X29149422Y-25533432D01*
X46379422Y-62763432D02*
X46379422Y-27045432D01*
X47129422Y-63005432D02*
X47129422Y-26803432D01*
X27129422Y-26561432D02*
G75*
G02*
X28907422Y-24783432I1778000J0D01*
G01*
X27879422Y-26803432D02*
G75*
G02*
X29149422Y-25533432I1269999J1D01*
G01*
X28629422Y-27045432D02*
G75*
G02*
X29391422Y-26283432I762001J-1D01*
G01*
X28907422Y-64783432D02*
G75*
G02*
X27129422Y-63005432I0J1778000D01*
G01*
X29149422Y-64033432D02*
G75*
G02*
X27879422Y-62763432I-1J1269999D01*
G01*
X29379422Y-27541432D02*
G75*
G02*
X29887422Y-27033432I508001J-1D01*
G01*
X29391422Y-63283432D02*
G75*
G02*
X28629422Y-62521432I1J762001D01*
G01*
X29887422Y-62533432D02*
G75*
G02*
X29379422Y-62025432I1J508001D01*
G01*
X30129422Y-28037432D02*
G75*
G02*
X30383422Y-27783432I254000J0D01*
G01*
X30383422Y-61783432D02*
G75*
G02*
X30129422Y-61529432I0J254000D01*
G01*
X44129422Y-61529432D02*
G75*
G02*
X43875422Y-61783432I-254000J0D01*
G01*
X44625422Y-27783432D02*
G75*
G02*
X44879422Y-28037432I0J-254000D01*
G01*
X44879422Y-62025432D02*
G75*
G02*
X44371422Y-62533432I-508000J0D01*
G01*
X45121422Y-27033432D02*
G75*
G02*
X45629422Y-27541432I0J-508000D01*
G01*
X45617422Y-26283432D02*
G75*
G02*
X46379422Y-27045432I0J-762000D01*
G01*
X45629422Y-62521432D02*
G75*
G02*
X44867422Y-63283432I-762000J0D01*
G01*
X45859422Y-25533432D02*
G75*
G02*
X47129422Y-26803432I0J-1270000D01*
G01*
X46379422Y-62763432D02*
G75*
G02*
X45109422Y-64033432I-1270000J0D01*
G01*
X47129422Y-63005432D02*
G75*
G02*
X45351422Y-64783432I-1778000J0D01*
G01*
G04 #@! TD*
D12*
G04 #@! TO.P,Q1,1,G*
G04 #@! TO.N,+5V*
X74864422Y-56595932D03*
G04 #@! TO.P,Q1,2,S*
G04 #@! TO.N,+3V0*
X72964422Y-56595932D03*
G04 #@! TO.P,Q1,3,D*
G04 #@! TO.N,/+BATTERY*
X73914422Y-58470932D03*
G04 #@! TD*
D13*
G04 #@! TO.P,TP1,1,1*
G04 #@! TO.N,SDA*
X72771422Y-23878432D03*
G04 #@! TD*
D14*
G04 #@! TO.P,R7,1*
G04 #@! TO.N,/GND_SHIELD*
X74191922Y-49151432D03*
G04 #@! TO.P,R7,2*
G04 #@! TO.N,GND*
X72366922Y-49151432D03*
G04 #@! TD*
D15*
G04 #@! TO.P,C16,1*
G04 #@! TO.N,/LSE_OUT*
X54347022Y-43017032D03*
G04 #@! TO.P,C16,2*
G04 #@! TO.N,GND*
X54347022Y-44567032D03*
G04 #@! TD*
D16*
G04 #@! TO.P,C4,1*
G04 #@! TO.N,VDD*
X67029922Y-31498432D03*
G04 #@! TO.P,C4,2*
G04 #@! TO.N,GND*
X65304922Y-31498432D03*
G04 #@! TD*
G04 #@! TO.P,C11,1*
G04 #@! TO.N,VDD*
X56107922Y-46052632D03*
G04 #@! TO.P,C11,2*
G04 #@! TO.N,GND*
X54382922Y-46052632D03*
G04 #@! TD*
D17*
G04 #@! TO.P,R9,1*
G04 #@! TO.N,USB_VBUS_SENSE*
X71501422Y-54762932D03*
G04 #@! TO.P,R9,2*
G04 #@! TO.N,GND*
X71501422Y-52937932D03*
G04 #@! TD*
D18*
G04 #@! TO.P,C15,1*
G04 #@! TO.N,_RESET*
X74448922Y-35435432D03*
G04 #@! TO.P,C15,2*
G04 #@! TO.N,GND*
X76173922Y-35435432D03*
G04 #@! TD*
D19*
G04 #@! TO.P,D2,1,K*
G04 #@! TO.N,_LED*
X76879422Y-25552432D03*
G04 #@! TO.P,D2,2,A*
G04 #@! TO.N,/+LED*
X76879422Y-27602432D03*
G04 #@! TD*
D20*
G04 #@! TO.P,R1,1*
G04 #@! TO.N,GND*
X74525922Y-36959432D03*
G04 #@! TO.P,R1,2*
G04 #@! TO.N,/CC1*
X76350922Y-36959432D03*
G04 #@! TD*
D21*
G04 #@! TO.P,U3,1,SDA*
G04 #@! TO.N,SDA*
X70629422Y-25402432D03*
G04 #@! TO.P,U3,2,ADDR*
G04 #@! TO.N,GND*
X70129422Y-25402432D03*
G04 #@! TO.P,U3,3,ALERT*
G04 #@! TO.N,TEMP_INT*
X69629422Y-25402432D03*
G04 #@! TO.P,U3,4,SCL*
G04 #@! TO.N,SCL*
X69129422Y-25402432D03*
G04 #@! TO.P,U3,5,VDD*
G04 #@! TO.N,VDD*
X69129422Y-27752432D03*
G04 #@! TO.P,U3,6,~{RESET}*
G04 #@! TO.N,_TEMP_RESET*
X69629422Y-27752432D03*
G04 #@! TO.P,U3,7,R*
G04 #@! TO.N,GND*
X70129422Y-27752432D03*
G04 #@! TO.P,U3,8,VSS*
X70629422Y-27752432D03*
D22*
G04 #@! TO.P,U3,9,VSS*
X69879422Y-26577432D03*
G04 #@! TD*
D23*
G04 #@! TO.P,U5,1,VIN*
G04 #@! TO.N,+5V*
X72964422Y-62480932D03*
G04 #@! TO.P,U5,2,GND*
G04 #@! TO.N,GND*
X73914422Y-62480932D03*
G04 #@! TO.P,U5,3,EN*
G04 #@! TO.N,+5V*
X74864422Y-62480932D03*
G04 #@! TO.P,U5,4,NC*
G04 #@! TO.N,unconnected-(U5-NC-Pad4)*
X74864422Y-60205932D03*
G04 #@! TO.P,U5,5,VOUT*
G04 #@! TO.N,+3V0*
X72964422Y-60205932D03*
G04 #@! TD*
D13*
G04 #@! TO.P,TP2,1,1*
G04 #@! TO.N,SCL*
X67056422Y-23878432D03*
G04 #@! TD*
D24*
G04 #@! TO.P,FB1,1*
G04 #@! TO.N,+3V0*
X71247422Y-58533432D03*
G04 #@! TO.P,FB1,2*
G04 #@! TO.N,VDD*
X71247422Y-56533432D03*
G04 #@! TD*
D25*
G04 #@! TO.P,C6,1*
G04 #@! TO.N,VDD*
X60087422Y-36424932D03*
G04 #@! TO.P,C6,2*
G04 #@! TO.N,GND*
X60087422Y-34699932D03*
G04 #@! TD*
D26*
G04 #@! TO.P,D3,1,GND*
G04 #@! TO.N,/GND_SHIELD*
X76569422Y-42055432D03*
D27*
G04 #@! TO.P,D3,2,I/O1*
G04 #@! TO.N,USB_P*
X74869422Y-42055432D03*
G04 #@! TO.P,D3,3,I/O2*
G04 #@! TO.N,USB_N*
X74869422Y-44055432D03*
G04 #@! TO.P,D3,4,VCC*
G04 #@! TO.N,+5V*
X76769422Y-44055432D03*
G04 #@! TD*
D17*
G04 #@! TO.P,R2,1*
G04 #@! TO.N,GND*
X72390422Y-47650932D03*
G04 #@! TO.P,R2,2*
G04 #@! TO.N,/CC2*
X72390422Y-45825932D03*
G04 #@! TD*
D28*
G04 #@! TO.P,D1,1,K*
G04 #@! TO.N,+5V*
X76073422Y-51671432D03*
G04 #@! TO.P,D1,2,A*
G04 #@! TO.N,/+VBUS*
X76073422Y-49171432D03*
G04 #@! TD*
D17*
G04 #@! TO.P,R6,1*
G04 #@! TO.N,/_QSPI_NCS*
X51372422Y-60314932D03*
G04 #@! TO.P,R6,2*
G04 #@! TO.N,VDD*
X51372422Y-58489932D03*
G04 #@! TD*
D29*
G04 #@! TO.P,R3,1*
G04 #@! TO.N,VDD*
X74057422Y-32133432D03*
G04 #@! TO.P,R3,2*
G04 #@! TO.N,/+LED*
X76057422Y-32133432D03*
G04 #@! TD*
D30*
G04 #@! TO.P,C14,1*
G04 #@! TO.N,VDD*
X67631222Y-48034932D03*
G04 #@! TO.P,C14,2*
G04 #@! TO.N,GND*
X67631222Y-49759932D03*
G04 #@! TD*
D31*
G04 #@! TO.P,AE1,1*
G04 #@! TO.N,Net-(U1-AC1)*
X47879422Y-25783432D03*
D32*
G04 #@! TO.P,AE1,2*
G04 #@! TO.N,Net-(U1-AC0)*
X46879422Y-24783432D03*
D33*
G04 #@! TO.P,AE1,3*
G04 #@! TO.N,N/C*
X44129422Y-28533432D03*
G04 #@! TD*
D30*
G04 #@! TO.P,C9,1*
G04 #@! TO.N,VDD*
X51435422Y-52606932D03*
G04 #@! TO.P,C9,2*
G04 #@! TO.N,GND*
X51435422Y-54331932D03*
G04 #@! TD*
D34*
G04 #@! TO.P,U2,1,VDD*
G04 #@! TO.N,VDD*
X63874422Y-27227432D03*
G04 #@! TO.P,U2,2,ADDR*
X63874422Y-26577432D03*
G04 #@! TO.P,U2,3,GND*
G04 #@! TO.N,GND*
X63874422Y-25927432D03*
G04 #@! TO.P,U2,4,SCL*
G04 #@! TO.N,SCL*
X61884422Y-25927432D03*
G04 #@! TO.P,U2,5,INT*
G04 #@! TO.N,_LIGHT_INT*
X61884422Y-26577432D03*
G04 #@! TO.P,U2,6,SDA*
G04 #@! TO.N,SDA*
X61884422Y-27227432D03*
D35*
G04 #@! TO.P,U2,7,EXP*
G04 #@! TO.N,GND*
X62879422Y-26577432D03*
G04 #@! TD*
D36*
G04 #@! TO.P,U4,1,SCL/SPC*
G04 #@! TO.N,SCL*
X63119922Y-36699832D03*
G04 #@! TO.P,U4,2,~{CS}*
G04 #@! TO.N,unconnected-(U4-~{CS}-Pad2)*
X63119922Y-36199832D03*
G04 #@! TO.P,U4,3,SA0/SDO*
G04 #@! TO.N,unconnected-(U4-SA0{slash}SDO-Pad3)*
X63119922Y-35699832D03*
G04 #@! TO.P,U4,4,SDA/SDI*
G04 #@! TO.N,SDA*
X63119922Y-35199832D03*
D37*
G04 #@! TO.P,U4,5,RES*
G04 #@! TO.N,GND*
X62607422Y-35187332D03*
G04 #@! TO.P,U4,6,GND*
X62107422Y-35187332D03*
D36*
G04 #@! TO.P,U4,7,GND*
X61594922Y-35199832D03*
G04 #@! TO.P,U4,8,GND*
X61594922Y-35699832D03*
G04 #@! TO.P,U4,9,Vdd*
G04 #@! TO.N,VDD*
X61594922Y-36199832D03*
G04 #@! TO.P,U4,10,Vdd_IO*
X61594922Y-36699832D03*
D37*
G04 #@! TO.P,U4,11,INT2*
G04 #@! TO.N,IMU_INT2*
X62107422Y-36712332D03*
G04 #@! TO.P,U4,12,INT1*
G04 #@! TO.N,IMU_INT1*
X62607422Y-36712332D03*
G04 #@! TD*
D38*
G04 #@! TO.P,C17,1*
G04 #@! TO.N,/LSE_IN*
X54331022Y-41601632D03*
G04 #@! TO.P,C17,2*
G04 #@! TO.N,GND*
X54331022Y-40051632D03*
G04 #@! TD*
D39*
G04 #@! TO.P,J2,1,VTref*
G04 #@! TO.N,VDD*
X70993422Y-38864432D03*
G04 #@! TO.P,J2,2,SWDIO/TMS*
G04 #@! TO.N,SWDIO*
X70993422Y-37594432D03*
G04 #@! TO.P,J2,3,GND*
G04 #@! TO.N,GND*
X70993422Y-36324432D03*
G04 #@! TO.P,J2,4,SWCLK/TCK*
G04 #@! TO.N,SWDCLK*
X70993422Y-35054432D03*
G04 #@! TO.P,J2,5,GND*
G04 #@! TO.N,GND*
X70993422Y-33784432D03*
G04 #@! TO.P,J2,6,SWO/TDO*
G04 #@! TO.N,SWO*
X69723422Y-33784432D03*
G04 #@! TO.P,J2,7,KEY*
G04 #@! TO.N,unconnected-(J2-KEY-Pad7)*
X69723422Y-35054432D03*
G04 #@! TO.P,J2,8,NC/TDI*
G04 #@! TO.N,unconnected-(J2-NC{slash}TDI-Pad8)*
X69723422Y-36324432D03*
G04 #@! TO.P,J2,9,GNDDetect*
G04 #@! TO.N,GND*
X69723422Y-37594432D03*
G04 #@! TO.P,J2,10,~{RESET}*
G04 #@! TO.N,_RESET*
X69723422Y-38864432D03*
G04 #@! TD*
D40*
G04 #@! TO.P,U7,1,VDD*
G04 #@! TO.N,VDD*
X58960422Y-41144432D03*
G04 #@! TO.P,U7,2,PC14*
G04 #@! TO.N,/LSE_IN*
X58960422Y-41944432D03*
G04 #@! TO.P,U7,3,PC15*
G04 #@! TO.N,/LSE_OUT*
X58960422Y-42744432D03*
G04 #@! TO.P,U7,4,NRST*
G04 #@! TO.N,_RESET*
X58960422Y-43544432D03*
G04 #@! TO.P,U7,5,VDDA*
G04 #@! TO.N,VDD*
X58960422Y-44344432D03*
G04 #@! TO.P,U7,6,PA0*
G04 #@! TO.N,_NFC_INT*
X58960422Y-45144432D03*
G04 #@! TO.P,U7,7,PA1*
G04 #@! TO.N,_LIGHT_INT*
X58960422Y-45944432D03*
G04 #@! TO.P,U7,8,PA2*
G04 #@! TO.N,/_QSPI_NCS*
X58960422Y-46744432D03*
D41*
G04 #@! TO.P,U7,9,PA3*
G04 #@! TO.N,/QSPI_CLK*
X60335422Y-48119432D03*
G04 #@! TO.P,U7,10,PA4*
G04 #@! TO.N,unconnected-(U7-PA4-Pad10)*
X61135422Y-48119432D03*
G04 #@! TO.P,U7,11,PA5*
G04 #@! TO.N,unconnected-(U7-PA5-Pad11)*
X61935422Y-48119432D03*
G04 #@! TO.P,U7,12,PA6*
G04 #@! TO.N,/QSPI_IO3*
X62735422Y-48119432D03*
G04 #@! TO.P,U7,13,PA7*
G04 #@! TO.N,/QSPI_IO2*
X63535422Y-48119432D03*
G04 #@! TO.P,U7,14,PB0*
G04 #@! TO.N,/QSPI_IO1*
X64335422Y-48119432D03*
G04 #@! TO.P,U7,15,PB1*
G04 #@! TO.N,/QSPI_IO0*
X65135422Y-48119432D03*
G04 #@! TO.P,U7,16,VSS*
G04 #@! TO.N,GND*
X65935422Y-48119432D03*
D40*
G04 #@! TO.P,U7,17,VDD*
G04 #@! TO.N,VDD*
X67310422Y-46744432D03*
G04 #@! TO.P,U7,18,PA8*
G04 #@! TO.N,USB_VBUS_SENSE*
X67310422Y-45944432D03*
G04 #@! TO.P,U7,19,PA9*
G04 #@! TO.N,SCL*
X67310422Y-45144432D03*
G04 #@! TO.P,U7,20,PA10*
G04 #@! TO.N,SDA*
X67310422Y-44344432D03*
G04 #@! TO.P,U7,21,PA11*
G04 #@! TO.N,USB_N*
X67310422Y-43544432D03*
G04 #@! TO.P,U7,22,PA12*
G04 #@! TO.N,USB_P*
X67310422Y-42744432D03*
G04 #@! TO.P,U7,23,PA13*
G04 #@! TO.N,SWDIO*
X67310422Y-41944432D03*
G04 #@! TO.P,U7,24,PA14*
G04 #@! TO.N,SWDCLK*
X67310422Y-41144432D03*
D41*
G04 #@! TO.P,U7,25,PA15*
G04 #@! TO.N,_LED*
X65935422Y-39769432D03*
G04 #@! TO.P,U7,26,PB3*
G04 #@! TO.N,SWO*
X65135422Y-39769432D03*
G04 #@! TO.P,U7,27,PB4*
G04 #@! TO.N,_TEMP_RESET*
X64335422Y-39769432D03*
G04 #@! TO.P,U7,28,PB5*
G04 #@! TO.N,TEMP_INT*
X63535422Y-39769432D03*
G04 #@! TO.P,U7,29,PB6*
G04 #@! TO.N,IMU_INT1*
X62735422Y-39769432D03*
G04 #@! TO.P,U7,30,PB7*
G04 #@! TO.N,IMU_INT2*
X61935422Y-39769432D03*
G04 #@! TO.P,U7,31,PH3*
G04 #@! TO.N,/BOOT0*
X61135422Y-39769432D03*
G04 #@! TO.P,U7,32,VSS*
G04 #@! TO.N,GND*
X60335422Y-39769432D03*
G04 #@! TD*
D42*
G04 #@! TO.P,C1,1*
G04 #@! TO.N,VDD*
X51740222Y-31828632D03*
G04 #@! TO.P,C1,2*
G04 #@! TO.N,GND*
X49665222Y-31828632D03*
G04 #@! TD*
D20*
G04 #@! TO.P,R5,1*
G04 #@! TO.N,VDD*
X53443922Y-31574632D03*
G04 #@! TO.P,R5,2*
G04 #@! TO.N,SCL*
X55268922Y-31574632D03*
G04 #@! TD*
D43*
G04 #@! TO.P,Y1,1,1*
G04 #@! TO.N,/LSE_IN*
X56277422Y-41043432D03*
G04 #@! TO.P,Y1,2,2*
G04 #@! TO.N,/LSE_OUT*
X56277422Y-43543432D03*
G04 #@! TD*
D44*
G04 #@! TO.P,U1,1,V_EH*
G04 #@! TO.N,unconnected-(U1-V_EH-Pad1)*
X49842922Y-26586432D03*
G04 #@! TO.P,U1,2,AC0*
G04 #@! TO.N,Net-(U1-AC0)*
X49842922Y-27236432D03*
G04 #@! TO.P,U1,3,AC1*
G04 #@! TO.N,Net-(U1-AC1)*
X49842922Y-27886432D03*
G04 #@! TO.P,U1,4,VSS*
G04 #@! TO.N,GND*
X49842922Y-28536432D03*
G04 #@! TO.P,U1,5,SDA*
G04 #@! TO.N,SDA*
X55567922Y-28536432D03*
G04 #@! TO.P,U1,6,SCL*
G04 #@! TO.N,SCL*
X55567922Y-27886432D03*
G04 #@! TO.P,U1,7,GPO_(OD)*
G04 #@! TO.N,_NFC_INT*
X55567922Y-27236432D03*
G04 #@! TO.P,U1,8,VCC*
G04 #@! TO.N,VDD*
X55567922Y-26586432D03*
G04 #@! TD*
D45*
G04 #@! TO.P,U6,1,~{CS}*
G04 #@! TO.N,/_QSPI_NCS*
X53150422Y-60081432D03*
G04 #@! TO.P,U6,2,DO(IO1)*
G04 #@! TO.N,/QSPI_IO1*
X54420422Y-60081432D03*
G04 #@! TO.P,U6,3,IO2*
G04 #@! TO.N,/QSPI_IO2*
X55690422Y-60081432D03*
G04 #@! TO.P,U6,4,GND*
G04 #@! TO.N,GND*
X56960422Y-60081432D03*
G04 #@! TO.P,U6,5,DI(IO0)*
G04 #@! TO.N,/QSPI_IO0*
X56960422Y-52881432D03*
G04 #@! TO.P,U6,6,CLK*
G04 #@! TO.N,/QSPI_CLK*
X55690422Y-52881432D03*
G04 #@! TO.P,U6,7,IO3*
G04 #@! TO.N,/QSPI_IO3*
X54420422Y-52881432D03*
G04 #@! TO.P,U6,8,VCC*
G04 #@! TO.N,VDD*
X53150422Y-52881432D03*
G04 #@! TD*
D14*
G04 #@! TO.P,R8,1*
G04 #@! TO.N,+5V*
X74826922Y-54866432D03*
G04 #@! TO.P,R8,2*
G04 #@! TO.N,USB_VBUS_SENSE*
X73001922Y-54866432D03*
G04 #@! TD*
D13*
G04 #@! TO.P,TP4,1,1*
G04 #@! TO.N,_NFC_INT*
X57912422Y-26545432D03*
G04 #@! TD*
D18*
G04 #@! TO.P,C13,1*
G04 #@! TO.N,VDD*
X57319922Y-39448632D03*
G04 #@! TO.P,C13,2*
G04 #@! TO.N,GND*
X59044922Y-39448632D03*
G04 #@! TD*
D16*
G04 #@! TO.P,C2,1*
G04 #@! TO.N,VDD*
X51332722Y-30101432D03*
G04 #@! TO.P,C2,2*
G04 #@! TO.N,GND*
X49607722Y-30101432D03*
G04 #@! TD*
D46*
G04 #@! TO.P,C7,1*
G04 #@! TO.N,VDD*
X69215422Y-56495932D03*
G04 #@! TO.P,C7,2*
G04 #@! TO.N,GND*
X69215422Y-58570932D03*
G04 #@! TD*
D16*
G04 #@! TO.P,C3,1*
G04 #@! TO.N,VDD*
X63727922Y-31498432D03*
G04 #@! TO.P,C3,2*
G04 #@! TO.N,GND*
X62002922Y-31498432D03*
G04 #@! TD*
G04 #@! TO.P,C10,1*
G04 #@! TO.N,/GND_SHIELD*
X74141922Y-50675432D03*
G04 #@! TO.P,C10,2*
G04 #@! TO.N,GND*
X72416922Y-50675432D03*
G04 #@! TD*
D13*
G04 #@! TO.P,TP3,1,1*
G04 #@! TO.N,GND*
X64516422Y-56517432D03*
G04 #@! TD*
D18*
G04 #@! TO.P,C18,1*
G04 #@! TO.N,VDD*
X74448922Y-33911432D03*
G04 #@! TO.P,C18,2*
G04 #@! TO.N,GND*
X76173922Y-33911432D03*
G04 #@! TD*
D20*
G04 #@! TO.P,R10,1*
G04 #@! TO.N,GND*
X58920922Y-37975432D03*
G04 #@! TO.P,R10,2*
G04 #@! TO.N,/BOOT0*
X60745922Y-37975432D03*
G04 #@! TD*
G04 #@! TO.P,R4,1*
G04 #@! TO.N,VDD*
X53443922Y-30101432D03*
G04 #@! TO.P,R4,2*
G04 #@! TO.N,SDA*
X55268922Y-30101432D03*
G04 #@! TD*
D47*
G04 #@! TO.P,C5,1*
G04 #@! TO.N,VDD*
X58309422Y-36345932D03*
G04 #@! TO.P,C5,2*
G04 #@! TO.N,GND*
X58309422Y-34270932D03*
G04 #@! TD*
D42*
G04 #@! TO.P,C8,1*
G04 #@! TO.N,+5V*
X71268922Y-62359432D03*
G04 #@! TO.P,C8,2*
G04 #@! TO.N,GND*
X69193922Y-62359432D03*
G04 #@! TD*
D48*
G04 #@! TO.P,J1,*
G04 #@! TO.N,*
X75274422Y-38757432D03*
D49*
X79454422Y-47397432D03*
G04 #@! TO.P,J1,S1,SHIELD*
G04 #@! TO.N,/GND_SHIELD*
X79454422Y-38757432D03*
D48*
G04 #@! TO.P,J1,s1*
X75274422Y-47397432D03*
G04 #@! TD*
D50*
G04 #@! TO.N,GND*
X68656622Y-26570832D03*
X62865422Y-58168432D03*
X49784422Y-25402432D03*
X49784422Y-44452432D03*
X77394222Y-34648032D03*
X49784422Y-52072432D03*
X67640622Y-51081832D03*
X64008422Y-44706432D03*
X64999022Y-30507832D03*
X69266222Y-31219032D03*
X55575622Y-44858832D03*
X63017822Y-43741232D03*
X66396022Y-35359232D03*
X71552222Y-49862632D03*
X62865422Y-56517432D03*
X49784422Y-62232432D03*
X49784422Y-38737432D03*
X69190022Y-59895632D03*
X73685822Y-39880432D03*
X66167422Y-58168432D03*
X66167422Y-54866432D03*
X49784422Y-48262432D03*
X61951022Y-32666832D03*
X64516422Y-54866432D03*
X57048822Y-37569032D03*
X73330222Y-47703632D03*
X66167422Y-56517432D03*
X55575622Y-39728032D03*
X49784422Y-36832432D03*
X63983022Y-43741232D03*
X62560622Y-28069432D03*
X73914422Y-61419632D03*
X49784422Y-50167432D03*
X49784422Y-23497432D03*
X62992422Y-54866432D03*
X61087422Y-34165432D03*
X49784422Y-42547432D03*
X62992422Y-44706432D03*
X49784422Y-40642432D03*
X64516422Y-58168432D03*
X49784422Y-46357432D03*
X49784422Y-29187032D03*
X67869222Y-62384832D03*
X49784422Y-34927432D03*
X49784422Y-66042432D03*
X49784422Y-64137432D03*
G04 #@! TO.N,_RESET*
X68834422Y-40118032D03*
X72695222Y-36248232D03*
G04 #@! TO.N,_LED*
X72443322Y-31599432D03*
X66546322Y-38332732D03*
G04 #@! TO.N,SWDCLK*
X71999222Y-35252832D03*
X67440588Y-40635298D03*
G04 #@! TO.N,SDA*
X65829222Y-42901232D03*
X58740922Y-30737332D03*
X65481622Y-32870032D03*
G04 #@! TO.N,SCL*
X64223222Y-41994432D03*
X63505722Y-37856532D03*
G04 #@! TO.N,VDD*
X74473222Y-33124032D03*
X71554522Y-30889732D03*
X74275322Y-30721432D03*
X70993422Y-38864432D03*
G04 #@! TO.N,_NFC_INT*
X60545822Y-44022132D03*
G04 #@! TO.N,_LIGHT_INT*
X60141122Y-27436032D03*
X62855222Y-42070732D03*
G04 #@! TO.N,TEMP_INT*
X68730122Y-23950232D03*
X64204531Y-34055492D03*
G04 #@! TO.N,_TEMP_RESET*
X70004422Y-28787532D03*
X66726222Y-33378032D03*
G04 #@! TO.N,/+VBUS*
X76073422Y-50065832D03*
G04 #@! TO.N,USB_N*
X75895622Y-43334832D03*
G04 #@! TO.N,USB_P*
X72974622Y-42039432D03*
G04 #@! TO.N,/CC1*
X73456800Y-38125400D03*
G04 #@! TO.N,/CC2*
X71238722Y-45695732D03*
G04 #@! TO.N,/QSPI_IO1*
X55075622Y-57913532D03*
X64404228Y-45758954D03*
G04 #@! TO.N,/QSPI_IO3*
X54236022Y-51350632D03*
X61488722Y-45661532D03*
G04 #@! TO.N,/+BATTERY*
X76581422Y-57787432D03*
X76200422Y-58549432D03*
X75311422Y-58549432D03*
X75692422Y-57787432D03*
G04 #@! TD*
D51*
G04 #@! TO.N,GND*
X70129822Y-25427832D02*
X70129822Y-27764632D01*
D52*
X66167422Y-58168432D02*
X66167422Y-54866432D01*
X62865422Y-54993432D02*
X62992422Y-54866432D01*
X55575622Y-44858832D02*
X55524822Y-44884232D01*
X55524822Y-44884232D02*
X54664222Y-44884232D01*
X58920922Y-37975432D02*
X57455222Y-37975432D01*
X66167422Y-56517432D02*
X66167422Y-54866432D01*
X62865422Y-54993432D02*
X62992422Y-54866432D01*
X55575622Y-39728032D02*
X54654622Y-39728032D01*
D51*
X69723422Y-37594432D02*
X70866422Y-36451432D01*
D52*
X62992422Y-54866432D02*
X66167422Y-54866432D01*
X66167422Y-58168432D02*
X66167422Y-56517432D01*
X62865422Y-58168432D02*
X66167422Y-58168432D01*
X62865422Y-56517432D02*
X62865422Y-54993432D01*
X55499422Y-39728032D02*
X55575622Y-39728032D01*
X62992422Y-54866432D02*
X64516422Y-54866432D01*
X64516422Y-58168432D02*
X66167422Y-58168432D01*
X62865422Y-58168432D02*
X64516422Y-58168432D01*
X62865422Y-58168432D02*
X62865422Y-54993432D01*
X64516422Y-54866432D02*
X66167422Y-54866432D01*
X62865422Y-58168432D02*
X62865422Y-56517432D01*
X54654622Y-39728032D02*
X54331022Y-40051632D01*
X57455222Y-37975432D02*
X57048822Y-37569032D01*
X54664222Y-44884232D02*
X54347022Y-44567032D01*
X65304922Y-31498432D02*
X65304922Y-30813732D01*
X68656622Y-26570832D02*
X69872822Y-26570832D01*
X55474022Y-44884232D02*
X55575622Y-44858832D01*
X69872822Y-26570832D02*
X69879422Y-26577432D01*
X65304922Y-30813732D02*
X64999022Y-30507832D01*
X55499422Y-44884232D02*
X55474022Y-44884232D01*
D53*
G04 #@! TO.N,_RESET*
X68769722Y-40053332D02*
X68834422Y-40118032D01*
X67027022Y-40052832D02*
X66236422Y-40843432D01*
X62282822Y-40843432D02*
X59581822Y-43544432D01*
X69723422Y-38864432D02*
X69232022Y-38864432D01*
X68769722Y-39326732D02*
X67489422Y-39326732D01*
X67027022Y-39789132D02*
X67027022Y-40052832D01*
X66236422Y-40843432D02*
X62282822Y-40843432D01*
X67489422Y-39326732D02*
X67027022Y-39789132D01*
X68769722Y-39326732D02*
X68769722Y-40053332D01*
X72695222Y-36248232D02*
X73508022Y-35435432D01*
X59581822Y-43544432D02*
X58960422Y-43544432D01*
X73508022Y-35435432D02*
X74448922Y-35435432D01*
X69232022Y-38864432D02*
X68769722Y-39326732D01*
D54*
G04 #@! TO.N,+3V0*
X71269722Y-58511132D02*
X72964422Y-60205932D01*
X71269722Y-58511132D02*
X72964422Y-56816432D01*
X72964422Y-56816432D02*
X72964422Y-56595932D01*
X71247422Y-58533432D02*
X71269722Y-58511132D01*
G04 #@! TO.N,_LED*
X76174568Y-25552432D02*
X76879422Y-25552432D01*
X72540622Y-31502132D02*
X72540622Y-29186378D01*
X72540622Y-29186378D02*
X76174568Y-25552432D01*
X66444722Y-38434332D02*
X66546322Y-38332732D01*
X72443322Y-31599432D02*
X72540622Y-31502132D01*
X65970522Y-38434332D02*
X66444722Y-38434332D01*
D55*
X65970522Y-39734332D02*
X65935422Y-39769432D01*
X65970522Y-38434332D02*
X65970522Y-39734332D01*
D52*
G04 #@! TO.N,/GND_SHIELD*
X76950422Y-42055432D02*
X77962422Y-42055432D01*
X74141922Y-48529932D02*
X75274422Y-47397432D01*
X77962422Y-42055432D02*
X79454422Y-40563432D01*
X74141922Y-50675432D02*
X74141922Y-48529932D01*
X79454422Y-40563432D02*
X79454422Y-38757432D01*
D53*
G04 #@! TO.N,SWDCLK*
X70993422Y-35054432D02*
X71800822Y-35054432D01*
X67310422Y-40765464D02*
X67310422Y-41144432D01*
X71800822Y-35054432D02*
X71999222Y-35252832D01*
X67440588Y-40635298D02*
X67310422Y-40765464D01*
G04 #@! TO.N,SWDIO*
X67310422Y-41944432D02*
X68524322Y-41944432D01*
X71729422Y-38330432D02*
X70993422Y-37594432D01*
X70799022Y-41186432D02*
X71729422Y-40256032D01*
X69282322Y-41186432D02*
X70799022Y-41186432D01*
X71729422Y-40256032D02*
X71729422Y-38330432D01*
X68524322Y-41944432D02*
X69282322Y-41186432D01*
G04 #@! TO.N,SDA*
X55268922Y-30101432D02*
X55268922Y-28835432D01*
X63138022Y-34125263D02*
X63138022Y-35199832D01*
X55268922Y-28835432D02*
X55567922Y-28536432D01*
X70629422Y-25402432D02*
X70629422Y-24820732D01*
X58740922Y-28536432D02*
X58740922Y-30737332D01*
X61884422Y-27227432D02*
X60575422Y-28536432D01*
X71571722Y-23878432D02*
X70629422Y-24820732D01*
X65481622Y-32870032D02*
X64393253Y-32870032D01*
X60575422Y-28536432D02*
X58740922Y-28536432D01*
X65829222Y-43470032D02*
X65829222Y-42901232D01*
X58740922Y-28536432D02*
X55567922Y-28536432D01*
X72771422Y-23878432D02*
X71571722Y-23878432D01*
X64393253Y-32870032D02*
X63138022Y-34125263D01*
X67310422Y-44344432D02*
X66703622Y-44344432D01*
X66703622Y-44344432D02*
X65829222Y-43470032D01*
G04 #@! TO.N,SCL*
X67056422Y-23878432D02*
X68580422Y-25402432D01*
X67056422Y-23878432D02*
X63933422Y-23878432D01*
X55268922Y-31574632D02*
X54466522Y-30772232D01*
X54885022Y-27886432D02*
X55567922Y-27886432D01*
X63119922Y-36699832D02*
X63119922Y-37181532D01*
X60484522Y-25927432D02*
X61884422Y-25927432D01*
X64223222Y-42619332D02*
X66748322Y-45144432D01*
X64223222Y-41994432D02*
X64223222Y-42619332D01*
X63505722Y-37567332D02*
X63505722Y-37856532D01*
X63933422Y-23878432D02*
X61884422Y-25927432D01*
X66748322Y-45144432D02*
X67310422Y-45144432D01*
X58525522Y-27886432D02*
X60484522Y-25927432D01*
X55567922Y-27886432D02*
X58525522Y-27886432D01*
X54466522Y-30772232D02*
X54466522Y-28304932D01*
X54466522Y-28304932D02*
X54885022Y-27886432D01*
X63119922Y-37181532D02*
X63505722Y-37567332D01*
X68580422Y-25402432D02*
X69129422Y-25402432D01*
D54*
G04 #@! TO.N,VDD*
X51740222Y-31168732D02*
X53443922Y-31168732D01*
X67631222Y-48009732D02*
X67310422Y-47688932D01*
X53443922Y-27626832D02*
X53443922Y-30101432D01*
X68707422Y-27942432D02*
X68707422Y-28145032D01*
X57150000Y-44958000D02*
X56107922Y-46000078D01*
D56*
X55567922Y-26389932D02*
X55567922Y-26586432D01*
D54*
X67366622Y-58508232D02*
X67366622Y-58236378D01*
X56943822Y-33557932D02*
X58778322Y-31723432D01*
X56107922Y-46000078D02*
X56107922Y-46052632D01*
D55*
X58960422Y-41122132D02*
X58960422Y-41144432D01*
D54*
X54303364Y-38381832D02*
X54303364Y-37952290D01*
X52807022Y-39448632D02*
X54303364Y-37952290D01*
X51740222Y-30508932D02*
X51740222Y-31168732D01*
X63727922Y-31353432D02*
X63727922Y-31498432D01*
X53443922Y-31168732D02*
X53443922Y-31574632D01*
X52807022Y-49276000D02*
X52970554Y-49276000D01*
X50165000Y-59697354D02*
X50165000Y-60809610D01*
X63727422Y-31352932D02*
X63727922Y-31353432D01*
X67029922Y-30794432D02*
X67029922Y-31498432D01*
X55567922Y-26389932D02*
X54680822Y-26389932D01*
X67684204Y-48034932D02*
X67631222Y-48034932D01*
X58309422Y-36424932D02*
X60087422Y-36424932D01*
X63727922Y-31498432D02*
X63727922Y-27841932D01*
D57*
X63874422Y-27695032D02*
X63874422Y-27227432D01*
D54*
X69215422Y-49566150D02*
X67684204Y-48034932D01*
X52807022Y-52538032D02*
X52738122Y-52606932D01*
X52551022Y-56845532D02*
X52549522Y-56847032D01*
X66800222Y-29390232D02*
X64426722Y-29390232D01*
D55*
X57797122Y-39958832D02*
X58960422Y-41122132D01*
D54*
X67029922Y-31498432D02*
X67029922Y-29619932D01*
X71209922Y-56495932D02*
X71247422Y-56533432D01*
X67366622Y-58236378D02*
X69107068Y-56495932D01*
X58778322Y-31723432D02*
X59149422Y-31723432D01*
D55*
X57150000Y-44958000D02*
X57763568Y-44344432D01*
D54*
X51372422Y-58489932D02*
X50165000Y-59697354D01*
X52807022Y-52538032D02*
X52807022Y-39448632D01*
X74057422Y-30939332D02*
X74057422Y-32133432D01*
X74448922Y-33099732D02*
X74448922Y-32524932D01*
X74473222Y-33124032D02*
X74448922Y-33099732D01*
X56107922Y-46138632D02*
X56107922Y-46052632D01*
X53150422Y-52881432D02*
X52807022Y-52538032D01*
X53443922Y-31574632D02*
X55830722Y-33961432D01*
X67631222Y-48034932D02*
X67631222Y-48009732D01*
X69215422Y-56495932D02*
X69215422Y-49566150D01*
X54303364Y-38381832D02*
X56253122Y-38381832D01*
X64310622Y-61564232D02*
X67366622Y-58508232D01*
X52549522Y-57312832D02*
X51372422Y-58489932D01*
D55*
X57763568Y-44344432D02*
X58960422Y-44344432D01*
D54*
X53150422Y-52881432D02*
X52551022Y-52881432D01*
X51332722Y-30101432D02*
X51740222Y-30508932D01*
X53443922Y-30101432D02*
X53443922Y-31168732D01*
D58*
X68919822Y-28357432D02*
X69129422Y-28357432D01*
D54*
X64426722Y-29390232D02*
X63727422Y-30089532D01*
X69215422Y-56495932D02*
X71209922Y-56495932D01*
X59149422Y-31723432D02*
X60783322Y-30089532D01*
X56943822Y-33557932D02*
X55830722Y-34671032D01*
X51740222Y-31168732D02*
X51740222Y-31828632D01*
X54680822Y-26389932D02*
X53443922Y-27626832D01*
X74448922Y-32524932D02*
X74057422Y-32133432D01*
X54303364Y-37952290D02*
X55830722Y-36424932D01*
X50919622Y-61564232D02*
X64310622Y-61564232D01*
X50165000Y-60809610D02*
X50919622Y-61564232D01*
X52551022Y-52881432D02*
X52551022Y-56845532D01*
X55830722Y-33961432D02*
X55830722Y-34671032D01*
D58*
X69129422Y-27752432D02*
X69129422Y-28357432D01*
D54*
X52970554Y-49276000D02*
X56107922Y-46138632D01*
X57797122Y-39958832D02*
X57319922Y-39481632D01*
X60783322Y-30089532D02*
X63727422Y-30089532D01*
X55830722Y-36424932D02*
X58309422Y-36424932D01*
X55830722Y-34671032D02*
X55830722Y-36424932D01*
X67029922Y-29619932D02*
X66800222Y-29390232D01*
X74448922Y-33911432D02*
X74448922Y-33148332D01*
X68919822Y-29111932D02*
X68919822Y-28357432D01*
X68707422Y-28145032D02*
X68919822Y-28357432D01*
X58309422Y-36424932D02*
X58309422Y-36345932D01*
X63727922Y-27841932D02*
X63906822Y-27663032D01*
X69107068Y-56495932D02*
X69215422Y-56495932D01*
X74275322Y-30721432D02*
X74057422Y-30939332D01*
X56253122Y-38381832D02*
X56662322Y-38791032D01*
X74448922Y-33148332D02*
X74473222Y-33124032D01*
X70697622Y-30889732D02*
X68919822Y-29111932D01*
D55*
X67310422Y-47688932D02*
X67310422Y-46744432D01*
D54*
X67029422Y-30793932D02*
X67029922Y-30794432D01*
X67029922Y-29619932D02*
X68707422Y-27942432D01*
X57319922Y-39481632D02*
X57319922Y-39448632D01*
X52549522Y-56847032D02*
X52549522Y-57312832D01*
X56662322Y-38791032D02*
X57319922Y-39448632D01*
X71554522Y-30889732D02*
X70697622Y-30889732D01*
X52738122Y-52606932D02*
X51435422Y-52606932D01*
D52*
G04 #@! TO.N,/LSE_IN*
X55719222Y-41601632D02*
X56277422Y-41043432D01*
X57178422Y-41944432D02*
X56277422Y-41043432D01*
X58960422Y-41944432D02*
X57178422Y-41944432D01*
X54331022Y-41601632D02*
X55719222Y-41601632D01*
D53*
G04 #@! TO.N,_NFC_INT*
X57221422Y-27236432D02*
X57912422Y-26545432D01*
X59521622Y-45144432D02*
X58960422Y-45144432D01*
X55567922Y-27236432D02*
X57221422Y-27236432D01*
X60545822Y-44022132D02*
X60545822Y-44120232D01*
X60545822Y-44120232D02*
X59521622Y-45144432D01*
G04 #@! TO.N,_LIGHT_INT*
X58960422Y-45944432D02*
X59623022Y-45944432D01*
X61884422Y-26577432D02*
X60999722Y-26577432D01*
X60999722Y-26577432D02*
X60141122Y-27436032D01*
X59623022Y-45944432D02*
X62855222Y-42712232D01*
X62855222Y-42712232D02*
X62855222Y-42070732D01*
G04 #@! TO.N,IMU_INT1*
X62735422Y-39769432D02*
X62607422Y-39641432D01*
X62607422Y-39641432D02*
X62607422Y-36712332D01*
G04 #@! TO.N,IMU_INT2*
X62107422Y-36712332D02*
X62107422Y-39597432D01*
X62107422Y-39597432D02*
X61935422Y-39769432D01*
G04 #@! TO.N,TEMP_INT*
X69629422Y-25402432D02*
X69629422Y-24820732D01*
X63535422Y-38826332D02*
X63535422Y-39769432D01*
X64212422Y-34063383D02*
X64212422Y-38149332D01*
X69629422Y-24820732D02*
X69600622Y-24820732D01*
X64212422Y-38149332D02*
X63535422Y-38826332D01*
X64204531Y-34055492D02*
X64212422Y-34063383D01*
X69600622Y-24820732D02*
X68730122Y-23950232D01*
G04 #@! TO.N,_TEMP_RESET*
X69629422Y-28412532D02*
X69629422Y-27752432D01*
X64335422Y-38603832D02*
X64335422Y-39769432D01*
X64620722Y-35483532D02*
X64620722Y-38318532D01*
X70004422Y-28787532D02*
X69629422Y-28412532D01*
X64620722Y-38318532D02*
X64335422Y-38603832D01*
X66726222Y-33378032D02*
X64620722Y-35483532D01*
D52*
G04 #@! TO.N,/LSE_OUT*
X54347022Y-43017032D02*
X55751022Y-43017032D01*
X55751022Y-43017032D02*
X56277422Y-43543432D01*
X57175822Y-42744432D02*
X56376822Y-43543432D01*
X59059822Y-42744432D02*
X57175822Y-42744432D01*
D54*
G04 #@! TO.N,/+VBUS*
X76073422Y-50065832D02*
X76073422Y-49171432D01*
G04 #@! TO.N,/+LED*
X76057422Y-28424432D02*
X76879422Y-27602432D01*
X76057422Y-32133432D02*
X76057422Y-28424432D01*
D51*
G04 #@! TO.N,USB_N*
X67285422Y-43563432D02*
X69215422Y-43563432D01*
D59*
X75895422Y-43334832D02*
X75590422Y-43334832D01*
X74869422Y-44055432D02*
X73219222Y-44055432D01*
X73219222Y-44055432D02*
X73203222Y-44071432D01*
X71907822Y-44071432D02*
X71891822Y-44055432D01*
X73203222Y-44071432D02*
X73187222Y-44055432D01*
X71891822Y-44055432D02*
X69351822Y-44055432D01*
X75590022Y-43334832D02*
X74869422Y-44055432D01*
X71923822Y-44055432D02*
X71907822Y-44071432D01*
X73187222Y-44055432D02*
X71923822Y-44055432D01*
X69351822Y-44055432D02*
X69113822Y-43817432D01*
X75590422Y-43334832D02*
X74869422Y-44055432D01*
G04 #@! TO.N,USB_P*
X69605822Y-42055432D02*
X69164622Y-42496632D01*
X73177822Y-42064832D02*
X73168422Y-42055432D01*
X71349022Y-42039432D02*
X71333022Y-42055432D01*
D51*
X67335822Y-42750632D02*
X69215422Y-42750632D01*
D59*
X71333022Y-42055432D02*
X69605822Y-42055432D01*
X74869422Y-42055432D02*
X73187222Y-42055432D01*
X71365022Y-42055432D02*
X71349022Y-42039432D01*
X73168422Y-42055432D02*
X71365022Y-42055432D01*
D51*
X67335422Y-42750632D02*
X69215422Y-42750632D01*
D59*
X73187222Y-42055432D02*
X73177822Y-42064832D01*
D53*
G04 #@! TO.N,/CC1*
X73792168Y-37790032D02*
X75520322Y-37790032D01*
X75520322Y-37790032D02*
X76350922Y-36959432D01*
X73456800Y-38125400D02*
X73792168Y-37790032D01*
G04 #@! TO.N,USB_VBUS_SENSE*
X70520822Y-53782332D02*
X70520822Y-48569332D01*
X70520822Y-48569332D02*
X67895922Y-45944432D01*
X67895922Y-45944432D02*
X67310422Y-45944432D01*
X71604922Y-54866432D02*
X71501422Y-54762932D01*
X73001922Y-54866432D02*
X71604922Y-54866432D01*
X71501422Y-54762932D02*
X70520822Y-53782332D01*
G04 #@! TO.N,SWO*
X65135422Y-38277632D02*
X65135422Y-39769432D01*
X69723422Y-33784432D02*
X69628622Y-33784432D01*
X69628622Y-33784432D02*
X65135422Y-38277632D01*
G04 #@! TO.N,/CC2*
X71368922Y-45825932D02*
X71238722Y-45695732D01*
X72390422Y-45825932D02*
X71368922Y-45825932D01*
D54*
G04 #@! TO.N,+5V*
X77572022Y-50172832D02*
X76073422Y-51671432D01*
X76769422Y-44055432D02*
X76769422Y-44792832D01*
X76820522Y-56595932D02*
X74864422Y-56595932D01*
X74864422Y-63619232D02*
X74864422Y-62480932D01*
X74864422Y-56595932D02*
X74826922Y-56558432D01*
X72842922Y-62359432D02*
X72964422Y-62480932D01*
X74826922Y-56558432D02*
X74826922Y-54866432D01*
X72964422Y-63619232D02*
X73431822Y-64086632D01*
X73431822Y-64086632D02*
X74397022Y-64086632D01*
X72964422Y-62480932D02*
X72964422Y-63619232D01*
X76073422Y-51671432D02*
X76073422Y-53619932D01*
X76769422Y-44792832D02*
X77572022Y-45595432D01*
X77572022Y-45595432D02*
X77572022Y-50172832D01*
X71268922Y-62359432D02*
X72842922Y-62359432D01*
X77610022Y-57385432D02*
X76820522Y-56595932D01*
X77610022Y-59735332D02*
X77610022Y-57385432D01*
X74864422Y-62480932D02*
X77610022Y-59735332D01*
X76073422Y-53619932D02*
X74826922Y-54866432D01*
X74397022Y-64086632D02*
X74864422Y-63619232D01*
D53*
G04 #@! TO.N,/BOOT0*
X61135422Y-39769432D02*
X61135422Y-38364932D01*
X61135422Y-38364932D02*
X60745922Y-37975432D01*
G04 #@! TO.N,/_QSPI_NCS*
X55042222Y-50662632D02*
X58960422Y-46744432D01*
X53150422Y-60081432D02*
X53237222Y-59994632D01*
X51605922Y-60081432D02*
X53150422Y-60081432D01*
X53237222Y-59994632D02*
X53237222Y-57318532D01*
X51372422Y-60314932D02*
X51605922Y-60081432D01*
X55042222Y-55513532D02*
X55042222Y-50662632D01*
X53237222Y-57318532D02*
X55042222Y-55513532D01*
G04 #@! TO.N,Net-(U1-AC0)*
X47870022Y-24783432D02*
X46879422Y-24783432D01*
X49842922Y-27236432D02*
X49154622Y-27236432D01*
X49154622Y-27236432D02*
X48565222Y-26647032D01*
X48565222Y-26647032D02*
X48565222Y-25478632D01*
X48565222Y-25478632D02*
X47870022Y-24783432D01*
G04 #@! TO.N,Net-(U1-AC1)*
X49842922Y-27886432D02*
X49105422Y-27886432D01*
X49843422Y-27886432D02*
X49842922Y-27886432D01*
X47879422Y-26660432D02*
X47879422Y-25783432D01*
X49105422Y-27886432D02*
X47879422Y-26660432D01*
G04 #@! TO.N,/QSPI_IO1*
X54420422Y-60081432D02*
X55075622Y-59426232D01*
X64335422Y-45827760D02*
X64335422Y-48119432D01*
X55075622Y-59426232D02*
X55075622Y-57913532D01*
X64404228Y-45758954D02*
X64335422Y-45827760D01*
G04 #@! TO.N,/QSPI_IO2*
X57014222Y-51342632D02*
X56303822Y-52053032D01*
X56303822Y-52053032D02*
X56303822Y-58773332D01*
X63535422Y-48986578D02*
X61179368Y-51342632D01*
X56303822Y-58773332D02*
X55690422Y-59386732D01*
X55690422Y-59386732D02*
X55690422Y-60081432D01*
X61179368Y-51342632D02*
X57014222Y-51342632D01*
X63535422Y-48119432D02*
X63535422Y-48986578D01*
G04 #@! TO.N,/QSPI_IO0*
X65135422Y-49037578D02*
X65135422Y-48119432D01*
X56960422Y-52881432D02*
X61291568Y-52881432D01*
X61291568Y-52881432D02*
X65135422Y-49037578D01*
G04 #@! TO.N,/QSPI_CLK*
X59619522Y-48119432D02*
X55690422Y-52048532D01*
X60335422Y-48119432D02*
X59619522Y-48119432D01*
X55690422Y-52048532D02*
X55690422Y-52881432D01*
G04 #@! TO.N,/QSPI_IO3*
X54236022Y-52697032D02*
X54236022Y-51350632D01*
X62735422Y-46908232D02*
X62735422Y-48119432D01*
X54420422Y-52881432D02*
X54236022Y-52697032D01*
X61488722Y-45661532D02*
X62735422Y-46908232D01*
D54*
G04 #@! TO.N,/+BATTERY*
X75311422Y-58549432D02*
X76200422Y-58549432D01*
X76200422Y-58549432D02*
X76200422Y-58168432D01*
X75311422Y-58168432D02*
X75692422Y-57787432D01*
X75311422Y-58549432D02*
X74370822Y-58549432D01*
X73953622Y-58510132D02*
X73914422Y-58470932D01*
X75311422Y-58549432D02*
X75311422Y-58168432D01*
X74370422Y-58510132D02*
X73953622Y-58510132D01*
X76200422Y-58168432D02*
X76581422Y-57787432D01*
G04 #@! TD*
G04 #@! TA.AperFunction,Conductor*
G04 #@! TO.N,_LIGHT_INT*
G36*
X63212189Y-42218558D02*
G01*
X63218507Y-42224905D01*
X63218486Y-42233859D01*
X63217678Y-42235446D01*
X62822731Y-42883445D01*
X62815499Y-42888726D01*
X62806651Y-42887347D01*
X62804467Y-42885629D01*
X62673187Y-42754349D01*
X62670421Y-42749952D01*
X62489335Y-42234242D01*
X62489827Y-42225301D01*
X62495884Y-42219562D01*
X62851433Y-42071891D01*
X62860385Y-42071883D01*
X63212189Y-42218558D01*
G37*
G04 #@! TD.AperFunction*
G04 #@! TD*
G04 #@! TA.AperFunction,Conductor*
G04 #@! TO.N,SDA*
G36*
X66464377Y-43956547D02*
G01*
X66472177Y-43957760D01*
X66551263Y-43970061D01*
X66554399Y-43971015D01*
X66599036Y-43991830D01*
X66646904Y-43998132D01*
X66730819Y-43998132D01*
X66732616Y-43998270D01*
X67339233Y-44092628D01*
X67346880Y-44097286D01*
X67348995Y-44105987D01*
X67348990Y-44106019D01*
X67312678Y-44335353D01*
X67308000Y-44342988D01*
X67301222Y-44345223D01*
X66565418Y-44351486D01*
X66557116Y-44348129D01*
X66556936Y-44347949D01*
X66322879Y-44107589D01*
X66319562Y-44099271D01*
X66322987Y-44091154D01*
X66454307Y-43959834D01*
X66462579Y-43956408D01*
X66464377Y-43956547D01*
G37*
G04 #@! TD.AperFunction*
G04 #@! TD*
G04 #@! TA.AperFunction,Conductor*
G04 #@! TO.N,VDD*
G36*
X64180061Y-26615917D02*
G01*
X64225816Y-26668721D01*
X64237022Y-26720232D01*
X64237022Y-27562000D01*
X64217337Y-27629039D01*
X64164533Y-27674794D01*
X64113022Y-27686000D01*
X63649822Y-27686000D01*
X63582783Y-27666315D01*
X63537028Y-27613511D01*
X63525822Y-27562000D01*
X63525822Y-26720232D01*
X63545507Y-26653193D01*
X63598311Y-26607438D01*
X63649822Y-26596232D01*
X64113022Y-26596232D01*
X64180061Y-26615917D01*
G37*
G04 #@! TD.AperFunction*
G04 #@! TD*
G04 #@! TA.AperFunction,Conductor*
G04 #@! TO.N,SCL*
G36*
X54601580Y-30759281D02*
G01*
X54910793Y-30881074D01*
X55454615Y-31095276D01*
X55461056Y-31101496D01*
X55461213Y-31110450D01*
X55461144Y-31110620D01*
X55271567Y-31570635D01*
X55265247Y-31576978D01*
X55264867Y-31577129D01*
X54792286Y-31754798D01*
X54783336Y-31754501D01*
X54777251Y-31748051D01*
X54453493Y-30907251D01*
X54453719Y-30898299D01*
X54456136Y-30894777D01*
X54589020Y-30761893D01*
X54597292Y-30758467D01*
X54601580Y-30759281D01*
G37*
G04 #@! TD.AperFunction*
G04 #@! TD*
G04 #@! TA.AperFunction,Conductor*
G04 #@! TO.N,+3V0*
G36*
X71948456Y-58375885D02*
G01*
X71951912Y-58379219D01*
X72462646Y-59131283D01*
X72529200Y-59229284D01*
X72531013Y-59238053D01*
X72527794Y-59244130D01*
X72002506Y-59769387D01*
X71994233Y-59772814D01*
X71987858Y-59770925D01*
X71167759Y-59238053D01*
X71014797Y-59138663D01*
X71009728Y-59131283D01*
X71010307Y-59124515D01*
X71244439Y-58538421D01*
X71250689Y-58532011D01*
X71252686Y-58531360D01*
X71939630Y-58374387D01*
X71948456Y-58375885D01*
G37*
G04 #@! TD.AperFunction*
G04 #@! TD*
G04 #@! TA.AperFunction,Conductor*
G04 #@! TO.N,+5V*
G36*
X76591591Y-50628941D02*
G01*
X77115912Y-51153262D01*
X77119339Y-51161535D01*
X77116929Y-51168648D01*
X76578875Y-51871414D01*
X76571125Y-51875899D01*
X76565126Y-51875118D01*
X76077217Y-51673994D01*
X76070874Y-51667673D01*
X76070859Y-51667636D01*
X75869735Y-51179727D01*
X75869750Y-51170772D01*
X75873438Y-51165979D01*
X76576207Y-50627923D01*
X76584858Y-50625616D01*
X76591591Y-50628941D01*
G37*
G04 #@! TD.AperFunction*
G04 #@! TD*
G04 #@! TA.AperFunction,Conductor*
G04 #@! TO.N,_RESET*
G36*
X74063335Y-34987137D02*
G01*
X74431931Y-35414219D01*
X74443059Y-35427112D01*
X74445871Y-35435614D01*
X74443092Y-35442363D01*
X74064619Y-35884658D01*
X74056636Y-35888716D01*
X74049475Y-35886939D01*
X73530334Y-35558597D01*
X73528315Y-35556982D01*
X73395779Y-35424446D01*
X73392352Y-35416173D01*
X73395779Y-35407900D01*
X73397682Y-35406359D01*
X74048119Y-34984961D01*
X74056923Y-34983339D01*
X74063335Y-34987137D01*
G37*
G04 #@! TD.AperFunction*
G04 #@! TD*
G04 #@! TA.AperFunction,Conductor*
G04 #@! TO.N,SCL*
G36*
X62050351Y-25632443D02*
G01*
X62197972Y-25780064D01*
X62201399Y-25788337D01*
X62197972Y-25796610D01*
X62194188Y-25799142D01*
X61894599Y-25923616D01*
X61885644Y-25923625D01*
X61879305Y-25917300D01*
X61879273Y-25917220D01*
X61831838Y-25800626D01*
X61831894Y-25791671D01*
X61835478Y-25786993D01*
X62034885Y-25631489D01*
X62043514Y-25629105D01*
X62050351Y-25632443D01*
G37*
G04 #@! TD.AperFunction*
G04 #@! TD*
G04 #@! TA.AperFunction,Conductor*
G04 #@! TO.N,USB_VBUS_SENSE*
G36*
X70834041Y-53947503D02*
G01*
X70840913Y-53950149D01*
X71674841Y-54271261D01*
X71681329Y-54277431D01*
X71681588Y-54286296D01*
X71503919Y-54758877D01*
X71497800Y-54765415D01*
X71497425Y-54765577D01*
X71037410Y-54955154D01*
X71028455Y-54955138D01*
X71022135Y-54948795D01*
X71022066Y-54948625D01*
X70949203Y-54763639D01*
X70686071Y-54095590D01*
X70686228Y-54086636D01*
X70688681Y-54083032D01*
X70821565Y-53950148D01*
X70829837Y-53946722D01*
X70834041Y-53947503D01*
G37*
G04 #@! TD.AperFunction*
G04 #@! TD*
G04 #@! TA.AperFunction,Conductor*
G04 #@! TO.N,/QSPI_IO1*
G36*
X64437551Y-47122859D02*
G01*
X64440048Y-47126560D01*
X64574122Y-47442393D01*
X64574371Y-47450898D01*
X64346441Y-48089556D01*
X64340433Y-48096196D01*
X64331489Y-48096642D01*
X64324849Y-48090634D01*
X64324403Y-48089556D01*
X64096472Y-47450898D01*
X64096720Y-47442394D01*
X64230796Y-47126559D01*
X64237183Y-47120284D01*
X64241566Y-47119432D01*
X64429278Y-47119432D01*
X64437551Y-47122859D01*
G37*
G04 #@! TD.AperFunction*
G04 #@! TD*
G04 #@! TA.AperFunction,Conductor*
G04 #@! TO.N,SWDCLK*
G36*
X67332443Y-40616451D02*
G01*
X67333544Y-40617422D01*
X67467848Y-40751726D01*
X67601422Y-40885373D01*
X67604847Y-40893647D01*
X67601418Y-40901919D01*
X67600638Y-40902631D01*
X67318728Y-41137625D01*
X67310179Y-41140290D01*
X67302250Y-41136129D01*
X67302228Y-41136104D01*
X67107936Y-40901656D01*
X67105296Y-40893099D01*
X67107700Y-40887019D01*
X67316029Y-40618521D01*
X67323806Y-40614087D01*
X67332443Y-40616451D01*
G37*
G04 #@! TD.AperFunction*
G04 #@! TD*
G04 #@! TA.AperFunction,Conductor*
G04 #@! TO.N,_TEMP_RESET*
G36*
X69634248Y-27769133D02*
G01*
X69640079Y-27774964D01*
X69748880Y-28015197D01*
X69749922Y-28020024D01*
X69749922Y-28050380D01*
X69749722Y-28052533D01*
X69732809Y-28142885D01*
X69727919Y-28150386D01*
X69721309Y-28152432D01*
X69537535Y-28152432D01*
X69529262Y-28149005D01*
X69526035Y-28142885D01*
X69505100Y-28031055D01*
X69505942Y-28024075D01*
X69509963Y-28015197D01*
X69618765Y-27774961D01*
X69625298Y-27768842D01*
X69634248Y-27769133D01*
G37*
G04 #@! TD.AperFunction*
G04 #@! TD*
G04 #@! TA.AperFunction,Conductor*
G04 #@! TO.N,/QSPI_IO3*
G36*
X54594800Y-51499213D02*
G01*
X54601118Y-51505560D01*
X54601107Y-51514489D01*
X54340614Y-52143409D01*
X54334283Y-52149741D01*
X54329805Y-52150632D01*
X54142239Y-52150632D01*
X54133966Y-52147205D01*
X54131430Y-52143409D01*
X53870936Y-51514487D01*
X53870936Y-51505534D01*
X53877242Y-51499213D01*
X54231522Y-51351507D01*
X54240471Y-51351487D01*
X54594800Y-51499213D01*
G37*
G04 #@! TD.AperFunction*
G04 #@! TD*
G04 #@! TA.AperFunction,Conductor*
G04 #@! TO.N,SCL*
G36*
X61522709Y-25794255D02*
G01*
X61827346Y-25906108D01*
X61855509Y-25916449D01*
X61862094Y-25922517D01*
X61862459Y-25931465D01*
X61856391Y-25938050D01*
X61855509Y-25938415D01*
X61522711Y-26060607D01*
X61516010Y-26061016D01*
X61388454Y-26031146D01*
X61381180Y-26025923D01*
X61379422Y-26019754D01*
X61379422Y-25835109D01*
X61382849Y-25826836D01*
X61388454Y-25823717D01*
X61516013Y-25793847D01*
X61522709Y-25794255D01*
G37*
G04 #@! TD.AperFunction*
G04 #@! TD*
G04 #@! TA.AperFunction,Conductor*
G04 #@! TO.N,/QSPI_IO3*
G36*
X62837551Y-47122859D02*
G01*
X62840048Y-47126560D01*
X62974122Y-47442393D01*
X62974371Y-47450898D01*
X62746441Y-48089556D01*
X62740433Y-48096196D01*
X62731489Y-48096642D01*
X62724849Y-48090634D01*
X62724403Y-48089556D01*
X62496472Y-47450898D01*
X62496720Y-47442394D01*
X62630796Y-47126559D01*
X62637183Y-47120284D01*
X62641566Y-47119432D01*
X62829278Y-47119432D01*
X62837551Y-47122859D01*
G37*
G04 #@! TD.AperFunction*
G04 #@! TD*
G04 #@! TA.AperFunction,Conductor*
G04 #@! TO.N,SCL*
G36*
X64227025Y-41995598D02*
G01*
X64582731Y-42143334D01*
X64589057Y-42149672D01*
X64589347Y-42157825D01*
X64419750Y-42668675D01*
X64416919Y-42673262D01*
X64285544Y-42804637D01*
X64277271Y-42808064D01*
X64268998Y-42804637D01*
X64267378Y-42802611D01*
X64144950Y-42608747D01*
X63861066Y-42159217D01*
X63859547Y-42150394D01*
X63864713Y-42143079D01*
X63866454Y-42142174D01*
X64218022Y-41995597D01*
X64226974Y-41995577D01*
X64227025Y-41995598D01*
G37*
G04 #@! TD.AperFunction*
G04 #@! TD*
G04 #@! TA.AperFunction,Conductor*
G04 #@! TO.N,/_QSPI_NCS*
G36*
X52857176Y-59788164D02*
G01*
X53027714Y-59958135D01*
X53143107Y-60073145D01*
X53146548Y-60081413D01*
X53143135Y-60089691D01*
X53143107Y-60089719D01*
X52857178Y-60374698D01*
X52848900Y-60378111D01*
X52842465Y-60376170D01*
X52840239Y-60374698D01*
X52729841Y-60301688D01*
X52555668Y-60186501D01*
X52550658Y-60179079D01*
X52550422Y-60176742D01*
X52550422Y-59986121D01*
X52553849Y-59977848D01*
X52555663Y-59976365D01*
X52842467Y-59786692D01*
X52851256Y-59784988D01*
X52857176Y-59788164D01*
G37*
G04 #@! TD.AperFunction*
G04 #@! TD*
G04 #@! TA.AperFunction,Conductor*
G04 #@! TO.N,VDD*
G36*
X61271494Y-36090117D02*
G01*
X61273346Y-36091330D01*
X61308121Y-36114566D01*
X61308122Y-36114567D01*
X61357496Y-36124387D01*
X61382355Y-36129332D01*
X61471423Y-36129331D01*
X61538460Y-36149015D01*
X61584216Y-36201818D01*
X61595422Y-36253331D01*
X61595422Y-36708432D01*
X61575737Y-36775471D01*
X61522933Y-36821226D01*
X61471422Y-36832432D01*
X60576422Y-36832432D01*
X60509383Y-36812747D01*
X60463628Y-36759943D01*
X60452422Y-36708432D01*
X60452422Y-36194432D01*
X60472107Y-36127393D01*
X60524911Y-36081638D01*
X60576422Y-36070432D01*
X61204455Y-36070432D01*
X61271494Y-36090117D01*
G37*
G04 #@! TD.AperFunction*
G04 #@! TD*
G04 #@! TA.AperFunction,Conductor*
G04 #@! TO.N,IMU_INT1*
G36*
X62711283Y-38773456D02*
G01*
X62712522Y-38774916D01*
X62889180Y-39021562D01*
X62891211Y-39030284D01*
X62891117Y-39030785D01*
X62743390Y-39732578D01*
X62738333Y-39739968D01*
X62729531Y-39741617D01*
X62722141Y-39736560D01*
X62721075Y-39734507D01*
X62486379Y-39146829D01*
X62485562Y-39141855D01*
X62505219Y-38781091D01*
X62509091Y-38773018D01*
X62516902Y-38770029D01*
X62703010Y-38770029D01*
X62711283Y-38773456D01*
G37*
G04 #@! TD.AperFunction*
G04 #@! TD*
G04 #@! TA.AperFunction,Conductor*
G04 #@! TO.N,VDD*
G36*
X70704102Y-55955460D02*
G01*
X70706277Y-55957272D01*
X71240877Y-56525414D01*
X71244051Y-56533788D01*
X71240877Y-56541450D01*
X70706781Y-57109055D01*
X70698616Y-57112732D01*
X70694747Y-57112197D01*
X69955609Y-56879509D01*
X69948746Y-56873756D01*
X69947422Y-56868349D01*
X69947422Y-56124380D01*
X69950849Y-56116107D01*
X69956655Y-56112943D01*
X70695294Y-55953852D01*
X70704102Y-55955460D01*
G37*
G04 #@! TD.AperFunction*
G04 #@! TD*
G04 #@! TA.AperFunction,Conductor*
G04 #@! TO.N,VDD*
G36*
X67409309Y-30551859D02*
G01*
X67412572Y-30558179D01*
X67503798Y-31096929D01*
X67501800Y-31105658D01*
X67499753Y-31107870D01*
X67037413Y-31493188D01*
X67028863Y-31495852D01*
X67022431Y-31493188D01*
X66560090Y-31107870D01*
X66555929Y-31099941D01*
X66556045Y-31096929D01*
X66647272Y-30558179D01*
X66652032Y-30550594D01*
X66658808Y-30548432D01*
X67401036Y-30548432D01*
X67409309Y-30551859D01*
G37*
G04 #@! TD.AperFunction*
G04 #@! TD*
G04 #@! TA.AperFunction,Conductor*
G04 #@! TO.N,USB_P*
G36*
X67987545Y-42505869D02*
G01*
X68303509Y-42647532D01*
X68309656Y-42654044D01*
X68310422Y-42658208D01*
X68310422Y-42842786D01*
X68306995Y-42851059D01*
X68303165Y-42853610D01*
X67987406Y-42983213D01*
X67979030Y-42983408D01*
X67340297Y-42755451D01*
X67333657Y-42749443D01*
X67333211Y-42740499D01*
X67339219Y-42733859D01*
X67340297Y-42733413D01*
X67978829Y-42505527D01*
X67987545Y-42505869D01*
G37*
G04 #@! TD.AperFunction*
G04 #@! TD*
G04 #@! TA.AperFunction,Conductor*
G04 #@! TO.N,USB_N*
G36*
X67992580Y-43309378D02*
G01*
X68303825Y-43460234D01*
X68309775Y-43466926D01*
X68310422Y-43470762D01*
X68310422Y-43655296D01*
X68306995Y-43663569D01*
X68302795Y-43666264D01*
X67987250Y-43783434D01*
X67979244Y-43783484D01*
X67340625Y-43555568D01*
X67333985Y-43549560D01*
X67333539Y-43540616D01*
X67339547Y-43533976D01*
X67340690Y-43533507D01*
X67983646Y-43308873D01*
X67992580Y-43309378D01*
G37*
G04 #@! TD.AperFunction*
G04 #@! TD*
G04 #@! TA.AperFunction,Conductor*
G04 #@! TO.N,+3V0*
G36*
X71975958Y-57279779D02*
G01*
X72501250Y-57805071D01*
X72504677Y-57813344D01*
X72502813Y-57819679D01*
X71951786Y-58675183D01*
X71944425Y-58680283D01*
X71939535Y-58680296D01*
X71252760Y-58535414D01*
X71245372Y-58530353D01*
X71244359Y-58528428D01*
X71002518Y-57942217D01*
X71002531Y-57933262D01*
X71006748Y-57928084D01*
X71961104Y-57278379D01*
X71969868Y-57276557D01*
X71975958Y-57279779D01*
G37*
G04 #@! TD.AperFunction*
G04 #@! TD*
G04 #@! TA.AperFunction,Conductor*
G04 #@! TO.N,_LIGHT_INT*
G36*
X61522709Y-26444255D02*
G01*
X61827346Y-26556108D01*
X61855509Y-26566449D01*
X61862094Y-26572517D01*
X61862459Y-26581465D01*
X61856391Y-26588050D01*
X61855509Y-26588415D01*
X61522711Y-26710607D01*
X61516010Y-26711016D01*
X61388454Y-26681146D01*
X61381180Y-26675923D01*
X61379422Y-26669754D01*
X61379422Y-26485109D01*
X61382849Y-26476836D01*
X61388454Y-26473717D01*
X61516013Y-26443847D01*
X61522709Y-26444255D01*
G37*
G04 #@! TD.AperFunction*
G04 #@! TD*
G04 #@! TA.AperFunction,Conductor*
G04 #@! TO.N,SDA*
G36*
X58842978Y-29940759D02*
G01*
X58845514Y-29944555D01*
X59106007Y-30573474D01*
X59106007Y-30582429D01*
X59099700Y-30588750D01*
X58745424Y-30736455D01*
X58736470Y-30736476D01*
X58736420Y-30736455D01*
X58382143Y-30588750D01*
X58375825Y-30582403D01*
X58375835Y-30573476D01*
X58636330Y-29944554D01*
X58642661Y-29938223D01*
X58647139Y-29937332D01*
X58834705Y-29937332D01*
X58842978Y-29940759D01*
G37*
G04 #@! TD.AperFunction*
G04 #@! TD*
G04 #@! TA.AperFunction,Conductor*
G04 #@! TO.N,VDD*
G36*
X69596270Y-55324359D02*
G01*
X69599093Y-55328923D01*
X69800561Y-55931643D01*
X69799934Y-55940576D01*
X69797524Y-55943834D01*
X69223481Y-56489274D01*
X69215123Y-56492488D01*
X69207363Y-56489274D01*
X68633319Y-55943834D01*
X68629682Y-55935651D01*
X68630281Y-55931647D01*
X68831751Y-55328923D01*
X68837623Y-55322163D01*
X68842847Y-55320932D01*
X69587997Y-55320932D01*
X69596270Y-55324359D01*
G37*
G04 #@! TD.AperFunction*
G04 #@! TD*
G04 #@! TA.AperFunction,Conductor*
G04 #@! TO.N,/CC2*
G36*
X72068253Y-45365372D02*
G01*
X72386706Y-45819212D01*
X72388653Y-45827952D01*
X72386706Y-45832652D01*
X72068253Y-46286491D01*
X72060696Y-46291295D01*
X72052718Y-46289840D01*
X71446164Y-45930929D01*
X71440789Y-45923767D01*
X71440422Y-45920860D01*
X71440422Y-45731003D01*
X71443849Y-45722730D01*
X71446162Y-45720935D01*
X72052720Y-45362022D01*
X72061583Y-45360759D01*
X72068253Y-45365372D01*
G37*
G04 #@! TD.AperFunction*
G04 #@! TD*
G04 #@! TA.AperFunction,Conductor*
G04 #@! TO.N,SCL*
G36*
X67746806Y-23596168D02*
G01*
X67753130Y-23602508D01*
X67753377Y-23603161D01*
X68186542Y-24860336D01*
X68185997Y-24869274D01*
X68183753Y-24872420D01*
X68050410Y-25005763D01*
X68042137Y-25009190D01*
X68038327Y-25008552D01*
X67628225Y-24867250D01*
X66781151Y-24575387D01*
X66774445Y-24569452D01*
X66773900Y-24560514D01*
X66774135Y-24559891D01*
X67053860Y-23882218D01*
X67060181Y-23875881D01*
X67737853Y-23596157D01*
X67746806Y-23596168D01*
G37*
G04 #@! TD.AperFunction*
G04 #@! TD*
G04 #@! TA.AperFunction,Conductor*
G04 #@! TO.N,VDD*
G36*
X53791039Y-29737685D02*
G01*
X53836794Y-29790489D01*
X53848000Y-29842000D01*
X53848000Y-32261000D01*
X53828315Y-32328039D01*
X53775511Y-32373794D01*
X53724000Y-32385000D01*
X51051000Y-32385000D01*
X50983961Y-32365315D01*
X50938206Y-32312511D01*
X50927000Y-32261000D01*
X50927000Y-29842000D01*
X50946685Y-29774961D01*
X50999489Y-29729206D01*
X51051000Y-29718000D01*
X53724000Y-29718000D01*
X53791039Y-29737685D01*
G37*
G04 #@! TD.AperFunction*
G04 #@! TD*
G04 #@! TA.AperFunction,Conductor*
G04 #@! TO.N,/QSPI_CLK*
G36*
X60091849Y-47875833D02*
G01*
X60328098Y-48111142D01*
X60331541Y-48119409D01*
X60328131Y-48127689D01*
X60328098Y-48127722D01*
X60091849Y-48363030D01*
X60083569Y-48366440D01*
X60077620Y-48364801D01*
X59841150Y-48224432D01*
X59835785Y-48217262D01*
X59835422Y-48214371D01*
X59835422Y-48024492D01*
X59838849Y-48016219D01*
X59841145Y-48014434D01*
X60077622Y-47874061D01*
X60086483Y-47872786D01*
X60091849Y-47875833D01*
G37*
G04 #@! TD.AperFunction*
G04 #@! TD*
G04 #@! TA.AperFunction,Conductor*
G04 #@! TO.N,TEMP_INT*
G36*
X63512210Y-38723355D02*
G01*
X63514950Y-38725391D01*
X63646282Y-38856723D01*
X63648312Y-38859452D01*
X63773439Y-39092011D01*
X63774341Y-39100921D01*
X63774151Y-39101499D01*
X63546439Y-39737397D01*
X63540424Y-39744031D01*
X63531480Y-39744468D01*
X63524846Y-39738453D01*
X63524267Y-39736975D01*
X63315170Y-39073233D01*
X63315951Y-39064315D01*
X63496369Y-38728129D01*
X63503299Y-38722462D01*
X63512210Y-38723355D01*
G37*
G04 #@! TD.AperFunction*
G04 #@! TD*
G04 #@! TA.AperFunction,Conductor*
G04 #@! TO.N,SDA*
G36*
X65333040Y-32511253D02*
G01*
X65480745Y-32865530D01*
X65480766Y-32874484D01*
X65480745Y-32874534D01*
X65333040Y-33228810D01*
X65326693Y-33235128D01*
X65317764Y-33235117D01*
X64688845Y-32974623D01*
X64682513Y-32968292D01*
X64681622Y-32963814D01*
X64681622Y-32776249D01*
X64685049Y-32767976D01*
X64688843Y-32765440D01*
X65317767Y-32504946D01*
X65326719Y-32504946D01*
X65333040Y-32511253D01*
G37*
G04 #@! TD.AperFunction*
G04 #@! TD*
G04 #@! TA.AperFunction,Conductor*
G04 #@! TO.N,_RESET*
G36*
X68872520Y-39334329D02*
G01*
X68874608Y-39337166D01*
X69198036Y-39953642D01*
X69198845Y-39962561D01*
X69193111Y-39969439D01*
X69192177Y-39969877D01*
X68838924Y-40117155D01*
X68829970Y-40117176D01*
X68829920Y-40117155D01*
X68476666Y-39969877D01*
X68474789Y-39969094D01*
X68468472Y-39962748D01*
X68468150Y-39954726D01*
X68665517Y-39339030D01*
X68671306Y-39332198D01*
X68676659Y-39330902D01*
X68864247Y-39330902D01*
X68872520Y-39334329D01*
G37*
G04 #@! TD.AperFunction*
G04 #@! TD*
G04 #@! TA.AperFunction,Conductor*
G04 #@! TO.N,/QSPI_IO2*
G36*
X63544547Y-48154459D02*
G01*
X63545339Y-48156701D01*
X63713606Y-48850485D01*
X63712226Y-48859333D01*
X63711916Y-48859814D01*
X63521270Y-49140654D01*
X63513788Y-49145575D01*
X63505019Y-49143763D01*
X63503317Y-49142356D01*
X63371545Y-49010584D01*
X63368758Y-49006129D01*
X63316772Y-48855525D01*
X63296279Y-48796154D01*
X63296324Y-48788393D01*
X63522955Y-48155513D01*
X63528969Y-48148881D01*
X63537913Y-48148444D01*
X63544547Y-48154459D01*
G37*
G04 #@! TD.AperFunction*
G04 #@! TD*
G04 #@! TA.AperFunction,Conductor*
G04 #@! TO.N,SWDCLK*
G36*
X71154854Y-34695135D02*
G01*
X71271646Y-34743215D01*
X71773577Y-34949849D01*
X71779922Y-34956166D01*
X71780822Y-34960667D01*
X71780822Y-35148196D01*
X71777395Y-35156469D01*
X71773576Y-35159015D01*
X71154854Y-35413728D01*
X71145899Y-35413709D01*
X71139601Y-35407412D01*
X71036029Y-35159015D01*
X70994298Y-35058933D01*
X70994278Y-35049980D01*
X71139602Y-34701449D01*
X71145948Y-34695134D01*
X71154854Y-34695135D01*
G37*
G04 #@! TD.AperFunction*
G04 #@! TD*
G04 #@! TA.AperFunction,Conductor*
G04 #@! TO.N,SDA*
G36*
X72248049Y-23355040D02*
G01*
X72766582Y-23872193D01*
X72770020Y-23880461D01*
X72769127Y-23884960D01*
X72488789Y-24560781D01*
X72482454Y-24567110D01*
X72473749Y-24567205D01*
X71433517Y-24163509D01*
X71429477Y-24160875D01*
X71297373Y-24028771D01*
X71293946Y-24020498D01*
X71297373Y-24012225D01*
X71298910Y-24010932D01*
X72233057Y-23353754D01*
X72241793Y-23351797D01*
X72248049Y-23355040D01*
G37*
G04 #@! TD.AperFunction*
G04 #@! TD*
G04 #@! TA.AperFunction,Conductor*
G04 #@! TO.N,Net-(U1-AC0)*
G36*
X47634128Y-24678868D02*
G01*
X47640501Y-24685156D01*
X47641422Y-24689706D01*
X47641422Y-24877157D01*
X47637995Y-24885430D01*
X47634127Y-24887996D01*
X47035965Y-25131065D01*
X47027010Y-25131005D01*
X47020761Y-25124730D01*
X46880299Y-24787935D01*
X46880279Y-24778981D01*
X46880300Y-24778928D01*
X47020762Y-24442131D01*
X47027109Y-24435817D01*
X47035963Y-24435798D01*
X47634128Y-24678868D01*
G37*
G04 #@! TD.AperFunction*
G04 #@! TD*
G04 #@! TA.AperFunction,Conductor*
G04 #@! TO.N,/_QSPI_NCS*
G36*
X51708393Y-59847149D02*
G01*
X52313194Y-59977838D01*
X52320556Y-59982934D01*
X52322422Y-59989273D01*
X52322422Y-60178145D01*
X52318995Y-60186418D01*
X52318946Y-60186467D01*
X51808558Y-60690899D01*
X51800265Y-60694277D01*
X51792537Y-60691301D01*
X51379176Y-60321862D01*
X51375291Y-60313793D01*
X51377396Y-60306418D01*
X51461564Y-60186467D01*
X51696350Y-59851865D01*
X51703906Y-59847062D01*
X51708393Y-59847149D01*
G37*
G04 #@! TD.AperFunction*
G04 #@! TD*
G04 #@! TA.AperFunction,Conductor*
G04 #@! TO.N,SCL*
G36*
X56247172Y-27695251D02*
G01*
X56497556Y-27782103D01*
X56504250Y-27788052D01*
X56505422Y-27793157D01*
X56505422Y-27979706D01*
X56501995Y-27987979D01*
X56497556Y-27990760D01*
X56247174Y-28077611D01*
X56240141Y-28077811D01*
X55606509Y-27897685D01*
X55599489Y-27892128D01*
X55598455Y-27883233D01*
X55604013Y-27876212D01*
X55606510Y-27875178D01*
X56240143Y-27695052D01*
X56247172Y-27695251D01*
G37*
G04 #@! TD.AperFunction*
G04 #@! TD*
G04 #@! TA.AperFunction,Conductor*
G04 #@! TO.N,SDA*
G36*
X55372124Y-29154859D02*
G01*
X55373920Y-29157174D01*
X55732830Y-29763728D01*
X55734094Y-29772593D01*
X55729481Y-29779263D01*
X55275642Y-30097716D01*
X55266902Y-30099663D01*
X55262202Y-30097716D01*
X54808362Y-29779263D01*
X54803558Y-29771706D01*
X54805012Y-29763730D01*
X55163924Y-29157173D01*
X55171086Y-29151799D01*
X55173993Y-29151432D01*
X55363851Y-29151432D01*
X55372124Y-29154859D01*
G37*
G04 #@! TD.AperFunction*
G04 #@! TD*
G04 #@! TA.AperFunction,Conductor*
G04 #@! TO.N,SCL*
G36*
X69007150Y-25280407D02*
G01*
X69008780Y-25281755D01*
X69122049Y-25394126D01*
X69125509Y-25402385D01*
X69122115Y-25410672D01*
X69122049Y-25410738D01*
X69008780Y-25523108D01*
X69000493Y-25526502D01*
X68998387Y-25526302D01*
X68888969Y-25505819D01*
X68881468Y-25500929D01*
X68879422Y-25494319D01*
X68879422Y-25310544D01*
X68882849Y-25302271D01*
X68888966Y-25299045D01*
X68998388Y-25278561D01*
X69007150Y-25280407D01*
G37*
G04 #@! TD.AperFunction*
G04 #@! TD*
G04 #@! TA.AperFunction,Conductor*
G04 #@! TO.N,+5V*
G36*
X74833188Y-54869407D02*
G01*
X75295526Y-55162714D01*
X75300676Y-55170040D01*
X75300837Y-55174269D01*
X75209373Y-55806407D01*
X75204797Y-55814105D01*
X75197794Y-55816432D01*
X74456050Y-55816432D01*
X74447777Y-55813005D01*
X74444471Y-55806407D01*
X74353006Y-55174267D01*
X74355212Y-55165591D01*
X74358313Y-55162717D01*
X74820654Y-54869407D01*
X74829476Y-54867870D01*
X74833188Y-54869407D01*
G37*
G04 #@! TD.AperFunction*
G04 #@! TD*
G04 #@! TA.AperFunction,Conductor*
G04 #@! TO.N,VDD*
G36*
X73875637Y-30607782D02*
G01*
X74400441Y-31132586D01*
X74402542Y-31135449D01*
X74634290Y-31579895D01*
X74635077Y-31588816D01*
X74631926Y-31593833D01*
X74064967Y-32126387D01*
X74056591Y-32129553D01*
X74048697Y-32126145D01*
X73756226Y-31834572D01*
X73494715Y-31573863D01*
X73491276Y-31565596D01*
X73492052Y-31561389D01*
X73856442Y-30611861D01*
X73862604Y-30605367D01*
X73871556Y-30605132D01*
X73875637Y-30607782D01*
G37*
G04 #@! TD.AperFunction*
G04 #@! TD*
G04 #@! TA.AperFunction,Conductor*
G04 #@! TO.N,/BOOT0*
G36*
X61237551Y-38772859D02*
G01*
X61240048Y-38776560D01*
X61374122Y-39092393D01*
X61374371Y-39100898D01*
X61146441Y-39739556D01*
X61140433Y-39746196D01*
X61131489Y-39746642D01*
X61124849Y-39740634D01*
X61124403Y-39739556D01*
X60896472Y-39100898D01*
X60896720Y-39092394D01*
X61030796Y-38776559D01*
X61037183Y-38770284D01*
X61041566Y-38769432D01*
X61229278Y-38769432D01*
X61237551Y-38772859D01*
G37*
G04 #@! TD.AperFunction*
G04 #@! TD*
G04 #@! TA.AperFunction,Conductor*
G04 #@! TO.N,SCL*
G36*
X63210450Y-37126531D02*
G01*
X63778079Y-37565578D01*
X63782527Y-37573351D01*
X63780176Y-37581991D01*
X63779215Y-37583085D01*
X63509868Y-37853782D01*
X63501603Y-37857230D01*
X63501553Y-37857230D01*
X63116509Y-37856551D01*
X63108242Y-37853110D01*
X63104867Y-37845778D01*
X63059048Y-37269295D01*
X63061808Y-37260778D01*
X63062425Y-37260110D01*
X63195022Y-37127513D01*
X63203294Y-37124087D01*
X63210450Y-37126531D01*
G37*
G04 #@! TD.AperFunction*
G04 #@! TD*
G04 #@! TA.AperFunction,Conductor*
G04 #@! TO.N,VDD*
G36*
X69183069Y-27477287D02*
G01*
X69229011Y-27529929D01*
X69240400Y-27581840D01*
X69240400Y-27793032D01*
X69220715Y-27860071D01*
X69167911Y-27905826D01*
X69116400Y-27917032D01*
X68679022Y-27917032D01*
X68611983Y-27897347D01*
X68566228Y-27844543D01*
X68555022Y-27793032D01*
X68555022Y-27583392D01*
X68574707Y-27516353D01*
X68627511Y-27470598D01*
X68678579Y-27459393D01*
X69115961Y-27457841D01*
X69183069Y-27477287D01*
G37*
G04 #@! TD.AperFunction*
G04 #@! TD*
G04 #@! TA.AperFunction,Conductor*
G04 #@! TO.N,_LIGHT_INT*
G36*
X60640493Y-26804033D02*
G01*
X60773120Y-26936660D01*
X60776547Y-26944933D01*
X60775656Y-26949411D01*
X60515141Y-27578321D01*
X60508809Y-27584652D01*
X60499880Y-27584663D01*
X60144926Y-27438595D01*
X60138579Y-27432277D01*
X60138558Y-27432227D01*
X59992490Y-27077273D01*
X59992511Y-27068319D01*
X59998829Y-27062014D01*
X60627742Y-26801497D01*
X60636697Y-26801497D01*
X60640493Y-26804033D01*
G37*
G04 #@! TD.AperFunction*
G04 #@! TD*
G04 #@! TA.AperFunction,Conductor*
G04 #@! TO.N,Net-(U1-AC0)*
G36*
X49041172Y-26974372D02*
G01*
X49116989Y-26980105D01*
X49120829Y-26981068D01*
X49134681Y-26987185D01*
X49134683Y-26987185D01*
X49134685Y-26987186D01*
X49160077Y-26990132D01*
X49249167Y-26990131D01*
X49250001Y-26990163D01*
X49850035Y-27035536D01*
X49858026Y-27039577D01*
X49860820Y-27048085D01*
X49860805Y-27048263D01*
X49844540Y-27227120D01*
X49840378Y-27235048D01*
X49833586Y-27237739D01*
X49109778Y-27280986D01*
X49101959Y-27278590D01*
X48997277Y-27198289D01*
X48902744Y-27125773D01*
X48898266Y-27118020D01*
X48900583Y-27109370D01*
X48901585Y-27108226D01*
X49032045Y-26977766D01*
X49040317Y-26974340D01*
X49041172Y-26974372D01*
G37*
G04 #@! TD.AperFunction*
G04 #@! TD*
G04 #@! TA.AperFunction,Conductor*
G04 #@! TO.N,+5V*
G36*
X71833205Y-61774291D02*
G01*
X72435932Y-61975761D01*
X72442691Y-61981632D01*
X72443922Y-61986856D01*
X72443922Y-62732007D01*
X72440495Y-62740280D01*
X72435931Y-62743103D01*
X71833209Y-62944571D01*
X71824276Y-62943944D01*
X71821018Y-62941534D01*
X71275579Y-62367491D01*
X71272365Y-62359133D01*
X71275579Y-62351373D01*
X71821019Y-61777328D01*
X71829201Y-61773692D01*
X71833205Y-61774291D01*
G37*
G04 #@! TD.AperFunction*
G04 #@! TD*
G04 #@! TA.AperFunction,Conductor*
G04 #@! TO.N,SCL*
G36*
X66773888Y-23196354D02*
G01*
X66774175Y-23196990D01*
X67055555Y-23873941D01*
X67055566Y-23882896D01*
X67055555Y-23882923D01*
X66774175Y-24559873D01*
X66767835Y-24566197D01*
X66758880Y-24566186D01*
X66758244Y-24565899D01*
X65562995Y-23983236D01*
X65557060Y-23976530D01*
X65556422Y-23972719D01*
X65556422Y-23784144D01*
X65559849Y-23775871D01*
X65562991Y-23773629D01*
X66758245Y-23190963D01*
X66767182Y-23190419D01*
X66773888Y-23196354D01*
G37*
G04 #@! TD.AperFunction*
G04 #@! TD*
G04 #@! TA.AperFunction,Conductor*
G04 #@! TO.N,_TEMP_RESET*
G36*
X66722417Y-33375468D02*
G01*
X66728764Y-33381786D01*
X66728785Y-33381836D01*
X66874853Y-33736790D01*
X66874832Y-33745744D01*
X66868511Y-33752051D01*
X66239601Y-34012566D01*
X66230646Y-34012566D01*
X66226850Y-34010030D01*
X66094223Y-33877403D01*
X66090796Y-33869130D01*
X66091687Y-33864652D01*
X66138330Y-33752051D01*
X66352204Y-33235739D01*
X66358534Y-33229411D01*
X66367461Y-33229400D01*
X66722417Y-33375468D01*
G37*
G04 #@! TD.AperFunction*
G04 #@! TD*
G04 #@! TA.AperFunction,Conductor*
G04 #@! TO.N,_NFC_INT*
G36*
X56247172Y-27045251D02*
G01*
X56497556Y-27132103D01*
X56504250Y-27138052D01*
X56505422Y-27143157D01*
X56505422Y-27329706D01*
X56501995Y-27337979D01*
X56497556Y-27340760D01*
X56247174Y-27427611D01*
X56240141Y-27427811D01*
X55606509Y-27247685D01*
X55599489Y-27242128D01*
X55598455Y-27233233D01*
X55604013Y-27226212D01*
X55606510Y-27225178D01*
X56240143Y-27045052D01*
X56247172Y-27045251D01*
G37*
G04 #@! TD.AperFunction*
G04 #@! TD*
G04 #@! TA.AperFunction,Conductor*
G04 #@! TO.N,_LIGHT_INT*
G36*
X59818425Y-45611560D02*
G01*
X59819261Y-45612319D01*
X59950595Y-45743653D01*
X59954022Y-45751926D01*
X59950595Y-45760199D01*
X59950424Y-45760367D01*
X59714118Y-45987189D01*
X59705776Y-45990446D01*
X59705307Y-45990426D01*
X58969365Y-45945725D01*
X58961314Y-45941803D01*
X58958471Y-45935552D01*
X58928744Y-45706414D01*
X58931078Y-45697772D01*
X58938842Y-45693309D01*
X58939160Y-45693272D01*
X59809860Y-45608946D01*
X59818425Y-45611560D01*
G37*
G04 #@! TD.AperFunction*
G04 #@! TD*
G04 #@! TA.AperFunction,Conductor*
G04 #@! TO.N,VDD*
G36*
X50905518Y-58296517D02*
G01*
X51368425Y-58487286D01*
X51374768Y-58493606D01*
X51374919Y-58493986D01*
X51553683Y-58969478D01*
X51553386Y-58978428D01*
X51550034Y-58982736D01*
X50903684Y-59499127D01*
X50895081Y-59501614D01*
X50888108Y-59498259D01*
X50364110Y-58974261D01*
X50360683Y-58965988D01*
X50363257Y-58958667D01*
X50891940Y-58300010D01*
X50899790Y-58295704D01*
X50905518Y-58296517D01*
G37*
G04 #@! TD.AperFunction*
G04 #@! TD*
G04 #@! TA.AperFunction,Conductor*
G04 #@! TO.N,SDA*
G36*
X65835758Y-42903533D02*
G01*
X66189337Y-43050385D01*
X66195663Y-43056723D01*
X66196160Y-43064182D01*
X66065353Y-43558623D01*
X66062315Y-43563904D01*
X65930602Y-43695617D01*
X65922329Y-43699044D01*
X65914056Y-43695617D01*
X65912827Y-43694170D01*
X65748989Y-43466109D01*
X65552161Y-43192124D01*
X65550118Y-43183408D01*
X65553368Y-43177049D01*
X65822981Y-42906085D01*
X65831244Y-42902639D01*
X65835758Y-42903533D01*
G37*
G04 #@! TD.AperFunction*
G04 #@! TD*
G04 #@! TA.AperFunction,Conductor*
G04 #@! TO.N,SDA*
G36*
X70729582Y-25005859D02*
G01*
X70732809Y-25011979D01*
X70753743Y-25123808D01*
X70752901Y-25130788D01*
X70640080Y-25379899D01*
X70633545Y-25386021D01*
X70624595Y-25385730D01*
X70618764Y-25379899D01*
X70509963Y-25139665D01*
X70508921Y-25134838D01*
X70508921Y-25104482D01*
X70509121Y-25102329D01*
X70526035Y-25011979D01*
X70530925Y-25004478D01*
X70537535Y-25002432D01*
X70721309Y-25002432D01*
X70729582Y-25005859D01*
G37*
G04 #@! TD.AperFunction*
G04 #@! TD*
G04 #@! TA.AperFunction,Conductor*
G04 #@! TO.N,Net-(U1-AC1)*
G36*
X47883906Y-25784302D02*
G01*
X48220720Y-25924771D01*
X48227036Y-25931119D01*
X48227055Y-25939975D01*
X47983986Y-26538137D01*
X47977697Y-26544511D01*
X47973147Y-26545432D01*
X47785697Y-26545432D01*
X47777424Y-26542005D01*
X47774858Y-26538137D01*
X47688082Y-26324595D01*
X47531788Y-25939973D01*
X47531848Y-25931020D01*
X47538121Y-25924772D01*
X47874918Y-25784309D01*
X47883873Y-25784289D01*
X47883906Y-25784302D01*
G37*
G04 #@! TD.AperFunction*
G04 #@! TD*
G04 #@! TA.AperFunction,Conductor*
G04 #@! TO.N,VDD*
G36*
X68111838Y-47834873D02*
G01*
X68681065Y-48491879D01*
X68683892Y-48500375D01*
X68680495Y-48507813D01*
X68156469Y-49031839D01*
X68148196Y-49035266D01*
X68141292Y-49033012D01*
X67517303Y-48576944D01*
X67512646Y-48569295D01*
X67512784Y-48564966D01*
X67629221Y-48040054D01*
X67634358Y-48032722D01*
X67635987Y-48031857D01*
X68098350Y-47831795D01*
X68107302Y-47831656D01*
X68111838Y-47834873D01*
G37*
G04 #@! TD.AperFunction*
G04 #@! TD*
G04 #@! TA.AperFunction,Conductor*
G04 #@! TO.N,/QSPI_IO0*
G36*
X65145517Y-48151749D02*
G01*
X65146179Y-48153500D01*
X65342136Y-48831513D01*
X65341141Y-48840413D01*
X65340988Y-48840682D01*
X65157044Y-49154241D01*
X65149902Y-49159643D01*
X65141032Y-49158413D01*
X65138679Y-49156594D01*
X65007116Y-49025031D01*
X65004836Y-49021810D01*
X64897044Y-48796668D01*
X64896562Y-48787728D01*
X65123925Y-48152802D01*
X65129939Y-48146171D01*
X65138883Y-48145734D01*
X65145517Y-48151749D01*
G37*
G04 #@! TD.AperFunction*
G04 #@! TD*
G04 #@! TA.AperFunction,Conductor*
G04 #@! TO.N,VDD*
G36*
X56831165Y-38419492D02*
G01*
X57325456Y-38819059D01*
X57509885Y-38968145D01*
X57514165Y-38976011D01*
X57513347Y-38981702D01*
X57322884Y-39443866D01*
X57316564Y-39450209D01*
X57314885Y-39450764D01*
X56789747Y-39581065D01*
X56780892Y-39579731D01*
X56777745Y-39576958D01*
X56301487Y-38973632D01*
X56290611Y-38959855D01*
X56288176Y-38951239D01*
X56291522Y-38944335D01*
X56815539Y-38420318D01*
X56823811Y-38416892D01*
X56831165Y-38419492D01*
G37*
G04 #@! TD.AperFunction*
G04 #@! TD*
G04 #@! TA.AperFunction,Conductor*
G04 #@! TO.N,IMU_INT2*
G36*
X62115382Y-36719953D02*
G01*
X62115990Y-36720561D01*
X62225596Y-36838623D01*
X62228722Y-36846581D01*
X62228722Y-36919895D01*
X62240541Y-36979312D01*
X62242297Y-36981940D01*
X62244044Y-36990723D01*
X62243358Y-36992965D01*
X62212031Y-37067657D01*
X62205671Y-37073961D01*
X62201242Y-37074832D01*
X62013602Y-37074832D01*
X62005329Y-37071405D01*
X62002813Y-37067657D01*
X61965043Y-36977607D01*
X61965003Y-36968653D01*
X61966101Y-36966586D01*
X61974303Y-36954312D01*
X61986122Y-36894896D01*
X61986122Y-36846581D01*
X61989247Y-36838623D01*
X62098848Y-36720566D01*
X62106988Y-36716835D01*
X62115382Y-36719953D01*
G37*
G04 #@! TD.AperFunction*
G04 #@! TD*
G04 #@! TA.AperFunction,Conductor*
G04 #@! TO.N,/QSPI_IO1*
G36*
X54719139Y-59380905D02*
G01*
X54860275Y-59497099D01*
X54861112Y-59497859D01*
X54998417Y-59635164D01*
X55001844Y-59643437D01*
X55000596Y-59648695D01*
X54725293Y-60196011D01*
X54718514Y-60201861D01*
X54710394Y-60201575D01*
X54430469Y-60086557D01*
X54424119Y-60080243D01*
X54424066Y-60071358D01*
X54700853Y-59385558D01*
X54707127Y-59379170D01*
X54716082Y-59379088D01*
X54719139Y-59380905D01*
G37*
G04 #@! TD.AperFunction*
G04 #@! TD*
G04 #@! TA.AperFunction,Conductor*
G04 #@! TO.N,_TEMP_RESET*
G36*
X69733916Y-28144728D02*
G01*
X69807097Y-28191937D01*
X69810482Y-28195268D01*
X69820938Y-28210916D01*
X69905121Y-28267166D01*
X69929818Y-28272078D01*
X69933865Y-28273716D01*
X70149302Y-28412694D01*
X70154395Y-28420058D01*
X70153772Y-28426992D01*
X70007418Y-28781279D01*
X70001092Y-28787617D01*
X69996575Y-28788512D01*
X69614787Y-28787557D01*
X69606522Y-28784109D01*
X69603198Y-28777239D01*
X69529376Y-28155940D01*
X69531802Y-28147322D01*
X69539614Y-28142943D01*
X69540994Y-28142861D01*
X69727576Y-28142861D01*
X69733916Y-28144728D01*
G37*
G04 #@! TD.AperFunction*
G04 #@! TD*
G04 #@! TA.AperFunction,Conductor*
G04 #@! TO.N,VDD*
G36*
X68497677Y-56358293D02*
G01*
X69209711Y-56494001D01*
X69217196Y-56498916D01*
X69218454Y-56501329D01*
X69436762Y-57074411D01*
X69436504Y-57083362D01*
X69431994Y-57088519D01*
X68442981Y-57701827D01*
X68434144Y-57703275D01*
X68428542Y-57700157D01*
X67903379Y-57174994D01*
X67899952Y-57166721D01*
X67902213Y-57159807D01*
X68486055Y-56362870D01*
X68493707Y-56358224D01*
X68497677Y-56358293D01*
G37*
G04 #@! TD.AperFunction*
G04 #@! TD*
G04 #@! TA.AperFunction,Conductor*
G04 #@! TO.N,VDD*
G36*
X57857492Y-39326656D02*
G01*
X57861637Y-39331102D01*
X58239494Y-40043498D01*
X58240343Y-40052412D01*
X58237431Y-40057253D01*
X57896002Y-40398682D01*
X57887729Y-40402109D01*
X57881538Y-40400337D01*
X57125592Y-39928926D01*
X57120385Y-39921640D01*
X57121014Y-39914424D01*
X57316887Y-39453402D01*
X57323276Y-39447128D01*
X57325002Y-39446583D01*
X57848660Y-39325186D01*
X57857492Y-39326656D01*
G37*
G04 #@! TD.AperFunction*
G04 #@! TD*
G04 #@! TA.AperFunction,Conductor*
G04 #@! TO.N,SDA*
G36*
X56247172Y-28345251D02*
G01*
X56497556Y-28432103D01*
X56504250Y-28438052D01*
X56505422Y-28443157D01*
X56505422Y-28629706D01*
X56501995Y-28637979D01*
X56497556Y-28640760D01*
X56247174Y-28727611D01*
X56240141Y-28727811D01*
X55606509Y-28547685D01*
X55599489Y-28542128D01*
X55598455Y-28533233D01*
X55604013Y-28526212D01*
X55606510Y-28525178D01*
X56240143Y-28345052D01*
X56247172Y-28345251D01*
G37*
G04 #@! TD.AperFunction*
G04 #@! TD*
G04 #@! TA.AperFunction,Conductor*
G04 #@! TO.N,VDD*
G36*
X64107309Y-30551859D02*
G01*
X64110572Y-30558179D01*
X64201798Y-31096929D01*
X64199800Y-31105658D01*
X64197753Y-31107870D01*
X63735413Y-31493188D01*
X63726863Y-31495852D01*
X63720431Y-31493188D01*
X63258090Y-31107870D01*
X63253929Y-31099941D01*
X63254045Y-31096929D01*
X63345272Y-30558179D01*
X63350032Y-30550594D01*
X63356808Y-30548432D01*
X64099036Y-30548432D01*
X64107309Y-30551859D01*
G37*
G04 #@! TD.AperFunction*
G04 #@! TD*
G04 #@! TA.AperFunction,Conductor*
G04 #@! TO.N,TEMP_INT*
G36*
X69097834Y-23801621D02*
G01*
X69104141Y-23807942D01*
X69364656Y-24436852D01*
X69364656Y-24445807D01*
X69362120Y-24449603D01*
X69229493Y-24582230D01*
X69221220Y-24585657D01*
X69216742Y-24584766D01*
X68737885Y-24386408D01*
X68587831Y-24324250D01*
X68581501Y-24317919D01*
X68581490Y-24308992D01*
X68727559Y-23954034D01*
X68733875Y-23947689D01*
X69088882Y-23801600D01*
X69097834Y-23801621D01*
G37*
G04 #@! TD.AperFunction*
G04 #@! TD*
G04 #@! TA.AperFunction,Conductor*
G04 #@! TO.N,/QSPI_IO0*
G36*
X57268376Y-52586692D02*
G01*
X57555176Y-52776363D01*
X57560186Y-52783784D01*
X57560422Y-52786121D01*
X57560422Y-52976742D01*
X57556995Y-52985015D01*
X57555176Y-52986501D01*
X57268378Y-53176170D01*
X57259587Y-53177875D01*
X57253666Y-53174698D01*
X56967735Y-52889717D01*
X56964295Y-52881451D01*
X56967707Y-52873173D01*
X57253667Y-52588163D01*
X57261943Y-52584752D01*
X57268376Y-52586692D01*
G37*
G04 #@! TD.AperFunction*
G04 #@! TD*
G04 #@! TA.AperFunction,Conductor*
G04 #@! TO.N,SWDCLK*
G36*
X71994644Y-34856909D02*
G01*
X71999149Y-34864648D01*
X71999255Y-34866187D01*
X72000209Y-35247956D01*
X71996803Y-35256237D01*
X71996768Y-35256273D01*
X71723927Y-35528153D01*
X71715647Y-35531565D01*
X71708186Y-35528860D01*
X71264174Y-35159540D01*
X71260005Y-35151615D01*
X71259956Y-35150545D01*
X71259956Y-34963055D01*
X71263383Y-34954782D01*
X71270086Y-34951461D01*
X71985987Y-34854622D01*
X71994644Y-34856909D01*
G37*
G04 #@! TD.AperFunction*
G04 #@! TD*
G04 #@! TA.AperFunction,Conductor*
G04 #@! TO.N,_TEMP_RESET*
G36*
X64437551Y-38772859D02*
G01*
X64440048Y-38776560D01*
X64574122Y-39092393D01*
X64574371Y-39100898D01*
X64346441Y-39739556D01*
X64340433Y-39746196D01*
X64331489Y-39746642D01*
X64324849Y-39740634D01*
X64324403Y-39739556D01*
X64096472Y-39100898D01*
X64096720Y-39092394D01*
X64230796Y-38776559D01*
X64237183Y-38770284D01*
X64241566Y-38769432D01*
X64429278Y-38769432D01*
X64437551Y-38772859D01*
G37*
G04 #@! TD.AperFunction*
G04 #@! TD*
G04 #@! TA.AperFunction,Conductor*
G04 #@! TO.N,/LSE_IN*
G36*
X57170495Y-41234837D02*
G01*
X57177863Y-41239926D01*
X57179312Y-41243155D01*
X57308760Y-41710808D01*
X57307664Y-41719695D01*
X57305757Y-41722202D01*
X56957854Y-42070105D01*
X56949581Y-42073532D01*
X56943524Y-42071842D01*
X56078899Y-41548626D01*
X56073595Y-41541411D01*
X56074139Y-41534157D01*
X56272991Y-41051757D01*
X56279312Y-41045415D01*
X56286266Y-41044778D01*
X57170495Y-41234837D01*
G37*
G04 #@! TD.AperFunction*
G04 #@! TD*
G04 #@! TA.AperFunction,Conductor*
G04 #@! TO.N,/QSPI_IO1*
G36*
X55434400Y-58062113D02*
G01*
X55440718Y-58068460D01*
X55440707Y-58077389D01*
X55180214Y-58706309D01*
X55173883Y-58712641D01*
X55169405Y-58713532D01*
X54981839Y-58713532D01*
X54973566Y-58710105D01*
X54971030Y-58706309D01*
X54710536Y-58077387D01*
X54710536Y-58068434D01*
X54716842Y-58062113D01*
X55071122Y-57914407D01*
X55080071Y-57914387D01*
X55434400Y-58062113D01*
G37*
G04 #@! TD.AperFunction*
G04 #@! TD*
G04 #@! TA.AperFunction,Conductor*
G04 #@! TO.N,/+LED*
G36*
X76437693Y-30836859D02*
G01*
X76440729Y-30842134D01*
X76636605Y-31581020D01*
X76635413Y-31589895D01*
X76633314Y-31592539D01*
X76065440Y-32126887D01*
X76057066Y-32130061D01*
X76049404Y-32126887D01*
X75861554Y-31950127D01*
X75481528Y-31592537D01*
X75477852Y-31584374D01*
X75478237Y-31581026D01*
X75674115Y-30842133D01*
X75679547Y-30835015D01*
X75685424Y-30833432D01*
X76429420Y-30833432D01*
X76437693Y-30836859D01*
G37*
G04 #@! TD.AperFunction*
G04 #@! TD*
G04 #@! TA.AperFunction,Conductor*
G04 #@! TO.N,VDD*
G36*
X56581058Y-45003527D02*
G01*
X57105084Y-45527553D01*
X57108511Y-45535826D01*
X57106255Y-45542733D01*
X56649936Y-46166667D01*
X56642286Y-46171322D01*
X56637956Y-46171182D01*
X56113046Y-46054633D01*
X56105712Y-46049494D01*
X56104843Y-46047856D01*
X55904865Y-45585505D01*
X55904726Y-45576551D01*
X55907942Y-45572019D01*
X56565126Y-45002954D01*
X56573624Y-45000130D01*
X56581058Y-45003527D01*
G37*
G04 #@! TD.AperFunction*
G04 #@! TD*
G04 #@! TA.AperFunction,Conductor*
G04 #@! TO.N,SDA*
G36*
X63239743Y-34853259D02*
G01*
X63242445Y-34857478D01*
X63258340Y-34900531D01*
X63301570Y-35017624D01*
X63301220Y-35026572D01*
X63298674Y-35030138D01*
X63128432Y-35192705D01*
X63120082Y-35195940D01*
X63111890Y-35192323D01*
X63111844Y-35192275D01*
X63040113Y-35116295D01*
X63036921Y-35108263D01*
X63036921Y-34974765D01*
X63022156Y-34900531D01*
X63022155Y-34900530D01*
X63020164Y-34897550D01*
X63018417Y-34888768D01*
X63019310Y-34886059D01*
X63033256Y-34856534D01*
X63039888Y-34850518D01*
X63043835Y-34849832D01*
X63231470Y-34849832D01*
X63239743Y-34853259D01*
G37*
G04 #@! TD.AperFunction*
G04 #@! TD*
G04 #@! TA.AperFunction,Conductor*
G04 #@! TO.N,SWDCLK*
G36*
X67446128Y-40639857D02*
G01*
X67589746Y-40783983D01*
X67713779Y-40908455D01*
X67717191Y-40916735D01*
X67713750Y-40925002D01*
X67712369Y-40926179D01*
X67415098Y-41142197D01*
X67408220Y-41144432D01*
X67216840Y-41144432D01*
X67208567Y-41141005D01*
X67205929Y-41136954D01*
X67075151Y-40799004D01*
X67075361Y-40790052D01*
X67081559Y-40783983D01*
X67433341Y-40637318D01*
X67442294Y-40637298D01*
X67446128Y-40639857D01*
G37*
G04 #@! TD.AperFunction*
G04 #@! TD*
G04 #@! TA.AperFunction,Conductor*
G04 #@! TO.N,VDD*
G36*
X55577985Y-45943250D02*
G01*
X56102740Y-46050719D01*
X56110157Y-46055735D01*
X56111077Y-46057414D01*
X56317340Y-46519876D01*
X56317581Y-46528828D01*
X56314499Y-46533323D01*
X55675472Y-47110692D01*
X55667036Y-47113696D01*
X55659355Y-47110284D01*
X55135314Y-46586243D01*
X55131887Y-46577970D01*
X55133970Y-46571305D01*
X55566023Y-45948046D01*
X55573553Y-45943200D01*
X55577985Y-45943250D01*
G37*
G04 #@! TD.AperFunction*
G04 #@! TD*
G04 #@! TA.AperFunction,Conductor*
G04 #@! TO.N,SDA*
G36*
X61889538Y-27237563D02*
G01*
X61889570Y-27237643D01*
X61937005Y-27354237D01*
X61936949Y-27363192D01*
X61933363Y-27367872D01*
X61733960Y-27523373D01*
X61725329Y-27525758D01*
X61718492Y-27522420D01*
X61570871Y-27374799D01*
X61567444Y-27366526D01*
X61570871Y-27358253D01*
X61574652Y-27355722D01*
X61874245Y-27231246D01*
X61883199Y-27231238D01*
X61889538Y-27237563D01*
G37*
G04 #@! TD.AperFunction*
G04 #@! TD*
G04 #@! TA.AperFunction,Conductor*
G04 #@! TO.N,/GND_SHIELD*
G36*
X77074709Y-41706882D02*
G01*
X77410818Y-41799072D01*
X77417889Y-41804564D01*
X77419422Y-41810354D01*
X77419422Y-42300509D01*
X77415995Y-42308782D01*
X77410817Y-42311792D01*
X77074717Y-42403979D01*
X77065832Y-42402863D01*
X77064922Y-42402287D01*
X76582151Y-42065023D01*
X76577331Y-42057476D01*
X76579260Y-42048732D01*
X76582148Y-42045842D01*
X77064921Y-41708575D01*
X77073666Y-41706647D01*
X77074709Y-41706882D01*
G37*
G04 #@! TD.AperFunction*
G04 #@! TD*
G04 #@! TA.AperFunction,Conductor*
G04 #@! TO.N,/LSE_OUT*
G36*
X57251826Y-42503953D02*
G01*
X57252973Y-42509005D01*
X57252973Y-42997466D01*
X57252814Y-42999387D01*
X57178890Y-43443457D01*
X57174151Y-43451055D01*
X57168527Y-43453177D01*
X56285538Y-43542509D01*
X56276962Y-43539932D01*
X56273341Y-43534801D01*
X56240734Y-43443457D01*
X56101485Y-43053362D01*
X56101931Y-43044420D01*
X56107450Y-43038878D01*
X57236222Y-42498451D01*
X57245162Y-42497970D01*
X57251826Y-42503953D01*
G37*
G04 #@! TD.AperFunction*
G04 #@! TD*
G04 #@! TA.AperFunction,Conductor*
G04 #@! TO.N,_RESET*
G36*
X73194593Y-35616233D02*
G01*
X73327220Y-35748860D01*
X73330647Y-35757133D01*
X73329756Y-35761611D01*
X73069241Y-36390521D01*
X73062909Y-36396852D01*
X73053980Y-36396863D01*
X72699026Y-36250795D01*
X72692679Y-36244477D01*
X72692658Y-36244427D01*
X72546590Y-35889473D01*
X72546611Y-35880519D01*
X72552929Y-35874214D01*
X73181842Y-35613697D01*
X73190797Y-35613697D01*
X73194593Y-35616233D01*
G37*
G04 #@! TD.AperFunction*
G04 #@! TD*
G04 #@! TA.AperFunction,Conductor*
G04 #@! TO.N,SWO*
G36*
X69369560Y-33637831D02*
G01*
X69382672Y-33643226D01*
X69719617Y-33781868D01*
X69725964Y-33788185D01*
X69725985Y-33788236D01*
X69869208Y-34136313D01*
X69869187Y-34145268D01*
X69862840Y-34151585D01*
X69861841Y-34151944D01*
X69207256Y-34354138D01*
X69198340Y-34353305D01*
X69195530Y-34351232D01*
X69062913Y-34218615D01*
X69059486Y-34210342D01*
X69060819Y-34204920D01*
X69354743Y-33643224D01*
X69361614Y-33637485D01*
X69369560Y-33637831D01*
G37*
G04 #@! TD.AperFunction*
G04 #@! TD*
G04 #@! TA.AperFunction,Conductor*
G04 #@! TO.N,USB_P*
G36*
X67987545Y-42505869D02*
G01*
X68303509Y-42647532D01*
X68309656Y-42654044D01*
X68310422Y-42658208D01*
X68310422Y-42842786D01*
X68306995Y-42851059D01*
X68303165Y-42853610D01*
X67987406Y-42983213D01*
X67979030Y-42983408D01*
X67340297Y-42755451D01*
X67333657Y-42749443D01*
X67333211Y-42740499D01*
X67339219Y-42733859D01*
X67340297Y-42733413D01*
X67978829Y-42505527D01*
X67987545Y-42505869D01*
G37*
G04 #@! TD.AperFunction*
G04 #@! TD*
G04 #@! TA.AperFunction,Conductor*
G04 #@! TO.N,/GND_SHIELD*
G36*
X74396260Y-49728859D02*
G01*
X74398857Y-49732805D01*
X74613783Y-50272679D01*
X74613659Y-50281632D01*
X74610404Y-50285994D01*
X74149413Y-50670188D01*
X74140863Y-50672852D01*
X74134431Y-50670188D01*
X73673439Y-50285994D01*
X73669278Y-50278065D01*
X73670059Y-50272682D01*
X73884987Y-49732803D01*
X73891231Y-49726386D01*
X73895857Y-49725432D01*
X74387987Y-49725432D01*
X74396260Y-49728859D01*
G37*
G04 #@! TD.AperFunction*
G04 #@! TD*
G04 #@! TA.AperFunction,Conductor*
G04 #@! TO.N,IMU_INT2*
G36*
X62205319Y-38782208D02*
G01*
X62208746Y-38790481D01*
X62208743Y-38790753D01*
X62185712Y-39779496D01*
X62182093Y-39787688D01*
X62173743Y-39790921D01*
X62173012Y-39790881D01*
X61944487Y-39771212D01*
X61936538Y-39767088D01*
X61933946Y-39761455D01*
X61812797Y-39024592D01*
X61814836Y-39015876D01*
X61815215Y-39015377D01*
X61935486Y-38866087D01*
X62002310Y-38783141D01*
X62010169Y-38778848D01*
X62011421Y-38778781D01*
X62197046Y-38778781D01*
X62205319Y-38782208D01*
G37*
G04 #@! TD.AperFunction*
G04 #@! TD*
G04 #@! TA.AperFunction,Conductor*
G04 #@! TO.N,/+LED*
G36*
X76872604Y-27600954D02*
G01*
X76880617Y-27604950D01*
X76882354Y-27607605D01*
X77148516Y-28167951D01*
X77148971Y-28176894D01*
X77144082Y-28182934D01*
X76441243Y-28615639D01*
X76435109Y-28617376D01*
X75694887Y-28617376D01*
X75686614Y-28613949D01*
X75683187Y-28605676D01*
X75684308Y-28600679D01*
X75888698Y-28167951D01*
X76176006Y-27559670D01*
X76182637Y-27553655D01*
X76187398Y-27552998D01*
X76872604Y-27600954D01*
G37*
G04 #@! TD.AperFunction*
G04 #@! TD*
G04 #@! TA.AperFunction,Conductor*
G04 #@! TO.N,/QSPI_IO3*
G36*
X54340487Y-51791701D02*
G01*
X54341126Y-51792394D01*
X54586593Y-52081003D01*
X54589343Y-52089525D01*
X54589124Y-52091022D01*
X54427760Y-52848007D01*
X54422684Y-52855384D01*
X54413878Y-52857011D01*
X54406501Y-52851935D01*
X54405691Y-52850465D01*
X54121577Y-52233938D01*
X54120509Y-52228672D01*
X54134064Y-51799605D01*
X54137750Y-51791444D01*
X54145758Y-51788274D01*
X54332214Y-51788274D01*
X54340487Y-51791701D01*
G37*
G04 #@! TD.AperFunction*
G04 #@! TD*
G04 #@! TA.AperFunction,Conductor*
G04 #@! TO.N,+5V*
G36*
X76078659Y-51673061D02*
G01*
X76565775Y-51917593D01*
X76571632Y-51924367D01*
X76572081Y-51929882D01*
X76455988Y-52661565D01*
X76451307Y-52669199D01*
X76444433Y-52671432D01*
X75702411Y-52671432D01*
X75694138Y-52668005D01*
X75690856Y-52661565D01*
X75574762Y-51929880D01*
X75576850Y-51921175D01*
X75581065Y-51917594D01*
X76068175Y-51673065D01*
X76077104Y-51672417D01*
X76078659Y-51673061D01*
G37*
G04 #@! TD.AperFunction*
G04 #@! TD*
G04 #@! TA.AperFunction,Conductor*
G04 #@! TO.N,SDA*
G36*
X55572837Y-28546050D02*
G01*
X55572869Y-28546119D01*
X55656371Y-28726506D01*
X55656736Y-28735453D01*
X55651371Y-28741684D01*
X55373147Y-28893988D01*
X55367529Y-28895425D01*
X55177244Y-28895425D01*
X55168971Y-28891998D01*
X55165701Y-28885637D01*
X55162312Y-28865179D01*
X55142434Y-28745159D01*
X55144463Y-28736439D01*
X55148991Y-28732664D01*
X55557267Y-28540447D01*
X55566212Y-28540025D01*
X55572837Y-28546050D01*
G37*
G04 #@! TD.AperFunction*
G04 #@! TD*
G04 #@! TA.AperFunction,Conductor*
G04 #@! TO.N,SWDIO*
G36*
X67987459Y-41705730D02*
G01*
X68303294Y-41839806D01*
X68309570Y-41846193D01*
X68310422Y-41850576D01*
X68310422Y-42038287D01*
X68306995Y-42046560D01*
X68303294Y-42049057D01*
X67987460Y-42183132D01*
X67978955Y-42183381D01*
X67340297Y-41955451D01*
X67333657Y-41949443D01*
X67333211Y-41940499D01*
X67339219Y-41933859D01*
X67340297Y-41933413D01*
X67584686Y-41846193D01*
X67978955Y-41705482D01*
X67987459Y-41705730D01*
G37*
G04 #@! TD.AperFunction*
G04 #@! TD*
G04 #@! TA.AperFunction,Conductor*
G04 #@! TO.N,VDD*
G36*
X74217163Y-32867973D02*
G01*
X74742624Y-33393435D01*
X74742626Y-33393436D01*
X74742629Y-33393439D01*
X74877586Y-33480622D01*
X74903764Y-33497534D01*
X74908853Y-33504902D01*
X74907243Y-33513711D01*
X74905078Y-33516204D01*
X74455962Y-33905425D01*
X74447465Y-33908253D01*
X74440541Y-33905341D01*
X73991769Y-33507802D01*
X73987848Y-33499751D01*
X73988436Y-33495319D01*
X74197800Y-32872517D01*
X74203684Y-32865768D01*
X74212618Y-32865156D01*
X74217163Y-32867973D01*
G37*
G04 #@! TD.AperFunction*
G04 #@! TD*
G04 #@! TA.AperFunction,Conductor*
G04 #@! TO.N,VDD*
G36*
X51836922Y-52133054D02*
G01*
X52375676Y-52224281D01*
X52383260Y-52229041D01*
X52385422Y-52235817D01*
X52385422Y-52978046D01*
X52381995Y-52986319D01*
X52375675Y-52989582D01*
X51836924Y-53080808D01*
X51828195Y-53078810D01*
X51825983Y-53076763D01*
X51743711Y-52978046D01*
X51440664Y-52614422D01*
X51438001Y-52605873D01*
X51440665Y-52599441D01*
X51743712Y-52235817D01*
X51825984Y-52137099D01*
X51833912Y-52132939D01*
X51836922Y-52133054D01*
G37*
G04 #@! TD.AperFunction*
G04 #@! TD*
G04 #@! TA.AperFunction,Conductor*
G04 #@! TO.N,SWO*
G36*
X65237551Y-38772859D02*
G01*
X65240048Y-38776560D01*
X65374122Y-39092393D01*
X65374371Y-39100898D01*
X65146441Y-39739556D01*
X65140433Y-39746196D01*
X65131489Y-39746642D01*
X65124849Y-39740634D01*
X65124403Y-39739556D01*
X64896472Y-39100898D01*
X64896720Y-39092394D01*
X65030796Y-38776559D01*
X65037183Y-38770284D01*
X65041566Y-38769432D01*
X65229278Y-38769432D01*
X65237551Y-38772859D01*
G37*
G04 #@! TD.AperFunction*
G04 #@! TD*
G04 #@! TA.AperFunction,Conductor*
G04 #@! TO.N,TEMP_INT*
G36*
X64468720Y-34164637D02*
G01*
X64563411Y-34204116D01*
X64569729Y-34210463D01*
X64569761Y-34219288D01*
X64316975Y-34846595D01*
X64310704Y-34852988D01*
X64306123Y-34853922D01*
X64118544Y-34853922D01*
X64110271Y-34850495D01*
X64107786Y-34846820D01*
X63839618Y-34219419D01*
X63839517Y-34210465D01*
X63845778Y-34204063D01*
X63845807Y-34204050D01*
X64200031Y-34056367D01*
X64208980Y-34056347D01*
X64468720Y-34164637D01*
G37*
G04 #@! TD.AperFunction*
G04 #@! TD*
G04 #@! TA.AperFunction,Conductor*
G04 #@! TO.N,SCL*
G36*
X63128171Y-36707129D02*
G01*
X63128218Y-36707176D01*
X63289400Y-36869279D01*
X63292803Y-36877562D01*
X63291892Y-36882054D01*
X63224531Y-37042657D01*
X63218171Y-37048961D01*
X63213742Y-37049832D01*
X63026102Y-37049832D01*
X63017829Y-37046405D01*
X63015313Y-37042658D01*
X63015313Y-37042657D01*
X62980330Y-36959252D01*
X62979645Y-36952454D01*
X62986122Y-36919896D01*
X62986122Y-36838223D01*
X62989524Y-36829974D01*
X63111626Y-36707174D01*
X63119888Y-36703726D01*
X63128171Y-36707129D01*
G37*
G04 #@! TD.AperFunction*
G04 #@! TD*
G04 #@! TA.AperFunction,Conductor*
G04 #@! TO.N,/LSE_OUT*
G36*
X55302903Y-42766691D02*
G01*
X56391758Y-43040584D01*
X56398944Y-43045925D01*
X56400255Y-43054760D01*
X56280421Y-43535412D01*
X56275095Y-43542611D01*
X56270196Y-43544228D01*
X55387477Y-43629691D01*
X55378913Y-43627077D01*
X55374993Y-43620858D01*
X55288700Y-43272416D01*
X55288357Y-43269603D01*
X55288357Y-42778039D01*
X55291784Y-42769766D01*
X55300057Y-42766339D01*
X55302903Y-42766691D01*
G37*
G04 #@! TD.AperFunction*
G04 #@! TD*
G04 #@! TA.AperFunction,Conductor*
G04 #@! TO.N,VDD*
G36*
X51856735Y-57481604D02*
G01*
X52380733Y-58005602D01*
X52384160Y-58013875D01*
X52381584Y-58021199D01*
X51852904Y-58679853D01*
X51845053Y-58684160D01*
X51839322Y-58683346D01*
X51376418Y-58492577D01*
X51370075Y-58486257D01*
X51369937Y-58485909D01*
X51191161Y-58010385D01*
X51191458Y-58001435D01*
X51194808Y-57997129D01*
X51841159Y-57480735D01*
X51849762Y-57478249D01*
X51856735Y-57481604D01*
G37*
G04 #@! TD.AperFunction*
G04 #@! TD*
G04 #@! TA.AperFunction,Conductor*
G04 #@! TO.N,SWDIO*
G36*
X71355336Y-37448223D02*
G01*
X71361633Y-37454521D01*
X71619024Y-38072132D01*
X71619043Y-38081087D01*
X71616497Y-38084906D01*
X71483896Y-38217507D01*
X71475623Y-38220934D01*
X71471122Y-38220034D01*
X70853511Y-37962643D01*
X70847193Y-37956297D01*
X70847192Y-37947391D01*
X70990859Y-37598234D01*
X70997173Y-37591890D01*
X71346381Y-37448202D01*
X71355336Y-37448223D01*
G37*
G04 #@! TD.AperFunction*
G04 #@! TD*
G04 #@! TA.AperFunction,Conductor*
G04 #@! TO.N,/_QSPI_NCS*
G36*
X58965569Y-46754549D02*
G01*
X58965587Y-46754592D01*
X59059989Y-46984713D01*
X59059958Y-46993668D01*
X59054741Y-46999439D01*
X58613163Y-47238887D01*
X58604257Y-47239818D01*
X58599313Y-47236875D01*
X58369243Y-47006805D01*
X58365816Y-46998532D01*
X58369243Y-46990259D01*
X58373032Y-46987725D01*
X58380292Y-46984713D01*
X58950280Y-46748225D01*
X58959233Y-46748221D01*
X58965569Y-46754549D01*
G37*
G04 #@! TD.AperFunction*
G04 #@! TD*
G04 #@! TA.AperFunction,Conductor*
G04 #@! TO.N,VDD*
G36*
X59694648Y-35953053D02*
G01*
X59696860Y-35955100D01*
X60082178Y-36417441D01*
X60084842Y-36425991D01*
X60082178Y-36432423D01*
X59696860Y-36894763D01*
X59688931Y-36898924D01*
X59685919Y-36898808D01*
X59147169Y-36807582D01*
X59139584Y-36802822D01*
X59137422Y-36796046D01*
X59137422Y-36053817D01*
X59140849Y-36045544D01*
X59147167Y-36042281D01*
X59685919Y-35951055D01*
X59694648Y-35953053D01*
G37*
G04 #@! TD.AperFunction*
G04 #@! TD*
G04 #@! TA.AperFunction,Conductor*
G04 #@! TO.N,_NFC_INT*
G36*
X57228868Y-26262289D02*
G01*
X57906183Y-26542438D01*
X57912518Y-26548767D01*
X57913411Y-26553266D01*
X57912437Y-27284150D01*
X57908999Y-27292418D01*
X57901147Y-27295827D01*
X56710753Y-27337606D01*
X56702365Y-27334471D01*
X56698650Y-27326323D01*
X56698643Y-27325913D01*
X56698643Y-27138047D01*
X56700285Y-27132069D01*
X57214339Y-26267121D01*
X57221511Y-26261762D01*
X57228868Y-26262289D01*
G37*
G04 #@! TD.AperFunction*
G04 #@! TD*
G04 #@! TA.AperFunction,Conductor*
G04 #@! TO.N,/QSPI_IO3*
G36*
X61856434Y-45512921D02*
G01*
X61862741Y-45519242D01*
X62123256Y-46148152D01*
X62123256Y-46157107D01*
X62120720Y-46160903D01*
X61988093Y-46293530D01*
X61979820Y-46296957D01*
X61975342Y-46296066D01*
X61496485Y-46097708D01*
X61346431Y-46035550D01*
X61340101Y-46029219D01*
X61340090Y-46020292D01*
X61486159Y-45665334D01*
X61492475Y-45658989D01*
X61847482Y-45512900D01*
X61856434Y-45512921D01*
G37*
G04 #@! TD.AperFunction*
G04 #@! TD*
G04 #@! TA.AperFunction,Conductor*
G04 #@! TO.N,USB_VBUS_SENSE*
G36*
X72667229Y-54417790D02*
G01*
X72830397Y-54635859D01*
X72997677Y-54859423D01*
X72999890Y-54868100D01*
X72997677Y-54873441D01*
X72667231Y-55315072D01*
X72659531Y-55319644D01*
X72652057Y-55318221D01*
X72045316Y-54971401D01*
X72039834Y-54964320D01*
X72039422Y-54961243D01*
X72039422Y-54771620D01*
X72042849Y-54763347D01*
X72045311Y-54761465D01*
X72652059Y-54414641D01*
X72660940Y-54413512D01*
X72667229Y-54417790D01*
G37*
G04 #@! TD.AperFunction*
G04 #@! TD*
G04 #@! TA.AperFunction,Conductor*
G04 #@! TO.N,Net-(U1-AC1)*
G36*
X49040760Y-27673248D02*
G01*
X49843105Y-27686234D01*
X49851321Y-27689794D01*
X49854613Y-27698121D01*
X49854595Y-27698611D01*
X49844201Y-27877297D01*
X49840300Y-27885358D01*
X49833833Y-27888244D01*
X49109908Y-27969948D01*
X49101758Y-27967816D01*
X48903321Y-27824892D01*
X48898611Y-27817276D01*
X48900665Y-27808560D01*
X48901880Y-27807131D01*
X49032338Y-27676673D01*
X49040610Y-27673247D01*
X49040760Y-27673248D01*
G37*
G04 #@! TD.AperFunction*
G04 #@! TD*
G04 #@! TA.AperFunction,Conductor*
G04 #@! TO.N,+5V*
G36*
X75311251Y-53858120D02*
G01*
X75835249Y-54382118D01*
X75838676Y-54390391D01*
X75836117Y-54397694D01*
X75319726Y-55044044D01*
X75311885Y-55048369D01*
X75306468Y-55047693D01*
X74830976Y-54868929D01*
X74824438Y-54862810D01*
X74824276Y-54862435D01*
X74633508Y-54399529D01*
X74633524Y-54390576D01*
X74636999Y-54385950D01*
X75295657Y-53857268D01*
X75304251Y-53854762D01*
X75311251Y-53858120D01*
G37*
G04 #@! TD.AperFunction*
G04 #@! TD*
G04 #@! TA.AperFunction,Conductor*
G04 #@! TO.N,/QSPI_CLK*
G36*
X55815721Y-51796105D02*
G01*
X55816023Y-51796397D01*
X55948320Y-51928694D01*
X55951648Y-51935447D01*
X55989982Y-52228075D01*
X55989002Y-52234503D01*
X55704860Y-52849366D01*
X55698278Y-52855439D01*
X55689331Y-52855079D01*
X55683258Y-52848497D01*
X55682758Y-52846713D01*
X55533926Y-52088806D01*
X55535695Y-52080030D01*
X55536835Y-52078591D01*
X55799187Y-51796697D01*
X55807330Y-51792978D01*
X55815721Y-51796105D01*
G37*
G04 #@! TD.AperFunction*
G04 #@! TD*
G04 #@! TA.AperFunction,Conductor*
G04 #@! TO.N,/CC2*
G36*
X71401726Y-45332760D02*
G01*
X71403536Y-45333707D01*
X72007439Y-45720880D01*
X72012554Y-45728229D01*
X72012824Y-45730729D01*
X72012824Y-45918143D01*
X72009397Y-45926416D01*
X72003658Y-45929565D01*
X71401358Y-46063162D01*
X71392539Y-46061608D01*
X71388025Y-46056242D01*
X71335211Y-45929565D01*
X71239597Y-45700231D01*
X71239577Y-45691282D01*
X71386427Y-45339054D01*
X71392772Y-45332739D01*
X71401726Y-45332760D01*
G37*
G04 #@! TD.AperFunction*
G04 #@! TD*
G04 #@! TA.AperFunction,Conductor*
G04 #@! TO.N,/QSPI_IO1*
G36*
X64761917Y-45907081D02*
G01*
X64768235Y-45913428D01*
X64768214Y-45922382D01*
X64767745Y-45923374D01*
X64440322Y-46539062D01*
X64433412Y-46544757D01*
X64429992Y-46545268D01*
X64242407Y-46545268D01*
X64234134Y-46541841D01*
X64231246Y-46537078D01*
X64037932Y-45922382D01*
X64037882Y-45922221D01*
X64038669Y-45913302D01*
X64044538Y-45907915D01*
X64399728Y-45759829D01*
X64408677Y-45759809D01*
X64761917Y-45907081D01*
G37*
G04 #@! TD.AperFunction*
G04 #@! TD*
G04 #@! TA.AperFunction,Conductor*
G04 #@! TO.N,VDD*
G36*
X69792508Y-55929083D02*
G01*
X70519090Y-56112700D01*
X70526270Y-56118048D01*
X70527922Y-56124042D01*
X70527922Y-56867821D01*
X70524495Y-56876094D01*
X70519089Y-56879164D01*
X69792514Y-57062779D01*
X69783653Y-57061484D01*
X69781397Y-57059732D01*
X69588405Y-56867821D01*
X69222763Y-56504226D01*
X69219314Y-56495965D01*
X69222718Y-56487682D01*
X69781398Y-55932130D01*
X69789680Y-55928727D01*
X69792508Y-55929083D01*
G37*
G04 #@! TD.AperFunction*
G04 #@! TD*
G04 #@! TA.AperFunction,Conductor*
G04 #@! TO.N,_LED*
G36*
X76192761Y-25195779D02*
G01*
X76809758Y-25515284D01*
X76874969Y-25549053D01*
X76880740Y-25555901D01*
X76881118Y-25557450D01*
X76977520Y-26115096D01*
X76975553Y-26123832D01*
X76967984Y-26128618D01*
X76967200Y-26128726D01*
X76046364Y-26224417D01*
X76037781Y-26221864D01*
X76036882Y-26221053D01*
X75511726Y-25695897D01*
X75508299Y-25687624D01*
X75511726Y-25679351D01*
X75513142Y-25678144D01*
X76180541Y-25196680D01*
X76189253Y-25194620D01*
X76192761Y-25195779D01*
G37*
G04 #@! TD.AperFunction*
G04 #@! TD*
G04 #@! TA.AperFunction,Conductor*
G04 #@! TO.N,_NFC_INT*
G36*
X60188160Y-43873952D02*
G01*
X60542017Y-44019568D01*
X60548364Y-44025886D01*
X60548385Y-44025936D01*
X60694830Y-44381807D01*
X60694809Y-44390761D01*
X60689428Y-44396629D01*
X60118401Y-44694973D01*
X60109481Y-44695767D01*
X60104710Y-44692876D01*
X59972068Y-44560234D01*
X59968641Y-44551961D01*
X59969148Y-44548554D01*
X60172520Y-43881360D01*
X60178210Y-43874447D01*
X60187122Y-43873581D01*
X60188160Y-43873952D01*
G37*
G04 #@! TD.AperFunction*
G04 #@! TD*
G04 #@! TA.AperFunction,Conductor*
G04 #@! TO.N,VDD*
G36*
X57717531Y-35795997D02*
G01*
X57720409Y-35797962D01*
X58302409Y-36338490D01*
X58306139Y-36346631D01*
X58303538Y-36354428D01*
X57838644Y-36928220D01*
X57830773Y-36932491D01*
X57827792Y-36932422D01*
X57006861Y-36807445D01*
X56999198Y-36802812D01*
X56996922Y-36795878D01*
X56996922Y-36052239D01*
X57000349Y-36043966D01*
X57004763Y-36041194D01*
X57708594Y-35795489D01*
X57717531Y-35795997D01*
G37*
G04 #@! TD.AperFunction*
G04 #@! TD*
G04 #@! TA.AperFunction,Conductor*
G04 #@! TO.N,VDD*
G36*
X74653582Y-32017734D02*
G01*
X74658554Y-32025182D01*
X74658718Y-32026281D01*
X74742069Y-32849099D01*
X74739494Y-32857675D01*
X74738702Y-32858551D01*
X74212545Y-33384708D01*
X74204272Y-33388135D01*
X74195999Y-33384708D01*
X74195566Y-33384251D01*
X73705033Y-32837867D01*
X73702057Y-32829424D01*
X73703318Y-32824735D01*
X74054136Y-32137773D01*
X74060950Y-32131965D01*
X74062262Y-32131623D01*
X74644801Y-32015984D01*
X74653582Y-32017734D01*
G37*
G04 #@! TD.AperFunction*
G04 #@! TD*
G04 #@! TA.AperFunction,Conductor*
G04 #@! TO.N,_RESET*
G36*
X69452625Y-38593597D02*
G01*
X69720672Y-38860285D01*
X69724120Y-38868549D01*
X69724120Y-38868600D01*
X69723447Y-39244177D01*
X69720005Y-39252444D01*
X69711726Y-39255856D01*
X69709686Y-39255673D01*
X69098176Y-39146224D01*
X69091964Y-39142980D01*
X68959892Y-39010908D01*
X68956465Y-39002635D01*
X68959892Y-38994362D01*
X68960620Y-38993693D01*
X69436840Y-38592938D01*
X69445376Y-38590234D01*
X69452625Y-38593597D01*
G37*
G04 #@! TD.AperFunction*
G04 #@! TD*
G04 #@! TA.AperFunction,Conductor*
G04 #@! TO.N,VDD*
G36*
X67563646Y-47042429D02*
G01*
X67564327Y-47043171D01*
X67571536Y-47051748D01*
X67958056Y-47511581D01*
X67960756Y-47520119D01*
X67958946Y-47525430D01*
X67634061Y-48031508D01*
X67626708Y-48036618D01*
X67626029Y-48036746D01*
X67168571Y-48108535D01*
X67159866Y-48106432D01*
X67155198Y-48098790D01*
X67155104Y-48098022D01*
X67061166Y-47051747D01*
X67063839Y-47043202D01*
X67071773Y-47039049D01*
X67072819Y-47039002D01*
X67555373Y-47039002D01*
X67563646Y-47042429D01*
G37*
G04 #@! TD.AperFunction*
G04 #@! TD*
G04 #@! TA.AperFunction,Conductor*
G04 #@! TO.N,/+VBUS*
G36*
X76078659Y-49173061D02*
G01*
X76565570Y-49417490D01*
X76571426Y-49424264D01*
X76571826Y-49430071D01*
X76456190Y-50056257D01*
X76451318Y-50063770D01*
X76444685Y-50065832D01*
X75702159Y-50065832D01*
X75693886Y-50062405D01*
X75690654Y-50056257D01*
X75575017Y-49430071D01*
X75576884Y-49421313D01*
X75581270Y-49417491D01*
X76068175Y-49173065D01*
X76077104Y-49172417D01*
X76078659Y-49173061D01*
G37*
G04 #@! TD.AperFunction*
G04 #@! TD*
G04 #@! TA.AperFunction,Conductor*
G04 #@! TO.N,/_QSPI_NCS*
G36*
X53338005Y-58984859D02*
G01*
X53341069Y-58990239D01*
X53438050Y-59370293D01*
X53437548Y-59377600D01*
X53162696Y-60052301D01*
X53156402Y-60058670D01*
X53147447Y-60058722D01*
X53141078Y-60052428D01*
X53140696Y-60051384D01*
X52911685Y-59320291D01*
X52912482Y-59311374D01*
X52913152Y-59310251D01*
X53083124Y-59059025D01*
X53132142Y-58986576D01*
X53139616Y-58981644D01*
X53141832Y-58981432D01*
X53329732Y-58981432D01*
X53338005Y-58984859D01*
G37*
G04 #@! TD.AperFunction*
G04 #@! TD*
G04 #@! TA.AperFunction,Conductor*
G04 #@! TO.N,/LSE_OUT*
G36*
X54690816Y-42586494D02*
G01*
X55263723Y-42760511D01*
X55270642Y-42766193D01*
X55272022Y-42771705D01*
X55272022Y-43262358D01*
X55268595Y-43270631D01*
X55263722Y-43273553D01*
X54690817Y-43447568D01*
X54681905Y-43446693D01*
X54678186Y-43443562D01*
X54543827Y-43271032D01*
X54351619Y-43024220D01*
X54349240Y-43015588D01*
X54351619Y-43009844D01*
X54678187Y-42590499D01*
X54685973Y-42586079D01*
X54690816Y-42586494D01*
G37*
G04 #@! TD.AperFunction*
G04 #@! TD*
G04 #@! TA.AperFunction,Conductor*
G04 #@! TO.N,/LSE_IN*
G36*
X56270056Y-41042865D02*
G01*
X56278078Y-41046843D01*
X56280573Y-41051535D01*
X56408238Y-41532288D01*
X56407049Y-41541164D01*
X56400099Y-41546554D01*
X55316398Y-41851448D01*
X55307506Y-41850390D01*
X55301966Y-41843354D01*
X55301529Y-41840185D01*
X55301529Y-41348832D01*
X55301774Y-41346452D01*
X55375348Y-40992377D01*
X55380385Y-40984976D01*
X55387593Y-40983086D01*
X56270056Y-41042865D01*
G37*
G04 #@! TD.AperFunction*
G04 #@! TD*
G04 #@! TA.AperFunction,Conductor*
G04 #@! TO.N,/GND_SHIELD*
G36*
X79462316Y-38763649D02*
G01*
X79752603Y-39029061D01*
X79948159Y-39207860D01*
X79951952Y-39215972D01*
X79950924Y-39221317D01*
X79711533Y-39750554D01*
X79705001Y-39756679D01*
X79700873Y-39757432D01*
X79207971Y-39757432D01*
X79199698Y-39754005D01*
X79197311Y-39750554D01*
X78957919Y-39221317D01*
X78957632Y-39212367D01*
X78960682Y-39207861D01*
X79446527Y-38763649D01*
X79454945Y-38760597D01*
X79462316Y-38763649D01*
G37*
G04 #@! TD.AperFunction*
G04 #@! TD*
G04 #@! TA.AperFunction,Conductor*
G04 #@! TO.N,IMU_INT1*
G36*
X62615382Y-36719953D02*
G01*
X62615990Y-36720561D01*
X62725596Y-36838623D01*
X62728722Y-36846581D01*
X62728722Y-36894895D01*
X62740541Y-36954312D01*
X62748739Y-36966581D01*
X62750486Y-36975364D01*
X62749800Y-36977606D01*
X62712031Y-37067657D01*
X62705671Y-37073961D01*
X62701242Y-37074832D01*
X62513602Y-37074832D01*
X62505329Y-37071405D01*
X62502813Y-37067657D01*
X62471485Y-36992966D01*
X62471445Y-36984012D01*
X62472544Y-36981944D01*
X62474303Y-36979312D01*
X62486122Y-36919896D01*
X62486122Y-36846581D01*
X62489247Y-36838623D01*
X62598848Y-36720566D01*
X62606988Y-36716835D01*
X62615382Y-36719953D01*
G37*
G04 #@! TD.AperFunction*
G04 #@! TD*
G04 #@! TA.AperFunction,Conductor*
G04 #@! TO.N,TEMP_INT*
G36*
X69729582Y-25005859D02*
G01*
X69732809Y-25011979D01*
X69749722Y-25102324D01*
X69749922Y-25104477D01*
X69749922Y-25134840D01*
X69748880Y-25139667D01*
X69640079Y-25379899D01*
X69633544Y-25386021D01*
X69624594Y-25385730D01*
X69618764Y-25379900D01*
X69505942Y-25130788D01*
X69505100Y-25123808D01*
X69526035Y-25011979D01*
X69530925Y-25004478D01*
X69537535Y-25002432D01*
X69721309Y-25002432D01*
X69729582Y-25005859D01*
G37*
G04 #@! TD.AperFunction*
G04 #@! TD*
G04 #@! TA.AperFunction,Conductor*
G04 #@! TO.N,/LSE_IN*
G36*
X54674816Y-41171094D02*
G01*
X55247723Y-41345111D01*
X55254642Y-41350793D01*
X55256022Y-41356305D01*
X55256022Y-41846958D01*
X55252595Y-41855231D01*
X55247722Y-41858153D01*
X54674817Y-42032168D01*
X54665905Y-42031293D01*
X54662186Y-42028162D01*
X54527827Y-41855632D01*
X54335619Y-41608820D01*
X54333240Y-41600188D01*
X54335619Y-41594444D01*
X54662187Y-41175099D01*
X54669973Y-41170679D01*
X54674816Y-41171094D01*
G37*
G04 #@! TD.AperFunction*
G04 #@! TD*
G04 #@! TA.AperFunction,Conductor*
G04 #@! TO.N,USB_VBUS_SENSE*
G36*
X71915119Y-54351361D02*
G01*
X72446866Y-54761319D01*
X72451325Y-54769084D01*
X72451422Y-54770585D01*
X72451422Y-54960293D01*
X72447995Y-54968566D01*
X72444300Y-54971060D01*
X71838523Y-55228647D01*
X71829569Y-55228731D01*
X71824369Y-55224601D01*
X71505986Y-54770862D01*
X71504040Y-54762123D01*
X71507175Y-54755987D01*
X71899589Y-54352470D01*
X71907813Y-54348929D01*
X71915119Y-54351361D01*
G37*
G04 #@! TD.AperFunction*
G04 #@! TD*
G04 #@! TA.AperFunction,Conductor*
G04 #@! TO.N,VDD*
G36*
X58910245Y-35795487D02*
G01*
X59614079Y-36041194D01*
X59620760Y-36047155D01*
X59621922Y-36052239D01*
X59621922Y-36795878D01*
X59618495Y-36804151D01*
X59611983Y-36807445D01*
X58791051Y-36932422D01*
X58782356Y-36930279D01*
X58780199Y-36928220D01*
X58315304Y-36354426D01*
X58312760Y-36345843D01*
X58316433Y-36338491D01*
X58898434Y-35797961D01*
X58906827Y-35794843D01*
X58910245Y-35795487D01*
G37*
G04 #@! TD.AperFunction*
G04 #@! TD*
G04 #@! TA.AperFunction,Conductor*
G04 #@! TO.N,GND*
G36*
X63645325Y-42399477D02*
G01*
X63650447Y-42406840D01*
X63806580Y-42654078D01*
X63818693Y-42681754D01*
X63835510Y-42744511D01*
X63843732Y-42775197D01*
X63844053Y-42776393D01*
X63894458Y-42863697D01*
X63897621Y-42869175D01*
X63973129Y-42944683D01*
X64022695Y-42994249D01*
X64025749Y-42997440D01*
X64026645Y-42998419D01*
X64026648Y-42998422D01*
X64032356Y-43004655D01*
X64054709Y-43029062D01*
X64057957Y-43031817D01*
X64070160Y-43041714D01*
X66225657Y-45197211D01*
X66253883Y-45252609D01*
X66255122Y-45268346D01*
X66255122Y-45321262D01*
X66256649Y-45337547D01*
X66257848Y-45350335D01*
X66300689Y-45472768D01*
X66309492Y-45484696D01*
X66329144Y-45543683D01*
X66310372Y-45602956D01*
X66309492Y-45604168D01*
X66300689Y-45616095D01*
X66257848Y-45738528D01*
X66257213Y-45745300D01*
X66255122Y-45767602D01*
X66255122Y-46121262D01*
X66257242Y-46143872D01*
X66257848Y-46150335D01*
X66300689Y-46272768D01*
X66309492Y-46284696D01*
X66329144Y-46343683D01*
X66310372Y-46402956D01*
X66309492Y-46404168D01*
X66300689Y-46416095D01*
X66257848Y-46538528D01*
X66257848Y-46538531D01*
X66255122Y-46567602D01*
X66255122Y-46921262D01*
X66257242Y-46943872D01*
X66257848Y-46950335D01*
X66300688Y-47072765D01*
X66300690Y-47072769D01*
X66377717Y-47177137D01*
X66482085Y-47254164D01*
X66482088Y-47254165D01*
X66610299Y-47299028D01*
X66609636Y-47300920D01*
X66655675Y-47327839D01*
X66680650Y-47384776D01*
X66673487Y-47433239D01*
X66650496Y-47488743D01*
X66631259Y-47585457D01*
X66624122Y-47621338D01*
X66624122Y-47756526D01*
X66629104Y-47781570D01*
X66650496Y-47889120D01*
X66702229Y-48014012D01*
X66702233Y-48014021D01*
X66777336Y-48126421D01*
X66821457Y-48170542D01*
X66849683Y-48225940D01*
X66850922Y-48241676D01*
X66850922Y-48377422D01*
X66861396Y-48464653D01*
X66861396Y-48464655D01*
X66861397Y-48464656D01*
X66916137Y-48603465D01*
X67006296Y-48722358D01*
X67125189Y-48812517D01*
X67263998Y-48867257D01*
X67351227Y-48877732D01*
X67370129Y-48877731D01*
X67429260Y-48896941D01*
X67429475Y-48897097D01*
X67746297Y-49128660D01*
X67958190Y-49283531D01*
X67958682Y-49283834D01*
X67959629Y-49284583D01*
X67961396Y-49285874D01*
X67961347Y-49285940D01*
X67977041Y-49298344D01*
X68499657Y-49820960D01*
X68527883Y-49876358D01*
X68529122Y-49892095D01*
X68529122Y-55239116D01*
X68523933Y-55271009D01*
X68374972Y-55716644D01*
X68347153Y-55755435D01*
X68348938Y-55757220D01*
X68344074Y-55762083D01*
X68251836Y-55883717D01*
X68251835Y-55883720D01*
X68195839Y-56025717D01*
X68195837Y-56025725D01*
X68185123Y-56114942D01*
X68185122Y-56114962D01*
X68185122Y-56215675D01*
X68165909Y-56274806D01*
X68165674Y-56275128D01*
X67651897Y-56976426D01*
X67651436Y-56977173D01*
X67650277Y-56978636D01*
X67649548Y-56979633D01*
X67649511Y-56979605D01*
X67636983Y-56995440D01*
X66929131Y-57703294D01*
X66833538Y-57798887D01*
X66833536Y-57798888D01*
X66758433Y-57911288D01*
X66758429Y-57911297D01*
X66706696Y-58036189D01*
X66680322Y-58168783D01*
X66680322Y-58182287D01*
X66661109Y-58241418D01*
X66650857Y-58253422D01*
X64055812Y-60848467D01*
X64000414Y-60876693D01*
X63984677Y-60877932D01*
X56396322Y-60877932D01*
X56337191Y-60858719D01*
X56300646Y-60808419D01*
X56295722Y-60777332D01*
X56295722Y-59398544D01*
X56314935Y-59339413D01*
X56325181Y-59327415D01*
X56629423Y-59023174D01*
X56682992Y-58930389D01*
X56710722Y-58826901D01*
X56710722Y-58719762D01*
X56710722Y-54087332D01*
X56729935Y-54028201D01*
X56780235Y-53991656D01*
X56811322Y-53986732D01*
X57165262Y-53986732D01*
X57165268Y-53986732D01*
X57196024Y-53983848D01*
X57325573Y-53938517D01*
X57436004Y-53857014D01*
X57517507Y-53746583D01*
X57562838Y-53617034D01*
X57565722Y-53586278D01*
X57565722Y-53405625D01*
X57584935Y-53346494D01*
X57610830Y-53321714D01*
X57636072Y-53305021D01*
X57691564Y-53288332D01*
X61345138Y-53288332D01*
X61448626Y-53260602D01*
X61541411Y-53207033D01*
X65461022Y-49287421D01*
X65481844Y-49251357D01*
X65514592Y-49194635D01*
X65529145Y-49140320D01*
X65539541Y-49115466D01*
X65607218Y-49000102D01*
X65613029Y-48991293D01*
X65645154Y-48947769D01*
X65687996Y-48825333D01*
X65690722Y-48796262D01*
X65690722Y-47442602D01*
X65687996Y-47413531D01*
X65645154Y-47291095D01*
X65568127Y-47186727D01*
X65463759Y-47109700D01*
X65463755Y-47109698D01*
X65341324Y-47066858D01*
X65341326Y-47066858D01*
X65331632Y-47065949D01*
X65312252Y-47064132D01*
X64958592Y-47064132D01*
X64941149Y-47065767D01*
X64929517Y-47066858D01*
X64929516Y-47066859D01*
X64876147Y-47085533D01*
X64813988Y-47086927D01*
X64762881Y-47051519D01*
X64742347Y-46992834D01*
X64742322Y-46990578D01*
X64742322Y-46657131D01*
X64754101Y-46609896D01*
X64754973Y-46608257D01*
X65020664Y-46108648D01*
X65026677Y-46098763D01*
X65033327Y-46089131D01*
X65036746Y-46080114D01*
X65041257Y-46070165D01*
X65041182Y-46070128D01*
X65042720Y-46067064D01*
X65048273Y-46056003D01*
X65048372Y-46055791D01*
X65048735Y-46055027D01*
X65048742Y-46055011D01*
X65057296Y-46035154D01*
X65059141Y-46025408D01*
X65063916Y-46008471D01*
X65094063Y-45928983D01*
X65114708Y-45758954D01*
X65094063Y-45588925D01*
X65033327Y-45428777D01*
X64936030Y-45287819D01*
X64823930Y-45188506D01*
X64807826Y-45174239D01*
X64656170Y-45094645D01*
X64656172Y-45094645D01*
X64591063Y-45078597D01*
X64489867Y-45053654D01*
X64318589Y-45053654D01*
X64318588Y-45053654D01*
X64152284Y-45094645D01*
X64000629Y-45174239D01*
X63872427Y-45287818D01*
X63872426Y-45287819D01*
X63858911Y-45307399D01*
X63775130Y-45428774D01*
X63775128Y-45428777D01*
X63735437Y-45533437D01*
X63714393Y-45588925D01*
X63693748Y-45758954D01*
X63714393Y-45928983D01*
X63734385Y-45981698D01*
X63735079Y-45983527D01*
X63740893Y-46007163D01*
X63741875Y-46015312D01*
X63741875Y-46015314D01*
X63869099Y-46419856D01*
X63923277Y-46592132D01*
X63923888Y-46594073D01*
X63928522Y-46624253D01*
X63928522Y-46990578D01*
X63909309Y-47049709D01*
X63859009Y-47086254D01*
X63796835Y-47086254D01*
X63794697Y-47085533D01*
X63741327Y-47066859D01*
X63741326Y-47066858D01*
X63731632Y-47065949D01*
X63712252Y-47064132D01*
X63358592Y-47064132D01*
X63341149Y-47065767D01*
X63329517Y-47066858D01*
X63329516Y-47066859D01*
X63276147Y-47085533D01*
X63213988Y-47086927D01*
X63162881Y-47051519D01*
X63142347Y-46992834D01*
X63142322Y-46990578D01*
X63142322Y-46854662D01*
X63138216Y-46839336D01*
X63120149Y-46771914D01*
X63114592Y-46751174D01*
X63061023Y-46658389D01*
X62408454Y-46005820D01*
X62386647Y-45973184D01*
X62368337Y-45928982D01*
X62149419Y-45400491D01*
X62146740Y-45394220D01*
X62142089Y-45387414D01*
X62131084Y-45366327D01*
X62124702Y-45349500D01*
X62117821Y-45331355D01*
X62020524Y-45190397D01*
X61892321Y-45076818D01*
X61892320Y-45076817D01*
X61740664Y-44997223D01*
X61740666Y-44997223D01*
X61574361Y-44956232D01*
X61429535Y-44956232D01*
X61370404Y-44937019D01*
X61333859Y-44886719D01*
X61333859Y-44824545D01*
X61358400Y-44784497D01*
X61676010Y-44466887D01*
X63180823Y-42962075D01*
X63234392Y-42869290D01*
X63261750Y-42767186D01*
X63273018Y-42740875D01*
X63447833Y-42454050D01*
X63450903Y-42449320D01*
X63482598Y-42403404D01*
X63532002Y-42365657D01*
X63594158Y-42364157D01*
X63645325Y-42399477D01*
G37*
G04 #@! TD.AperFunction*
G04 #@! TA.AperFunction,Conductor*
G36*
X76041653Y-44059345D02*
G01*
X76078198Y-44109645D01*
X76083122Y-44140732D01*
X76083122Y-44860426D01*
X76098056Y-44935506D01*
X76109496Y-44993020D01*
X76161229Y-45117912D01*
X76161233Y-45117921D01*
X76236336Y-45230321D01*
X76236337Y-45230322D01*
X76236338Y-45230323D01*
X76552614Y-45546599D01*
X76856257Y-45850241D01*
X76884483Y-45905639D01*
X76885722Y-45921376D01*
X76885722Y-48448387D01*
X76866509Y-48507518D01*
X76816209Y-48544063D01*
X76754035Y-48544063D01*
X76724336Y-48528546D01*
X76687856Y-48500882D01*
X76598139Y-48432848D01*
X76598135Y-48432846D01*
X76598133Y-48432845D01*
X76456136Y-48376849D01*
X76456134Y-48376848D01*
X76456133Y-48376848D01*
X76456131Y-48376847D01*
X76456128Y-48376847D01*
X76366911Y-48366133D01*
X76366902Y-48366132D01*
X76366898Y-48366132D01*
X76095875Y-48366132D01*
X76036744Y-48346919D01*
X76000199Y-48296619D01*
X76000199Y-48234445D01*
X76036744Y-48184145D01*
X76057377Y-48172590D01*
X76168833Y-48126423D01*
X76205875Y-48111080D01*
X76337771Y-48022950D01*
X76449940Y-47910781D01*
X76538070Y-47778885D01*
X76598775Y-47632329D01*
X76629722Y-47476747D01*
X76629722Y-47318117D01*
X76598775Y-47162535D01*
X76538070Y-47015979D01*
X76533542Y-47009203D01*
X76449941Y-46884084D01*
X76337769Y-46771912D01*
X76205879Y-46683786D01*
X76205871Y-46683782D01*
X76090861Y-46636143D01*
X76043583Y-46595764D01*
X76029069Y-46535308D01*
X76052862Y-46477866D01*
X76079053Y-46456083D01*
X76127787Y-46427947D01*
X76234937Y-46320797D01*
X76310703Y-46189567D01*
X76332380Y-46108666D01*
X76349921Y-46043203D01*
X76349922Y-46043196D01*
X76349922Y-45891667D01*
X76349921Y-45891660D01*
X76310704Y-45745300D01*
X76310702Y-45745295D01*
X76288599Y-45707012D01*
X76234937Y-45614067D01*
X76127787Y-45506917D01*
X76127788Y-45506917D01*
X75996558Y-45431151D01*
X75996553Y-45431149D01*
X75850193Y-45391932D01*
X75850188Y-45391932D01*
X75698656Y-45391932D01*
X75698650Y-45391932D01*
X75552290Y-45431149D01*
X75552285Y-45431151D01*
X75421056Y-45506917D01*
X75313907Y-45614066D01*
X75238141Y-45745295D01*
X75238139Y-45745300D01*
X75198922Y-45891660D01*
X75198922Y-46043203D01*
X75238139Y-46189563D01*
X75238141Y-46189568D01*
X75313907Y-46320797D01*
X75413507Y-46420397D01*
X75441733Y-46475795D01*
X75432007Y-46537203D01*
X75388043Y-46581167D01*
X75342372Y-46592132D01*
X74645107Y-46592132D01*
X74626848Y-46595764D01*
X74489522Y-46623079D01*
X74342972Y-46683782D01*
X74342964Y-46683786D01*
X74211074Y-46771912D01*
X74211073Y-46771914D01*
X74098904Y-46884083D01*
X74098902Y-46884084D01*
X74010776Y-47015974D01*
X74010772Y-47015982D01*
X73950069Y-47162532D01*
X73937774Y-47224347D01*
X73919122Y-47318117D01*
X73919122Y-47476747D01*
X73929437Y-47528607D01*
X73950069Y-47632331D01*
X74011769Y-47781288D01*
X74016647Y-47843271D01*
X73989962Y-47890921D01*
X73798504Y-48082381D01*
X73694371Y-48186513D01*
X73620739Y-48314046D01*
X73582622Y-48456296D01*
X73582622Y-48456710D01*
X73582531Y-48456988D01*
X73581762Y-48462834D01*
X73580678Y-48462691D01*
X73563409Y-48515841D01*
X73556045Y-48524462D01*
X73464337Y-48645399D01*
X73409596Y-48784208D01*
X73399123Y-48871423D01*
X73399122Y-48871443D01*
X73399122Y-49431418D01*
X73399123Y-49431426D01*
X73409596Y-49518653D01*
X73409596Y-49518655D01*
X73409597Y-49518656D01*
X73426686Y-49561991D01*
X73464338Y-49657467D01*
X73506525Y-49713099D01*
X73526945Y-49771824D01*
X73519832Y-49811094D01*
X73396450Y-50121022D01*
X73383143Y-50144599D01*
X73364336Y-50169399D01*
X73309596Y-50308208D01*
X73299123Y-50395423D01*
X73299122Y-50395443D01*
X73299122Y-50955418D01*
X73299123Y-50955426D01*
X73309596Y-51042653D01*
X73309596Y-51042655D01*
X73309597Y-51042656D01*
X73364337Y-51181465D01*
X73454496Y-51300358D01*
X73573389Y-51390517D01*
X73712198Y-51445257D01*
X73799427Y-51455732D01*
X74484416Y-51455731D01*
X74571646Y-51445257D01*
X74710455Y-51390517D01*
X74829348Y-51300358D01*
X74919507Y-51181465D01*
X74974247Y-51042656D01*
X74984722Y-50955427D01*
X74984721Y-50395438D01*
X74974247Y-50308208D01*
X74919507Y-50169399D01*
X74900698Y-50144595D01*
X74887391Y-50121019D01*
X74847299Y-50020312D01*
X74796848Y-49893585D01*
X74792829Y-49831543D01*
X74824572Y-49781314D01*
X74824482Y-49781224D01*
X74824881Y-49780824D01*
X74826044Y-49778985D01*
X74829317Y-49776388D01*
X74829343Y-49776361D01*
X74829348Y-49776358D01*
X74919507Y-49657465D01*
X74974247Y-49518656D01*
X74984722Y-49431427D01*
X74984721Y-48871438D01*
X74974247Y-48784208D01*
X74919507Y-48645399D01*
X74916983Y-48638998D01*
X74918520Y-48638391D01*
X74907920Y-48585606D01*
X74933846Y-48529095D01*
X74936681Y-48526140D01*
X75230626Y-48232197D01*
X75286024Y-48203970D01*
X75301761Y-48202732D01*
X75602912Y-48202732D01*
X75662043Y-48221945D01*
X75698588Y-48272245D01*
X75698588Y-48334419D01*
X75662043Y-48384719D01*
X75639817Y-48396918D01*
X75548710Y-48432845D01*
X75548707Y-48432846D01*
X75427074Y-48525084D01*
X75334836Y-48646717D01*
X75334835Y-48646720D01*
X75278839Y-48788717D01*
X75278837Y-48788725D01*
X75268123Y-48877942D01*
X75268122Y-48877962D01*
X75268122Y-49464905D01*
X75269161Y-49473566D01*
X75269877Y-49485738D01*
X75269875Y-49486417D01*
X75269876Y-49486423D01*
X75271671Y-49496145D01*
X75272625Y-49502413D01*
X75278837Y-49554139D01*
X75278839Y-49554148D01*
X75281932Y-49561991D01*
X75287271Y-49580622D01*
X75365675Y-50005184D01*
X75366615Y-50035577D01*
X75362942Y-50065830D01*
X75362942Y-50065832D01*
X75383587Y-50235861D01*
X75385319Y-50240427D01*
X75444322Y-50396008D01*
X75444323Y-50396009D01*
X75541620Y-50536967D01*
X75624873Y-50610723D01*
X75669823Y-50650546D01*
X75738086Y-50686373D01*
X75781516Y-50730865D01*
X75790499Y-50792387D01*
X75761605Y-50847439D01*
X75705871Y-50874994D01*
X75703333Y-50875332D01*
X75690709Y-50876848D01*
X75548710Y-50932845D01*
X75548707Y-50932846D01*
X75427074Y-51025084D01*
X75334836Y-51146717D01*
X75334835Y-51146720D01*
X75278839Y-51288717D01*
X75278837Y-51288725D01*
X75268123Y-51377942D01*
X75268122Y-51377962D01*
X75268122Y-51964907D01*
X75268236Y-51966819D01*
X75268376Y-51975564D01*
X75268295Y-51978497D01*
X75268296Y-51978511D01*
X75273998Y-52014446D01*
X75274523Y-52018214D01*
X75278837Y-52054139D01*
X75280419Y-52060396D01*
X75280075Y-52060482D01*
X75283006Y-52071218D01*
X75385009Y-52714092D01*
X75384828Y-52714120D01*
X75387122Y-52733477D01*
X75387122Y-53293986D01*
X75367909Y-53353117D01*
X75357657Y-53365121D01*
X75125029Y-53597748D01*
X75105151Y-53612504D01*
X75105294Y-53612720D01*
X75101415Y-53615282D01*
X74533781Y-54070902D01*
X74482804Y-54092331D01*
X74447199Y-54096606D01*
X74308389Y-54151347D01*
X74189496Y-54241506D01*
X74099337Y-54360399D01*
X74044596Y-54499208D01*
X74034123Y-54586423D01*
X74034122Y-54586443D01*
X74034122Y-55146418D01*
X74034123Y-55146426D01*
X74044596Y-55233655D01*
X74045781Y-55236658D01*
X74051757Y-55259156D01*
X74137369Y-55850845D01*
X74138112Y-55854107D01*
X74140622Y-55876438D01*
X74140622Y-56626026D01*
X74156259Y-56704641D01*
X74166994Y-56758610D01*
X74166996Y-56758619D01*
X74218729Y-56883513D01*
X74218731Y-56883517D01*
X74219072Y-56884027D01*
X74242168Y-56918592D01*
X74259122Y-56974482D01*
X74259122Y-57238278D01*
X74261365Y-57262199D01*
X74262006Y-57269036D01*
X74273223Y-57301091D01*
X74274618Y-57363250D01*
X74239210Y-57414357D01*
X74180525Y-57434892D01*
X74156284Y-57431059D01*
X74156009Y-57432323D01*
X74150027Y-57431016D01*
X74139772Y-57430054D01*
X74119268Y-57428132D01*
X73709576Y-57428132D01*
X73691122Y-57429862D01*
X73678816Y-57431016D01*
X73672835Y-57432323D01*
X73672229Y-57429550D01*
X73621547Y-57430638D01*
X73570475Y-57395180D01*
X73549998Y-57336475D01*
X73555620Y-57301091D01*
X73566838Y-57269034D01*
X73569722Y-57238278D01*
X73569722Y-57168506D01*
X73577379Y-57130009D01*
X73624348Y-57016618D01*
X73650722Y-56884027D01*
X73650722Y-56528337D01*
X73624348Y-56395746D01*
X73577380Y-56282355D01*
X73569722Y-56243857D01*
X73569722Y-55953592D01*
X73569722Y-55953586D01*
X73566838Y-55922830D01*
X73521507Y-55793281D01*
X73477933Y-55734242D01*
X73458279Y-55675258D01*
X73477048Y-55615984D01*
X73515198Y-55586208D01*
X73514457Y-55584889D01*
X73520448Y-55581519D01*
X73520455Y-55581517D01*
X73639348Y-55491358D01*
X73729507Y-55372465D01*
X73784247Y-55233656D01*
X73794722Y-55146427D01*
X73794721Y-54586438D01*
X73784247Y-54499208D01*
X73729507Y-54360399D01*
X73639348Y-54241506D01*
X73520455Y-54151347D01*
X73465714Y-54129759D01*
X73381645Y-54096606D01*
X73294430Y-54086133D01*
X73294421Y-54086132D01*
X73294417Y-54086132D01*
X73294410Y-54086132D01*
X72709435Y-54086132D01*
X72709427Y-54086133D01*
X72622198Y-54096606D01*
X72506642Y-54142175D01*
X72502780Y-54143607D01*
X72498071Y-54145244D01*
X72495248Y-54146528D01*
X72490532Y-54148529D01*
X72483389Y-54151346D01*
X72476303Y-54156719D01*
X72465450Y-54163891D01*
X72359859Y-54224248D01*
X72298988Y-54236913D01*
X72248512Y-54216581D01*
X72104582Y-54105617D01*
X72104580Y-54105616D01*
X72096725Y-54101435D01*
X72083206Y-54092790D01*
X72007457Y-54035348D01*
X72007455Y-54035347D01*
X71932898Y-54005945D01*
X71868645Y-53980606D01*
X71781430Y-53970133D01*
X71781421Y-53970132D01*
X71781417Y-53970132D01*
X71781411Y-53970132D01*
X71775036Y-53970132D01*
X71738886Y-53963413D01*
X71008245Y-53682072D01*
X70973260Y-53659326D01*
X70957187Y-53643253D01*
X70928961Y-53587855D01*
X70927722Y-53572118D01*
X70927722Y-48515764D01*
X70927722Y-48515763D01*
X70926582Y-48511506D01*
X70925513Y-48507518D01*
X70899991Y-48412271D01*
X70846424Y-48319491D01*
X70846423Y-48319489D01*
X68395187Y-45868253D01*
X68366961Y-45812855D01*
X68365722Y-45797118D01*
X68365722Y-45767608D01*
X68365722Y-45767602D01*
X68362996Y-45738531D01*
X68348020Y-45695732D01*
X70528242Y-45695732D01*
X70548887Y-45865761D01*
X70582287Y-45953830D01*
X70609622Y-46025908D01*
X70609624Y-46025911D01*
X70636442Y-46064762D01*
X70706920Y-46166867D01*
X70835123Y-46280446D01*
X70986778Y-46360040D01*
X70986779Y-46360040D01*
X70986782Y-46360042D01*
X71153083Y-46401032D01*
X71153087Y-46401032D01*
X71324357Y-46401032D01*
X71324361Y-46401032D01*
X71457829Y-46368134D01*
X71467365Y-46366362D01*
X71468550Y-46366099D01*
X71468553Y-46366099D01*
X71505180Y-46357974D01*
X71567068Y-46363924D01*
X71578180Y-46369599D01*
X71863056Y-46538166D01*
X71872602Y-46544579D01*
X71884389Y-46553517D01*
X72023198Y-46608257D01*
X72110427Y-46618732D01*
X72670416Y-46618731D01*
X72757646Y-46608257D01*
X72896455Y-46553517D01*
X73015348Y-46463358D01*
X73105507Y-46344465D01*
X73160247Y-46205656D01*
X73170722Y-46118427D01*
X73170721Y-45533438D01*
X73160247Y-45446208D01*
X73105507Y-45307399D01*
X73015348Y-45188506D01*
X72896455Y-45098347D01*
X72840404Y-45076243D01*
X72757645Y-45043606D01*
X72670430Y-45033133D01*
X72670421Y-45033132D01*
X72670417Y-45033132D01*
X72670410Y-45033132D01*
X72110435Y-45033132D01*
X72110427Y-45033133D01*
X72023199Y-45043606D01*
X71884390Y-45098346D01*
X71872616Y-45107274D01*
X71863067Y-45113688D01*
X71855930Y-45117912D01*
X71797956Y-45152216D01*
X71737282Y-45165793D01*
X71692428Y-45150325D01*
X71678230Y-45141222D01*
X71665819Y-45131835D01*
X71656301Y-45123403D01*
X71642321Y-45111018D01*
X71642318Y-45111016D01*
X71584414Y-45080625D01*
X71576878Y-45076243D01*
X71571015Y-45072485D01*
X71547383Y-45058762D01*
X71545608Y-45057833D01*
X71545573Y-45057816D01*
X71513439Y-45043196D01*
X71508352Y-45040706D01*
X71490664Y-45031423D01*
X71490665Y-45031423D01*
X71490662Y-45031422D01*
X71324361Y-44990432D01*
X71153083Y-44990432D01*
X71153082Y-44990432D01*
X70986778Y-45031423D01*
X70835123Y-45111017D01*
X70745523Y-45190397D01*
X70706920Y-45224597D01*
X70702968Y-45230323D01*
X70609624Y-45365552D01*
X70609622Y-45365555D01*
X70568962Y-45472769D01*
X70548887Y-45525703D01*
X70528242Y-45695732D01*
X68348020Y-45695732D01*
X68320154Y-45616095D01*
X68311353Y-45604170D01*
X68291698Y-45545187D01*
X68310466Y-45485914D01*
X68311286Y-45484784D01*
X68320154Y-45472769D01*
X68362996Y-45350333D01*
X68365722Y-45321262D01*
X68365722Y-44967602D01*
X68362996Y-44938531D01*
X68320154Y-44816095D01*
X68311353Y-44804170D01*
X68291698Y-44745187D01*
X68310466Y-44685914D01*
X68311286Y-44684784D01*
X68320154Y-44672769D01*
X68362996Y-44550333D01*
X68365722Y-44521262D01*
X68365722Y-44271961D01*
X68384935Y-44212830D01*
X68435235Y-44176285D01*
X68497409Y-44176285D01*
X68547709Y-44212830D01*
X68549955Y-44216052D01*
X68577631Y-44257472D01*
X68815628Y-44495469D01*
X68815631Y-44495473D01*
X68911781Y-44591623D01*
X69016608Y-44661666D01*
X69024842Y-44667168D01*
X69024846Y-44667170D01*
X69038359Y-44672767D01*
X69053372Y-44678985D01*
X69053375Y-44678988D01*
X69053376Y-44678987D01*
X69150469Y-44719205D01*
X69261707Y-44741330D01*
X69283833Y-44745732D01*
X69283834Y-44745732D01*
X69419810Y-44745732D01*
X71749488Y-44745732D01*
X71769113Y-44747664D01*
X71839833Y-44761732D01*
X71839834Y-44761732D01*
X71975809Y-44761732D01*
X71975810Y-44761732D01*
X72046529Y-44747664D01*
X72066155Y-44745732D01*
X73044888Y-44745732D01*
X73064513Y-44747664D01*
X73135233Y-44761732D01*
X73135234Y-44761732D01*
X73271209Y-44761732D01*
X73271210Y-44761732D01*
X73341929Y-44747664D01*
X73361555Y-44745732D01*
X74801434Y-44745732D01*
X74869231Y-44745732D01*
X74937219Y-44745751D01*
X74937233Y-44745748D01*
X74937321Y-44745740D01*
X74937406Y-44745732D01*
X74937410Y-44745732D01*
X74937411Y-44745732D01*
X74981697Y-44736922D01*
X75003546Y-44732576D01*
X75003546Y-44732578D01*
X75003565Y-44732571D01*
X75070591Y-44719260D01*
X75070597Y-44719257D01*
X75070604Y-44719256D01*
X75070762Y-44719208D01*
X75070768Y-44719205D01*
X75070775Y-44719204D01*
X75072753Y-44718384D01*
X75075002Y-44717937D01*
X75075591Y-44717726D01*
X75075739Y-44717681D01*
X75075770Y-44717784D01*
X75111241Y-44710731D01*
X75214994Y-44710731D01*
X75215000Y-44710731D01*
X75240531Y-44707770D01*
X75344947Y-44661666D01*
X75425656Y-44580957D01*
X75471760Y-44476541D01*
X75473911Y-44457999D01*
X75499810Y-44401477D01*
X75502710Y-44398453D01*
X75762779Y-44138531D01*
X75831772Y-44069577D01*
X75887178Y-44041366D01*
X75902887Y-44040132D01*
X75982522Y-44040132D01*
X76041653Y-44059345D01*
G37*
G04 #@! TD.AperFunction*
G04 #@! TA.AperFunction,Conductor*
G36*
X53674078Y-43561934D02*
G01*
X53718518Y-43620536D01*
X53834673Y-43708620D01*
X53834674Y-43708620D01*
X53834675Y-43708621D01*
X53834678Y-43708622D01*
X53970285Y-43762098D01*
X54055504Y-43772332D01*
X54055509Y-43772332D01*
X54638535Y-43772332D01*
X54638540Y-43772332D01*
X54723759Y-43762098D01*
X54751067Y-43751328D01*
X54776924Y-43744924D01*
X54781000Y-43744474D01*
X54942284Y-43695485D01*
X55004447Y-43696684D01*
X55054033Y-43734191D01*
X55072122Y-43791743D01*
X55072122Y-44089003D01*
X55072123Y-44089018D01*
X55075084Y-44114540D01*
X55075084Y-44114543D01*
X55121187Y-44218956D01*
X55121188Y-44218957D01*
X55201897Y-44299666D01*
X55306313Y-44345770D01*
X55331843Y-44348732D01*
X56545824Y-44348731D01*
X56604955Y-44367944D01*
X56641500Y-44418244D01*
X56641500Y-44480418D01*
X56616959Y-44520466D01*
X56388133Y-44749291D01*
X56367762Y-44765009D01*
X56362002Y-44768375D01*
X55805634Y-45250140D01*
X55751775Y-45273971D01*
X55678203Y-45282805D01*
X55539389Y-45337547D01*
X55420496Y-45427706D01*
X55330337Y-45546599D01*
X55275596Y-45685408D01*
X55265123Y-45772623D01*
X55265122Y-45772643D01*
X55265122Y-45805993D01*
X55247199Y-45863306D01*
X54878444Y-46395253D01*
X54866902Y-46409075D01*
X53665057Y-47610921D01*
X53609659Y-47639147D01*
X53548251Y-47629421D01*
X53504287Y-47585457D01*
X53493322Y-47539786D01*
X53493322Y-43622722D01*
X53512535Y-43563591D01*
X53562835Y-43527046D01*
X53625009Y-43527046D01*
X53674078Y-43561934D01*
G37*
G04 #@! TD.AperFunction*
G04 #@! TA.AperFunction,Conductor*
G36*
X56955543Y-37113639D02*
G01*
X56955563Y-37113510D01*
X56959960Y-37114179D01*
X56960112Y-37114198D01*
X56960153Y-37114207D01*
X56960160Y-37114210D01*
X57687824Y-37224987D01*
X57697331Y-37226908D01*
X57701705Y-37228013D01*
X57701711Y-37228016D01*
X57728572Y-37231241D01*
X57731699Y-37231667D01*
X57781091Y-37239187D01*
X57820612Y-37242639D01*
X57823220Y-37242699D01*
X57823591Y-37242708D01*
X57823591Y-37242707D01*
X57823593Y-37242708D01*
X57870249Y-37240270D01*
X57870251Y-37240269D01*
X57871899Y-37240183D01*
X57887787Y-37238732D01*
X58822533Y-37238732D01*
X58825925Y-37238788D01*
X58837752Y-37239188D01*
X58887212Y-37231657D01*
X58890263Y-37231242D01*
X58917133Y-37228016D01*
X58917143Y-37228011D01*
X58921507Y-37226910D01*
X58931015Y-37224989D01*
X59348192Y-37161479D01*
X59380126Y-37161745D01*
X59547102Y-37190019D01*
X59579606Y-37201515D01*
X59581382Y-37202513D01*
X59581385Y-37202514D01*
X59581389Y-37202517D01*
X59720198Y-37257257D01*
X59807427Y-37267732D01*
X59968724Y-37267731D01*
X60027855Y-37286944D01*
X60064400Y-37337243D01*
X60064400Y-37399418D01*
X60048884Y-37429115D01*
X60018338Y-37469397D01*
X59963596Y-37608208D01*
X59953123Y-37695423D01*
X59953122Y-37695443D01*
X59953122Y-38255418D01*
X59953123Y-38255426D01*
X59963596Y-38342653D01*
X59963596Y-38342655D01*
X59963597Y-38342656D01*
X60018337Y-38481465D01*
X60108496Y-38600358D01*
X60227389Y-38690517D01*
X60366198Y-38745257D01*
X60453427Y-38755732D01*
X60550539Y-38755731D01*
X60609669Y-38774943D01*
X60646215Y-38825243D01*
X60646216Y-38887417D01*
X60643141Y-38895640D01*
X60611111Y-38971092D01*
X60611091Y-38971141D01*
X60610921Y-38971542D01*
X60610763Y-38971915D01*
X60605287Y-38997115D01*
X60601937Y-39008973D01*
X60582849Y-39063524D01*
X60582848Y-39063528D01*
X60581939Y-39073221D01*
X60580122Y-39092602D01*
X60580122Y-40446262D01*
X60580305Y-40448209D01*
X60582848Y-40475335D01*
X60625688Y-40597765D01*
X60625690Y-40597769D01*
X60702717Y-40702137D01*
X60807085Y-40779164D01*
X60929518Y-40822005D01*
X60929521Y-40822006D01*
X60958592Y-40824732D01*
X60958598Y-40824732D01*
X61312246Y-40824732D01*
X61312252Y-40824732D01*
X61341323Y-40822006D01*
X61463759Y-40779164D01*
X61475683Y-40770363D01*
X61534667Y-40750708D01*
X61593940Y-40769476D01*
X61595128Y-40770339D01*
X61607084Y-40779163D01*
X61607711Y-40779626D01*
X61643878Y-40830198D01*
X61643411Y-40892371D01*
X61619106Y-40931702D01*
X60122692Y-42428116D01*
X60067294Y-42456342D01*
X60005886Y-42446616D01*
X59970616Y-42416721D01*
X59961354Y-42404172D01*
X59941698Y-42345187D01*
X59960467Y-42285913D01*
X59961287Y-42284782D01*
X59970154Y-42272769D01*
X60012996Y-42150333D01*
X60015722Y-42121262D01*
X60015722Y-41767602D01*
X60012996Y-41738531D01*
X59970154Y-41616095D01*
X59961353Y-41604170D01*
X59941698Y-41545187D01*
X59960466Y-41485914D01*
X59961286Y-41484784D01*
X59970154Y-41472769D01*
X60012996Y-41350333D01*
X60015722Y-41321262D01*
X60015722Y-40967602D01*
X60012996Y-40938531D01*
X60012991Y-40938518D01*
X59970155Y-40816098D01*
X59970154Y-40816095D01*
X59893127Y-40711727D01*
X59788759Y-40634700D01*
X59788755Y-40634698D01*
X59666324Y-40591858D01*
X59666326Y-40591858D01*
X59656632Y-40590949D01*
X59637252Y-40589132D01*
X59637246Y-40589132D01*
X59254971Y-40589132D01*
X59195840Y-40569919D01*
X59183836Y-40559667D01*
X58514521Y-39890352D01*
X58496785Y-39866358D01*
X58474399Y-39824152D01*
X58464606Y-39796643D01*
X58460394Y-39775468D01*
X58457048Y-39758646D01*
X58443905Y-39726917D01*
X58412522Y-39651151D01*
X58405313Y-39633747D01*
X58345493Y-39544221D01*
X58330207Y-39521343D01*
X58305910Y-39497046D01*
X58288172Y-39473049D01*
X58265469Y-39430246D01*
X58213020Y-39331359D01*
X58174448Y-39258636D01*
X58162721Y-39211498D01*
X58162721Y-39168645D01*
X58162721Y-39168638D01*
X58152247Y-39081408D01*
X58097507Y-38942599D01*
X58007348Y-38823706D01*
X57888455Y-38733547D01*
X57829034Y-38710114D01*
X57749645Y-38678806D01*
X57662416Y-38668331D01*
X57662374Y-38668329D01*
X57662364Y-38668325D01*
X57659431Y-38667973D01*
X57659521Y-38667223D01*
X57605143Y-38646144D01*
X57232618Y-38345008D01*
X57026236Y-38178176D01*
X57026235Y-38178175D01*
X57026232Y-38178173D01*
X57024357Y-38177125D01*
X57002319Y-38160454D01*
X56690611Y-37848746D01*
X56578211Y-37773643D01*
X56578202Y-37773639D01*
X56453310Y-37721906D01*
X56364914Y-37704323D01*
X56320717Y-37695532D01*
X56320716Y-37695532D01*
X55773567Y-37695532D01*
X55714436Y-37676319D01*
X55677891Y-37626019D01*
X55677891Y-37563845D01*
X55702432Y-37523797D01*
X56085532Y-37140697D01*
X56140930Y-37112471D01*
X56156667Y-37111232D01*
X56935864Y-37111232D01*
X56955543Y-37113639D01*
G37*
G04 #@! TD.AperFunction*
G04 #@! TA.AperFunction,Conductor*
G36*
X54223718Y-39065734D02*
G01*
X54235769Y-39068132D01*
X55927177Y-39068132D01*
X55986308Y-39087345D01*
X55998312Y-39097597D01*
X56029840Y-39129125D01*
X56044092Y-39148492D01*
X56044518Y-39148216D01*
X56047047Y-39152112D01*
X56455500Y-39669542D01*
X56476957Y-39725860D01*
X56477122Y-39728615D01*
X56477122Y-39728623D01*
X56477123Y-39728626D01*
X56477873Y-39734870D01*
X56487596Y-39815853D01*
X56487596Y-39815855D01*
X56487597Y-39815856D01*
X56542337Y-39954665D01*
X56542338Y-39954666D01*
X56542338Y-39954667D01*
X56634913Y-40076747D01*
X56655333Y-40135472D01*
X56637335Y-40194984D01*
X56587794Y-40232552D01*
X56554754Y-40238132D01*
X55331850Y-40238132D01*
X55331835Y-40238133D01*
X55306313Y-40241094D01*
X55306310Y-40241094D01*
X55201897Y-40287197D01*
X55121187Y-40367907D01*
X55075084Y-40472320D01*
X55075084Y-40472321D01*
X55072122Y-40497849D01*
X55072122Y-40831779D01*
X55052909Y-40890910D01*
X55002609Y-40927455D01*
X54942285Y-40928037D01*
X54765003Y-40874189D01*
X54764988Y-40874185D01*
X54749650Y-40871232D01*
X54731770Y-40866034D01*
X54715261Y-40859524D01*
X54707759Y-40856566D01*
X54707756Y-40856565D01*
X54707754Y-40856565D01*
X54622553Y-40846333D01*
X54622544Y-40846332D01*
X54622540Y-40846332D01*
X54039504Y-40846332D01*
X54039500Y-40846332D01*
X54039490Y-40846333D01*
X53954289Y-40856565D01*
X53954281Y-40856567D01*
X53818678Y-40910041D01*
X53818675Y-40910042D01*
X53702517Y-40998128D01*
X53674080Y-41035628D01*
X53623041Y-41071134D01*
X53560880Y-41069860D01*
X53511340Y-41032292D01*
X53493322Y-40974841D01*
X53493322Y-39774576D01*
X53512535Y-39715445D01*
X53522781Y-39703447D01*
X54132962Y-39093265D01*
X54188358Y-39065041D01*
X54223718Y-39065734D01*
G37*
G04 #@! TD.AperFunction*
G04 #@! TA.AperFunction,Conductor*
G36*
X68980769Y-35106033D02*
G01*
X69024733Y-35149997D01*
X69034964Y-35183541D01*
X69039748Y-35222940D01*
X69081914Y-35334122D01*
X69099942Y-35381659D01*
X69196370Y-35521359D01*
X69196371Y-35521360D01*
X69196372Y-35521361D01*
X69196373Y-35521362D01*
X69301088Y-35614132D01*
X69332608Y-35667724D01*
X69326607Y-35729608D01*
X69301088Y-35764732D01*
X69196373Y-35857501D01*
X69196372Y-35857502D01*
X69099941Y-35997206D01*
X69039749Y-36155919D01*
X69019288Y-36324432D01*
X69039749Y-36492944D01*
X69077395Y-36592208D01*
X69099942Y-36651659D01*
X69196370Y-36791359D01*
X69196371Y-36791360D01*
X69196372Y-36791361D01*
X69196373Y-36791362D01*
X69223400Y-36815306D01*
X69323428Y-36903923D01*
X69473733Y-36982809D01*
X69638548Y-37023432D01*
X69638549Y-37023432D01*
X69644456Y-37024888D01*
X69643896Y-37027156D01*
X69691321Y-37049184D01*
X69721545Y-37103517D01*
X69723422Y-37122861D01*
X69723422Y-38066002D01*
X69704209Y-38125133D01*
X69653909Y-38161678D01*
X69644407Y-38163779D01*
X69644456Y-38163976D01*
X69638549Y-38165432D01*
X69638548Y-38165432D01*
X69618721Y-38170319D01*
X69473733Y-38206054D01*
X69323425Y-38284942D01*
X69263567Y-38337971D01*
X69246394Y-38350229D01*
X69237045Y-38355517D01*
X69102434Y-38468796D01*
X69076169Y-38484762D01*
X69074966Y-38485260D01*
X68982181Y-38538829D01*
X68982179Y-38538830D01*
X68788562Y-38732446D01*
X68782204Y-38738281D01*
X68760810Y-38756285D01*
X68750650Y-38765222D01*
X68749933Y-38765881D01*
X68735475Y-38780063D01*
X68735472Y-38780067D01*
X68730966Y-38786982D01*
X68717822Y-38803186D01*
X68630644Y-38890366D01*
X68575246Y-38918593D01*
X68559508Y-38919832D01*
X67435850Y-38919832D01*
X67332362Y-38947562D01*
X67297978Y-38967415D01*
X67297977Y-38967416D01*
X67239578Y-39001131D01*
X66697957Y-39542753D01*
X66642559Y-39570979D01*
X66581151Y-39561253D01*
X66537187Y-39517289D01*
X66526222Y-39471618D01*
X66526222Y-39200426D01*
X66545435Y-39141295D01*
X66595735Y-39104750D01*
X66607194Y-39101759D01*
X66644908Y-39094258D01*
X66769807Y-39042523D01*
X66882213Y-38967416D01*
X66901764Y-38947864D01*
X66926144Y-38929924D01*
X66949921Y-38917446D01*
X67078124Y-38803867D01*
X67175421Y-38662909D01*
X67236157Y-38502761D01*
X67256802Y-38332732D01*
X67236157Y-38162703D01*
X67175421Y-38002555D01*
X67078124Y-37861597D01*
X66949921Y-37748018D01*
X66949920Y-37748017D01*
X66798264Y-37668423D01*
X66798266Y-37668423D01*
X66631961Y-37627432D01*
X66603935Y-37627432D01*
X66544804Y-37608219D01*
X66508259Y-37557919D01*
X66508259Y-37495745D01*
X66532800Y-37455697D01*
X67664065Y-36324432D01*
X68863965Y-35124531D01*
X68919361Y-35096307D01*
X68980769Y-35106033D01*
G37*
G04 #@! TD.AperFunction*
G04 #@! TA.AperFunction,Conductor*
G36*
X68290400Y-29428333D02*
G01*
X68328375Y-29462077D01*
X68386739Y-29549424D01*
X70161020Y-31323704D01*
X70161025Y-31323710D01*
X70260132Y-31422817D01*
X70372532Y-31497920D01*
X70372533Y-31497920D01*
X70372537Y-31497923D01*
X70463742Y-31535701D01*
X70497433Y-31549657D01*
X70497434Y-31549657D01*
X70497436Y-31549658D01*
X70630027Y-31576032D01*
X70630028Y-31576032D01*
X70765217Y-31576032D01*
X71247823Y-31576032D01*
X71306954Y-31595245D01*
X71343499Y-31645545D01*
X71343499Y-31707719D01*
X71306954Y-31758019D01*
X71267449Y-31775299D01*
X71156877Y-31797292D01*
X71021156Y-31853510D01*
X70899003Y-31935129D01*
X70899002Y-31935131D01*
X70795121Y-32039012D01*
X70795119Y-32039013D01*
X70713500Y-32161166D01*
X70657282Y-32296887D01*
X70628622Y-32440977D01*
X70628622Y-32587886D01*
X70657282Y-32731976D01*
X70713499Y-32867694D01*
X70713502Y-32867701D01*
X70739692Y-32906897D01*
X70795119Y-32989850D01*
X70795121Y-32989852D01*
X70899002Y-33093733D01*
X71021153Y-33175352D01*
X71089016Y-33203462D01*
X71156877Y-33231571D01*
X71156878Y-33231571D01*
X71156880Y-33231572D01*
X71300967Y-33260232D01*
X71447877Y-33260232D01*
X71591964Y-33231572D01*
X71727691Y-33175352D01*
X71849842Y-33093733D01*
X71953723Y-32989852D01*
X72035342Y-32867701D01*
X72091562Y-32731974D01*
X72120222Y-32587887D01*
X72120222Y-32440977D01*
X72110345Y-32391322D01*
X72117653Y-32329581D01*
X72159856Y-32283925D01*
X72220836Y-32271795D01*
X72233076Y-32274018D01*
X72357683Y-32304732D01*
X72357687Y-32304732D01*
X72528957Y-32304732D01*
X72528961Y-32304732D01*
X72695262Y-32263742D01*
X72846921Y-32184146D01*
X72975124Y-32070567D01*
X72975127Y-32070563D01*
X72976222Y-32069328D01*
X72977114Y-32068803D01*
X72979678Y-32066532D01*
X72980122Y-32067033D01*
X73029814Y-32037808D01*
X73091698Y-32043809D01*
X73138236Y-32085038D01*
X73152122Y-32136038D01*
X73152122Y-32626901D01*
X73152123Y-32626921D01*
X73162837Y-32716138D01*
X73162839Y-32716146D01*
X73218835Y-32858143D01*
X73218836Y-32858146D01*
X73218837Y-32858148D01*
X73218838Y-32858149D01*
X73311074Y-32979780D01*
X73432705Y-33072016D01*
X73432706Y-33072016D01*
X73432707Y-33072017D01*
X73432712Y-33072019D01*
X73512069Y-33103313D01*
X73550023Y-33129693D01*
X73673637Y-33267382D01*
X73698843Y-33324218D01*
X73685828Y-33385015D01*
X73678942Y-33395368D01*
X73671337Y-33405398D01*
X73616596Y-33544208D01*
X73606123Y-33631423D01*
X73606122Y-33631443D01*
X73606122Y-34191418D01*
X73606123Y-34191426D01*
X73616596Y-34278653D01*
X73616596Y-34278655D01*
X73616597Y-34278656D01*
X73671337Y-34417465D01*
X73761496Y-34536358D01*
X73835398Y-34592399D01*
X73870905Y-34643437D01*
X73869631Y-34705598D01*
X73832064Y-34755139D01*
X73829311Y-34756988D01*
X73392277Y-35040129D01*
X73363622Y-35052869D01*
X73350967Y-35056260D01*
X73258179Y-35109830D01*
X73208208Y-35159800D01*
X73201686Y-35165674D01*
X73201712Y-35165704D01*
X73200498Y-35166752D01*
X73171359Y-35193605D01*
X73171154Y-35193848D01*
X73158245Y-35209763D01*
X73039512Y-35328496D01*
X73006877Y-35350303D01*
X72840629Y-35419169D01*
X72778646Y-35424048D01*
X72725633Y-35391563D01*
X72701839Y-35334122D01*
X72702263Y-35314101D01*
X72705062Y-35291043D01*
X72709702Y-35252832D01*
X72689057Y-35082803D01*
X72628321Y-34922655D01*
X72531024Y-34781697D01*
X72402821Y-34668118D01*
X72402820Y-34668117D01*
X72251164Y-34588523D01*
X72251166Y-34588523D01*
X72206444Y-34577500D01*
X72084861Y-34547532D01*
X71955051Y-34547532D01*
X71949989Y-34547405D01*
X71944386Y-34547122D01*
X71939746Y-34547318D01*
X71939740Y-34547185D01*
X71934593Y-34547532D01*
X71913582Y-34547532D01*
X71885025Y-34554569D01*
X71874442Y-34556583D01*
X71719817Y-34577500D01*
X71668035Y-34570834D01*
X71404400Y-34462302D01*
X71272979Y-34408199D01*
X71271498Y-34407607D01*
X71266974Y-34405798D01*
X71264841Y-34405179D01*
X71246154Y-34397651D01*
X71243115Y-34396056D01*
X71243112Y-34396055D01*
X71144971Y-34371865D01*
X71078296Y-34355432D01*
X71078295Y-34355432D01*
X71072388Y-34353976D01*
X71072945Y-34351715D01*
X71025494Y-34329651D01*
X70995291Y-34275306D01*
X70993422Y-34256002D01*
X70993422Y-33784432D01*
X70516679Y-33784432D01*
X70457548Y-33765219D01*
X70421003Y-33714919D01*
X70416814Y-33695967D01*
X70407095Y-33615922D01*
X70346902Y-33457205D01*
X70250474Y-33317505D01*
X70250471Y-33317502D01*
X70250470Y-33317501D01*
X70123415Y-33204940D01*
X69967723Y-33123227D01*
X69968993Y-33120806D01*
X69929217Y-33088833D01*
X69912908Y-33028836D01*
X69929741Y-32977851D01*
X70003342Y-32867701D01*
X70059562Y-32731974D01*
X70088222Y-32587887D01*
X70088222Y-32440977D01*
X70059562Y-32296890D01*
X70056590Y-32289716D01*
X70026212Y-32216375D01*
X70003342Y-32161163D01*
X69940111Y-32066532D01*
X69921724Y-32039013D01*
X69817840Y-31935129D01*
X69757178Y-31894597D01*
X69695691Y-31853512D01*
X69695688Y-31853510D01*
X69695687Y-31853510D01*
X69559966Y-31797292D01*
X69415877Y-31768632D01*
X69268967Y-31768632D01*
X69124877Y-31797292D01*
X68989156Y-31853510D01*
X68867003Y-31935129D01*
X68867002Y-31935131D01*
X68763121Y-32039012D01*
X68763119Y-32039013D01*
X68681500Y-32161166D01*
X68625282Y-32296887D01*
X68596622Y-32440977D01*
X68596622Y-32587886D01*
X68625282Y-32731976D01*
X68681499Y-32867694D01*
X68681502Y-32867701D01*
X68707692Y-32906897D01*
X68763119Y-32989850D01*
X68763121Y-32989852D01*
X68867002Y-33093733D01*
X68989153Y-33175352D01*
X69015115Y-33186105D01*
X69111590Y-33226068D01*
X69158868Y-33266447D01*
X69173382Y-33326903D01*
X69155885Y-33376157D01*
X69145514Y-33391182D01*
X69101640Y-33454746D01*
X69099941Y-33457207D01*
X69093282Y-33474766D01*
X69081787Y-33495095D01*
X69082338Y-33495452D01*
X69079808Y-33499359D01*
X68803253Y-34027862D01*
X68785254Y-34052355D01*
X65199357Y-37638253D01*
X65143959Y-37666479D01*
X65082551Y-37656753D01*
X65038587Y-37612789D01*
X65027622Y-37567118D01*
X65027622Y-35693745D01*
X65046835Y-35634614D01*
X65057081Y-35622616D01*
X66381936Y-34297760D01*
X66414566Y-34275957D01*
X66987262Y-34038729D01*
X66993533Y-34036050D01*
X66999902Y-34031696D01*
X67009893Y-34025687D01*
X67129821Y-33962746D01*
X67258024Y-33849167D01*
X67355321Y-33708209D01*
X67416057Y-33548061D01*
X67436702Y-33378032D01*
X67416057Y-33208003D01*
X67355321Y-33047855D01*
X67258024Y-32906897D01*
X67129821Y-32793318D01*
X67129820Y-32793317D01*
X66978164Y-32713723D01*
X66978166Y-32713723D01*
X66811861Y-32672732D01*
X66640583Y-32672732D01*
X66640582Y-32672732D01*
X66474278Y-32713723D01*
X66320214Y-32794582D01*
X66258927Y-32805049D01*
X66203192Y-32777494D01*
X66174299Y-32722441D01*
X66173601Y-32717664D01*
X66171457Y-32700003D01*
X66110721Y-32539855D01*
X66013424Y-32398897D01*
X65885221Y-32285318D01*
X65885220Y-32285317D01*
X65733564Y-32205723D01*
X65733566Y-32205723D01*
X65567261Y-32164732D01*
X65395983Y-32164732D01*
X65395980Y-32164732D01*
X65229680Y-32205722D01*
X65222664Y-32209404D01*
X65203311Y-32216375D01*
X65203470Y-32216888D01*
X65199026Y-32218264D01*
X64665617Y-32439197D01*
X64626316Y-32455475D01*
X64587820Y-32463132D01*
X64339680Y-32463132D01*
X64236200Y-32490860D01*
X64236197Y-32490861D01*
X64143410Y-32544430D01*
X62812421Y-33875420D01*
X62812420Y-33875422D01*
X62758852Y-33968204D01*
X62758849Y-33968211D01*
X62741149Y-34034273D01*
X62741149Y-34034275D01*
X62731122Y-34071693D01*
X62731122Y-34752702D01*
X62711909Y-34811833D01*
X62701658Y-34823836D01*
X62676187Y-34849307D01*
X62630084Y-34953720D01*
X62630084Y-34953721D01*
X62627122Y-34979250D01*
X62627122Y-35420403D01*
X62627124Y-35420425D01*
X62629190Y-35438240D01*
X62629190Y-35461418D01*
X62627122Y-35479240D01*
X62627122Y-35920403D01*
X62627124Y-35920425D01*
X62629190Y-35938240D01*
X62629190Y-35961419D01*
X62627122Y-35979242D01*
X62627122Y-36118932D01*
X62607909Y-36178063D01*
X62557609Y-36214608D01*
X62526523Y-36219532D01*
X62386850Y-36219532D01*
X62386825Y-36219534D01*
X62369012Y-36221600D01*
X62345833Y-36221600D01*
X62328009Y-36219532D01*
X62328001Y-36219532D01*
X62188321Y-36219532D01*
X62129190Y-36200319D01*
X62092645Y-36150019D01*
X62087721Y-36118932D01*
X62087721Y-35979260D01*
X62087720Y-35979245D01*
X62087595Y-35978174D01*
X62084760Y-35953723D01*
X62070051Y-35920411D01*
X62038656Y-35849307D01*
X61957946Y-35768597D01*
X61853532Y-35722494D01*
X61828001Y-35719532D01*
X61361850Y-35719532D01*
X61361835Y-35719533D01*
X61338866Y-35722197D01*
X61336313Y-35722494D01*
X61266010Y-35753535D01*
X61211062Y-35761082D01*
X61204455Y-35760132D01*
X61204454Y-35760132D01*
X60776015Y-35760132D01*
X60716884Y-35740919D01*
X60715229Y-35739691D01*
X60706420Y-35733011D01*
X60593455Y-35647347D01*
X60509229Y-35614132D01*
X60454645Y-35592606D01*
X60367430Y-35582133D01*
X60367421Y-35582132D01*
X60367417Y-35582132D01*
X60367410Y-35582132D01*
X59807435Y-35582132D01*
X59807427Y-35582133D01*
X59720199Y-35592606D01*
X59581387Y-35647347D01*
X59579613Y-35648345D01*
X59547106Y-35659842D01*
X59516095Y-35665093D01*
X59466143Y-35660884D01*
X59037871Y-35511375D01*
X59034123Y-35509982D01*
X58917136Y-35463849D01*
X58917134Y-35463848D01*
X58917133Y-35463848D01*
X58917131Y-35463847D01*
X58917128Y-35463847D01*
X58827911Y-35453133D01*
X58827902Y-35453132D01*
X58827898Y-35453132D01*
X57790946Y-35453132D01*
X57790941Y-35453132D01*
X57790932Y-35453133D01*
X57701711Y-35463847D01*
X57701707Y-35463849D01*
X57584713Y-35509984D01*
X57580966Y-35511377D01*
X56946092Y-35733011D01*
X56912935Y-35738632D01*
X56617622Y-35738632D01*
X56558491Y-35719419D01*
X56521946Y-35669119D01*
X56517022Y-35638032D01*
X56517022Y-34996977D01*
X56536235Y-34937846D01*
X56546487Y-34925842D01*
X57010027Y-34462302D01*
X57476906Y-33995423D01*
X57476906Y-33995422D01*
X59033131Y-32439197D01*
X59088529Y-32410971D01*
X59104266Y-32409732D01*
X59217016Y-32409732D01*
X59217017Y-32409732D01*
X59349608Y-32383358D01*
X59474507Y-32331623D01*
X59586913Y-32256516D01*
X59682506Y-32160923D01*
X59682507Y-32160922D01*
X61038132Y-30805297D01*
X61093530Y-30777071D01*
X61109267Y-30775832D01*
X62874632Y-30775832D01*
X62933763Y-30795045D01*
X62970308Y-30845345D01*
X62973820Y-30893228D01*
X62962832Y-30958117D01*
X62951335Y-30990623D01*
X62950337Y-30992397D01*
X62895596Y-31131208D01*
X62885123Y-31218423D01*
X62885122Y-31218443D01*
X62885122Y-31778418D01*
X62885123Y-31778426D01*
X62895596Y-31865653D01*
X62895596Y-31865655D01*
X62895597Y-31865656D01*
X62950337Y-32004465D01*
X63040496Y-32123358D01*
X63159389Y-32213517D01*
X63298198Y-32268257D01*
X63385427Y-32278732D01*
X64070416Y-32278731D01*
X64157646Y-32268257D01*
X64296455Y-32213517D01*
X64415348Y-32123358D01*
X64505507Y-32004465D01*
X64560247Y-31865656D01*
X64570722Y-31778427D01*
X64570721Y-31218438D01*
X64560247Y-31131208D01*
X64505507Y-30992399D01*
X64505504Y-30992395D01*
X64505503Y-30992392D01*
X64504505Y-30990616D01*
X64493009Y-30958112D01*
X64491586Y-30949706D01*
X64416517Y-30506374D01*
X64416516Y-30506372D01*
X64415868Y-30502543D01*
X64416392Y-30502454D01*
X64414222Y-30484811D01*
X64414222Y-30414977D01*
X64433435Y-30355846D01*
X64443687Y-30343842D01*
X64681532Y-30105997D01*
X64736930Y-30077771D01*
X64752667Y-30076532D01*
X66243022Y-30076532D01*
X66302153Y-30095745D01*
X66338698Y-30146045D01*
X66343622Y-30177132D01*
X66343622Y-30484590D01*
X66341393Y-30501668D01*
X66342103Y-30501789D01*
X66264832Y-30958117D01*
X66253335Y-30990623D01*
X66252337Y-30992397D01*
X66197596Y-31131208D01*
X66187123Y-31218423D01*
X66187122Y-31218443D01*
X66187122Y-31778418D01*
X66187123Y-31778426D01*
X66197596Y-31865653D01*
X66197596Y-31865655D01*
X66197597Y-31865656D01*
X66252337Y-32004465D01*
X66342496Y-32123358D01*
X66461389Y-32213517D01*
X66600198Y-32268257D01*
X66687427Y-32278732D01*
X67372416Y-32278731D01*
X67459646Y-32268257D01*
X67598455Y-32213517D01*
X67717348Y-32123358D01*
X67807507Y-32004465D01*
X67862247Y-31865656D01*
X67872722Y-31778427D01*
X67872721Y-31218438D01*
X67862247Y-31131208D01*
X67807507Y-30992399D01*
X67807504Y-30992395D01*
X67807503Y-30992392D01*
X67806505Y-30990616D01*
X67795009Y-30958112D01*
X67793586Y-30949706D01*
X67718517Y-30506374D01*
X67718516Y-30506372D01*
X67717868Y-30502543D01*
X67718392Y-30502454D01*
X67716222Y-30484811D01*
X67716222Y-29945876D01*
X67735435Y-29886745D01*
X67745681Y-29874747D01*
X68173596Y-29446831D01*
X68228992Y-29418607D01*
X68290400Y-29428333D01*
G37*
G04 #@! TD.AperFunction*
G04 #@! TA.AperFunction,Conductor*
G36*
X65495427Y-24295504D02*
G01*
X65904929Y-24495129D01*
X66622274Y-24844822D01*
X66630612Y-24848735D01*
X66631248Y-24849022D01*
X66637863Y-24851797D01*
X66646348Y-24855834D01*
X66650622Y-24858119D01*
X66662878Y-24861836D01*
X66675621Y-24867312D01*
X66675832Y-24866847D01*
X66680060Y-24868756D01*
X66680068Y-24868761D01*
X67865297Y-25277135D01*
X67903660Y-25301113D01*
X68254821Y-25652274D01*
X68254820Y-25652274D01*
X68306179Y-25703632D01*
X68330580Y-25728033D01*
X68361508Y-25745889D01*
X68423361Y-25781600D01*
X68423365Y-25781602D01*
X68526853Y-25809332D01*
X68656637Y-25809332D01*
X68715768Y-25828545D01*
X68752313Y-25878845D01*
X68752313Y-25941019D01*
X68742168Y-25962892D01*
X68740542Y-25965517D01*
X68719622Y-26077430D01*
X68719622Y-27054328D01*
X68700409Y-27113459D01*
X68650109Y-27150004D01*
X68630044Y-27154322D01*
X68612086Y-27156301D01*
X68612077Y-27156302D01*
X68561021Y-27167505D01*
X68561013Y-27167507D01*
X68561009Y-27167508D01*
X68560999Y-27167510D01*
X68560991Y-27167513D01*
X68522746Y-27178517D01*
X68424306Y-27236090D01*
X68424305Y-27236091D01*
X68371507Y-27281840D01*
X68328660Y-27327283D01*
X68307598Y-27368704D01*
X68273825Y-27406745D01*
X68269935Y-27409344D01*
X68269929Y-27409349D01*
X66995528Y-28683749D01*
X66940130Y-28711975D01*
X66904769Y-28711281D01*
X66867819Y-28703932D01*
X66867817Y-28703932D01*
X64514822Y-28703932D01*
X64455691Y-28684719D01*
X64419146Y-28634419D01*
X64414222Y-28603332D01*
X64414222Y-28167813D01*
X64433435Y-28108682D01*
X64437059Y-28103990D01*
X64439900Y-28100527D01*
X64439906Y-28100522D01*
X64515013Y-27988117D01*
X64566748Y-27863218D01*
X64593122Y-27730626D01*
X64593122Y-27595437D01*
X64566748Y-27462846D01*
X64561299Y-27449691D01*
X64556962Y-27439219D01*
X64549520Y-27394136D01*
X64549722Y-27391056D01*
X64549722Y-27063806D01*
X64548183Y-27052117D01*
X64547322Y-27038986D01*
X64547322Y-26765877D01*
X64548183Y-26752745D01*
X64549722Y-26741055D01*
X64549722Y-26413806D01*
X64543714Y-26368170D01*
X64543713Y-26368167D01*
X64497005Y-26268000D01*
X64418854Y-26189849D01*
X64318687Y-26143141D01*
X64318683Y-26143139D01*
X64273047Y-26137132D01*
X64273046Y-26137132D01*
X63475798Y-26137132D01*
X63475797Y-26137132D01*
X63430160Y-26143139D01*
X63329989Y-26189849D01*
X63251839Y-26267999D01*
X63205129Y-26368170D01*
X63199122Y-26413806D01*
X63199122Y-26741057D01*
X63205130Y-26786694D01*
X63206096Y-26788766D01*
X63207247Y-26793959D01*
X63207284Y-26794085D01*
X63207275Y-26794087D01*
X63215522Y-26831283D01*
X63215522Y-26973581D01*
X63207275Y-27010778D01*
X63207284Y-27010781D01*
X63207246Y-27010908D01*
X63206097Y-27016095D01*
X63205130Y-27018166D01*
X63205129Y-27018170D01*
X63199122Y-27063806D01*
X63199122Y-27367511D01*
X63182168Y-27423401D01*
X63119733Y-27516842D01*
X63119729Y-27516851D01*
X63067996Y-27641743D01*
X63041622Y-27774337D01*
X63041622Y-29302632D01*
X63022409Y-29361763D01*
X62972109Y-29398308D01*
X62941022Y-29403232D01*
X60715727Y-29403232D01*
X60601275Y-29425998D01*
X60601274Y-29425998D01*
X60583134Y-29429606D01*
X60458241Y-29481339D01*
X60458237Y-29481340D01*
X60373547Y-29537928D01*
X60356345Y-29549423D01*
X60345828Y-29556450D01*
X59515218Y-30387059D01*
X59459820Y-30415285D01*
X59398411Y-30405559D01*
X59354448Y-30361595D01*
X59351140Y-30354420D01*
X59155479Y-29882026D01*
X59147822Y-29843530D01*
X59147822Y-29043932D01*
X59167035Y-28984801D01*
X59217335Y-28948256D01*
X59248422Y-28943332D01*
X60628992Y-28943332D01*
X60732480Y-28915602D01*
X60825265Y-28862033D01*
X61902246Y-27785049D01*
X61921240Y-27771162D01*
X61920863Y-27770574D01*
X61924768Y-27768070D01*
X61924779Y-27768065D01*
X62026164Y-27689002D01*
X62084608Y-27667790D01*
X62088028Y-27667732D01*
X62283047Y-27667732D01*
X62328683Y-27661724D01*
X62328684Y-27661723D01*
X62328687Y-27661723D01*
X62428854Y-27615015D01*
X62507005Y-27536864D01*
X62553713Y-27436697D01*
X62555037Y-27426646D01*
X62559722Y-27391057D01*
X62559722Y-27063806D01*
X62553714Y-27018170D01*
X62553713Y-27018167D01*
X62519569Y-26944945D01*
X62511993Y-26883236D01*
X62519570Y-26859917D01*
X62539354Y-26817490D01*
X62553713Y-26786697D01*
X62553713Y-26786694D01*
X62553714Y-26786693D01*
X62559722Y-26741057D01*
X62559722Y-26413806D01*
X62553714Y-26368170D01*
X62553713Y-26368167D01*
X62519569Y-26294945D01*
X62511993Y-26233236D01*
X62519570Y-26209917D01*
X62528928Y-26189849D01*
X62553713Y-26136697D01*
X62557415Y-26108583D01*
X62559722Y-26091057D01*
X62559722Y-25869245D01*
X62578935Y-25810114D01*
X62589187Y-25798110D01*
X64072500Y-24314797D01*
X64127898Y-24286571D01*
X64143635Y-24285332D01*
X65451345Y-24285332D01*
X65495427Y-24295504D01*
G37*
G04 #@! TD.AperFunction*
G04 #@! TA.AperFunction,Conductor*
G36*
X76880011Y-22577439D02*
G01*
X77071474Y-22579713D01*
X77080124Y-22580189D01*
X77461804Y-22617784D01*
X77471540Y-22619228D01*
X77847100Y-22693934D01*
X77856668Y-22696331D01*
X78223088Y-22807486D01*
X78232370Y-22810807D01*
X78586131Y-22957342D01*
X78595043Y-22961557D01*
X78932749Y-23142067D01*
X78941199Y-23147132D01*
X79153966Y-23289301D01*
X79259575Y-23359868D01*
X79267495Y-23365741D01*
X79563498Y-23608668D01*
X79570800Y-23615287D01*
X79841547Y-23886038D01*
X79848177Y-23893353D01*
X80091082Y-24189338D01*
X80096963Y-24197267D01*
X80309688Y-24515636D01*
X80314764Y-24524104D01*
X80495261Y-24861798D01*
X80499482Y-24870723D01*
X80646011Y-25224481D01*
X80649336Y-25233776D01*
X80760480Y-25600180D01*
X80762879Y-25609757D01*
X80837575Y-25985295D01*
X80839024Y-25995060D01*
X80876612Y-26376730D01*
X80877089Y-26385368D01*
X80879415Y-26576855D01*
X80879422Y-26578077D01*
X80879422Y-63576850D01*
X80879414Y-63578084D01*
X80877066Y-63769487D01*
X80876590Y-63778114D01*
X80838997Y-64159794D01*
X80837548Y-64169559D01*
X80762850Y-64545092D01*
X80760451Y-64554669D01*
X80649303Y-64921076D01*
X80645977Y-64930371D01*
X80499449Y-65284119D01*
X80495228Y-65293043D01*
X80314736Y-65630720D01*
X80309661Y-65639188D01*
X80096936Y-65957554D01*
X80091055Y-65965484D01*
X79848148Y-66261466D01*
X79841518Y-66268781D01*
X79570771Y-66539528D01*
X79563456Y-66546158D01*
X79267474Y-66789065D01*
X79259544Y-66794946D01*
X78941178Y-67007671D01*
X78932710Y-67012746D01*
X78595033Y-67193238D01*
X78586109Y-67197459D01*
X78232361Y-67343987D01*
X78223066Y-67347313D01*
X77856659Y-67458461D01*
X77847082Y-67460860D01*
X77471549Y-67535558D01*
X77461784Y-67537007D01*
X77080104Y-67574600D01*
X77071476Y-67575076D01*
X76880073Y-67577423D01*
X76878840Y-67577431D01*
X48980022Y-67577423D01*
X48920891Y-67558210D01*
X48884346Y-67507910D01*
X48879422Y-67476823D01*
X48879422Y-60877204D01*
X49478700Y-60877204D01*
X49498250Y-60975490D01*
X49505074Y-61009797D01*
X49556807Y-61134690D01*
X49556811Y-61134699D01*
X49631914Y-61247099D01*
X50482132Y-62097317D01*
X50594532Y-62172420D01*
X50594533Y-62172420D01*
X50594537Y-62172423D01*
X50685742Y-62210201D01*
X50719433Y-62224157D01*
X50719434Y-62224157D01*
X50719436Y-62224158D01*
X50852027Y-62250532D01*
X50852028Y-62250532D01*
X64378216Y-62250532D01*
X64378217Y-62250532D01*
X64510808Y-62224158D01*
X64635707Y-62172423D01*
X64748113Y-62097316D01*
X64843706Y-62001723D01*
X67899707Y-58945722D01*
X67974813Y-58833317D01*
X68026548Y-58708418D01*
X68044727Y-58617027D01*
X68052922Y-58575827D01*
X68052922Y-58562322D01*
X68072135Y-58503191D01*
X68082381Y-58491193D01*
X68602301Y-57971272D01*
X68620408Y-57956919D01*
X69512305Y-57403835D01*
X69565323Y-57388732D01*
X69733892Y-57388732D01*
X69733898Y-57388732D01*
X69823133Y-57378016D01*
X69843424Y-57370013D01*
X69864785Y-57364208D01*
X69868532Y-57363621D01*
X69868541Y-57363621D01*
X70169000Y-57287690D01*
X70223851Y-57289266D01*
X70601570Y-57408177D01*
X70623834Y-57413183D01*
X70638663Y-57417744D01*
X70664711Y-57428016D01*
X70664710Y-57428016D01*
X70710792Y-57433550D01*
X70767211Y-57459676D01*
X70797497Y-57513975D01*
X70790084Y-57575705D01*
X70747802Y-57621289D01*
X70710792Y-57633314D01*
X70664715Y-57638847D01*
X70664707Y-57638849D01*
X70522710Y-57694845D01*
X70522707Y-57694846D01*
X70401074Y-57787084D01*
X70308836Y-57908717D01*
X70308835Y-57908720D01*
X70252839Y-58050717D01*
X70252837Y-58050725D01*
X70242123Y-58139942D01*
X70242122Y-58139962D01*
X70242122Y-58926901D01*
X70242123Y-58926921D01*
X70252837Y-59016138D01*
X70252839Y-59016146D01*
X70308835Y-59158143D01*
X70308836Y-59158146D01*
X70308837Y-59158148D01*
X70308838Y-59158149D01*
X70401074Y-59279780D01*
X70522705Y-59372016D01*
X70522706Y-59372016D01*
X70522707Y-59372017D01*
X70522710Y-59372018D01*
X70523357Y-59372273D01*
X70664711Y-59428016D01*
X70753946Y-59438732D01*
X70877282Y-59438732D01*
X70932093Y-59454975D01*
X71266502Y-59672263D01*
X71810748Y-60025896D01*
X71827070Y-60039117D01*
X72323270Y-60535346D01*
X72329659Y-60541735D01*
X72357884Y-60597134D01*
X72359122Y-60612868D01*
X72359122Y-60773278D01*
X72360341Y-60786278D01*
X72362006Y-60804036D01*
X72407337Y-60933583D01*
X72463585Y-61009796D01*
X72488840Y-61044014D01*
X72599271Y-61125517D01*
X72728817Y-61170847D01*
X72728820Y-61170848D01*
X72759576Y-61173732D01*
X72759582Y-61173732D01*
X73169262Y-61173732D01*
X73169268Y-61173732D01*
X73200024Y-61170848D01*
X73329573Y-61125517D01*
X73440004Y-61044014D01*
X73521507Y-60933583D01*
X73566838Y-60804034D01*
X73569722Y-60773278D01*
X73569722Y-60558001D01*
X73577381Y-60519500D01*
X73624342Y-60406137D01*
X73650720Y-60273548D01*
X73650720Y-60268416D01*
X73650724Y-60138357D01*
X73624353Y-60005765D01*
X73577378Y-59892347D01*
X73569722Y-59853852D01*
X73569722Y-59638591D01*
X73569721Y-59638581D01*
X73568177Y-59622110D01*
X73581784Y-59561444D01*
X73628452Y-59520362D01*
X73683074Y-59515238D01*
X73683307Y-59513471D01*
X73689844Y-59514331D01*
X73689846Y-59514332D01*
X73689848Y-59514332D01*
X73785395Y-59514332D01*
X73794548Y-59513732D01*
X74119260Y-59513732D01*
X74119268Y-59513732D01*
X74150024Y-59510848D01*
X74150027Y-59510846D01*
X74151284Y-59510729D01*
X74211951Y-59524338D01*
X74253033Y-59571006D01*
X74260838Y-59620277D01*
X74259122Y-59638581D01*
X74259122Y-59638586D01*
X74259122Y-60773278D01*
X74260341Y-60786278D01*
X74262006Y-60804036D01*
X74307337Y-60933583D01*
X74363585Y-61009796D01*
X74388840Y-61044014D01*
X74499271Y-61125517D01*
X74628817Y-61170847D01*
X74628820Y-61170848D01*
X74659576Y-61173732D01*
X74659582Y-61173732D01*
X74958177Y-61173732D01*
X75017308Y-61192945D01*
X75053853Y-61243245D01*
X75053853Y-61305419D01*
X75029312Y-61345467D01*
X74891112Y-61483667D01*
X74835714Y-61511893D01*
X74819977Y-61513132D01*
X74659576Y-61513132D01*
X74639072Y-61515054D01*
X74628817Y-61516016D01*
X74499270Y-61561347D01*
X74388840Y-61642849D01*
X74388839Y-61642850D01*
X74307337Y-61753280D01*
X74262006Y-61882827D01*
X74262006Y-61882830D01*
X74259122Y-61913586D01*
X74259122Y-61913592D01*
X74259122Y-62128857D01*
X74251464Y-62167355D01*
X74204496Y-62280743D01*
X74178122Y-62413337D01*
X74178122Y-63293287D01*
X74158909Y-63352418D01*
X74148657Y-63364422D01*
X74142212Y-63370867D01*
X74086814Y-63399093D01*
X74071077Y-63400332D01*
X73757767Y-63400332D01*
X73698636Y-63381119D01*
X73686632Y-63370867D01*
X73680187Y-63364422D01*
X73651961Y-63309024D01*
X73650722Y-63293287D01*
X73650722Y-62413337D01*
X73624347Y-62280743D01*
X73577380Y-62167355D01*
X73569722Y-62128857D01*
X73569722Y-61913592D01*
X73569722Y-61913586D01*
X73566838Y-61882830D01*
X73521507Y-61753281D01*
X73440004Y-61642850D01*
X73395108Y-61609715D01*
X73329573Y-61561347D01*
X73200025Y-61516016D01*
X73200027Y-61516016D01*
X73189772Y-61515054D01*
X73169268Y-61513132D01*
X72759576Y-61513132D01*
X72739072Y-61515054D01*
X72728817Y-61516016D01*
X72599270Y-61561347D01*
X72509056Y-61627929D01*
X72450070Y-61647584D01*
X72417425Y-61642398D01*
X72048211Y-61518983D01*
X72009428Y-61491157D01*
X72007636Y-61492950D01*
X72002770Y-61488084D01*
X71881136Y-61395846D01*
X71881133Y-61395845D01*
X71739136Y-61339849D01*
X71739134Y-61339848D01*
X71739133Y-61339848D01*
X71739131Y-61339847D01*
X71739128Y-61339847D01*
X71649911Y-61329133D01*
X71649902Y-61329132D01*
X71649898Y-61329132D01*
X70887946Y-61329132D01*
X70887941Y-61329132D01*
X70887932Y-61329133D01*
X70798715Y-61339847D01*
X70798707Y-61339849D01*
X70656710Y-61395845D01*
X70656707Y-61395846D01*
X70535074Y-61488084D01*
X70442836Y-61609717D01*
X70442835Y-61609720D01*
X70386839Y-61751717D01*
X70386837Y-61751725D01*
X70376123Y-61840942D01*
X70376122Y-61840962D01*
X70376122Y-62877901D01*
X70376123Y-62877921D01*
X70386837Y-62967138D01*
X70386839Y-62967146D01*
X70442835Y-63109143D01*
X70442836Y-63109146D01*
X70442837Y-63109148D01*
X70442838Y-63109149D01*
X70535074Y-63230780D01*
X70656705Y-63323016D01*
X70656706Y-63323016D01*
X70656707Y-63323017D01*
X70656710Y-63323018D01*
X70798711Y-63379016D01*
X70887946Y-63389732D01*
X70887952Y-63389732D01*
X71649892Y-63389732D01*
X71649898Y-63389732D01*
X71739133Y-63379016D01*
X71881139Y-63323016D01*
X72002770Y-63230780D01*
X72002773Y-63230775D01*
X72007637Y-63225913D01*
X72009432Y-63227708D01*
X72048211Y-63199878D01*
X72145631Y-63167314D01*
X72207802Y-63166791D01*
X72258408Y-63202911D01*
X72278118Y-63261878D01*
X72278122Y-63262726D01*
X72278122Y-63686825D01*
X72304496Y-63819420D01*
X72356229Y-63944312D01*
X72356233Y-63944321D01*
X72431336Y-64056721D01*
X72431338Y-64056723D01*
X72994331Y-64619716D01*
X73106736Y-64694823D01*
X73106739Y-64694824D01*
X73106744Y-64694827D01*
X73143317Y-64709975D01*
X73143322Y-64709976D01*
X73231636Y-64746558D01*
X73364227Y-64772932D01*
X73364228Y-64772932D01*
X74464616Y-64772932D01*
X74464617Y-64772932D01*
X74597208Y-64746558D01*
X74722107Y-64694823D01*
X74834513Y-64619716D01*
X74930106Y-64524123D01*
X74930107Y-64524122D01*
X75397506Y-64056723D01*
X75472613Y-63944318D01*
X75496584Y-63886446D01*
X75524348Y-63819418D01*
X75550722Y-63686827D01*
X75550722Y-62806875D01*
X75569935Y-62747744D01*
X75580181Y-62735746D01*
X78047510Y-60268417D01*
X78047513Y-60268416D01*
X78143106Y-60172823D01*
X78218213Y-60060417D01*
X78269948Y-59935518D01*
X78296322Y-59802927D01*
X78296322Y-57317837D01*
X78269948Y-57185246D01*
X78218213Y-57060347D01*
X78179413Y-57002278D01*
X78164282Y-56979633D01*
X78143108Y-56947943D01*
X77258011Y-56062846D01*
X77145611Y-55987743D01*
X77145602Y-55987739D01*
X77020710Y-55936006D01*
X76932314Y-55918423D01*
X76888117Y-55909632D01*
X76888116Y-55909632D01*
X75624172Y-55909632D01*
X75565041Y-55890419D01*
X75528496Y-55840119D01*
X75524609Y-55794626D01*
X75554706Y-55586615D01*
X75602085Y-55259156D01*
X75608065Y-55236652D01*
X75609247Y-55233656D01*
X75613588Y-55197507D01*
X75634873Y-55146710D01*
X76078547Y-54591379D01*
X76079114Y-54590353D01*
X76080181Y-54588936D01*
X76080906Y-54587854D01*
X76080966Y-54587894D01*
X76095997Y-54567930D01*
X76606506Y-54057423D01*
X76681613Y-53945017D01*
X76733348Y-53820118D01*
X76759722Y-53687527D01*
X76759722Y-53552338D01*
X76759722Y-52733530D01*
X76762067Y-52714840D01*
X76761725Y-52714786D01*
X76805141Y-52441149D01*
X76863835Y-52071225D01*
X76866767Y-52060488D01*
X76866424Y-52060402D01*
X76868004Y-52054148D01*
X76868003Y-52054148D01*
X76868006Y-52054143D01*
X76871837Y-52022235D01*
X76891840Y-51973077D01*
X77363309Y-51357282D01*
X77363312Y-51357276D01*
X77365532Y-51353827D01*
X77366064Y-51354169D01*
X77379791Y-51335636D01*
X78105106Y-50610323D01*
X78180213Y-50497918D01*
X78205651Y-50436504D01*
X78231948Y-50373018D01*
X78258322Y-50240427D01*
X78258322Y-47837460D01*
X78277535Y-47778329D01*
X78327835Y-47741784D01*
X78390009Y-47741784D01*
X78440309Y-47778329D01*
X78442568Y-47781570D01*
X78528902Y-47910779D01*
X78641074Y-48022951D01*
X78772964Y-48111077D01*
X78772966Y-48111078D01*
X78772969Y-48111080D01*
X78810006Y-48126421D01*
X78919522Y-48171784D01*
X78919523Y-48171784D01*
X78919525Y-48171785D01*
X79075107Y-48202732D01*
X79075108Y-48202732D01*
X79833736Y-48202732D01*
X79833737Y-48202732D01*
X79989319Y-48171785D01*
X80135875Y-48111080D01*
X80267771Y-48022950D01*
X80379940Y-47910781D01*
X80468070Y-47778885D01*
X80528775Y-47632329D01*
X80559722Y-47476747D01*
X80559722Y-47318117D01*
X80528775Y-47162535D01*
X80468070Y-47015979D01*
X80463542Y-47009203D01*
X80379941Y-46884084D01*
X80267769Y-46771912D01*
X80135879Y-46683786D01*
X80135871Y-46683782D01*
X79989321Y-46623079D01*
X79851996Y-46595764D01*
X79833737Y-46592132D01*
X79075107Y-46592132D01*
X79056848Y-46595764D01*
X78919522Y-46623079D01*
X78772972Y-46683782D01*
X78772964Y-46683786D01*
X78641074Y-46771912D01*
X78641073Y-46771914D01*
X78528905Y-46884081D01*
X78442568Y-47013294D01*
X78393741Y-47051785D01*
X78331615Y-47054226D01*
X78279919Y-47019684D01*
X78258400Y-46961352D01*
X78258322Y-46957403D01*
X78258322Y-45527837D01*
X78239090Y-45431151D01*
X78231948Y-45395246D01*
X78231521Y-45394216D01*
X78203612Y-45326838D01*
X78180213Y-45270347D01*
X78166711Y-45250140D01*
X78105107Y-45157942D01*
X78006005Y-45058840D01*
X78005994Y-45058830D01*
X77485187Y-44538022D01*
X77456961Y-44482624D01*
X77455722Y-44466887D01*
X77455722Y-43987837D01*
X77429347Y-43855243D01*
X77382379Y-43741851D01*
X77374721Y-43703353D01*
X77374721Y-43659860D01*
X77374720Y-43659845D01*
X77374545Y-43658333D01*
X77371760Y-43634323D01*
X77365672Y-43620536D01*
X77325656Y-43529907D01*
X77244946Y-43449197D01*
X77140532Y-43403094D01*
X77115004Y-43400132D01*
X77115001Y-43400132D01*
X76999779Y-43400132D01*
X76974473Y-43396377D01*
X76974455Y-43396470D01*
X76972569Y-43396094D01*
X76970568Y-43395798D01*
X76969611Y-43395507D01*
X76969608Y-43395506D01*
X76969603Y-43395505D01*
X76969600Y-43395504D01*
X76857694Y-43373245D01*
X76837017Y-43369132D01*
X76701827Y-43369132D01*
X76699391Y-43369132D01*
X76640260Y-43349919D01*
X76603715Y-43299619D01*
X76599525Y-43280658D01*
X76585458Y-43164812D01*
X76585457Y-43164803D01*
X76524721Y-43004655D01*
X76430723Y-42868476D01*
X76412945Y-42808901D01*
X76433581Y-42750251D01*
X76484749Y-42714932D01*
X76513516Y-42710731D01*
X77020766Y-42710731D01*
X77033286Y-42711513D01*
X77036046Y-42711860D01*
X77043153Y-42712669D01*
X77062326Y-42711076D01*
X77070656Y-42710731D01*
X77114994Y-42710731D01*
X77115000Y-42710731D01*
X77115007Y-42710730D01*
X77115010Y-42710730D01*
X77125418Y-42709522D01*
X77140531Y-42707770D01*
X77140534Y-42707768D01*
X77147837Y-42705782D01*
X77147945Y-42706179D01*
X77152407Y-42704820D01*
X77152308Y-42704458D01*
X77466373Y-42618315D01*
X77492983Y-42614732D01*
X78036053Y-42614732D01*
X78036055Y-42614732D01*
X78178304Y-42576616D01*
X78305840Y-42502983D01*
X78409973Y-42398850D01*
X79901973Y-40906850D01*
X79975607Y-40779313D01*
X79983272Y-40750708D01*
X80013721Y-40637070D01*
X80013722Y-40637063D01*
X80013722Y-39857094D01*
X80022663Y-39815634D01*
X80025598Y-39809146D01*
X80185132Y-39456451D01*
X80220902Y-39414266D01*
X80267771Y-39382950D01*
X80379940Y-39270781D01*
X80468070Y-39138885D01*
X80528775Y-38992329D01*
X80559722Y-38836747D01*
X80559722Y-38678117D01*
X80528775Y-38522535D01*
X80520584Y-38502761D01*
X80468071Y-38375982D01*
X80468070Y-38375979D01*
X80450864Y-38350229D01*
X80379941Y-38244084D01*
X80267769Y-38131912D01*
X80135879Y-38043786D01*
X80135871Y-38043782D01*
X79989321Y-37983079D01*
X79885597Y-37962447D01*
X79833737Y-37952132D01*
X79075107Y-37952132D01*
X79050146Y-37957097D01*
X78919522Y-37983079D01*
X78772972Y-38043782D01*
X78772964Y-38043786D01*
X78641074Y-38131912D01*
X78641073Y-38131914D01*
X78528904Y-38244083D01*
X78528902Y-38244084D01*
X78440776Y-38375974D01*
X78440772Y-38375982D01*
X78380069Y-38522532D01*
X78349122Y-38678117D01*
X78349122Y-38836746D01*
X78380069Y-38992331D01*
X78440772Y-39138881D01*
X78440776Y-39138889D01*
X78528902Y-39270779D01*
X78641074Y-39382951D01*
X78687939Y-39414265D01*
X78723708Y-39456450D01*
X78803149Y-39632074D01*
X78886180Y-39815634D01*
X78886181Y-39815635D01*
X78895122Y-39857096D01*
X78895122Y-40290093D01*
X78875909Y-40349224D01*
X78865657Y-40361228D01*
X77760218Y-41466667D01*
X77704820Y-41494893D01*
X77689083Y-41496132D01*
X77492980Y-41496132D01*
X77466370Y-41492549D01*
X77156768Y-41407629D01*
X77151404Y-41406290D01*
X77147829Y-41405065D01*
X77147826Y-41405079D01*
X77140527Y-41403093D01*
X77136080Y-41402577D01*
X77128979Y-41401494D01*
X77120836Y-41399952D01*
X77120835Y-41399952D01*
X77116967Y-41400076D01*
X77116870Y-41400080D01*
X77113647Y-41400132D01*
X76023850Y-41400132D01*
X76023835Y-41400133D01*
X75998313Y-41403094D01*
X75998310Y-41403094D01*
X75893897Y-41449197D01*
X75813187Y-41529907D01*
X75767084Y-41634320D01*
X75767084Y-41634321D01*
X75764122Y-41659850D01*
X75764122Y-42451003D01*
X75764123Y-42451018D01*
X75767084Y-42476540D01*
X75767084Y-42476543D01*
X75778898Y-42503298D01*
X75785207Y-42565151D01*
X75753954Y-42618900D01*
X75697077Y-42644013D01*
X75686870Y-42644532D01*
X75590614Y-42644532D01*
X75590557Y-42644531D01*
X75551949Y-42644521D01*
X75492824Y-42625291D01*
X75456293Y-42574981D01*
X75456311Y-42512807D01*
X75459945Y-42503298D01*
X75471760Y-42476541D01*
X75474722Y-42451011D01*
X75474721Y-42417961D01*
X75482378Y-42379465D01*
X75533194Y-42256785D01*
X75559722Y-42123421D01*
X75559722Y-41987443D01*
X75533194Y-41854079D01*
X75533193Y-41854076D01*
X75482379Y-41731399D01*
X75474721Y-41692901D01*
X75474721Y-41659860D01*
X75474720Y-41659850D01*
X75471760Y-41634323D01*
X75458445Y-41604168D01*
X75425656Y-41529907D01*
X75344946Y-41449197D01*
X75240532Y-41403094D01*
X75215004Y-41400132D01*
X75215001Y-41400132D01*
X75111238Y-41400132D01*
X75075516Y-41393026D01*
X75075496Y-41393093D01*
X75074822Y-41392888D01*
X75072743Y-41392475D01*
X75070779Y-41391661D01*
X75070767Y-41391658D01*
X74941367Y-41365919D01*
X74937411Y-41365132D01*
X74937410Y-41365132D01*
X73260190Y-41365132D01*
X73260170Y-41365131D01*
X73255211Y-41365131D01*
X73198243Y-41365131D01*
X73174168Y-41362208D01*
X73060263Y-41334132D01*
X73060261Y-41334132D01*
X72888983Y-41334132D01*
X72888980Y-41334132D01*
X72775071Y-41362209D01*
X72750996Y-41365132D01*
X71507355Y-41365132D01*
X71487730Y-41363199D01*
X71467516Y-41359178D01*
X71430410Y-41351797D01*
X71376163Y-41321416D01*
X71350134Y-41264953D01*
X71362265Y-41203974D01*
X71378898Y-41181999D01*
X72055023Y-40505875D01*
X72108592Y-40413090D01*
X72122115Y-40362621D01*
X72125252Y-40350915D01*
X72125252Y-40350912D01*
X72136322Y-40309601D01*
X72136322Y-38276863D01*
X72133181Y-38265138D01*
X72108592Y-38173374D01*
X72080894Y-38125400D01*
X72746320Y-38125400D01*
X72766965Y-38295429D01*
X72789754Y-38355519D01*
X72827700Y-38455576D01*
X72827701Y-38455577D01*
X72924998Y-38596535D01*
X73053201Y-38710114D01*
X73204856Y-38789708D01*
X73204857Y-38789708D01*
X73204860Y-38789710D01*
X73371161Y-38830700D01*
X73371165Y-38830700D01*
X73542435Y-38830700D01*
X73542439Y-38830700D01*
X73708740Y-38789710D01*
X73772149Y-38756430D01*
X73833433Y-38745964D01*
X73889168Y-38773518D01*
X73918062Y-38828571D01*
X73919013Y-38835643D01*
X73919121Y-38836743D01*
X73950069Y-38992331D01*
X74010772Y-39138881D01*
X74010776Y-39138889D01*
X74098902Y-39270779D01*
X74211074Y-39382951D01*
X74342964Y-39471077D01*
X74342966Y-39471078D01*
X74342969Y-39471080D01*
X74405657Y-39497046D01*
X74489522Y-39531784D01*
X74489523Y-39531784D01*
X74489525Y-39531785D01*
X74645107Y-39562732D01*
X74645108Y-39562732D01*
X75342372Y-39562732D01*
X75401503Y-39581945D01*
X75438048Y-39632245D01*
X75438048Y-39694419D01*
X75413507Y-39734467D01*
X75313907Y-39834066D01*
X75238141Y-39965295D01*
X75238139Y-39965300D01*
X75198922Y-40111660D01*
X75198922Y-40263203D01*
X75238139Y-40409563D01*
X75238141Y-40409568D01*
X75313907Y-40540797D01*
X75421056Y-40647946D01*
X75421055Y-40647946D01*
X75543466Y-40718620D01*
X75552287Y-40723713D01*
X75552288Y-40723713D01*
X75552290Y-40723714D01*
X75698650Y-40762931D01*
X75698654Y-40762931D01*
X75698656Y-40762932D01*
X75698658Y-40762932D01*
X75850186Y-40762932D01*
X75850188Y-40762932D01*
X75850190Y-40762931D01*
X75850193Y-40762931D01*
X75996553Y-40723714D01*
X75996552Y-40723714D01*
X75996557Y-40723713D01*
X76127787Y-40647947D01*
X76234937Y-40540797D01*
X76310703Y-40409567D01*
X76331997Y-40330096D01*
X76349921Y-40263203D01*
X76349922Y-40263196D01*
X76349922Y-40111667D01*
X76349921Y-40111660D01*
X76310704Y-39965300D01*
X76310702Y-39965295D01*
X76263932Y-39884288D01*
X76234937Y-39834067D01*
X76127787Y-39726917D01*
X76127788Y-39726917D01*
X76093547Y-39707148D01*
X76079058Y-39698783D01*
X76037456Y-39652579D01*
X76030957Y-39590746D01*
X76062045Y-39536901D01*
X76090861Y-39518720D01*
X76094316Y-39517289D01*
X76205875Y-39471080D01*
X76337771Y-39382950D01*
X76449940Y-39270781D01*
X76538070Y-39138885D01*
X76598775Y-38992329D01*
X76629722Y-38836747D01*
X76629722Y-38678117D01*
X76598775Y-38522535D01*
X76590584Y-38502761D01*
X76538071Y-38375982D01*
X76538070Y-38375979D01*
X76520864Y-38350229D01*
X76449941Y-38244084D01*
X76337769Y-38131912D01*
X76205879Y-38043786D01*
X76205871Y-38043782D01*
X76087683Y-37994827D01*
X76040405Y-37954448D01*
X76025891Y-37893992D01*
X76049684Y-37836551D01*
X76055034Y-37830762D01*
X76116602Y-37769195D01*
X76171999Y-37740969D01*
X76187736Y-37739731D01*
X76643409Y-37739731D01*
X76643416Y-37739731D01*
X76730646Y-37729257D01*
X76869455Y-37674517D01*
X76988348Y-37584358D01*
X77078507Y-37465465D01*
X77133247Y-37326656D01*
X77143328Y-37242708D01*
X77143722Y-37239429D01*
X77143722Y-37239427D01*
X77143721Y-36679438D01*
X77133247Y-36592208D01*
X77078507Y-36453399D01*
X76988348Y-36334506D01*
X76869455Y-36244347D01*
X76806532Y-36219533D01*
X76730645Y-36189606D01*
X76643430Y-36179133D01*
X76643421Y-36179132D01*
X76643417Y-36179132D01*
X76643410Y-36179132D01*
X76058435Y-36179132D01*
X76058427Y-36179133D01*
X75971200Y-36189606D01*
X75832389Y-36244347D01*
X75713496Y-36334506D01*
X75623337Y-36453399D01*
X75568596Y-36592208D01*
X75558123Y-36679423D01*
X75558122Y-36679443D01*
X75558122Y-37135117D01*
X75538909Y-37194248D01*
X75528657Y-37206252D01*
X75381243Y-37353667D01*
X75325846Y-37381893D01*
X75310108Y-37383132D01*
X73738594Y-37383132D01*
X73635111Y-37410861D01*
X73631230Y-37413102D01*
X73570413Y-37426025D01*
X73556862Y-37423654D01*
X73542441Y-37420100D01*
X73542439Y-37420100D01*
X73371161Y-37420100D01*
X73371160Y-37420100D01*
X73204856Y-37461091D01*
X73053201Y-37540685D01*
X72924999Y-37654264D01*
X72924998Y-37654265D01*
X72911020Y-37674516D01*
X72827702Y-37795220D01*
X72827700Y-37795223D01*
X72790243Y-37893992D01*
X72766965Y-37955371D01*
X72746320Y-38125400D01*
X72080894Y-38125400D01*
X72055023Y-38080589D01*
X71903968Y-37929534D01*
X71882249Y-37897105D01*
X71648055Y-37335154D01*
X71646790Y-37332207D01*
X71645504Y-37329208D01*
X71640903Y-37322491D01*
X71629838Y-37301315D01*
X71616903Y-37267207D01*
X71610035Y-37257257D01*
X71520474Y-37127505D01*
X71520471Y-37127502D01*
X71520470Y-37127501D01*
X71393415Y-37014940D01*
X71243110Y-36936054D01*
X71105643Y-36902172D01*
X71078296Y-36895432D01*
X71078295Y-36895432D01*
X71072388Y-36893976D01*
X71072945Y-36891715D01*
X71025494Y-36869651D01*
X70995291Y-36815306D01*
X70993422Y-36796002D01*
X70993422Y-35852861D01*
X71012635Y-35793730D01*
X71062935Y-35757185D01*
X71072436Y-35755086D01*
X71072388Y-35754888D01*
X71078295Y-35753432D01*
X71078296Y-35753432D01*
X71243111Y-35712809D01*
X71249363Y-35709527D01*
X71268703Y-35702592D01*
X71268531Y-35702032D01*
X71272969Y-35700666D01*
X71272979Y-35700665D01*
X71321640Y-35680631D01*
X71383633Y-35675888D01*
X71424269Y-35696315D01*
X71509757Y-35767422D01*
X71519859Y-35773217D01*
X71536513Y-35785178D01*
X71595623Y-35837546D01*
X71747278Y-35917140D01*
X71747279Y-35917140D01*
X71747282Y-35917142D01*
X71913583Y-35958132D01*
X71913591Y-35958132D01*
X71918726Y-35958756D01*
X71975111Y-35984955D01*
X72005327Y-36039293D01*
X72004540Y-36071970D01*
X72006121Y-36072162D01*
X72005387Y-36078201D01*
X72005387Y-36078203D01*
X71984742Y-36248232D01*
X72005387Y-36418261D01*
X72038787Y-36506330D01*
X72066122Y-36578408D01*
X72066123Y-36578409D01*
X72163420Y-36719367D01*
X72291623Y-36832946D01*
X72443278Y-36912540D01*
X72443279Y-36912540D01*
X72443282Y-36912542D01*
X72609583Y-36953532D01*
X72609587Y-36953532D01*
X72780857Y-36953532D01*
X72780861Y-36953532D01*
X72947162Y-36912542D01*
X73098821Y-36832946D01*
X73227024Y-36719367D01*
X73324321Y-36578409D01*
X73339207Y-36539157D01*
X73348983Y-36519915D01*
X73355919Y-36509272D01*
X73537932Y-36069871D01*
X73578312Y-36022595D01*
X73638768Y-36008081D01*
X73684646Y-36023348D01*
X73850038Y-36127954D01*
X73857028Y-36132801D01*
X73880389Y-36150517D01*
X73952953Y-36179133D01*
X73961813Y-36182627D01*
X73964415Y-36183696D01*
X73974735Y-36188103D01*
X73978562Y-36189385D01*
X73978468Y-36189662D01*
X73983542Y-36191195D01*
X74019198Y-36205257D01*
X74106427Y-36215732D01*
X74791416Y-36215731D01*
X74878646Y-36205257D01*
X75017455Y-36150517D01*
X75136348Y-36060358D01*
X75226507Y-35941465D01*
X75281247Y-35802656D01*
X75291722Y-35715427D01*
X75291721Y-35155438D01*
X75281247Y-35068208D01*
X75226507Y-34929399D01*
X75136348Y-34810506D01*
X75098357Y-34781697D01*
X75061294Y-34753591D01*
X75025787Y-34702553D01*
X75027061Y-34640391D01*
X75061294Y-34593273D01*
X75082094Y-34577500D01*
X75136348Y-34536358D01*
X75226507Y-34417465D01*
X75281247Y-34278656D01*
X75291722Y-34191427D01*
X75291721Y-33631438D01*
X75281247Y-33544208D01*
X75226507Y-33405399D01*
X75184779Y-33350373D01*
X75164360Y-33291648D01*
X75165072Y-33277462D01*
X75183702Y-33124032D01*
X75180127Y-33094591D01*
X75192071Y-33033577D01*
X75237598Y-32991234D01*
X75299319Y-32983739D01*
X75340778Y-33002305D01*
X75432705Y-33072016D01*
X75432706Y-33072016D01*
X75432707Y-33072017D01*
X75432710Y-33072018D01*
X75574711Y-33128016D01*
X75663946Y-33138732D01*
X75663952Y-33138732D01*
X76450892Y-33138732D01*
X76450898Y-33138732D01*
X76540133Y-33128016D01*
X76682139Y-33072016D01*
X76803770Y-32979780D01*
X76896006Y-32858149D01*
X76952006Y-32716143D01*
X76962722Y-32626908D01*
X76962722Y-31639956D01*
X76952006Y-31550721D01*
X76943066Y-31528051D01*
X76938019Y-31505976D01*
X76937317Y-31506095D01*
X76936545Y-31501508D01*
X76927675Y-31468050D01*
X76817279Y-31051609D01*
X76747081Y-30786807D01*
X76743722Y-30761029D01*
X76743722Y-28850010D01*
X76762935Y-28790879D01*
X76791579Y-28764344D01*
X77224745Y-28497664D01*
X77277486Y-28482732D01*
X77372892Y-28482732D01*
X77372898Y-28482732D01*
X77462133Y-28472016D01*
X77604139Y-28416016D01*
X77725770Y-28323780D01*
X77818006Y-28202149D01*
X77874006Y-28060143D01*
X77884722Y-27970908D01*
X77884722Y-27233956D01*
X77874006Y-27144721D01*
X77818006Y-27002715D01*
X77725770Y-26881084D01*
X77604139Y-26788848D01*
X77604138Y-26788847D01*
X77604136Y-26788846D01*
X77604133Y-26788845D01*
X77462136Y-26732849D01*
X77462134Y-26732848D01*
X77462133Y-26732848D01*
X77462131Y-26732847D01*
X77462128Y-26732847D01*
X77372911Y-26722133D01*
X77372902Y-26722132D01*
X77372898Y-26722132D01*
X76385946Y-26722132D01*
X76385941Y-26722132D01*
X76385932Y-26722133D01*
X76296715Y-26732847D01*
X76296707Y-26732849D01*
X76198924Y-26771409D01*
X76136867Y-26775228D01*
X76084417Y-26741841D01*
X76061609Y-26684002D01*
X76077154Y-26623802D01*
X76090879Y-26606693D01*
X76149266Y-26548306D01*
X76204662Y-26520082D01*
X76209966Y-26519386D01*
X76999273Y-26437364D01*
X77009546Y-26436123D01*
X77010330Y-26436015D01*
X77010348Y-26436012D01*
X77021744Y-26434108D01*
X77038325Y-26432732D01*
X77372892Y-26432732D01*
X77372898Y-26432732D01*
X77462133Y-26422016D01*
X77604139Y-26366016D01*
X77725770Y-26273780D01*
X77818006Y-26152149D01*
X77874006Y-26010143D01*
X77884722Y-25920908D01*
X77884722Y-25183956D01*
X77874006Y-25094721D01*
X77818006Y-24952715D01*
X77725770Y-24831084D01*
X77604139Y-24738848D01*
X77604138Y-24738847D01*
X77604136Y-24738846D01*
X77604133Y-24738845D01*
X77462136Y-24682849D01*
X77462134Y-24682848D01*
X77462133Y-24682848D01*
X77462131Y-24682847D01*
X77462128Y-24682847D01*
X77372911Y-24672133D01*
X77372902Y-24672132D01*
X77372898Y-24672132D01*
X76385946Y-24672132D01*
X76385941Y-24672132D01*
X76385932Y-24672133D01*
X76296715Y-24682847D01*
X76296707Y-24682849D01*
X76154710Y-24738845D01*
X76154707Y-24738846D01*
X76033073Y-24831084D01*
X76033072Y-24831085D01*
X76008514Y-24863469D01*
X75966855Y-24895623D01*
X75849487Y-24944239D01*
X75849478Y-24944243D01*
X75737078Y-25019346D01*
X75737077Y-25019348D01*
X75641482Y-25114943D01*
X75328126Y-25428298D01*
X75319108Y-25436295D01*
X75311851Y-25441991D01*
X75310438Y-25443195D01*
X75287302Y-25465060D01*
X75285431Y-25467932D01*
X75272287Y-25484137D01*
X72007536Y-28748888D01*
X71932433Y-28861288D01*
X71932429Y-28861297D01*
X71880696Y-28986189D01*
X71854322Y-29118783D01*
X71854322Y-30108812D01*
X71835109Y-30167943D01*
X71784809Y-30204488D01*
X71729648Y-30206488D01*
X71640161Y-30184432D01*
X71468883Y-30184432D01*
X71468880Y-30184432D01*
X71403657Y-30200509D01*
X71379582Y-30203432D01*
X71023566Y-30203432D01*
X70964435Y-30184219D01*
X70952431Y-30173967D01*
X70335949Y-29557485D01*
X70307723Y-29502087D01*
X70317449Y-29440679D01*
X70360332Y-29397274D01*
X70408021Y-29372246D01*
X70536224Y-29258667D01*
X70633521Y-29117709D01*
X70694257Y-28957561D01*
X70714902Y-28787532D01*
X70694257Y-28617503D01*
X70633521Y-28457355D01*
X70536224Y-28316397D01*
X70424526Y-28217441D01*
X70408020Y-28202817D01*
X70373514Y-28184707D01*
X70337815Y-28165971D01*
X70321544Y-28154337D01*
X70321172Y-28154813D01*
X70317509Y-28151939D01*
X70105787Y-28015358D01*
X70066513Y-27967159D01*
X70059721Y-27930822D01*
X70059721Y-27487832D01*
X70078934Y-27428701D01*
X70129234Y-27392156D01*
X70160321Y-27387232D01*
X70729408Y-27387232D01*
X70758007Y-27385909D01*
X70867508Y-27354755D01*
X70867515Y-27354751D01*
X70958364Y-27286145D01*
X70958365Y-27286144D01*
X71018301Y-27189345D01*
X71018302Y-27189342D01*
X71039222Y-27077433D01*
X71039222Y-26377429D01*
X71038891Y-26363123D01*
X71012825Y-26252298D01*
X70948482Y-26158368D01*
X70890772Y-26100658D01*
X70862546Y-26045260D01*
X70872272Y-25983852D01*
X70916236Y-25939888D01*
X70921240Y-25937510D01*
X70929947Y-25933666D01*
X71010656Y-25852957D01*
X71056760Y-25748541D01*
X71059722Y-25723011D01*
X71059721Y-25184126D01*
X71060936Y-25171812D01*
X71060508Y-25171761D01*
X71060966Y-25167953D01*
X71060968Y-25167950D01*
X71061810Y-25160970D01*
X71059774Y-25098357D01*
X71059721Y-25095087D01*
X71059721Y-25081853D01*
X71059720Y-25081852D01*
X71059531Y-25080216D01*
X71058912Y-25071862D01*
X71058745Y-25066715D01*
X71052759Y-25034736D01*
X71060763Y-24973079D01*
X71080503Y-24945093D01*
X71456098Y-24569498D01*
X71511494Y-24541274D01*
X71563627Y-24546850D01*
X72361474Y-24856481D01*
X72362572Y-24856900D01*
X72365230Y-24857957D01*
X72365623Y-24858120D01*
X72564543Y-24918462D01*
X72564544Y-24918462D01*
X72564547Y-24918463D01*
X72771422Y-24938838D01*
X72978297Y-24918463D01*
X73177222Y-24858119D01*
X73177525Y-24857957D01*
X73360545Y-24760131D01*
X73360546Y-24760129D01*
X73360552Y-24760127D01*
X73521242Y-24628252D01*
X73653117Y-24467562D01*
X73658319Y-24457831D01*
X73751107Y-24284236D01*
X73751107Y-24284235D01*
X73751109Y-24284232D01*
X73811453Y-24085307D01*
X73831828Y-23878432D01*
X73811453Y-23671557D01*
X73751109Y-23472632D01*
X73751107Y-23472629D01*
X73751107Y-23472627D01*
X73653121Y-23289308D01*
X73653116Y-23289301D01*
X73616703Y-23244932D01*
X73521242Y-23128612D01*
X73360552Y-22996737D01*
X73360545Y-22996732D01*
X73177226Y-22898746D01*
X72978300Y-22838401D01*
X72771422Y-22818026D01*
X72564543Y-22838401D01*
X72365617Y-22898746D01*
X72182304Y-22996729D01*
X72182293Y-22996736D01*
X72067618Y-23090846D01*
X72058302Y-23097274D01*
X72058315Y-23097292D01*
X72054516Y-23099964D01*
X72054515Y-23099965D01*
X71886065Y-23218470D01*
X71545995Y-23457711D01*
X71514150Y-23472604D01*
X71414661Y-23499263D01*
X71321882Y-23552829D01*
X71321876Y-23552834D01*
X71321871Y-23552840D01*
X71112784Y-23761925D01*
X71103045Y-23770482D01*
X71099156Y-23773477D01*
X71097631Y-23774759D01*
X71072951Y-23797933D01*
X71071520Y-23800129D01*
X71058375Y-23816334D01*
X70303821Y-24570889D01*
X70303820Y-24570891D01*
X70250252Y-24663673D01*
X70250249Y-24663680D01*
X70226594Y-24751966D01*
X70192732Y-24804110D01*
X70134687Y-24826391D01*
X70074632Y-24810299D01*
X70035504Y-24761981D01*
X70032250Y-24751967D01*
X70026327Y-24729862D01*
X70008592Y-24663675D01*
X69987056Y-24626374D01*
X69955024Y-24570892D01*
X69955023Y-24570890D01*
X69879264Y-24495131D01*
X69822595Y-24462413D01*
X69801760Y-24446426D01*
X69649854Y-24294520D01*
X69628047Y-24261884D01*
X69554903Y-24085307D01*
X69390819Y-23689191D01*
X69388140Y-23682920D01*
X69383489Y-23676114D01*
X69372484Y-23655027D01*
X69359221Y-23620055D01*
X69359219Y-23620052D01*
X69312821Y-23552834D01*
X69261924Y-23479097D01*
X69133721Y-23365518D01*
X69133720Y-23365517D01*
X68982064Y-23285923D01*
X68982066Y-23285923D01*
X68815761Y-23244932D01*
X68644483Y-23244932D01*
X68644482Y-23244932D01*
X68478178Y-23285923D01*
X68326523Y-23365517D01*
X68198313Y-23479103D01*
X68195171Y-23482650D01*
X68141578Y-23514168D01*
X68079694Y-23508165D01*
X68033158Y-23466934D01*
X68031153Y-23463359D01*
X67938121Y-23289308D01*
X67938116Y-23289301D01*
X67901703Y-23244932D01*
X67806242Y-23128612D01*
X67645552Y-22996737D01*
X67645545Y-22996732D01*
X67462226Y-22898746D01*
X67263300Y-22838401D01*
X67056422Y-22818026D01*
X66849543Y-22838401D01*
X66650622Y-22898744D01*
X66650619Y-22898745D01*
X66639325Y-22904782D01*
X66626447Y-22909927D01*
X66626625Y-22910397D01*
X66622278Y-22912038D01*
X66622275Y-22912040D01*
X65939396Y-23244932D01*
X65495425Y-23461360D01*
X65451343Y-23471532D01*
X63879850Y-23471532D01*
X63776361Y-23499263D01*
X63683582Y-23552829D01*
X63683580Y-23552831D01*
X61866596Y-25369812D01*
X61847609Y-25383702D01*
X61847984Y-25384286D01*
X61844068Y-25386795D01*
X61742679Y-25465862D01*
X61684235Y-25487074D01*
X61680815Y-25487132D01*
X61564430Y-25487132D01*
X61543816Y-25484997D01*
X61541588Y-25484530D01*
X61541575Y-25484528D01*
X61534886Y-25484121D01*
X61534879Y-25484121D01*
X61503620Y-25486772D01*
X61495121Y-25487132D01*
X61485797Y-25487132D01*
X61463535Y-25490061D01*
X61458919Y-25490561D01*
X61445269Y-25491719D01*
X61445264Y-25491720D01*
X61333541Y-25517882D01*
X61310604Y-25520532D01*
X60430950Y-25520532D01*
X60327461Y-25548263D01*
X60234682Y-25601829D01*
X60234676Y-25601834D01*
X60234671Y-25601840D01*
X59136867Y-26699641D01*
X59081469Y-26727867D01*
X59020060Y-26718141D01*
X58976097Y-26674177D01*
X58965617Y-26618645D01*
X58972828Y-26545436D01*
X58972828Y-26545435D01*
X58971352Y-26530446D01*
X58952453Y-26338557D01*
X58951171Y-26334332D01*
X58907342Y-26189849D01*
X58892109Y-26139632D01*
X58892107Y-26139629D01*
X58892107Y-26139627D01*
X58794121Y-25956308D01*
X58794116Y-25956301D01*
X58790948Y-25952441D01*
X58662242Y-25795612D01*
X58501552Y-25663737D01*
X58501545Y-25663732D01*
X58318226Y-25565746D01*
X58119300Y-25505401D01*
X57912422Y-25485026D01*
X57705543Y-25505401D01*
X57506617Y-25565746D01*
X57323298Y-25663732D01*
X57323291Y-25663737D01*
X57162602Y-25795612D01*
X57033896Y-25952441D01*
X57030727Y-25956302D01*
X56978115Y-26054729D01*
X56957414Y-26093459D01*
X56950068Y-26105183D01*
X56947596Y-26108583D01*
X56780620Y-26389535D01*
X56733893Y-26430550D01*
X56671982Y-26436267D01*
X56618535Y-26404502D01*
X56600634Y-26366342D01*
X56598136Y-26367154D01*
X56595689Y-26359623D01*
X56537406Y-26245236D01*
X56537405Y-26245235D01*
X56537404Y-26245233D01*
X56446621Y-26154450D01*
X56446618Y-26154448D01*
X56446617Y-26154447D01*
X56446618Y-26154447D01*
X56332231Y-26096165D01*
X56332225Y-26096163D01*
X56237325Y-26081132D01*
X56233381Y-26080822D01*
X56233541Y-26078784D01*
X56181635Y-26061919D01*
X56157120Y-26036422D01*
X56101007Y-25952442D01*
X56005411Y-25856846D01*
X55893011Y-25781743D01*
X55893002Y-25781739D01*
X55892666Y-25781600D01*
X55883133Y-25777651D01*
X55768110Y-25730006D01*
X55679714Y-25712423D01*
X55635517Y-25703632D01*
X54613227Y-25703632D01*
X54580079Y-25710225D01*
X54480633Y-25730006D01*
X54355741Y-25781739D01*
X54355732Y-25781743D01*
X54243332Y-25856846D01*
X54243331Y-25856848D01*
X54147736Y-25952443D01*
X52992281Y-27107897D01*
X52910836Y-27189342D01*
X52835733Y-27301742D01*
X52835729Y-27301751D01*
X52783996Y-27426643D01*
X52757622Y-27559237D01*
X52757622Y-29307100D01*
X52738409Y-29366231D01*
X52688109Y-29402776D01*
X52657022Y-29407700D01*
X51963242Y-29407700D01*
X51907353Y-29389540D01*
X51907253Y-29389720D01*
X51906359Y-29389217D01*
X51904111Y-29388487D01*
X51902485Y-29387280D01*
X51901255Y-29386347D01*
X51865498Y-29372246D01*
X51762445Y-29331606D01*
X51675230Y-29321133D01*
X51675221Y-29321132D01*
X51675217Y-29321132D01*
X51675210Y-29321132D01*
X50990235Y-29321132D01*
X50990227Y-29321133D01*
X50903000Y-29331606D01*
X50764189Y-29386347D01*
X50645296Y-29476506D01*
X50555137Y-29595399D01*
X50500396Y-29734208D01*
X50489923Y-29821423D01*
X50489922Y-29821443D01*
X50489922Y-30381418D01*
X50489923Y-30381426D01*
X50500396Y-30468653D01*
X50500396Y-30468655D01*
X50500397Y-30468656D01*
X50555137Y-30607465D01*
X50596259Y-30661692D01*
X50616679Y-30720418D01*
X50616700Y-30722478D01*
X50616700Y-32261000D01*
X50619315Y-32285318D01*
X50623792Y-32326963D01*
X50634997Y-32378470D01*
X50646126Y-32417278D01*
X50703695Y-32515711D01*
X50703699Y-32515716D01*
X50749452Y-32568519D01*
X50749454Y-32568521D01*
X50794885Y-32611357D01*
X50794886Y-32611357D01*
X50794888Y-32611359D01*
X50896537Y-32663045D01*
X50963576Y-32682730D01*
X50963580Y-32682730D01*
X50963585Y-32682732D01*
X50967091Y-32683495D01*
X50966894Y-32684398D01*
X51009039Y-32702001D01*
X51128005Y-32792216D01*
X51128006Y-32792216D01*
X51128007Y-32792217D01*
X51128010Y-32792218D01*
X51270011Y-32848216D01*
X51359246Y-32858932D01*
X51359252Y-32858932D01*
X52121192Y-32858932D01*
X52121198Y-32858932D01*
X52210433Y-32848216D01*
X52352439Y-32792216D01*
X52453286Y-32715740D01*
X52512011Y-32695321D01*
X52514072Y-32695300D01*
X53552345Y-32695300D01*
X53611476Y-32714513D01*
X53623480Y-32724765D01*
X55114957Y-34216241D01*
X55143183Y-34271639D01*
X55144422Y-34287376D01*
X55144422Y-36098987D01*
X55125209Y-36158118D01*
X55114957Y-36170122D01*
X52273938Y-39011141D01*
X52273936Y-39011142D01*
X52198833Y-39123542D01*
X52198829Y-39123551D01*
X52147096Y-39248443D01*
X52120722Y-39381037D01*
X52120722Y-51747325D01*
X52101509Y-51806456D01*
X52051209Y-51843001D01*
X52003327Y-51846513D01*
X51975735Y-51841841D01*
X51943231Y-51830346D01*
X51941460Y-51829350D01*
X51941455Y-51829347D01*
X51845767Y-51791612D01*
X51802645Y-51774606D01*
X51715430Y-51764133D01*
X51715421Y-51764132D01*
X51715417Y-51764132D01*
X51715410Y-51764132D01*
X51155435Y-51764132D01*
X51155427Y-51764133D01*
X51068200Y-51774606D01*
X50929389Y-51829347D01*
X50810496Y-51919506D01*
X50720337Y-52038399D01*
X50665596Y-52177208D01*
X50655123Y-52264423D01*
X50655122Y-52264443D01*
X50655122Y-52949418D01*
X50655123Y-52949426D01*
X50665596Y-53036653D01*
X50665596Y-53036655D01*
X50665597Y-53036656D01*
X50720337Y-53175465D01*
X50810496Y-53294358D01*
X50929389Y-53384517D01*
X51068198Y-53439257D01*
X51155427Y-53449732D01*
X51715416Y-53449731D01*
X51741298Y-53446623D01*
X51752128Y-53445323D01*
X51813128Y-53457348D01*
X51855409Y-53502933D01*
X51864722Y-53545205D01*
X51864722Y-56761990D01*
X51863490Y-56774502D01*
X51863706Y-56774524D01*
X51863222Y-56779436D01*
X51863222Y-56986887D01*
X51844009Y-57046018D01*
X51833757Y-57058022D01*
X51670916Y-57220862D01*
X51651181Y-57235476D01*
X51651361Y-57235749D01*
X51647469Y-57238308D01*
X51092140Y-57681980D01*
X51041343Y-57703266D01*
X51005199Y-57707606D01*
X50866389Y-57762347D01*
X50747496Y-57852506D01*
X50657337Y-57971399D01*
X50602596Y-58110208D01*
X50598320Y-58145819D01*
X50576891Y-58196795D01*
X50121273Y-58764424D01*
X50121268Y-58764432D01*
X50120499Y-58765816D01*
X50119028Y-58767765D01*
X50118900Y-58767956D01*
X50118889Y-58767948D01*
X50103708Y-58788069D01*
X49727509Y-59164270D01*
X49631916Y-59259863D01*
X49631914Y-59259864D01*
X49556811Y-59372264D01*
X49556807Y-59372273D01*
X49505074Y-59497165D01*
X49478700Y-59629759D01*
X49478700Y-60877204D01*
X48879422Y-60877204D01*
X48879422Y-28439370D01*
X48898635Y-28380239D01*
X48948935Y-28343694D01*
X49011109Y-28343694D01*
X49025694Y-28349735D01*
X49078616Y-28376700D01*
X49173525Y-28391732D01*
X50512318Y-28391731D01*
X50607228Y-28376700D01*
X50721621Y-28318414D01*
X50812404Y-28227631D01*
X50870690Y-28113238D01*
X50885722Y-28018329D01*
X50885721Y-27754536D01*
X50870690Y-27659626D01*
X50843927Y-27607102D01*
X50834201Y-27545696D01*
X50843926Y-27515763D01*
X50870690Y-27463238D01*
X50885722Y-27368329D01*
X50885721Y-27104536D01*
X50870690Y-27009626D01*
X50843927Y-26957102D01*
X50834201Y-26895696D01*
X50843926Y-26865763D01*
X50870690Y-26813238D01*
X50885722Y-26718329D01*
X50885721Y-26454536D01*
X50870690Y-26359626D01*
X50857802Y-26334332D01*
X50812406Y-26245236D01*
X50812405Y-26245235D01*
X50812404Y-26245233D01*
X50721621Y-26154450D01*
X50721618Y-26154448D01*
X50721617Y-26154447D01*
X50721618Y-26154447D01*
X50607231Y-26096165D01*
X50607225Y-26096163D01*
X50512323Y-26081132D01*
X49173526Y-26081132D01*
X49088457Y-26094605D01*
X49027049Y-26084877D01*
X48983086Y-26040913D01*
X48972122Y-25995243D01*
X48972122Y-25425064D01*
X48972121Y-25425058D01*
X48951704Y-25348862D01*
X48944392Y-25321574D01*
X48892899Y-25232386D01*
X48879422Y-25182087D01*
X48879422Y-22678032D01*
X48898635Y-22618901D01*
X48948935Y-22582356D01*
X48980022Y-22577432D01*
X76878816Y-22577432D01*
X76880011Y-22577439D01*
G37*
G04 #@! TD.AperFunction*
G04 #@! TD*
M02*
