G04 #@! TF.GenerationSoftware,KiCad,Pcbnew,9.0.4*
G04 #@! TF.CreationDate,2025-11-06T01:47:32+02:00*
G04 #@! TF.ProjectId,iot-risk-logger-stm32l4,696f742d-7269-4736-9b2d-6c6f67676572,1.0.0*
G04 #@! TF.SameCoordinates,Original*
G04 #@! TF.FileFunction,Profile,NP*
%FSLAX46Y46*%
G04 Gerber Fmt 4.6, Leading zero omitted, Abs format (unit mm)*
G04 Created by KiCad (PCBNEW 9.0.4) date 2025-11-06 01:47:32*
%MOMM*%
%LPD*%
G01*
G04 APERTURE LIST*
G04 #@! TA.AperFunction,Profile*
%ADD10C,0.100000*%
G04 #@! TD*
G04 #@! TA.AperFunction,Profile*
%ADD11C,0.050000*%
G04 #@! TD*
G04 APERTURE END LIST*
D10*
X85000000Y-62025612D02*
G75*
G02*
X81022802Y-66000017I-4000000J25612D01*
G01*
X25000000Y-25000908D02*
G75*
G02*
X29000020Y-21000000I4000020J888D01*
G01*
X29000020Y-21000000D02*
X81000000Y-21000000D01*
X28999999Y-66000000D02*
X81022802Y-66000016D01*
X25000000Y-25000908D02*
X25003178Y-39308773D01*
X25620578Y-46922532D02*
G75*
G02*
X25003178Y-47528682I-617378J11332D01*
G01*
D11*
X77759525Y-23165521D02*
X79378216Y-23154451D01*
X77989399Y-26175931D02*
G75*
G02*
X77900000Y-25500000I2510601J675931D01*
G01*
D10*
X85000000Y-25000000D02*
X85000000Y-62025612D01*
D11*
X76900000Y-25500000D02*
G75*
G02*
X77759524Y-23165521I3600000J0D01*
G01*
X79552773Y-28973163D02*
G75*
G02*
X79824050Y-28010674I146927J478063D01*
G01*
D10*
X28999999Y-66000000D02*
G75*
G02*
X25000000Y-61999122I1J4000000D01*
G01*
D11*
X77900000Y-25500000D02*
G75*
G02*
X79378216Y-23154451I2600000J0D01*
G01*
D10*
X25000000Y-61999122D02*
X25003178Y-47528681D01*
D11*
X82934456Y-26412921D02*
G75*
G02*
X80500000Y-28100000I-2434456J912921D01*
G01*
X82934455Y-26412921D02*
X82927369Y-28158548D01*
X80500000Y-28100000D02*
G75*
G02*
X79824069Y-28010601I0J2600000D01*
G01*
X77013425Y-26396548D02*
G75*
G02*
X76899996Y-25500000I3486475J896548D01*
G01*
D10*
X25003178Y-39308773D02*
G75*
G02*
X25620576Y-39934135I22J-617427D01*
G01*
D11*
X77983912Y-26177319D02*
G75*
G02*
X77013498Y-26396536I-482412J-121981D01*
G01*
X82927370Y-28158548D02*
G75*
G02*
X80500000Y-29100000I-2427370J2658548D01*
G01*
D10*
X81000000Y-21000000D02*
G75*
G02*
X85000000Y-25000000I0J-4000000D01*
G01*
X25620578Y-39934135D02*
X25620578Y-46922532D01*
D11*
X80500000Y-29100000D02*
G75*
G02*
X79552776Y-28973153I0J3600100D01*
G01*
M02*
