M48
; DRILL file {KiCad 9.0.4} date 2025-11-06T01:48:05+0200
; FORMAT={-:-/ absolute / metric / decimal}
; #@! TF.CreationDate,2025-11-06T01:48:05+02:00
; #@! TF.GenerationSoftware,Kicad,Pcbnew,9.0.4
; #@! TF.FileFunction,Plated,1,2,PTH
FMAT,2
METRIC
; #@! TA.AperFunction,Plated,PTH,ViaDrill
T1C0.254
; #@! TA.AperFunction,Plated,PTH,ComponentDrill
T2C0.305
; #@! TA.AperFunction,Plated,PTH,ComponentDrill
T3C0.600
%
G90
G05
T1
X48.26Y-21.59
X48.26Y-25.4
X48.26Y-27.94
X48.26Y-30.48
X48.26Y-33.02
X48.26Y-35.56
X48.26Y-38.1
X48.26Y-40.64
X48.26Y-43.18
X48.26Y-45.72
X48.26Y-48.26
X48.26Y-50.8
X48.26Y-53.34
X48.26Y-55.88
X48.26Y-58.42
X48.26Y-60.96
X48.26Y-63.5
X49.581Y-26.213
X50.292Y-48.641
X52.934Y-40.919
X54.102Y-29.108
X54.133Y-35.09
X54.133Y-37.489
X54.886Y-26.961
X56.261Y-35.687
X56.261Y-36.576
X56.261Y-37.338
X56.261Y-37.973
X56.261Y-38.735
X56.261Y-39.497
X56.261Y-40.259
X56.515Y-50.038
X56.921Y-53.416
X57.714Y-50.535
X58.42Y-35.56
X59.218Y-48.907
X59.309Y-35.56
X60.3Y-32.08
X60.325Y-40.208
X60.401Y-41.478
X60.42Y-46.197
X60.427Y-42.272
X60.452Y-43.053
X61.69Y-31.07
X62.89Y-32.588
X63.856Y-34.036
X64.135Y-30.074
X64.135Y-55.25
X64.77Y-53.975
X64.77Y-56.515
X64.872Y-34.036
X65.532Y-45.085
X65.749Y-30.447
X65.771Y-38.523
X65.995Y-37.695
X66.0Y-53.34
X66.0Y-57.15
X66.04Y-42.164
X66.294Y-45.212
X66.534Y-37.021
X67.073Y-29.201
X67.31Y-53.975
X67.31Y-56.515
X67.468Y-37.362
X67.662Y-30.124
X67.945Y-55.25
X67.969Y-42.204
X68.036Y-36.805
X68.047Y-46.584
X68.199Y-27.758
X68.427Y-32.461
X68.529Y-29.007
X68.712Y-34.117
X68.961Y-25.502
X70.377Y-33.21
X70.611Y-35.354
X71.006Y-33.898
X71.054Y-32.752
X71.145Y-27.33
X71.205Y-40.57
X71.381Y-47.571
X72.695Y-36.932
X72.839Y-42.37
X73.255Y-37.872
X73.541Y-28.15
X73.606Y-31.19
X73.986Y-36.443
X74.244Y-49.581
X74.27Y-59.131
X74.295Y-33.985
X74.886Y-46.89
X76.598Y-60.028
X77.216Y-42.748
X77.241Y-43.739
X77.292Y-40.284
X77.343Y-55.245
X77.343Y-56.769
X77.368Y-47.244
X77.429Y-32.628
X77.91Y-27.604
X78.105Y-55.245
X78.105Y-56.769
X78.486Y-51.892
X78.613Y-49.911
X78.715Y-32.563
X79.223Y-30.632
X79.273Y-26.035
X79.553Y-36.373
X79.629Y-45.339
X79.654Y-41.529
X80.01Y-35.179
X81.903Y-26.919
X82.016Y-35.892
X82.378Y-32.627
X82.575Y-40.208
X82.601Y-46.736
X82.601Y-56.032
T2
X43.25Y-26.956
X47.0Y-24.206
T3
G00X79.445Y-39.18
M15
G01X78.345Y-39.18
M16
G05
G00X79.445Y-47.82
M15
G01X78.345Y-47.82
M16
G05
G00X83.375Y-39.18
M15
G01X82.775Y-39.18
M16
G05
G00X83.375Y-47.82
M15
G01X82.775Y-47.82
M16
G05
M30
