G04 #@! TF.GenerationSoftware,KiCad,Pcbnew,8.0.0*
G04 #@! TF.CreationDate,2024-03-21T15:59:00+02:00*
G04 #@! TF.ProjectId,iot-risk-logger-stm32l4,696f742d-7269-4736-9b2d-6c6f67676572,1.0.0*
G04 #@! TF.SameCoordinates,Original*
G04 #@! TF.FileFunction,Paste,Top*
G04 #@! TF.FilePolarity,Positive*
%FSLAX46Y46*%
G04 Gerber Fmt 4.6, Leading zero omitted, Abs format (unit mm)*
G04 Created by KiCad (PCBNEW 8.0.0) date 2024-03-21 15:59:00*
%MOMM*%
%LPD*%
G01*
G04 APERTURE LIST*
G04 Aperture macros list*
%AMRoundRect*
0 Rectangle with rounded corners*
0 $1 Rounding radius*
0 $2 $3 $4 $5 $6 $7 $8 $9 X,Y pos of 4 corners*
0 Add a 4 corners polygon primitive as box body*
4,1,4,$2,$3,$4,$5,$6,$7,$8,$9,$2,$3,0*
0 Add four circle primitives for the rounded corners*
1,1,$1+$1,$2,$3*
1,1,$1+$1,$4,$5*
1,1,$1+$1,$6,$7*
1,1,$1+$1,$8,$9*
0 Add four rect primitives between the rounded corners*
20,1,$1+$1,$2,$3,$4,$5,0*
20,1,$1+$1,$4,$5,$6,$7,0*
20,1,$1+$1,$6,$7,$8,$9,0*
20,1,$1+$1,$8,$9,$2,$3,0*%
%AMFreePoly0*
4,1,6,0.450000,-0.800000,-0.450000,-0.800000,-0.450000,0.530000,-0.180000,0.800000,0.450000,0.800000,0.450000,-0.800000,0.450000,-0.800000,$1*%
G04 Aperture macros list end*
%ADD10C,0.010000*%
%ADD11RoundRect,0.150000X-0.150000X0.587500X-0.150000X-0.587500X0.150000X-0.587500X0.150000X0.587500X0*%
%ADD12RoundRect,0.237500X0.250000X0.237500X-0.250000X0.237500X-0.250000X-0.237500X0.250000X-0.237500X0*%
%ADD13RoundRect,0.225000X-0.250000X0.225000X-0.250000X-0.225000X0.250000X-0.225000X0.250000X0.225000X0*%
%ADD14RoundRect,0.237500X0.300000X0.237500X-0.300000X0.237500X-0.300000X-0.237500X0.300000X-0.237500X0*%
%ADD15RoundRect,0.237500X0.237500X-0.250000X0.237500X0.250000X-0.237500X0.250000X-0.237500X-0.250000X0*%
%ADD16RoundRect,0.237500X-0.300000X-0.237500X0.300000X-0.237500X0.300000X0.237500X-0.300000X0.237500X0*%
%ADD17RoundRect,0.250000X-0.450000X0.325000X-0.450000X-0.325000X0.450000X-0.325000X0.450000X0.325000X0*%
%ADD18RoundRect,0.237500X-0.250000X-0.237500X0.250000X-0.237500X0.250000X0.237500X-0.250000X0.237500X0*%
%ADD19FreePoly0,270.000000*%
%ADD20R,0.250000X0.550000*%
%ADD21RoundRect,0.150000X0.150000X-0.512500X0.150000X0.512500X-0.150000X0.512500X-0.150000X-0.512500X0*%
%ADD22RoundRect,0.250000X0.450000X-0.350000X0.450000X0.350000X-0.450000X0.350000X-0.450000X-0.350000X0*%
%ADD23RoundRect,0.237500X0.237500X-0.300000X0.237500X0.300000X-0.237500X0.300000X-0.237500X-0.300000X0*%
%ADD24R,1.000000X0.700000*%
%ADD25R,0.600000X0.700000*%
%ADD26RoundRect,0.250000X0.250000X-0.250000X0.250000X0.250000X-0.250000X0.250000X-0.250000X-0.250000X0*%
%ADD27RoundRect,0.250000X-0.350000X-0.450000X0.350000X-0.450000X0.350000X0.450000X-0.350000X0.450000X0*%
%ADD28RoundRect,0.237500X-0.237500X0.300000X-0.237500X-0.300000X0.237500X-0.300000X0.237500X0.300000X0*%
%ADD29C,0.762000*%
%ADD30RoundRect,0.008100X0.361900X0.126900X-0.361900X0.126900X-0.361900X-0.126900X0.361900X-0.126900X0*%
%ADD31R,0.375000X0.350000*%
%ADD32R,0.350000X0.375000*%
%ADD33RoundRect,0.225000X0.250000X-0.225000X0.250000X0.225000X-0.250000X0.225000X-0.250000X-0.225000X0*%
%ADD34RoundRect,0.125000X-0.625000X-0.125000X0.625000X-0.125000X0.625000X0.125000X-0.625000X0.125000X0*%
%ADD35RoundRect,0.125000X-0.125000X-0.625000X0.125000X-0.625000X0.125000X0.625000X-0.125000X0.625000X0*%
%ADD36RoundRect,0.250000X0.337500X0.475000X-0.337500X0.475000X-0.337500X-0.475000X0.337500X-0.475000X0*%
%ADD37R,1.800000X1.000000*%
%ADD38RoundRect,0.100000X-0.637500X-0.100000X0.637500X-0.100000X0.637500X0.100000X-0.637500X0.100000X0*%
%ADD39RoundRect,0.150000X0.150000X-0.650000X0.150000X0.650000X-0.150000X0.650000X-0.150000X-0.650000X0*%
%ADD40RoundRect,0.250000X-0.475000X0.337500X-0.475000X-0.337500X0.475000X-0.337500X0.475000X0.337500X0*%
%ADD41RoundRect,0.250000X0.475000X-0.337500X0.475000X0.337500X-0.475000X0.337500X-0.475000X-0.337500X0*%
G04 APERTURE END LIST*
D10*
G04 #@! TO.C,U2*
X63089422Y-27007432D02*
X62669422Y-27007432D01*
X62669422Y-26147432D01*
X63089422Y-26147432D01*
X63089422Y-27007432D01*
G36*
X63089422Y-27007432D02*
G01*
X62669422Y-27007432D01*
X62669422Y-26147432D01*
X63089422Y-26147432D01*
X63089422Y-27007432D01*
G37*
G04 #@! TD*
D11*
G04 #@! TO.C,Q1*
X74864422Y-56595932D03*
X72964422Y-56595932D03*
X73914422Y-58470932D03*
G04 #@! TD*
D12*
G04 #@! TO.C,R7*
X74191922Y-49151432D03*
X72366922Y-49151432D03*
G04 #@! TD*
D13*
G04 #@! TO.C,C16*
X54347022Y-43017032D03*
X54347022Y-44567032D03*
G04 #@! TD*
D14*
G04 #@! TO.C,C4*
X67029922Y-31498432D03*
X65304922Y-31498432D03*
G04 #@! TD*
G04 #@! TO.C,C11*
X56107922Y-46052632D03*
X54382922Y-46052632D03*
G04 #@! TD*
D15*
G04 #@! TO.C,R9*
X71501422Y-54762932D03*
X71501422Y-52937932D03*
G04 #@! TD*
D16*
G04 #@! TO.C,C15*
X74448922Y-35435432D03*
X76173922Y-35435432D03*
G04 #@! TD*
D17*
G04 #@! TO.C,D2*
X76879422Y-25552432D03*
X76879422Y-27602432D03*
G04 #@! TD*
D18*
G04 #@! TO.C,R1*
X74525922Y-36959432D03*
X76350922Y-36959432D03*
G04 #@! TD*
D19*
G04 #@! TO.C,U3*
X69879422Y-26577432D03*
D20*
X70629422Y-25402432D03*
X70129422Y-25402432D03*
X69629422Y-25402432D03*
X69129422Y-25402432D03*
X69129422Y-27752432D03*
X69629422Y-27752432D03*
X70129422Y-27752432D03*
X70629422Y-27752432D03*
G04 #@! TD*
D21*
G04 #@! TO.C,U5*
X72964422Y-62480932D03*
X73914422Y-62480932D03*
X74864422Y-62480932D03*
X74864422Y-60205932D03*
X72964422Y-60205932D03*
G04 #@! TD*
D22*
G04 #@! TO.C,FB1*
X71247422Y-58533432D03*
X71247422Y-56533432D03*
G04 #@! TD*
D23*
G04 #@! TO.C,C6*
X60087422Y-36424932D03*
X60087422Y-34699932D03*
G04 #@! TD*
D24*
G04 #@! TO.C,D3*
X76569422Y-42055432D03*
D25*
X74869422Y-42055432D03*
X74869422Y-44055432D03*
X76769422Y-44055432D03*
G04 #@! TD*
D15*
G04 #@! TO.C,R2*
X72390422Y-47650932D03*
X72390422Y-45825932D03*
G04 #@! TD*
D26*
G04 #@! TO.C,D1*
X76073422Y-51671432D03*
X76073422Y-49171432D03*
G04 #@! TD*
D15*
G04 #@! TO.C,R6*
X51372422Y-60314932D03*
X51372422Y-58489932D03*
G04 #@! TD*
D27*
G04 #@! TO.C,R3*
X74057422Y-32133432D03*
X76057422Y-32133432D03*
G04 #@! TD*
D28*
G04 #@! TO.C,C14*
X67631222Y-48034932D03*
X67631222Y-49759932D03*
G04 #@! TD*
D29*
G04 #@! TO.C,AE1*
X46879422Y-24783432D03*
G04 #@! TD*
D28*
G04 #@! TO.C,C9*
X51435422Y-52606932D03*
X51435422Y-54331932D03*
G04 #@! TD*
D30*
G04 #@! TO.C,U2*
X63874422Y-27227432D03*
X63874422Y-26577432D03*
X63874422Y-25927432D03*
X61884422Y-25927432D03*
X61884422Y-26577432D03*
X61884422Y-27227432D03*
G04 #@! TD*
D31*
G04 #@! TO.C,U4*
X63119922Y-36699832D03*
X63119922Y-36199832D03*
X63119922Y-35699832D03*
X63119922Y-35199832D03*
D32*
X62607422Y-35187332D03*
X62107422Y-35187332D03*
D31*
X61594922Y-35199832D03*
X61594922Y-35699832D03*
X61594922Y-36199832D03*
X61594922Y-36699832D03*
D32*
X62107422Y-36712332D03*
X62607422Y-36712332D03*
G04 #@! TD*
D33*
G04 #@! TO.C,C17*
X54331022Y-41601632D03*
X54331022Y-40051632D03*
G04 #@! TD*
D34*
G04 #@! TO.C,U7*
X58960422Y-41144432D03*
X58960422Y-41944432D03*
X58960422Y-42744432D03*
X58960422Y-43544432D03*
X58960422Y-44344432D03*
X58960422Y-45144432D03*
X58960422Y-45944432D03*
X58960422Y-46744432D03*
D35*
X60335422Y-48119432D03*
X61135422Y-48119432D03*
X61935422Y-48119432D03*
X62735422Y-48119432D03*
X63535422Y-48119432D03*
X64335422Y-48119432D03*
X65135422Y-48119432D03*
X65935422Y-48119432D03*
D34*
X67310422Y-46744432D03*
X67310422Y-45944432D03*
X67310422Y-45144432D03*
X67310422Y-44344432D03*
X67310422Y-43544432D03*
X67310422Y-42744432D03*
X67310422Y-41944432D03*
X67310422Y-41144432D03*
D35*
X65935422Y-39769432D03*
X65135422Y-39769432D03*
X64335422Y-39769432D03*
X63535422Y-39769432D03*
X62735422Y-39769432D03*
X61935422Y-39769432D03*
X61135422Y-39769432D03*
X60335422Y-39769432D03*
G04 #@! TD*
D36*
G04 #@! TO.C,C1*
X51740222Y-31828632D03*
X49665222Y-31828632D03*
G04 #@! TD*
D18*
G04 #@! TO.C,R5*
X53443922Y-31574632D03*
X55268922Y-31574632D03*
G04 #@! TD*
D37*
G04 #@! TO.C,Y1*
X56277422Y-41043432D03*
X56277422Y-43543432D03*
G04 #@! TD*
D38*
G04 #@! TO.C,U1*
X49842922Y-26586432D03*
X49842922Y-27236432D03*
X49842922Y-27886432D03*
X49842922Y-28536432D03*
X55567922Y-28536432D03*
X55567922Y-27886432D03*
X55567922Y-27236432D03*
X55567922Y-26586432D03*
G04 #@! TD*
D39*
G04 #@! TO.C,U6*
X53150422Y-60081432D03*
X54420422Y-60081432D03*
X55690422Y-60081432D03*
X56960422Y-60081432D03*
X56960422Y-52881432D03*
X55690422Y-52881432D03*
X54420422Y-52881432D03*
X53150422Y-52881432D03*
G04 #@! TD*
D12*
G04 #@! TO.C,R8*
X74826922Y-54866432D03*
X73001922Y-54866432D03*
G04 #@! TD*
D16*
G04 #@! TO.C,C13*
X57319922Y-39448632D03*
X59044922Y-39448632D03*
G04 #@! TD*
D14*
G04 #@! TO.C,C2*
X51332722Y-30101432D03*
X49607722Y-30101432D03*
G04 #@! TD*
D40*
G04 #@! TO.C,C7*
X69215422Y-56495932D03*
X69215422Y-58570932D03*
G04 #@! TD*
D14*
G04 #@! TO.C,C3*
X63727922Y-31498432D03*
X62002922Y-31498432D03*
G04 #@! TD*
G04 #@! TO.C,C10*
X74141922Y-50675432D03*
X72416922Y-50675432D03*
G04 #@! TD*
D16*
G04 #@! TO.C,C18*
X74448922Y-33911432D03*
X76173922Y-33911432D03*
G04 #@! TD*
D18*
G04 #@! TO.C,R10*
X58920922Y-37975432D03*
X60745922Y-37975432D03*
G04 #@! TD*
G04 #@! TO.C,R4*
X53443922Y-30101432D03*
X55268922Y-30101432D03*
G04 #@! TD*
D41*
G04 #@! TO.C,C5*
X58309422Y-36345932D03*
X58309422Y-34270932D03*
G04 #@! TD*
D36*
G04 #@! TO.C,C8*
X71268922Y-62359432D03*
X69193922Y-62359432D03*
G04 #@! TD*
M02*
