G04 #@! TF.GenerationSoftware,KiCad,Pcbnew,9.0.4*
G04 #@! TF.CreationDate,2025-11-06T01:47:32+02:00*
G04 #@! TF.ProjectId,iot-risk-logger-stm32l4,696f742d-7269-4736-9b2d-6c6f67676572,1.0.0*
G04 #@! TF.SameCoordinates,Original*
G04 #@! TF.FileFunction,Soldermask,Top*
G04 #@! TF.FilePolarity,Negative*
%FSLAX46Y46*%
G04 Gerber Fmt 4.6, Leading zero omitted, Abs format (unit mm)*
G04 Created by KiCad (PCBNEW 9.0.4) date 2025-11-06 01:47:32*
%MOMM*%
%LPD*%
G01*
G04 APERTURE LIST*
G04 APERTURE END LIST*
G36*
X75767116Y-60387818D02*
G01*
X75818379Y-60393766D01*
X75835892Y-60401499D01*
X75858671Y-60406030D01*
X75883057Y-60422324D01*
X75903788Y-60431478D01*
X75917946Y-60445636D01*
X75939777Y-60460223D01*
X75954363Y-60482053D01*
X75968521Y-60496211D01*
X75977673Y-60516939D01*
X75993970Y-60541329D01*
X75998501Y-60564109D01*
X76006233Y-60581620D01*
X76012178Y-60632872D01*
X76013000Y-60637000D01*
X76013000Y-61537000D01*
X76012178Y-61541128D01*
X76006233Y-61592379D01*
X75998501Y-61609888D01*
X75993970Y-61632671D01*
X75977672Y-61657062D01*
X75968521Y-61677788D01*
X75954365Y-61691943D01*
X75939777Y-61713777D01*
X75917943Y-61728365D01*
X75903788Y-61742521D01*
X75883062Y-61751672D01*
X75858671Y-61767970D01*
X75835888Y-61772501D01*
X75818379Y-61780233D01*
X75767129Y-61786178D01*
X75763000Y-61787000D01*
X75113000Y-61787000D01*
X75108873Y-61786179D01*
X75057620Y-61780233D01*
X75040109Y-61772501D01*
X75017329Y-61767970D01*
X74992939Y-61751673D01*
X74972211Y-61742521D01*
X74958053Y-61728363D01*
X74936223Y-61713777D01*
X74921636Y-61691946D01*
X74907478Y-61677788D01*
X74898324Y-61657057D01*
X74882030Y-61632671D01*
X74877499Y-61609892D01*
X74869766Y-61592379D01*
X74863818Y-61541117D01*
X74863000Y-61537000D01*
X74863000Y-60637000D01*
X74863818Y-60632885D01*
X74869766Y-60581620D01*
X74877499Y-60564105D01*
X74882030Y-60541329D01*
X74898323Y-60516944D01*
X74907478Y-60496211D01*
X74921638Y-60482050D01*
X74936223Y-60460223D01*
X74958050Y-60445638D01*
X74972211Y-60431478D01*
X74992944Y-60422323D01*
X75017329Y-60406030D01*
X75040105Y-60401499D01*
X75057620Y-60393766D01*
X75108884Y-60387818D01*
X75113000Y-60387000D01*
X75763000Y-60387000D01*
X75767116Y-60387818D01*
G37*
G36*
X77817116Y-60387818D02*
G01*
X77868379Y-60393766D01*
X77885892Y-60401499D01*
X77908671Y-60406030D01*
X77933057Y-60422324D01*
X77953788Y-60431478D01*
X77967946Y-60445636D01*
X77989777Y-60460223D01*
X78004363Y-60482053D01*
X78018521Y-60496211D01*
X78027673Y-60516939D01*
X78043970Y-60541329D01*
X78048501Y-60564109D01*
X78056233Y-60581620D01*
X78062178Y-60632872D01*
X78063000Y-60637000D01*
X78063000Y-61537000D01*
X78062178Y-61541128D01*
X78056233Y-61592379D01*
X78048501Y-61609888D01*
X78043970Y-61632671D01*
X78027672Y-61657062D01*
X78018521Y-61677788D01*
X78004365Y-61691943D01*
X77989777Y-61713777D01*
X77967943Y-61728365D01*
X77953788Y-61742521D01*
X77933062Y-61751672D01*
X77908671Y-61767970D01*
X77885888Y-61772501D01*
X77868379Y-61780233D01*
X77817129Y-61786178D01*
X77813000Y-61787000D01*
X77163000Y-61787000D01*
X77158873Y-61786179D01*
X77107620Y-61780233D01*
X77090109Y-61772501D01*
X77067329Y-61767970D01*
X77042939Y-61751673D01*
X77022211Y-61742521D01*
X77008053Y-61728363D01*
X76986223Y-61713777D01*
X76971636Y-61691946D01*
X76957478Y-61677788D01*
X76948324Y-61657057D01*
X76932030Y-61632671D01*
X76927499Y-61609892D01*
X76919766Y-61592379D01*
X76913818Y-61541117D01*
X76913000Y-61537000D01*
X76913000Y-60637000D01*
X76913818Y-60632885D01*
X76919766Y-60581620D01*
X76927499Y-60564105D01*
X76932030Y-60541329D01*
X76948323Y-60516944D01*
X76957478Y-60496211D01*
X76971638Y-60482050D01*
X76986223Y-60460223D01*
X77008050Y-60445638D01*
X77022211Y-60431478D01*
X77042944Y-60422323D01*
X77067329Y-60406030D01*
X77090105Y-60401499D01*
X77107620Y-60393766D01*
X77158884Y-60387818D01*
X77163000Y-60387000D01*
X77813000Y-60387000D01*
X77817116Y-60387818D01*
G37*
G36*
X75758116Y-58330818D02*
G01*
X75809379Y-58336766D01*
X75826892Y-58344499D01*
X75849671Y-58349030D01*
X75874057Y-58365324D01*
X75894788Y-58374478D01*
X75908946Y-58388636D01*
X75930777Y-58403223D01*
X75945363Y-58425053D01*
X75959521Y-58439211D01*
X75968673Y-58459939D01*
X75984970Y-58484329D01*
X75989501Y-58507109D01*
X75997233Y-58524620D01*
X76003178Y-58575872D01*
X76004000Y-58580000D01*
X76004000Y-59530000D01*
X76003178Y-59534128D01*
X75997233Y-59585379D01*
X75989501Y-59602888D01*
X75984970Y-59625671D01*
X75968672Y-59650062D01*
X75959521Y-59670788D01*
X75945365Y-59684943D01*
X75930777Y-59706777D01*
X75908943Y-59721365D01*
X75894788Y-59735521D01*
X75874062Y-59744672D01*
X75849671Y-59760970D01*
X75826888Y-59765501D01*
X75809379Y-59773233D01*
X75758129Y-59779178D01*
X75754000Y-59780000D01*
X75079000Y-59780000D01*
X75074873Y-59779179D01*
X75023620Y-59773233D01*
X75006109Y-59765501D01*
X74983329Y-59760970D01*
X74958939Y-59744673D01*
X74938211Y-59735521D01*
X74924053Y-59721363D01*
X74902223Y-59706777D01*
X74887636Y-59684946D01*
X74873478Y-59670788D01*
X74864324Y-59650057D01*
X74848030Y-59625671D01*
X74843499Y-59602892D01*
X74835766Y-59585379D01*
X74829818Y-59534117D01*
X74829000Y-59530000D01*
X74829000Y-58580000D01*
X74829818Y-58575885D01*
X74835766Y-58524620D01*
X74843499Y-58507105D01*
X74848030Y-58484329D01*
X74864323Y-58459944D01*
X74873478Y-58439211D01*
X74887638Y-58425050D01*
X74902223Y-58403223D01*
X74924050Y-58388638D01*
X74938211Y-58374478D01*
X74958944Y-58365323D01*
X74983329Y-58349030D01*
X75006105Y-58344499D01*
X75023620Y-58336766D01*
X75074884Y-58330818D01*
X75079000Y-58330000D01*
X75754000Y-58330000D01*
X75758116Y-58330818D01*
G37*
G36*
X77833116Y-58330818D02*
G01*
X77884379Y-58336766D01*
X77901892Y-58344499D01*
X77924671Y-58349030D01*
X77949057Y-58365324D01*
X77969788Y-58374478D01*
X77983946Y-58388636D01*
X78005777Y-58403223D01*
X78020363Y-58425053D01*
X78034521Y-58439211D01*
X78043673Y-58459939D01*
X78059970Y-58484329D01*
X78064501Y-58507109D01*
X78072233Y-58524620D01*
X78078178Y-58575872D01*
X78079000Y-58580000D01*
X78079000Y-59530000D01*
X78078178Y-59534128D01*
X78072233Y-59585379D01*
X78064501Y-59602888D01*
X78059970Y-59625671D01*
X78043672Y-59650062D01*
X78034521Y-59670788D01*
X78020365Y-59684943D01*
X78005777Y-59706777D01*
X77983943Y-59721365D01*
X77969788Y-59735521D01*
X77949062Y-59744672D01*
X77924671Y-59760970D01*
X77901888Y-59765501D01*
X77884379Y-59773233D01*
X77833129Y-59779178D01*
X77829000Y-59780000D01*
X77154000Y-59780000D01*
X77149873Y-59779179D01*
X77098620Y-59773233D01*
X77081109Y-59765501D01*
X77058329Y-59760970D01*
X77033939Y-59744673D01*
X77013211Y-59735521D01*
X76999053Y-59721363D01*
X76977223Y-59706777D01*
X76962636Y-59684946D01*
X76948478Y-59670788D01*
X76939324Y-59650057D01*
X76923030Y-59625671D01*
X76918499Y-59602892D01*
X76910766Y-59585379D01*
X76904818Y-59534117D01*
X76904000Y-59530000D01*
X76904000Y-58580000D01*
X76904818Y-58575885D01*
X76910766Y-58524620D01*
X76918499Y-58507105D01*
X76923030Y-58484329D01*
X76939323Y-58459944D01*
X76948478Y-58439211D01*
X76962638Y-58425050D01*
X76977223Y-58403223D01*
X76999050Y-58388638D01*
X77013211Y-58374478D01*
X77033944Y-58365323D01*
X77058329Y-58349030D01*
X77081105Y-58344499D01*
X77098620Y-58336766D01*
X77149884Y-58330818D01*
X77154000Y-58330000D01*
X77829000Y-58330000D01*
X77833116Y-58330818D01*
G37*
G36*
X79416616Y-58555818D02*
G01*
X79467879Y-58561766D01*
X79485392Y-58569499D01*
X79508171Y-58574030D01*
X79532557Y-58590324D01*
X79553288Y-58599478D01*
X79567446Y-58613636D01*
X79589277Y-58628223D01*
X79603863Y-58650053D01*
X79618021Y-58664211D01*
X79627173Y-58684939D01*
X79643470Y-58709329D01*
X79648001Y-58732109D01*
X79655733Y-58749620D01*
X79661678Y-58800872D01*
X79662500Y-58805000D01*
X79662500Y-59305000D01*
X79661678Y-59309128D01*
X79655733Y-59360379D01*
X79648001Y-59377888D01*
X79643470Y-59400671D01*
X79627172Y-59425062D01*
X79618021Y-59445788D01*
X79603865Y-59459943D01*
X79589277Y-59481777D01*
X79567443Y-59496365D01*
X79553288Y-59510521D01*
X79532562Y-59519672D01*
X79508171Y-59535970D01*
X79485388Y-59540501D01*
X79467879Y-59548233D01*
X79416629Y-59554178D01*
X79412500Y-59555000D01*
X78912500Y-59555000D01*
X78908373Y-59554179D01*
X78857120Y-59548233D01*
X78839609Y-59540501D01*
X78816829Y-59535970D01*
X78792439Y-59519673D01*
X78771711Y-59510521D01*
X78757553Y-59496363D01*
X78735723Y-59481777D01*
X78721136Y-59459946D01*
X78706978Y-59445788D01*
X78697824Y-59425057D01*
X78681530Y-59400671D01*
X78676999Y-59377892D01*
X78669266Y-59360379D01*
X78663318Y-59309117D01*
X78662500Y-59305000D01*
X78662500Y-58805000D01*
X78663318Y-58800885D01*
X78669266Y-58749620D01*
X78676999Y-58732105D01*
X78681530Y-58709329D01*
X78697823Y-58684944D01*
X78706978Y-58664211D01*
X78721138Y-58650050D01*
X78735723Y-58628223D01*
X78757550Y-58613638D01*
X78771711Y-58599478D01*
X78792444Y-58590323D01*
X78816829Y-58574030D01*
X78839605Y-58569499D01*
X78857120Y-58561766D01*
X78908384Y-58555818D01*
X78912500Y-58555000D01*
X79412500Y-58555000D01*
X79416616Y-58555818D01*
G37*
G36*
X81916616Y-58555818D02*
G01*
X81967879Y-58561766D01*
X81985392Y-58569499D01*
X82008171Y-58574030D01*
X82032557Y-58590324D01*
X82053288Y-58599478D01*
X82067446Y-58613636D01*
X82089277Y-58628223D01*
X82103863Y-58650053D01*
X82118021Y-58664211D01*
X82127173Y-58684939D01*
X82143470Y-58709329D01*
X82148001Y-58732109D01*
X82155733Y-58749620D01*
X82161678Y-58800872D01*
X82162500Y-58805000D01*
X82162500Y-59305000D01*
X82161678Y-59309128D01*
X82155733Y-59360379D01*
X82148001Y-59377888D01*
X82143470Y-59400671D01*
X82127172Y-59425062D01*
X82118021Y-59445788D01*
X82103865Y-59459943D01*
X82089277Y-59481777D01*
X82067443Y-59496365D01*
X82053288Y-59510521D01*
X82032562Y-59519672D01*
X82008171Y-59535970D01*
X81985388Y-59540501D01*
X81967879Y-59548233D01*
X81916629Y-59554178D01*
X81912500Y-59555000D01*
X81412500Y-59555000D01*
X81408373Y-59554179D01*
X81357120Y-59548233D01*
X81339609Y-59540501D01*
X81316829Y-59535970D01*
X81292439Y-59519673D01*
X81271711Y-59510521D01*
X81257553Y-59496363D01*
X81235723Y-59481777D01*
X81221136Y-59459946D01*
X81206978Y-59445788D01*
X81197824Y-59425057D01*
X81181530Y-59400671D01*
X81176999Y-59377892D01*
X81169266Y-59360379D01*
X81163318Y-59309117D01*
X81162500Y-59305000D01*
X81162500Y-58805000D01*
X81163318Y-58800885D01*
X81169266Y-58749620D01*
X81176999Y-58732105D01*
X81181530Y-58709329D01*
X81197823Y-58684944D01*
X81206978Y-58664211D01*
X81221138Y-58650050D01*
X81235723Y-58628223D01*
X81257550Y-58613638D01*
X81271711Y-58599478D01*
X81292444Y-58590323D01*
X81316829Y-58574030D01*
X81339605Y-58569499D01*
X81357120Y-58561766D01*
X81408384Y-58555818D01*
X81412500Y-58555000D01*
X81912500Y-58555000D01*
X81916616Y-58555818D01*
G37*
G36*
X79902403Y-56493418D02*
G01*
X79951066Y-56525934D01*
X79983582Y-56574597D01*
X79995000Y-56632000D01*
X79995000Y-57657000D01*
X79983582Y-57714403D01*
X79951066Y-57763066D01*
X79902403Y-57795582D01*
X79845000Y-57807000D01*
X79545000Y-57807000D01*
X79487597Y-57795582D01*
X79438934Y-57763066D01*
X79406418Y-57714403D01*
X79395000Y-57657000D01*
X79395000Y-56632000D01*
X79406418Y-56574597D01*
X79438934Y-56525934D01*
X79487597Y-56493418D01*
X79545000Y-56482000D01*
X79845000Y-56482000D01*
X79902403Y-56493418D01*
G37*
G36*
X81802403Y-56493418D02*
G01*
X81851066Y-56525934D01*
X81883582Y-56574597D01*
X81895000Y-56632000D01*
X81895000Y-57657000D01*
X81883582Y-57714403D01*
X81851066Y-57763066D01*
X81802403Y-57795582D01*
X81745000Y-57807000D01*
X81445000Y-57807000D01*
X81387597Y-57795582D01*
X81338934Y-57763066D01*
X81306418Y-57714403D01*
X81295000Y-57657000D01*
X81295000Y-56632000D01*
X81306418Y-56574597D01*
X81338934Y-56525934D01*
X81387597Y-56493418D01*
X81445000Y-56482000D01*
X81745000Y-56482000D01*
X81802403Y-56493418D01*
G37*
G36*
X76415403Y-56668418D02*
G01*
X76464066Y-56700934D01*
X76496582Y-56749597D01*
X76508000Y-56807000D01*
X76508000Y-57107000D01*
X76496582Y-57164403D01*
X76464066Y-57213066D01*
X76415403Y-57245582D01*
X76358000Y-57257000D01*
X75183000Y-57257000D01*
X75125597Y-57245582D01*
X75076934Y-57213066D01*
X75044418Y-57164403D01*
X75033000Y-57107000D01*
X75033000Y-56807000D01*
X75044418Y-56749597D01*
X75076934Y-56700934D01*
X75125597Y-56668418D01*
X75183000Y-56657000D01*
X76358000Y-56657000D01*
X76415403Y-56668418D01*
G37*
G36*
X78290403Y-55718418D02*
G01*
X78339066Y-55750934D01*
X78371582Y-55799597D01*
X78383000Y-55857000D01*
X78383000Y-56157000D01*
X78371582Y-56214403D01*
X78339066Y-56263066D01*
X78290403Y-56295582D01*
X78233000Y-56307000D01*
X77058000Y-56307000D01*
X77000597Y-56295582D01*
X76951934Y-56263066D01*
X76919418Y-56214403D01*
X76908000Y-56157000D01*
X76908000Y-55857000D01*
X76919418Y-55799597D01*
X76951934Y-55750934D01*
X77000597Y-55718418D01*
X77058000Y-55707000D01*
X78233000Y-55707000D01*
X78290403Y-55718418D01*
G37*
G36*
X66217714Y-54532295D02*
G01*
X66353548Y-54588559D01*
X66475795Y-54670242D01*
X66579758Y-54774205D01*
X66661441Y-54896452D01*
X66717705Y-55032286D01*
X66746389Y-55176487D01*
X66746389Y-55323513D01*
X66717705Y-55467714D01*
X66661441Y-55603548D01*
X66579758Y-55725795D01*
X66475795Y-55829758D01*
X66353548Y-55911441D01*
X66217714Y-55967705D01*
X66073513Y-55996389D01*
X65926487Y-55996389D01*
X65782286Y-55967705D01*
X65646452Y-55911441D01*
X65524205Y-55829758D01*
X65420242Y-55725795D01*
X65338559Y-55603548D01*
X65282295Y-55467714D01*
X65253611Y-55323513D01*
X65253611Y-55176487D01*
X65282295Y-55032286D01*
X65338559Y-54896452D01*
X65420242Y-54774205D01*
X65524205Y-54670242D01*
X65646452Y-54588559D01*
X65782286Y-54532295D01*
X65926487Y-54503611D01*
X66073513Y-54503611D01*
X66217714Y-54532295D01*
G37*
G36*
X79902403Y-54218418D02*
G01*
X79951066Y-54250934D01*
X79983582Y-54299597D01*
X79995000Y-54357000D01*
X79995000Y-55382000D01*
X79983582Y-55439403D01*
X79951066Y-55488066D01*
X79902403Y-55520582D01*
X79845000Y-55532000D01*
X79545000Y-55532000D01*
X79487597Y-55520582D01*
X79438934Y-55488066D01*
X79406418Y-55439403D01*
X79395000Y-55382000D01*
X79395000Y-54357000D01*
X79406418Y-54299597D01*
X79438934Y-54250934D01*
X79487597Y-54218418D01*
X79545000Y-54207000D01*
X79845000Y-54207000D01*
X79902403Y-54218418D01*
G37*
G36*
X80852403Y-54218418D02*
G01*
X80901066Y-54250934D01*
X80933582Y-54299597D01*
X80945000Y-54357000D01*
X80945000Y-55382000D01*
X80933582Y-55439403D01*
X80901066Y-55488066D01*
X80852403Y-55520582D01*
X80795000Y-55532000D01*
X80495000Y-55532000D01*
X80437597Y-55520582D01*
X80388934Y-55488066D01*
X80356418Y-55439403D01*
X80345000Y-55382000D01*
X80345000Y-54357000D01*
X80356418Y-54299597D01*
X80388934Y-54250934D01*
X80437597Y-54218418D01*
X80495000Y-54207000D01*
X80795000Y-54207000D01*
X80852403Y-54218418D01*
G37*
G36*
X81802403Y-54218418D02*
G01*
X81851066Y-54250934D01*
X81883582Y-54299597D01*
X81895000Y-54357000D01*
X81895000Y-55382000D01*
X81883582Y-55439403D01*
X81851066Y-55488066D01*
X81802403Y-55520582D01*
X81745000Y-55532000D01*
X81445000Y-55532000D01*
X81387597Y-55520582D01*
X81338934Y-55488066D01*
X81306418Y-55439403D01*
X81295000Y-55382000D01*
X81295000Y-54357000D01*
X81306418Y-54299597D01*
X81338934Y-54250934D01*
X81387597Y-54218418D01*
X81445000Y-54207000D01*
X81745000Y-54207000D01*
X81802403Y-54218418D01*
G37*
G36*
X76415403Y-54768418D02*
G01*
X76464066Y-54800934D01*
X76496582Y-54849597D01*
X76508000Y-54907000D01*
X76508000Y-55207000D01*
X76496582Y-55264403D01*
X76464066Y-55313066D01*
X76415403Y-55345582D01*
X76358000Y-55357000D01*
X75183000Y-55357000D01*
X75125597Y-55345582D01*
X75076934Y-55313066D01*
X75044418Y-55264403D01*
X75033000Y-55207000D01*
X75033000Y-54907000D01*
X75044418Y-54849597D01*
X75076934Y-54800934D01*
X75125597Y-54768418D01*
X75183000Y-54757000D01*
X76358000Y-54757000D01*
X76415403Y-54768418D01*
G37*
G36*
X75770215Y-53018218D02*
G01*
X75818617Y-53023834D01*
X75835155Y-53031136D01*
X75856987Y-53035479D01*
X75880359Y-53051095D01*
X75899824Y-53059690D01*
X75913117Y-53072983D01*
X75934038Y-53086962D01*
X75948016Y-53107882D01*
X75961309Y-53121175D01*
X75969902Y-53140638D01*
X75985521Y-53164013D01*
X75989864Y-53185846D01*
X75997165Y-53202382D01*
X76002778Y-53250772D01*
X76003600Y-53254900D01*
X76003600Y-53729900D01*
X76002778Y-53734027D01*
X75997165Y-53782417D01*
X75989864Y-53798951D01*
X75985521Y-53820787D01*
X75969901Y-53844163D01*
X75961309Y-53863624D01*
X75948018Y-53876914D01*
X75934038Y-53897838D01*
X75913114Y-53911818D01*
X75899824Y-53925109D01*
X75880363Y-53933701D01*
X75856987Y-53949321D01*
X75835151Y-53953664D01*
X75818617Y-53960965D01*
X75770229Y-53966578D01*
X75766100Y-53967400D01*
X75266100Y-53967400D01*
X75261973Y-53966579D01*
X75213582Y-53960965D01*
X75197046Y-53953664D01*
X75175213Y-53949321D01*
X75151838Y-53933702D01*
X75132375Y-53925109D01*
X75119082Y-53911816D01*
X75098162Y-53897838D01*
X75084183Y-53876917D01*
X75070890Y-53863624D01*
X75062295Y-53844159D01*
X75046679Y-53820787D01*
X75042336Y-53798955D01*
X75035034Y-53782417D01*
X75029418Y-53734016D01*
X75028600Y-53729900D01*
X75028600Y-53254900D01*
X75029418Y-53250785D01*
X75035034Y-53202382D01*
X75042336Y-53185842D01*
X75046679Y-53164013D01*
X75062294Y-53140642D01*
X75070890Y-53121175D01*
X75084185Y-53107879D01*
X75098162Y-53086962D01*
X75119079Y-53072985D01*
X75132375Y-53059690D01*
X75151842Y-53051094D01*
X75175213Y-53035479D01*
X75197042Y-53031136D01*
X75213582Y-53023834D01*
X75261984Y-53018218D01*
X75266100Y-53017400D01*
X75766100Y-53017400D01*
X75770215Y-53018218D01*
G37*
G36*
X77595215Y-53018218D02*
G01*
X77643617Y-53023834D01*
X77660155Y-53031136D01*
X77681987Y-53035479D01*
X77705359Y-53051095D01*
X77724824Y-53059690D01*
X77738117Y-53072983D01*
X77759038Y-53086962D01*
X77773016Y-53107882D01*
X77786309Y-53121175D01*
X77794902Y-53140638D01*
X77810521Y-53164013D01*
X77814864Y-53185846D01*
X77822165Y-53202382D01*
X77827778Y-53250772D01*
X77828600Y-53254900D01*
X77828600Y-53729900D01*
X77827778Y-53734027D01*
X77822165Y-53782417D01*
X77814864Y-53798951D01*
X77810521Y-53820787D01*
X77794901Y-53844163D01*
X77786309Y-53863624D01*
X77773018Y-53876914D01*
X77759038Y-53897838D01*
X77738114Y-53911818D01*
X77724824Y-53925109D01*
X77705363Y-53933701D01*
X77681987Y-53949321D01*
X77660151Y-53953664D01*
X77643617Y-53960965D01*
X77595229Y-53966578D01*
X77591100Y-53967400D01*
X77091100Y-53967400D01*
X77086973Y-53966579D01*
X77038582Y-53960965D01*
X77022046Y-53953664D01*
X77000213Y-53949321D01*
X76976838Y-53933702D01*
X76957375Y-53925109D01*
X76944082Y-53911816D01*
X76923162Y-53897838D01*
X76909183Y-53876917D01*
X76895890Y-53863624D01*
X76887295Y-53844159D01*
X76871679Y-53820787D01*
X76867336Y-53798955D01*
X76860034Y-53782417D01*
X76854418Y-53734016D01*
X76853600Y-53729900D01*
X76853600Y-53254900D01*
X76854418Y-53250785D01*
X76860034Y-53202382D01*
X76867336Y-53185842D01*
X76871679Y-53164013D01*
X76887294Y-53140642D01*
X76895890Y-53121175D01*
X76909185Y-53107879D01*
X76923162Y-53086962D01*
X76944079Y-53072985D01*
X76957375Y-53059690D01*
X76976842Y-53051094D01*
X77000213Y-53035479D01*
X77022042Y-53031136D01*
X77038582Y-53023834D01*
X77086984Y-53018218D01*
X77091100Y-53017400D01*
X77591100Y-53017400D01*
X77595215Y-53018218D01*
G37*
G36*
X80076116Y-51218818D02*
G01*
X80127379Y-51224766D01*
X80144892Y-51232499D01*
X80167671Y-51237030D01*
X80192057Y-51253324D01*
X80212788Y-51262478D01*
X80226946Y-51276636D01*
X80248777Y-51291223D01*
X80263363Y-51313053D01*
X80277521Y-51327211D01*
X80286673Y-51347939D01*
X80302970Y-51372329D01*
X80307501Y-51395109D01*
X80315233Y-51412620D01*
X80321178Y-51463872D01*
X80322000Y-51468000D01*
X80322000Y-52418000D01*
X80321178Y-52422128D01*
X80315233Y-52473379D01*
X80307501Y-52490888D01*
X80302970Y-52513671D01*
X80286672Y-52538062D01*
X80277521Y-52558788D01*
X80263365Y-52572943D01*
X80248777Y-52594777D01*
X80226943Y-52609365D01*
X80212788Y-52623521D01*
X80192062Y-52632672D01*
X80167671Y-52648970D01*
X80144888Y-52653501D01*
X80127379Y-52661233D01*
X80076129Y-52667178D01*
X80072000Y-52668000D01*
X79397000Y-52668000D01*
X79392873Y-52667179D01*
X79341620Y-52661233D01*
X79324109Y-52653501D01*
X79301329Y-52648970D01*
X79276939Y-52632673D01*
X79256211Y-52623521D01*
X79242053Y-52609363D01*
X79220223Y-52594777D01*
X79205636Y-52572946D01*
X79191478Y-52558788D01*
X79182324Y-52538057D01*
X79166030Y-52513671D01*
X79161499Y-52490892D01*
X79153766Y-52473379D01*
X79147818Y-52422117D01*
X79147000Y-52418000D01*
X79147000Y-51468000D01*
X79147818Y-51463885D01*
X79153766Y-51412620D01*
X79161499Y-51395105D01*
X79166030Y-51372329D01*
X79182323Y-51347944D01*
X79191478Y-51327211D01*
X79205638Y-51313050D01*
X79220223Y-51291223D01*
X79242050Y-51276638D01*
X79256211Y-51262478D01*
X79276944Y-51253323D01*
X79301329Y-51237030D01*
X79324105Y-51232499D01*
X79341620Y-51224766D01*
X79392884Y-51218818D01*
X79397000Y-51218000D01*
X80072000Y-51218000D01*
X80076116Y-51218818D01*
G37*
G36*
X82151116Y-51218818D02*
G01*
X82202379Y-51224766D01*
X82219892Y-51232499D01*
X82242671Y-51237030D01*
X82267057Y-51253324D01*
X82287788Y-51262478D01*
X82301946Y-51276636D01*
X82323777Y-51291223D01*
X82338363Y-51313053D01*
X82352521Y-51327211D01*
X82361673Y-51347939D01*
X82377970Y-51372329D01*
X82382501Y-51395109D01*
X82390233Y-51412620D01*
X82396178Y-51463872D01*
X82397000Y-51468000D01*
X82397000Y-52418000D01*
X82396178Y-52422128D01*
X82390233Y-52473379D01*
X82382501Y-52490888D01*
X82377970Y-52513671D01*
X82361672Y-52538062D01*
X82352521Y-52558788D01*
X82338365Y-52572943D01*
X82323777Y-52594777D01*
X82301943Y-52609365D01*
X82287788Y-52623521D01*
X82267062Y-52632672D01*
X82242671Y-52648970D01*
X82219888Y-52653501D01*
X82202379Y-52661233D01*
X82151129Y-52667178D01*
X82147000Y-52668000D01*
X81472000Y-52668000D01*
X81467873Y-52667179D01*
X81416620Y-52661233D01*
X81399109Y-52653501D01*
X81376329Y-52648970D01*
X81351939Y-52632673D01*
X81331211Y-52623521D01*
X81317053Y-52609363D01*
X81295223Y-52594777D01*
X81280636Y-52572946D01*
X81266478Y-52558788D01*
X81257324Y-52538057D01*
X81241030Y-52513671D01*
X81236499Y-52490892D01*
X81228766Y-52473379D01*
X81222818Y-52422117D01*
X81222000Y-52418000D01*
X81222000Y-51468000D01*
X81222818Y-51463885D01*
X81228766Y-51412620D01*
X81236499Y-51395105D01*
X81241030Y-51372329D01*
X81257323Y-51347944D01*
X81266478Y-51327211D01*
X81280638Y-51313050D01*
X81295223Y-51291223D01*
X81317050Y-51276638D01*
X81331211Y-51262478D01*
X81351944Y-51253323D01*
X81376329Y-51237030D01*
X81399105Y-51232499D01*
X81416620Y-51224766D01*
X81467884Y-51218818D01*
X81472000Y-51218000D01*
X82147000Y-51218000D01*
X82151116Y-51218818D01*
G37*
G36*
X75795615Y-51468818D02*
G01*
X75844017Y-51474434D01*
X75860555Y-51481736D01*
X75882387Y-51486079D01*
X75905759Y-51501695D01*
X75925224Y-51510290D01*
X75938517Y-51523583D01*
X75959438Y-51537562D01*
X75973416Y-51558482D01*
X75986709Y-51571775D01*
X75995302Y-51591238D01*
X76010921Y-51614613D01*
X76015264Y-51636446D01*
X76022565Y-51652982D01*
X76028178Y-51701372D01*
X76029000Y-51705500D01*
X76029000Y-52180500D01*
X76028178Y-52184627D01*
X76022565Y-52233017D01*
X76015264Y-52249551D01*
X76010921Y-52271387D01*
X75995301Y-52294763D01*
X75986709Y-52314224D01*
X75973418Y-52327514D01*
X75959438Y-52348438D01*
X75938514Y-52362418D01*
X75925224Y-52375709D01*
X75905763Y-52384301D01*
X75882387Y-52399921D01*
X75860551Y-52404264D01*
X75844017Y-52411565D01*
X75795629Y-52417178D01*
X75791500Y-52418000D01*
X75291500Y-52418000D01*
X75287373Y-52417179D01*
X75238982Y-52411565D01*
X75222446Y-52404264D01*
X75200613Y-52399921D01*
X75177238Y-52384302D01*
X75157775Y-52375709D01*
X75144482Y-52362416D01*
X75123562Y-52348438D01*
X75109583Y-52327517D01*
X75096290Y-52314224D01*
X75087695Y-52294759D01*
X75072079Y-52271387D01*
X75067736Y-52249555D01*
X75060434Y-52233017D01*
X75054818Y-52184616D01*
X75054000Y-52180500D01*
X75054000Y-51705500D01*
X75054818Y-51701385D01*
X75060434Y-51652982D01*
X75067736Y-51636442D01*
X75072079Y-51614613D01*
X75087694Y-51591242D01*
X75096290Y-51571775D01*
X75109585Y-51558479D01*
X75123562Y-51537562D01*
X75144479Y-51523585D01*
X75157775Y-51510290D01*
X75177242Y-51501694D01*
X75200613Y-51486079D01*
X75222442Y-51481736D01*
X75238982Y-51474434D01*
X75287384Y-51468818D01*
X75291500Y-51468000D01*
X75791500Y-51468000D01*
X75795615Y-51468818D01*
G37*
G36*
X77620615Y-51468818D02*
G01*
X77669017Y-51474434D01*
X77685555Y-51481736D01*
X77707387Y-51486079D01*
X77730759Y-51501695D01*
X77750224Y-51510290D01*
X77763517Y-51523583D01*
X77784438Y-51537562D01*
X77798416Y-51558482D01*
X77811709Y-51571775D01*
X77820302Y-51591238D01*
X77835921Y-51614613D01*
X77840264Y-51636446D01*
X77847565Y-51652982D01*
X77853178Y-51701372D01*
X77854000Y-51705500D01*
X77854000Y-52180500D01*
X77853178Y-52184627D01*
X77847565Y-52233017D01*
X77840264Y-52249551D01*
X77835921Y-52271387D01*
X77820301Y-52294763D01*
X77811709Y-52314224D01*
X77798418Y-52327514D01*
X77784438Y-52348438D01*
X77763514Y-52362418D01*
X77750224Y-52375709D01*
X77730763Y-52384301D01*
X77707387Y-52399921D01*
X77685551Y-52404264D01*
X77669017Y-52411565D01*
X77620629Y-52417178D01*
X77616500Y-52418000D01*
X77116500Y-52418000D01*
X77112373Y-52417179D01*
X77063982Y-52411565D01*
X77047446Y-52404264D01*
X77025613Y-52399921D01*
X77002238Y-52384302D01*
X76982775Y-52375709D01*
X76969482Y-52362416D01*
X76948562Y-52348438D01*
X76934583Y-52327517D01*
X76921290Y-52314224D01*
X76912695Y-52294759D01*
X76897079Y-52271387D01*
X76892736Y-52249555D01*
X76885434Y-52233017D01*
X76879818Y-52184616D01*
X76879000Y-52180500D01*
X76879000Y-51705500D01*
X76879818Y-51701385D01*
X76885434Y-51652982D01*
X76892736Y-51636442D01*
X76897079Y-51614613D01*
X76912694Y-51591242D01*
X76921290Y-51571775D01*
X76934585Y-51558479D01*
X76948562Y-51537562D01*
X76969479Y-51523585D01*
X76982775Y-51510290D01*
X77002242Y-51501694D01*
X77025613Y-51486079D01*
X77047442Y-51481736D01*
X77063982Y-51474434D01*
X77112384Y-51468818D01*
X77116500Y-51468000D01*
X77616500Y-51468000D01*
X77620615Y-51468818D01*
G37*
G36*
X52429803Y-50406418D02*
G01*
X52478466Y-50438934D01*
X52510982Y-50487597D01*
X52522400Y-50545000D01*
X52522400Y-52195000D01*
X52510982Y-52252403D01*
X52478466Y-52301066D01*
X52429803Y-52333582D01*
X52372400Y-52345000D01*
X52072400Y-52345000D01*
X52014997Y-52333582D01*
X51966334Y-52301066D01*
X51933818Y-52252403D01*
X51922400Y-52195000D01*
X51922400Y-50545000D01*
X51933818Y-50487597D01*
X51966334Y-50438934D01*
X52014997Y-50406418D01*
X52072400Y-50395000D01*
X52372400Y-50395000D01*
X52429803Y-50406418D01*
G37*
G36*
X53699803Y-50406418D02*
G01*
X53748466Y-50438934D01*
X53780982Y-50487597D01*
X53792400Y-50545000D01*
X53792400Y-52195000D01*
X53780982Y-52252403D01*
X53748466Y-52301066D01*
X53699803Y-52333582D01*
X53642400Y-52345000D01*
X53342400Y-52345000D01*
X53284997Y-52333582D01*
X53236334Y-52301066D01*
X53203818Y-52252403D01*
X53192400Y-52195000D01*
X53192400Y-50545000D01*
X53203818Y-50487597D01*
X53236334Y-50438934D01*
X53284997Y-50406418D01*
X53342400Y-50395000D01*
X53642400Y-50395000D01*
X53699803Y-50406418D01*
G37*
G36*
X54969803Y-50406418D02*
G01*
X55018466Y-50438934D01*
X55050982Y-50487597D01*
X55062400Y-50545000D01*
X55062400Y-52195000D01*
X55050982Y-52252403D01*
X55018466Y-52301066D01*
X54969803Y-52333582D01*
X54912400Y-52345000D01*
X54612400Y-52345000D01*
X54554997Y-52333582D01*
X54506334Y-52301066D01*
X54473818Y-52252403D01*
X54462400Y-52195000D01*
X54462400Y-50545000D01*
X54473818Y-50487597D01*
X54506334Y-50438934D01*
X54554997Y-50406418D01*
X54612400Y-50395000D01*
X54912400Y-50395000D01*
X54969803Y-50406418D01*
G37*
G36*
X56239803Y-50406418D02*
G01*
X56288466Y-50438934D01*
X56320982Y-50487597D01*
X56332400Y-50545000D01*
X56332400Y-52195000D01*
X56320982Y-52252403D01*
X56288466Y-52301066D01*
X56239803Y-52333582D01*
X56182400Y-52345000D01*
X55882400Y-52345000D01*
X55824997Y-52333582D01*
X55776334Y-52301066D01*
X55743818Y-52252403D01*
X55732400Y-52195000D01*
X55732400Y-50545000D01*
X55743818Y-50487597D01*
X55776334Y-50438934D01*
X55824997Y-50406418D01*
X55882400Y-50395000D01*
X56182400Y-50395000D01*
X56239803Y-50406418D01*
G37*
G36*
X50533615Y-51352818D02*
G01*
X50582017Y-51358434D01*
X50598555Y-51365736D01*
X50620387Y-51370079D01*
X50643759Y-51385695D01*
X50663224Y-51394290D01*
X50676517Y-51407583D01*
X50697438Y-51421562D01*
X50711416Y-51442482D01*
X50724709Y-51455775D01*
X50733302Y-51475238D01*
X50748921Y-51498613D01*
X50753264Y-51520446D01*
X50760565Y-51536982D01*
X50766178Y-51585372D01*
X50767000Y-51589500D01*
X50767000Y-52089500D01*
X50766178Y-52093627D01*
X50760565Y-52142017D01*
X50753264Y-52158551D01*
X50748921Y-52180387D01*
X50733301Y-52203763D01*
X50724709Y-52223224D01*
X50711418Y-52236514D01*
X50697438Y-52257438D01*
X50676514Y-52271418D01*
X50663224Y-52284709D01*
X50643763Y-52293301D01*
X50620387Y-52308921D01*
X50598551Y-52313264D01*
X50582017Y-52320565D01*
X50533629Y-52326178D01*
X50529500Y-52327000D01*
X50054500Y-52327000D01*
X50050373Y-52326179D01*
X50001982Y-52320565D01*
X49985446Y-52313264D01*
X49963613Y-52308921D01*
X49940238Y-52293302D01*
X49920775Y-52284709D01*
X49907482Y-52271416D01*
X49886562Y-52257438D01*
X49872583Y-52236517D01*
X49859290Y-52223224D01*
X49850695Y-52203759D01*
X49835079Y-52180387D01*
X49830736Y-52158555D01*
X49823434Y-52142017D01*
X49817818Y-52093616D01*
X49817000Y-52089500D01*
X49817000Y-51589500D01*
X49817818Y-51585385D01*
X49823434Y-51536982D01*
X49830736Y-51520442D01*
X49835079Y-51498613D01*
X49850694Y-51475242D01*
X49859290Y-51455775D01*
X49872585Y-51442479D01*
X49886562Y-51421562D01*
X49907479Y-51407585D01*
X49920775Y-51394290D01*
X49940242Y-51385694D01*
X49963613Y-51370079D01*
X49985442Y-51365736D01*
X50001982Y-51358434D01*
X50050384Y-51352818D01*
X50054500Y-51352000D01*
X50529500Y-51352000D01*
X50533615Y-51352818D01*
G37*
G36*
X75769115Y-49880818D02*
G01*
X75817517Y-49886434D01*
X75834055Y-49893736D01*
X75855887Y-49898079D01*
X75879259Y-49913695D01*
X75898724Y-49922290D01*
X75912017Y-49935583D01*
X75932938Y-49949562D01*
X75946916Y-49970482D01*
X75960209Y-49983775D01*
X75968802Y-50003238D01*
X75984421Y-50026613D01*
X75988764Y-50048446D01*
X75996065Y-50064982D01*
X76001678Y-50113372D01*
X76002500Y-50117500D01*
X76002500Y-50592500D01*
X76001678Y-50596627D01*
X75996065Y-50645017D01*
X75988764Y-50661551D01*
X75984421Y-50683387D01*
X75968801Y-50706763D01*
X75960209Y-50726224D01*
X75946918Y-50739514D01*
X75932938Y-50760438D01*
X75912014Y-50774418D01*
X75898724Y-50787709D01*
X75879263Y-50796301D01*
X75855887Y-50811921D01*
X75834051Y-50816264D01*
X75817517Y-50823565D01*
X75769129Y-50829178D01*
X75765000Y-50830000D01*
X75265000Y-50830000D01*
X75260873Y-50829179D01*
X75212482Y-50823565D01*
X75195946Y-50816264D01*
X75174113Y-50811921D01*
X75150738Y-50796302D01*
X75131275Y-50787709D01*
X75117982Y-50774416D01*
X75097062Y-50760438D01*
X75083083Y-50739517D01*
X75069790Y-50726224D01*
X75061195Y-50706759D01*
X75045579Y-50683387D01*
X75041236Y-50661555D01*
X75033934Y-50645017D01*
X75028318Y-50596616D01*
X75027500Y-50592500D01*
X75027500Y-50117500D01*
X75028318Y-50113385D01*
X75033934Y-50064982D01*
X75041236Y-50048442D01*
X75045579Y-50026613D01*
X75061194Y-50003242D01*
X75069790Y-49983775D01*
X75083085Y-49970479D01*
X75097062Y-49949562D01*
X75117979Y-49935585D01*
X75131275Y-49922290D01*
X75150742Y-49913694D01*
X75174113Y-49898079D01*
X75195942Y-49893736D01*
X75212482Y-49886434D01*
X75260884Y-49880818D01*
X75265000Y-49880000D01*
X75765000Y-49880000D01*
X75769115Y-49880818D01*
G37*
G36*
X77594115Y-49880818D02*
G01*
X77642517Y-49886434D01*
X77659055Y-49893736D01*
X77680887Y-49898079D01*
X77704259Y-49913695D01*
X77723724Y-49922290D01*
X77737017Y-49935583D01*
X77757938Y-49949562D01*
X77771916Y-49970482D01*
X77785209Y-49983775D01*
X77793802Y-50003238D01*
X77809421Y-50026613D01*
X77813764Y-50048446D01*
X77821065Y-50064982D01*
X77826678Y-50113372D01*
X77827500Y-50117500D01*
X77827500Y-50592500D01*
X77826678Y-50596627D01*
X77821065Y-50645017D01*
X77813764Y-50661551D01*
X77809421Y-50683387D01*
X77793801Y-50706763D01*
X77785209Y-50726224D01*
X77771918Y-50739514D01*
X77757938Y-50760438D01*
X77737014Y-50774418D01*
X77723724Y-50787709D01*
X77704263Y-50796301D01*
X77680887Y-50811921D01*
X77659051Y-50816264D01*
X77642517Y-50823565D01*
X77594129Y-50829178D01*
X77590000Y-50830000D01*
X77090000Y-50830000D01*
X77085873Y-50829179D01*
X77037482Y-50823565D01*
X77020946Y-50816264D01*
X76999113Y-50811921D01*
X76975738Y-50796302D01*
X76956275Y-50787709D01*
X76942982Y-50774416D01*
X76922062Y-50760438D01*
X76908083Y-50739517D01*
X76894790Y-50726224D01*
X76886195Y-50706759D01*
X76870579Y-50683387D01*
X76866236Y-50661555D01*
X76858934Y-50645017D01*
X76853318Y-50596616D01*
X76852500Y-50592500D01*
X76852500Y-50117500D01*
X76853318Y-50113385D01*
X76858934Y-50064982D01*
X76866236Y-50048442D01*
X76870579Y-50026613D01*
X76886194Y-50003242D01*
X76894790Y-49983775D01*
X76908085Y-49970479D01*
X76922062Y-49949562D01*
X76942979Y-49935585D01*
X76956275Y-49922290D01*
X76975742Y-49913694D01*
X76999113Y-49898079D01*
X77020942Y-49893736D01*
X77037482Y-49886434D01*
X77085884Y-49880818D01*
X77090000Y-49880000D01*
X77590000Y-49880000D01*
X77594115Y-49880818D01*
G37*
G36*
X50533615Y-49527818D02*
G01*
X50582017Y-49533434D01*
X50598555Y-49540736D01*
X50620387Y-49545079D01*
X50643759Y-49560695D01*
X50663224Y-49569290D01*
X50676517Y-49582583D01*
X50697438Y-49596562D01*
X50711416Y-49617482D01*
X50724709Y-49630775D01*
X50733302Y-49650238D01*
X50748921Y-49673613D01*
X50753264Y-49695446D01*
X50760565Y-49711982D01*
X50766178Y-49760372D01*
X50767000Y-49764500D01*
X50767000Y-50264500D01*
X50766178Y-50268627D01*
X50760565Y-50317017D01*
X50753264Y-50333551D01*
X50748921Y-50355387D01*
X50733301Y-50378763D01*
X50724709Y-50398224D01*
X50711418Y-50411514D01*
X50697438Y-50432438D01*
X50676514Y-50446418D01*
X50663224Y-50459709D01*
X50643763Y-50468301D01*
X50620387Y-50483921D01*
X50598551Y-50488264D01*
X50582017Y-50495565D01*
X50533629Y-50501178D01*
X50529500Y-50502000D01*
X50054500Y-50502000D01*
X50050373Y-50501179D01*
X50001982Y-50495565D01*
X49985446Y-50488264D01*
X49963613Y-50483921D01*
X49940238Y-50468302D01*
X49920775Y-50459709D01*
X49907482Y-50446416D01*
X49886562Y-50432438D01*
X49872583Y-50411517D01*
X49859290Y-50398224D01*
X49850695Y-50378759D01*
X49835079Y-50355387D01*
X49830736Y-50333555D01*
X49823434Y-50317017D01*
X49817818Y-50268616D01*
X49817000Y-50264500D01*
X49817000Y-49764500D01*
X49817818Y-49760385D01*
X49823434Y-49711982D01*
X49830736Y-49695442D01*
X49835079Y-49673613D01*
X49850694Y-49650242D01*
X49859290Y-49630775D01*
X49872585Y-49617479D01*
X49886562Y-49596562D01*
X49907479Y-49582585D01*
X49920775Y-49569290D01*
X49940242Y-49560694D01*
X49963613Y-49545079D01*
X49985442Y-49540736D01*
X50001982Y-49533434D01*
X50050384Y-49527818D01*
X50054500Y-49527000D01*
X50529500Y-49527000D01*
X50533615Y-49527818D01*
G37*
G36*
X79776116Y-49411818D02*
G01*
X79827379Y-49417766D01*
X79844892Y-49425499D01*
X79867671Y-49430030D01*
X79892057Y-49446324D01*
X79912788Y-49455478D01*
X79926946Y-49469636D01*
X79948777Y-49484223D01*
X79963363Y-49506053D01*
X79977521Y-49520211D01*
X79986673Y-49540939D01*
X80002970Y-49565329D01*
X80007501Y-49588109D01*
X80015233Y-49605620D01*
X80021178Y-49656872D01*
X80022000Y-49661000D01*
X80022000Y-50161000D01*
X80021178Y-50165128D01*
X80015233Y-50216379D01*
X80007501Y-50233888D01*
X80002970Y-50256671D01*
X79986672Y-50281062D01*
X79977521Y-50301788D01*
X79963365Y-50315943D01*
X79948777Y-50337777D01*
X79926943Y-50352365D01*
X79912788Y-50366521D01*
X79892062Y-50375672D01*
X79867671Y-50391970D01*
X79844888Y-50396501D01*
X79827379Y-50404233D01*
X79776129Y-50410178D01*
X79772000Y-50411000D01*
X79272000Y-50411000D01*
X79267873Y-50410179D01*
X79216620Y-50404233D01*
X79199109Y-50396501D01*
X79176329Y-50391970D01*
X79151939Y-50375673D01*
X79131211Y-50366521D01*
X79117053Y-50352363D01*
X79095223Y-50337777D01*
X79080636Y-50315946D01*
X79066478Y-50301788D01*
X79057324Y-50281057D01*
X79041030Y-50256671D01*
X79036499Y-50233892D01*
X79028766Y-50216379D01*
X79022818Y-50165117D01*
X79022000Y-50161000D01*
X79022000Y-49661000D01*
X79022818Y-49656885D01*
X79028766Y-49605620D01*
X79036499Y-49588105D01*
X79041030Y-49565329D01*
X79057323Y-49540944D01*
X79066478Y-49520211D01*
X79080638Y-49506050D01*
X79095223Y-49484223D01*
X79117050Y-49469638D01*
X79131211Y-49455478D01*
X79151944Y-49446323D01*
X79176329Y-49430030D01*
X79199105Y-49425499D01*
X79216620Y-49417766D01*
X79267884Y-49411818D01*
X79272000Y-49411000D01*
X79772000Y-49411000D01*
X79776116Y-49411818D01*
G37*
G36*
X82276116Y-49411818D02*
G01*
X82327379Y-49417766D01*
X82344892Y-49425499D01*
X82367671Y-49430030D01*
X82392057Y-49446324D01*
X82412788Y-49455478D01*
X82426946Y-49469636D01*
X82448777Y-49484223D01*
X82463363Y-49506053D01*
X82477521Y-49520211D01*
X82486673Y-49540939D01*
X82502970Y-49565329D01*
X82507501Y-49588109D01*
X82515233Y-49605620D01*
X82521178Y-49656872D01*
X82522000Y-49661000D01*
X82522000Y-50161000D01*
X82521178Y-50165128D01*
X82515233Y-50216379D01*
X82507501Y-50233888D01*
X82502970Y-50256671D01*
X82486672Y-50281062D01*
X82477521Y-50301788D01*
X82463365Y-50315943D01*
X82448777Y-50337777D01*
X82426943Y-50352365D01*
X82412788Y-50366521D01*
X82392062Y-50375672D01*
X82367671Y-50391970D01*
X82344888Y-50396501D01*
X82327379Y-50404233D01*
X82276129Y-50410178D01*
X82272000Y-50411000D01*
X81772000Y-50411000D01*
X81767873Y-50410179D01*
X81716620Y-50404233D01*
X81699109Y-50396501D01*
X81676329Y-50391970D01*
X81651939Y-50375673D01*
X81631211Y-50366521D01*
X81617053Y-50352363D01*
X81595223Y-50337777D01*
X81580636Y-50315946D01*
X81566478Y-50301788D01*
X81557324Y-50281057D01*
X81541030Y-50256671D01*
X81536499Y-50233892D01*
X81528766Y-50216379D01*
X81522818Y-50165117D01*
X81522000Y-50161000D01*
X81522000Y-49661000D01*
X81522818Y-49656885D01*
X81528766Y-49605620D01*
X81536499Y-49588105D01*
X81541030Y-49565329D01*
X81557323Y-49540944D01*
X81566478Y-49520211D01*
X81580638Y-49506050D01*
X81595223Y-49484223D01*
X81617050Y-49469638D01*
X81631211Y-49455478D01*
X81651944Y-49446323D01*
X81676329Y-49430030D01*
X81699105Y-49425499D01*
X81716620Y-49417766D01*
X81767884Y-49411818D01*
X81772000Y-49411000D01*
X82272000Y-49411000D01*
X82276116Y-49411818D01*
G37*
G36*
X75842615Y-48356818D02*
G01*
X75891017Y-48362434D01*
X75907555Y-48369736D01*
X75929387Y-48374079D01*
X75952759Y-48389695D01*
X75972224Y-48398290D01*
X75985517Y-48411583D01*
X76006438Y-48425562D01*
X76020416Y-48446482D01*
X76033709Y-48459775D01*
X76042302Y-48479238D01*
X76057921Y-48502613D01*
X76062264Y-48524446D01*
X76069565Y-48540982D01*
X76075178Y-48589372D01*
X76076000Y-48593500D01*
X76076000Y-49068500D01*
X76075178Y-49072627D01*
X76069565Y-49121017D01*
X76062264Y-49137551D01*
X76057921Y-49159387D01*
X76042301Y-49182763D01*
X76033709Y-49202224D01*
X76020418Y-49215514D01*
X76006438Y-49236438D01*
X75985514Y-49250418D01*
X75972224Y-49263709D01*
X75952763Y-49272301D01*
X75929387Y-49287921D01*
X75907551Y-49292264D01*
X75891017Y-49299565D01*
X75842629Y-49305178D01*
X75838500Y-49306000D01*
X75238500Y-49306000D01*
X75234373Y-49305179D01*
X75185982Y-49299565D01*
X75169446Y-49292264D01*
X75147613Y-49287921D01*
X75124238Y-49272302D01*
X75104775Y-49263709D01*
X75091482Y-49250416D01*
X75070562Y-49236438D01*
X75056583Y-49215517D01*
X75043290Y-49202224D01*
X75034695Y-49182759D01*
X75019079Y-49159387D01*
X75014736Y-49137555D01*
X75007434Y-49121017D01*
X75001818Y-49072616D01*
X75001000Y-49068500D01*
X75001000Y-48593500D01*
X75001818Y-48589385D01*
X75007434Y-48540982D01*
X75014736Y-48524442D01*
X75019079Y-48502613D01*
X75034694Y-48479242D01*
X75043290Y-48459775D01*
X75056585Y-48446479D01*
X75070562Y-48425562D01*
X75091479Y-48411585D01*
X75104775Y-48398290D01*
X75124242Y-48389694D01*
X75147613Y-48374079D01*
X75169442Y-48369736D01*
X75185982Y-48362434D01*
X75234384Y-48356818D01*
X75238500Y-48356000D01*
X75838500Y-48356000D01*
X75842615Y-48356818D01*
G37*
G36*
X77567615Y-48356818D02*
G01*
X77616017Y-48362434D01*
X77632555Y-48369736D01*
X77654387Y-48374079D01*
X77677759Y-48389695D01*
X77697224Y-48398290D01*
X77710517Y-48411583D01*
X77731438Y-48425562D01*
X77745416Y-48446482D01*
X77758709Y-48459775D01*
X77767302Y-48479238D01*
X77782921Y-48502613D01*
X77787264Y-48524446D01*
X77794565Y-48540982D01*
X77800178Y-48589372D01*
X77801000Y-48593500D01*
X77801000Y-49068500D01*
X77800178Y-49072627D01*
X77794565Y-49121017D01*
X77787264Y-49137551D01*
X77782921Y-49159387D01*
X77767301Y-49182763D01*
X77758709Y-49202224D01*
X77745418Y-49215514D01*
X77731438Y-49236438D01*
X77710514Y-49250418D01*
X77697224Y-49263709D01*
X77677763Y-49272301D01*
X77654387Y-49287921D01*
X77632551Y-49292264D01*
X77616017Y-49299565D01*
X77567629Y-49305178D01*
X77563500Y-49306000D01*
X76963500Y-49306000D01*
X76959373Y-49305179D01*
X76910982Y-49299565D01*
X76894446Y-49292264D01*
X76872613Y-49287921D01*
X76849238Y-49272302D01*
X76829775Y-49263709D01*
X76816482Y-49250416D01*
X76795562Y-49236438D01*
X76781583Y-49215517D01*
X76768290Y-49202224D01*
X76759695Y-49182759D01*
X76744079Y-49159387D01*
X76739736Y-49137555D01*
X76732434Y-49121017D01*
X76726818Y-49072616D01*
X76726000Y-49068500D01*
X76726000Y-48593500D01*
X76726818Y-48589385D01*
X76732434Y-48540982D01*
X76739736Y-48524442D01*
X76744079Y-48502613D01*
X76759694Y-48479242D01*
X76768290Y-48459775D01*
X76781585Y-48446479D01*
X76795562Y-48425562D01*
X76816479Y-48411585D01*
X76829775Y-48398290D01*
X76849242Y-48389694D01*
X76872613Y-48374079D01*
X76894442Y-48369736D01*
X76910982Y-48362434D01*
X76959384Y-48356818D01*
X76963500Y-48356000D01*
X77563500Y-48356000D01*
X77567615Y-48356818D01*
G37*
G36*
X79510263Y-47324278D02*
G01*
X79636342Y-47358060D01*
X79749381Y-47423323D01*
X79841677Y-47515619D01*
X79906940Y-47628658D01*
X79940722Y-47754737D01*
X79940722Y-47885263D01*
X79906940Y-48011342D01*
X79841677Y-48124381D01*
X79749381Y-48216677D01*
X79636342Y-48281940D01*
X79510263Y-48315722D01*
X79445000Y-48320000D01*
X79443341Y-48320000D01*
X78346659Y-48320000D01*
X78345000Y-48320000D01*
X78279737Y-48315722D01*
X78153658Y-48281940D01*
X78040619Y-48216677D01*
X77948323Y-48124381D01*
X77883060Y-48011342D01*
X77849278Y-47885263D01*
X77849278Y-47754737D01*
X77883060Y-47628658D01*
X77948323Y-47515619D01*
X78040619Y-47423323D01*
X78153658Y-47358060D01*
X78279737Y-47324278D01*
X78345000Y-47320000D01*
X79445000Y-47320000D01*
X79510263Y-47324278D01*
G37*
G36*
X83440263Y-47324278D02*
G01*
X83566342Y-47358060D01*
X83679381Y-47423323D01*
X83771677Y-47515619D01*
X83836940Y-47628658D01*
X83870722Y-47754737D01*
X83870722Y-47885263D01*
X83836940Y-48011342D01*
X83771677Y-48124381D01*
X83679381Y-48216677D01*
X83566342Y-48281940D01*
X83440263Y-48315722D01*
X83375000Y-48320000D01*
X83373341Y-48320000D01*
X82776659Y-48320000D01*
X82775000Y-48320000D01*
X82709737Y-48315722D01*
X82583658Y-48281940D01*
X82470619Y-48216677D01*
X82378323Y-48124381D01*
X82313060Y-48011342D01*
X82279278Y-47885263D01*
X82279278Y-47754737D01*
X82313060Y-47628658D01*
X82378323Y-47515619D01*
X82470619Y-47423323D01*
X82583658Y-47358060D01*
X82709737Y-47324278D01*
X82775000Y-47320000D01*
X83375000Y-47320000D01*
X83440263Y-47324278D01*
G37*
G36*
X50533615Y-47061818D02*
G01*
X50582017Y-47067434D01*
X50598555Y-47074736D01*
X50620387Y-47079079D01*
X50643759Y-47094695D01*
X50663224Y-47103290D01*
X50676517Y-47116583D01*
X50697438Y-47130562D01*
X50711416Y-47151482D01*
X50724709Y-47164775D01*
X50733302Y-47184238D01*
X50748921Y-47207613D01*
X50753264Y-47229446D01*
X50760565Y-47245982D01*
X50766178Y-47294372D01*
X50767000Y-47298500D01*
X50767000Y-47898500D01*
X50766178Y-47902627D01*
X50760565Y-47951017D01*
X50753264Y-47967551D01*
X50748921Y-47989387D01*
X50733301Y-48012763D01*
X50724709Y-48032224D01*
X50711418Y-48045514D01*
X50697438Y-48066438D01*
X50676514Y-48080418D01*
X50663224Y-48093709D01*
X50643763Y-48102301D01*
X50620387Y-48117921D01*
X50598551Y-48122264D01*
X50582017Y-48129565D01*
X50533629Y-48135178D01*
X50529500Y-48136000D01*
X50054500Y-48136000D01*
X50050373Y-48135179D01*
X50001982Y-48129565D01*
X49985446Y-48122264D01*
X49963613Y-48117921D01*
X49940238Y-48102302D01*
X49920775Y-48093709D01*
X49907482Y-48080416D01*
X49886562Y-48066438D01*
X49872583Y-48045517D01*
X49859290Y-48032224D01*
X49850695Y-48012759D01*
X49835079Y-47989387D01*
X49830736Y-47967555D01*
X49823434Y-47951017D01*
X49817818Y-47902616D01*
X49817000Y-47898500D01*
X49817000Y-47298500D01*
X49817818Y-47294385D01*
X49823434Y-47245982D01*
X49830736Y-47229442D01*
X49835079Y-47207613D01*
X49850694Y-47184242D01*
X49859290Y-47164775D01*
X49872585Y-47151479D01*
X49886562Y-47130562D01*
X49907479Y-47116585D01*
X49920775Y-47103290D01*
X49940242Y-47094694D01*
X49963613Y-47079079D01*
X49985442Y-47074736D01*
X50001982Y-47067434D01*
X50050384Y-47061818D01*
X50054500Y-47061000D01*
X50529500Y-47061000D01*
X50533615Y-47061818D01*
G37*
G36*
X52429803Y-45456418D02*
G01*
X52478466Y-45488934D01*
X52510982Y-45537597D01*
X52522400Y-45595000D01*
X52522400Y-47245000D01*
X52510982Y-47302403D01*
X52478466Y-47351066D01*
X52429803Y-47383582D01*
X52372400Y-47395000D01*
X52072400Y-47395000D01*
X52014997Y-47383582D01*
X51966334Y-47351066D01*
X51933818Y-47302403D01*
X51922400Y-47245000D01*
X51922400Y-45595000D01*
X51933818Y-45537597D01*
X51966334Y-45488934D01*
X52014997Y-45456418D01*
X52072400Y-45445000D01*
X52372400Y-45445000D01*
X52429803Y-45456418D01*
G37*
G36*
X53699803Y-45456418D02*
G01*
X53748466Y-45488934D01*
X53780982Y-45537597D01*
X53792400Y-45595000D01*
X53792400Y-47245000D01*
X53780982Y-47302403D01*
X53748466Y-47351066D01*
X53699803Y-47383582D01*
X53642400Y-47395000D01*
X53342400Y-47395000D01*
X53284997Y-47383582D01*
X53236334Y-47351066D01*
X53203818Y-47302403D01*
X53192400Y-47245000D01*
X53192400Y-45595000D01*
X53203818Y-45537597D01*
X53236334Y-45488934D01*
X53284997Y-45456418D01*
X53342400Y-45445000D01*
X53642400Y-45445000D01*
X53699803Y-45456418D01*
G37*
G36*
X54969803Y-45456418D02*
G01*
X55018466Y-45488934D01*
X55050982Y-45537597D01*
X55062400Y-45595000D01*
X55062400Y-47245000D01*
X55050982Y-47302403D01*
X55018466Y-47351066D01*
X54969803Y-47383582D01*
X54912400Y-47395000D01*
X54612400Y-47395000D01*
X54554997Y-47383582D01*
X54506334Y-47351066D01*
X54473818Y-47302403D01*
X54462400Y-47245000D01*
X54462400Y-45595000D01*
X54473818Y-45537597D01*
X54506334Y-45488934D01*
X54554997Y-45456418D01*
X54612400Y-45445000D01*
X54912400Y-45445000D01*
X54969803Y-45456418D01*
G37*
G36*
X56239803Y-45456418D02*
G01*
X56288466Y-45488934D01*
X56320982Y-45537597D01*
X56332400Y-45595000D01*
X56332400Y-47245000D01*
X56320982Y-47302403D01*
X56288466Y-47351066D01*
X56239803Y-47383582D01*
X56182400Y-47395000D01*
X55882400Y-47395000D01*
X55824997Y-47383582D01*
X55776334Y-47351066D01*
X55743818Y-47302403D01*
X55732400Y-47245000D01*
X55732400Y-45595000D01*
X55743818Y-45537597D01*
X55776334Y-45488934D01*
X55824997Y-45456418D01*
X55882400Y-45445000D01*
X56182400Y-45445000D01*
X56239803Y-45456418D01*
G37*
G36*
X79519372Y-46089739D02*
G01*
X79592847Y-46132160D01*
X79652840Y-46192153D01*
X79695261Y-46265628D01*
X79717220Y-46347579D01*
X79717220Y-46432421D01*
X79695261Y-46514372D01*
X79652840Y-46587847D01*
X79592847Y-46647840D01*
X79519372Y-46690261D01*
X79437421Y-46712220D01*
X79352579Y-46712220D01*
X79270628Y-46690261D01*
X79197153Y-46647840D01*
X79137160Y-46587847D01*
X79094739Y-46514372D01*
X79072780Y-46432421D01*
X79072780Y-46347579D01*
X79094739Y-46265628D01*
X79137160Y-46192153D01*
X79197153Y-46132160D01*
X79270628Y-46089739D01*
X79352579Y-46067780D01*
X79437421Y-46067780D01*
X79519372Y-46089739D01*
G37*
G36*
X50533615Y-45336818D02*
G01*
X50582017Y-45342434D01*
X50598555Y-45349736D01*
X50620387Y-45354079D01*
X50643759Y-45369695D01*
X50663224Y-45378290D01*
X50676517Y-45391583D01*
X50697438Y-45405562D01*
X50711416Y-45426482D01*
X50724709Y-45439775D01*
X50733302Y-45459238D01*
X50748921Y-45482613D01*
X50753264Y-45504446D01*
X50760565Y-45520982D01*
X50766178Y-45569372D01*
X50767000Y-45573500D01*
X50767000Y-46173500D01*
X50766178Y-46177627D01*
X50760565Y-46226017D01*
X50753264Y-46242551D01*
X50748921Y-46264387D01*
X50733301Y-46287763D01*
X50724709Y-46307224D01*
X50711418Y-46320514D01*
X50697438Y-46341438D01*
X50676514Y-46355418D01*
X50663224Y-46368709D01*
X50643763Y-46377301D01*
X50620387Y-46392921D01*
X50598551Y-46397264D01*
X50582017Y-46404565D01*
X50533629Y-46410178D01*
X50529500Y-46411000D01*
X50054500Y-46411000D01*
X50050373Y-46410179D01*
X50001982Y-46404565D01*
X49985446Y-46397264D01*
X49963613Y-46392921D01*
X49940238Y-46377302D01*
X49920775Y-46368709D01*
X49907482Y-46355416D01*
X49886562Y-46341438D01*
X49872583Y-46320517D01*
X49859290Y-46307224D01*
X49850695Y-46287759D01*
X49835079Y-46264387D01*
X49830736Y-46242555D01*
X49823434Y-46226017D01*
X49817818Y-46177616D01*
X49817000Y-46173500D01*
X49817000Y-45573500D01*
X49817818Y-45569385D01*
X49823434Y-45520982D01*
X49830736Y-45504442D01*
X49835079Y-45482613D01*
X49850694Y-45459242D01*
X49859290Y-45439775D01*
X49872585Y-45426479D01*
X49886562Y-45405562D01*
X49907479Y-45391585D01*
X49920775Y-45378290D01*
X49940242Y-45369694D01*
X49963613Y-45354079D01*
X49985442Y-45349736D01*
X50001982Y-45342434D01*
X50050384Y-45336818D01*
X50054500Y-45336000D01*
X50529500Y-45336000D01*
X50533615Y-45336818D01*
G37*
G36*
X81002615Y-45347418D02*
G01*
X81051017Y-45353034D01*
X81067555Y-45360336D01*
X81089387Y-45364679D01*
X81112759Y-45380295D01*
X81132224Y-45388890D01*
X81145517Y-45402183D01*
X81166438Y-45416162D01*
X81180416Y-45437082D01*
X81193709Y-45450375D01*
X81202302Y-45469838D01*
X81217921Y-45493213D01*
X81222264Y-45515046D01*
X81229565Y-45531582D01*
X81235178Y-45579972D01*
X81236000Y-45584100D01*
X81236000Y-46059100D01*
X81235178Y-46063227D01*
X81229565Y-46111617D01*
X81222264Y-46128151D01*
X81217921Y-46149987D01*
X81202301Y-46173363D01*
X81193709Y-46192824D01*
X81180418Y-46206114D01*
X81166438Y-46227038D01*
X81145514Y-46241018D01*
X81132224Y-46254309D01*
X81112763Y-46262901D01*
X81089387Y-46278521D01*
X81067551Y-46282864D01*
X81051017Y-46290165D01*
X81002629Y-46295778D01*
X80998500Y-46296600D01*
X80498500Y-46296600D01*
X80494373Y-46295779D01*
X80445982Y-46290165D01*
X80429446Y-46282864D01*
X80407613Y-46278521D01*
X80384238Y-46262902D01*
X80364775Y-46254309D01*
X80351482Y-46241016D01*
X80330562Y-46227038D01*
X80316583Y-46206117D01*
X80303290Y-46192824D01*
X80294695Y-46173359D01*
X80279079Y-46149987D01*
X80274736Y-46128155D01*
X80267434Y-46111617D01*
X80261818Y-46063216D01*
X80261000Y-46059100D01*
X80261000Y-45584100D01*
X80261818Y-45579985D01*
X80267434Y-45531582D01*
X80274736Y-45515042D01*
X80279079Y-45493213D01*
X80294694Y-45469842D01*
X80303290Y-45450375D01*
X80316585Y-45437079D01*
X80330562Y-45416162D01*
X80351479Y-45402185D01*
X80364775Y-45388890D01*
X80384242Y-45380294D01*
X80407613Y-45364679D01*
X80429442Y-45360336D01*
X80445982Y-45353034D01*
X80494384Y-45347418D01*
X80498500Y-45346600D01*
X80998500Y-45346600D01*
X81002615Y-45347418D01*
G37*
G36*
X82827615Y-45347418D02*
G01*
X82876017Y-45353034D01*
X82892555Y-45360336D01*
X82914387Y-45364679D01*
X82937759Y-45380295D01*
X82957224Y-45388890D01*
X82970517Y-45402183D01*
X82991438Y-45416162D01*
X83005416Y-45437082D01*
X83018709Y-45450375D01*
X83027302Y-45469838D01*
X83042921Y-45493213D01*
X83047264Y-45515046D01*
X83054565Y-45531582D01*
X83060178Y-45579972D01*
X83061000Y-45584100D01*
X83061000Y-46059100D01*
X83060178Y-46063227D01*
X83054565Y-46111617D01*
X83047264Y-46128151D01*
X83042921Y-46149987D01*
X83027301Y-46173363D01*
X83018709Y-46192824D01*
X83005418Y-46206114D01*
X82991438Y-46227038D01*
X82970514Y-46241018D01*
X82957224Y-46254309D01*
X82937763Y-46262901D01*
X82914387Y-46278521D01*
X82892551Y-46282864D01*
X82876017Y-46290165D01*
X82827629Y-46295778D01*
X82823500Y-46296600D01*
X82323500Y-46296600D01*
X82319373Y-46295779D01*
X82270982Y-46290165D01*
X82254446Y-46282864D01*
X82232613Y-46278521D01*
X82209238Y-46262902D01*
X82189775Y-46254309D01*
X82176482Y-46241016D01*
X82155562Y-46227038D01*
X82141583Y-46206117D01*
X82128290Y-46192824D01*
X82119695Y-46173359D01*
X82104079Y-46149987D01*
X82099736Y-46128155D01*
X82092434Y-46111617D01*
X82086818Y-46063216D01*
X82086000Y-46059100D01*
X82086000Y-45584100D01*
X82086818Y-45579985D01*
X82092434Y-45531582D01*
X82099736Y-45515042D01*
X82104079Y-45493213D01*
X82119694Y-45469842D01*
X82128290Y-45450375D01*
X82141585Y-45437079D01*
X82155562Y-45416162D01*
X82176479Y-45402185D01*
X82189775Y-45388890D01*
X82209242Y-45380294D01*
X82232613Y-45364679D01*
X82254442Y-45360336D01*
X82270982Y-45353034D01*
X82319384Y-45347418D01*
X82323500Y-45346600D01*
X82823500Y-45346600D01*
X82827615Y-45347418D01*
G37*
G36*
X68402615Y-45118818D02*
G01*
X68451017Y-45124434D01*
X68467555Y-45131736D01*
X68489387Y-45136079D01*
X68512759Y-45151695D01*
X68532224Y-45160290D01*
X68545517Y-45173583D01*
X68566438Y-45187562D01*
X68580416Y-45208482D01*
X68593709Y-45221775D01*
X68602302Y-45241238D01*
X68617921Y-45264613D01*
X68622264Y-45286446D01*
X68629565Y-45302982D01*
X68635178Y-45351372D01*
X68636000Y-45355500D01*
X68636000Y-45830500D01*
X68635178Y-45834627D01*
X68629565Y-45883017D01*
X68622264Y-45899551D01*
X68617921Y-45921387D01*
X68602301Y-45944763D01*
X68593709Y-45964224D01*
X68580418Y-45977514D01*
X68566438Y-45998438D01*
X68545514Y-46012418D01*
X68532224Y-46025709D01*
X68512763Y-46034301D01*
X68489387Y-46049921D01*
X68467551Y-46054264D01*
X68451017Y-46061565D01*
X68402629Y-46067178D01*
X68398500Y-46068000D01*
X67798500Y-46068000D01*
X67794373Y-46067179D01*
X67745982Y-46061565D01*
X67729446Y-46054264D01*
X67707613Y-46049921D01*
X67684238Y-46034302D01*
X67664775Y-46025709D01*
X67651482Y-46012416D01*
X67630562Y-45998438D01*
X67616583Y-45977517D01*
X67603290Y-45964224D01*
X67594695Y-45944759D01*
X67579079Y-45921387D01*
X67574736Y-45899555D01*
X67567434Y-45883017D01*
X67561818Y-45834616D01*
X67561000Y-45830500D01*
X67561000Y-45355500D01*
X67561818Y-45351385D01*
X67567434Y-45302982D01*
X67574736Y-45286442D01*
X67579079Y-45264613D01*
X67594694Y-45241242D01*
X67603290Y-45221775D01*
X67616585Y-45208479D01*
X67630562Y-45187562D01*
X67651479Y-45173585D01*
X67664775Y-45160290D01*
X67684242Y-45151694D01*
X67707613Y-45136079D01*
X67729442Y-45131736D01*
X67745982Y-45124434D01*
X67794384Y-45118818D01*
X67798500Y-45118000D01*
X68398500Y-45118000D01*
X68402615Y-45118818D01*
G37*
G36*
X70127615Y-45118818D02*
G01*
X70176017Y-45124434D01*
X70192555Y-45131736D01*
X70214387Y-45136079D01*
X70237759Y-45151695D01*
X70257224Y-45160290D01*
X70270517Y-45173583D01*
X70291438Y-45187562D01*
X70305416Y-45208482D01*
X70318709Y-45221775D01*
X70327302Y-45241238D01*
X70342921Y-45264613D01*
X70347264Y-45286446D01*
X70354565Y-45302982D01*
X70360178Y-45351372D01*
X70361000Y-45355500D01*
X70361000Y-45830500D01*
X70360178Y-45834627D01*
X70354565Y-45883017D01*
X70347264Y-45899551D01*
X70342921Y-45921387D01*
X70327301Y-45944763D01*
X70318709Y-45964224D01*
X70305418Y-45977514D01*
X70291438Y-45998438D01*
X70270514Y-46012418D01*
X70257224Y-46025709D01*
X70237763Y-46034301D01*
X70214387Y-46049921D01*
X70192551Y-46054264D01*
X70176017Y-46061565D01*
X70127629Y-46067178D01*
X70123500Y-46068000D01*
X69523500Y-46068000D01*
X69519373Y-46067179D01*
X69470982Y-46061565D01*
X69454446Y-46054264D01*
X69432613Y-46049921D01*
X69409238Y-46034302D01*
X69389775Y-46025709D01*
X69376482Y-46012416D01*
X69355562Y-45998438D01*
X69341583Y-45977517D01*
X69328290Y-45964224D01*
X69319695Y-45944759D01*
X69304079Y-45921387D01*
X69299736Y-45899555D01*
X69292434Y-45883017D01*
X69286818Y-45834616D01*
X69286000Y-45830500D01*
X69286000Y-45355500D01*
X69286818Y-45351385D01*
X69292434Y-45302982D01*
X69299736Y-45286442D01*
X69304079Y-45264613D01*
X69319694Y-45241242D01*
X69328290Y-45221775D01*
X69341585Y-45208479D01*
X69355562Y-45187562D01*
X69376479Y-45173585D01*
X69389775Y-45160290D01*
X69409242Y-45151694D01*
X69432613Y-45136079D01*
X69454442Y-45131736D01*
X69470982Y-45124434D01*
X69519384Y-45118818D01*
X69523500Y-45118000D01*
X70123500Y-45118000D01*
X70127615Y-45118818D01*
G37*
G36*
X80156403Y-44146218D02*
G01*
X80205066Y-44178734D01*
X80237582Y-44227397D01*
X80249000Y-44284800D01*
X80249000Y-44684800D01*
X80237582Y-44742203D01*
X80205066Y-44790866D01*
X80156403Y-44823382D01*
X80099000Y-44834800D01*
X79799000Y-44834800D01*
X79741597Y-44823382D01*
X79692934Y-44790866D01*
X79660418Y-44742203D01*
X79649000Y-44684800D01*
X79649000Y-44284800D01*
X79660418Y-44227397D01*
X79692934Y-44178734D01*
X79741597Y-44146218D01*
X79799000Y-44134800D01*
X80099000Y-44134800D01*
X80156403Y-44146218D01*
G37*
G36*
X82056403Y-44146218D02*
G01*
X82105066Y-44178734D01*
X82137582Y-44227397D01*
X82149000Y-44284800D01*
X82149000Y-44684800D01*
X82137582Y-44742203D01*
X82105066Y-44790866D01*
X82056403Y-44823382D01*
X81999000Y-44834800D01*
X81699000Y-44834800D01*
X81641597Y-44823382D01*
X81592934Y-44790866D01*
X81560418Y-44742203D01*
X81549000Y-44684800D01*
X81549000Y-44284800D01*
X81560418Y-44227397D01*
X81592934Y-44178734D01*
X81641597Y-44146218D01*
X81699000Y-44134800D01*
X81999000Y-44134800D01*
X82056403Y-44146218D01*
G37*
G36*
X51025116Y-43525318D02*
G01*
X51076379Y-43531266D01*
X51093892Y-43538999D01*
X51116671Y-43543530D01*
X51141057Y-43559824D01*
X51161788Y-43568978D01*
X51175946Y-43583136D01*
X51197777Y-43597723D01*
X51212363Y-43619553D01*
X51226521Y-43633711D01*
X51235673Y-43654439D01*
X51251970Y-43678829D01*
X51256501Y-43701609D01*
X51264233Y-43719120D01*
X51270178Y-43770372D01*
X51271000Y-43774500D01*
X51271000Y-44449500D01*
X51270178Y-44453628D01*
X51264233Y-44504879D01*
X51256501Y-44522388D01*
X51251970Y-44545171D01*
X51235672Y-44569562D01*
X51226521Y-44590288D01*
X51212365Y-44604443D01*
X51197777Y-44626277D01*
X51175943Y-44640865D01*
X51161788Y-44655021D01*
X51141062Y-44664172D01*
X51116671Y-44680470D01*
X51093888Y-44685001D01*
X51076379Y-44692733D01*
X51025129Y-44698678D01*
X51021000Y-44699500D01*
X50071000Y-44699500D01*
X50066873Y-44698679D01*
X50015620Y-44692733D01*
X49998109Y-44685001D01*
X49975329Y-44680470D01*
X49950939Y-44664173D01*
X49930211Y-44655021D01*
X49916053Y-44640863D01*
X49894223Y-44626277D01*
X49879636Y-44604446D01*
X49865478Y-44590288D01*
X49856324Y-44569557D01*
X49840030Y-44545171D01*
X49835499Y-44522392D01*
X49827766Y-44504879D01*
X49821818Y-44453617D01*
X49821000Y-44449500D01*
X49821000Y-43774500D01*
X49821818Y-43770385D01*
X49827766Y-43719120D01*
X49835499Y-43701605D01*
X49840030Y-43678829D01*
X49856323Y-43654444D01*
X49865478Y-43633711D01*
X49879638Y-43619550D01*
X49894223Y-43597723D01*
X49916050Y-43583138D01*
X49930211Y-43568978D01*
X49950944Y-43559823D01*
X49975329Y-43543530D01*
X49998105Y-43538999D01*
X50015620Y-43531266D01*
X50066884Y-43525318D01*
X50071000Y-43524500D01*
X51021000Y-43524500D01*
X51025116Y-43525318D01*
G37*
G36*
X63139701Y-42927709D02*
G01*
X63164033Y-42943967D01*
X63180291Y-42968299D01*
X63186000Y-42997000D01*
X63186000Y-44322000D01*
X63180291Y-44350701D01*
X63164033Y-44375033D01*
X63139701Y-44391291D01*
X63111000Y-44397000D01*
X62961000Y-44397000D01*
X62932299Y-44391291D01*
X62907967Y-44375033D01*
X62891709Y-44350701D01*
X62886000Y-44322000D01*
X62886000Y-42997000D01*
X62891709Y-42968299D01*
X62907967Y-42943967D01*
X62932299Y-42927709D01*
X62961000Y-42922000D01*
X63111000Y-42922000D01*
X63139701Y-42927709D01*
G37*
G36*
X63639701Y-42927709D02*
G01*
X63664033Y-42943967D01*
X63680291Y-42968299D01*
X63686000Y-42997000D01*
X63686000Y-44322000D01*
X63680291Y-44350701D01*
X63664033Y-44375033D01*
X63639701Y-44391291D01*
X63611000Y-44397000D01*
X63461000Y-44397000D01*
X63432299Y-44391291D01*
X63407967Y-44375033D01*
X63391709Y-44350701D01*
X63386000Y-44322000D01*
X63386000Y-42997000D01*
X63391709Y-42968299D01*
X63407967Y-42943967D01*
X63432299Y-42927709D01*
X63461000Y-42922000D01*
X63611000Y-42922000D01*
X63639701Y-42927709D01*
G37*
G36*
X64139701Y-42927709D02*
G01*
X64164033Y-42943967D01*
X64180291Y-42968299D01*
X64186000Y-42997000D01*
X64186000Y-44322000D01*
X64180291Y-44350701D01*
X64164033Y-44375033D01*
X64139701Y-44391291D01*
X64111000Y-44397000D01*
X63961000Y-44397000D01*
X63932299Y-44391291D01*
X63907967Y-44375033D01*
X63891709Y-44350701D01*
X63886000Y-44322000D01*
X63886000Y-42997000D01*
X63891709Y-42968299D01*
X63907967Y-42943967D01*
X63932299Y-42927709D01*
X63961000Y-42922000D01*
X64111000Y-42922000D01*
X64139701Y-42927709D01*
G37*
G36*
X64639701Y-42927709D02*
G01*
X64664033Y-42943967D01*
X64680291Y-42968299D01*
X64686000Y-42997000D01*
X64686000Y-44322000D01*
X64680291Y-44350701D01*
X64664033Y-44375033D01*
X64639701Y-44391291D01*
X64611000Y-44397000D01*
X64461000Y-44397000D01*
X64432299Y-44391291D01*
X64407967Y-44375033D01*
X64391709Y-44350701D01*
X64386000Y-44322000D01*
X64386000Y-42997000D01*
X64391709Y-42968299D01*
X64407967Y-42943967D01*
X64432299Y-42927709D01*
X64461000Y-42922000D01*
X64611000Y-42922000D01*
X64639701Y-42927709D01*
G37*
G36*
X65139701Y-42927709D02*
G01*
X65164033Y-42943967D01*
X65180291Y-42968299D01*
X65186000Y-42997000D01*
X65186000Y-44322000D01*
X65180291Y-44350701D01*
X65164033Y-44375033D01*
X65139701Y-44391291D01*
X65111000Y-44397000D01*
X64961000Y-44397000D01*
X64932299Y-44391291D01*
X64907967Y-44375033D01*
X64891709Y-44350701D01*
X64886000Y-44322000D01*
X64886000Y-42997000D01*
X64891709Y-42968299D01*
X64907967Y-42943967D01*
X64932299Y-42927709D01*
X64961000Y-42922000D01*
X65111000Y-42922000D01*
X65139701Y-42927709D01*
G37*
G36*
X65639701Y-42927709D02*
G01*
X65664033Y-42943967D01*
X65680291Y-42968299D01*
X65686000Y-42997000D01*
X65686000Y-44322000D01*
X65680291Y-44350701D01*
X65664033Y-44375033D01*
X65639701Y-44391291D01*
X65611000Y-44397000D01*
X65461000Y-44397000D01*
X65432299Y-44391291D01*
X65407967Y-44375033D01*
X65391709Y-44350701D01*
X65386000Y-44322000D01*
X65386000Y-42997000D01*
X65391709Y-42968299D01*
X65407967Y-42943967D01*
X65432299Y-42927709D01*
X65461000Y-42922000D01*
X65611000Y-42922000D01*
X65639701Y-42927709D01*
G37*
G36*
X66139701Y-42927709D02*
G01*
X66164033Y-42943967D01*
X66180291Y-42968299D01*
X66186000Y-42997000D01*
X66186000Y-44322000D01*
X66180291Y-44350701D01*
X66164033Y-44375033D01*
X66139701Y-44391291D01*
X66111000Y-44397000D01*
X65961000Y-44397000D01*
X65932299Y-44391291D01*
X65907967Y-44375033D01*
X65891709Y-44350701D01*
X65886000Y-44322000D01*
X65886000Y-42997000D01*
X65891709Y-42968299D01*
X65907967Y-42943967D01*
X65932299Y-42927709D01*
X65961000Y-42922000D01*
X66111000Y-42922000D01*
X66139701Y-42927709D01*
G37*
G36*
X66639701Y-42927709D02*
G01*
X66664033Y-42943967D01*
X66680291Y-42968299D01*
X66686000Y-42997000D01*
X66686000Y-44322000D01*
X66680291Y-44350701D01*
X66664033Y-44375033D01*
X66639701Y-44391291D01*
X66611000Y-44397000D01*
X66461000Y-44397000D01*
X66432299Y-44391291D01*
X66407967Y-44375033D01*
X66391709Y-44350701D01*
X66386000Y-44322000D01*
X66386000Y-42997000D01*
X66391709Y-42968299D01*
X66407967Y-42943967D01*
X66432299Y-42927709D01*
X66461000Y-42922000D01*
X66611000Y-42922000D01*
X66639701Y-42927709D01*
G37*
G36*
X67139701Y-42927709D02*
G01*
X67164033Y-42943967D01*
X67180291Y-42968299D01*
X67186000Y-42997000D01*
X67186000Y-44322000D01*
X67180291Y-44350701D01*
X67164033Y-44375033D01*
X67139701Y-44391291D01*
X67111000Y-44397000D01*
X66961000Y-44397000D01*
X66932299Y-44391291D01*
X66907967Y-44375033D01*
X66891709Y-44350701D01*
X66886000Y-44322000D01*
X66886000Y-42997000D01*
X66891709Y-42968299D01*
X66907967Y-42943967D01*
X66932299Y-42927709D01*
X66961000Y-42922000D01*
X67111000Y-42922000D01*
X67139701Y-42927709D01*
G37*
G36*
X67639701Y-42927709D02*
G01*
X67664033Y-42943967D01*
X67680291Y-42968299D01*
X67686000Y-42997000D01*
X67686000Y-44322000D01*
X67680291Y-44350701D01*
X67664033Y-44375033D01*
X67639701Y-44391291D01*
X67611000Y-44397000D01*
X67461000Y-44397000D01*
X67432299Y-44391291D01*
X67407967Y-44375033D01*
X67391709Y-44350701D01*
X67386000Y-44322000D01*
X67386000Y-42997000D01*
X67391709Y-42968299D01*
X67407967Y-42943967D01*
X67432299Y-42927709D01*
X67461000Y-42922000D01*
X67611000Y-42922000D01*
X67639701Y-42927709D01*
G37*
G36*
X68139701Y-42927709D02*
G01*
X68164033Y-42943967D01*
X68180291Y-42968299D01*
X68186000Y-42997000D01*
X68186000Y-44322000D01*
X68180291Y-44350701D01*
X68164033Y-44375033D01*
X68139701Y-44391291D01*
X68111000Y-44397000D01*
X67961000Y-44397000D01*
X67932299Y-44391291D01*
X67907967Y-44375033D01*
X67891709Y-44350701D01*
X67886000Y-44322000D01*
X67886000Y-42997000D01*
X67891709Y-42968299D01*
X67907967Y-42943967D01*
X67932299Y-42927709D01*
X67961000Y-42922000D01*
X68111000Y-42922000D01*
X68139701Y-42927709D01*
G37*
G36*
X68639701Y-42927709D02*
G01*
X68664033Y-42943967D01*
X68680291Y-42968299D01*
X68686000Y-42997000D01*
X68686000Y-44322000D01*
X68680291Y-44350701D01*
X68664033Y-44375033D01*
X68639701Y-44391291D01*
X68611000Y-44397000D01*
X68461000Y-44397000D01*
X68432299Y-44391291D01*
X68407967Y-44375033D01*
X68391709Y-44350701D01*
X68386000Y-44322000D01*
X68386000Y-42997000D01*
X68391709Y-42968299D01*
X68407967Y-42943967D01*
X68432299Y-42927709D01*
X68461000Y-42922000D01*
X68611000Y-42922000D01*
X68639701Y-42927709D01*
G37*
G36*
X52447268Y-43431612D02*
G01*
X52479711Y-43453289D01*
X52501388Y-43485732D01*
X52509000Y-43524000D01*
X52509000Y-43974000D01*
X52501388Y-44012268D01*
X52479711Y-44044711D01*
X52447268Y-44066388D01*
X52409000Y-44074000D01*
X52209000Y-44074000D01*
X52170732Y-44066388D01*
X52138289Y-44044711D01*
X52116612Y-44012268D01*
X52109000Y-43974000D01*
X52109000Y-43524000D01*
X52116612Y-43485732D01*
X52138289Y-43453289D01*
X52170732Y-43431612D01*
X52209000Y-43424000D01*
X52409000Y-43424000D01*
X52447268Y-43431612D01*
G37*
G36*
X53097268Y-43431612D02*
G01*
X53129711Y-43453289D01*
X53151388Y-43485732D01*
X53159000Y-43524000D01*
X53159000Y-43974000D01*
X53151388Y-44012268D01*
X53129711Y-44044711D01*
X53097268Y-44066388D01*
X53059000Y-44074000D01*
X52859000Y-44074000D01*
X52820732Y-44066388D01*
X52788289Y-44044711D01*
X52766612Y-44012268D01*
X52759000Y-43974000D01*
X52759000Y-43524000D01*
X52766612Y-43485732D01*
X52788289Y-43453289D01*
X52820732Y-43431612D01*
X52859000Y-43424000D01*
X53059000Y-43424000D01*
X53097268Y-43431612D01*
G37*
G36*
X53747268Y-43431612D02*
G01*
X53779711Y-43453289D01*
X53801388Y-43485732D01*
X53809000Y-43524000D01*
X53809000Y-43974000D01*
X53801388Y-44012268D01*
X53779711Y-44044711D01*
X53747268Y-44066388D01*
X53709000Y-44074000D01*
X53509000Y-44074000D01*
X53470732Y-44066388D01*
X53438289Y-44044711D01*
X53416612Y-44012268D01*
X53409000Y-43974000D01*
X53409000Y-43524000D01*
X53416612Y-43485732D01*
X53438289Y-43453289D01*
X53470732Y-43431612D01*
X53509000Y-43424000D01*
X53709000Y-43424000D01*
X53747268Y-43431612D01*
G37*
G36*
X59703015Y-42007218D02*
G01*
X59751417Y-42012834D01*
X59767955Y-42020136D01*
X59789787Y-42024479D01*
X59813159Y-42040095D01*
X59832624Y-42048690D01*
X59845917Y-42061983D01*
X59866838Y-42075962D01*
X59880816Y-42096882D01*
X59894109Y-42110175D01*
X59902702Y-42129638D01*
X59918321Y-42153013D01*
X59922664Y-42174846D01*
X59929965Y-42191382D01*
X59935578Y-42239772D01*
X59936400Y-42243900D01*
X59936400Y-42843900D01*
X59935578Y-42848027D01*
X59929965Y-42896417D01*
X59922664Y-42912951D01*
X59918321Y-42934787D01*
X59902701Y-42958163D01*
X59894109Y-42977624D01*
X59880818Y-42990914D01*
X59866838Y-43011838D01*
X59845914Y-43025818D01*
X59832624Y-43039109D01*
X59813163Y-43047701D01*
X59789787Y-43063321D01*
X59767951Y-43067664D01*
X59751417Y-43074965D01*
X59703029Y-43080578D01*
X59698900Y-43081400D01*
X59223900Y-43081400D01*
X59219773Y-43080579D01*
X59171382Y-43074965D01*
X59154846Y-43067664D01*
X59133013Y-43063321D01*
X59109638Y-43047702D01*
X59090175Y-43039109D01*
X59076882Y-43025816D01*
X59055962Y-43011838D01*
X59041983Y-42990917D01*
X59028690Y-42977624D01*
X59020095Y-42958159D01*
X59004479Y-42934787D01*
X59000136Y-42912955D01*
X58992834Y-42896417D01*
X58987218Y-42848016D01*
X58986400Y-42843900D01*
X58986400Y-42243900D01*
X58987218Y-42239785D01*
X58992834Y-42191382D01*
X59000136Y-42174842D01*
X59004479Y-42153013D01*
X59020094Y-42129642D01*
X59028690Y-42110175D01*
X59041985Y-42096879D01*
X59055962Y-42075962D01*
X59076879Y-42061985D01*
X59090175Y-42048690D01*
X59109642Y-42040094D01*
X59133013Y-42024479D01*
X59154842Y-42020136D01*
X59171382Y-42012834D01*
X59219784Y-42007218D01*
X59223900Y-42006400D01*
X59698900Y-42006400D01*
X59703015Y-42007218D01*
G37*
G36*
X80156403Y-42146218D02*
G01*
X80205066Y-42178734D01*
X80237582Y-42227397D01*
X80249000Y-42284800D01*
X80249000Y-42684800D01*
X80237582Y-42742203D01*
X80205066Y-42790866D01*
X80156403Y-42823382D01*
X80099000Y-42834800D01*
X79799000Y-42834800D01*
X79741597Y-42823382D01*
X79692934Y-42790866D01*
X79660418Y-42742203D01*
X79649000Y-42684800D01*
X79649000Y-42284800D01*
X79660418Y-42227397D01*
X79692934Y-42178734D01*
X79741597Y-42146218D01*
X79799000Y-42134800D01*
X80099000Y-42134800D01*
X80156403Y-42146218D01*
G37*
G36*
X82040970Y-42148121D02*
G01*
X82097744Y-42186056D01*
X82135679Y-42242830D01*
X82149000Y-42309800D01*
X82149000Y-42659800D01*
X82135679Y-42726770D01*
X82097744Y-42783544D01*
X82040970Y-42821479D01*
X81974000Y-42834800D01*
X81324000Y-42834800D01*
X81257030Y-42821479D01*
X81200256Y-42783544D01*
X81162321Y-42726770D01*
X81149000Y-42659800D01*
X81149000Y-42309800D01*
X81162321Y-42242830D01*
X81200256Y-42186056D01*
X81257030Y-42148121D01*
X81324000Y-42134800D01*
X81974000Y-42134800D01*
X82040970Y-42148121D01*
G37*
G36*
X51025116Y-41450318D02*
G01*
X51076379Y-41456266D01*
X51093892Y-41463999D01*
X51116671Y-41468530D01*
X51141057Y-41484824D01*
X51161788Y-41493978D01*
X51175946Y-41508136D01*
X51197777Y-41522723D01*
X51212363Y-41544553D01*
X51226521Y-41558711D01*
X51235673Y-41579439D01*
X51251970Y-41603829D01*
X51256501Y-41626609D01*
X51264233Y-41644120D01*
X51270178Y-41695372D01*
X51271000Y-41699500D01*
X51271000Y-42374500D01*
X51270178Y-42378628D01*
X51264233Y-42429879D01*
X51256501Y-42447388D01*
X51251970Y-42470171D01*
X51235672Y-42494562D01*
X51226521Y-42515288D01*
X51212365Y-42529443D01*
X51197777Y-42551277D01*
X51175943Y-42565865D01*
X51161788Y-42580021D01*
X51141062Y-42589172D01*
X51116671Y-42605470D01*
X51093888Y-42610001D01*
X51076379Y-42617733D01*
X51025129Y-42623678D01*
X51021000Y-42624500D01*
X50071000Y-42624500D01*
X50066873Y-42623679D01*
X50015620Y-42617733D01*
X49998109Y-42610001D01*
X49975329Y-42605470D01*
X49950939Y-42589173D01*
X49930211Y-42580021D01*
X49916053Y-42565863D01*
X49894223Y-42551277D01*
X49879636Y-42529446D01*
X49865478Y-42515288D01*
X49856324Y-42494557D01*
X49840030Y-42470171D01*
X49835499Y-42447392D01*
X49827766Y-42429879D01*
X49821818Y-42378617D01*
X49821000Y-42374500D01*
X49821000Y-41699500D01*
X49821818Y-41695385D01*
X49827766Y-41644120D01*
X49835499Y-41626605D01*
X49840030Y-41603829D01*
X49856323Y-41579444D01*
X49865478Y-41558711D01*
X49879638Y-41544550D01*
X49894223Y-41522723D01*
X49916050Y-41508138D01*
X49930211Y-41493978D01*
X49950944Y-41484823D01*
X49975329Y-41468530D01*
X49998105Y-41463999D01*
X50015620Y-41456266D01*
X50066884Y-41450318D01*
X50071000Y-41449500D01*
X51021000Y-41449500D01*
X51025116Y-41450318D01*
G37*
G36*
X62314701Y-42102709D02*
G01*
X62339033Y-42118967D01*
X62355291Y-42143299D01*
X62361000Y-42172000D01*
X62361000Y-42322000D01*
X62355291Y-42350701D01*
X62339033Y-42375033D01*
X62314701Y-42391291D01*
X62286000Y-42397000D01*
X60961000Y-42397000D01*
X60932299Y-42391291D01*
X60907967Y-42375033D01*
X60891709Y-42350701D01*
X60886000Y-42322000D01*
X60886000Y-42172000D01*
X60891709Y-42143299D01*
X60907967Y-42118967D01*
X60932299Y-42102709D01*
X60961000Y-42097000D01*
X62286000Y-42097000D01*
X62314701Y-42102709D01*
G37*
G36*
X70639701Y-42102709D02*
G01*
X70664033Y-42118967D01*
X70680291Y-42143299D01*
X70686000Y-42172000D01*
X70686000Y-42322000D01*
X70680291Y-42350701D01*
X70664033Y-42375033D01*
X70639701Y-42391291D01*
X70611000Y-42397000D01*
X69286000Y-42397000D01*
X69257299Y-42391291D01*
X69232967Y-42375033D01*
X69216709Y-42350701D01*
X69211000Y-42322000D01*
X69211000Y-42172000D01*
X69216709Y-42143299D01*
X69232967Y-42118967D01*
X69257299Y-42102709D01*
X69286000Y-42097000D01*
X70611000Y-42097000D01*
X70639701Y-42102709D01*
G37*
G36*
X52447268Y-41531612D02*
G01*
X52479711Y-41553289D01*
X52501388Y-41585732D01*
X52509000Y-41624000D01*
X52509000Y-42074000D01*
X52501388Y-42112268D01*
X52479711Y-42144711D01*
X52447268Y-42166388D01*
X52409000Y-42174000D01*
X52209000Y-42174000D01*
X52170732Y-42166388D01*
X52138289Y-42144711D01*
X52116612Y-42112268D01*
X52109000Y-42074000D01*
X52109000Y-41624000D01*
X52116612Y-41585732D01*
X52138289Y-41553289D01*
X52170732Y-41531612D01*
X52209000Y-41524000D01*
X52409000Y-41524000D01*
X52447268Y-41531612D01*
G37*
G36*
X53097268Y-41531612D02*
G01*
X53129711Y-41553289D01*
X53151388Y-41585732D01*
X53159000Y-41624000D01*
X53159000Y-42074000D01*
X53151388Y-42112268D01*
X53129711Y-42144711D01*
X53097268Y-42166388D01*
X53059000Y-42174000D01*
X52859000Y-42174000D01*
X52820732Y-42166388D01*
X52788289Y-42144711D01*
X52766612Y-42112268D01*
X52759000Y-42074000D01*
X52759000Y-41624000D01*
X52766612Y-41585732D01*
X52788289Y-41553289D01*
X52820732Y-41531612D01*
X52859000Y-41524000D01*
X53059000Y-41524000D01*
X53097268Y-41531612D01*
G37*
G36*
X53747268Y-41531612D02*
G01*
X53779711Y-41553289D01*
X53801388Y-41585732D01*
X53809000Y-41624000D01*
X53809000Y-42074000D01*
X53801388Y-42112268D01*
X53779711Y-42144711D01*
X53747268Y-42166388D01*
X53709000Y-42174000D01*
X53509000Y-42174000D01*
X53470732Y-42166388D01*
X53438289Y-42144711D01*
X53416612Y-42112268D01*
X53409000Y-42074000D01*
X53409000Y-41624000D01*
X53416612Y-41585732D01*
X53438289Y-41553289D01*
X53470732Y-41531612D01*
X53509000Y-41524000D01*
X53709000Y-41524000D01*
X53747268Y-41531612D01*
G37*
G36*
X62314701Y-41602709D02*
G01*
X62339033Y-41618967D01*
X62355291Y-41643299D01*
X62361000Y-41672000D01*
X62361000Y-41822000D01*
X62355291Y-41850701D01*
X62339033Y-41875033D01*
X62314701Y-41891291D01*
X62286000Y-41897000D01*
X60961000Y-41897000D01*
X60932299Y-41891291D01*
X60907967Y-41875033D01*
X60891709Y-41850701D01*
X60886000Y-41822000D01*
X60886000Y-41672000D01*
X60891709Y-41643299D01*
X60907967Y-41618967D01*
X60932299Y-41602709D01*
X60961000Y-41597000D01*
X62286000Y-41597000D01*
X62314701Y-41602709D01*
G37*
G36*
X70639701Y-41602709D02*
G01*
X70664033Y-41618967D01*
X70680291Y-41643299D01*
X70686000Y-41672000D01*
X70686000Y-41822000D01*
X70680291Y-41850701D01*
X70664033Y-41875033D01*
X70639701Y-41891291D01*
X70611000Y-41897000D01*
X69286000Y-41897000D01*
X69257299Y-41891291D01*
X69232967Y-41875033D01*
X69216709Y-41850701D01*
X69211000Y-41822000D01*
X69211000Y-41672000D01*
X69216709Y-41643299D01*
X69232967Y-41618967D01*
X69257299Y-41602709D01*
X69286000Y-41597000D01*
X70611000Y-41597000D01*
X70639701Y-41602709D01*
G37*
G36*
X81002615Y-40648418D02*
G01*
X81051017Y-40654034D01*
X81067555Y-40661336D01*
X81089387Y-40665679D01*
X81112759Y-40681295D01*
X81132224Y-40689890D01*
X81145517Y-40703183D01*
X81166438Y-40717162D01*
X81180416Y-40738082D01*
X81193709Y-40751375D01*
X81202302Y-40770838D01*
X81217921Y-40794213D01*
X81222264Y-40816046D01*
X81229565Y-40832582D01*
X81235178Y-40880972D01*
X81236000Y-40885100D01*
X81236000Y-41360100D01*
X81235178Y-41364227D01*
X81229565Y-41412617D01*
X81222264Y-41429151D01*
X81217921Y-41450987D01*
X81202301Y-41474363D01*
X81193709Y-41493824D01*
X81180418Y-41507114D01*
X81166438Y-41528038D01*
X81145514Y-41542018D01*
X81132224Y-41555309D01*
X81112763Y-41563901D01*
X81089387Y-41579521D01*
X81067551Y-41583864D01*
X81051017Y-41591165D01*
X81002629Y-41596778D01*
X80998500Y-41597600D01*
X80498500Y-41597600D01*
X80494373Y-41596779D01*
X80445982Y-41591165D01*
X80429446Y-41583864D01*
X80407613Y-41579521D01*
X80384238Y-41563902D01*
X80364775Y-41555309D01*
X80351482Y-41542016D01*
X80330562Y-41528038D01*
X80316583Y-41507117D01*
X80303290Y-41493824D01*
X80294695Y-41474359D01*
X80279079Y-41450987D01*
X80274736Y-41429155D01*
X80267434Y-41412617D01*
X80261818Y-41364216D01*
X80261000Y-41360100D01*
X80261000Y-40885100D01*
X80261818Y-40880985D01*
X80267434Y-40832582D01*
X80274736Y-40816042D01*
X80279079Y-40794213D01*
X80294694Y-40770842D01*
X80303290Y-40751375D01*
X80316585Y-40738079D01*
X80330562Y-40717162D01*
X80351479Y-40703185D01*
X80364775Y-40689890D01*
X80384242Y-40681294D01*
X80407613Y-40665679D01*
X80429442Y-40661336D01*
X80445982Y-40654034D01*
X80494384Y-40648418D01*
X80498500Y-40647600D01*
X80998500Y-40647600D01*
X81002615Y-40648418D01*
G37*
G36*
X82827615Y-40648418D02*
G01*
X82876017Y-40654034D01*
X82892555Y-40661336D01*
X82914387Y-40665679D01*
X82937759Y-40681295D01*
X82957224Y-40689890D01*
X82970517Y-40703183D01*
X82991438Y-40717162D01*
X83005416Y-40738082D01*
X83018709Y-40751375D01*
X83027302Y-40770838D01*
X83042921Y-40794213D01*
X83047264Y-40816046D01*
X83054565Y-40832582D01*
X83060178Y-40880972D01*
X83061000Y-40885100D01*
X83061000Y-41360100D01*
X83060178Y-41364227D01*
X83054565Y-41412617D01*
X83047264Y-41429151D01*
X83042921Y-41450987D01*
X83027301Y-41474363D01*
X83018709Y-41493824D01*
X83005418Y-41507114D01*
X82991438Y-41528038D01*
X82970514Y-41542018D01*
X82957224Y-41555309D01*
X82937763Y-41563901D01*
X82914387Y-41579521D01*
X82892551Y-41583864D01*
X82876017Y-41591165D01*
X82827629Y-41596778D01*
X82823500Y-41597600D01*
X82323500Y-41597600D01*
X82319373Y-41596779D01*
X82270982Y-41591165D01*
X82254446Y-41583864D01*
X82232613Y-41579521D01*
X82209238Y-41563902D01*
X82189775Y-41555309D01*
X82176482Y-41542016D01*
X82155562Y-41528038D01*
X82141583Y-41507117D01*
X82128290Y-41493824D01*
X82119695Y-41474359D01*
X82104079Y-41450987D01*
X82099736Y-41429155D01*
X82092434Y-41412617D01*
X82086818Y-41364216D01*
X82086000Y-41360100D01*
X82086000Y-40885100D01*
X82086818Y-40880985D01*
X82092434Y-40832582D01*
X82099736Y-40816042D01*
X82104079Y-40794213D01*
X82119694Y-40770842D01*
X82128290Y-40751375D01*
X82141585Y-40738079D01*
X82155562Y-40717162D01*
X82176479Y-40703185D01*
X82189775Y-40689890D01*
X82209242Y-40681294D01*
X82232613Y-40665679D01*
X82254442Y-40661336D01*
X82270982Y-40654034D01*
X82319384Y-40648418D01*
X82323500Y-40647600D01*
X82823500Y-40647600D01*
X82827615Y-40648418D01*
G37*
G36*
X62314701Y-41102709D02*
G01*
X62339033Y-41118967D01*
X62355291Y-41143299D01*
X62361000Y-41172000D01*
X62361000Y-41322000D01*
X62355291Y-41350701D01*
X62339033Y-41375033D01*
X62314701Y-41391291D01*
X62286000Y-41397000D01*
X60961000Y-41397000D01*
X60932299Y-41391291D01*
X60907967Y-41375033D01*
X60891709Y-41350701D01*
X60886000Y-41322000D01*
X60886000Y-41172000D01*
X60891709Y-41143299D01*
X60907967Y-41118967D01*
X60932299Y-41102709D01*
X60961000Y-41097000D01*
X62286000Y-41097000D01*
X62314701Y-41102709D01*
G37*
G36*
X70639701Y-41102709D02*
G01*
X70664033Y-41118967D01*
X70680291Y-41143299D01*
X70686000Y-41172000D01*
X70686000Y-41322000D01*
X70680291Y-41350701D01*
X70664033Y-41375033D01*
X70639701Y-41391291D01*
X70611000Y-41397000D01*
X69286000Y-41397000D01*
X69257299Y-41391291D01*
X69232967Y-41375033D01*
X69216709Y-41350701D01*
X69211000Y-41322000D01*
X69211000Y-41172000D01*
X69216709Y-41143299D01*
X69232967Y-41118967D01*
X69257299Y-41102709D01*
X69286000Y-41097000D01*
X70611000Y-41097000D01*
X70639701Y-41102709D01*
G37*
G36*
X59703015Y-40282218D02*
G01*
X59751417Y-40287834D01*
X59767955Y-40295136D01*
X59789787Y-40299479D01*
X59813159Y-40315095D01*
X59832624Y-40323690D01*
X59845917Y-40336983D01*
X59866838Y-40350962D01*
X59880816Y-40371882D01*
X59894109Y-40385175D01*
X59902702Y-40404638D01*
X59918321Y-40428013D01*
X59922664Y-40449846D01*
X59929965Y-40466382D01*
X59935578Y-40514772D01*
X59936400Y-40518900D01*
X59936400Y-41118900D01*
X59935578Y-41123027D01*
X59929965Y-41171417D01*
X59922664Y-41187951D01*
X59918321Y-41209787D01*
X59902701Y-41233163D01*
X59894109Y-41252624D01*
X59880818Y-41265914D01*
X59866838Y-41286838D01*
X59845914Y-41300818D01*
X59832624Y-41314109D01*
X59813163Y-41322701D01*
X59789787Y-41338321D01*
X59767951Y-41342664D01*
X59751417Y-41349965D01*
X59703029Y-41355578D01*
X59698900Y-41356400D01*
X59223900Y-41356400D01*
X59219773Y-41355579D01*
X59171382Y-41349965D01*
X59154846Y-41342664D01*
X59133013Y-41338321D01*
X59109638Y-41322702D01*
X59090175Y-41314109D01*
X59076882Y-41300816D01*
X59055962Y-41286838D01*
X59041983Y-41265917D01*
X59028690Y-41252624D01*
X59020095Y-41233159D01*
X59004479Y-41209787D01*
X59000136Y-41187955D01*
X58992834Y-41171417D01*
X58987218Y-41123016D01*
X58986400Y-41118900D01*
X58986400Y-40518900D01*
X58987218Y-40514785D01*
X58992834Y-40466382D01*
X59000136Y-40449842D01*
X59004479Y-40428013D01*
X59020094Y-40404642D01*
X59028690Y-40385175D01*
X59041985Y-40371879D01*
X59055962Y-40350962D01*
X59076879Y-40336985D01*
X59090175Y-40323690D01*
X59109642Y-40315094D01*
X59133013Y-40299479D01*
X59154842Y-40295136D01*
X59171382Y-40287834D01*
X59219784Y-40282218D01*
X59223900Y-40281400D01*
X59698900Y-40281400D01*
X59703015Y-40282218D01*
G37*
G36*
X79519372Y-40309739D02*
G01*
X79592847Y-40352160D01*
X79652840Y-40412153D01*
X79695261Y-40485628D01*
X79717220Y-40567579D01*
X79717220Y-40652421D01*
X79695261Y-40734372D01*
X79652840Y-40807847D01*
X79592847Y-40867840D01*
X79519372Y-40910261D01*
X79437421Y-40932220D01*
X79352579Y-40932220D01*
X79270628Y-40910261D01*
X79197153Y-40867840D01*
X79137160Y-40807847D01*
X79094739Y-40734372D01*
X79072780Y-40652421D01*
X79072780Y-40567579D01*
X79094739Y-40485628D01*
X79137160Y-40412153D01*
X79197153Y-40352160D01*
X79270628Y-40309739D01*
X79352579Y-40287780D01*
X79437421Y-40287780D01*
X79519372Y-40309739D01*
G37*
G36*
X62314701Y-40602709D02*
G01*
X62339033Y-40618967D01*
X62355291Y-40643299D01*
X62361000Y-40672000D01*
X62361000Y-40822000D01*
X62355291Y-40850701D01*
X62339033Y-40875033D01*
X62314701Y-40891291D01*
X62286000Y-40897000D01*
X60961000Y-40897000D01*
X60932299Y-40891291D01*
X60907967Y-40875033D01*
X60891709Y-40850701D01*
X60886000Y-40822000D01*
X60886000Y-40672000D01*
X60891709Y-40643299D01*
X60907967Y-40618967D01*
X60932299Y-40602709D01*
X60961000Y-40597000D01*
X62286000Y-40597000D01*
X62314701Y-40602709D01*
G37*
G36*
X70639701Y-40602709D02*
G01*
X70664033Y-40618967D01*
X70680291Y-40643299D01*
X70686000Y-40672000D01*
X70686000Y-40822000D01*
X70680291Y-40850701D01*
X70664033Y-40875033D01*
X70639701Y-40891291D01*
X70611000Y-40897000D01*
X69286000Y-40897000D01*
X69257299Y-40891291D01*
X69232967Y-40875033D01*
X69216709Y-40850701D01*
X69211000Y-40822000D01*
X69211000Y-40672000D01*
X69216709Y-40643299D01*
X69232967Y-40618967D01*
X69257299Y-40602709D01*
X69286000Y-40597000D01*
X70611000Y-40597000D01*
X70639701Y-40602709D01*
G37*
G36*
X57613104Y-39839127D02*
G01*
X57686099Y-39887901D01*
X57734873Y-39960896D01*
X57752000Y-40047000D01*
X57752000Y-40497000D01*
X57734873Y-40583104D01*
X57686099Y-40656099D01*
X57613104Y-40704873D01*
X57527000Y-40722000D01*
X57027000Y-40722000D01*
X56940896Y-40704873D01*
X56867901Y-40656099D01*
X56819127Y-40583104D01*
X56802000Y-40497000D01*
X56802000Y-40047000D01*
X56819127Y-39960896D01*
X56867901Y-39887901D01*
X56940896Y-39839127D01*
X57027000Y-39822000D01*
X57527000Y-39822000D01*
X57613104Y-39839127D01*
G37*
G36*
X62314701Y-40102709D02*
G01*
X62339033Y-40118967D01*
X62355291Y-40143299D01*
X62361000Y-40172000D01*
X62361000Y-40322000D01*
X62355291Y-40350701D01*
X62339033Y-40375033D01*
X62314701Y-40391291D01*
X62286000Y-40397000D01*
X60961000Y-40397000D01*
X60932299Y-40391291D01*
X60907967Y-40375033D01*
X60891709Y-40350701D01*
X60886000Y-40322000D01*
X60886000Y-40172000D01*
X60891709Y-40143299D01*
X60907967Y-40118967D01*
X60932299Y-40102709D01*
X60961000Y-40097000D01*
X62286000Y-40097000D01*
X62314701Y-40102709D01*
G37*
G36*
X70639701Y-40102709D02*
G01*
X70664033Y-40118967D01*
X70680291Y-40143299D01*
X70686000Y-40172000D01*
X70686000Y-40322000D01*
X70680291Y-40350701D01*
X70664033Y-40375033D01*
X70639701Y-40391291D01*
X70611000Y-40397000D01*
X69286000Y-40397000D01*
X69257299Y-40391291D01*
X69232967Y-40375033D01*
X69216709Y-40350701D01*
X69211000Y-40322000D01*
X69211000Y-40172000D01*
X69216709Y-40143299D01*
X69232967Y-40118967D01*
X69257299Y-40102709D01*
X69286000Y-40097000D01*
X70611000Y-40097000D01*
X70639701Y-40102709D01*
G37*
G36*
X62314701Y-39602709D02*
G01*
X62339033Y-39618967D01*
X62355291Y-39643299D01*
X62361000Y-39672000D01*
X62361000Y-39822000D01*
X62355291Y-39850701D01*
X62339033Y-39875033D01*
X62314701Y-39891291D01*
X62286000Y-39897000D01*
X60961000Y-39897000D01*
X60932299Y-39891291D01*
X60907967Y-39875033D01*
X60891709Y-39850701D01*
X60886000Y-39822000D01*
X60886000Y-39672000D01*
X60891709Y-39643299D01*
X60907967Y-39618967D01*
X60932299Y-39602709D01*
X60961000Y-39597000D01*
X62286000Y-39597000D01*
X62314701Y-39602709D01*
G37*
G36*
X70639701Y-39602709D02*
G01*
X70664033Y-39618967D01*
X70680291Y-39643299D01*
X70686000Y-39672000D01*
X70686000Y-39822000D01*
X70680291Y-39850701D01*
X70664033Y-39875033D01*
X70639701Y-39891291D01*
X70611000Y-39897000D01*
X69286000Y-39897000D01*
X69257299Y-39891291D01*
X69232967Y-39875033D01*
X69216709Y-39850701D01*
X69211000Y-39822000D01*
X69211000Y-39672000D01*
X69216709Y-39643299D01*
X69232967Y-39618967D01*
X69257299Y-39602709D01*
X69286000Y-39597000D01*
X70611000Y-39597000D01*
X70639701Y-39602709D01*
G37*
G36*
X60209000Y-39723000D02*
G01*
X58409000Y-39723000D01*
X58409000Y-38723000D01*
X60209000Y-38723000D01*
X60209000Y-39723000D01*
G37*
G36*
X79510263Y-38684278D02*
G01*
X79636342Y-38718060D01*
X79749381Y-38783323D01*
X79841677Y-38875619D01*
X79906940Y-38988658D01*
X79940722Y-39114737D01*
X79940722Y-39245263D01*
X79906940Y-39371342D01*
X79841677Y-39484381D01*
X79749381Y-39576677D01*
X79636342Y-39641940D01*
X79510263Y-39675722D01*
X79445000Y-39680000D01*
X79443341Y-39680000D01*
X78346659Y-39680000D01*
X78345000Y-39680000D01*
X78279737Y-39675722D01*
X78153658Y-39641940D01*
X78040619Y-39576677D01*
X77948323Y-39484381D01*
X77883060Y-39371342D01*
X77849278Y-39245263D01*
X77849278Y-39114737D01*
X77883060Y-38988658D01*
X77948323Y-38875619D01*
X78040619Y-38783323D01*
X78153658Y-38718060D01*
X78279737Y-38684278D01*
X78345000Y-38680000D01*
X79445000Y-38680000D01*
X79510263Y-38684278D01*
G37*
G36*
X83440263Y-38684278D02*
G01*
X83566342Y-38718060D01*
X83679381Y-38783323D01*
X83771677Y-38875619D01*
X83836940Y-38988658D01*
X83870722Y-39114737D01*
X83870722Y-39245263D01*
X83836940Y-39371342D01*
X83771677Y-39484381D01*
X83679381Y-39576677D01*
X83566342Y-39641940D01*
X83440263Y-39675722D01*
X83375000Y-39680000D01*
X83373341Y-39680000D01*
X82776659Y-39680000D01*
X82775000Y-39680000D01*
X82709737Y-39675722D01*
X82583658Y-39641940D01*
X82470619Y-39576677D01*
X82378323Y-39484381D01*
X82313060Y-39371342D01*
X82279278Y-39245263D01*
X82279278Y-39114737D01*
X82313060Y-38988658D01*
X82378323Y-38875619D01*
X82470619Y-38783323D01*
X82583658Y-38718060D01*
X82709737Y-38684278D01*
X82775000Y-38680000D01*
X83375000Y-38680000D01*
X83440263Y-38684278D01*
G37*
G36*
X50890714Y-38017295D02*
G01*
X51026548Y-38073559D01*
X51148795Y-38155242D01*
X51252758Y-38259205D01*
X51334441Y-38381452D01*
X51390705Y-38517286D01*
X51419389Y-38661487D01*
X51419389Y-38808513D01*
X51390705Y-38952714D01*
X51334441Y-39088548D01*
X51252758Y-39210795D01*
X51148795Y-39314758D01*
X51026548Y-39396441D01*
X50890714Y-39452705D01*
X50746513Y-39481389D01*
X50599487Y-39481389D01*
X50455286Y-39452705D01*
X50319452Y-39396441D01*
X50197205Y-39314758D01*
X50093242Y-39210795D01*
X50011559Y-39088548D01*
X49955295Y-38952714D01*
X49926611Y-38808513D01*
X49926611Y-38661487D01*
X49955295Y-38517286D01*
X50011559Y-38381452D01*
X50093242Y-38259205D01*
X50197205Y-38155242D01*
X50319452Y-38073559D01*
X50455286Y-38017295D01*
X50599487Y-37988611D01*
X50746513Y-37988611D01*
X50890714Y-38017295D01*
G37*
G36*
X62314701Y-39102709D02*
G01*
X62339033Y-39118967D01*
X62355291Y-39143299D01*
X62361000Y-39172000D01*
X62361000Y-39322000D01*
X62355291Y-39350701D01*
X62339033Y-39375033D01*
X62314701Y-39391291D01*
X62286000Y-39397000D01*
X60961000Y-39397000D01*
X60932299Y-39391291D01*
X60907967Y-39375033D01*
X60891709Y-39350701D01*
X60886000Y-39322000D01*
X60886000Y-39172000D01*
X60891709Y-39143299D01*
X60907967Y-39118967D01*
X60932299Y-39102709D01*
X60961000Y-39097000D01*
X62286000Y-39097000D01*
X62314701Y-39102709D01*
G37*
G36*
X70639701Y-39102709D02*
G01*
X70664033Y-39118967D01*
X70680291Y-39143299D01*
X70686000Y-39172000D01*
X70686000Y-39322000D01*
X70680291Y-39350701D01*
X70664033Y-39375033D01*
X70639701Y-39391291D01*
X70611000Y-39397000D01*
X69286000Y-39397000D01*
X69257299Y-39391291D01*
X69232967Y-39375033D01*
X69216709Y-39350701D01*
X69211000Y-39322000D01*
X69211000Y-39172000D01*
X69216709Y-39143299D01*
X69232967Y-39118967D01*
X69257299Y-39102709D01*
X69286000Y-39097000D01*
X70611000Y-39097000D01*
X70639701Y-39102709D01*
G37*
G36*
X52935615Y-38260818D02*
G01*
X52984017Y-38266434D01*
X53000555Y-38273736D01*
X53022387Y-38278079D01*
X53045759Y-38293695D01*
X53065224Y-38302290D01*
X53078517Y-38315583D01*
X53099438Y-38329562D01*
X53113416Y-38350482D01*
X53126709Y-38363775D01*
X53135302Y-38383238D01*
X53150921Y-38406613D01*
X53155264Y-38428446D01*
X53162565Y-38444982D01*
X53168178Y-38493372D01*
X53169000Y-38497500D01*
X53169000Y-38972500D01*
X53168178Y-38976627D01*
X53162565Y-39025017D01*
X53155264Y-39041551D01*
X53150921Y-39063387D01*
X53135301Y-39086763D01*
X53126709Y-39106224D01*
X53113418Y-39119514D01*
X53099438Y-39140438D01*
X53078514Y-39154418D01*
X53065224Y-39167709D01*
X53045763Y-39176301D01*
X53022387Y-39191921D01*
X53000551Y-39196264D01*
X52984017Y-39203565D01*
X52935629Y-39209178D01*
X52931500Y-39210000D01*
X52431500Y-39210000D01*
X52427373Y-39209179D01*
X52378982Y-39203565D01*
X52362446Y-39196264D01*
X52340613Y-39191921D01*
X52317238Y-39176302D01*
X52297775Y-39167709D01*
X52284482Y-39154416D01*
X52263562Y-39140438D01*
X52249583Y-39119517D01*
X52236290Y-39106224D01*
X52227695Y-39086759D01*
X52212079Y-39063387D01*
X52207736Y-39041555D01*
X52200434Y-39025017D01*
X52194818Y-38976616D01*
X52194000Y-38972500D01*
X52194000Y-38497500D01*
X52194818Y-38493385D01*
X52200434Y-38444982D01*
X52207736Y-38428442D01*
X52212079Y-38406613D01*
X52227694Y-38383242D01*
X52236290Y-38363775D01*
X52249585Y-38350479D01*
X52263562Y-38329562D01*
X52284479Y-38315585D01*
X52297775Y-38302290D01*
X52317242Y-38293694D01*
X52340613Y-38278079D01*
X52362442Y-38273736D01*
X52378982Y-38266434D01*
X52427384Y-38260818D01*
X52431500Y-38260000D01*
X52931500Y-38260000D01*
X52935615Y-38260818D01*
G37*
G36*
X54760615Y-38260818D02*
G01*
X54809017Y-38266434D01*
X54825555Y-38273736D01*
X54847387Y-38278079D01*
X54870759Y-38293695D01*
X54890224Y-38302290D01*
X54903517Y-38315583D01*
X54924438Y-38329562D01*
X54938416Y-38350482D01*
X54951709Y-38363775D01*
X54960302Y-38383238D01*
X54975921Y-38406613D01*
X54980264Y-38428446D01*
X54987565Y-38444982D01*
X54993178Y-38493372D01*
X54994000Y-38497500D01*
X54994000Y-38972500D01*
X54993178Y-38976627D01*
X54987565Y-39025017D01*
X54980264Y-39041551D01*
X54975921Y-39063387D01*
X54960301Y-39086763D01*
X54951709Y-39106224D01*
X54938418Y-39119514D01*
X54924438Y-39140438D01*
X54903514Y-39154418D01*
X54890224Y-39167709D01*
X54870763Y-39176301D01*
X54847387Y-39191921D01*
X54825551Y-39196264D01*
X54809017Y-39203565D01*
X54760629Y-39209178D01*
X54756500Y-39210000D01*
X54256500Y-39210000D01*
X54252373Y-39209179D01*
X54203982Y-39203565D01*
X54187446Y-39196264D01*
X54165613Y-39191921D01*
X54142238Y-39176302D01*
X54122775Y-39167709D01*
X54109482Y-39154416D01*
X54088562Y-39140438D01*
X54074583Y-39119517D01*
X54061290Y-39106224D01*
X54052695Y-39086759D01*
X54037079Y-39063387D01*
X54032736Y-39041555D01*
X54025434Y-39025017D01*
X54019818Y-38976616D01*
X54019000Y-38972500D01*
X54019000Y-38497500D01*
X54019818Y-38493385D01*
X54025434Y-38444982D01*
X54032736Y-38428442D01*
X54037079Y-38406613D01*
X54052694Y-38383242D01*
X54061290Y-38363775D01*
X54074585Y-38350479D01*
X54088562Y-38329562D01*
X54109479Y-38315585D01*
X54122775Y-38302290D01*
X54142242Y-38293694D01*
X54165613Y-38278079D01*
X54187442Y-38273736D01*
X54203982Y-38266434D01*
X54252384Y-38260818D01*
X54256500Y-38260000D01*
X54756500Y-38260000D01*
X54760615Y-38260818D01*
G37*
G36*
X57613104Y-38289127D02*
G01*
X57686099Y-38337901D01*
X57734873Y-38410896D01*
X57752000Y-38497000D01*
X57752000Y-38947000D01*
X57734873Y-39033104D01*
X57686099Y-39106099D01*
X57613104Y-39154873D01*
X57527000Y-39172000D01*
X57027000Y-39172000D01*
X56940896Y-39154873D01*
X56867901Y-39106099D01*
X56819127Y-39033104D01*
X56802000Y-38947000D01*
X56802000Y-38497000D01*
X56819127Y-38410896D01*
X56867901Y-38337901D01*
X56940896Y-38289127D01*
X57027000Y-38272000D01*
X57527000Y-38272000D01*
X57613104Y-38289127D01*
G37*
G36*
X62314701Y-38602709D02*
G01*
X62339033Y-38618967D01*
X62355291Y-38643299D01*
X62361000Y-38672000D01*
X62361000Y-38822000D01*
X62355291Y-38850701D01*
X62339033Y-38875033D01*
X62314701Y-38891291D01*
X62286000Y-38897000D01*
X60961000Y-38897000D01*
X60932299Y-38891291D01*
X60907967Y-38875033D01*
X60891709Y-38850701D01*
X60886000Y-38822000D01*
X60886000Y-38672000D01*
X60891709Y-38643299D01*
X60907967Y-38618967D01*
X60932299Y-38602709D01*
X60961000Y-38597000D01*
X62286000Y-38597000D01*
X62314701Y-38602709D01*
G37*
G36*
X70639701Y-38602709D02*
G01*
X70664033Y-38618967D01*
X70680291Y-38643299D01*
X70686000Y-38672000D01*
X70686000Y-38822000D01*
X70680291Y-38850701D01*
X70664033Y-38875033D01*
X70639701Y-38891291D01*
X70611000Y-38897000D01*
X69286000Y-38897000D01*
X69257299Y-38891291D01*
X69232967Y-38875033D01*
X69216709Y-38850701D01*
X69211000Y-38822000D01*
X69211000Y-38672000D01*
X69216709Y-38643299D01*
X69232967Y-38618967D01*
X69257299Y-38602709D01*
X69286000Y-38597000D01*
X70611000Y-38597000D01*
X70639701Y-38602709D01*
G37*
G36*
X62314701Y-38102709D02*
G01*
X62339033Y-38118967D01*
X62355291Y-38143299D01*
X62361000Y-38172000D01*
X62361000Y-38322000D01*
X62355291Y-38350701D01*
X62339033Y-38375033D01*
X62314701Y-38391291D01*
X62286000Y-38397000D01*
X60961000Y-38397000D01*
X60932299Y-38391291D01*
X60907967Y-38375033D01*
X60891709Y-38350701D01*
X60886000Y-38322000D01*
X60886000Y-38172000D01*
X60891709Y-38143299D01*
X60907967Y-38118967D01*
X60932299Y-38102709D01*
X60961000Y-38097000D01*
X62286000Y-38097000D01*
X62314701Y-38102709D01*
G37*
G36*
X70639701Y-38102709D02*
G01*
X70664033Y-38118967D01*
X70680291Y-38143299D01*
X70686000Y-38172000D01*
X70686000Y-38322000D01*
X70680291Y-38350701D01*
X70664033Y-38375033D01*
X70639701Y-38391291D01*
X70611000Y-38397000D01*
X69286000Y-38397000D01*
X69257299Y-38391291D01*
X69232967Y-38375033D01*
X69216709Y-38350701D01*
X69211000Y-38322000D01*
X69211000Y-38172000D01*
X69216709Y-38143299D01*
X69232967Y-38118967D01*
X69257299Y-38102709D01*
X69286000Y-38097000D01*
X70611000Y-38097000D01*
X70639701Y-38102709D01*
G37*
G36*
X62314701Y-37602709D02*
G01*
X62339033Y-37618967D01*
X62355291Y-37643299D01*
X62361000Y-37672000D01*
X62361000Y-37822000D01*
X62355291Y-37850701D01*
X62339033Y-37875033D01*
X62314701Y-37891291D01*
X62286000Y-37897000D01*
X60961000Y-37897000D01*
X60932299Y-37891291D01*
X60907967Y-37875033D01*
X60891709Y-37850701D01*
X60886000Y-37822000D01*
X60886000Y-37672000D01*
X60891709Y-37643299D01*
X60907967Y-37618967D01*
X60932299Y-37602709D01*
X60961000Y-37597000D01*
X62286000Y-37597000D01*
X62314701Y-37602709D01*
G37*
G36*
X70639701Y-37602709D02*
G01*
X70664033Y-37618967D01*
X70680291Y-37643299D01*
X70686000Y-37672000D01*
X70686000Y-37822000D01*
X70680291Y-37850701D01*
X70664033Y-37875033D01*
X70639701Y-37891291D01*
X70611000Y-37897000D01*
X69286000Y-37897000D01*
X69257299Y-37891291D01*
X69232967Y-37875033D01*
X69216709Y-37850701D01*
X69211000Y-37822000D01*
X69211000Y-37672000D01*
X69216709Y-37643299D01*
X69232967Y-37618967D01*
X69257299Y-37602709D01*
X69286000Y-37597000D01*
X70611000Y-37597000D01*
X70639701Y-37602709D01*
G37*
G36*
X77292615Y-36863818D02*
G01*
X77341017Y-36869434D01*
X77357555Y-36876736D01*
X77379387Y-36881079D01*
X77402759Y-36896695D01*
X77422224Y-36905290D01*
X77435517Y-36918583D01*
X77456438Y-36932562D01*
X77470416Y-36953482D01*
X77483709Y-36966775D01*
X77492302Y-36986238D01*
X77507921Y-37009613D01*
X77512264Y-37031446D01*
X77519565Y-37047982D01*
X77525178Y-37096372D01*
X77526000Y-37100500D01*
X77526000Y-37575500D01*
X77525178Y-37579627D01*
X77519565Y-37628017D01*
X77512264Y-37644551D01*
X77507921Y-37666387D01*
X77492301Y-37689763D01*
X77483709Y-37709224D01*
X77470418Y-37722514D01*
X77456438Y-37743438D01*
X77435514Y-37757418D01*
X77422224Y-37770709D01*
X77402763Y-37779301D01*
X77379387Y-37794921D01*
X77357551Y-37799264D01*
X77341017Y-37806565D01*
X77292629Y-37812178D01*
X77288500Y-37813000D01*
X76688500Y-37813000D01*
X76684373Y-37812179D01*
X76635982Y-37806565D01*
X76619446Y-37799264D01*
X76597613Y-37794921D01*
X76574238Y-37779302D01*
X76554775Y-37770709D01*
X76541482Y-37757416D01*
X76520562Y-37743438D01*
X76506583Y-37722517D01*
X76493290Y-37709224D01*
X76484695Y-37689759D01*
X76469079Y-37666387D01*
X76464736Y-37644555D01*
X76457434Y-37628017D01*
X76451818Y-37579616D01*
X76451000Y-37575500D01*
X76451000Y-37100500D01*
X76451818Y-37096385D01*
X76457434Y-37047982D01*
X76464736Y-37031442D01*
X76469079Y-37009613D01*
X76484694Y-36986242D01*
X76493290Y-36966775D01*
X76506585Y-36953479D01*
X76520562Y-36932562D01*
X76541479Y-36918585D01*
X76554775Y-36905290D01*
X76574242Y-36896694D01*
X76597613Y-36881079D01*
X76619442Y-36876736D01*
X76635982Y-36869434D01*
X76684384Y-36863818D01*
X76688500Y-36863000D01*
X77288500Y-36863000D01*
X77292615Y-36863818D01*
G37*
G36*
X79017615Y-36863818D02*
G01*
X79066017Y-36869434D01*
X79082555Y-36876736D01*
X79104387Y-36881079D01*
X79127759Y-36896695D01*
X79147224Y-36905290D01*
X79160517Y-36918583D01*
X79181438Y-36932562D01*
X79195416Y-36953482D01*
X79208709Y-36966775D01*
X79217302Y-36986238D01*
X79232921Y-37009613D01*
X79237264Y-37031446D01*
X79244565Y-37047982D01*
X79250178Y-37096372D01*
X79251000Y-37100500D01*
X79251000Y-37575500D01*
X79250178Y-37579627D01*
X79244565Y-37628017D01*
X79237264Y-37644551D01*
X79232921Y-37666387D01*
X79217301Y-37689763D01*
X79208709Y-37709224D01*
X79195418Y-37722514D01*
X79181438Y-37743438D01*
X79160514Y-37757418D01*
X79147224Y-37770709D01*
X79127763Y-37779301D01*
X79104387Y-37794921D01*
X79082551Y-37799264D01*
X79066017Y-37806565D01*
X79017629Y-37812178D01*
X79013500Y-37813000D01*
X78413500Y-37813000D01*
X78409373Y-37812179D01*
X78360982Y-37806565D01*
X78344446Y-37799264D01*
X78322613Y-37794921D01*
X78299238Y-37779302D01*
X78279775Y-37770709D01*
X78266482Y-37757416D01*
X78245562Y-37743438D01*
X78231583Y-37722517D01*
X78218290Y-37709224D01*
X78209695Y-37689759D01*
X78194079Y-37666387D01*
X78189736Y-37644555D01*
X78182434Y-37628017D01*
X78176818Y-37579616D01*
X78176000Y-37575500D01*
X78176000Y-37100500D01*
X78176818Y-37096385D01*
X78182434Y-37047982D01*
X78189736Y-37031442D01*
X78194079Y-37009613D01*
X78209694Y-36986242D01*
X78218290Y-36966775D01*
X78231585Y-36953479D01*
X78245562Y-36932562D01*
X78266479Y-36918585D01*
X78279775Y-36905290D01*
X78299242Y-36896694D01*
X78322613Y-36881079D01*
X78344442Y-36876736D01*
X78360982Y-36869434D01*
X78409384Y-36863818D01*
X78413500Y-36863000D01*
X79013500Y-36863000D01*
X79017615Y-36863818D01*
G37*
G36*
X80695115Y-36863818D02*
G01*
X80743517Y-36869434D01*
X80760055Y-36876736D01*
X80781887Y-36881079D01*
X80805259Y-36896695D01*
X80824724Y-36905290D01*
X80838017Y-36918583D01*
X80858938Y-36932562D01*
X80872916Y-36953482D01*
X80886209Y-36966775D01*
X80894802Y-36986238D01*
X80910421Y-37009613D01*
X80914764Y-37031446D01*
X80922065Y-37047982D01*
X80927678Y-37096372D01*
X80928500Y-37100500D01*
X80928500Y-37575500D01*
X80927678Y-37579627D01*
X80922065Y-37628017D01*
X80914764Y-37644551D01*
X80910421Y-37666387D01*
X80894801Y-37689763D01*
X80886209Y-37709224D01*
X80872918Y-37722514D01*
X80858938Y-37743438D01*
X80838014Y-37757418D01*
X80824724Y-37770709D01*
X80805263Y-37779301D01*
X80781887Y-37794921D01*
X80760051Y-37799264D01*
X80743517Y-37806565D01*
X80695129Y-37812178D01*
X80691000Y-37813000D01*
X80091000Y-37813000D01*
X80086873Y-37812179D01*
X80038482Y-37806565D01*
X80021946Y-37799264D01*
X80000113Y-37794921D01*
X79976738Y-37779302D01*
X79957275Y-37770709D01*
X79943982Y-37757416D01*
X79923062Y-37743438D01*
X79909083Y-37722517D01*
X79895790Y-37709224D01*
X79887195Y-37689759D01*
X79871579Y-37666387D01*
X79867236Y-37644555D01*
X79859934Y-37628017D01*
X79854318Y-37579616D01*
X79853500Y-37575500D01*
X79853500Y-37100500D01*
X79854318Y-37096385D01*
X79859934Y-37047982D01*
X79867236Y-37031442D01*
X79871579Y-37009613D01*
X79887194Y-36986242D01*
X79895790Y-36966775D01*
X79909085Y-36953479D01*
X79923062Y-36932562D01*
X79943979Y-36918585D01*
X79957275Y-36905290D01*
X79976742Y-36896694D01*
X80000113Y-36881079D01*
X80021942Y-36876736D01*
X80038482Y-36869434D01*
X80086884Y-36863818D01*
X80091000Y-36863000D01*
X80691000Y-36863000D01*
X80695115Y-36863818D01*
G37*
G36*
X82420115Y-36863818D02*
G01*
X82468517Y-36869434D01*
X82485055Y-36876736D01*
X82506887Y-36881079D01*
X82530259Y-36896695D01*
X82549724Y-36905290D01*
X82563017Y-36918583D01*
X82583938Y-36932562D01*
X82597916Y-36953482D01*
X82611209Y-36966775D01*
X82619802Y-36986238D01*
X82635421Y-37009613D01*
X82639764Y-37031446D01*
X82647065Y-37047982D01*
X82652678Y-37096372D01*
X82653500Y-37100500D01*
X82653500Y-37575500D01*
X82652678Y-37579627D01*
X82647065Y-37628017D01*
X82639764Y-37644551D01*
X82635421Y-37666387D01*
X82619801Y-37689763D01*
X82611209Y-37709224D01*
X82597918Y-37722514D01*
X82583938Y-37743438D01*
X82563014Y-37757418D01*
X82549724Y-37770709D01*
X82530263Y-37779301D01*
X82506887Y-37794921D01*
X82485051Y-37799264D01*
X82468517Y-37806565D01*
X82420129Y-37812178D01*
X82416000Y-37813000D01*
X81816000Y-37813000D01*
X81811873Y-37812179D01*
X81763482Y-37806565D01*
X81746946Y-37799264D01*
X81725113Y-37794921D01*
X81701738Y-37779302D01*
X81682275Y-37770709D01*
X81668982Y-37757416D01*
X81648062Y-37743438D01*
X81634083Y-37722517D01*
X81620790Y-37709224D01*
X81612195Y-37689759D01*
X81596579Y-37666387D01*
X81592236Y-37644555D01*
X81584934Y-37628017D01*
X81579318Y-37579616D01*
X81578500Y-37575500D01*
X81578500Y-37100500D01*
X81579318Y-37096385D01*
X81584934Y-37047982D01*
X81592236Y-37031442D01*
X81596579Y-37009613D01*
X81612194Y-36986242D01*
X81620790Y-36966775D01*
X81634085Y-36953479D01*
X81648062Y-36932562D01*
X81668979Y-36918585D01*
X81682275Y-36905290D01*
X81701742Y-36896694D01*
X81725113Y-36881079D01*
X81746942Y-36876736D01*
X81763482Y-36869434D01*
X81811884Y-36863818D01*
X81816000Y-36863000D01*
X82416000Y-36863000D01*
X82420115Y-36863818D01*
G37*
G36*
X57613104Y-36791127D02*
G01*
X57686099Y-36839901D01*
X57734873Y-36912896D01*
X57752000Y-36999000D01*
X57752000Y-37449000D01*
X57734873Y-37535104D01*
X57686099Y-37608099D01*
X57613104Y-37656873D01*
X57527000Y-37674000D01*
X57027000Y-37674000D01*
X56940896Y-37656873D01*
X56867901Y-37608099D01*
X56819127Y-37535104D01*
X56802000Y-37449000D01*
X56802000Y-36999000D01*
X56819127Y-36912896D01*
X56867901Y-36839901D01*
X56940896Y-36791127D01*
X57027000Y-36774000D01*
X57527000Y-36774000D01*
X57613104Y-36791127D01*
G37*
G36*
X71996615Y-36337318D02*
G01*
X72045017Y-36342934D01*
X72061555Y-36350236D01*
X72083387Y-36354579D01*
X72106759Y-36370195D01*
X72126224Y-36378790D01*
X72139517Y-36392083D01*
X72160438Y-36406062D01*
X72174416Y-36426982D01*
X72187709Y-36440275D01*
X72196302Y-36459738D01*
X72211921Y-36483113D01*
X72216264Y-36504946D01*
X72223565Y-36521482D01*
X72229178Y-36569872D01*
X72230000Y-36574000D01*
X72230000Y-37174000D01*
X72229178Y-37178127D01*
X72223565Y-37226517D01*
X72216264Y-37243051D01*
X72211921Y-37264887D01*
X72196301Y-37288263D01*
X72187709Y-37307724D01*
X72174418Y-37321014D01*
X72160438Y-37341938D01*
X72139514Y-37355918D01*
X72126224Y-37369209D01*
X72106763Y-37377801D01*
X72083387Y-37393421D01*
X72061551Y-37397764D01*
X72045017Y-37405065D01*
X71996629Y-37410678D01*
X71992500Y-37411500D01*
X71517500Y-37411500D01*
X71513373Y-37410679D01*
X71464982Y-37405065D01*
X71448446Y-37397764D01*
X71426613Y-37393421D01*
X71403238Y-37377802D01*
X71383775Y-37369209D01*
X71370482Y-37355916D01*
X71349562Y-37341938D01*
X71335583Y-37321017D01*
X71322290Y-37307724D01*
X71313695Y-37288259D01*
X71298079Y-37264887D01*
X71293736Y-37243055D01*
X71286434Y-37226517D01*
X71280818Y-37178116D01*
X71280000Y-37174000D01*
X71280000Y-36574000D01*
X71280818Y-36569885D01*
X71286434Y-36521482D01*
X71293736Y-36504942D01*
X71298079Y-36483113D01*
X71313694Y-36459742D01*
X71322290Y-36440275D01*
X71335585Y-36426979D01*
X71349562Y-36406062D01*
X71370479Y-36392085D01*
X71383775Y-36378790D01*
X71403242Y-36370194D01*
X71426613Y-36354579D01*
X71448442Y-36350236D01*
X71464982Y-36342934D01*
X71513384Y-36337318D01*
X71517500Y-36336500D01*
X71992500Y-36336500D01*
X71996615Y-36337318D01*
G37*
G36*
X62314701Y-37102709D02*
G01*
X62339033Y-37118967D01*
X62355291Y-37143299D01*
X62361000Y-37172000D01*
X62361000Y-37322000D01*
X62355291Y-37350701D01*
X62339033Y-37375033D01*
X62314701Y-37391291D01*
X62286000Y-37397000D01*
X60961000Y-37397000D01*
X60932299Y-37391291D01*
X60907967Y-37375033D01*
X60891709Y-37350701D01*
X60886000Y-37322000D01*
X60886000Y-37172000D01*
X60891709Y-37143299D01*
X60907967Y-37118967D01*
X60932299Y-37102709D01*
X60961000Y-37097000D01*
X62286000Y-37097000D01*
X62314701Y-37102709D01*
G37*
G36*
X70639701Y-37102709D02*
G01*
X70664033Y-37118967D01*
X70680291Y-37143299D01*
X70686000Y-37172000D01*
X70686000Y-37322000D01*
X70680291Y-37350701D01*
X70664033Y-37375033D01*
X70639701Y-37391291D01*
X70611000Y-37397000D01*
X69286000Y-37397000D01*
X69257299Y-37391291D01*
X69232967Y-37375033D01*
X69216709Y-37350701D01*
X69211000Y-37322000D01*
X69211000Y-37172000D01*
X69216709Y-37143299D01*
X69232967Y-37118967D01*
X69257299Y-37102709D01*
X69286000Y-37097000D01*
X70611000Y-37097000D01*
X70639701Y-37102709D01*
G37*
G36*
X60209000Y-37223000D02*
G01*
X58409000Y-37223000D01*
X58409000Y-36223000D01*
X60209000Y-36223000D01*
X60209000Y-37223000D01*
G37*
G36*
X50890714Y-35477295D02*
G01*
X51026548Y-35533559D01*
X51148795Y-35615242D01*
X51252758Y-35719205D01*
X51334441Y-35841452D01*
X51390705Y-35977286D01*
X51419389Y-36121487D01*
X51419389Y-36268513D01*
X51390705Y-36412714D01*
X51334441Y-36548548D01*
X51252758Y-36670795D01*
X51148795Y-36774758D01*
X51026548Y-36856441D01*
X50890714Y-36912705D01*
X50746513Y-36941389D01*
X50599487Y-36941389D01*
X50455286Y-36912705D01*
X50319452Y-36856441D01*
X50197205Y-36774758D01*
X50093242Y-36670795D01*
X50011559Y-36548548D01*
X49955295Y-36412714D01*
X49926611Y-36268513D01*
X49926611Y-36121487D01*
X49955295Y-35977286D01*
X50011559Y-35841452D01*
X50093242Y-35719205D01*
X50197205Y-35615242D01*
X50319452Y-35533559D01*
X50455286Y-35477295D01*
X50599487Y-35448611D01*
X50746513Y-35448611D01*
X50890714Y-35477295D01*
G37*
G36*
X62314701Y-36602709D02*
G01*
X62339033Y-36618967D01*
X62355291Y-36643299D01*
X62361000Y-36672000D01*
X62361000Y-36822000D01*
X62355291Y-36850701D01*
X62339033Y-36875033D01*
X62314701Y-36891291D01*
X62286000Y-36897000D01*
X60961000Y-36897000D01*
X60932299Y-36891291D01*
X60907967Y-36875033D01*
X60891709Y-36850701D01*
X60886000Y-36822000D01*
X60886000Y-36672000D01*
X60891709Y-36643299D01*
X60907967Y-36618967D01*
X60932299Y-36602709D01*
X60961000Y-36597000D01*
X62286000Y-36597000D01*
X62314701Y-36602709D01*
G37*
G36*
X70639701Y-36602709D02*
G01*
X70664033Y-36618967D01*
X70680291Y-36643299D01*
X70686000Y-36672000D01*
X70686000Y-36822000D01*
X70680291Y-36850701D01*
X70664033Y-36875033D01*
X70639701Y-36891291D01*
X70611000Y-36897000D01*
X69286000Y-36897000D01*
X69257299Y-36891291D01*
X69232967Y-36875033D01*
X69216709Y-36850701D01*
X69211000Y-36822000D01*
X69211000Y-36672000D01*
X69216709Y-36643299D01*
X69232967Y-36618967D01*
X69257299Y-36602709D01*
X69286000Y-36597000D01*
X70611000Y-36597000D01*
X70639701Y-36602709D01*
G37*
G36*
X52935615Y-35720818D02*
G01*
X52984017Y-35726434D01*
X53000555Y-35733736D01*
X53022387Y-35738079D01*
X53045759Y-35753695D01*
X53065224Y-35762290D01*
X53078517Y-35775583D01*
X53099438Y-35789562D01*
X53113416Y-35810482D01*
X53126709Y-35823775D01*
X53135302Y-35843238D01*
X53150921Y-35866613D01*
X53155264Y-35888446D01*
X53162565Y-35904982D01*
X53168178Y-35953372D01*
X53169000Y-35957500D01*
X53169000Y-36432500D01*
X53168178Y-36436627D01*
X53162565Y-36485017D01*
X53155264Y-36501551D01*
X53150921Y-36523387D01*
X53135301Y-36546763D01*
X53126709Y-36566224D01*
X53113418Y-36579514D01*
X53099438Y-36600438D01*
X53078514Y-36614418D01*
X53065224Y-36627709D01*
X53045763Y-36636301D01*
X53022387Y-36651921D01*
X53000551Y-36656264D01*
X52984017Y-36663565D01*
X52935629Y-36669178D01*
X52931500Y-36670000D01*
X52431500Y-36670000D01*
X52427373Y-36669179D01*
X52378982Y-36663565D01*
X52362446Y-36656264D01*
X52340613Y-36651921D01*
X52317238Y-36636302D01*
X52297775Y-36627709D01*
X52284482Y-36614416D01*
X52263562Y-36600438D01*
X52249583Y-36579517D01*
X52236290Y-36566224D01*
X52227695Y-36546759D01*
X52212079Y-36523387D01*
X52207736Y-36501555D01*
X52200434Y-36485017D01*
X52194818Y-36436616D01*
X52194000Y-36432500D01*
X52194000Y-35957500D01*
X52194818Y-35953385D01*
X52200434Y-35904982D01*
X52207736Y-35888442D01*
X52212079Y-35866613D01*
X52227694Y-35843242D01*
X52236290Y-35823775D01*
X52249585Y-35810479D01*
X52263562Y-35789562D01*
X52284479Y-35775585D01*
X52297775Y-35762290D01*
X52317242Y-35753694D01*
X52340613Y-35738079D01*
X52362442Y-35733736D01*
X52378982Y-35726434D01*
X52427384Y-35720818D01*
X52431500Y-35720000D01*
X52931500Y-35720000D01*
X52935615Y-35720818D01*
G37*
G36*
X54760615Y-35720818D02*
G01*
X54809017Y-35726434D01*
X54825555Y-35733736D01*
X54847387Y-35738079D01*
X54870759Y-35753695D01*
X54890224Y-35762290D01*
X54903517Y-35775583D01*
X54924438Y-35789562D01*
X54938416Y-35810482D01*
X54951709Y-35823775D01*
X54960302Y-35843238D01*
X54975921Y-35866613D01*
X54980264Y-35888446D01*
X54987565Y-35904982D01*
X54993178Y-35953372D01*
X54994000Y-35957500D01*
X54994000Y-36432500D01*
X54993178Y-36436627D01*
X54987565Y-36485017D01*
X54980264Y-36501551D01*
X54975921Y-36523387D01*
X54960301Y-36546763D01*
X54951709Y-36566224D01*
X54938418Y-36579514D01*
X54924438Y-36600438D01*
X54903514Y-36614418D01*
X54890224Y-36627709D01*
X54870763Y-36636301D01*
X54847387Y-36651921D01*
X54825551Y-36656264D01*
X54809017Y-36663565D01*
X54760629Y-36669178D01*
X54756500Y-36670000D01*
X54256500Y-36670000D01*
X54252373Y-36669179D01*
X54203982Y-36663565D01*
X54187446Y-36656264D01*
X54165613Y-36651921D01*
X54142238Y-36636302D01*
X54122775Y-36627709D01*
X54109482Y-36614416D01*
X54088562Y-36600438D01*
X54074583Y-36579517D01*
X54061290Y-36566224D01*
X54052695Y-36546759D01*
X54037079Y-36523387D01*
X54032736Y-36501555D01*
X54025434Y-36485017D01*
X54019818Y-36436616D01*
X54019000Y-36432500D01*
X54019000Y-35957500D01*
X54019818Y-35953385D01*
X54025434Y-35904982D01*
X54032736Y-35888442D01*
X54037079Y-35866613D01*
X54052694Y-35843242D01*
X54061290Y-35823775D01*
X54074585Y-35810479D01*
X54088562Y-35789562D01*
X54109479Y-35775585D01*
X54122775Y-35762290D01*
X54142242Y-35753694D01*
X54165613Y-35738079D01*
X54187442Y-35733736D01*
X54203982Y-35726434D01*
X54252384Y-35720818D01*
X54256500Y-35720000D01*
X54756500Y-35720000D01*
X54760615Y-35720818D01*
G37*
G36*
X57613104Y-35241127D02*
G01*
X57686099Y-35289901D01*
X57734873Y-35362896D01*
X57752000Y-35449000D01*
X57752000Y-35899000D01*
X57734873Y-35985104D01*
X57686099Y-36058099D01*
X57613104Y-36106873D01*
X57527000Y-36124000D01*
X57027000Y-36124000D01*
X56940896Y-36106873D01*
X56867901Y-36058099D01*
X56819127Y-35985104D01*
X56802000Y-35899000D01*
X56802000Y-35449000D01*
X56819127Y-35362896D01*
X56867901Y-35289901D01*
X56940896Y-35241127D01*
X57027000Y-35224000D01*
X57527000Y-35224000D01*
X57613104Y-35241127D01*
G37*
G36*
X63139701Y-34602709D02*
G01*
X63164033Y-34618967D01*
X63180291Y-34643299D01*
X63186000Y-34672000D01*
X63186000Y-35997000D01*
X63180291Y-36025701D01*
X63164033Y-36050033D01*
X63139701Y-36066291D01*
X63111000Y-36072000D01*
X62961000Y-36072000D01*
X62932299Y-36066291D01*
X62907967Y-36050033D01*
X62891709Y-36025701D01*
X62886000Y-35997000D01*
X62886000Y-34672000D01*
X62891709Y-34643299D01*
X62907967Y-34618967D01*
X62932299Y-34602709D01*
X62961000Y-34597000D01*
X63111000Y-34597000D01*
X63139701Y-34602709D01*
G37*
G36*
X63639701Y-34602709D02*
G01*
X63664033Y-34618967D01*
X63680291Y-34643299D01*
X63686000Y-34672000D01*
X63686000Y-35997000D01*
X63680291Y-36025701D01*
X63664033Y-36050033D01*
X63639701Y-36066291D01*
X63611000Y-36072000D01*
X63461000Y-36072000D01*
X63432299Y-36066291D01*
X63407967Y-36050033D01*
X63391709Y-36025701D01*
X63386000Y-35997000D01*
X63386000Y-34672000D01*
X63391709Y-34643299D01*
X63407967Y-34618967D01*
X63432299Y-34602709D01*
X63461000Y-34597000D01*
X63611000Y-34597000D01*
X63639701Y-34602709D01*
G37*
G36*
X64139701Y-34602709D02*
G01*
X64164033Y-34618967D01*
X64180291Y-34643299D01*
X64186000Y-34672000D01*
X64186000Y-35997000D01*
X64180291Y-36025701D01*
X64164033Y-36050033D01*
X64139701Y-36066291D01*
X64111000Y-36072000D01*
X63961000Y-36072000D01*
X63932299Y-36066291D01*
X63907967Y-36050033D01*
X63891709Y-36025701D01*
X63886000Y-35997000D01*
X63886000Y-34672000D01*
X63891709Y-34643299D01*
X63907967Y-34618967D01*
X63932299Y-34602709D01*
X63961000Y-34597000D01*
X64111000Y-34597000D01*
X64139701Y-34602709D01*
G37*
G36*
X64639701Y-34602709D02*
G01*
X64664033Y-34618967D01*
X64680291Y-34643299D01*
X64686000Y-34672000D01*
X64686000Y-35997000D01*
X64680291Y-36025701D01*
X64664033Y-36050033D01*
X64639701Y-36066291D01*
X64611000Y-36072000D01*
X64461000Y-36072000D01*
X64432299Y-36066291D01*
X64407967Y-36050033D01*
X64391709Y-36025701D01*
X64386000Y-35997000D01*
X64386000Y-34672000D01*
X64391709Y-34643299D01*
X64407967Y-34618967D01*
X64432299Y-34602709D01*
X64461000Y-34597000D01*
X64611000Y-34597000D01*
X64639701Y-34602709D01*
G37*
G36*
X65139701Y-34602709D02*
G01*
X65164033Y-34618967D01*
X65180291Y-34643299D01*
X65186000Y-34672000D01*
X65186000Y-35997000D01*
X65180291Y-36025701D01*
X65164033Y-36050033D01*
X65139701Y-36066291D01*
X65111000Y-36072000D01*
X64961000Y-36072000D01*
X64932299Y-36066291D01*
X64907967Y-36050033D01*
X64891709Y-36025701D01*
X64886000Y-35997000D01*
X64886000Y-34672000D01*
X64891709Y-34643299D01*
X64907967Y-34618967D01*
X64932299Y-34602709D01*
X64961000Y-34597000D01*
X65111000Y-34597000D01*
X65139701Y-34602709D01*
G37*
G36*
X65639701Y-34602709D02*
G01*
X65664033Y-34618967D01*
X65680291Y-34643299D01*
X65686000Y-34672000D01*
X65686000Y-35997000D01*
X65680291Y-36025701D01*
X65664033Y-36050033D01*
X65639701Y-36066291D01*
X65611000Y-36072000D01*
X65461000Y-36072000D01*
X65432299Y-36066291D01*
X65407967Y-36050033D01*
X65391709Y-36025701D01*
X65386000Y-35997000D01*
X65386000Y-34672000D01*
X65391709Y-34643299D01*
X65407967Y-34618967D01*
X65432299Y-34602709D01*
X65461000Y-34597000D01*
X65611000Y-34597000D01*
X65639701Y-34602709D01*
G37*
G36*
X66139701Y-34602709D02*
G01*
X66164033Y-34618967D01*
X66180291Y-34643299D01*
X66186000Y-34672000D01*
X66186000Y-35997000D01*
X66180291Y-36025701D01*
X66164033Y-36050033D01*
X66139701Y-36066291D01*
X66111000Y-36072000D01*
X65961000Y-36072000D01*
X65932299Y-36066291D01*
X65907967Y-36050033D01*
X65891709Y-36025701D01*
X65886000Y-35997000D01*
X65886000Y-34672000D01*
X65891709Y-34643299D01*
X65907967Y-34618967D01*
X65932299Y-34602709D01*
X65961000Y-34597000D01*
X66111000Y-34597000D01*
X66139701Y-34602709D01*
G37*
G36*
X66639701Y-34602709D02*
G01*
X66664033Y-34618967D01*
X66680291Y-34643299D01*
X66686000Y-34672000D01*
X66686000Y-35997000D01*
X66680291Y-36025701D01*
X66664033Y-36050033D01*
X66639701Y-36066291D01*
X66611000Y-36072000D01*
X66461000Y-36072000D01*
X66432299Y-36066291D01*
X66407967Y-36050033D01*
X66391709Y-36025701D01*
X66386000Y-35997000D01*
X66386000Y-34672000D01*
X66391709Y-34643299D01*
X66407967Y-34618967D01*
X66432299Y-34602709D01*
X66461000Y-34597000D01*
X66611000Y-34597000D01*
X66639701Y-34602709D01*
G37*
G36*
X67139701Y-34602709D02*
G01*
X67164033Y-34618967D01*
X67180291Y-34643299D01*
X67186000Y-34672000D01*
X67186000Y-35997000D01*
X67180291Y-36025701D01*
X67164033Y-36050033D01*
X67139701Y-36066291D01*
X67111000Y-36072000D01*
X66961000Y-36072000D01*
X66932299Y-36066291D01*
X66907967Y-36050033D01*
X66891709Y-36025701D01*
X66886000Y-35997000D01*
X66886000Y-34672000D01*
X66891709Y-34643299D01*
X66907967Y-34618967D01*
X66932299Y-34602709D01*
X66961000Y-34597000D01*
X67111000Y-34597000D01*
X67139701Y-34602709D01*
G37*
G36*
X67639701Y-34602709D02*
G01*
X67664033Y-34618967D01*
X67680291Y-34643299D01*
X67686000Y-34672000D01*
X67686000Y-35997000D01*
X67680291Y-36025701D01*
X67664033Y-36050033D01*
X67639701Y-36066291D01*
X67611000Y-36072000D01*
X67461000Y-36072000D01*
X67432299Y-36066291D01*
X67407967Y-36050033D01*
X67391709Y-36025701D01*
X67386000Y-35997000D01*
X67386000Y-34672000D01*
X67391709Y-34643299D01*
X67407967Y-34618967D01*
X67432299Y-34602709D01*
X67461000Y-34597000D01*
X67611000Y-34597000D01*
X67639701Y-34602709D01*
G37*
G36*
X68139701Y-34602709D02*
G01*
X68164033Y-34618967D01*
X68180291Y-34643299D01*
X68186000Y-34672000D01*
X68186000Y-35997000D01*
X68180291Y-36025701D01*
X68164033Y-36050033D01*
X68139701Y-36066291D01*
X68111000Y-36072000D01*
X67961000Y-36072000D01*
X67932299Y-36066291D01*
X67907967Y-36050033D01*
X67891709Y-36025701D01*
X67886000Y-35997000D01*
X67886000Y-34672000D01*
X67891709Y-34643299D01*
X67907967Y-34618967D01*
X67932299Y-34602709D01*
X67961000Y-34597000D01*
X68111000Y-34597000D01*
X68139701Y-34602709D01*
G37*
G36*
X68639701Y-34602709D02*
G01*
X68664033Y-34618967D01*
X68680291Y-34643299D01*
X68686000Y-34672000D01*
X68686000Y-35997000D01*
X68680291Y-36025701D01*
X68664033Y-36050033D01*
X68639701Y-36066291D01*
X68611000Y-36072000D01*
X68461000Y-36072000D01*
X68432299Y-36066291D01*
X68407967Y-36050033D01*
X68391709Y-36025701D01*
X68386000Y-35997000D01*
X68386000Y-34672000D01*
X68391709Y-34643299D01*
X68407967Y-34618967D01*
X68432299Y-34602709D01*
X68461000Y-34597000D01*
X68611000Y-34597000D01*
X68639701Y-34602709D01*
G37*
G36*
X71996615Y-34612318D02*
G01*
X72045017Y-34617934D01*
X72061555Y-34625236D01*
X72083387Y-34629579D01*
X72106759Y-34645195D01*
X72126224Y-34653790D01*
X72139517Y-34667083D01*
X72160438Y-34681062D01*
X72174416Y-34701982D01*
X72187709Y-34715275D01*
X72196302Y-34734738D01*
X72211921Y-34758113D01*
X72216264Y-34779946D01*
X72223565Y-34796482D01*
X72229178Y-34844872D01*
X72230000Y-34849000D01*
X72230000Y-35449000D01*
X72229178Y-35453127D01*
X72223565Y-35501517D01*
X72216264Y-35518051D01*
X72211921Y-35539887D01*
X72196301Y-35563263D01*
X72187709Y-35582724D01*
X72174418Y-35596014D01*
X72160438Y-35616938D01*
X72139514Y-35630918D01*
X72126224Y-35644209D01*
X72106763Y-35652801D01*
X72083387Y-35668421D01*
X72061551Y-35672764D01*
X72045017Y-35680065D01*
X71996629Y-35685678D01*
X71992500Y-35686500D01*
X71517500Y-35686500D01*
X71513373Y-35685679D01*
X71464982Y-35680065D01*
X71448446Y-35672764D01*
X71426613Y-35668421D01*
X71403238Y-35652802D01*
X71383775Y-35644209D01*
X71370482Y-35630916D01*
X71349562Y-35616938D01*
X71335583Y-35596017D01*
X71322290Y-35582724D01*
X71313695Y-35563259D01*
X71298079Y-35539887D01*
X71293736Y-35518055D01*
X71286434Y-35501517D01*
X71280818Y-35453116D01*
X71280000Y-35449000D01*
X71280000Y-34849000D01*
X71280818Y-34844885D01*
X71286434Y-34796482D01*
X71293736Y-34779942D01*
X71298079Y-34758113D01*
X71313694Y-34734742D01*
X71322290Y-34715275D01*
X71335585Y-34701979D01*
X71349562Y-34681062D01*
X71370479Y-34667085D01*
X71383775Y-34653790D01*
X71403242Y-34645194D01*
X71426613Y-34629579D01*
X71448442Y-34625236D01*
X71464982Y-34617934D01*
X71513384Y-34612318D01*
X71517500Y-34611500D01*
X71992500Y-34611500D01*
X71996615Y-34612318D01*
G37*
G36*
X60566615Y-34361818D02*
G01*
X60615017Y-34367434D01*
X60631555Y-34374736D01*
X60653387Y-34379079D01*
X60676759Y-34394695D01*
X60696224Y-34403290D01*
X60709517Y-34416583D01*
X60730438Y-34430562D01*
X60744416Y-34451482D01*
X60757709Y-34464775D01*
X60766302Y-34484238D01*
X60781921Y-34507613D01*
X60786264Y-34529446D01*
X60793565Y-34545982D01*
X60799178Y-34594372D01*
X60800000Y-34598500D01*
X60800000Y-35198500D01*
X60799178Y-35202627D01*
X60793565Y-35251017D01*
X60786264Y-35267551D01*
X60781921Y-35289387D01*
X60766301Y-35312763D01*
X60757709Y-35332224D01*
X60744418Y-35345514D01*
X60730438Y-35366438D01*
X60709514Y-35380418D01*
X60696224Y-35393709D01*
X60676763Y-35402301D01*
X60653387Y-35417921D01*
X60631551Y-35422264D01*
X60615017Y-35429565D01*
X60566629Y-35435178D01*
X60562500Y-35436000D01*
X60087500Y-35436000D01*
X60083373Y-35435179D01*
X60034982Y-35429565D01*
X60018446Y-35422264D01*
X59996613Y-35417921D01*
X59973238Y-35402302D01*
X59953775Y-35393709D01*
X59940482Y-35380416D01*
X59919562Y-35366438D01*
X59905583Y-35345517D01*
X59892290Y-35332224D01*
X59883695Y-35312759D01*
X59868079Y-35289387D01*
X59863736Y-35267555D01*
X59856434Y-35251017D01*
X59850818Y-35202616D01*
X59850000Y-35198500D01*
X59850000Y-34598500D01*
X59850818Y-34594385D01*
X59856434Y-34545982D01*
X59863736Y-34529442D01*
X59868079Y-34507613D01*
X59883694Y-34484242D01*
X59892290Y-34464775D01*
X59905585Y-34451479D01*
X59919562Y-34430562D01*
X59940479Y-34416585D01*
X59953775Y-34403290D01*
X59973242Y-34394694D01*
X59996613Y-34379079D01*
X60018442Y-34374736D01*
X60034982Y-34367434D01*
X60083384Y-34361818D01*
X60087500Y-34361000D01*
X60562500Y-34361000D01*
X60566615Y-34361818D01*
G37*
G36*
X62090615Y-34361818D02*
G01*
X62139017Y-34367434D01*
X62155555Y-34374736D01*
X62177387Y-34379079D01*
X62200759Y-34394695D01*
X62220224Y-34403290D01*
X62233517Y-34416583D01*
X62254438Y-34430562D01*
X62268416Y-34451482D01*
X62281709Y-34464775D01*
X62290302Y-34484238D01*
X62305921Y-34507613D01*
X62310264Y-34529446D01*
X62317565Y-34545982D01*
X62323178Y-34594372D01*
X62324000Y-34598500D01*
X62324000Y-35198500D01*
X62323178Y-35202627D01*
X62317565Y-35251017D01*
X62310264Y-35267551D01*
X62305921Y-35289387D01*
X62290301Y-35312763D01*
X62281709Y-35332224D01*
X62268418Y-35345514D01*
X62254438Y-35366438D01*
X62233514Y-35380418D01*
X62220224Y-35393709D01*
X62200763Y-35402301D01*
X62177387Y-35417921D01*
X62155551Y-35422264D01*
X62139017Y-35429565D01*
X62090629Y-35435178D01*
X62086500Y-35436000D01*
X61611500Y-35436000D01*
X61607373Y-35435179D01*
X61558982Y-35429565D01*
X61542446Y-35422264D01*
X61520613Y-35417921D01*
X61497238Y-35402302D01*
X61477775Y-35393709D01*
X61464482Y-35380416D01*
X61443562Y-35366438D01*
X61429583Y-35345517D01*
X61416290Y-35332224D01*
X61407695Y-35312759D01*
X61392079Y-35289387D01*
X61387736Y-35267555D01*
X61380434Y-35251017D01*
X61374818Y-35202616D01*
X61374000Y-35198500D01*
X61374000Y-34598500D01*
X61374818Y-34594385D01*
X61380434Y-34545982D01*
X61387736Y-34529442D01*
X61392079Y-34507613D01*
X61407694Y-34484242D01*
X61416290Y-34464775D01*
X61429585Y-34451479D01*
X61443562Y-34430562D01*
X61464479Y-34416585D01*
X61477775Y-34403290D01*
X61497242Y-34394694D01*
X61520613Y-34379079D01*
X61542442Y-34374736D01*
X61558982Y-34367434D01*
X61607384Y-34361818D01*
X61611500Y-34361000D01*
X62086500Y-34361000D01*
X62090615Y-34361818D01*
G37*
G36*
X75627543Y-34467402D02*
G01*
X75739520Y-34532052D01*
X75830948Y-34623480D01*
X75895598Y-34735457D01*
X75929063Y-34860350D01*
X75929063Y-34989650D01*
X75895598Y-35114543D01*
X75830948Y-35226520D01*
X75739520Y-35317948D01*
X75627543Y-35382598D01*
X75502650Y-35416063D01*
X75373350Y-35416063D01*
X75248457Y-35382598D01*
X75136480Y-35317948D01*
X75045052Y-35226520D01*
X74980402Y-35114543D01*
X74946937Y-34989650D01*
X74946937Y-34860350D01*
X74980402Y-34735457D01*
X75045052Y-34623480D01*
X75136480Y-34532052D01*
X75248457Y-34467402D01*
X75373350Y-34433937D01*
X75502650Y-34433937D01*
X75627543Y-34467402D01*
G37*
G36*
X76858662Y-34180269D02*
G01*
X76947669Y-34231657D01*
X77020343Y-34304331D01*
X77071731Y-34393338D01*
X77098332Y-34492612D01*
X77098332Y-34595388D01*
X77071731Y-34694662D01*
X77020343Y-34783669D01*
X76947669Y-34856343D01*
X76858662Y-34907731D01*
X76759388Y-34934332D01*
X76656612Y-34934332D01*
X76557338Y-34907731D01*
X76468331Y-34856343D01*
X76395657Y-34783669D01*
X76344269Y-34694662D01*
X76317668Y-34595388D01*
X76317668Y-34492612D01*
X76344269Y-34393338D01*
X76395657Y-34304331D01*
X76468331Y-34231657D01*
X76557338Y-34180269D01*
X76656612Y-34153668D01*
X76759388Y-34153668D01*
X76858662Y-34180269D01*
G37*
G36*
X78128662Y-34180269D02*
G01*
X78217669Y-34231657D01*
X78290343Y-34304331D01*
X78341731Y-34393338D01*
X78368332Y-34492612D01*
X78368332Y-34595388D01*
X78341731Y-34694662D01*
X78290343Y-34783669D01*
X78217669Y-34856343D01*
X78128662Y-34907731D01*
X78029388Y-34934332D01*
X77926612Y-34934332D01*
X77827338Y-34907731D01*
X77738331Y-34856343D01*
X77665657Y-34783669D01*
X77614269Y-34694662D01*
X77587668Y-34595388D01*
X77587668Y-34492612D01*
X77614269Y-34393338D01*
X77665657Y-34304331D01*
X77738331Y-34231657D01*
X77827338Y-34180269D01*
X77926612Y-34153668D01*
X78029388Y-34153668D01*
X78128662Y-34180269D01*
G37*
G36*
X79398662Y-34180269D02*
G01*
X79487669Y-34231657D01*
X79560343Y-34304331D01*
X79611731Y-34393338D01*
X79638332Y-34492612D01*
X79638332Y-34595388D01*
X79611731Y-34694662D01*
X79560343Y-34783669D01*
X79487669Y-34856343D01*
X79398662Y-34907731D01*
X79299388Y-34934332D01*
X79196612Y-34934332D01*
X79097338Y-34907731D01*
X79008331Y-34856343D01*
X78935657Y-34783669D01*
X78884269Y-34694662D01*
X78857668Y-34595388D01*
X78857668Y-34492612D01*
X78884269Y-34393338D01*
X78935657Y-34304331D01*
X79008331Y-34231657D01*
X79097338Y-34180269D01*
X79196612Y-34153668D01*
X79299388Y-34153668D01*
X79398662Y-34180269D01*
G37*
G36*
X80668662Y-34180269D02*
G01*
X80757669Y-34231657D01*
X80830343Y-34304331D01*
X80881731Y-34393338D01*
X80908332Y-34492612D01*
X80908332Y-34595388D01*
X80881731Y-34694662D01*
X80830343Y-34783669D01*
X80757669Y-34856343D01*
X80668662Y-34907731D01*
X80569388Y-34934332D01*
X80466612Y-34934332D01*
X80367338Y-34907731D01*
X80278331Y-34856343D01*
X80205657Y-34783669D01*
X80154269Y-34694662D01*
X80127668Y-34595388D01*
X80127668Y-34492612D01*
X80154269Y-34393338D01*
X80205657Y-34304331D01*
X80278331Y-34231657D01*
X80367338Y-34180269D01*
X80466612Y-34153668D01*
X80569388Y-34153668D01*
X80668662Y-34180269D01*
G37*
G36*
X81938662Y-34180269D02*
G01*
X82027669Y-34231657D01*
X82100343Y-34304331D01*
X82151731Y-34393338D01*
X82178332Y-34492612D01*
X82178332Y-34595388D01*
X82151731Y-34694662D01*
X82100343Y-34783669D01*
X82027669Y-34856343D01*
X81938662Y-34907731D01*
X81839388Y-34934332D01*
X81736612Y-34934332D01*
X81637338Y-34907731D01*
X81548331Y-34856343D01*
X81475657Y-34783669D01*
X81424269Y-34694662D01*
X81397668Y-34595388D01*
X81397668Y-34492612D01*
X81424269Y-34393338D01*
X81475657Y-34304331D01*
X81548331Y-34231657D01*
X81637338Y-34180269D01*
X81736612Y-34153668D01*
X81839388Y-34153668D01*
X81938662Y-34180269D01*
G37*
G36*
X56962116Y-33184818D02*
G01*
X57013379Y-33190766D01*
X57030892Y-33198499D01*
X57053671Y-33203030D01*
X57078057Y-33219324D01*
X57098788Y-33228478D01*
X57112946Y-33242636D01*
X57134777Y-33257223D01*
X57149363Y-33279053D01*
X57163521Y-33293211D01*
X57172673Y-33313939D01*
X57188970Y-33338329D01*
X57193501Y-33361109D01*
X57201233Y-33378620D01*
X57207178Y-33429872D01*
X57208000Y-33434000D01*
X57208000Y-34384000D01*
X57207178Y-34388128D01*
X57201233Y-34439379D01*
X57193501Y-34456888D01*
X57188970Y-34479671D01*
X57172672Y-34504062D01*
X57163521Y-34524788D01*
X57149365Y-34538943D01*
X57134777Y-34560777D01*
X57112943Y-34575365D01*
X57098788Y-34589521D01*
X57078062Y-34598672D01*
X57053671Y-34614970D01*
X57030888Y-34619501D01*
X57013379Y-34627233D01*
X56962129Y-34633178D01*
X56958000Y-34634000D01*
X56283000Y-34634000D01*
X56278873Y-34633179D01*
X56227620Y-34627233D01*
X56210109Y-34619501D01*
X56187329Y-34614970D01*
X56162939Y-34598673D01*
X56142211Y-34589521D01*
X56128053Y-34575363D01*
X56106223Y-34560777D01*
X56091636Y-34538946D01*
X56077478Y-34524788D01*
X56068324Y-34504057D01*
X56052030Y-34479671D01*
X56047499Y-34456892D01*
X56039766Y-34439379D01*
X56033818Y-34388117D01*
X56033000Y-34384000D01*
X56033000Y-33434000D01*
X56033818Y-33429885D01*
X56039766Y-33378620D01*
X56047499Y-33361105D01*
X56052030Y-33338329D01*
X56068323Y-33313944D01*
X56077478Y-33293211D01*
X56091638Y-33279050D01*
X56106223Y-33257223D01*
X56128050Y-33242638D01*
X56142211Y-33228478D01*
X56162944Y-33219323D01*
X56187329Y-33203030D01*
X56210105Y-33198499D01*
X56227620Y-33190766D01*
X56278884Y-33184818D01*
X56283000Y-33184000D01*
X56958000Y-33184000D01*
X56962116Y-33184818D01*
G37*
G36*
X59037116Y-33184818D02*
G01*
X59088379Y-33190766D01*
X59105892Y-33198499D01*
X59128671Y-33203030D01*
X59153057Y-33219324D01*
X59173788Y-33228478D01*
X59187946Y-33242636D01*
X59209777Y-33257223D01*
X59224363Y-33279053D01*
X59238521Y-33293211D01*
X59247673Y-33313939D01*
X59263970Y-33338329D01*
X59268501Y-33361109D01*
X59276233Y-33378620D01*
X59282178Y-33429872D01*
X59283000Y-33434000D01*
X59283000Y-34384000D01*
X59282178Y-34388128D01*
X59276233Y-34439379D01*
X59268501Y-34456888D01*
X59263970Y-34479671D01*
X59247672Y-34504062D01*
X59238521Y-34524788D01*
X59224365Y-34538943D01*
X59209777Y-34560777D01*
X59187943Y-34575365D01*
X59173788Y-34589521D01*
X59153062Y-34598672D01*
X59128671Y-34614970D01*
X59105888Y-34619501D01*
X59088379Y-34627233D01*
X59037129Y-34633178D01*
X59033000Y-34634000D01*
X58358000Y-34634000D01*
X58353873Y-34633179D01*
X58302620Y-34627233D01*
X58285109Y-34619501D01*
X58262329Y-34614970D01*
X58237939Y-34598673D01*
X58217211Y-34589521D01*
X58203053Y-34575363D01*
X58181223Y-34560777D01*
X58166636Y-34538946D01*
X58152478Y-34524788D01*
X58143324Y-34504057D01*
X58127030Y-34479671D01*
X58122499Y-34456892D01*
X58114766Y-34439379D01*
X58108818Y-34388117D01*
X58108000Y-34384000D01*
X58108000Y-33434000D01*
X58108818Y-33429885D01*
X58114766Y-33378620D01*
X58122499Y-33361105D01*
X58127030Y-33338329D01*
X58143323Y-33313944D01*
X58152478Y-33293211D01*
X58166638Y-33279050D01*
X58181223Y-33257223D01*
X58203050Y-33242638D01*
X58217211Y-33228478D01*
X58237944Y-33219323D01*
X58262329Y-33203030D01*
X58285105Y-33198499D01*
X58302620Y-33190766D01*
X58353884Y-33184818D01*
X58358000Y-33184000D01*
X59033000Y-33184000D01*
X59037116Y-33184818D01*
G37*
G36*
X50890714Y-32937295D02*
G01*
X51026548Y-32993559D01*
X51148795Y-33075242D01*
X51252758Y-33179205D01*
X51334441Y-33301452D01*
X51390705Y-33437286D01*
X51419389Y-33581487D01*
X51419389Y-33728513D01*
X51390705Y-33872714D01*
X51334441Y-34008548D01*
X51252758Y-34130795D01*
X51148795Y-34234758D01*
X51026548Y-34316441D01*
X50890714Y-34372705D01*
X50746513Y-34401389D01*
X50599487Y-34401389D01*
X50455286Y-34372705D01*
X50319452Y-34316441D01*
X50197205Y-34234758D01*
X50093242Y-34130795D01*
X50011559Y-34008548D01*
X49955295Y-33872714D01*
X49926611Y-33728513D01*
X49926611Y-33581487D01*
X49955295Y-33437286D01*
X50011559Y-33301452D01*
X50093242Y-33179205D01*
X50197205Y-33075242D01*
X50319452Y-32993559D01*
X50455286Y-32937295D01*
X50599487Y-32908611D01*
X50746513Y-32908611D01*
X50890714Y-32937295D01*
G37*
G36*
X83247543Y-33451402D02*
G01*
X83359520Y-33516052D01*
X83450948Y-33607480D01*
X83515598Y-33719457D01*
X83549063Y-33844350D01*
X83549063Y-33973650D01*
X83515598Y-34098543D01*
X83450948Y-34210520D01*
X83359520Y-34301948D01*
X83247543Y-34366598D01*
X83122650Y-34400063D01*
X82993350Y-34400063D01*
X82868457Y-34366598D01*
X82756480Y-34301948D01*
X82665052Y-34210520D01*
X82600402Y-34098543D01*
X82566937Y-33973650D01*
X82566937Y-33844350D01*
X82600402Y-33719457D01*
X82665052Y-33607480D01*
X82756480Y-33516052D01*
X82868457Y-33451402D01*
X82993350Y-33417937D01*
X83122650Y-33417937D01*
X83247543Y-33451402D01*
G37*
G36*
X60566615Y-32636818D02*
G01*
X60615017Y-32642434D01*
X60631555Y-32649736D01*
X60653387Y-32654079D01*
X60676759Y-32669695D01*
X60696224Y-32678290D01*
X60709517Y-32691583D01*
X60730438Y-32705562D01*
X60744416Y-32726482D01*
X60757709Y-32739775D01*
X60766302Y-32759238D01*
X60781921Y-32782613D01*
X60786264Y-32804446D01*
X60793565Y-32820982D01*
X60799178Y-32869372D01*
X60800000Y-32873500D01*
X60800000Y-33473500D01*
X60799178Y-33477627D01*
X60793565Y-33526017D01*
X60786264Y-33542551D01*
X60781921Y-33564387D01*
X60766301Y-33587763D01*
X60757709Y-33607224D01*
X60744418Y-33620514D01*
X60730438Y-33641438D01*
X60709514Y-33655418D01*
X60696224Y-33668709D01*
X60676763Y-33677301D01*
X60653387Y-33692921D01*
X60631551Y-33697264D01*
X60615017Y-33704565D01*
X60566629Y-33710178D01*
X60562500Y-33711000D01*
X60087500Y-33711000D01*
X60083373Y-33710179D01*
X60034982Y-33704565D01*
X60018446Y-33697264D01*
X59996613Y-33692921D01*
X59973238Y-33677302D01*
X59953775Y-33668709D01*
X59940482Y-33655416D01*
X59919562Y-33641438D01*
X59905583Y-33620517D01*
X59892290Y-33607224D01*
X59883695Y-33587759D01*
X59868079Y-33564387D01*
X59863736Y-33542555D01*
X59856434Y-33526017D01*
X59850818Y-33477616D01*
X59850000Y-33473500D01*
X59850000Y-32873500D01*
X59850818Y-32869385D01*
X59856434Y-32820982D01*
X59863736Y-32804442D01*
X59868079Y-32782613D01*
X59883694Y-32759242D01*
X59892290Y-32739775D01*
X59905585Y-32726479D01*
X59919562Y-32705562D01*
X59940479Y-32691585D01*
X59953775Y-32678290D01*
X59973242Y-32669694D01*
X59996613Y-32654079D01*
X60018442Y-32649736D01*
X60034982Y-32642434D01*
X60083384Y-32636818D01*
X60087500Y-32636000D01*
X60562500Y-32636000D01*
X60566615Y-32636818D01*
G37*
G36*
X62090615Y-32636818D02*
G01*
X62139017Y-32642434D01*
X62155555Y-32649736D01*
X62177387Y-32654079D01*
X62200759Y-32669695D01*
X62220224Y-32678290D01*
X62233517Y-32691583D01*
X62254438Y-32705562D01*
X62268416Y-32726482D01*
X62281709Y-32739775D01*
X62290302Y-32759238D01*
X62305921Y-32782613D01*
X62310264Y-32804446D01*
X62317565Y-32820982D01*
X62323178Y-32869372D01*
X62324000Y-32873500D01*
X62324000Y-33473500D01*
X62323178Y-33477627D01*
X62317565Y-33526017D01*
X62310264Y-33542551D01*
X62305921Y-33564387D01*
X62290301Y-33587763D01*
X62281709Y-33607224D01*
X62268418Y-33620514D01*
X62254438Y-33641438D01*
X62233514Y-33655418D01*
X62220224Y-33668709D01*
X62200763Y-33677301D01*
X62177387Y-33692921D01*
X62155551Y-33697264D01*
X62139017Y-33704565D01*
X62090629Y-33710178D01*
X62086500Y-33711000D01*
X61611500Y-33711000D01*
X61607373Y-33710179D01*
X61558982Y-33704565D01*
X61542446Y-33697264D01*
X61520613Y-33692921D01*
X61497238Y-33677302D01*
X61477775Y-33668709D01*
X61464482Y-33655416D01*
X61443562Y-33641438D01*
X61429583Y-33620517D01*
X61416290Y-33607224D01*
X61407695Y-33587759D01*
X61392079Y-33564387D01*
X61387736Y-33542555D01*
X61380434Y-33526017D01*
X61374818Y-33477616D01*
X61374000Y-33473500D01*
X61374000Y-32873500D01*
X61374818Y-32869385D01*
X61380434Y-32820982D01*
X61387736Y-32804442D01*
X61392079Y-32782613D01*
X61407694Y-32759242D01*
X61416290Y-32739775D01*
X61429585Y-32726479D01*
X61443562Y-32705562D01*
X61464479Y-32691585D01*
X61477775Y-32678290D01*
X61497242Y-32669694D01*
X61520613Y-32654079D01*
X61542442Y-32649736D01*
X61558982Y-32642434D01*
X61607384Y-32636818D01*
X61611500Y-32636000D01*
X62086500Y-32636000D01*
X62090615Y-32636818D01*
G37*
G36*
X76858662Y-32910269D02*
G01*
X76947669Y-32961657D01*
X77020343Y-33034331D01*
X77071731Y-33123338D01*
X77098332Y-33222612D01*
X77098332Y-33325388D01*
X77071731Y-33424662D01*
X77020343Y-33513669D01*
X76947669Y-33586343D01*
X76858662Y-33637731D01*
X76759388Y-33664332D01*
X76656612Y-33664332D01*
X76557338Y-33637731D01*
X76468331Y-33586343D01*
X76395657Y-33513669D01*
X76344269Y-33424662D01*
X76317668Y-33325388D01*
X76317668Y-33222612D01*
X76344269Y-33123338D01*
X76395657Y-33034331D01*
X76468331Y-32961657D01*
X76557338Y-32910269D01*
X76656612Y-32883668D01*
X76759388Y-32883668D01*
X76858662Y-32910269D01*
G37*
G36*
X78128662Y-32910269D02*
G01*
X78217669Y-32961657D01*
X78290343Y-33034331D01*
X78341731Y-33123338D01*
X78368332Y-33222612D01*
X78368332Y-33325388D01*
X78341731Y-33424662D01*
X78290343Y-33513669D01*
X78217669Y-33586343D01*
X78128662Y-33637731D01*
X78029388Y-33664332D01*
X77926612Y-33664332D01*
X77827338Y-33637731D01*
X77738331Y-33586343D01*
X77665657Y-33513669D01*
X77614269Y-33424662D01*
X77587668Y-33325388D01*
X77587668Y-33222612D01*
X77614269Y-33123338D01*
X77665657Y-33034331D01*
X77738331Y-32961657D01*
X77827338Y-32910269D01*
X77926612Y-32883668D01*
X78029388Y-32883668D01*
X78128662Y-32910269D01*
G37*
G36*
X79398662Y-32910269D02*
G01*
X79487669Y-32961657D01*
X79560343Y-33034331D01*
X79611731Y-33123338D01*
X79638332Y-33222612D01*
X79638332Y-33325388D01*
X79611731Y-33424662D01*
X79560343Y-33513669D01*
X79487669Y-33586343D01*
X79398662Y-33637731D01*
X79299388Y-33664332D01*
X79196612Y-33664332D01*
X79097338Y-33637731D01*
X79008331Y-33586343D01*
X78935657Y-33513669D01*
X78884269Y-33424662D01*
X78857668Y-33325388D01*
X78857668Y-33222612D01*
X78884269Y-33123338D01*
X78935657Y-33034331D01*
X79008331Y-32961657D01*
X79097338Y-32910269D01*
X79196612Y-32883668D01*
X79299388Y-32883668D01*
X79398662Y-32910269D01*
G37*
G36*
X80668662Y-32910269D02*
G01*
X80757669Y-32961657D01*
X80830343Y-33034331D01*
X80881731Y-33123338D01*
X80908332Y-33222612D01*
X80908332Y-33325388D01*
X80881731Y-33424662D01*
X80830343Y-33513669D01*
X80757669Y-33586343D01*
X80668662Y-33637731D01*
X80569388Y-33664332D01*
X80466612Y-33664332D01*
X80367338Y-33637731D01*
X80278331Y-33586343D01*
X80205657Y-33513669D01*
X80154269Y-33424662D01*
X80127668Y-33325388D01*
X80127668Y-33222612D01*
X80154269Y-33123338D01*
X80205657Y-33034331D01*
X80278331Y-32961657D01*
X80367338Y-32910269D01*
X80466612Y-32883668D01*
X80569388Y-32883668D01*
X80668662Y-32910269D01*
G37*
G36*
X81938662Y-32910269D02*
G01*
X82027669Y-32961657D01*
X82100343Y-33034331D01*
X82151731Y-33123338D01*
X82178332Y-33222612D01*
X82178332Y-33325388D01*
X82151731Y-33424662D01*
X82100343Y-33513669D01*
X82027669Y-33586343D01*
X81938662Y-33637731D01*
X81839388Y-33664332D01*
X81736612Y-33664332D01*
X81637338Y-33637731D01*
X81548331Y-33586343D01*
X81475657Y-33513669D01*
X81424269Y-33424662D01*
X81397668Y-33325388D01*
X81397668Y-33222612D01*
X81424269Y-33123338D01*
X81475657Y-33034331D01*
X81548331Y-32961657D01*
X81637338Y-32910269D01*
X81736612Y-32883668D01*
X81839388Y-32883668D01*
X81938662Y-32910269D01*
G37*
G36*
X64376615Y-32329818D02*
G01*
X64425017Y-32335434D01*
X64441555Y-32342736D01*
X64463387Y-32347079D01*
X64486759Y-32362695D01*
X64506224Y-32371290D01*
X64519517Y-32384583D01*
X64540438Y-32398562D01*
X64554416Y-32419482D01*
X64567709Y-32432775D01*
X64576302Y-32452238D01*
X64591921Y-32475613D01*
X64596264Y-32497446D01*
X64603565Y-32513982D01*
X64609178Y-32562372D01*
X64610000Y-32566500D01*
X64610000Y-33166500D01*
X64609178Y-33170627D01*
X64603565Y-33219017D01*
X64596264Y-33235551D01*
X64591921Y-33257387D01*
X64576301Y-33280763D01*
X64567709Y-33300224D01*
X64554418Y-33313514D01*
X64540438Y-33334438D01*
X64519514Y-33348418D01*
X64506224Y-33361709D01*
X64486763Y-33370301D01*
X64463387Y-33385921D01*
X64441551Y-33390264D01*
X64425017Y-33397565D01*
X64376629Y-33403178D01*
X64372500Y-33404000D01*
X63897500Y-33404000D01*
X63893373Y-33403179D01*
X63844982Y-33397565D01*
X63828446Y-33390264D01*
X63806613Y-33385921D01*
X63783238Y-33370302D01*
X63763775Y-33361709D01*
X63750482Y-33348416D01*
X63729562Y-33334438D01*
X63715583Y-33313517D01*
X63702290Y-33300224D01*
X63693695Y-33280759D01*
X63678079Y-33257387D01*
X63673736Y-33235555D01*
X63666434Y-33219017D01*
X63660818Y-33170616D01*
X63660000Y-33166500D01*
X63660000Y-32566500D01*
X63660818Y-32562385D01*
X63666434Y-32513982D01*
X63673736Y-32497442D01*
X63678079Y-32475613D01*
X63693694Y-32452242D01*
X63702290Y-32432775D01*
X63715585Y-32419479D01*
X63729562Y-32398562D01*
X63750479Y-32384585D01*
X63763775Y-32371290D01*
X63783242Y-32362694D01*
X63806613Y-32347079D01*
X63828442Y-32342736D01*
X63844982Y-32335434D01*
X63893384Y-32329818D01*
X63897500Y-32329000D01*
X64372500Y-32329000D01*
X64376615Y-32329818D01*
G37*
G36*
X75627543Y-32435402D02*
G01*
X75739520Y-32500052D01*
X75830948Y-32591480D01*
X75895598Y-32703457D01*
X75929063Y-32828350D01*
X75929063Y-32957650D01*
X75895598Y-33082543D01*
X75830948Y-33194520D01*
X75739520Y-33285948D01*
X75627543Y-33350598D01*
X75502650Y-33384063D01*
X75373350Y-33384063D01*
X75248457Y-33350598D01*
X75136480Y-33285948D01*
X75045052Y-33194520D01*
X74980402Y-33082543D01*
X74946937Y-32957650D01*
X74946937Y-32828350D01*
X74980402Y-32703457D01*
X75045052Y-32591480D01*
X75136480Y-32500052D01*
X75248457Y-32435402D01*
X75373350Y-32401937D01*
X75502650Y-32401937D01*
X75627543Y-32435402D01*
G37*
G36*
X66092000Y-32827000D02*
G01*
X65742000Y-32827000D01*
X65742000Y-32452000D01*
X66092000Y-32452000D01*
X66092000Y-32827000D01*
G37*
G36*
X66592000Y-32827000D02*
G01*
X66242000Y-32827000D01*
X66242000Y-32452000D01*
X66592000Y-32452000D01*
X66592000Y-32827000D01*
G37*
G36*
X65592000Y-32802000D02*
G01*
X65217000Y-32802000D01*
X65217000Y-32452000D01*
X65592000Y-32452000D01*
X65592000Y-32802000D01*
G37*
G36*
X67117000Y-32802000D02*
G01*
X66742000Y-32802000D01*
X66742000Y-32452000D01*
X67117000Y-32452000D01*
X67117000Y-32802000D01*
G37*
G36*
X65592000Y-32302000D02*
G01*
X65217000Y-32302000D01*
X65217000Y-31952000D01*
X65592000Y-31952000D01*
X65592000Y-32302000D01*
G37*
G36*
X67117000Y-32302000D02*
G01*
X66742000Y-32302000D01*
X66742000Y-31952000D01*
X67117000Y-31952000D01*
X67117000Y-32302000D01*
G37*
G36*
X65592000Y-31802000D02*
G01*
X65217000Y-31802000D01*
X65217000Y-31452000D01*
X65592000Y-31452000D01*
X65592000Y-31802000D01*
G37*
G36*
X67117000Y-31802000D02*
G01*
X66742000Y-31802000D01*
X66742000Y-31452000D01*
X67117000Y-31452000D01*
X67117000Y-31802000D01*
G37*
G36*
X64376615Y-30604818D02*
G01*
X64425017Y-30610434D01*
X64441555Y-30617736D01*
X64463387Y-30622079D01*
X64486759Y-30637695D01*
X64506224Y-30646290D01*
X64519517Y-30659583D01*
X64540438Y-30673562D01*
X64554416Y-30694482D01*
X64567709Y-30707775D01*
X64576302Y-30727238D01*
X64591921Y-30750613D01*
X64596264Y-30772446D01*
X64603565Y-30788982D01*
X64609178Y-30837372D01*
X64610000Y-30841500D01*
X64610000Y-31441500D01*
X64609178Y-31445627D01*
X64603565Y-31494017D01*
X64596264Y-31510551D01*
X64591921Y-31532387D01*
X64576301Y-31555763D01*
X64567709Y-31575224D01*
X64554418Y-31588514D01*
X64540438Y-31609438D01*
X64519514Y-31623418D01*
X64506224Y-31636709D01*
X64486763Y-31645301D01*
X64463387Y-31660921D01*
X64441551Y-31665264D01*
X64425017Y-31672565D01*
X64376629Y-31678178D01*
X64372500Y-31679000D01*
X63897500Y-31679000D01*
X63893373Y-31678179D01*
X63844982Y-31672565D01*
X63828446Y-31665264D01*
X63806613Y-31660921D01*
X63783238Y-31645302D01*
X63763775Y-31636709D01*
X63750482Y-31623416D01*
X63729562Y-31609438D01*
X63715583Y-31588517D01*
X63702290Y-31575224D01*
X63693695Y-31555759D01*
X63678079Y-31532387D01*
X63673736Y-31510555D01*
X63666434Y-31494017D01*
X63660818Y-31445616D01*
X63660000Y-31441500D01*
X63660000Y-30841500D01*
X63660818Y-30837385D01*
X63666434Y-30788982D01*
X63673736Y-30772442D01*
X63678079Y-30750613D01*
X63693694Y-30727242D01*
X63702290Y-30707775D01*
X63715585Y-30694479D01*
X63729562Y-30673562D01*
X63750479Y-30659585D01*
X63763775Y-30646290D01*
X63783242Y-30637694D01*
X63806613Y-30622079D01*
X63828442Y-30617736D01*
X63844982Y-30610434D01*
X63893384Y-30604818D01*
X63897500Y-30604000D01*
X64372500Y-30604000D01*
X64376615Y-30604818D01*
G37*
G36*
X49709268Y-29945612D02*
G01*
X49741711Y-29967289D01*
X49763388Y-29999732D01*
X49771000Y-30038000D01*
X49771000Y-31313000D01*
X49763388Y-31351268D01*
X49741711Y-31383711D01*
X49709268Y-31405388D01*
X49671000Y-31413000D01*
X49471000Y-31413000D01*
X49432732Y-31405388D01*
X49400289Y-31383711D01*
X49378612Y-31351268D01*
X49371000Y-31313000D01*
X49371000Y-30038000D01*
X49378612Y-29999732D01*
X49400289Y-29967289D01*
X49432732Y-29945612D01*
X49471000Y-29938000D01*
X49671000Y-29938000D01*
X49709268Y-29945612D01*
G37*
G36*
X50359268Y-29945612D02*
G01*
X50391711Y-29967289D01*
X50413388Y-29999732D01*
X50421000Y-30038000D01*
X50421000Y-31313000D01*
X50413388Y-31351268D01*
X50391711Y-31383711D01*
X50359268Y-31405388D01*
X50321000Y-31413000D01*
X50121000Y-31413000D01*
X50082732Y-31405388D01*
X50050289Y-31383711D01*
X50028612Y-31351268D01*
X50021000Y-31313000D01*
X50021000Y-30038000D01*
X50028612Y-29999732D01*
X50050289Y-29967289D01*
X50082732Y-29945612D01*
X50121000Y-29938000D01*
X50321000Y-29938000D01*
X50359268Y-29945612D01*
G37*
G36*
X51009268Y-29945612D02*
G01*
X51041711Y-29967289D01*
X51063388Y-29999732D01*
X51071000Y-30038000D01*
X51071000Y-31313000D01*
X51063388Y-31351268D01*
X51041711Y-31383711D01*
X51009268Y-31405388D01*
X50971000Y-31413000D01*
X50771000Y-31413000D01*
X50732732Y-31405388D01*
X50700289Y-31383711D01*
X50678612Y-31351268D01*
X50671000Y-31313000D01*
X50671000Y-30038000D01*
X50678612Y-29999732D01*
X50700289Y-29967289D01*
X50732732Y-29945612D01*
X50771000Y-29938000D01*
X50971000Y-29938000D01*
X51009268Y-29945612D01*
G37*
G36*
X51659268Y-29945612D02*
G01*
X51691711Y-29967289D01*
X51713388Y-29999732D01*
X51721000Y-30038000D01*
X51721000Y-31313000D01*
X51713388Y-31351268D01*
X51691711Y-31383711D01*
X51659268Y-31405388D01*
X51621000Y-31413000D01*
X51421000Y-31413000D01*
X51382732Y-31405388D01*
X51350289Y-31383711D01*
X51328612Y-31351268D01*
X51321000Y-31313000D01*
X51321000Y-30038000D01*
X51328612Y-29999732D01*
X51350289Y-29967289D01*
X51382732Y-29945612D01*
X51421000Y-29938000D01*
X51621000Y-29938000D01*
X51659268Y-29945612D01*
G37*
G36*
X53327615Y-30297818D02*
G01*
X53376017Y-30303434D01*
X53392555Y-30310736D01*
X53414387Y-30315079D01*
X53437759Y-30330695D01*
X53457224Y-30339290D01*
X53470517Y-30352583D01*
X53491438Y-30366562D01*
X53505416Y-30387482D01*
X53518709Y-30400775D01*
X53527302Y-30420238D01*
X53542921Y-30443613D01*
X53547264Y-30465446D01*
X53554565Y-30481982D01*
X53560178Y-30530372D01*
X53561000Y-30534500D01*
X53561000Y-31134500D01*
X53560178Y-31138627D01*
X53554565Y-31187017D01*
X53547264Y-31203551D01*
X53542921Y-31225387D01*
X53527301Y-31248763D01*
X53518709Y-31268224D01*
X53505418Y-31281514D01*
X53491438Y-31302438D01*
X53470514Y-31316418D01*
X53457224Y-31329709D01*
X53437763Y-31338301D01*
X53414387Y-31353921D01*
X53392551Y-31358264D01*
X53376017Y-31365565D01*
X53327629Y-31371178D01*
X53323500Y-31372000D01*
X52848500Y-31372000D01*
X52844373Y-31371179D01*
X52795982Y-31365565D01*
X52779446Y-31358264D01*
X52757613Y-31353921D01*
X52734238Y-31338302D01*
X52714775Y-31329709D01*
X52701482Y-31316416D01*
X52680562Y-31302438D01*
X52666583Y-31281517D01*
X52653290Y-31268224D01*
X52644695Y-31248759D01*
X52629079Y-31225387D01*
X52624736Y-31203555D01*
X52617434Y-31187017D01*
X52611818Y-31138616D01*
X52611000Y-31134500D01*
X52611000Y-30534500D01*
X52611818Y-30530385D01*
X52617434Y-30481982D01*
X52624736Y-30465442D01*
X52629079Y-30443613D01*
X52644694Y-30420242D01*
X52653290Y-30400775D01*
X52666585Y-30387479D01*
X52680562Y-30366562D01*
X52701479Y-30352585D01*
X52714775Y-30339290D01*
X52734242Y-30330694D01*
X52757613Y-30315079D01*
X52779442Y-30310736D01*
X52795982Y-30303434D01*
X52844384Y-30297818D01*
X52848500Y-30297000D01*
X53323500Y-30297000D01*
X53327615Y-30297818D01*
G37*
G36*
X65592000Y-31302000D02*
G01*
X65217000Y-31302000D01*
X65217000Y-30952000D01*
X65592000Y-30952000D01*
X65592000Y-31302000D01*
G37*
G36*
X66092000Y-31302000D02*
G01*
X65742000Y-31302000D01*
X65742000Y-30927000D01*
X66092000Y-30927000D01*
X66092000Y-31302000D01*
G37*
G36*
X66592000Y-31302000D02*
G01*
X66242000Y-31302000D01*
X66242000Y-30927000D01*
X66592000Y-30927000D01*
X66592000Y-31302000D01*
G37*
G36*
X67117000Y-31302000D02*
G01*
X66742000Y-31302000D01*
X66742000Y-30952000D01*
X67117000Y-30952000D01*
X67117000Y-31302000D01*
G37*
G36*
X76925714Y-29635295D02*
G01*
X77061548Y-29691559D01*
X77183795Y-29773242D01*
X77287758Y-29877205D01*
X77369441Y-29999452D01*
X77425705Y-30135286D01*
X77454389Y-30279487D01*
X77454389Y-30426513D01*
X77425705Y-30570714D01*
X77369441Y-30706548D01*
X77287758Y-30828795D01*
X77183795Y-30932758D01*
X77061548Y-31014441D01*
X76925714Y-31070705D01*
X76781513Y-31099389D01*
X76634487Y-31099389D01*
X76490286Y-31070705D01*
X76354452Y-31014441D01*
X76232205Y-30932758D01*
X76128242Y-30828795D01*
X76046559Y-30706548D01*
X75990295Y-30570714D01*
X75961611Y-30426513D01*
X75961611Y-30279487D01*
X75990295Y-30135286D01*
X76046559Y-29999452D01*
X76128242Y-29877205D01*
X76232205Y-29773242D01*
X76354452Y-29691559D01*
X76490286Y-29635295D01*
X76634487Y-29606611D01*
X76781513Y-29606611D01*
X76925714Y-29635295D01*
G37*
G36*
X80594615Y-30132818D02*
G01*
X80643017Y-30138434D01*
X80659555Y-30145736D01*
X80681387Y-30150079D01*
X80704759Y-30165695D01*
X80724224Y-30174290D01*
X80737517Y-30187583D01*
X80758438Y-30201562D01*
X80772416Y-30222482D01*
X80785709Y-30235775D01*
X80794302Y-30255238D01*
X80809921Y-30278613D01*
X80814264Y-30300446D01*
X80821565Y-30316982D01*
X80827178Y-30365372D01*
X80828000Y-30369500D01*
X80828000Y-30844500D01*
X80827178Y-30848627D01*
X80821565Y-30897017D01*
X80814264Y-30913551D01*
X80809921Y-30935387D01*
X80794301Y-30958763D01*
X80785709Y-30978224D01*
X80772418Y-30991514D01*
X80758438Y-31012438D01*
X80737514Y-31026418D01*
X80724224Y-31039709D01*
X80704763Y-31048301D01*
X80681387Y-31063921D01*
X80659551Y-31068264D01*
X80643017Y-31075565D01*
X80594629Y-31081178D01*
X80590500Y-31082000D01*
X79990500Y-31082000D01*
X79986373Y-31081179D01*
X79937982Y-31075565D01*
X79921446Y-31068264D01*
X79899613Y-31063921D01*
X79876238Y-31048302D01*
X79856775Y-31039709D01*
X79843482Y-31026416D01*
X79822562Y-31012438D01*
X79808583Y-30991517D01*
X79795290Y-30978224D01*
X79786695Y-30958759D01*
X79771079Y-30935387D01*
X79766736Y-30913555D01*
X79759434Y-30897017D01*
X79753818Y-30848616D01*
X79753000Y-30844500D01*
X79753000Y-30369500D01*
X79753818Y-30365385D01*
X79759434Y-30316982D01*
X79766736Y-30300442D01*
X79771079Y-30278613D01*
X79786694Y-30255242D01*
X79795290Y-30235775D01*
X79808585Y-30222479D01*
X79822562Y-30201562D01*
X79843479Y-30187585D01*
X79856775Y-30174290D01*
X79876242Y-30165694D01*
X79899613Y-30150079D01*
X79921442Y-30145736D01*
X79937982Y-30138434D01*
X79986384Y-30132818D01*
X79990500Y-30132000D01*
X80590500Y-30132000D01*
X80594615Y-30132818D01*
G37*
G36*
X82319615Y-30132818D02*
G01*
X82368017Y-30138434D01*
X82384555Y-30145736D01*
X82406387Y-30150079D01*
X82429759Y-30165695D01*
X82449224Y-30174290D01*
X82462517Y-30187583D01*
X82483438Y-30201562D01*
X82497416Y-30222482D01*
X82510709Y-30235775D01*
X82519302Y-30255238D01*
X82534921Y-30278613D01*
X82539264Y-30300446D01*
X82546565Y-30316982D01*
X82552178Y-30365372D01*
X82553000Y-30369500D01*
X82553000Y-30844500D01*
X82552178Y-30848627D01*
X82546565Y-30897017D01*
X82539264Y-30913551D01*
X82534921Y-30935387D01*
X82519301Y-30958763D01*
X82510709Y-30978224D01*
X82497418Y-30991514D01*
X82483438Y-31012438D01*
X82462514Y-31026418D01*
X82449224Y-31039709D01*
X82429763Y-31048301D01*
X82406387Y-31063921D01*
X82384551Y-31068264D01*
X82368017Y-31075565D01*
X82319629Y-31081178D01*
X82315500Y-31082000D01*
X81715500Y-31082000D01*
X81711373Y-31081179D01*
X81662982Y-31075565D01*
X81646446Y-31068264D01*
X81624613Y-31063921D01*
X81601238Y-31048302D01*
X81581775Y-31039709D01*
X81568482Y-31026416D01*
X81547562Y-31012438D01*
X81533583Y-30991517D01*
X81520290Y-30978224D01*
X81511695Y-30958759D01*
X81496079Y-30935387D01*
X81491736Y-30913555D01*
X81484434Y-30897017D01*
X81478818Y-30848616D01*
X81478000Y-30844500D01*
X81478000Y-30369500D01*
X81478818Y-30365385D01*
X81484434Y-30316982D01*
X81491736Y-30300442D01*
X81496079Y-30278613D01*
X81511694Y-30255242D01*
X81520290Y-30235775D01*
X81533585Y-30222479D01*
X81547562Y-30201562D01*
X81568479Y-30187585D01*
X81581775Y-30174290D01*
X81601242Y-30165694D01*
X81624613Y-30150079D01*
X81646442Y-30145736D01*
X81662982Y-30138434D01*
X81711384Y-30132818D01*
X81715500Y-30132000D01*
X82315500Y-30132000D01*
X82319615Y-30132818D01*
G37*
G36*
X73128615Y-30005818D02*
G01*
X73177017Y-30011434D01*
X73193555Y-30018736D01*
X73215387Y-30023079D01*
X73238759Y-30038695D01*
X73258224Y-30047290D01*
X73271517Y-30060583D01*
X73292438Y-30074562D01*
X73306416Y-30095482D01*
X73319709Y-30108775D01*
X73328302Y-30128238D01*
X73343921Y-30151613D01*
X73348264Y-30173446D01*
X73355565Y-30189982D01*
X73361178Y-30238372D01*
X73362000Y-30242500D01*
X73362000Y-30717500D01*
X73361178Y-30721627D01*
X73355565Y-30770017D01*
X73348264Y-30786551D01*
X73343921Y-30808387D01*
X73328301Y-30831763D01*
X73319709Y-30851224D01*
X73306418Y-30864514D01*
X73292438Y-30885438D01*
X73271514Y-30899418D01*
X73258224Y-30912709D01*
X73238763Y-30921301D01*
X73215387Y-30936921D01*
X73193551Y-30941264D01*
X73177017Y-30948565D01*
X73128629Y-30954178D01*
X73124500Y-30955000D01*
X72624500Y-30955000D01*
X72620373Y-30954179D01*
X72571982Y-30948565D01*
X72555446Y-30941264D01*
X72533613Y-30936921D01*
X72510238Y-30921302D01*
X72490775Y-30912709D01*
X72477482Y-30899416D01*
X72456562Y-30885438D01*
X72442583Y-30864517D01*
X72429290Y-30851224D01*
X72420695Y-30831759D01*
X72405079Y-30808387D01*
X72400736Y-30786555D01*
X72393434Y-30770017D01*
X72387818Y-30721616D01*
X72387000Y-30717500D01*
X72387000Y-30242500D01*
X72387818Y-30238385D01*
X72393434Y-30189982D01*
X72400736Y-30173442D01*
X72405079Y-30151613D01*
X72420694Y-30128242D01*
X72429290Y-30108775D01*
X72442585Y-30095479D01*
X72456562Y-30074562D01*
X72477479Y-30060585D01*
X72490775Y-30047290D01*
X72510242Y-30038694D01*
X72533613Y-30023079D01*
X72555442Y-30018736D01*
X72571982Y-30011434D01*
X72620384Y-30005818D01*
X72624500Y-30005000D01*
X73124500Y-30005000D01*
X73128615Y-30005818D01*
G37*
G36*
X74953615Y-30005818D02*
G01*
X75002017Y-30011434D01*
X75018555Y-30018736D01*
X75040387Y-30023079D01*
X75063759Y-30038695D01*
X75083224Y-30047290D01*
X75096517Y-30060583D01*
X75117438Y-30074562D01*
X75131416Y-30095482D01*
X75144709Y-30108775D01*
X75153302Y-30128238D01*
X75168921Y-30151613D01*
X75173264Y-30173446D01*
X75180565Y-30189982D01*
X75186178Y-30238372D01*
X75187000Y-30242500D01*
X75187000Y-30717500D01*
X75186178Y-30721627D01*
X75180565Y-30770017D01*
X75173264Y-30786551D01*
X75168921Y-30808387D01*
X75153301Y-30831763D01*
X75144709Y-30851224D01*
X75131418Y-30864514D01*
X75117438Y-30885438D01*
X75096514Y-30899418D01*
X75083224Y-30912709D01*
X75063763Y-30921301D01*
X75040387Y-30936921D01*
X75018551Y-30941264D01*
X75002017Y-30948565D01*
X74953629Y-30954178D01*
X74949500Y-30955000D01*
X74449500Y-30955000D01*
X74445373Y-30954179D01*
X74396982Y-30948565D01*
X74380446Y-30941264D01*
X74358613Y-30936921D01*
X74335238Y-30921302D01*
X74315775Y-30912709D01*
X74302482Y-30899416D01*
X74281562Y-30885438D01*
X74267583Y-30864517D01*
X74254290Y-30851224D01*
X74245695Y-30831759D01*
X74230079Y-30808387D01*
X74225736Y-30786555D01*
X74218434Y-30770017D01*
X74212818Y-30721616D01*
X74212000Y-30717500D01*
X74212000Y-30242500D01*
X74212818Y-30238385D01*
X74218434Y-30189982D01*
X74225736Y-30173442D01*
X74230079Y-30151613D01*
X74245694Y-30128242D01*
X74254290Y-30108775D01*
X74267585Y-30095479D01*
X74281562Y-30074562D01*
X74302479Y-30060585D01*
X74315775Y-30047290D01*
X74335242Y-30038694D01*
X74358613Y-30023079D01*
X74380442Y-30018736D01*
X74396982Y-30011434D01*
X74445384Y-30005818D01*
X74449500Y-30005000D01*
X74949500Y-30005000D01*
X74953615Y-30005818D01*
G37*
G36*
X53327615Y-28572818D02*
G01*
X53376017Y-28578434D01*
X53392555Y-28585736D01*
X53414387Y-28590079D01*
X53437759Y-28605695D01*
X53457224Y-28614290D01*
X53470517Y-28627583D01*
X53491438Y-28641562D01*
X53505416Y-28662482D01*
X53518709Y-28675775D01*
X53527302Y-28695238D01*
X53542921Y-28718613D01*
X53547264Y-28740446D01*
X53554565Y-28756982D01*
X53560178Y-28805372D01*
X53561000Y-28809500D01*
X53561000Y-29409500D01*
X53560178Y-29413627D01*
X53554565Y-29462017D01*
X53547264Y-29478551D01*
X53542921Y-29500387D01*
X53527301Y-29523763D01*
X53518709Y-29543224D01*
X53505418Y-29556514D01*
X53491438Y-29577438D01*
X53470514Y-29591418D01*
X53457224Y-29604709D01*
X53437763Y-29613301D01*
X53414387Y-29628921D01*
X53392551Y-29633264D01*
X53376017Y-29640565D01*
X53327629Y-29646178D01*
X53323500Y-29647000D01*
X52848500Y-29647000D01*
X52844373Y-29646179D01*
X52795982Y-29640565D01*
X52779446Y-29633264D01*
X52757613Y-29628921D01*
X52734238Y-29613302D01*
X52714775Y-29604709D01*
X52701482Y-29591416D01*
X52680562Y-29577438D01*
X52666583Y-29556517D01*
X52653290Y-29543224D01*
X52644695Y-29523759D01*
X52629079Y-29500387D01*
X52624736Y-29478555D01*
X52617434Y-29462017D01*
X52611818Y-29413616D01*
X52611000Y-29409500D01*
X52611000Y-28809500D01*
X52611818Y-28805385D01*
X52617434Y-28756982D01*
X52624736Y-28740442D01*
X52629079Y-28718613D01*
X52644694Y-28695242D01*
X52653290Y-28675775D01*
X52666585Y-28662479D01*
X52680562Y-28641562D01*
X52701479Y-28627585D01*
X52714775Y-28614290D01*
X52734242Y-28605694D01*
X52757613Y-28590079D01*
X52779442Y-28585736D01*
X52795982Y-28578434D01*
X52844384Y-28572818D01*
X52848500Y-28572000D01*
X53323500Y-28572000D01*
X53327615Y-28572818D01*
G37*
G36*
X58754115Y-28481818D02*
G01*
X58802517Y-28487434D01*
X58819055Y-28494736D01*
X58840887Y-28499079D01*
X58864259Y-28514695D01*
X58883724Y-28523290D01*
X58897017Y-28536583D01*
X58917938Y-28550562D01*
X58931916Y-28571482D01*
X58945209Y-28584775D01*
X58953802Y-28604238D01*
X58969421Y-28627613D01*
X58973764Y-28649446D01*
X58981065Y-28665982D01*
X58986678Y-28714372D01*
X58987500Y-28718500D01*
X58987500Y-29193500D01*
X58986678Y-29197627D01*
X58981065Y-29246017D01*
X58973764Y-29262551D01*
X58969421Y-29284387D01*
X58953801Y-29307763D01*
X58945209Y-29327224D01*
X58931918Y-29340514D01*
X58917938Y-29361438D01*
X58897014Y-29375418D01*
X58883724Y-29388709D01*
X58864263Y-29397301D01*
X58840887Y-29412921D01*
X58819051Y-29417264D01*
X58802517Y-29424565D01*
X58754129Y-29430178D01*
X58750000Y-29431000D01*
X58250000Y-29431000D01*
X58245873Y-29430179D01*
X58197482Y-29424565D01*
X58180946Y-29417264D01*
X58159113Y-29412921D01*
X58135738Y-29397302D01*
X58116275Y-29388709D01*
X58102982Y-29375416D01*
X58082062Y-29361438D01*
X58068083Y-29340517D01*
X58054790Y-29327224D01*
X58046195Y-29307759D01*
X58030579Y-29284387D01*
X58026236Y-29262555D01*
X58018934Y-29246017D01*
X58013318Y-29197616D01*
X58012500Y-29193500D01*
X58012500Y-28718500D01*
X58013318Y-28714385D01*
X58018934Y-28665982D01*
X58026236Y-28649442D01*
X58030579Y-28627613D01*
X58046194Y-28604242D01*
X58054790Y-28584775D01*
X58068085Y-28571479D01*
X58082062Y-28550562D01*
X58102979Y-28536585D01*
X58116275Y-28523290D01*
X58135742Y-28514694D01*
X58159113Y-28499079D01*
X58180942Y-28494736D01*
X58197482Y-28487434D01*
X58245884Y-28481818D01*
X58250000Y-28481000D01*
X58750000Y-28481000D01*
X58754115Y-28481818D01*
G37*
G36*
X60579115Y-28481818D02*
G01*
X60627517Y-28487434D01*
X60644055Y-28494736D01*
X60665887Y-28499079D01*
X60689259Y-28514695D01*
X60708724Y-28523290D01*
X60722017Y-28536583D01*
X60742938Y-28550562D01*
X60756916Y-28571482D01*
X60770209Y-28584775D01*
X60778802Y-28604238D01*
X60794421Y-28627613D01*
X60798764Y-28649446D01*
X60806065Y-28665982D01*
X60811678Y-28714372D01*
X60812500Y-28718500D01*
X60812500Y-29193500D01*
X60811678Y-29197627D01*
X60806065Y-29246017D01*
X60798764Y-29262551D01*
X60794421Y-29284387D01*
X60778801Y-29307763D01*
X60770209Y-29327224D01*
X60756918Y-29340514D01*
X60742938Y-29361438D01*
X60722014Y-29375418D01*
X60708724Y-29388709D01*
X60689263Y-29397301D01*
X60665887Y-29412921D01*
X60644051Y-29417264D01*
X60627517Y-29424565D01*
X60579129Y-29430178D01*
X60575000Y-29431000D01*
X60075000Y-29431000D01*
X60070873Y-29430179D01*
X60022482Y-29424565D01*
X60005946Y-29417264D01*
X59984113Y-29412921D01*
X59960738Y-29397302D01*
X59941275Y-29388709D01*
X59927982Y-29375416D01*
X59907062Y-29361438D01*
X59893083Y-29340517D01*
X59879790Y-29327224D01*
X59871195Y-29307759D01*
X59855579Y-29284387D01*
X59851236Y-29262555D01*
X59843934Y-29246017D01*
X59838318Y-29197616D01*
X59837500Y-29193500D01*
X59837500Y-28718500D01*
X59838318Y-28714385D01*
X59843934Y-28665982D01*
X59851236Y-28649442D01*
X59855579Y-28627613D01*
X59871194Y-28604242D01*
X59879790Y-28584775D01*
X59893085Y-28571479D01*
X59907062Y-28550562D01*
X59927979Y-28536585D01*
X59941275Y-28523290D01*
X59960742Y-28514694D01*
X59984113Y-28499079D01*
X60005942Y-28494736D01*
X60022482Y-28487434D01*
X60070884Y-28481818D01*
X60075000Y-28481000D01*
X60575000Y-28481000D01*
X60579115Y-28481818D01*
G37*
G36*
X69900115Y-28481818D02*
G01*
X69948517Y-28487434D01*
X69965055Y-28494736D01*
X69986887Y-28499079D01*
X70010259Y-28514695D01*
X70029724Y-28523290D01*
X70043017Y-28536583D01*
X70063938Y-28550562D01*
X70077916Y-28571482D01*
X70091209Y-28584775D01*
X70099802Y-28604238D01*
X70115421Y-28627613D01*
X70119764Y-28649446D01*
X70127065Y-28665982D01*
X70132678Y-28714372D01*
X70133500Y-28718500D01*
X70133500Y-29193500D01*
X70132678Y-29197627D01*
X70127065Y-29246017D01*
X70119764Y-29262551D01*
X70115421Y-29284387D01*
X70099801Y-29307763D01*
X70091209Y-29327224D01*
X70077918Y-29340514D01*
X70063938Y-29361438D01*
X70043014Y-29375418D01*
X70029724Y-29388709D01*
X70010263Y-29397301D01*
X69986887Y-29412921D01*
X69965051Y-29417264D01*
X69948517Y-29424565D01*
X69900129Y-29430178D01*
X69896000Y-29431000D01*
X69296000Y-29431000D01*
X69291873Y-29430179D01*
X69243482Y-29424565D01*
X69226946Y-29417264D01*
X69205113Y-29412921D01*
X69181738Y-29397302D01*
X69162275Y-29388709D01*
X69148982Y-29375416D01*
X69128062Y-29361438D01*
X69114083Y-29340517D01*
X69100790Y-29327224D01*
X69092195Y-29307759D01*
X69076579Y-29284387D01*
X69072236Y-29262555D01*
X69064934Y-29246017D01*
X69059318Y-29197616D01*
X69058500Y-29193500D01*
X69058500Y-28718500D01*
X69059318Y-28714385D01*
X69064934Y-28665982D01*
X69072236Y-28649442D01*
X69076579Y-28627613D01*
X69092194Y-28604242D01*
X69100790Y-28584775D01*
X69114085Y-28571479D01*
X69128062Y-28550562D01*
X69148979Y-28536585D01*
X69162275Y-28523290D01*
X69181742Y-28514694D01*
X69205113Y-28499079D01*
X69226942Y-28494736D01*
X69243482Y-28487434D01*
X69291884Y-28481818D01*
X69296000Y-28481000D01*
X69896000Y-28481000D01*
X69900115Y-28481818D01*
G37*
G36*
X71625115Y-28481818D02*
G01*
X71673517Y-28487434D01*
X71690055Y-28494736D01*
X71711887Y-28499079D01*
X71735259Y-28514695D01*
X71754724Y-28523290D01*
X71768017Y-28536583D01*
X71788938Y-28550562D01*
X71802916Y-28571482D01*
X71816209Y-28584775D01*
X71824802Y-28604238D01*
X71840421Y-28627613D01*
X71844764Y-28649446D01*
X71852065Y-28665982D01*
X71857678Y-28714372D01*
X71858500Y-28718500D01*
X71858500Y-29193500D01*
X71857678Y-29197627D01*
X71852065Y-29246017D01*
X71844764Y-29262551D01*
X71840421Y-29284387D01*
X71824801Y-29307763D01*
X71816209Y-29327224D01*
X71802918Y-29340514D01*
X71788938Y-29361438D01*
X71768014Y-29375418D01*
X71754724Y-29388709D01*
X71735263Y-29397301D01*
X71711887Y-29412921D01*
X71690051Y-29417264D01*
X71673517Y-29424565D01*
X71625129Y-29430178D01*
X71621000Y-29431000D01*
X71021000Y-29431000D01*
X71016873Y-29430179D01*
X70968482Y-29424565D01*
X70951946Y-29417264D01*
X70930113Y-29412921D01*
X70906738Y-29397302D01*
X70887275Y-29388709D01*
X70873982Y-29375416D01*
X70853062Y-29361438D01*
X70839083Y-29340517D01*
X70825790Y-29327224D01*
X70817195Y-29307759D01*
X70801579Y-29284387D01*
X70797236Y-29262555D01*
X70789934Y-29246017D01*
X70784318Y-29197616D01*
X70783500Y-29193500D01*
X70783500Y-28718500D01*
X70784318Y-28714385D01*
X70789934Y-28665982D01*
X70797236Y-28649442D01*
X70801579Y-28627613D01*
X70817194Y-28604242D01*
X70825790Y-28584775D01*
X70839085Y-28571479D01*
X70853062Y-28550562D01*
X70873979Y-28536585D01*
X70887275Y-28523290D01*
X70906742Y-28514694D01*
X70930113Y-28499079D01*
X70951942Y-28494736D01*
X70968482Y-28487434D01*
X71016884Y-28481818D01*
X71021000Y-28481000D01*
X71621000Y-28481000D01*
X71625115Y-28481818D01*
G37*
G36*
X73128615Y-28481818D02*
G01*
X73177017Y-28487434D01*
X73193555Y-28494736D01*
X73215387Y-28499079D01*
X73238759Y-28514695D01*
X73258224Y-28523290D01*
X73271517Y-28536583D01*
X73292438Y-28550562D01*
X73306416Y-28571482D01*
X73319709Y-28584775D01*
X73328302Y-28604238D01*
X73343921Y-28627613D01*
X73348264Y-28649446D01*
X73355565Y-28665982D01*
X73361178Y-28714372D01*
X73362000Y-28718500D01*
X73362000Y-29193500D01*
X73361178Y-29197627D01*
X73355565Y-29246017D01*
X73348264Y-29262551D01*
X73343921Y-29284387D01*
X73328301Y-29307763D01*
X73319709Y-29327224D01*
X73306418Y-29340514D01*
X73292438Y-29361438D01*
X73271514Y-29375418D01*
X73258224Y-29388709D01*
X73238763Y-29397301D01*
X73215387Y-29412921D01*
X73193551Y-29417264D01*
X73177017Y-29424565D01*
X73128629Y-29430178D01*
X73124500Y-29431000D01*
X72624500Y-29431000D01*
X72620373Y-29430179D01*
X72571982Y-29424565D01*
X72555446Y-29417264D01*
X72533613Y-29412921D01*
X72510238Y-29397302D01*
X72490775Y-29388709D01*
X72477482Y-29375416D01*
X72456562Y-29361438D01*
X72442583Y-29340517D01*
X72429290Y-29327224D01*
X72420695Y-29307759D01*
X72405079Y-29284387D01*
X72400736Y-29262555D01*
X72393434Y-29246017D01*
X72387818Y-29197616D01*
X72387000Y-29193500D01*
X72387000Y-28718500D01*
X72387818Y-28714385D01*
X72393434Y-28665982D01*
X72400736Y-28649442D01*
X72405079Y-28627613D01*
X72420694Y-28604242D01*
X72429290Y-28584775D01*
X72442585Y-28571479D01*
X72456562Y-28550562D01*
X72477479Y-28536585D01*
X72490775Y-28523290D01*
X72510242Y-28514694D01*
X72533613Y-28499079D01*
X72555442Y-28494736D01*
X72571982Y-28487434D01*
X72620384Y-28481818D01*
X72624500Y-28481000D01*
X73124500Y-28481000D01*
X73128615Y-28481818D01*
G37*
G36*
X74953615Y-28481818D02*
G01*
X75002017Y-28487434D01*
X75018555Y-28494736D01*
X75040387Y-28499079D01*
X75063759Y-28514695D01*
X75083224Y-28523290D01*
X75096517Y-28536583D01*
X75117438Y-28550562D01*
X75131416Y-28571482D01*
X75144709Y-28584775D01*
X75153302Y-28604238D01*
X75168921Y-28627613D01*
X75173264Y-28649446D01*
X75180565Y-28665982D01*
X75186178Y-28714372D01*
X75187000Y-28718500D01*
X75187000Y-29193500D01*
X75186178Y-29197627D01*
X75180565Y-29246017D01*
X75173264Y-29262551D01*
X75168921Y-29284387D01*
X75153301Y-29307763D01*
X75144709Y-29327224D01*
X75131418Y-29340514D01*
X75117438Y-29361438D01*
X75096514Y-29375418D01*
X75083224Y-29388709D01*
X75063763Y-29397301D01*
X75040387Y-29412921D01*
X75018551Y-29417264D01*
X75002017Y-29424565D01*
X74953629Y-29430178D01*
X74949500Y-29431000D01*
X74449500Y-29431000D01*
X74445373Y-29430179D01*
X74396982Y-29424565D01*
X74380446Y-29417264D01*
X74358613Y-29412921D01*
X74335238Y-29397302D01*
X74315775Y-29388709D01*
X74302482Y-29375416D01*
X74281562Y-29361438D01*
X74267583Y-29340517D01*
X74254290Y-29327224D01*
X74245695Y-29307759D01*
X74230079Y-29284387D01*
X74225736Y-29262555D01*
X74218434Y-29246017D01*
X74212818Y-29197616D01*
X74212000Y-29193500D01*
X74212000Y-28718500D01*
X74212818Y-28714385D01*
X74218434Y-28665982D01*
X74225736Y-28649442D01*
X74230079Y-28627613D01*
X74245694Y-28604242D01*
X74254290Y-28584775D01*
X74267585Y-28571479D01*
X74281562Y-28550562D01*
X74302479Y-28536585D01*
X74315775Y-28523290D01*
X74335242Y-28514694D01*
X74358613Y-28499079D01*
X74380442Y-28494736D01*
X74396982Y-28487434D01*
X74445384Y-28481818D01*
X74449500Y-28481000D01*
X74949500Y-28481000D01*
X74953615Y-28481818D01*
G37*
G36*
X76874914Y-27120695D02*
G01*
X77010748Y-27176959D01*
X77132995Y-27258642D01*
X77236958Y-27362605D01*
X77318641Y-27484852D01*
X77374905Y-27620686D01*
X77403589Y-27764887D01*
X77403589Y-27911913D01*
X77374905Y-28056114D01*
X77318641Y-28191948D01*
X77236958Y-28314195D01*
X77132995Y-28418158D01*
X77010748Y-28499841D01*
X76874914Y-28556105D01*
X76730713Y-28584789D01*
X76583687Y-28584789D01*
X76439486Y-28556105D01*
X76303652Y-28499841D01*
X76181405Y-28418158D01*
X76077442Y-28314195D01*
X75995759Y-28191948D01*
X75939495Y-28056114D01*
X75910811Y-27911913D01*
X75910811Y-27764887D01*
X75939495Y-27620686D01*
X75995759Y-27484852D01*
X76077442Y-27362605D01*
X76181405Y-27258642D01*
X76303652Y-27176959D01*
X76439486Y-27120695D01*
X76583687Y-27092011D01*
X76730713Y-27092011D01*
X76874914Y-27120695D01*
G37*
G36*
X53327615Y-27095818D02*
G01*
X53376017Y-27101434D01*
X53392555Y-27108736D01*
X53414387Y-27113079D01*
X53437759Y-27128695D01*
X53457224Y-27137290D01*
X53470517Y-27150583D01*
X53491438Y-27164562D01*
X53505416Y-27185482D01*
X53518709Y-27198775D01*
X53527302Y-27218238D01*
X53542921Y-27241613D01*
X53547264Y-27263446D01*
X53554565Y-27279982D01*
X53560178Y-27328372D01*
X53561000Y-27332500D01*
X53561000Y-27832500D01*
X53560178Y-27836627D01*
X53554565Y-27885017D01*
X53547264Y-27901551D01*
X53542921Y-27923387D01*
X53527301Y-27946763D01*
X53518709Y-27966224D01*
X53505418Y-27979514D01*
X53491438Y-28000438D01*
X53470514Y-28014418D01*
X53457224Y-28027709D01*
X53437763Y-28036301D01*
X53414387Y-28051921D01*
X53392551Y-28056264D01*
X53376017Y-28063565D01*
X53327629Y-28069178D01*
X53323500Y-28070000D01*
X52848500Y-28070000D01*
X52844373Y-28069179D01*
X52795982Y-28063565D01*
X52779446Y-28056264D01*
X52757613Y-28051921D01*
X52734238Y-28036302D01*
X52714775Y-28027709D01*
X52701482Y-28014416D01*
X52680562Y-28000438D01*
X52666583Y-27979517D01*
X52653290Y-27966224D01*
X52644695Y-27946759D01*
X52629079Y-27923387D01*
X52624736Y-27901555D01*
X52617434Y-27885017D01*
X52611818Y-27836616D01*
X52611000Y-27832500D01*
X52611000Y-27332500D01*
X52611818Y-27328385D01*
X52617434Y-27279982D01*
X52624736Y-27263442D01*
X52629079Y-27241613D01*
X52644694Y-27218242D01*
X52653290Y-27198775D01*
X52666585Y-27185479D01*
X52680562Y-27164562D01*
X52701479Y-27150585D01*
X52714775Y-27137290D01*
X52734242Y-27128694D01*
X52757613Y-27113079D01*
X52779442Y-27108736D01*
X52795982Y-27101434D01*
X52844384Y-27095818D01*
X52848500Y-27095000D01*
X53323500Y-27095000D01*
X53327615Y-27095818D01*
G37*
G36*
X43366642Y-26674402D02*
G01*
X43435550Y-26714186D01*
X43491814Y-26770450D01*
X43531598Y-26839358D01*
X43552192Y-26916216D01*
X43552192Y-26995784D01*
X43531598Y-27072642D01*
X43491814Y-27141550D01*
X43435550Y-27197814D01*
X43366642Y-27237598D01*
X43289784Y-27258192D01*
X43210216Y-27258192D01*
X43133358Y-27237598D01*
X43064450Y-27197814D01*
X43008186Y-27141550D01*
X42968402Y-27072642D01*
X42947808Y-26995784D01*
X42947808Y-26916216D01*
X42968402Y-26839358D01*
X43008186Y-26770450D01*
X43064450Y-26714186D01*
X43133358Y-26674402D01*
X43210216Y-26653808D01*
X43289784Y-26653808D01*
X43366642Y-26674402D01*
G37*
G36*
X60954116Y-25950818D02*
G01*
X61005379Y-25956766D01*
X61022892Y-25964499D01*
X61045671Y-25969030D01*
X61070057Y-25985324D01*
X61090788Y-25994478D01*
X61104946Y-26008636D01*
X61126777Y-26023223D01*
X61141363Y-26045053D01*
X61155521Y-26059211D01*
X61164673Y-26079939D01*
X61180970Y-26104329D01*
X61185501Y-26127109D01*
X61193233Y-26144620D01*
X61199178Y-26195872D01*
X61200000Y-26200000D01*
X61200000Y-26850000D01*
X61199178Y-26854128D01*
X61193233Y-26905379D01*
X61185501Y-26922888D01*
X61180970Y-26945671D01*
X61164672Y-26970062D01*
X61155521Y-26990788D01*
X61141365Y-27004943D01*
X61126777Y-27026777D01*
X61104943Y-27041365D01*
X61090788Y-27055521D01*
X61070062Y-27064672D01*
X61045671Y-27080970D01*
X61022888Y-27085501D01*
X61005379Y-27093233D01*
X60954129Y-27099178D01*
X60950000Y-27100000D01*
X60050000Y-27100000D01*
X60045873Y-27099179D01*
X59994620Y-27093233D01*
X59977109Y-27085501D01*
X59954329Y-27080970D01*
X59929939Y-27064673D01*
X59909211Y-27055521D01*
X59895053Y-27041363D01*
X59873223Y-27026777D01*
X59858636Y-27004946D01*
X59844478Y-26990788D01*
X59835324Y-26970057D01*
X59819030Y-26945671D01*
X59814499Y-26922892D01*
X59806766Y-26905379D01*
X59800818Y-26854117D01*
X59800000Y-26850000D01*
X59800000Y-26200000D01*
X59800818Y-26195885D01*
X59806766Y-26144620D01*
X59814499Y-26127105D01*
X59819030Y-26104329D01*
X59835323Y-26079944D01*
X59844478Y-26059211D01*
X59858638Y-26045050D01*
X59873223Y-26023223D01*
X59895050Y-26008638D01*
X59909211Y-25994478D01*
X59929944Y-25985323D01*
X59954329Y-25969030D01*
X59977105Y-25964499D01*
X59994620Y-25956766D01*
X60045884Y-25950818D01*
X60050000Y-25950000D01*
X60950000Y-25950000D01*
X60954116Y-25950818D01*
G37*
G36*
X79875000Y-26950000D02*
G01*
X79625000Y-26950000D01*
X79625000Y-26400000D01*
X79875000Y-26400000D01*
X79875000Y-26950000D01*
G37*
G36*
X80375000Y-26950000D02*
G01*
X80125000Y-26950000D01*
X80125000Y-26400000D01*
X80375000Y-26400000D01*
X80375000Y-26950000D01*
G37*
G36*
X80875000Y-26950000D02*
G01*
X80625000Y-26950000D01*
X80625000Y-26400000D01*
X80875000Y-26400000D01*
X80875000Y-26950000D01*
G37*
G36*
X81375000Y-26950000D02*
G01*
X81125000Y-26950000D01*
X81125000Y-26400000D01*
X81375000Y-26400000D01*
X81375000Y-26950000D01*
G37*
G36*
X69980000Y-26125617D02*
G01*
X69982628Y-26127372D01*
X69984383Y-26130000D01*
X69985000Y-26133100D01*
X69985000Y-26856900D01*
X69984383Y-26860000D01*
X69982628Y-26862628D01*
X69980000Y-26864383D01*
X69976900Y-26865000D01*
X69723100Y-26865000D01*
X69720000Y-26864383D01*
X69717372Y-26862628D01*
X69715617Y-26860000D01*
X69715000Y-26856900D01*
X69715000Y-26133100D01*
X69715617Y-26130000D01*
X69717372Y-26127372D01*
X69720000Y-26125617D01*
X69723100Y-26125000D01*
X69976900Y-26125000D01*
X69980000Y-26125617D01*
G37*
G36*
X70630000Y-26125617D02*
G01*
X70632628Y-26127372D01*
X70634383Y-26130000D01*
X70635000Y-26133100D01*
X70635000Y-26856900D01*
X70634383Y-26860000D01*
X70632628Y-26862628D01*
X70630000Y-26864383D01*
X70626900Y-26865000D01*
X70373100Y-26865000D01*
X70370000Y-26864383D01*
X70367372Y-26862628D01*
X70365617Y-26860000D01*
X70365000Y-26856900D01*
X70365000Y-26133100D01*
X70365617Y-26130000D01*
X70367372Y-26127372D01*
X70370000Y-26125617D01*
X70373100Y-26125000D01*
X70626900Y-26125000D01*
X70630000Y-26125617D01*
G37*
G36*
X71280000Y-26125617D02*
G01*
X71282628Y-26127372D01*
X71284383Y-26130000D01*
X71285000Y-26133100D01*
X71285000Y-26856900D01*
X71284383Y-26860000D01*
X71282628Y-26862628D01*
X71280000Y-26864383D01*
X71276900Y-26865000D01*
X71023100Y-26865000D01*
X71020000Y-26864383D01*
X71017372Y-26862628D01*
X71015617Y-26860000D01*
X71015000Y-26856900D01*
X71015000Y-26133100D01*
X71015617Y-26130000D01*
X71017372Y-26127372D01*
X71020000Y-26125617D01*
X71023100Y-26125000D01*
X71276900Y-26125000D01*
X71280000Y-26125617D01*
G37*
G36*
X53327615Y-25270818D02*
G01*
X53376017Y-25276434D01*
X53392555Y-25283736D01*
X53414387Y-25288079D01*
X53437759Y-25303695D01*
X53457224Y-25312290D01*
X53470517Y-25325583D01*
X53491438Y-25339562D01*
X53505416Y-25360482D01*
X53518709Y-25373775D01*
X53527302Y-25393238D01*
X53542921Y-25416613D01*
X53547264Y-25438446D01*
X53554565Y-25454982D01*
X53560178Y-25503372D01*
X53561000Y-25507500D01*
X53561000Y-26007500D01*
X53560178Y-26011627D01*
X53554565Y-26060017D01*
X53547264Y-26076551D01*
X53542921Y-26098387D01*
X53527301Y-26121763D01*
X53518709Y-26141224D01*
X53505418Y-26154514D01*
X53491438Y-26175438D01*
X53470514Y-26189418D01*
X53457224Y-26202709D01*
X53437763Y-26211301D01*
X53414387Y-26226921D01*
X53392551Y-26231264D01*
X53376017Y-26238565D01*
X53327629Y-26244178D01*
X53323500Y-26245000D01*
X52848500Y-26245000D01*
X52844373Y-26244179D01*
X52795982Y-26238565D01*
X52779446Y-26231264D01*
X52757613Y-26226921D01*
X52734238Y-26211302D01*
X52714775Y-26202709D01*
X52701482Y-26189416D01*
X52680562Y-26175438D01*
X52666583Y-26154517D01*
X52653290Y-26141224D01*
X52644695Y-26121759D01*
X52629079Y-26098387D01*
X52624736Y-26076555D01*
X52617434Y-26060017D01*
X52611818Y-26011616D01*
X52611000Y-26007500D01*
X52611000Y-25507500D01*
X52611818Y-25503385D01*
X52617434Y-25454982D01*
X52624736Y-25438442D01*
X52629079Y-25416613D01*
X52644694Y-25393242D01*
X52653290Y-25373775D01*
X52666585Y-25360479D01*
X52680562Y-25339562D01*
X52701479Y-25325585D01*
X52714775Y-25312290D01*
X52734242Y-25303694D01*
X52757613Y-25288079D01*
X52779442Y-25283736D01*
X52795982Y-25276434D01*
X52844384Y-25270818D01*
X52848500Y-25270000D01*
X53323500Y-25270000D01*
X53327615Y-25270818D01*
G37*
G36*
X81353536Y-24996464D02*
G01*
X81355000Y-25000000D01*
X81355000Y-26000000D01*
X81353536Y-26003536D01*
X81350000Y-26005000D01*
X81339896Y-26005000D01*
X79960104Y-26005000D01*
X79950000Y-26005000D01*
X79946464Y-26003536D01*
X79646464Y-25703536D01*
X79645000Y-25700000D01*
X79645000Y-25000000D01*
X79646464Y-24996464D01*
X79650000Y-24995000D01*
X81350000Y-24995000D01*
X81353536Y-24996464D01*
G37*
G36*
X71175000Y-25825000D02*
G01*
X69825000Y-25825000D01*
X69825000Y-25175000D01*
X71175000Y-25175000D01*
X71175000Y-25825000D01*
G37*
G36*
X49709268Y-24220612D02*
G01*
X49741711Y-24242289D01*
X49763388Y-24274732D01*
X49771000Y-24313000D01*
X49771000Y-25588000D01*
X49763388Y-25626268D01*
X49741711Y-25658711D01*
X49709268Y-25680388D01*
X49671000Y-25688000D01*
X49471000Y-25688000D01*
X49432732Y-25680388D01*
X49400289Y-25658711D01*
X49378612Y-25626268D01*
X49371000Y-25588000D01*
X49371000Y-24313000D01*
X49378612Y-24274732D01*
X49400289Y-24242289D01*
X49432732Y-24220612D01*
X49471000Y-24213000D01*
X49671000Y-24213000D01*
X49709268Y-24220612D01*
G37*
G36*
X50359268Y-24220612D02*
G01*
X50391711Y-24242289D01*
X50413388Y-24274732D01*
X50421000Y-24313000D01*
X50421000Y-25588000D01*
X50413388Y-25626268D01*
X50391711Y-25658711D01*
X50359268Y-25680388D01*
X50321000Y-25688000D01*
X50121000Y-25688000D01*
X50082732Y-25680388D01*
X50050289Y-25658711D01*
X50028612Y-25626268D01*
X50021000Y-25588000D01*
X50021000Y-24313000D01*
X50028612Y-24274732D01*
X50050289Y-24242289D01*
X50082732Y-24220612D01*
X50121000Y-24213000D01*
X50321000Y-24213000D01*
X50359268Y-24220612D01*
G37*
G36*
X51009268Y-24220612D02*
G01*
X51041711Y-24242289D01*
X51063388Y-24274732D01*
X51071000Y-24313000D01*
X51071000Y-25588000D01*
X51063388Y-25626268D01*
X51041711Y-25658711D01*
X51009268Y-25680388D01*
X50971000Y-25688000D01*
X50771000Y-25688000D01*
X50732732Y-25680388D01*
X50700289Y-25658711D01*
X50678612Y-25626268D01*
X50671000Y-25588000D01*
X50671000Y-24313000D01*
X50678612Y-24274732D01*
X50700289Y-24242289D01*
X50732732Y-24220612D01*
X50771000Y-24213000D01*
X50971000Y-24213000D01*
X51009268Y-24220612D01*
G37*
G36*
X51659268Y-24220612D02*
G01*
X51691711Y-24242289D01*
X51713388Y-24274732D01*
X51721000Y-24313000D01*
X51721000Y-25588000D01*
X51713388Y-25626268D01*
X51691711Y-25658711D01*
X51659268Y-25680388D01*
X51621000Y-25688000D01*
X51421000Y-25688000D01*
X51382732Y-25680388D01*
X51350289Y-25658711D01*
X51328612Y-25626268D01*
X51321000Y-25588000D01*
X51321000Y-24313000D01*
X51328612Y-24274732D01*
X51350289Y-24242289D01*
X51382732Y-24220612D01*
X51421000Y-24213000D01*
X51621000Y-24213000D01*
X51659268Y-24220612D01*
G37*
G36*
X60954116Y-23900818D02*
G01*
X61005379Y-23906766D01*
X61022892Y-23914499D01*
X61045671Y-23919030D01*
X61070057Y-23935324D01*
X61090788Y-23944478D01*
X61104946Y-23958636D01*
X61126777Y-23973223D01*
X61141363Y-23995053D01*
X61155521Y-24009211D01*
X61164673Y-24029939D01*
X61180970Y-24054329D01*
X61185501Y-24077109D01*
X61193233Y-24094620D01*
X61199178Y-24145872D01*
X61200000Y-24150000D01*
X61200000Y-24800000D01*
X61199178Y-24804128D01*
X61193233Y-24855379D01*
X61185501Y-24872888D01*
X61180970Y-24895671D01*
X61164672Y-24920062D01*
X61155521Y-24940788D01*
X61141365Y-24954943D01*
X61126777Y-24976777D01*
X61104943Y-24991365D01*
X61090788Y-25005521D01*
X61070062Y-25014672D01*
X61045671Y-25030970D01*
X61022888Y-25035501D01*
X61005379Y-25043233D01*
X60954129Y-25049178D01*
X60950000Y-25050000D01*
X60050000Y-25050000D01*
X60045873Y-25049179D01*
X59994620Y-25043233D01*
X59977109Y-25035501D01*
X59954329Y-25030970D01*
X59929939Y-25014673D01*
X59909211Y-25005521D01*
X59895053Y-24991363D01*
X59873223Y-24976777D01*
X59858636Y-24954946D01*
X59844478Y-24940788D01*
X59835324Y-24920057D01*
X59819030Y-24895671D01*
X59814499Y-24872892D01*
X59806766Y-24855379D01*
X59800818Y-24804117D01*
X59800000Y-24800000D01*
X59800000Y-24150000D01*
X59800818Y-24145885D01*
X59806766Y-24094620D01*
X59814499Y-24077105D01*
X59819030Y-24054329D01*
X59835323Y-24029944D01*
X59844478Y-24009211D01*
X59858638Y-23995050D01*
X59873223Y-23973223D01*
X59895050Y-23958638D01*
X59909211Y-23944478D01*
X59929944Y-23935323D01*
X59954329Y-23919030D01*
X59977105Y-23914499D01*
X59994620Y-23906766D01*
X60045884Y-23900818D01*
X60050000Y-23900000D01*
X60950000Y-23900000D01*
X60954116Y-23900818D01*
G37*
G36*
X69980000Y-24135617D02*
G01*
X69982628Y-24137372D01*
X69984383Y-24140000D01*
X69985000Y-24143100D01*
X69985000Y-24866900D01*
X69984383Y-24870000D01*
X69982628Y-24872628D01*
X69980000Y-24874383D01*
X69976900Y-24875000D01*
X69723100Y-24875000D01*
X69720000Y-24874383D01*
X69717372Y-24872628D01*
X69715617Y-24870000D01*
X69715000Y-24866900D01*
X69715000Y-24143100D01*
X69715617Y-24140000D01*
X69717372Y-24137372D01*
X69720000Y-24135617D01*
X69723100Y-24135000D01*
X69976900Y-24135000D01*
X69980000Y-24135617D01*
G37*
G36*
X70630000Y-24135617D02*
G01*
X70632628Y-24137372D01*
X70634383Y-24140000D01*
X70635000Y-24143100D01*
X70635000Y-24866900D01*
X70634383Y-24870000D01*
X70632628Y-24872628D01*
X70630000Y-24874383D01*
X70626900Y-24875000D01*
X70373100Y-24875000D01*
X70370000Y-24874383D01*
X70367372Y-24872628D01*
X70365617Y-24870000D01*
X70365000Y-24866900D01*
X70365000Y-24143100D01*
X70365617Y-24140000D01*
X70367372Y-24137372D01*
X70370000Y-24135617D01*
X70373100Y-24135000D01*
X70626900Y-24135000D01*
X70630000Y-24135617D01*
G37*
G36*
X71280000Y-24135617D02*
G01*
X71282628Y-24137372D01*
X71284383Y-24140000D01*
X71285000Y-24143100D01*
X71285000Y-24866900D01*
X71284383Y-24870000D01*
X71282628Y-24872628D01*
X71280000Y-24874383D01*
X71276900Y-24875000D01*
X71023100Y-24875000D01*
X71020000Y-24874383D01*
X71017372Y-24872628D01*
X71015617Y-24870000D01*
X71015000Y-24866900D01*
X71015000Y-24143100D01*
X71015617Y-24140000D01*
X71017372Y-24137372D01*
X71020000Y-24135617D01*
X71023100Y-24135000D01*
X71276900Y-24135000D01*
X71280000Y-24135617D01*
G37*
G36*
X79875000Y-24600000D02*
G01*
X79625000Y-24600000D01*
X79625000Y-24050000D01*
X79875000Y-24050000D01*
X79875000Y-24600000D01*
G37*
G36*
X80375000Y-24600000D02*
G01*
X80125000Y-24600000D01*
X80125000Y-24050000D01*
X80375000Y-24050000D01*
X80375000Y-24600000D01*
G37*
G36*
X80875000Y-24600000D02*
G01*
X80625000Y-24600000D01*
X80625000Y-24050000D01*
X80875000Y-24050000D01*
X80875000Y-24600000D01*
G37*
G36*
X81375000Y-24600000D02*
G01*
X81125000Y-24600000D01*
X81125000Y-24050000D01*
X81375000Y-24050000D01*
X81375000Y-24600000D01*
G37*
G36*
X47145802Y-23854002D02*
G01*
X47231938Y-23903732D01*
X47302268Y-23974062D01*
X47351998Y-24060198D01*
X47377740Y-24156270D01*
X47377740Y-24255730D01*
X47351998Y-24351802D01*
X47302268Y-24437938D01*
X47231938Y-24508268D01*
X47145802Y-24557998D01*
X47049730Y-24583740D01*
X46950270Y-24583740D01*
X46854198Y-24557998D01*
X46768062Y-24508268D01*
X46697732Y-24437938D01*
X46648002Y-24351802D01*
X46622260Y-24255730D01*
X46622260Y-24156270D01*
X46648002Y-24060198D01*
X46697732Y-23974062D01*
X46768062Y-23903732D01*
X46854198Y-23854002D01*
X46950270Y-23828260D01*
X47049730Y-23828260D01*
X47145802Y-23854002D01*
G37*
G36*
X46145802Y-22854002D02*
G01*
X46231938Y-22903732D01*
X46302268Y-22974062D01*
X46351998Y-23060198D01*
X46377740Y-23156270D01*
X46377740Y-23255730D01*
X46351998Y-23351802D01*
X46302268Y-23437938D01*
X46231938Y-23508268D01*
X46145802Y-23557998D01*
X46049730Y-23583740D01*
X45950270Y-23583740D01*
X45854198Y-23557998D01*
X45768062Y-23508268D01*
X45697732Y-23437938D01*
X45648002Y-23351802D01*
X45622260Y-23255730D01*
X45622260Y-23156270D01*
X45648002Y-23060198D01*
X45697732Y-22974062D01*
X45768062Y-22903732D01*
X45854198Y-22854002D01*
X45950270Y-22828260D01*
X46049730Y-22828260D01*
X46145802Y-22854002D01*
G37*
M02*
